<?xml version="1.0" encoding="utf-8"?>
<svg xmlns="http://www.w3.org/2000/svg" xmlns:xlink="http://www.w3.org/1999/xlink" width="600" height="400" viewBox="0 0 2400 1600">
<defs>
  <clipPath id="clip970">
    <rect x="0" y="0" width="2400" height="1600"/>
  </clipPath>
</defs>
<path clip-path="url(#clip970)" d="
M0 1600 L2400 1600 L2400 0 L0 0  Z
  " fill="#ffffff" fill-rule="evenodd" fill-opacity="1"/>
<defs>
  <clipPath id="clip971">
    <rect x="480" y="0" width="1681" height="1600"/>
  </clipPath>
</defs>
<path clip-path="url(#clip970)" d="
M202.177 1486.45 L2352.76 1486.45 L2352.76 47.2441 L202.177 47.2441  Z
  " fill="#ffffff" fill-rule="evenodd" fill-opacity="1"/>
<defs>
  <clipPath id="clip972">
    <rect x="202" y="47" width="2152" height="1440"/>
  </clipPath>
</defs>
<polyline clip-path="url(#clip972)" style="stroke:#000000; stroke-linecap:butt; stroke-linejoin:round; stroke-width:2; stroke-opacity:0.1; fill:none" points="
  263.042,1486.45 263.042,47.2441 
  "/>
<polyline clip-path="url(#clip972)" style="stroke:#000000; stroke-linecap:butt; stroke-linejoin:round; stroke-width:2; stroke-opacity:0.1; fill:none" points="
  770.254,1486.45 770.254,47.2441 
  "/>
<polyline clip-path="url(#clip972)" style="stroke:#000000; stroke-linecap:butt; stroke-linejoin:round; stroke-width:2; stroke-opacity:0.1; fill:none" points="
  1277.47,1486.45 1277.47,47.2441 
  "/>
<polyline clip-path="url(#clip972)" style="stroke:#000000; stroke-linecap:butt; stroke-linejoin:round; stroke-width:2; stroke-opacity:0.1; fill:none" points="
  1784.68,1486.45 1784.68,47.2441 
  "/>
<polyline clip-path="url(#clip972)" style="stroke:#000000; stroke-linecap:butt; stroke-linejoin:round; stroke-width:2; stroke-opacity:0.1; fill:none" points="
  2291.89,1486.45 2291.89,47.2441 
  "/>
<polyline clip-path="url(#clip970)" style="stroke:#000000; stroke-linecap:butt; stroke-linejoin:round; stroke-width:4; stroke-opacity:1; fill:none" points="
  202.177,1486.45 2352.76,1486.45 
  "/>
<polyline clip-path="url(#clip970)" style="stroke:#000000; stroke-linecap:butt; stroke-linejoin:round; stroke-width:4; stroke-opacity:1; fill:none" points="
  263.042,1486.45 263.042,1467.55 
  "/>
<polyline clip-path="url(#clip970)" style="stroke:#000000; stroke-linecap:butt; stroke-linejoin:round; stroke-width:4; stroke-opacity:1; fill:none" points="
  770.254,1486.45 770.254,1467.55 
  "/>
<polyline clip-path="url(#clip970)" style="stroke:#000000; stroke-linecap:butt; stroke-linejoin:round; stroke-width:4; stroke-opacity:1; fill:none" points="
  1277.47,1486.45 1277.47,1467.55 
  "/>
<polyline clip-path="url(#clip970)" style="stroke:#000000; stroke-linecap:butt; stroke-linejoin:round; stroke-width:4; stroke-opacity:1; fill:none" points="
  1784.68,1486.45 1784.68,1467.55 
  "/>
<polyline clip-path="url(#clip970)" style="stroke:#000000; stroke-linecap:butt; stroke-linejoin:round; stroke-width:4; stroke-opacity:1; fill:none" points="
  2291.89,1486.45 2291.89,1467.55 
  "/>
<path clip-path="url(#clip970)" d="M240.427 1517.37 Q236.815 1517.37 234.987 1520.93 Q233.181 1524.47 233.181 1531.6 Q233.181 1538.71 234.987 1542.27 Q236.815 1545.82 240.427 1545.82 Q244.061 1545.82 245.866 1542.27 Q247.695 1538.71 247.695 1531.6 Q247.695 1524.47 245.866 1520.93 Q244.061 1517.37 240.427 1517.37 M240.427 1513.66 Q246.237 1513.66 249.292 1518.27 Q252.371 1522.85 252.371 1531.6 Q252.371 1540.33 249.292 1544.94 Q246.237 1549.52 240.427 1549.52 Q234.616 1549.52 231.538 1544.94 Q228.482 1540.33 228.482 1531.6 Q228.482 1522.85 231.538 1518.27 Q234.616 1513.66 240.427 1513.66 Z" fill="#000000" fill-rule="evenodd" fill-opacity="1" /><path clip-path="url(#clip970)" d="M260.588 1542.97 L265.473 1542.97 L265.473 1548.85 L260.588 1548.85 L260.588 1542.97 Z" fill="#000000" fill-rule="evenodd" fill-opacity="1" /><path clip-path="url(#clip970)" d="M285.658 1517.37 Q282.047 1517.37 280.218 1520.93 Q278.412 1524.47 278.412 1531.6 Q278.412 1538.71 280.218 1542.27 Q282.047 1545.82 285.658 1545.82 Q289.292 1545.82 291.098 1542.27 Q292.926 1538.71 292.926 1531.6 Q292.926 1524.47 291.098 1520.93 Q289.292 1517.37 285.658 1517.37 M285.658 1513.66 Q291.468 1513.66 294.523 1518.27 Q297.602 1522.85 297.602 1531.6 Q297.602 1540.33 294.523 1544.94 Q291.468 1549.52 285.658 1549.52 Q279.848 1549.52 276.769 1544.94 Q273.713 1540.33 273.713 1531.6 Q273.713 1522.85 276.769 1518.27 Q279.848 1513.66 285.658 1513.66 Z" fill="#000000" fill-rule="evenodd" fill-opacity="1" /><path clip-path="url(#clip970)" d="M741.99 1544.91 L758.31 1544.91 L758.31 1548.85 L736.366 1548.85 L736.366 1544.91 Q739.028 1542.16 743.611 1537.53 Q748.217 1532.88 749.398 1531.53 Q751.643 1529.01 752.523 1527.27 Q753.426 1525.51 753.426 1523.82 Q753.426 1521.07 751.481 1519.33 Q749.56 1517.6 746.458 1517.6 Q744.259 1517.6 741.805 1518.36 Q739.375 1519.13 736.597 1520.68 L736.597 1515.95 Q739.421 1514.82 741.875 1514.24 Q744.328 1513.66 746.365 1513.66 Q751.736 1513.66 754.93 1516.35 Q758.125 1519.03 758.125 1523.52 Q758.125 1525.65 757.314 1527.57 Q756.527 1529.47 754.421 1532.07 Q753.842 1532.74 750.74 1535.95 Q747.639 1539.15 741.99 1544.91 Z" fill="#000000" fill-rule="evenodd" fill-opacity="1" /><path clip-path="url(#clip970)" d="M768.125 1542.97 L773.009 1542.97 L773.009 1548.85 L768.125 1548.85 L768.125 1542.97 Z" fill="#000000" fill-rule="evenodd" fill-opacity="1" /><path clip-path="url(#clip970)" d="M783.24 1514.29 L801.597 1514.29 L801.597 1518.22 L787.523 1518.22 L787.523 1526.7 Q788.541 1526.35 789.56 1526.19 Q790.578 1526 791.597 1526 Q797.384 1526 800.763 1529.17 Q804.143 1532.34 804.143 1537.76 Q804.143 1543.34 800.671 1546.44 Q797.199 1549.52 790.879 1549.52 Q788.703 1549.52 786.435 1549.15 Q784.189 1548.78 781.782 1548.04 L781.782 1543.34 Q783.865 1544.47 786.087 1545.03 Q788.31 1545.58 790.787 1545.58 Q794.791 1545.58 797.129 1543.48 Q799.467 1541.37 799.467 1537.76 Q799.467 1534.15 797.129 1532.04 Q794.791 1529.94 790.787 1529.94 Q788.912 1529.94 787.037 1530.35 Q785.185 1530.77 783.24 1531.65 L783.24 1514.29 Z" fill="#000000" fill-rule="evenodd" fill-opacity="1" /><path clip-path="url(#clip970)" d="M1244.63 1514.29 L1262.99 1514.29 L1262.99 1518.22 L1248.91 1518.22 L1248.91 1526.7 Q1249.93 1526.35 1250.95 1526.19 Q1251.97 1526 1252.99 1526 Q1258.77 1526 1262.15 1529.17 Q1265.53 1532.34 1265.53 1537.76 Q1265.53 1543.34 1262.06 1546.44 Q1258.59 1549.52 1252.27 1549.52 Q1250.09 1549.52 1247.83 1549.15 Q1245.58 1548.78 1243.17 1548.04 L1243.17 1543.34 Q1245.26 1544.47 1247.48 1545.03 Q1249.7 1545.58 1252.18 1545.58 Q1256.18 1545.58 1258.52 1543.48 Q1260.86 1541.37 1260.86 1537.76 Q1260.86 1534.15 1258.52 1532.04 Q1256.18 1529.94 1252.18 1529.94 Q1250.3 1529.94 1248.43 1530.35 Q1246.58 1530.77 1244.63 1531.65 L1244.63 1514.29 Z" fill="#000000" fill-rule="evenodd" fill-opacity="1" /><path clip-path="url(#clip970)" d="M1274.75 1542.97 L1279.63 1542.97 L1279.63 1548.85 L1274.75 1548.85 L1274.75 1542.97 Z" fill="#000000" fill-rule="evenodd" fill-opacity="1" /><path clip-path="url(#clip970)" d="M1299.82 1517.37 Q1296.2 1517.37 1294.38 1520.93 Q1292.57 1524.47 1292.57 1531.6 Q1292.57 1538.71 1294.38 1542.27 Q1296.2 1545.82 1299.82 1545.82 Q1303.45 1545.82 1305.26 1542.27 Q1307.08 1538.71 1307.08 1531.6 Q1307.08 1524.47 1305.26 1520.93 Q1303.45 1517.37 1299.82 1517.37 M1299.82 1513.66 Q1305.63 1513.66 1308.68 1518.27 Q1311.76 1522.85 1311.76 1531.6 Q1311.76 1540.33 1308.68 1544.94 Q1305.63 1549.52 1299.82 1549.52 Q1294.01 1549.52 1290.93 1544.94 Q1287.87 1540.33 1287.87 1531.6 Q1287.87 1522.85 1290.93 1518.27 Q1294.01 1513.66 1299.82 1513.66 Z" fill="#000000" fill-rule="evenodd" fill-opacity="1" /><path clip-path="url(#clip970)" d="M1751 1514.29 L1773.22 1514.29 L1773.22 1516.28 L1760.67 1548.85 L1755.79 1548.85 L1767.6 1518.22 L1751 1518.22 L1751 1514.29 Z" fill="#000000" fill-rule="evenodd" fill-opacity="1" /><path clip-path="url(#clip970)" d="M1782.34 1542.97 L1787.22 1542.97 L1787.22 1548.85 L1782.34 1548.85 L1782.34 1542.97 Z" fill="#000000" fill-rule="evenodd" fill-opacity="1" /><path clip-path="url(#clip970)" d="M1797.46 1514.29 L1815.81 1514.29 L1815.81 1518.22 L1801.74 1518.22 L1801.74 1526.7 Q1802.76 1526.35 1803.78 1526.19 Q1804.79 1526 1805.81 1526 Q1811.6 1526 1814.98 1529.17 Q1818.36 1532.34 1818.36 1537.76 Q1818.36 1543.34 1814.89 1546.44 Q1811.41 1549.52 1805.09 1549.52 Q1802.92 1549.52 1800.65 1549.15 Q1798.41 1548.78 1796 1548.04 L1796 1543.34 Q1798.08 1544.47 1800.3 1545.03 Q1802.53 1545.58 1805 1545.58 Q1809.01 1545.58 1811.34 1543.48 Q1813.68 1541.37 1813.68 1537.76 Q1813.68 1534.15 1811.34 1532.04 Q1809.01 1529.94 1805 1529.94 Q1803.13 1529.94 1801.25 1530.35 Q1799.4 1530.77 1797.46 1531.65 L1797.46 1514.29 Z" fill="#000000" fill-rule="evenodd" fill-opacity="1" /><path clip-path="url(#clip970)" d="M2243.96 1544.91 L2251.6 1544.91 L2251.6 1518.55 L2243.29 1520.21 L2243.29 1515.95 L2251.56 1514.29 L2256.23 1514.29 L2256.23 1544.91 L2263.87 1544.91 L2263.87 1548.85 L2243.96 1548.85 L2243.96 1544.91 Z" fill="#000000" fill-rule="evenodd" fill-opacity="1" /><path clip-path="url(#clip970)" d="M2283.31 1517.37 Q2279.7 1517.37 2277.87 1520.93 Q2276.07 1524.47 2276.07 1531.6 Q2276.07 1538.71 2277.87 1542.27 Q2279.7 1545.82 2283.31 1545.82 Q2286.95 1545.82 2288.75 1542.27 Q2290.58 1538.71 2290.58 1531.6 Q2290.58 1524.47 2288.75 1520.93 Q2286.95 1517.37 2283.31 1517.37 M2283.31 1513.66 Q2289.12 1513.66 2292.18 1518.27 Q2295.26 1522.85 2295.26 1531.6 Q2295.26 1540.33 2292.18 1544.94 Q2289.12 1549.52 2283.31 1549.52 Q2277.5 1549.52 2274.43 1544.94 Q2271.37 1540.33 2271.37 1531.6 Q2271.37 1522.85 2274.43 1518.27 Q2277.5 1513.66 2283.31 1513.66 Z" fill="#000000" fill-rule="evenodd" fill-opacity="1" /><path clip-path="url(#clip970)" d="M2303.48 1542.97 L2308.36 1542.97 L2308.36 1548.85 L2303.48 1548.85 L2303.48 1542.97 Z" fill="#000000" fill-rule="evenodd" fill-opacity="1" /><path clip-path="url(#clip970)" d="M2328.55 1517.37 Q2324.93 1517.37 2323.11 1520.93 Q2321.3 1524.47 2321.3 1531.6 Q2321.3 1538.71 2323.11 1542.27 Q2324.93 1545.82 2328.55 1545.82 Q2332.18 1545.82 2333.99 1542.27 Q2335.81 1538.71 2335.81 1531.6 Q2335.81 1524.47 2333.99 1520.93 Q2332.18 1517.37 2328.55 1517.37 M2328.55 1513.66 Q2334.36 1513.66 2337.41 1518.27 Q2340.49 1522.85 2340.49 1531.6 Q2340.49 1540.33 2337.41 1544.94 Q2334.36 1549.52 2328.55 1549.52 Q2322.74 1549.52 2319.66 1544.94 Q2316.6 1540.33 2316.6 1531.6 Q2316.6 1522.85 2319.66 1518.27 Q2322.74 1513.66 2328.55 1513.66 Z" fill="#000000" fill-rule="evenodd" fill-opacity="1" /><polyline clip-path="url(#clip972)" style="stroke:#000000; stroke-linecap:butt; stroke-linejoin:round; stroke-width:2; stroke-opacity:0.1; fill:none" points="
  202.177,1428.57 2352.76,1428.57 
  "/>
<polyline clip-path="url(#clip972)" style="stroke:#000000; stroke-linecap:butt; stroke-linejoin:round; stroke-width:2; stroke-opacity:0.1; fill:none" points="
  202.177,1108.31 2352.76,1108.31 
  "/>
<polyline clip-path="url(#clip972)" style="stroke:#000000; stroke-linecap:butt; stroke-linejoin:round; stroke-width:2; stroke-opacity:0.1; fill:none" points="
  202.177,788.057 2352.76,788.057 
  "/>
<polyline clip-path="url(#clip972)" style="stroke:#000000; stroke-linecap:butt; stroke-linejoin:round; stroke-width:2; stroke-opacity:0.1; fill:none" points="
  202.177,467.801 2352.76,467.801 
  "/>
<polyline clip-path="url(#clip972)" style="stroke:#000000; stroke-linecap:butt; stroke-linejoin:round; stroke-width:2; stroke-opacity:0.1; fill:none" points="
  202.177,147.544 2352.76,147.544 
  "/>
<polyline clip-path="url(#clip970)" style="stroke:#000000; stroke-linecap:butt; stroke-linejoin:round; stroke-width:4; stroke-opacity:1; fill:none" points="
  202.177,1486.45 202.177,47.2441 
  "/>
<polyline clip-path="url(#clip970)" style="stroke:#000000; stroke-linecap:butt; stroke-linejoin:round; stroke-width:4; stroke-opacity:1; fill:none" points="
  202.177,1428.57 221.074,1428.57 
  "/>
<polyline clip-path="url(#clip970)" style="stroke:#000000; stroke-linecap:butt; stroke-linejoin:round; stroke-width:4; stroke-opacity:1; fill:none" points="
  202.177,1108.31 221.074,1108.31 
  "/>
<polyline clip-path="url(#clip970)" style="stroke:#000000; stroke-linecap:butt; stroke-linejoin:round; stroke-width:4; stroke-opacity:1; fill:none" points="
  202.177,788.057 221.074,788.057 
  "/>
<polyline clip-path="url(#clip970)" style="stroke:#000000; stroke-linecap:butt; stroke-linejoin:round; stroke-width:4; stroke-opacity:1; fill:none" points="
  202.177,467.801 221.074,467.801 
  "/>
<polyline clip-path="url(#clip970)" style="stroke:#000000; stroke-linecap:butt; stroke-linejoin:round; stroke-width:4; stroke-opacity:1; fill:none" points="
  202.177,147.544 221.074,147.544 
  "/>
<path clip-path="url(#clip970)" d="M154.232 1414.37 Q150.621 1414.37 148.793 1417.93 Q146.987 1421.48 146.987 1428.61 Q146.987 1435.71 148.793 1439.28 Q150.621 1442.82 154.232 1442.82 Q157.867 1442.82 159.672 1439.28 Q161.501 1435.71 161.501 1428.61 Q161.501 1421.48 159.672 1417.93 Q157.867 1414.37 154.232 1414.37 M154.232 1410.67 Q160.042 1410.67 163.098 1415.27 Q166.177 1419.86 166.177 1428.61 Q166.177 1437.33 163.098 1441.94 Q160.042 1446.52 154.232 1446.52 Q148.422 1446.52 145.343 1441.94 Q142.288 1437.33 142.288 1428.61 Q142.288 1419.86 145.343 1415.27 Q148.422 1410.67 154.232 1410.67 Z" fill="#000000" fill-rule="evenodd" fill-opacity="1" /><path clip-path="url(#clip970)" d="M54.5569 1121.66 L62.1958 1121.66 L62.1958 1095.29 L53.8856 1096.96 L53.8856 1092.7 L62.1495 1091.03 L66.8254 1091.03 L66.8254 1121.66 L74.4642 1121.66 L74.4642 1125.59 L54.5569 1125.59 L54.5569 1121.66 Z" fill="#000000" fill-rule="evenodd" fill-opacity="1" /><path clip-path="url(#clip970)" d="M93.9086 1094.11 Q90.2975 1094.11 88.4688 1097.68 Q86.6632 1101.22 86.6632 1108.35 Q86.6632 1115.46 88.4688 1119.02 Q90.2975 1122.56 93.9086 1122.56 Q97.5428 1122.56 99.3483 1119.02 Q101.177 1115.46 101.177 1108.35 Q101.177 1101.22 99.3483 1097.68 Q97.5428 1094.11 93.9086 1094.11 M93.9086 1090.41 Q99.7187 1090.41 102.774 1095.02 Q105.853 1099.6 105.853 1108.35 Q105.853 1117.08 102.774 1121.68 Q99.7187 1126.27 93.9086 1126.27 Q88.0984 1126.27 85.0197 1121.68 Q81.9642 1117.08 81.9642 1108.35 Q81.9642 1099.6 85.0197 1095.02 Q88.0984 1090.41 93.9086 1090.41 Z" fill="#000000" fill-rule="evenodd" fill-opacity="1" /><path clip-path="url(#clip970)" d="M124.07 1094.11 Q120.459 1094.11 118.631 1097.68 Q116.825 1101.22 116.825 1108.35 Q116.825 1115.46 118.631 1119.02 Q120.459 1122.56 124.07 1122.56 Q127.705 1122.56 129.51 1119.02 Q131.339 1115.46 131.339 1108.35 Q131.339 1101.22 129.51 1097.68 Q127.705 1094.11 124.07 1094.11 M124.07 1090.41 Q129.881 1090.41 132.936 1095.02 Q136.015 1099.6 136.015 1108.35 Q136.015 1117.08 132.936 1121.68 Q129.881 1126.27 124.07 1126.27 Q118.26 1126.27 115.182 1121.68 Q112.126 1117.08 112.126 1108.35 Q112.126 1099.6 115.182 1095.02 Q118.26 1090.41 124.07 1090.41 Z" fill="#000000" fill-rule="evenodd" fill-opacity="1" /><path clip-path="url(#clip970)" d="M154.232 1094.11 Q150.621 1094.11 148.793 1097.68 Q146.987 1101.22 146.987 1108.35 Q146.987 1115.46 148.793 1119.02 Q150.621 1122.56 154.232 1122.56 Q157.867 1122.56 159.672 1119.02 Q161.501 1115.46 161.501 1108.35 Q161.501 1101.22 159.672 1097.68 Q157.867 1094.11 154.232 1094.11 M154.232 1090.41 Q160.042 1090.41 163.098 1095.02 Q166.177 1099.6 166.177 1108.35 Q166.177 1117.08 163.098 1121.68 Q160.042 1126.27 154.232 1126.27 Q148.422 1126.27 145.343 1121.68 Q142.288 1117.08 142.288 1108.35 Q142.288 1099.6 145.343 1095.02 Q148.422 1090.41 154.232 1090.41 Z" fill="#000000" fill-rule="evenodd" fill-opacity="1" /><path clip-path="url(#clip970)" d="M57.7745 801.402 L74.0939 801.402 L74.0939 805.337 L52.1495 805.337 L52.1495 801.402 Q54.8115 798.648 59.3949 794.018 Q64.0013 789.365 65.1819 788.023 Q67.4272 785.499 68.3068 783.763 Q69.2096 782.004 69.2096 780.314 Q69.2096 777.56 67.2652 775.824 Q65.3439 774.087 62.2421 774.087 Q60.043 774.087 57.5893 774.851 Q55.1588 775.615 52.381 777.166 L52.381 772.444 Q55.2051 771.31 57.6588 770.731 Q60.1124 770.152 62.1495 770.152 Q67.5198 770.152 70.7142 772.837 Q73.9087 775.523 73.9087 780.013 Q73.9087 782.143 73.0985 784.064 Q72.3115 785.962 70.205 788.555 Q69.6263 789.226 66.5245 792.444 Q63.4226 795.638 57.7745 801.402 Z" fill="#000000" fill-rule="evenodd" fill-opacity="1" /><path clip-path="url(#clip970)" d="M93.9086 773.856 Q90.2975 773.856 88.4688 777.421 Q86.6632 780.962 86.6632 788.092 Q86.6632 795.198 88.4688 798.763 Q90.2975 802.305 93.9086 802.305 Q97.5428 802.305 99.3483 798.763 Q101.177 795.198 101.177 788.092 Q101.177 780.962 99.3483 777.421 Q97.5428 773.856 93.9086 773.856 M93.9086 770.152 Q99.7187 770.152 102.774 774.759 Q105.853 779.342 105.853 788.092 Q105.853 796.819 102.774 801.425 Q99.7187 806.009 93.9086 806.009 Q88.0984 806.009 85.0197 801.425 Q81.9642 796.819 81.9642 788.092 Q81.9642 779.342 85.0197 774.759 Q88.0984 770.152 93.9086 770.152 Z" fill="#000000" fill-rule="evenodd" fill-opacity="1" /><path clip-path="url(#clip970)" d="M124.07 773.856 Q120.459 773.856 118.631 777.421 Q116.825 780.962 116.825 788.092 Q116.825 795.198 118.631 798.763 Q120.459 802.305 124.07 802.305 Q127.705 802.305 129.51 798.763 Q131.339 795.198 131.339 788.092 Q131.339 780.962 129.51 777.421 Q127.705 773.856 124.07 773.856 M124.07 770.152 Q129.881 770.152 132.936 774.759 Q136.015 779.342 136.015 788.092 Q136.015 796.819 132.936 801.425 Q129.881 806.009 124.07 806.009 Q118.26 806.009 115.182 801.425 Q112.126 796.819 112.126 788.092 Q112.126 779.342 115.182 774.759 Q118.26 770.152 124.07 770.152 Z" fill="#000000" fill-rule="evenodd" fill-opacity="1" /><path clip-path="url(#clip970)" d="M154.232 773.856 Q150.621 773.856 148.793 777.421 Q146.987 780.962 146.987 788.092 Q146.987 795.198 148.793 798.763 Q150.621 802.305 154.232 802.305 Q157.867 802.305 159.672 798.763 Q161.501 795.198 161.501 788.092 Q161.501 780.962 159.672 777.421 Q157.867 773.856 154.232 773.856 M154.232 770.152 Q160.042 770.152 163.098 774.759 Q166.177 779.342 166.177 788.092 Q166.177 796.819 163.098 801.425 Q160.042 806.009 154.232 806.009 Q148.422 806.009 145.343 801.425 Q142.288 796.819 142.288 788.092 Q142.288 779.342 145.343 774.759 Q148.422 770.152 154.232 770.152 Z" fill="#000000" fill-rule="evenodd" fill-opacity="1" /><path clip-path="url(#clip970)" d="M67.9133 466.446 Q71.2698 467.164 73.1448 469.433 Q75.0429 471.701 75.0429 475.034 Q75.0429 480.15 71.5244 482.951 Q68.0059 485.752 61.5245 485.752 Q59.3486 485.752 57.0338 485.312 Q54.7421 484.895 52.2884 484.039 L52.2884 479.525 Q54.2328 480.659 56.5477 481.238 Q58.8625 481.817 61.3856 481.817 Q65.7837 481.817 68.0754 480.081 Q70.3902 478.345 70.3902 475.034 Q70.3902 471.979 68.2374 470.266 Q66.1078 468.53 62.2884 468.53 L58.2606 468.53 L58.2606 464.687 L62.4735 464.687 Q65.9226 464.687 67.7513 463.322 Q69.58 461.933 69.58 459.34 Q69.58 456.678 67.6819 455.266 Q65.8069 453.831 62.2884 453.831 Q60.3671 453.831 58.168 454.247 Q55.969 454.664 53.3301 455.544 L53.3301 451.377 Q55.9921 450.636 58.3069 450.266 Q60.6449 449.896 62.705 449.896 Q68.0291 449.896 71.1309 452.326 Q74.2327 454.734 74.2327 458.854 Q74.2327 461.724 72.5892 463.715 Q70.9457 465.683 67.9133 466.446 Z" fill="#000000" fill-rule="evenodd" fill-opacity="1" /><path clip-path="url(#clip970)" d="M93.9086 453.599 Q90.2975 453.599 88.4688 457.164 Q86.6632 460.706 86.6632 467.835 Q86.6632 474.942 88.4688 478.507 Q90.2975 482.048 93.9086 482.048 Q97.5428 482.048 99.3483 478.507 Q101.177 474.942 101.177 467.835 Q101.177 460.706 99.3483 457.164 Q97.5428 453.599 93.9086 453.599 M93.9086 449.896 Q99.7187 449.896 102.774 454.502 Q105.853 459.085 105.853 467.835 Q105.853 476.562 102.774 481.169 Q99.7187 485.752 93.9086 485.752 Q88.0984 485.752 85.0197 481.169 Q81.9642 476.562 81.9642 467.835 Q81.9642 459.085 85.0197 454.502 Q88.0984 449.896 93.9086 449.896 Z" fill="#000000" fill-rule="evenodd" fill-opacity="1" /><path clip-path="url(#clip970)" d="M124.07 453.599 Q120.459 453.599 118.631 457.164 Q116.825 460.706 116.825 467.835 Q116.825 474.942 118.631 478.507 Q120.459 482.048 124.07 482.048 Q127.705 482.048 129.51 478.507 Q131.339 474.942 131.339 467.835 Q131.339 460.706 129.51 457.164 Q127.705 453.599 124.07 453.599 M124.07 449.896 Q129.881 449.896 132.936 454.502 Q136.015 459.085 136.015 467.835 Q136.015 476.562 132.936 481.169 Q129.881 485.752 124.07 485.752 Q118.26 485.752 115.182 481.169 Q112.126 476.562 112.126 467.835 Q112.126 459.085 115.182 454.502 Q118.26 449.896 124.07 449.896 Z" fill="#000000" fill-rule="evenodd" fill-opacity="1" /><path clip-path="url(#clip970)" d="M154.232 453.599 Q150.621 453.599 148.793 457.164 Q146.987 460.706 146.987 467.835 Q146.987 474.942 148.793 478.507 Q150.621 482.048 154.232 482.048 Q157.867 482.048 159.672 478.507 Q161.501 474.942 161.501 467.835 Q161.501 460.706 159.672 457.164 Q157.867 453.599 154.232 453.599 M154.232 449.896 Q160.042 449.896 163.098 454.502 Q166.177 459.085 166.177 467.835 Q166.177 476.562 163.098 481.169 Q160.042 485.752 154.232 485.752 Q148.422 485.752 145.343 481.169 Q142.288 476.562 142.288 467.835 Q142.288 459.085 145.343 454.502 Q148.422 449.896 154.232 449.896 Z" fill="#000000" fill-rule="evenodd" fill-opacity="1" /><path clip-path="url(#clip970)" d="M66.5939 134.338 L54.7884 152.787 L66.5939 152.787 L66.5939 134.338 M65.367 130.264 L71.2466 130.264 L71.2466 152.787 L76.1772 152.787 L76.1772 156.676 L71.2466 156.676 L71.2466 164.824 L66.5939 164.824 L66.5939 156.676 L50.9921 156.676 L50.9921 152.162 L65.367 130.264 Z" fill="#000000" fill-rule="evenodd" fill-opacity="1" /><path clip-path="url(#clip970)" d="M93.9086 133.343 Q90.2975 133.343 88.4688 136.907 Q86.6632 140.449 86.6632 147.579 Q86.6632 154.685 88.4688 158.25 Q90.2975 161.792 93.9086 161.792 Q97.5428 161.792 99.3483 158.25 Q101.177 154.685 101.177 147.579 Q101.177 140.449 99.3483 136.907 Q97.5428 133.343 93.9086 133.343 M93.9086 129.639 Q99.7187 129.639 102.774 134.245 Q105.853 138.829 105.853 147.579 Q105.853 156.306 102.774 160.912 Q99.7187 165.495 93.9086 165.495 Q88.0984 165.495 85.0197 160.912 Q81.9642 156.306 81.9642 147.579 Q81.9642 138.829 85.0197 134.245 Q88.0984 129.639 93.9086 129.639 Z" fill="#000000" fill-rule="evenodd" fill-opacity="1" /><path clip-path="url(#clip970)" d="M124.07 133.343 Q120.459 133.343 118.631 136.907 Q116.825 140.449 116.825 147.579 Q116.825 154.685 118.631 158.25 Q120.459 161.792 124.07 161.792 Q127.705 161.792 129.51 158.25 Q131.339 154.685 131.339 147.579 Q131.339 140.449 129.51 136.907 Q127.705 133.343 124.07 133.343 M124.07 129.639 Q129.881 129.639 132.936 134.245 Q136.015 138.829 136.015 147.579 Q136.015 156.306 132.936 160.912 Q129.881 165.495 124.07 165.495 Q118.26 165.495 115.182 160.912 Q112.126 156.306 112.126 147.579 Q112.126 138.829 115.182 134.245 Q118.26 129.639 124.07 129.639 Z" fill="#000000" fill-rule="evenodd" fill-opacity="1" /><path clip-path="url(#clip970)" d="M154.232 133.343 Q150.621 133.343 148.793 136.907 Q146.987 140.449 146.987 147.579 Q146.987 154.685 148.793 158.25 Q150.621 161.792 154.232 161.792 Q157.867 161.792 159.672 158.25 Q161.501 154.685 161.501 147.579 Q161.501 140.449 159.672 136.907 Q157.867 133.343 154.232 133.343 M154.232 129.639 Q160.042 129.639 163.098 134.245 Q166.177 138.829 166.177 147.579 Q166.177 156.306 163.098 160.912 Q160.042 165.495 154.232 165.495 Q148.422 165.495 145.343 160.912 Q142.288 156.306 142.288 147.579 Q142.288 138.829 145.343 134.245 Q148.422 129.639 154.232 129.639 Z" fill="#000000" fill-rule="evenodd" fill-opacity="1" /><circle clip-path="url(#clip972)" cx="465.927" cy="1427.93" r="14" fill="#009af9" fill-rule="evenodd" fill-opacity="1" stroke="#000000" stroke-opacity="1" stroke-width="3.2"/>
<circle clip-path="url(#clip972)" cx="668.812" cy="1423.77" r="14" fill="#009af9" fill-rule="evenodd" fill-opacity="1" stroke="#000000" stroke-opacity="1" stroke-width="3.2"/>
<circle clip-path="url(#clip972)" cx="871.697" cy="1429.85" r="14" fill="#009af9" fill-rule="evenodd" fill-opacity="1" stroke="#000000" stroke-opacity="1" stroke-width="3.2"/>
<circle clip-path="url(#clip972)" cx="1074.58" cy="1431.77" r="14" fill="#009af9" fill-rule="evenodd" fill-opacity="1" stroke="#000000" stroke-opacity="1" stroke-width="3.2"/>
<circle clip-path="url(#clip972)" cx="1277.47" cy="1427.61" r="14" fill="#009af9" fill-rule="evenodd" fill-opacity="1" stroke="#000000" stroke-opacity="1" stroke-width="3.2"/>
<circle clip-path="url(#clip972)" cx="1480.35" cy="1434.01" r="14" fill="#009af9" fill-rule="evenodd" fill-opacity="1" stroke="#000000" stroke-opacity="1" stroke-width="3.2"/>
<circle clip-path="url(#clip972)" cx="1683.24" cy="1429.53" r="14" fill="#009af9" fill-rule="evenodd" fill-opacity="1" stroke="#000000" stroke-opacity="1" stroke-width="3.2"/>
<circle clip-path="url(#clip972)" cx="1886.12" cy="1423.77" r="14" fill="#009af9" fill-rule="evenodd" fill-opacity="1" stroke="#000000" stroke-opacity="1" stroke-width="3.2"/>
<circle clip-path="url(#clip972)" cx="2089.01" cy="1430.17" r="14" fill="#009af9" fill-rule="evenodd" fill-opacity="1" stroke="#000000" stroke-opacity="1" stroke-width="3.2"/>
<circle clip-path="url(#clip972)" cx="2291.89" cy="1422.17" r="14" fill="#009af9" fill-rule="evenodd" fill-opacity="1" stroke="#000000" stroke-opacity="1" stroke-width="3.2"/>
<polyline clip-path="url(#clip972)" style="stroke:#e26f46; stroke-linecap:butt; stroke-linejoin:round; stroke-width:4; stroke-opacity:1; fill:none" points="
  263.042,87.9763 265.071,124.75 267.1,160.715 269.129,195.887 271.158,230.277 273.186,263.902 275.215,296.774 277.244,328.906 279.273,360.313 281.302,391.007 
  283.331,421 285.359,450.306 287.388,478.937 289.417,506.906 291.446,534.224 293.475,560.904 295.504,586.958 297.533,612.396 299.561,637.231 301.59,661.473 
  303.619,685.135 305.648,708.226 307.677,730.759 309.706,752.742 311.735,774.187 313.763,795.105 315.792,815.505 317.821,835.397 319.85,854.791 321.879,873.697 
  323.908,892.125 325.936,910.084 327.965,927.583 329.994,944.631 332.023,961.237 334.052,977.411 336.081,993.161 338.11,1008.49 340.138,1023.42 342.167,1037.95 
  344.196,1052.09 346.225,1065.84 348.254,1079.22 350.283,1092.24 352.311,1104.89 354.34,1117.19 356.369,1129.15 358.398,1140.78 360.427,1152.07 362.456,1163.04 
  364.485,1173.69 366.513,1184.04 368.542,1194.08 370.571,1203.83 372.6,1213.29 374.629,1222.46 376.658,1231.36 378.686,1239.99 380.715,1248.36 382.744,1256.47 
  384.773,1264.32 386.802,1271.93 388.831,1279.3 390.86,1286.44 392.888,1293.34 394.917,1300.02 396.946,1306.48 398.975,1312.73 401.004,1318.76 403.033,1324.6 
  405.062,1330.23 407.09,1335.68 409.119,1340.93 411.148,1346 413.177,1350.88 415.206,1355.6 417.235,1360.14 419.263,1364.51 421.292,1368.72 423.321,1372.78 
  425.35,1376.68 427.379,1380.43 429.408,1384.03 431.437,1387.49 433.465,1390.81 435.494,1394 437.523,1397.06 439.552,1399.98 441.581,1402.79 443.61,1405.47 
  445.638,1408.04 447.667,1410.49 449.696,1412.83 451.725,1415.06 453.754,1417.19 455.783,1419.22 457.812,1421.15 459.84,1422.98 461.869,1424.72 463.898,1426.37 
  465.927,1427.93 467.956,1429.41 469.985,1430.8 472.014,1432.12 474.042,1433.36 476.071,1434.53 478.1,1435.62 480.129,1436.64 482.158,1437.6 484.187,1438.49 
  486.215,1439.32 488.244,1440.09 490.273,1440.8 492.302,1441.45 494.331,1442.05 496.36,1442.59 498.389,1443.09 500.417,1443.53 502.446,1443.93 504.475,1444.29 
  506.504,1444.6 508.533,1444.87 510.562,1445.1 512.59,1445.29 514.619,1445.44 516.648,1445.56 518.677,1445.64 520.706,1445.69 522.735,1445.72 524.764,1445.71 
  526.792,1445.67 528.821,1445.61 530.85,1445.52 532.879,1445.41 534.908,1445.27 536.937,1445.11 538.966,1444.93 540.994,1444.73 543.023,1444.52 545.052,1444.28 
  547.081,1444.03 549.11,1443.77 551.139,1443.49 553.167,1443.19 555.196,1442.89 557.225,1442.57 559.254,1442.24 561.283,1441.9 563.312,1441.55 565.341,1441.19 
  567.369,1440.83 569.398,1440.46 571.427,1440.08 573.456,1439.7 575.485,1439.31 577.514,1438.92 579.542,1438.52 581.571,1438.12 583.6,1437.72 585.629,1437.32 
  587.658,1436.91 589.687,1436.51 591.716,1436.1 593.744,1435.7 595.773,1435.29 597.802,1434.89 599.831,1434.49 601.86,1434.09 603.889,1433.69 605.918,1433.3 
  607.946,1432.9 609.975,1432.52 612.004,1432.13 614.033,1431.75 616.062,1431.37 618.091,1431 620.119,1430.64 622.148,1430.27 624.177,1429.92 626.206,1429.57 
  628.235,1429.22 630.264,1428.88 632.293,1428.55 634.321,1428.22 636.35,1427.9 638.379,1427.59 640.408,1427.28 642.437,1426.98 644.466,1426.69 646.494,1426.41 
  648.523,1426.13 650.552,1425.86 652.581,1425.59 654.61,1425.34 656.639,1425.09 658.668,1424.85 660.696,1424.62 662.725,1424.39 664.754,1424.18 666.783,1423.97 
  668.812,1423.77 670.841,1423.57 672.87,1423.39 674.898,1423.21 676.927,1423.04 678.956,1422.88 680.985,1422.72 683.014,1422.58 685.043,1422.44 687.071,1422.31 
  689.1,1422.19 691.129,1422.07 693.158,1421.96 695.187,1421.86 697.216,1421.77 699.245,1421.68 701.273,1421.61 703.302,1421.53 705.331,1421.47 707.36,1421.41 
  709.389,1421.36 711.418,1421.32 713.446,1421.28 715.475,1421.26 717.504,1421.23 719.533,1421.22 721.562,1421.21 723.591,1421.2 725.62,1421.21 727.648,1421.21 
  729.677,1421.23 731.706,1421.25 733.735,1421.28 735.764,1421.31 737.793,1421.35 739.821,1421.39 741.85,1421.44 743.879,1421.49 745.908,1421.55 747.937,1421.61 
  749.966,1421.68 751.995,1421.75 754.023,1421.83 756.052,1421.91 758.081,1422 760.11,1422.09 762.139,1422.18 764.168,1422.28 766.197,1422.38 768.225,1422.49 
  770.254,1422.6 772.283,1422.71 774.312,1422.82 776.341,1422.94 778.37,1423.06 780.398,1423.19 782.427,1423.31 784.456,1423.44 786.485,1423.58 788.514,1423.71 
  790.543,1423.85 792.572,1423.99 794.6,1424.13 796.629,1424.27 798.658,1424.41 800.687,1424.56 802.716,1424.71 804.745,1424.86 806.773,1425.01 808.802,1425.16 
  810.831,1425.31 812.86,1425.46 814.889,1425.62 816.918,1425.77 818.947,1425.93 820.975,1426.08 823.004,1426.24 825.033,1426.39 827.062,1426.55 829.091,1426.71 
  831.12,1426.86 833.149,1427.02 835.177,1427.18 837.206,1427.33 839.235,1427.49 841.264,1427.64 843.293,1427.8 845.322,1427.95 847.35,1428.1 849.379,1428.26 
  851.408,1428.41 853.437,1428.56 855.466,1428.71 857.495,1428.86 859.524,1429 861.552,1429.15 863.581,1429.29 865.61,1429.43 867.639,1429.57 869.668,1429.71 
  871.697,1429.85 873.725,1429.99 875.754,1430.12 877.783,1430.25 879.812,1430.38 881.841,1430.51 883.87,1430.64 885.899,1430.76 887.927,1430.89 889.956,1431.01 
  891.985,1431.12 894.014,1431.24 896.043,1431.35 898.072,1431.47 900.101,1431.57 902.129,1431.68 904.158,1431.78 906.187,1431.89 908.216,1431.98 910.245,1432.08 
  912.274,1432.18 914.302,1432.27 916.331,1432.36 918.36,1432.44 920.389,1432.53 922.418,1432.61 924.447,1432.68 926.476,1432.76 928.504,1432.83 930.533,1432.9 
  932.562,1432.97 934.591,1433.04 936.62,1433.1 938.649,1433.16 940.677,1433.21 942.706,1433.27 944.735,1433.32 946.764,1433.37 948.793,1433.41 950.822,1433.45 
  952.851,1433.49 954.879,1433.53 956.908,1433.57 958.937,1433.6 960.966,1433.63 962.995,1433.65 965.024,1433.68 967.053,1433.7 969.081,1433.72 971.11,1433.73 
  973.139,1433.75 975.168,1433.76 977.197,1433.77 979.226,1433.77 981.254,1433.77 983.283,1433.77 985.312,1433.77 987.341,1433.77 989.37,1433.76 991.399,1433.75 
  993.428,1433.74 995.456,1433.73 997.485,1433.71 999.514,1433.69 1001.54,1433.67 1003.57,1433.65 1005.6,1433.62 1007.63,1433.6 1009.66,1433.57 1011.69,1433.54 
  1013.72,1433.5 1015.74,1433.47 1017.77,1433.43 1019.8,1433.39 1021.83,1433.35 1023.86,1433.31 1025.89,1433.26 1027.92,1433.22 1029.95,1433.17 1031.98,1433.12 
  1034,1433.07 1036.03,1433.01 1038.06,1432.96 1040.09,1432.9 1042.12,1432.85 1044.15,1432.79 1046.18,1432.73 1048.21,1432.67 1050.24,1432.6 1052.26,1432.54 
  1054.29,1432.48 1056.32,1432.41 1058.35,1432.34 1060.38,1432.27 1062.41,1432.21 1064.44,1432.14 1066.47,1432.06 1068.49,1431.99 1070.52,1431.92 1072.55,1431.85 
  1074.58,1431.77 
  "/>
<polyline clip-path="url(#clip972)" style="stroke:#3da44d; stroke-linecap:butt; stroke-linejoin:round; stroke-width:4; stroke-opacity:1; fill:none" points="
  263.042,87.9763 265.071,124.75 267.1,160.715 269.129,195.887 271.158,230.277 273.186,263.902 275.215,296.774 277.244,328.906 279.273,360.313 281.302,391.007 
  283.331,421 285.359,450.306 287.388,478.937 289.417,506.906 291.446,534.224 293.475,560.904 295.504,586.958 297.533,612.396 299.561,637.231 301.59,661.473 
  303.619,685.135 305.648,708.226 307.677,730.759 309.706,752.742 311.735,774.187 313.763,795.105 315.792,815.505 317.821,835.397 319.85,854.791 321.879,873.697 
  323.908,892.125 325.936,910.084 327.965,927.583 329.994,944.631 332.023,961.237 334.052,977.411 336.081,993.161 338.11,1008.49 340.138,1023.42 342.167,1037.95 
  344.196,1052.09 346.225,1065.84 348.254,1079.22 350.283,1092.24 352.311,1104.89 354.34,1117.19 356.369,1129.15 358.398,1140.78 360.427,1152.07 362.456,1163.04 
  364.485,1173.69 366.513,1184.04 368.542,1194.08 370.571,1203.83 372.6,1213.29 374.629,1222.46 376.658,1231.36 378.686,1239.99 380.715,1248.36 382.744,1256.47 
  384.773,1264.32 386.802,1271.93 388.831,1279.3 390.86,1286.44 392.888,1293.34 394.917,1300.02 396.946,1306.48 398.975,1312.73 401.004,1318.76 403.033,1324.6 
  405.062,1330.23 407.09,1335.68 409.119,1340.93 411.148,1346 413.177,1350.88 415.206,1355.6 417.235,1360.14 419.263,1364.51 421.292,1368.72 423.321,1372.78 
  425.35,1376.68 427.379,1380.43 429.408,1384.03 431.437,1387.49 433.465,1390.81 435.494,1394 437.523,1397.06 439.552,1399.98 441.581,1402.79 443.61,1405.47 
  445.638,1408.04 447.667,1410.49 449.696,1412.83 451.725,1415.06 453.754,1417.19 455.783,1419.22 457.812,1421.15 459.84,1422.98 461.869,1424.72 463.898,1426.37 
  465.927,1427.93 467.956,1429.41 469.985,1430.8 472.014,1432.12 474.042,1433.36 476.071,1434.53 478.1,1435.62 480.129,1436.64 482.158,1437.6 484.187,1438.49 
  486.215,1439.32 488.244,1440.09 490.273,1440.8 492.302,1441.45 494.331,1442.05 496.36,1442.59 498.389,1443.09 500.417,1443.53 502.446,1443.93 504.475,1444.29 
  506.504,1444.6 508.533,1444.87 510.562,1445.1 512.59,1445.29 514.619,1445.44 516.648,1445.56 518.677,1445.64 520.706,1445.69 522.735,1445.72 524.764,1445.71 
  526.792,1445.67 528.821,1445.61 530.85,1445.52 532.879,1445.41 534.908,1445.27 536.937,1445.11 538.966,1444.93 540.994,1444.73 543.023,1444.52 545.052,1444.28 
  547.081,1444.03 549.11,1443.77 551.139,1443.49 553.167,1443.19 555.196,1442.89 557.225,1442.57 559.254,1442.24 561.283,1441.9 563.312,1441.55 565.341,1441.19 
  567.369,1440.83 569.398,1440.46 571.427,1440.08 573.456,1439.7 575.485,1439.31 577.514,1438.92 579.542,1438.52 581.571,1438.12 583.6,1437.72 585.629,1437.32 
  587.658,1436.91 589.687,1436.51 591.716,1436.1 593.744,1435.7 595.773,1435.29 597.802,1434.89 599.831,1434.49 601.86,1434.09 603.889,1433.69 605.918,1433.3 
  607.946,1432.9 609.975,1432.52 612.004,1432.13 614.033,1431.75 616.062,1431.37 618.091,1431 620.119,1430.64 622.148,1430.27 624.177,1429.92 626.206,1429.57 
  628.235,1429.22 630.264,1428.88 632.293,1428.55 634.321,1428.22 636.35,1427.9 638.379,1427.59 640.408,1427.28 642.437,1426.98 644.466,1426.69 646.494,1426.41 
  648.523,1426.13 650.552,1425.86 652.581,1425.59 654.61,1425.34 656.639,1425.09 658.668,1424.85 660.696,1424.62 662.725,1424.39 664.754,1424.18 666.783,1423.97 
  668.812,1423.77 670.841,1423.57 672.87,1423.39 674.898,1423.21 676.927,1423.04 678.956,1422.88 680.985,1422.72 683.014,1422.58 685.043,1422.44 687.071,1422.31 
  689.1,1422.19 691.129,1422.07 693.158,1421.96 695.187,1421.86 697.216,1421.77 699.245,1421.68 701.273,1421.61 703.302,1421.53 705.331,1421.47 707.36,1421.41 
  709.389,1421.36 711.418,1421.32 713.446,1421.28 715.475,1421.26 717.504,1421.23 719.533,1421.22 721.562,1421.21 723.591,1421.2 725.62,1421.21 727.648,1421.21 
  729.677,1421.23 731.706,1421.25 733.735,1421.28 735.764,1421.31 737.793,1421.35 739.821,1421.39 741.85,1421.44 743.879,1421.49 745.908,1421.55 747.937,1421.61 
  749.966,1421.68 751.995,1421.75 754.023,1421.83 756.052,1421.91 758.081,1422 760.11,1422.09 762.139,1422.18 764.168,1422.28 766.197,1422.38 768.225,1422.49 
  770.254,1422.6 772.283,1422.71 774.312,1422.82 776.341,1422.94 778.37,1423.06 780.398,1423.19 782.427,1423.31 784.456,1423.44 786.485,1423.58 788.514,1423.71 
  790.543,1423.85 792.572,1423.99 794.6,1424.13 796.629,1424.27 798.658,1424.41 800.687,1424.56 802.716,1424.71 804.745,1424.86 806.773,1425.01 808.802,1425.16 
  810.831,1425.31 812.86,1425.46 814.889,1425.62 816.918,1425.77 818.947,1425.93 820.975,1426.08 823.004,1426.24 825.033,1426.39 827.062,1426.55 829.091,1426.71 
  831.12,1426.86 833.149,1427.02 835.177,1427.18 837.206,1427.33 839.235,1427.49 841.264,1427.64 843.293,1427.8 845.322,1427.95 847.35,1428.1 849.379,1428.26 
  851.408,1428.41 853.437,1428.56 855.466,1428.71 857.495,1428.86 859.524,1429 861.552,1429.15 863.581,1429.29 865.61,1429.43 867.639,1429.57 869.668,1429.71 
  871.697,1429.85 873.725,1429.99 875.754,1430.12 877.783,1430.25 879.812,1430.38 881.841,1430.51 883.87,1430.64 885.899,1430.76 887.927,1430.89 889.956,1431.01 
  891.985,1431.12 894.014,1431.24 896.043,1431.35 898.072,1431.47 900.101,1431.57 902.129,1431.68 904.158,1431.78 906.187,1431.89 908.216,1431.98 910.245,1432.08 
  912.274,1432.18 914.302,1432.27 916.331,1432.36 918.36,1432.44 920.389,1432.53 922.418,1432.61 924.447,1432.68 926.476,1432.76 928.504,1432.83 930.533,1432.9 
  932.562,1432.97 934.591,1433.04 936.62,1433.1 938.649,1433.16 940.677,1433.21 942.706,1433.27 944.735,1433.32 946.764,1433.37 948.793,1433.41 950.822,1433.45 
  952.851,1433.49 954.879,1433.53 956.908,1433.57 958.937,1433.6 960.966,1433.63 962.995,1433.65 965.024,1433.68 967.053,1433.7 969.081,1433.72 971.11,1433.73 
  973.139,1433.75 975.168,1433.76 977.197,1433.77 979.226,1433.77 981.254,1433.77 983.283,1433.77 985.312,1433.77 987.341,1433.77 989.37,1433.76 991.399,1433.75 
  993.428,1433.74 995.456,1433.73 997.485,1433.71 999.514,1433.69 1001.54,1433.67 1003.57,1433.65 1005.6,1433.62 1007.63,1433.6 1009.66,1433.57 1011.69,1433.54 
  1013.72,1433.5 1015.74,1433.47 1017.77,1433.43 1019.8,1433.39 1021.83,1433.35 1023.86,1433.31 1025.89,1433.26 1027.92,1433.22 1029.95,1433.17 1031.98,1433.12 
  1034,1433.07 1036.03,1433.01 1038.06,1432.96 1040.09,1432.9 1042.12,1432.85 1044.15,1432.79 1046.18,1432.73 1048.21,1432.67 1050.24,1432.6 1052.26,1432.54 
  1054.29,1432.48 1056.32,1432.41 1058.35,1432.34 1060.38,1432.27 1062.41,1432.21 1064.44,1432.14 1066.47,1432.06 1068.49,1431.99 1070.52,1431.92 1072.55,1431.85 
  1074.58,1431.77 
  "/>
<polyline clip-path="url(#clip972)" style="stroke:#c271d2; stroke-linecap:butt; stroke-linejoin:round; stroke-width:4; stroke-opacity:1; fill:none" points="
  465.927,1427.93 484.187,1438.49 502.446,1443.93 520.706,1445.69 538.966,1444.93 557.225,1442.57 575.485,1439.31 593.744,1435.7 612.004,1432.13 630.264,1428.88 
  648.523,1426.13 666.783,1423.97 685.043,1422.44 703.302,1421.53 721.562,1421.21 739.821,1421.39 758.081,1422 776.341,1422.94 794.6,1424.13 812.86,1425.46 
  831.12,1426.86 849.379,1428.26 867.639,1429.57 885.899,1430.76 904.158,1431.78 922.418,1432.61 940.677,1433.21 958.937,1433.6 977.197,1433.77 995.456,1433.73 
  1013.72,1433.5 1031.98,1433.12 1050.24,1432.6 1068.49,1431.99 1086.75,1431.32 1105.01,1430.62 1123.27,1429.92 1141.53,1429.26 1159.79,1428.66 1178.05,1428.16 
  1196.31,1427.76 1214.57,1427.49 1232.83,1427.36 1251.09,1427.36 1269.35,1427.5 1287.61,1427.78 1305.87,1428.17 1324.13,1428.68 1342.39,1429.27 1360.65,1429.92 
  1378.91,1430.62 1397.17,1431.33 1415.43,1432.03 1433.69,1432.69 1451.95,1433.28 1470.21,1433.78 1488.47,1434.17 1506.73,1434.44 1524.99,1434.55 1543.25,1434.52 
  1561.51,1434.32 1579.76,1433.97 1598.02,1433.46 1616.28,1432.82 1634.54,1432.04 1652.8,1431.16 1671.06,1430.2 1689.32,1429.19 1707.58,1428.16 1725.84,1427.15 
  1744.1,1426.19 1762.36,1425.32 1780.62,1424.57 1798.88,1423.96 1817.14,1423.54 1835.4,1423.3 1853.66,1423.28 1871.92,1423.47 1890.18,1423.87 1908.44,1424.46 
  1926.7,1425.22 1944.96,1426.1 1963.22,1427.07 1981.48,1428.04 1999.74,1428.97 2018,1429.77 2036.26,1430.36 2054.52,1430.65 2072.77,1430.59 2091.03,1430.09 
  2109.29,1429.13 2127.55,1427.67 2145.81,1425.75 2164.07,1423.43 2182.33,1420.88 2200.59,1418.31 2218.85,1416.06 2237.11,1414.61 2255.37,1414.57 2273.63,1416.75 
  2291.89,1422.17 
  "/>
<path clip-path="url(#clip970)" d="
M1779.59 354.418 L2281.07 354.418 L2281.07 95.2176 L1779.59 95.2176  Z
  " fill="#ffffff" fill-rule="evenodd" fill-opacity="1"/>
<polyline clip-path="url(#clip970)" style="stroke:#000000; stroke-linecap:butt; stroke-linejoin:round; stroke-width:4; stroke-opacity:1; fill:none" points="
  1779.59,354.418 2281.07,354.418 2281.07,95.2176 1779.59,95.2176 1779.59,354.418 
  "/>
<circle clip-path="url(#clip970)" cx="1875.18" cy="147.058" r="23" fill="#009af9" fill-rule="evenodd" fill-opacity="1" stroke="#000000" stroke-opacity="1" stroke-width="5.12"/>
<path clip-path="url(#clip970)" d="M1989.67 142.347 L1989.67 128.319 L1993.93 128.319 L1993.93 164.338 L1989.67 164.338 L1989.67 160.449 Q1988.33 162.763 1986.27 163.898 Q1984.23 165.009 1981.36 165.009 Q1976.66 165.009 1973.7 161.259 Q1970.76 157.509 1970.76 151.398 Q1970.76 145.287 1973.7 141.537 Q1976.66 137.787 1981.36 137.787 Q1984.23 137.787 1986.27 138.921 Q1988.33 140.032 1989.67 142.347 M1975.16 151.398 Q1975.16 156.097 1977.08 158.782 Q1979.02 161.444 1982.4 161.444 Q1985.78 161.444 1987.73 158.782 Q1989.67 156.097 1989.67 151.398 Q1989.67 146.699 1987.73 144.037 Q1985.78 141.352 1982.4 141.352 Q1979.02 141.352 1977.08 144.037 Q1975.16 146.699 1975.16 151.398 Z" fill="#000000" fill-rule="evenodd" fill-opacity="1" /><path clip-path="url(#clip970)" d="M2014.48 151.305 Q2009.32 151.305 2007.33 152.486 Q2005.34 153.666 2005.34 156.514 Q2005.34 158.782 2006.82 160.125 Q2008.33 161.444 2010.9 161.444 Q2014.44 161.444 2016.57 158.944 Q2018.72 156.421 2018.72 152.254 L2018.72 151.305 L2014.48 151.305 M2022.98 149.546 L2022.98 164.338 L2018.72 164.338 L2018.72 160.402 Q2017.26 162.763 2015.09 163.898 Q2012.91 165.009 2009.76 165.009 Q2005.78 165.009 2003.42 162.787 Q2001.08 160.541 2001.08 156.791 Q2001.08 152.416 2004 150.194 Q2006.94 147.972 2012.75 147.972 L2018.72 147.972 L2018.72 147.555 Q2018.72 144.615 2016.78 143.018 Q2014.85 141.398 2011.36 141.398 Q2009.14 141.398 2007.03 141.93 Q2004.92 142.463 2002.98 143.527 L2002.98 139.592 Q2005.32 138.69 2007.52 138.25 Q2009.72 137.787 2011.8 137.787 Q2017.42 137.787 2020.2 140.703 Q2022.98 143.62 2022.98 149.546 Z" fill="#000000" fill-rule="evenodd" fill-opacity="1" /><path clip-path="url(#clip970)" d="M2035.97 131.051 L2035.97 138.412 L2044.74 138.412 L2044.74 141.722 L2035.97 141.722 L2035.97 155.796 Q2035.97 158.967 2036.82 159.87 Q2037.7 160.773 2040.36 160.773 L2044.74 160.773 L2044.74 164.338 L2040.36 164.338 Q2035.43 164.338 2033.56 162.509 Q2031.68 160.657 2031.68 155.796 L2031.68 141.722 L2028.56 141.722 L2028.56 138.412 L2031.68 138.412 L2031.68 131.051 L2035.97 131.051 Z" fill="#000000" fill-rule="evenodd" fill-opacity="1" /><path clip-path="url(#clip970)" d="M2062.12 151.305 Q2056.96 151.305 2054.97 152.486 Q2052.98 153.666 2052.98 156.514 Q2052.98 158.782 2054.46 160.125 Q2055.97 161.444 2058.53 161.444 Q2062.08 161.444 2064.21 158.944 Q2066.36 156.421 2066.36 152.254 L2066.36 151.305 L2062.12 151.305 M2070.62 149.546 L2070.62 164.338 L2066.36 164.338 L2066.36 160.402 Q2064.9 162.763 2062.72 163.898 Q2060.55 165.009 2057.4 165.009 Q2053.42 165.009 2051.06 162.787 Q2048.72 160.541 2048.72 156.791 Q2048.72 152.416 2051.64 150.194 Q2054.58 147.972 2060.39 147.972 L2066.36 147.972 L2066.36 147.555 Q2066.36 144.615 2064.41 143.018 Q2062.49 141.398 2059 141.398 Q2056.78 141.398 2054.67 141.93 Q2052.56 142.463 2050.62 143.527 L2050.62 139.592 Q2052.96 138.69 2055.16 138.25 Q2057.35 137.787 2059.44 137.787 Q2065.06 137.787 2067.84 140.703 Q2070.62 143.62 2070.62 149.546 Z" fill="#000000" fill-rule="evenodd" fill-opacity="1" /><path clip-path="url(#clip970)" d="M2098.58 160.449 L2098.58 174.199 L2094.3 174.199 L2094.3 138.412 L2098.58 138.412 L2098.58 142.347 Q2099.92 140.032 2101.96 138.921 Q2104.02 137.787 2106.87 137.787 Q2111.59 137.787 2114.53 141.537 Q2117.49 145.287 2117.49 151.398 Q2117.49 157.509 2114.53 161.259 Q2111.59 165.009 2106.87 165.009 Q2104.02 165.009 2101.96 163.898 Q2099.92 162.763 2098.58 160.449 M2113.07 151.398 Q2113.07 146.699 2111.13 144.037 Q2109.21 141.352 2105.83 141.352 Q2102.45 141.352 2100.5 144.037 Q2098.58 146.699 2098.58 151.398 Q2098.58 156.097 2100.5 158.782 Q2102.45 161.444 2105.83 161.444 Q2109.21 161.444 2111.13 158.782 Q2113.07 156.097 2113.07 151.398 Z" fill="#000000" fill-rule="evenodd" fill-opacity="1" /><path clip-path="url(#clip970)" d="M2134.6 141.398 Q2131.17 141.398 2129.18 144.083 Q2127.19 146.745 2127.19 151.398 Q2127.19 156.051 2129.16 158.736 Q2131.15 161.398 2134.6 161.398 Q2138 161.398 2139.99 158.713 Q2141.98 156.027 2141.98 151.398 Q2141.98 146.791 2139.99 144.106 Q2138 141.398 2134.6 141.398 M2134.6 137.787 Q2140.15 137.787 2143.33 141.398 Q2146.5 145.009 2146.5 151.398 Q2146.5 157.764 2143.33 161.398 Q2140.15 165.009 2134.6 165.009 Q2129.02 165.009 2125.85 161.398 Q2122.7 157.764 2122.7 151.398 Q2122.7 145.009 2125.85 141.398 Q2129.02 137.787 2134.6 137.787 Z" fill="#000000" fill-rule="evenodd" fill-opacity="1" /><path clip-path="url(#clip970)" d="M2153.56 138.412 L2157.82 138.412 L2157.82 164.338 L2153.56 164.338 L2153.56 138.412 M2153.56 128.319 L2157.82 128.319 L2157.82 133.713 L2153.56 133.713 L2153.56 128.319 Z" fill="#000000" fill-rule="evenodd" fill-opacity="1" /><path clip-path="url(#clip970)" d="M2188.28 148.689 L2188.28 164.338 L2184.02 164.338 L2184.02 148.828 Q2184.02 145.148 2182.59 143.319 Q2181.15 141.49 2178.28 141.49 Q2174.83 141.49 2172.84 143.69 Q2170.85 145.889 2170.85 149.685 L2170.85 164.338 L2166.57 164.338 L2166.57 138.412 L2170.85 138.412 L2170.85 142.44 Q2172.38 140.102 2174.44 138.944 Q2176.52 137.787 2179.23 137.787 Q2183.7 137.787 2185.99 140.565 Q2188.28 143.319 2188.28 148.689 Z" fill="#000000" fill-rule="evenodd" fill-opacity="1" /><path clip-path="url(#clip970)" d="M2200.99 131.051 L2200.99 138.412 L2209.76 138.412 L2209.76 141.722 L2200.99 141.722 L2200.99 155.796 Q2200.99 158.967 2201.84 159.87 Q2202.72 160.773 2205.39 160.773 L2209.76 160.773 L2209.76 164.338 L2205.39 164.338 Q2200.46 164.338 2198.58 162.509 Q2196.71 160.657 2196.71 155.796 L2196.71 141.722 L2193.58 141.722 L2193.58 138.412 L2196.71 138.412 L2196.71 131.051 L2200.99 131.051 Z" fill="#000000" fill-rule="evenodd" fill-opacity="1" /><path clip-path="url(#clip970)" d="M2231.89 139.176 L2231.89 143.203 Q2230.08 142.277 2228.14 141.815 Q2226.2 141.352 2224.11 141.352 Q2220.94 141.352 2219.34 142.324 Q2217.77 143.296 2217.77 145.24 Q2217.77 146.722 2218.9 147.578 Q2220.04 148.412 2223.46 149.176 L2224.92 149.5 Q2229.46 150.472 2231.36 152.254 Q2233.28 154.014 2233.28 157.185 Q2233.28 160.796 2230.41 162.902 Q2227.56 165.009 2222.56 165.009 Q2220.48 165.009 2218.21 164.592 Q2215.96 164.199 2213.46 163.388 L2213.46 158.99 Q2215.83 160.217 2218.12 160.842 Q2220.41 161.444 2222.65 161.444 Q2225.66 161.444 2227.28 160.426 Q2228.9 159.384 2228.9 157.509 Q2228.9 155.773 2227.72 154.847 Q2226.57 153.921 2222.61 153.064 L2221.13 152.717 Q2217.17 151.884 2215.41 150.171 Q2213.65 148.435 2213.65 145.426 Q2213.65 141.768 2216.24 139.778 Q2218.83 137.787 2223.6 137.787 Q2225.96 137.787 2228.05 138.134 Q2230.13 138.481 2231.89 139.176 Z" fill="#000000" fill-rule="evenodd" fill-opacity="1" /><polyline clip-path="url(#clip970)" style="stroke:#e26f46; stroke-linecap:butt; stroke-linejoin:round; stroke-width:4; stroke-opacity:1; fill:none" points="
  1803.49,198.898 1946.86,198.898 
  "/>
<path clip-path="url(#clip970)" d="M1970.76 181.618 L1975.43 181.618 L1975.43 212.242 L1992.26 212.242 L1992.26 216.178 L1970.76 216.178 L1970.76 181.618 Z" fill="#000000" fill-rule="evenodd" fill-opacity="1" /><path clip-path="url(#clip970)" d="M2008.77 203.145 Q2003.6 203.145 2001.61 204.326 Q1999.62 205.506 1999.62 208.354 Q1999.62 210.622 2001.1 211.965 Q2002.61 213.284 2005.18 213.284 Q2008.72 213.284 2010.85 210.784 Q2013 208.261 2013 204.094 L2013 203.145 L2008.77 203.145 M2017.26 201.386 L2017.26 216.178 L2013 216.178 L2013 212.242 Q2011.54 214.603 2009.37 215.738 Q2007.19 216.849 2004.04 216.849 Q2000.06 216.849 1997.7 214.627 Q1995.36 212.381 1995.36 208.631 Q1995.36 204.256 1998.28 202.034 Q2001.22 199.812 2007.03 199.812 L2013 199.812 L2013 199.395 Q2013 196.455 2011.06 194.858 Q2009.14 193.238 2005.64 193.238 Q2003.42 193.238 2001.31 193.77 Q1999.21 194.303 1997.26 195.367 L1997.26 191.432 Q1999.6 190.53 2001.8 190.09 Q2004 189.627 2006.08 189.627 Q2011.71 189.627 2014.48 192.543 Q2017.26 195.46 2017.26 201.386 Z" fill="#000000" fill-rule="evenodd" fill-opacity="1" /><path clip-path="url(#clip970)" d="M2043.1 202.914 Q2043.1 198.284 2041.17 195.738 Q2039.28 193.192 2035.83 193.192 Q2032.4 193.192 2030.48 195.738 Q2028.58 198.284 2028.58 202.914 Q2028.58 207.52 2030.48 210.066 Q2032.4 212.613 2035.83 212.613 Q2039.28 212.613 2041.17 210.066 Q2043.1 207.52 2043.1 202.914 M2047.35 212.96 Q2047.35 219.58 2044.41 222.798 Q2041.47 226.039 2035.41 226.039 Q2033.16 226.039 2031.17 225.691 Q2029.18 225.367 2027.31 224.673 L2027.31 220.529 Q2029.18 221.548 2031.01 222.034 Q2032.84 222.52 2034.74 222.52 Q2038.93 222.52 2041.01 220.321 Q2043.1 218.145 2043.1 213.724 L2043.1 211.617 Q2041.78 213.909 2039.72 215.043 Q2037.66 216.178 2034.78 216.178 Q2030.02 216.178 2027.1 212.543 Q2024.18 208.909 2024.18 202.914 Q2024.18 196.895 2027.1 193.261 Q2030.02 189.627 2034.78 189.627 Q2037.66 189.627 2039.72 190.761 Q2041.78 191.895 2043.1 194.187 L2043.1 190.252 L2047.35 190.252 L2047.35 212.96 Z" fill="#000000" fill-rule="evenodd" fill-opacity="1" /><path clip-path="url(#clip970)" d="M2071.15 194.233 Q2070.43 193.817 2069.58 193.631 Q2068.74 193.423 2067.72 193.423 Q2064.11 193.423 2062.17 195.784 Q2060.25 198.122 2060.25 202.52 L2060.25 216.178 L2055.97 216.178 L2055.97 190.252 L2060.25 190.252 L2060.25 194.28 Q2061.59 191.918 2063.74 190.784 Q2065.9 189.627 2068.97 189.627 Q2069.41 189.627 2069.95 189.696 Q2070.48 189.743 2071.13 189.858 L2071.15 194.233 Z" fill="#000000" fill-rule="evenodd" fill-opacity="1" /><path clip-path="url(#clip970)" d="M2087.4 203.145 Q2082.24 203.145 2080.25 204.326 Q2078.26 205.506 2078.26 208.354 Q2078.26 210.622 2079.74 211.965 Q2081.24 213.284 2083.81 213.284 Q2087.35 213.284 2089.48 210.784 Q2091.64 208.261 2091.64 204.094 L2091.64 203.145 L2087.4 203.145 M2095.9 201.386 L2095.9 216.178 L2091.64 216.178 L2091.64 212.242 Q2090.18 214.603 2088 215.738 Q2085.83 216.849 2082.68 216.849 Q2078.7 216.849 2076.34 214.627 Q2074 212.381 2074 208.631 Q2074 204.256 2076.91 202.034 Q2079.85 199.812 2085.66 199.812 L2091.64 199.812 L2091.64 199.395 Q2091.64 196.455 2089.69 194.858 Q2087.77 193.238 2084.28 193.238 Q2082.05 193.238 2079.95 193.77 Q2077.84 194.303 2075.9 195.367 L2075.9 191.432 Q2078.23 190.53 2080.43 190.09 Q2082.63 189.627 2084.72 189.627 Q2090.34 189.627 2093.12 192.543 Q2095.9 195.46 2095.9 201.386 Z" fill="#000000" fill-rule="evenodd" fill-opacity="1" /><path clip-path="url(#clip970)" d="M2126.22 200.529 L2126.22 216.178 L2121.96 216.178 L2121.96 200.668 Q2121.96 196.988 2120.53 195.159 Q2119.09 193.33 2116.22 193.33 Q2112.77 193.33 2110.78 195.53 Q2108.79 197.729 2108.79 201.525 L2108.79 216.178 L2104.51 216.178 L2104.51 190.252 L2108.79 190.252 L2108.79 194.28 Q2110.32 191.942 2112.38 190.784 Q2114.46 189.627 2117.17 189.627 Q2121.64 189.627 2123.93 192.405 Q2126.22 195.159 2126.22 200.529 Z" fill="#000000" fill-rule="evenodd" fill-opacity="1" /><path clip-path="url(#clip970)" d="M2151.78 202.914 Q2151.78 198.284 2149.85 195.738 Q2147.96 193.192 2144.51 193.192 Q2141.08 193.192 2139.16 195.738 Q2137.26 198.284 2137.26 202.914 Q2137.26 207.52 2139.16 210.066 Q2141.08 212.613 2144.51 212.613 Q2147.96 212.613 2149.85 210.066 Q2151.78 207.52 2151.78 202.914 M2156.03 212.96 Q2156.03 219.58 2153.09 222.798 Q2150.15 226.039 2144.09 226.039 Q2141.84 226.039 2139.85 225.691 Q2137.86 225.367 2135.99 224.673 L2135.99 220.529 Q2137.86 221.548 2139.69 222.034 Q2141.52 222.52 2143.42 222.52 Q2147.61 222.52 2149.69 220.321 Q2151.78 218.145 2151.78 213.724 L2151.78 211.617 Q2150.46 213.909 2148.4 215.043 Q2146.34 216.178 2143.46 216.178 Q2138.7 216.178 2135.78 212.543 Q2132.86 208.909 2132.86 202.914 Q2132.86 196.895 2135.78 193.261 Q2138.7 189.627 2143.46 189.627 Q2146.34 189.627 2148.4 190.761 Q2150.46 191.895 2151.78 194.187 L2151.78 190.252 L2156.03 190.252 L2156.03 212.96 Z" fill="#000000" fill-rule="evenodd" fill-opacity="1" /><path clip-path="url(#clip970)" d="M2186.98 202.15 L2186.98 204.233 L2167.4 204.233 Q2167.68 208.631 2170.04 210.946 Q2172.42 213.238 2176.66 213.238 Q2179.11 213.238 2181.4 212.636 Q2183.72 212.034 2185.99 210.83 L2185.99 214.858 Q2183.7 215.83 2181.29 216.34 Q2178.88 216.849 2176.4 216.849 Q2170.2 216.849 2166.57 213.238 Q2162.96 209.627 2162.96 203.469 Q2162.96 197.104 2166.38 193.377 Q2169.83 189.627 2175.66 189.627 Q2180.9 189.627 2183.93 193.006 Q2186.98 196.363 2186.98 202.15 M2182.72 200.9 Q2182.68 197.405 2180.76 195.321 Q2178.86 193.238 2175.71 193.238 Q2172.15 193.238 2169.99 195.252 Q2167.86 197.266 2167.54 200.923 L2182.72 200.9 Z" fill="#000000" fill-rule="evenodd" fill-opacity="1" /><polyline clip-path="url(#clip970)" style="stroke:#3da44d; stroke-linecap:butt; stroke-linejoin:round; stroke-width:4; stroke-opacity:1; fill:none" points="
  1803.49,250.738 1946.86,250.738 
  "/>
<path clip-path="url(#clip970)" d="M1970.76 233.458 L1977.05 233.458 L1992.38 262.369 L1992.38 233.458 L1996.91 233.458 L1996.91 268.018 L1990.62 268.018 L1975.29 239.106 L1975.29 268.018 L1970.76 268.018 L1970.76 233.458 Z" fill="#000000" fill-rule="evenodd" fill-opacity="1" /><path clip-path="url(#clip970)" d="M2028.21 253.99 L2028.21 256.073 L2008.63 256.073 Q2008.91 260.471 2011.27 262.786 Q2013.65 265.078 2017.89 265.078 Q2020.34 265.078 2022.63 264.476 Q2024.95 263.874 2027.22 262.67 L2027.22 266.698 Q2024.92 267.67 2022.52 268.18 Q2020.11 268.689 2017.63 268.689 Q2011.43 268.689 2007.79 265.078 Q2004.18 261.467 2004.18 255.309 Q2004.18 248.944 2007.61 245.217 Q2011.06 241.467 2016.89 241.467 Q2022.12 241.467 2025.16 244.846 Q2028.21 248.203 2028.21 253.99 M2023.95 252.74 Q2023.91 249.245 2021.98 247.161 Q2020.09 245.078 2016.94 245.078 Q2013.37 245.078 2011.22 247.092 Q2009.09 249.106 2008.77 252.763 L2023.95 252.74 Z" fill="#000000" fill-rule="evenodd" fill-opacity="1" /><path clip-path="url(#clip970)" d="M2032.72 242.092 L2036.98 242.092 L2042.31 262.323 L2047.61 242.092 L2052.63 242.092 L2057.96 262.323 L2063.26 242.092 L2067.52 242.092 L2060.73 268.018 L2055.71 268.018 L2050.13 246.768 L2044.53 268.018 L2039.51 268.018 L2032.72 242.092 Z" fill="#000000" fill-rule="evenodd" fill-opacity="1" /><path clip-path="url(#clip970)" d="M2078.19 234.731 L2078.19 242.092 L2086.96 242.092 L2086.96 245.402 L2078.19 245.402 L2078.19 259.476 Q2078.19 262.647 2079.04 263.55 Q2079.92 264.453 2082.59 264.453 L2086.96 264.453 L2086.96 268.018 L2082.59 268.018 Q2077.66 268.018 2075.78 266.189 Q2073.91 264.337 2073.91 259.476 L2073.91 245.402 L2070.78 245.402 L2070.78 242.092 L2073.91 242.092 L2073.91 234.731 L2078.19 234.731 Z" fill="#000000" fill-rule="evenodd" fill-opacity="1" /><path clip-path="url(#clip970)" d="M2102.61 245.078 Q2099.18 245.078 2097.19 247.763 Q2095.2 250.425 2095.2 255.078 Q2095.2 259.731 2097.17 262.416 Q2099.16 265.078 2102.61 265.078 Q2106.01 265.078 2108 262.393 Q2109.99 259.707 2109.99 255.078 Q2109.99 250.471 2108 247.786 Q2106.01 245.078 2102.61 245.078 M2102.61 241.467 Q2108.16 241.467 2111.34 245.078 Q2114.51 248.689 2114.51 255.078 Q2114.51 261.444 2111.34 265.078 Q2108.16 268.689 2102.61 268.689 Q2097.03 268.689 2093.86 265.078 Q2090.71 261.444 2090.71 255.078 Q2090.71 248.689 2093.86 245.078 Q2097.03 241.467 2102.61 241.467 Z" fill="#000000" fill-rule="evenodd" fill-opacity="1" /><path clip-path="url(#clip970)" d="M2143.12 252.369 L2143.12 268.018 L2138.86 268.018 L2138.86 252.508 Q2138.86 248.828 2137.42 246.999 Q2135.99 245.17 2133.12 245.17 Q2129.67 245.17 2127.68 247.37 Q2125.69 249.569 2125.69 253.365 L2125.69 268.018 L2121.4 268.018 L2121.4 242.092 L2125.69 242.092 L2125.69 246.12 Q2127.22 243.782 2129.28 242.624 Q2131.36 241.467 2134.07 241.467 Q2138.53 241.467 2140.83 244.245 Q2143.12 246.999 2143.12 252.369 Z" fill="#000000" fill-rule="evenodd" fill-opacity="1" /><polyline clip-path="url(#clip970)" style="stroke:#c271d2; stroke-linecap:butt; stroke-linejoin:round; stroke-width:4; stroke-opacity:1; fill:none" points="
  1803.49,302.578 1946.86,302.578 
  "/>
<path clip-path="url(#clip970)" d="M1970.76 285.298 L1990.62 285.298 L1990.62 289.233 L1975.43 289.233 L1975.43 299.418 L1989.14 299.418 L1989.14 303.353 L1975.43 303.353 L1975.43 319.858 L1970.76 319.858 L1970.76 285.298 Z" fill="#000000" fill-rule="evenodd" fill-opacity="1" /><path clip-path="url(#clip970)" d="M1994.39 293.932 L1998.65 293.932 L1998.65 319.858 L1994.39 319.858 L1994.39 293.932 M1994.39 283.839 L1998.65 283.839 L1998.65 289.233 L1994.39 289.233 L1994.39 283.839 Z" fill="#000000" fill-rule="evenodd" fill-opacity="1" /><path clip-path="url(#clip970)" d="M2011.78 286.571 L2011.78 293.932 L2020.55 293.932 L2020.55 297.242 L2011.78 297.242 L2011.78 311.316 Q2011.78 314.487 2012.63 315.39 Q2013.51 316.293 2016.17 316.293 L2020.55 316.293 L2020.55 319.858 L2016.17 319.858 Q2011.24 319.858 2009.37 318.029 Q2007.49 316.177 2007.49 311.316 L2007.49 297.242 L2004.37 297.242 L2004.37 293.932 L2007.49 293.932 L2007.49 286.571 L2011.78 286.571 Z" fill="#000000" fill-rule="evenodd" fill-opacity="1" /></svg>
