<?xml version="1.0" encoding="utf-8"?>
<svg xmlns="http://www.w3.org/2000/svg" xmlns:xlink="http://www.w3.org/1999/xlink" width="600" height="400" viewBox="0 0 2400 1600">
<defs>
  <clipPath id="clip800">
    <rect x="0" y="0" width="2400" height="1600"/>
  </clipPath>
</defs>
<path clip-path="url(#clip800)" d="
M0 1600 L2400 1600 L2400 0 L0 0  Z
  " fill="#ffffff" fill-rule="evenodd" fill-opacity="1"/>
<defs>
  <clipPath id="clip801">
    <rect x="480" y="0" width="1681" height="1600"/>
  </clipPath>
</defs>
<path clip-path="url(#clip800)" d="
M344.606 1486.45 L2352.76 1486.45 L2352.76 47.2441 L344.606 47.2441  Z
  " fill="#ffffff" fill-rule="evenodd" fill-opacity="1"/>
<defs>
  <clipPath id="clip802">
    <rect x="344" y="47" width="2009" height="1440"/>
  </clipPath>
</defs>
<polyline clip-path="url(#clip802)" style="stroke:#000000; stroke-linecap:butt; stroke-linejoin:round; stroke-width:2; stroke-opacity:0.1; fill:none" points="
  590.889,1486.45 590.889,47.2441 
  "/>
<polyline clip-path="url(#clip802)" style="stroke:#000000; stroke-linecap:butt; stroke-linejoin:round; stroke-width:2; stroke-opacity:0.1; fill:none" points="
  969.785,1486.45 969.785,47.2441 
  "/>
<polyline clip-path="url(#clip802)" style="stroke:#000000; stroke-linecap:butt; stroke-linejoin:round; stroke-width:2; stroke-opacity:0.1; fill:none" points="
  1348.68,1486.45 1348.68,47.2441 
  "/>
<polyline clip-path="url(#clip802)" style="stroke:#000000; stroke-linecap:butt; stroke-linejoin:round; stroke-width:2; stroke-opacity:0.1; fill:none" points="
  1727.58,1486.45 1727.58,47.2441 
  "/>
<polyline clip-path="url(#clip802)" style="stroke:#000000; stroke-linecap:butt; stroke-linejoin:round; stroke-width:2; stroke-opacity:0.1; fill:none" points="
  2106.47,1486.45 2106.47,47.2441 
  "/>
<polyline clip-path="url(#clip800)" style="stroke:#000000; stroke-linecap:butt; stroke-linejoin:round; stroke-width:4; stroke-opacity:1; fill:none" points="
  344.606,1486.45 2352.76,1486.45 
  "/>
<polyline clip-path="url(#clip800)" style="stroke:#000000; stroke-linecap:butt; stroke-linejoin:round; stroke-width:4; stroke-opacity:1; fill:none" points="
  590.889,1486.45 590.889,1467.55 
  "/>
<polyline clip-path="url(#clip800)" style="stroke:#000000; stroke-linecap:butt; stroke-linejoin:round; stroke-width:4; stroke-opacity:1; fill:none" points="
  969.785,1486.45 969.785,1467.55 
  "/>
<polyline clip-path="url(#clip800)" style="stroke:#000000; stroke-linecap:butt; stroke-linejoin:round; stroke-width:4; stroke-opacity:1; fill:none" points="
  1348.68,1486.45 1348.68,1467.55 
  "/>
<polyline clip-path="url(#clip800)" style="stroke:#000000; stroke-linecap:butt; stroke-linejoin:round; stroke-width:4; stroke-opacity:1; fill:none" points="
  1727.58,1486.45 1727.58,1467.55 
  "/>
<polyline clip-path="url(#clip800)" style="stroke:#000000; stroke-linecap:butt; stroke-linejoin:round; stroke-width:4; stroke-opacity:1; fill:none" points="
  2106.47,1486.45 2106.47,1467.55 
  "/>
<path clip-path="url(#clip800)" d="M559.79 1532.02 L589.465 1532.02 L589.465 1535.95 L559.79 1535.95 L559.79 1532.02 Z" fill="#000000" fill-rule="evenodd" fill-opacity="1" /><path clip-path="url(#clip800)" d="M612.405 1518.36 L600.6 1536.81 L612.405 1536.81 L612.405 1518.36 M611.178 1514.29 L617.058 1514.29 L617.058 1536.81 L621.988 1536.81 L621.988 1540.7 L617.058 1540.7 L617.058 1548.85 L612.405 1548.85 L612.405 1540.7 L596.803 1540.7 L596.803 1536.19 L611.178 1514.29 Z" fill="#000000" fill-rule="evenodd" fill-opacity="1" /><path clip-path="url(#clip800)" d="M939.727 1532.02 L969.403 1532.02 L969.403 1535.95 L939.727 1535.95 L939.727 1532.02 Z" fill="#000000" fill-rule="evenodd" fill-opacity="1" /><path clip-path="url(#clip800)" d="M983.523 1544.91 L999.843 1544.91 L999.843 1548.85 L977.898 1548.85 L977.898 1544.91 Q980.56 1542.16 985.144 1537.53 Q989.75 1532.88 990.931 1531.53 Q993.176 1529.01 994.056 1527.27 Q994.959 1525.51 994.959 1523.82 Q994.959 1521.07 993.014 1519.33 Q991.093 1517.6 987.991 1517.6 Q985.792 1517.6 983.338 1518.36 Q980.908 1519.13 978.13 1520.68 L978.13 1515.95 Q980.954 1514.82 983.408 1514.24 Q985.861 1513.66 987.898 1513.66 Q993.269 1513.66 996.463 1516.35 Q999.658 1519.03 999.658 1523.52 Q999.658 1525.65 998.847 1527.57 Q998.06 1529.47 995.954 1532.07 Q995.375 1532.74 992.273 1535.95 Q989.172 1539.15 983.523 1544.91 Z" fill="#000000" fill-rule="evenodd" fill-opacity="1" /><path clip-path="url(#clip800)" d="M1348.68 1517.37 Q1345.07 1517.37 1343.24 1520.93 Q1341.44 1524.47 1341.44 1531.6 Q1341.44 1538.71 1343.24 1542.27 Q1345.07 1545.82 1348.68 1545.82 Q1352.32 1545.82 1354.12 1542.27 Q1355.95 1538.71 1355.95 1531.6 Q1355.95 1524.47 1354.12 1520.93 Q1352.32 1517.37 1348.68 1517.37 M1348.68 1513.66 Q1354.49 1513.66 1357.55 1518.27 Q1360.63 1522.85 1360.63 1531.6 Q1360.63 1540.33 1357.55 1544.94 Q1354.49 1549.52 1348.68 1549.52 Q1342.87 1549.52 1339.79 1544.94 Q1336.74 1540.33 1336.74 1531.6 Q1336.74 1522.85 1339.79 1518.27 Q1342.87 1513.66 1348.68 1513.66 Z" fill="#000000" fill-rule="evenodd" fill-opacity="1" /><path clip-path="url(#clip800)" d="M1722.23 1544.91 L1738.55 1544.91 L1738.55 1548.85 L1716.61 1548.85 L1716.61 1544.91 Q1719.27 1542.16 1723.85 1537.53 Q1728.46 1532.88 1729.64 1531.53 Q1731.88 1529.01 1732.76 1527.27 Q1733.67 1525.51 1733.67 1523.82 Q1733.67 1521.07 1731.72 1519.33 Q1729.8 1517.6 1726.7 1517.6 Q1724.5 1517.6 1722.04 1518.36 Q1719.61 1519.13 1716.84 1520.68 L1716.84 1515.95 Q1719.66 1514.82 1722.11 1514.24 Q1724.57 1513.66 1726.61 1513.66 Q1731.98 1513.66 1735.17 1516.35 Q1738.36 1519.03 1738.36 1523.52 Q1738.36 1525.65 1737.55 1527.57 Q1736.77 1529.47 1734.66 1532.07 Q1734.08 1532.74 1730.98 1535.95 Q1727.88 1539.15 1722.23 1544.91 Z" fill="#000000" fill-rule="evenodd" fill-opacity="1" /><path clip-path="url(#clip800)" d="M2109.48 1518.36 L2097.68 1536.81 L2109.48 1536.81 L2109.48 1518.36 M2108.26 1514.29 L2114.14 1514.29 L2114.14 1536.81 L2119.07 1536.81 L2119.07 1540.7 L2114.14 1540.7 L2114.14 1548.85 L2109.48 1548.85 L2109.48 1540.7 L2093.88 1540.7 L2093.88 1536.19 L2108.26 1514.29 Z" fill="#000000" fill-rule="evenodd" fill-opacity="1" /><polyline clip-path="url(#clip802)" style="stroke:#000000; stroke-linecap:butt; stroke-linejoin:round; stroke-width:2; stroke-opacity:0.1; fill:none" points="
  344.606,1308.55 2352.76,1308.55 
  "/>
<polyline clip-path="url(#clip802)" style="stroke:#000000; stroke-linecap:butt; stroke-linejoin:round; stroke-width:2; stroke-opacity:0.1; fill:none" points="
  344.606,1079.45 2352.76,1079.45 
  "/>
<polyline clip-path="url(#clip802)" style="stroke:#000000; stroke-linecap:butt; stroke-linejoin:round; stroke-width:2; stroke-opacity:0.1; fill:none" points="
  344.606,850.348 2352.76,850.348 
  "/>
<polyline clip-path="url(#clip802)" style="stroke:#000000; stroke-linecap:butt; stroke-linejoin:round; stroke-width:2; stroke-opacity:0.1; fill:none" points="
  344.606,621.248 2352.76,621.248 
  "/>
<polyline clip-path="url(#clip802)" style="stroke:#000000; stroke-linecap:butt; stroke-linejoin:round; stroke-width:2; stroke-opacity:0.1; fill:none" points="
  344.606,392.148 2352.76,392.148 
  "/>
<polyline clip-path="url(#clip802)" style="stroke:#000000; stroke-linecap:butt; stroke-linejoin:round; stroke-width:2; stroke-opacity:0.1; fill:none" points="
  344.606,163.048 2352.76,163.048 
  "/>
<polyline clip-path="url(#clip800)" style="stroke:#000000; stroke-linecap:butt; stroke-linejoin:round; stroke-width:4; stroke-opacity:1; fill:none" points="
  344.606,1486.45 344.606,47.2441 
  "/>
<polyline clip-path="url(#clip800)" style="stroke:#000000; stroke-linecap:butt; stroke-linejoin:round; stroke-width:4; stroke-opacity:1; fill:none" points="
  344.606,1308.55 363.504,1308.55 
  "/>
<polyline clip-path="url(#clip800)" style="stroke:#000000; stroke-linecap:butt; stroke-linejoin:round; stroke-width:4; stroke-opacity:1; fill:none" points="
  344.606,1079.45 363.504,1079.45 
  "/>
<polyline clip-path="url(#clip800)" style="stroke:#000000; stroke-linecap:butt; stroke-linejoin:round; stroke-width:4; stroke-opacity:1; fill:none" points="
  344.606,850.348 363.504,850.348 
  "/>
<polyline clip-path="url(#clip800)" style="stroke:#000000; stroke-linecap:butt; stroke-linejoin:round; stroke-width:4; stroke-opacity:1; fill:none" points="
  344.606,621.248 363.504,621.248 
  "/>
<polyline clip-path="url(#clip800)" style="stroke:#000000; stroke-linecap:butt; stroke-linejoin:round; stroke-width:4; stroke-opacity:1; fill:none" points="
  344.606,392.148 363.504,392.148 
  "/>
<polyline clip-path="url(#clip800)" style="stroke:#000000; stroke-linecap:butt; stroke-linejoin:round; stroke-width:4; stroke-opacity:1; fill:none" points="
  344.606,163.048 363.504,163.048 
  "/>
<path clip-path="url(#clip800)" d="M53.2867 1315.45 L82.9624 1315.45 L82.9624 1319.38 L53.2867 1319.38 L53.2867 1315.45 Z" fill="#000000" fill-rule="evenodd" fill-opacity="1" /><path clip-path="url(#clip800)" d="M97.0827 1328.34 L113.402 1328.34 L113.402 1332.28 L91.4578 1332.28 L91.4578 1328.34 Q94.1198 1325.59 98.7031 1320.96 Q103.31 1316.3 104.49 1314.96 Q106.735 1312.44 107.615 1310.7 Q108.518 1308.94 108.518 1307.25 Q108.518 1304.5 106.573 1302.76 Q104.652 1301.03 101.55 1301.03 Q99.3512 1301.03 96.8976 1301.79 Q94.467 1302.55 91.6892 1304.11 L91.6892 1299.38 Q94.5133 1298.25 96.967 1297.67 Q99.4207 1297.09 101.458 1297.09 Q106.828 1297.09 110.022 1299.78 Q113.217 1302.46 113.217 1306.95 Q113.217 1309.08 112.407 1311 Q111.62 1312.9 109.513 1315.49 Q108.935 1316.17 105.833 1319.38 Q102.731 1322.58 97.0827 1328.34 Z" fill="#000000" fill-rule="evenodd" fill-opacity="1" /><path clip-path="url(#clip800)" d="M123.217 1326.4 L128.101 1326.4 L128.101 1332.28 L123.217 1332.28 L123.217 1326.4 Z" fill="#000000" fill-rule="evenodd" fill-opacity="1" /><path clip-path="url(#clip800)" d="M138.333 1297.72 L156.689 1297.72 L156.689 1301.65 L142.615 1301.65 L142.615 1310.12 Q143.633 1309.78 144.652 1309.61 Q145.67 1309.43 146.689 1309.43 Q152.476 1309.43 155.856 1312.6 Q159.235 1315.77 159.235 1321.19 Q159.235 1326.77 155.763 1329.87 Q152.291 1332.95 145.971 1332.95 Q143.795 1332.95 141.527 1332.58 Q139.282 1332.21 136.874 1331.47 L136.874 1326.77 Q138.958 1327.9 141.18 1328.46 Q143.402 1329.01 145.879 1329.01 Q149.883 1329.01 152.221 1326.91 Q154.559 1324.8 154.559 1321.19 Q154.559 1317.58 152.221 1315.47 Q149.883 1313.36 145.879 1313.36 Q144.004 1313.36 142.129 1313.78 Q140.277 1314.2 138.333 1315.08 L138.333 1297.72 Z" fill="#000000" fill-rule="evenodd" fill-opacity="1" /><path clip-path="url(#clip800)" d="M178.448 1300.8 Q174.837 1300.8 173.008 1304.36 Q171.203 1307.9 171.203 1315.03 Q171.203 1322.14 173.008 1325.7 Q174.837 1329.24 178.448 1329.24 Q182.082 1329.24 183.888 1325.7 Q185.717 1322.14 185.717 1315.03 Q185.717 1307.9 183.888 1304.36 Q182.082 1300.8 178.448 1300.8 M178.448 1297.09 Q184.258 1297.09 187.314 1301.7 Q190.392 1306.28 190.392 1315.03 Q190.392 1323.76 187.314 1328.36 Q184.258 1332.95 178.448 1332.95 Q172.638 1332.95 169.559 1328.36 Q166.504 1323.76 166.504 1315.03 Q166.504 1306.28 169.559 1301.7 Q172.638 1297.09 178.448 1297.09 Z" fill="#000000" fill-rule="evenodd" fill-opacity="1" /><path clip-path="url(#clip800)" d="M226.781 1306.81 L216.202 1317.44 L226.781 1328.02 L224.026 1330.82 L213.402 1320.19 L202.777 1330.82 L200.045 1328.02 L210.601 1317.44 L200.045 1306.81 L202.777 1304.01 L213.402 1314.64 L224.026 1304.01 L226.781 1306.81 Z" fill="#000000" fill-rule="evenodd" fill-opacity="1" /><path clip-path="url(#clip800)" d="M239.142 1328.34 L246.781 1328.34 L246.781 1301.98 L238.471 1303.64 L238.471 1299.38 L246.735 1297.72 L251.411 1297.72 L251.411 1328.34 L259.049 1328.34 L259.049 1332.28 L239.142 1332.28 L239.142 1328.34 Z" fill="#000000" fill-rule="evenodd" fill-opacity="1" /><path clip-path="url(#clip800)" d="M278.494 1300.8 Q274.883 1300.8 273.054 1304.36 Q271.248 1307.9 271.248 1315.03 Q271.248 1322.14 273.054 1325.7 Q274.883 1329.24 278.494 1329.24 Q282.128 1329.24 283.934 1325.7 Q285.762 1322.14 285.762 1315.03 Q285.762 1307.9 283.934 1304.36 Q282.128 1300.8 278.494 1300.8 M278.494 1297.09 Q284.304 1297.09 287.359 1301.7 Q290.438 1306.28 290.438 1315.03 Q290.438 1323.76 287.359 1328.36 Q284.304 1332.95 278.494 1332.95 Q272.684 1332.95 269.605 1328.36 Q266.549 1323.76 266.549 1315.03 Q266.549 1306.28 269.605 1301.7 Q272.684 1297.09 278.494 1297.09 Z" fill="#000000" fill-rule="evenodd" fill-opacity="1" /><path clip-path="url(#clip800)" d="M291.623 1276.79 L306.538 1276.79 L306.538 1279.98 L295.103 1279.98 L295.103 1286.87 Q295.93 1286.58 296.758 1286.45 Q297.585 1286.3 298.413 1286.3 Q303.115 1286.3 305.861 1288.88 Q308.606 1291.46 308.606 1295.86 Q308.606 1300.39 305.785 1302.91 Q302.964 1305.41 297.83 1305.41 Q296.062 1305.41 294.219 1305.11 Q292.394 1304.81 290.438 1304.21 L290.438 1300.39 Q292.131 1301.31 293.936 1301.76 Q295.742 1302.21 297.754 1302.21 Q301.008 1302.21 302.908 1300.5 Q304.807 1298.79 304.807 1295.86 Q304.807 1292.92 302.908 1291.21 Q301.008 1289.5 297.754 1289.5 Q296.231 1289.5 294.708 1289.84 Q293.203 1290.18 291.623 1290.89 L291.623 1276.79 Z" fill="#000000" fill-rule="evenodd" fill-opacity="1" /><path clip-path="url(#clip800)" d="M53.2867 1086.35 L82.9624 1086.35 L82.9624 1090.28 L53.2867 1090.28 L53.2867 1086.35 Z" fill="#000000" fill-rule="evenodd" fill-opacity="1" /><path clip-path="url(#clip800)" d="M97.0827 1099.24 L113.402 1099.24 L113.402 1103.18 L91.4578 1103.18 L91.4578 1099.24 Q94.1198 1096.49 98.7031 1091.86 Q103.31 1087.2 104.49 1085.86 Q106.735 1083.34 107.615 1081.6 Q108.518 1079.84 108.518 1078.15 Q108.518 1075.4 106.573 1073.66 Q104.652 1071.93 101.55 1071.93 Q99.3512 1071.93 96.8976 1072.69 Q94.467 1073.45 91.6892 1075.01 L91.6892 1070.28 Q94.5133 1069.15 96.967 1068.57 Q99.4207 1067.99 101.458 1067.99 Q106.828 1067.99 110.022 1070.68 Q113.217 1073.36 113.217 1077.85 Q113.217 1079.98 112.407 1081.9 Q111.62 1083.8 109.513 1086.39 Q108.935 1087.07 105.833 1090.28 Q102.731 1093.48 97.0827 1099.24 Z" fill="#000000" fill-rule="evenodd" fill-opacity="1" /><path clip-path="url(#clip800)" d="M123.217 1097.3 L128.101 1097.3 L128.101 1103.18 L123.217 1103.18 L123.217 1097.3 Z" fill="#000000" fill-rule="evenodd" fill-opacity="1" /><path clip-path="url(#clip800)" d="M148.286 1071.69 Q144.675 1071.69 142.846 1075.26 Q141.041 1078.8 141.041 1085.93 Q141.041 1093.04 142.846 1096.6 Q144.675 1100.14 148.286 1100.14 Q151.92 1100.14 153.726 1096.6 Q155.555 1093.04 155.555 1085.93 Q155.555 1078.8 153.726 1075.26 Q151.92 1071.69 148.286 1071.69 M148.286 1067.99 Q154.096 1067.99 157.152 1072.6 Q160.231 1077.18 160.231 1085.93 Q160.231 1094.66 157.152 1099.26 Q154.096 1103.85 148.286 1103.85 Q142.476 1103.85 139.397 1099.26 Q136.342 1094.66 136.342 1085.93 Q136.342 1077.18 139.397 1072.6 Q142.476 1067.99 148.286 1067.99 Z" fill="#000000" fill-rule="evenodd" fill-opacity="1" /><path clip-path="url(#clip800)" d="M178.448 1071.69 Q174.837 1071.69 173.008 1075.26 Q171.203 1078.8 171.203 1085.93 Q171.203 1093.04 173.008 1096.6 Q174.837 1100.14 178.448 1100.14 Q182.082 1100.14 183.888 1096.6 Q185.717 1093.04 185.717 1085.93 Q185.717 1078.8 183.888 1075.26 Q182.082 1071.69 178.448 1071.69 M178.448 1067.99 Q184.258 1067.99 187.314 1072.6 Q190.392 1077.18 190.392 1085.93 Q190.392 1094.66 187.314 1099.26 Q184.258 1103.85 178.448 1103.85 Q172.638 1103.85 169.559 1099.26 Q166.504 1094.66 166.504 1085.93 Q166.504 1077.18 169.559 1072.6 Q172.638 1067.99 178.448 1067.99 Z" fill="#000000" fill-rule="evenodd" fill-opacity="1" /><path clip-path="url(#clip800)" d="M226.781 1077.71 L216.202 1088.34 L226.781 1098.92 L224.026 1101.72 L213.402 1091.09 L202.777 1101.72 L200.045 1098.92 L210.601 1088.34 L200.045 1077.71 L202.777 1074.91 L213.402 1085.54 L224.026 1074.91 L226.781 1077.71 Z" fill="#000000" fill-rule="evenodd" fill-opacity="1" /><path clip-path="url(#clip800)" d="M239.142 1099.24 L246.781 1099.24 L246.781 1072.88 L238.471 1074.54 L238.471 1070.28 L246.735 1068.62 L251.411 1068.62 L251.411 1099.24 L259.049 1099.24 L259.049 1103.18 L239.142 1103.18 L239.142 1099.24 Z" fill="#000000" fill-rule="evenodd" fill-opacity="1" /><path clip-path="url(#clip800)" d="M278.494 1071.69 Q274.883 1071.69 273.054 1075.26 Q271.248 1078.8 271.248 1085.93 Q271.248 1093.04 273.054 1096.6 Q274.883 1100.14 278.494 1100.14 Q282.128 1100.14 283.934 1096.6 Q285.762 1093.04 285.762 1085.93 Q285.762 1078.8 283.934 1075.26 Q282.128 1071.69 278.494 1071.69 M278.494 1067.99 Q284.304 1067.99 287.359 1072.6 Q290.438 1077.18 290.438 1085.93 Q290.438 1094.66 287.359 1099.26 Q284.304 1103.85 278.494 1103.85 Q272.684 1103.85 269.605 1099.26 Q266.549 1094.66 266.549 1085.93 Q266.549 1077.18 269.605 1072.6 Q272.684 1067.99 278.494 1067.99 Z" fill="#000000" fill-rule="evenodd" fill-opacity="1" /><path clip-path="url(#clip800)" d="M291.623 1047.69 L306.538 1047.69 L306.538 1050.88 L295.103 1050.88 L295.103 1057.77 Q295.93 1057.48 296.758 1057.35 Q297.585 1057.2 298.413 1057.2 Q303.115 1057.2 305.861 1059.78 Q308.606 1062.36 308.606 1066.76 Q308.606 1071.29 305.785 1073.81 Q302.964 1076.31 297.83 1076.31 Q296.062 1076.31 294.219 1076.01 Q292.394 1075.71 290.438 1075.11 L290.438 1071.29 Q292.131 1072.21 293.936 1072.66 Q295.742 1073.11 297.754 1073.11 Q301.008 1073.11 302.908 1071.4 Q304.807 1069.69 304.807 1066.76 Q304.807 1063.82 302.908 1062.11 Q301.008 1060.4 297.754 1060.4 Q296.231 1060.4 294.708 1060.74 Q293.203 1061.08 291.623 1061.79 L291.623 1047.69 Z" fill="#000000" fill-rule="evenodd" fill-opacity="1" /><path clip-path="url(#clip800)" d="M53.2867 857.247 L82.9624 857.247 L82.9624 861.183 L53.2867 861.183 L53.2867 857.247 Z" fill="#000000" fill-rule="evenodd" fill-opacity="1" /><path clip-path="url(#clip800)" d="M93.8652 870.141 L101.504 870.141 L101.504 843.775 L93.1939 845.442 L93.1939 841.183 L101.458 839.516 L106.134 839.516 L106.134 870.141 L113.772 870.141 L113.772 874.076 L93.8652 874.076 L93.8652 870.141 Z" fill="#000000" fill-rule="evenodd" fill-opacity="1" /><path clip-path="url(#clip800)" d="M123.217 868.196 L128.101 868.196 L128.101 874.076 L123.217 874.076 L123.217 868.196 Z" fill="#000000" fill-rule="evenodd" fill-opacity="1" /><path clip-path="url(#clip800)" d="M138.333 839.516 L156.689 839.516 L156.689 843.451 L142.615 843.451 L142.615 851.923 Q143.633 851.576 144.652 851.414 Q145.67 851.229 146.689 851.229 Q152.476 851.229 155.856 854.4 Q159.235 857.571 159.235 862.988 Q159.235 868.567 155.763 871.669 Q152.291 874.747 145.971 874.747 Q143.795 874.747 141.527 874.377 Q139.282 874.007 136.874 873.266 L136.874 868.567 Q138.958 869.701 141.18 870.257 Q143.402 870.812 145.879 870.812 Q149.883 870.812 152.221 868.706 Q154.559 866.599 154.559 862.988 Q154.559 859.377 152.221 857.271 Q149.883 855.164 145.879 855.164 Q144.004 855.164 142.129 855.581 Q140.277 855.997 138.333 856.877 L138.333 839.516 Z" fill="#000000" fill-rule="evenodd" fill-opacity="1" /><path clip-path="url(#clip800)" d="M178.448 842.595 Q174.837 842.595 173.008 846.16 Q171.203 849.701 171.203 856.831 Q171.203 863.937 173.008 867.502 Q174.837 871.044 178.448 871.044 Q182.082 871.044 183.888 867.502 Q185.717 863.937 185.717 856.831 Q185.717 849.701 183.888 846.16 Q182.082 842.595 178.448 842.595 M178.448 838.891 Q184.258 838.891 187.314 843.497 Q190.392 848.081 190.392 856.831 Q190.392 865.558 187.314 870.164 Q184.258 874.747 178.448 874.747 Q172.638 874.747 169.559 870.164 Q166.504 865.558 166.504 856.831 Q166.504 848.081 169.559 843.497 Q172.638 838.891 178.448 838.891 Z" fill="#000000" fill-rule="evenodd" fill-opacity="1" /><path clip-path="url(#clip800)" d="M226.781 848.613 L216.202 859.238 L226.781 869.817 L224.026 872.618 L213.402 861.993 L202.777 872.618 L200.045 869.817 L210.601 859.238 L200.045 848.613 L202.777 845.812 L213.402 856.437 L224.026 845.812 L226.781 848.613 Z" fill="#000000" fill-rule="evenodd" fill-opacity="1" /><path clip-path="url(#clip800)" d="M239.142 870.141 L246.781 870.141 L246.781 843.775 L238.471 845.442 L238.471 841.183 L246.735 839.516 L251.411 839.516 L251.411 870.141 L259.049 870.141 L259.049 874.076 L239.142 874.076 L239.142 870.141 Z" fill="#000000" fill-rule="evenodd" fill-opacity="1" /><path clip-path="url(#clip800)" d="M278.494 842.595 Q274.883 842.595 273.054 846.16 Q271.248 849.701 271.248 856.831 Q271.248 863.937 273.054 867.502 Q274.883 871.044 278.494 871.044 Q282.128 871.044 283.934 867.502 Q285.762 863.937 285.762 856.831 Q285.762 849.701 283.934 846.16 Q282.128 842.595 278.494 842.595 M278.494 838.891 Q284.304 838.891 287.359 843.497 Q290.438 848.081 290.438 856.831 Q290.438 865.558 287.359 870.164 Q284.304 874.747 278.494 874.747 Q272.684 874.747 269.605 870.164 Q266.549 865.558 266.549 856.831 Q266.549 848.081 269.605 843.497 Q272.684 838.891 278.494 838.891 Z" fill="#000000" fill-rule="evenodd" fill-opacity="1" /><path clip-path="url(#clip800)" d="M291.623 818.586 L306.538 818.586 L306.538 821.783 L295.103 821.783 L295.103 828.667 Q295.93 828.384 296.758 828.253 Q297.585 828.102 298.413 828.102 Q303.115 828.102 305.861 830.679 Q308.606 833.256 308.606 837.657 Q308.606 842.189 305.785 844.71 Q302.964 847.211 297.83 847.211 Q296.062 847.211 294.219 846.91 Q292.394 846.609 290.438 846.007 L290.438 842.189 Q292.131 843.111 293.936 843.562 Q295.742 844.014 297.754 844.014 Q301.008 844.014 302.908 842.302 Q304.807 840.591 304.807 837.657 Q304.807 834.723 302.908 833.011 Q301.008 831.3 297.754 831.3 Q296.231 831.3 294.708 831.638 Q293.203 831.977 291.623 832.691 L291.623 818.586 Z" fill="#000000" fill-rule="evenodd" fill-opacity="1" /><path clip-path="url(#clip800)" d="M53.2867 628.147 L82.9624 628.147 L82.9624 632.082 L53.2867 632.082 L53.2867 628.147 Z" fill="#000000" fill-rule="evenodd" fill-opacity="1" /><path clip-path="url(#clip800)" d="M93.8652 641.041 L101.504 641.041 L101.504 614.675 L93.1939 616.342 L93.1939 612.082 L101.458 610.416 L106.134 610.416 L106.134 641.041 L113.772 641.041 L113.772 644.976 L93.8652 644.976 L93.8652 641.041 Z" fill="#000000" fill-rule="evenodd" fill-opacity="1" /><path clip-path="url(#clip800)" d="M123.217 639.096 L128.101 639.096 L128.101 644.976 L123.217 644.976 L123.217 639.096 Z" fill="#000000" fill-rule="evenodd" fill-opacity="1" /><path clip-path="url(#clip800)" d="M148.286 613.495 Q144.675 613.495 142.846 617.059 Q141.041 620.601 141.041 627.731 Q141.041 634.837 142.846 638.402 Q144.675 641.943 148.286 641.943 Q151.92 641.943 153.726 638.402 Q155.555 634.837 155.555 627.731 Q155.555 620.601 153.726 617.059 Q151.92 613.495 148.286 613.495 M148.286 609.791 Q154.096 609.791 157.152 614.397 Q160.231 618.981 160.231 627.731 Q160.231 636.457 157.152 641.064 Q154.096 645.647 148.286 645.647 Q142.476 645.647 139.397 641.064 Q136.342 636.457 136.342 627.731 Q136.342 618.981 139.397 614.397 Q142.476 609.791 148.286 609.791 Z" fill="#000000" fill-rule="evenodd" fill-opacity="1" /><path clip-path="url(#clip800)" d="M178.448 613.495 Q174.837 613.495 173.008 617.059 Q171.203 620.601 171.203 627.731 Q171.203 634.837 173.008 638.402 Q174.837 641.943 178.448 641.943 Q182.082 641.943 183.888 638.402 Q185.717 634.837 185.717 627.731 Q185.717 620.601 183.888 617.059 Q182.082 613.495 178.448 613.495 M178.448 609.791 Q184.258 609.791 187.314 614.397 Q190.392 618.981 190.392 627.731 Q190.392 636.457 187.314 641.064 Q184.258 645.647 178.448 645.647 Q172.638 645.647 169.559 641.064 Q166.504 636.457 166.504 627.731 Q166.504 618.981 169.559 614.397 Q172.638 609.791 178.448 609.791 Z" fill="#000000" fill-rule="evenodd" fill-opacity="1" /><path clip-path="url(#clip800)" d="M226.781 619.513 L216.202 630.138 L226.781 640.717 L224.026 643.518 L213.402 632.893 L202.777 643.518 L200.045 640.717 L210.601 630.138 L200.045 619.513 L202.777 616.712 L213.402 627.337 L224.026 616.712 L226.781 619.513 Z" fill="#000000" fill-rule="evenodd" fill-opacity="1" /><path clip-path="url(#clip800)" d="M239.142 641.041 L246.781 641.041 L246.781 614.675 L238.471 616.342 L238.471 612.082 L246.735 610.416 L251.411 610.416 L251.411 641.041 L259.049 641.041 L259.049 644.976 L239.142 644.976 L239.142 641.041 Z" fill="#000000" fill-rule="evenodd" fill-opacity="1" /><path clip-path="url(#clip800)" d="M278.494 613.495 Q274.883 613.495 273.054 617.059 Q271.248 620.601 271.248 627.731 Q271.248 634.837 273.054 638.402 Q274.883 641.943 278.494 641.943 Q282.128 641.943 283.934 638.402 Q285.762 634.837 285.762 627.731 Q285.762 620.601 283.934 617.059 Q282.128 613.495 278.494 613.495 M278.494 609.791 Q284.304 609.791 287.359 614.397 Q290.438 618.981 290.438 627.731 Q290.438 636.457 287.359 641.064 Q284.304 645.647 278.494 645.647 Q272.684 645.647 269.605 641.064 Q266.549 636.457 266.549 627.731 Q266.549 618.981 269.605 614.397 Q272.684 609.791 278.494 609.791 Z" fill="#000000" fill-rule="evenodd" fill-opacity="1" /><path clip-path="url(#clip800)" d="M291.623 589.485 L306.538 589.485 L306.538 592.683 L295.103 592.683 L295.103 599.566 Q295.93 599.284 296.758 599.153 Q297.585 599.002 298.413 599.002 Q303.115 599.002 305.861 601.579 Q308.606 604.155 308.606 608.557 Q308.606 613.089 305.785 615.609 Q302.964 618.111 297.83 618.111 Q296.062 618.111 294.219 617.81 Q292.394 617.509 290.438 616.907 L290.438 613.089 Q292.131 614.011 293.936 614.462 Q295.742 614.914 297.754 614.914 Q301.008 614.914 302.908 613.202 Q304.807 611.491 304.807 608.557 Q304.807 605.622 302.908 603.911 Q301.008 602.199 297.754 602.199 Q296.231 602.199 294.708 602.538 Q293.203 602.877 291.623 603.591 L291.623 589.485 Z" fill="#000000" fill-rule="evenodd" fill-opacity="1" /><path clip-path="url(#clip800)" d="M50.9921 399.047 L80.6679 399.047 L80.6679 402.982 L50.9921 402.982 L50.9921 399.047 Z" fill="#000000" fill-rule="evenodd" fill-opacity="1" /><path clip-path="url(#clip800)" d="M90.8067 381.316 L109.163 381.316 L109.163 385.251 L95.0891 385.251 L95.0891 393.723 Q96.1076 393.376 97.1261 393.214 Q98.1447 393.029 99.1632 393.029 Q104.95 393.029 108.33 396.2 Q111.709 399.371 111.709 404.788 Q111.709 410.366 108.237 413.468 Q104.765 416.547 98.4456 416.547 Q96.2697 416.547 94.0012 416.177 Q91.7558 415.806 89.3484 415.065 L89.3484 410.366 Q91.4317 411.501 93.6539 412.056 Q95.8761 412.612 98.353 412.612 Q102.358 412.612 104.696 410.505 Q107.033 408.399 107.033 404.788 Q107.033 401.177 104.696 399.07 Q102.358 396.964 98.353 396.964 Q96.478 396.964 94.603 397.38 Q92.7512 397.797 90.8067 398.677 L90.8067 381.316 Z" fill="#000000" fill-rule="evenodd" fill-opacity="1" /><path clip-path="url(#clip800)" d="M120.922 409.996 L125.807 409.996 L125.807 415.876 L120.922 415.876 L120.922 409.996 Z" fill="#000000" fill-rule="evenodd" fill-opacity="1" /><path clip-path="url(#clip800)" d="M145.992 384.394 Q142.381 384.394 140.552 387.959 Q138.746 391.501 138.746 398.63 Q138.746 405.737 140.552 409.302 Q142.381 412.843 145.992 412.843 Q149.626 412.843 151.431 409.302 Q153.26 405.737 153.26 398.63 Q153.26 391.501 151.431 387.959 Q149.626 384.394 145.992 384.394 M145.992 380.691 Q151.802 380.691 154.857 385.297 Q157.936 389.88 157.936 398.63 Q157.936 407.357 154.857 411.964 Q151.802 416.547 145.992 416.547 Q140.181 416.547 137.103 411.964 Q134.047 407.357 134.047 398.63 Q134.047 389.88 137.103 385.297 Q140.181 380.691 145.992 380.691 Z" fill="#000000" fill-rule="evenodd" fill-opacity="1" /><path clip-path="url(#clip800)" d="M176.153 384.394 Q172.542 384.394 170.714 387.959 Q168.908 391.501 168.908 398.63 Q168.908 405.737 170.714 409.302 Q172.542 412.843 176.153 412.843 Q179.788 412.843 181.593 409.302 Q183.422 405.737 183.422 398.63 Q183.422 391.501 181.593 387.959 Q179.788 384.394 176.153 384.394 M176.153 380.691 Q181.964 380.691 185.019 385.297 Q188.098 389.88 188.098 398.63 Q188.098 407.357 185.019 411.964 Q181.964 416.547 176.153 416.547 Q170.343 416.547 167.265 411.964 Q164.209 407.357 164.209 398.63 Q164.209 389.88 167.265 385.297 Q170.343 380.691 176.153 380.691 Z" fill="#000000" fill-rule="evenodd" fill-opacity="1" /><path clip-path="url(#clip800)" d="M224.487 390.413 L213.908 401.038 L224.487 411.616 L221.732 414.417 L211.107 403.792 L200.482 414.417 L197.751 411.616 L208.306 401.038 L197.751 390.413 L200.482 387.612 L211.107 398.237 L221.732 387.612 L224.487 390.413 Z" fill="#000000" fill-rule="evenodd" fill-opacity="1" /><path clip-path="url(#clip800)" d="M236.848 411.94 L244.486 411.94 L244.486 385.575 L236.176 387.242 L236.176 382.982 L244.44 381.316 L249.116 381.316 L249.116 411.94 L256.755 411.94 L256.755 415.876 L236.848 415.876 L236.848 411.94 Z" fill="#000000" fill-rule="evenodd" fill-opacity="1" /><path clip-path="url(#clip800)" d="M276.199 384.394 Q272.588 384.394 270.759 387.959 Q268.954 391.501 268.954 398.63 Q268.954 405.737 270.759 409.302 Q272.588 412.843 276.199 412.843 Q279.833 412.843 281.639 409.302 Q283.468 405.737 283.468 398.63 Q283.468 391.501 281.639 387.959 Q279.833 384.394 276.199 384.394 M276.199 380.691 Q282.009 380.691 285.065 385.297 Q288.144 389.88 288.144 398.63 Q288.144 407.357 285.065 411.964 Q282.009 416.547 276.199 416.547 Q270.389 416.547 267.31 411.964 Q264.255 407.357 264.255 398.63 Q264.255 389.88 267.31 385.297 Q270.389 380.691 276.199 380.691 Z" fill="#000000" fill-rule="evenodd" fill-opacity="1" /><path clip-path="url(#clip800)" d="M300.82 363.695 L291.228 378.685 L300.82 378.685 L300.82 363.695 M299.823 360.385 L304.6 360.385 L304.6 378.685 L308.606 378.685 L308.606 381.845 L304.6 381.845 L304.6 388.465 L300.82 388.465 L300.82 381.845 L288.144 381.845 L288.144 378.177 L299.823 360.385 Z" fill="#000000" fill-rule="evenodd" fill-opacity="1" /><path clip-path="url(#clip800)" d="M296.662 148.847 Q293.051 148.847 291.222 152.411 Q289.417 155.953 289.417 163.083 Q289.417 170.189 291.222 173.754 Q293.051 177.295 296.662 177.295 Q300.296 177.295 302.102 173.754 Q303.931 170.189 303.931 163.083 Q303.931 155.953 302.102 152.411 Q300.296 148.847 296.662 148.847 M296.662 145.143 Q302.472 145.143 305.528 149.749 Q308.606 154.333 308.606 163.083 Q308.606 171.809 305.528 176.416 Q302.472 180.999 296.662 180.999 Q290.852 180.999 287.773 176.416 Q284.718 171.809 284.718 163.083 Q284.718 154.333 287.773 149.749 Q290.852 145.143 296.662 145.143 Z" fill="#000000" fill-rule="evenodd" fill-opacity="1" /><polyline clip-path="url(#clip802)" style="stroke:#009af9; stroke-linecap:butt; stroke-linejoin:round; stroke-width:4; stroke-opacity:1; fill:none" points="
  401.441,1445.72 404.524,1421.56 407.608,1397.79 410.691,1374.41 413.775,1351.4 420.903,1299.66 428.031,1249.86 435.159,1201.94 442.287,1155.85 449.415,1111.52 
  456.542,1068.89 463.67,1027.92 470.798,988.55 477.926,950.724 485.054,914.394 492.182,879.509 499.31,846.022 506.438,813.886 513.566,783.055 520.694,753.484 
  527.822,725.13 536.389,692.603 544.956,661.702 553.523,632.36 562.09,604.511 570.657,578.091 579.225,553.037 587.792,529.291 596.359,506.795 610.846,471.446 
  625.333,439.26 639.819,409.997 654.306,383.433 670.043,357.389 685.78,334.029 701.517,313.118 717.253,294.439 731.761,279.021 746.269,265.18 760.777,252.78 
  775.285,241.694 790.839,231.133 806.393,221.811 821.947,213.606 837.501,206.403 855.522,199.174 873.543,193.004 891.564,187.76 909.584,183.324 941.614,177.107 
  973.644,172.602 1001.73,169.732 1029.82,167.635 1091.06,164.915 1152.67,163.709 1220.79,163.217 1285.6,163.082 1352.99,163.052 1409.71,163.048 1478.97,163.048 
  1542.42,163.048 1601.01,163.048 1660.37,163.048 1726.89,163.043 1787.16,163.017 1856.18,162.876 1920.08,162.427 1983.08,161.241 2044.25,158.598 2075.6,156.27 
  2106.95,152.968 2141.3,147.853 2175.65,140.656 2200.6,133.753 2225.55,125.101 2250.5,114.344 2275.45,101.074 2280.57,97.9987 2285.68,94.7938 2290.8,91.4546 
  2295.92,87.9763 
  "/>
<path clip-path="url(#clip800)" d="
M2010.26 198.898 L2285.82 198.898 L2285.82 95.2176 L2010.26 95.2176  Z
  " fill="#ffffff" fill-rule="evenodd" fill-opacity="1"/>
<polyline clip-path="url(#clip800)" style="stroke:#000000; stroke-linecap:butt; stroke-linejoin:round; stroke-width:4; stroke-opacity:1; fill:none" points="
  2010.26,198.898 2285.82,198.898 2285.82,95.2176 2010.26,95.2176 2010.26,198.898 
  "/>
<polyline clip-path="url(#clip800)" style="stroke:#009af9; stroke-linecap:butt; stroke-linejoin:round; stroke-width:4; stroke-opacity:1; fill:none" points="
  2032.57,147.058 2166.45,147.058 
  "/>
<path clip-path="url(#clip800)" d="M2202.6 166.745 Q2200.8 171.375 2199.09 172.787 Q2197.37 174.199 2194.5 174.199 L2191.1 174.199 L2191.1 170.634 L2193.6 170.634 Q2195.36 170.634 2196.33 169.8 Q2197.3 168.967 2198.48 165.865 L2199.25 163.921 L2188.76 138.412 L2193.28 138.412 L2201.38 158.689 L2209.48 138.412 L2213.99 138.412 L2202.6 166.745 Z" fill="#000000" fill-rule="evenodd" fill-opacity="1" /><path clip-path="url(#clip800)" d="M2221.28 160.402 L2228.92 160.402 L2228.92 134.037 L2220.61 135.703 L2220.61 131.444 L2228.88 129.778 L2233.55 129.778 L2233.55 160.402 L2241.19 160.402 L2241.19 164.338 L2221.28 164.338 L2221.28 160.402 Z" fill="#000000" fill-rule="evenodd" fill-opacity="1" /></svg>
