<?xml version="1.0" encoding="utf-8"?>
<svg xmlns="http://www.w3.org/2000/svg" xmlns:xlink="http://www.w3.org/1999/xlink" width="600" height="400" viewBox="0 0 2400 1600">
<defs>
  <clipPath id="clip840">
    <rect x="0" y="0" width="2400" height="1600"/>
  </clipPath>
</defs>
<path clip-path="url(#clip840)" d="
M0 1600 L2400 1600 L2400 0 L0 0  Z
  " fill="#ffffff" fill-rule="evenodd" fill-opacity="1"/>
<defs>
  <clipPath id="clip841">
    <rect x="480" y="0" width="1681" height="1600"/>
  </clipPath>
</defs>
<path clip-path="url(#clip840)" d="
M314.445 1486.45 L2352.76 1486.45 L2352.76 47.2441 L314.445 47.2441  Z
  " fill="#ffffff" fill-rule="evenodd" fill-opacity="1"/>
<defs>
  <clipPath id="clip842">
    <rect x="314" y="47" width="2039" height="1440"/>
  </clipPath>
</defs>
<polyline clip-path="url(#clip842)" style="stroke:#000000; stroke-linecap:butt; stroke-linejoin:round; stroke-width:2; stroke-opacity:0.1; fill:none" points="
  564.426,1486.45 564.426,47.2441 
  "/>
<polyline clip-path="url(#clip842)" style="stroke:#000000; stroke-linecap:butt; stroke-linejoin:round; stroke-width:2; stroke-opacity:0.1; fill:none" points="
  949.013,1486.45 949.013,47.2441 
  "/>
<polyline clip-path="url(#clip842)" style="stroke:#000000; stroke-linecap:butt; stroke-linejoin:round; stroke-width:2; stroke-opacity:0.1; fill:none" points="
  1333.6,1486.45 1333.6,47.2441 
  "/>
<polyline clip-path="url(#clip842)" style="stroke:#000000; stroke-linecap:butt; stroke-linejoin:round; stroke-width:2; stroke-opacity:0.1; fill:none" points="
  1718.19,1486.45 1718.19,47.2441 
  "/>
<polyline clip-path="url(#clip842)" style="stroke:#000000; stroke-linecap:butt; stroke-linejoin:round; stroke-width:2; stroke-opacity:0.1; fill:none" points="
  2102.77,1486.45 2102.77,47.2441 
  "/>
<polyline clip-path="url(#clip840)" style="stroke:#000000; stroke-linecap:butt; stroke-linejoin:round; stroke-width:4; stroke-opacity:1; fill:none" points="
  314.445,1486.45 2352.76,1486.45 
  "/>
<polyline clip-path="url(#clip840)" style="stroke:#000000; stroke-linecap:butt; stroke-linejoin:round; stroke-width:4; stroke-opacity:1; fill:none" points="
  564.426,1486.45 564.426,1467.55 
  "/>
<polyline clip-path="url(#clip840)" style="stroke:#000000; stroke-linecap:butt; stroke-linejoin:round; stroke-width:4; stroke-opacity:1; fill:none" points="
  949.013,1486.45 949.013,1467.55 
  "/>
<polyline clip-path="url(#clip840)" style="stroke:#000000; stroke-linecap:butt; stroke-linejoin:round; stroke-width:4; stroke-opacity:1; fill:none" points="
  1333.6,1486.45 1333.6,1467.55 
  "/>
<polyline clip-path="url(#clip840)" style="stroke:#000000; stroke-linecap:butt; stroke-linejoin:round; stroke-width:4; stroke-opacity:1; fill:none" points="
  1718.19,1486.45 1718.19,1467.55 
  "/>
<polyline clip-path="url(#clip840)" style="stroke:#000000; stroke-linecap:butt; stroke-linejoin:round; stroke-width:4; stroke-opacity:1; fill:none" points="
  2102.77,1486.45 2102.77,1467.55 
  "/>
<path clip-path="url(#clip840)" d="M533.327 1532.02 L563.003 1532.02 L563.003 1535.95 L533.327 1535.95 L533.327 1532.02 Z" fill="#000000" fill-rule="evenodd" fill-opacity="1" /><path clip-path="url(#clip840)" d="M585.942 1518.36 L574.137 1536.81 L585.942 1536.81 L585.942 1518.36 M584.715 1514.29 L590.595 1514.29 L590.595 1536.81 L595.526 1536.81 L595.526 1540.7 L590.595 1540.7 L590.595 1548.85 L585.942 1548.85 L585.942 1540.7 L570.341 1540.7 L570.341 1536.19 L584.715 1514.29 Z" fill="#000000" fill-rule="evenodd" fill-opacity="1" /><path clip-path="url(#clip840)" d="M918.956 1532.02 L948.631 1532.02 L948.631 1535.95 L918.956 1535.95 L918.956 1532.02 Z" fill="#000000" fill-rule="evenodd" fill-opacity="1" /><path clip-path="url(#clip840)" d="M962.752 1544.91 L979.071 1544.91 L979.071 1548.85 L957.127 1548.85 L957.127 1544.91 Q959.789 1542.16 964.372 1537.53 Q968.978 1532.88 970.159 1531.53 Q972.404 1529.01 973.284 1527.27 Q974.187 1525.51 974.187 1523.82 Q974.187 1521.07 972.242 1519.33 Q970.321 1517.6 967.219 1517.6 Q965.02 1517.6 962.566 1518.36 Q960.136 1519.13 957.358 1520.68 L957.358 1515.95 Q960.182 1514.82 962.636 1514.24 Q965.09 1513.66 967.127 1513.66 Q972.497 1513.66 975.691 1516.35 Q978.886 1519.03 978.886 1523.52 Q978.886 1525.65 978.076 1527.57 Q977.289 1529.47 975.182 1532.07 Q974.603 1532.74 971.502 1535.95 Q968.4 1539.15 962.752 1544.91 Z" fill="#000000" fill-rule="evenodd" fill-opacity="1" /><path clip-path="url(#clip840)" d="M1333.6 1517.37 Q1329.99 1517.37 1328.16 1520.93 Q1326.35 1524.47 1326.35 1531.6 Q1326.35 1538.71 1328.16 1542.27 Q1329.99 1545.82 1333.6 1545.82 Q1337.23 1545.82 1339.04 1542.27 Q1340.87 1538.71 1340.87 1531.6 Q1340.87 1524.47 1339.04 1520.93 Q1337.23 1517.37 1333.6 1517.37 M1333.6 1513.66 Q1339.41 1513.66 1342.47 1518.27 Q1345.54 1522.85 1345.54 1531.6 Q1345.54 1540.33 1342.47 1544.94 Q1339.41 1549.52 1333.6 1549.52 Q1327.79 1549.52 1324.71 1544.94 Q1321.66 1540.33 1321.66 1531.6 Q1321.66 1522.85 1324.71 1518.27 Q1327.79 1513.66 1333.6 1513.66 Z" fill="#000000" fill-rule="evenodd" fill-opacity="1" /><path clip-path="url(#clip840)" d="M1712.84 1544.91 L1729.16 1544.91 L1729.16 1548.85 L1707.22 1548.85 L1707.22 1544.91 Q1709.88 1542.16 1714.46 1537.53 Q1719.07 1532.88 1720.25 1531.53 Q1722.49 1529.01 1723.37 1527.27 Q1724.28 1525.51 1724.28 1523.82 Q1724.28 1521.07 1722.33 1519.33 Q1720.41 1517.6 1717.31 1517.6 Q1715.11 1517.6 1712.65 1518.36 Q1710.22 1519.13 1707.45 1520.68 L1707.45 1515.95 Q1710.27 1514.82 1712.72 1514.24 Q1715.18 1513.66 1717.22 1513.66 Q1722.59 1513.66 1725.78 1516.35 Q1728.97 1519.03 1728.97 1523.52 Q1728.97 1525.65 1728.16 1527.57 Q1727.38 1529.47 1725.27 1532.07 Q1724.69 1532.74 1721.59 1535.95 Q1718.49 1539.15 1712.84 1544.91 Z" fill="#000000" fill-rule="evenodd" fill-opacity="1" /><path clip-path="url(#clip840)" d="M2105.78 1518.36 L2093.98 1536.81 L2105.78 1536.81 L2105.78 1518.36 M2104.56 1514.29 L2110.44 1514.29 L2110.44 1536.81 L2115.37 1536.81 L2115.37 1540.7 L2110.44 1540.7 L2110.44 1548.85 L2105.78 1548.85 L2105.78 1540.7 L2090.18 1540.7 L2090.18 1536.19 L2104.56 1514.29 Z" fill="#000000" fill-rule="evenodd" fill-opacity="1" /><polyline clip-path="url(#clip842)" style="stroke:#000000; stroke-linecap:butt; stroke-linejoin:round; stroke-width:2; stroke-opacity:0.1; fill:none" points="
  314.445,1451.6 2352.76,1451.6 
  "/>
<polyline clip-path="url(#clip842)" style="stroke:#000000; stroke-linecap:butt; stroke-linejoin:round; stroke-width:2; stroke-opacity:0.1; fill:none" points="
  314.445,1111.96 2352.76,1111.96 
  "/>
<polyline clip-path="url(#clip842)" style="stroke:#000000; stroke-linecap:butt; stroke-linejoin:round; stroke-width:2; stroke-opacity:0.1; fill:none" points="
  314.445,772.31 2352.76,772.31 
  "/>
<polyline clip-path="url(#clip842)" style="stroke:#000000; stroke-linecap:butt; stroke-linejoin:round; stroke-width:2; stroke-opacity:0.1; fill:none" points="
  314.445,432.664 2352.76,432.664 
  "/>
<polyline clip-path="url(#clip842)" style="stroke:#000000; stroke-linecap:butt; stroke-linejoin:round; stroke-width:2; stroke-opacity:0.1; fill:none" points="
  314.445,93.0171 2352.76,93.0171 
  "/>
<polyline clip-path="url(#clip840)" style="stroke:#000000; stroke-linecap:butt; stroke-linejoin:round; stroke-width:4; stroke-opacity:1; fill:none" points="
  314.445,1486.45 314.445,47.2441 
  "/>
<polyline clip-path="url(#clip840)" style="stroke:#000000; stroke-linecap:butt; stroke-linejoin:round; stroke-width:4; stroke-opacity:1; fill:none" points="
  314.445,1451.6 333.342,1451.6 
  "/>
<polyline clip-path="url(#clip840)" style="stroke:#000000; stroke-linecap:butt; stroke-linejoin:round; stroke-width:4; stroke-opacity:1; fill:none" points="
  314.445,1111.96 333.342,1111.96 
  "/>
<polyline clip-path="url(#clip840)" style="stroke:#000000; stroke-linecap:butt; stroke-linejoin:round; stroke-width:4; stroke-opacity:1; fill:none" points="
  314.445,772.31 333.342,772.31 
  "/>
<polyline clip-path="url(#clip840)" style="stroke:#000000; stroke-linecap:butt; stroke-linejoin:round; stroke-width:4; stroke-opacity:1; fill:none" points="
  314.445,432.664 333.342,432.664 
  "/>
<polyline clip-path="url(#clip840)" style="stroke:#000000; stroke-linecap:butt; stroke-linejoin:round; stroke-width:4; stroke-opacity:1; fill:none" points="
  314.445,93.0171 333.342,93.0171 
  "/>
<path clip-path="url(#clip840)" d="M50.9921 1458.5 L80.6679 1458.5 L80.6679 1462.44 L50.9921 1462.44 L50.9921 1458.5 Z" fill="#000000" fill-rule="evenodd" fill-opacity="1" /><path clip-path="url(#clip840)" d="M103.608 1444.84 L91.8021 1463.29 L103.608 1463.29 L103.608 1444.84 M102.381 1440.77 L108.26 1440.77 L108.26 1463.29 L113.191 1463.29 L113.191 1467.18 L108.26 1467.18 L108.26 1475.33 L103.608 1475.33 L103.608 1467.18 L88.0058 1467.18 L88.0058 1462.67 L102.381 1440.77 Z" fill="#000000" fill-rule="evenodd" fill-opacity="1" /><path clip-path="url(#clip840)" d="M120.922 1469.45 L125.807 1469.45 L125.807 1475.33 L120.922 1475.33 L120.922 1469.45 Z" fill="#000000" fill-rule="evenodd" fill-opacity="1" /><path clip-path="url(#clip840)" d="M145.992 1443.85 Q142.381 1443.85 140.552 1447.41 Q138.746 1450.96 138.746 1458.09 Q138.746 1465.19 140.552 1468.76 Q142.381 1472.3 145.992 1472.3 Q149.626 1472.3 151.431 1468.76 Q153.26 1465.19 153.26 1458.09 Q153.26 1450.96 151.431 1447.41 Q149.626 1443.85 145.992 1443.85 M145.992 1440.15 Q151.802 1440.15 154.857 1444.75 Q157.936 1449.34 157.936 1458.09 Q157.936 1466.81 154.857 1471.42 Q151.802 1476 145.992 1476 Q140.181 1476 137.103 1471.42 Q134.047 1466.81 134.047 1458.09 Q134.047 1449.34 137.103 1444.75 Q140.181 1440.15 145.992 1440.15 Z" fill="#000000" fill-rule="evenodd" fill-opacity="1" /><path clip-path="url(#clip840)" d="M194.325 1449.87 L183.746 1460.49 L194.325 1471.07 L191.57 1473.87 L180.945 1463.25 L170.32 1473.87 L167.589 1471.07 L178.144 1460.49 L167.589 1449.87 L170.32 1447.07 L180.945 1457.69 L191.57 1447.07 L194.325 1449.87 Z" fill="#000000" fill-rule="evenodd" fill-opacity="1" /><path clip-path="url(#clip840)" d="M206.686 1471.4 L214.325 1471.4 L214.325 1445.03 L206.014 1446.7 L206.014 1442.44 L214.278 1440.77 L218.954 1440.77 L218.954 1471.4 L226.593 1471.4 L226.593 1475.33 L206.686 1475.33 L206.686 1471.4 Z" fill="#000000" fill-rule="evenodd" fill-opacity="1" /><path clip-path="url(#clip840)" d="M246.037 1443.85 Q242.426 1443.85 240.598 1447.41 Q238.792 1450.96 238.792 1458.09 Q238.792 1465.19 240.598 1468.76 Q242.426 1472.3 246.037 1472.3 Q249.672 1472.3 251.477 1468.76 Q253.306 1465.19 253.306 1458.09 Q253.306 1450.96 251.477 1447.41 Q249.672 1443.85 246.037 1443.85 M246.037 1440.15 Q251.848 1440.15 254.903 1444.75 Q257.982 1449.34 257.982 1458.09 Q257.982 1466.81 254.903 1471.42 Q251.848 1476 246.037 1476 Q240.227 1476 237.149 1471.42 Q234.093 1466.81 234.093 1458.09 Q234.093 1449.34 237.149 1444.75 Q240.227 1440.15 246.037 1440.15 Z" fill="#000000" fill-rule="evenodd" fill-opacity="1" /><path clip-path="url(#clip840)" d="M270.658 1423.15 L261.066 1438.14 L270.658 1438.14 L270.658 1423.15 M269.661 1419.84 L274.439 1419.84 L274.439 1438.14 L278.445 1438.14 L278.445 1441.3 L274.439 1441.3 L274.439 1447.92 L270.658 1447.92 L270.658 1441.3 L257.982 1441.3 L257.982 1437.63 L269.661 1419.84 Z" fill="#000000" fill-rule="evenodd" fill-opacity="1" /><path clip-path="url(#clip840)" d="M50.9921 1118.86 L80.6679 1118.86 L80.6679 1122.79 L50.9921 1122.79 L50.9921 1118.86 Z" fill="#000000" fill-rule="evenodd" fill-opacity="1" /><path clip-path="url(#clip840)" d="M104.927 1117.05 Q108.283 1117.77 110.158 1120.04 Q112.057 1122.3 112.057 1125.64 Q112.057 1130.75 108.538 1133.55 Q105.02 1136.36 98.5382 1136.36 Q96.3623 1136.36 94.0475 1135.92 Q91.7558 1135.5 89.3021 1134.64 L89.3021 1130.13 Q91.2465 1131.26 93.5613 1131.84 Q95.8761 1132.42 98.3993 1132.42 Q102.797 1132.42 105.089 1130.68 Q107.404 1128.95 107.404 1125.64 Q107.404 1122.58 105.251 1120.87 Q103.121 1119.13 99.3021 1119.13 L95.2743 1119.13 L95.2743 1115.29 L99.4872 1115.29 Q102.936 1115.29 104.765 1113.92 Q106.594 1112.54 106.594 1109.94 Q106.594 1107.28 104.696 1105.87 Q102.821 1104.43 99.3021 1104.43 Q97.3808 1104.43 95.1817 1104.85 Q92.9826 1105.27 90.3438 1106.15 L90.3438 1101.98 Q93.0058 1101.24 95.3206 1100.87 Q97.6585 1100.5 99.7187 1100.5 Q105.043 1100.5 108.145 1102.93 Q111.246 1105.34 111.246 1109.46 Q111.246 1112.33 109.603 1114.32 Q107.959 1116.29 104.927 1117.05 Z" fill="#000000" fill-rule="evenodd" fill-opacity="1" /><path clip-path="url(#clip840)" d="M120.922 1129.8 L125.807 1129.8 L125.807 1135.68 L120.922 1135.68 L120.922 1129.8 Z" fill="#000000" fill-rule="evenodd" fill-opacity="1" /><path clip-path="url(#clip840)" d="M145.992 1104.2 Q142.381 1104.2 140.552 1107.77 Q138.746 1111.31 138.746 1118.44 Q138.746 1125.55 140.552 1129.11 Q142.381 1132.65 145.992 1132.65 Q149.626 1132.65 151.431 1129.11 Q153.26 1125.55 153.26 1118.44 Q153.26 1111.31 151.431 1107.77 Q149.626 1104.2 145.992 1104.2 M145.992 1100.5 Q151.802 1100.5 154.857 1105.11 Q157.936 1109.69 157.936 1118.44 Q157.936 1127.17 154.857 1131.77 Q151.802 1136.36 145.992 1136.36 Q140.181 1136.36 137.103 1131.77 Q134.047 1127.17 134.047 1118.44 Q134.047 1109.69 137.103 1105.11 Q140.181 1100.5 145.992 1100.5 Z" fill="#000000" fill-rule="evenodd" fill-opacity="1" /><path clip-path="url(#clip840)" d="M194.325 1110.22 L183.746 1120.85 L194.325 1131.42 L191.57 1134.23 L180.945 1123.6 L170.32 1134.23 L167.589 1131.42 L178.144 1120.85 L167.589 1110.22 L170.32 1107.42 L180.945 1118.05 L191.57 1107.42 L194.325 1110.22 Z" fill="#000000" fill-rule="evenodd" fill-opacity="1" /><path clip-path="url(#clip840)" d="M206.686 1131.75 L214.325 1131.75 L214.325 1105.38 L206.014 1107.05 L206.014 1102.79 L214.278 1101.12 L218.954 1101.12 L218.954 1131.75 L226.593 1131.75 L226.593 1135.68 L206.686 1135.68 L206.686 1131.75 Z" fill="#000000" fill-rule="evenodd" fill-opacity="1" /><path clip-path="url(#clip840)" d="M246.037 1104.2 Q242.426 1104.2 240.598 1107.77 Q238.792 1111.31 238.792 1118.44 Q238.792 1125.55 240.598 1129.11 Q242.426 1132.65 246.037 1132.65 Q249.672 1132.65 251.477 1129.11 Q253.306 1125.55 253.306 1118.44 Q253.306 1111.31 251.477 1107.77 Q249.672 1104.2 246.037 1104.2 M246.037 1100.5 Q251.848 1100.5 254.903 1105.11 Q257.982 1109.69 257.982 1118.44 Q257.982 1127.17 254.903 1131.77 Q251.848 1136.36 246.037 1136.36 Q240.227 1136.36 237.149 1131.77 Q234.093 1127.17 234.093 1118.44 Q234.093 1109.69 237.149 1105.11 Q240.227 1100.5 246.037 1100.5 Z" fill="#000000" fill-rule="evenodd" fill-opacity="1" /><path clip-path="url(#clip840)" d="M270.658 1083.5 L261.066 1098.49 L270.658 1098.49 L270.658 1083.5 M269.661 1080.19 L274.439 1080.19 L274.439 1098.49 L278.445 1098.49 L278.445 1101.65 L274.439 1101.65 L274.439 1108.27 L270.658 1108.27 L270.658 1101.65 L257.982 1101.65 L257.982 1097.99 L269.661 1080.19 Z" fill="#000000" fill-rule="evenodd" fill-opacity="1" /><path clip-path="url(#clip840)" d="M50.9921 779.209 L80.6679 779.209 L80.6679 783.144 L50.9921 783.144 L50.9921 779.209 Z" fill="#000000" fill-rule="evenodd" fill-opacity="1" /><path clip-path="url(#clip840)" d="M94.7882 792.102 L111.108 792.102 L111.108 796.038 L89.1632 796.038 L89.1632 792.102 Q91.8252 789.348 96.4085 784.718 Q101.015 780.065 102.196 778.723 Q104.441 776.2 105.321 774.464 Q106.223 772.704 106.223 771.015 Q106.223 768.26 104.279 766.524 Q102.358 764.788 99.2558 764.788 Q97.0567 764.788 94.603 765.552 Q92.1725 766.316 89.3947 767.866 L89.3947 763.144 Q92.2188 762.01 94.6724 761.431 Q97.1261 760.853 99.1632 760.853 Q104.534 760.853 107.728 763.538 Q110.922 766.223 110.922 770.714 Q110.922 772.843 110.112 774.765 Q109.325 776.663 107.219 779.255 Q106.64 779.927 103.538 783.144 Q100.436 786.339 94.7882 792.102 Z" fill="#000000" fill-rule="evenodd" fill-opacity="1" /><path clip-path="url(#clip840)" d="M120.922 790.158 L125.807 790.158 L125.807 796.038 L120.922 796.038 L120.922 790.158 Z" fill="#000000" fill-rule="evenodd" fill-opacity="1" /><path clip-path="url(#clip840)" d="M145.992 764.556 Q142.381 764.556 140.552 768.121 Q138.746 771.663 138.746 778.792 Q138.746 785.899 140.552 789.464 Q142.381 793.005 145.992 793.005 Q149.626 793.005 151.431 789.464 Q153.26 785.899 153.26 778.792 Q153.26 771.663 151.431 768.121 Q149.626 764.556 145.992 764.556 M145.992 760.853 Q151.802 760.853 154.857 765.459 Q157.936 770.042 157.936 778.792 Q157.936 787.519 154.857 792.126 Q151.802 796.709 145.992 796.709 Q140.181 796.709 137.103 792.126 Q134.047 787.519 134.047 778.792 Q134.047 770.042 137.103 765.459 Q140.181 760.853 145.992 760.853 Z" fill="#000000" fill-rule="evenodd" fill-opacity="1" /><path clip-path="url(#clip840)" d="M194.325 770.575 L183.746 781.2 L194.325 791.778 L191.57 794.579 L180.945 783.954 L170.32 794.579 L167.589 791.778 L178.144 781.2 L167.589 770.575 L170.32 767.774 L180.945 778.399 L191.57 767.774 L194.325 770.575 Z" fill="#000000" fill-rule="evenodd" fill-opacity="1" /><path clip-path="url(#clip840)" d="M206.686 792.102 L214.325 792.102 L214.325 765.737 L206.014 767.404 L206.014 763.144 L214.278 761.478 L218.954 761.478 L218.954 792.102 L226.593 792.102 L226.593 796.038 L206.686 796.038 L206.686 792.102 Z" fill="#000000" fill-rule="evenodd" fill-opacity="1" /><path clip-path="url(#clip840)" d="M246.037 764.556 Q242.426 764.556 240.598 768.121 Q238.792 771.663 238.792 778.792 Q238.792 785.899 240.598 789.464 Q242.426 793.005 246.037 793.005 Q249.672 793.005 251.477 789.464 Q253.306 785.899 253.306 778.792 Q253.306 771.663 251.477 768.121 Q249.672 764.556 246.037 764.556 M246.037 760.853 Q251.848 760.853 254.903 765.459 Q257.982 770.042 257.982 778.792 Q257.982 787.519 254.903 792.126 Q251.848 796.709 246.037 796.709 Q240.227 796.709 237.149 792.126 Q234.093 787.519 234.093 778.792 Q234.093 770.042 237.149 765.459 Q240.227 760.853 246.037 760.853 Z" fill="#000000" fill-rule="evenodd" fill-opacity="1" /><path clip-path="url(#clip840)" d="M270.658 743.857 L261.066 758.847 L270.658 758.847 L270.658 743.857 M269.661 740.547 L274.439 740.547 L274.439 758.847 L278.445 758.847 L278.445 762.007 L274.439 762.007 L274.439 768.627 L270.658 768.627 L270.658 762.007 L257.982 762.007 L257.982 758.339 L269.661 740.547 Z" fill="#000000" fill-rule="evenodd" fill-opacity="1" /><path clip-path="url(#clip840)" d="M50.9921 439.563 L80.6679 439.563 L80.6679 443.498 L50.9921 443.498 L50.9921 439.563 Z" fill="#000000" fill-rule="evenodd" fill-opacity="1" /><path clip-path="url(#clip840)" d="M91.5706 452.456 L99.2095 452.456 L99.2095 426.09 L90.8993 427.757 L90.8993 423.498 L99.1632 421.831 L103.839 421.831 L103.839 452.456 L111.478 452.456 L111.478 456.391 L91.5706 456.391 L91.5706 452.456 Z" fill="#000000" fill-rule="evenodd" fill-opacity="1" /><path clip-path="url(#clip840)" d="M120.922 450.512 L125.807 450.512 L125.807 456.391 L120.922 456.391 L120.922 450.512 Z" fill="#000000" fill-rule="evenodd" fill-opacity="1" /><path clip-path="url(#clip840)" d="M145.992 424.91 Q142.381 424.91 140.552 428.475 Q138.746 432.016 138.746 439.146 Q138.746 446.252 140.552 449.817 Q142.381 453.359 145.992 453.359 Q149.626 453.359 151.431 449.817 Q153.26 446.252 153.26 439.146 Q153.26 432.016 151.431 428.475 Q149.626 424.91 145.992 424.91 M145.992 421.206 Q151.802 421.206 154.857 425.813 Q157.936 430.396 157.936 439.146 Q157.936 447.873 154.857 452.479 Q151.802 457.062 145.992 457.062 Q140.181 457.062 137.103 452.479 Q134.047 447.873 134.047 439.146 Q134.047 430.396 137.103 425.813 Q140.181 421.206 145.992 421.206 Z" fill="#000000" fill-rule="evenodd" fill-opacity="1" /><path clip-path="url(#clip840)" d="M194.325 430.928 L183.746 441.553 L194.325 452.132 L191.57 454.933 L180.945 444.308 L170.32 454.933 L167.589 452.132 L178.144 441.553 L167.589 430.928 L170.32 428.127 L180.945 438.752 L191.57 428.127 L194.325 430.928 Z" fill="#000000" fill-rule="evenodd" fill-opacity="1" /><path clip-path="url(#clip840)" d="M206.686 452.456 L214.325 452.456 L214.325 426.09 L206.014 427.757 L206.014 423.498 L214.278 421.831 L218.954 421.831 L218.954 452.456 L226.593 452.456 L226.593 456.391 L206.686 456.391 L206.686 452.456 Z" fill="#000000" fill-rule="evenodd" fill-opacity="1" /><path clip-path="url(#clip840)" d="M246.037 424.91 Q242.426 424.91 240.598 428.475 Q238.792 432.016 238.792 439.146 Q238.792 446.252 240.598 449.817 Q242.426 453.359 246.037 453.359 Q249.672 453.359 251.477 449.817 Q253.306 446.252 253.306 439.146 Q253.306 432.016 251.477 428.475 Q249.672 424.91 246.037 424.91 M246.037 421.206 Q251.848 421.206 254.903 425.813 Q257.982 430.396 257.982 439.146 Q257.982 447.873 254.903 452.479 Q251.848 457.062 246.037 457.062 Q240.227 457.062 237.149 452.479 Q234.093 447.873 234.093 439.146 Q234.093 430.396 237.149 425.813 Q240.227 421.206 246.037 421.206 Z" fill="#000000" fill-rule="evenodd" fill-opacity="1" /><path clip-path="url(#clip840)" d="M270.658 404.211 L261.066 419.201 L270.658 419.201 L270.658 404.211 M269.661 400.901 L274.439 400.901 L274.439 419.201 L278.445 419.201 L278.445 422.36 L274.439 422.36 L274.439 428.981 L270.658 428.981 L270.658 422.36 L257.982 422.36 L257.982 418.693 L269.661 400.901 Z" fill="#000000" fill-rule="evenodd" fill-opacity="1" /><path clip-path="url(#clip840)" d="M266.5 78.8158 Q262.889 78.8158 261.06 82.3805 Q259.255 85.9222 259.255 93.0518 Q259.255 100.158 261.06 103.723 Q262.889 107.265 266.5 107.265 Q270.134 107.265 271.94 103.723 Q273.769 100.158 273.769 93.0518 Q273.769 85.9222 271.94 82.3805 Q270.134 78.8158 266.5 78.8158 M266.5 75.1121 Q272.31 75.1121 275.366 79.7185 Q278.445 84.3018 278.445 93.0518 Q278.445 101.779 275.366 106.385 Q272.31 110.968 266.5 110.968 Q260.69 110.968 257.611 106.385 Q254.556 101.779 254.556 93.0518 Q254.556 84.3018 257.611 79.7185 Q260.69 75.1121 266.5 75.1121 Z" fill="#000000" fill-rule="evenodd" fill-opacity="1" /><polyline clip-path="url(#clip842)" style="stroke:#009af9; stroke-linecap:butt; stroke-linejoin:round; stroke-width:4; stroke-opacity:1; fill:none" points="
  372.133,93.0168 384.652,93.0168 500.412,93.0166 569.978,93.0164 628.796,93.0162 692.688,93.0159 751.592,93.0155 814.742,93.0148 887.908,93.0138 952.93,93.0125 
  1009.95,93.0109 1072.11,93.0085 1134.65,93.0053 1169.22,93.0031 1203.79,93.0005 1236.68,92.9979 1269.57,92.9958 1278.12,92.9957 1286.67,92.9962 1295.22,92.9978 
  1303.77,93.0021 1308.05,93.0066 1312.32,93.0144 1316.6,93.0294 1320.87,93.0628 1323.01,93.0969 1325.15,93.1603 1327.28,93.299 1329.42,93.7031 1330.49,94.2822 
  1331.56,95.9978 1332.09,98.515 1332.63,106.265 1333.16,158.44 1333.7,1445.72 1334.23,124.552 1334.77,102.235 1335.3,97.3311 1335.83,95.4994 1336.9,94.1339 
  1337.97,93.6395 1339.77,93.3118 1341.57,93.1794 1343.37,93.1129 1345.17,93.0748 1348.77,93.0349 1352.37,93.0153 1355.97,93.004 1359.56,92.9968 1363.16,92.9918 
  1366.76,92.9881 1381.16,92.9791 1395.55,92.9735 1430.7,92.9621 1465.85,92.9502 1498.05,92.9377 1530.24,92.923 1589.72,92.8886 1649.97,92.8412 1683.73,92.8074 
  1717.49,92.7671 1748.08,92.724 1778.67,92.6734 1796.18,92.6406 1813.7,92.6047 1831.21,92.5654 1848.72,92.5223 1864.94,92.4788 1881.15,92.4314 1897.37,92.3799 
  1913.58,92.3238 1929.57,92.2637 1945.55,92.1984 1961.54,92.1274 1977.53,92.0503 1993.05,91.969 2008.57,91.8809 2024.09,91.7854 2039.61,91.6819 2055.52,91.5667 
  2071.44,91.4416 2087.35,91.3056 2103.26,91.158 2111.98,91.0718 2120.69,90.9816 2129.41,90.8872 2138.12,90.7884 2146.84,90.6851 2155.56,90.5769 2164.27,90.4638 
  2172.99,90.3454 2185.65,90.1635 2198.31,89.9693 2210.98,89.7619 2223.64,89.5403 2229.97,89.4239 2236.3,89.3037 2242.63,89.1794 2248.96,89.0509 2255.29,88.9182 
  2261.62,88.781 2267.96,88.6392 2274.29,88.4926 2279.48,88.3687 2284.68,88.2414 2289.87,88.1106 2295.07,87.9763 
  "/>
<path clip-path="url(#clip840)" d="
M2005.9 198.898 L2284.81 198.898 L2284.81 95.2176 L2005.9 95.2176  Z
  " fill="#ffffff" fill-rule="evenodd" fill-opacity="1"/>
<polyline clip-path="url(#clip840)" style="stroke:#000000; stroke-linecap:butt; stroke-linejoin:round; stroke-width:4; stroke-opacity:1; fill:none" points="
  2005.9,198.898 2284.81,198.898 2284.81,95.2176 2005.9,95.2176 2005.9,198.898 
  "/>
<polyline clip-path="url(#clip840)" style="stroke:#009af9; stroke-linecap:butt; stroke-linejoin:round; stroke-width:4; stroke-opacity:1; fill:none" points="
  2028.55,147.058 2164.44,147.058 
  "/>
<path clip-path="url(#clip840)" d="M2200.93 166.745 Q2199.12 171.375 2197.41 172.787 Q2195.7 174.199 2192.83 174.199 L2189.42 174.199 L2189.42 170.634 L2191.92 170.634 Q2193.68 170.634 2194.66 169.8 Q2195.63 168.967 2196.81 165.865 L2197.57 163.921 L2187.09 138.412 L2191.6 138.412 L2199.7 158.689 L2207.8 138.412 L2212.32 138.412 L2200.93 166.745 Z" fill="#000000" fill-rule="evenodd" fill-opacity="1" /><path clip-path="url(#clip840)" d="M2219.61 160.402 L2227.25 160.402 L2227.25 134.037 L2218.94 135.703 L2218.94 131.444 L2227.2 129.778 L2231.88 129.778 L2231.88 160.402 L2239.52 160.402 L2239.52 164.338 L2219.61 164.338 L2219.61 160.402 Z" fill="#000000" fill-rule="evenodd" fill-opacity="1" /></svg>
