<?xml version="1.0" encoding="utf-8"?>
<svg xmlns="http://www.w3.org/2000/svg" xmlns:xlink="http://www.w3.org/1999/xlink" width="600" height="400" viewBox="0 0 2400 1600">
<defs>
  <clipPath id="clip170">
    <rect x="0" y="0" width="2400" height="1600"/>
  </clipPath>
</defs>
<path clip-path="url(#clip170)" d="
M0 1600 L2400 1600 L2400 0 L0 0  Z
  " fill="#ffffff" fill-rule="evenodd" fill-opacity="1"/>
<defs>
  <clipPath id="clip171">
    <rect x="480" y="0" width="1681" height="1600"/>
  </clipPath>
</defs>
<path clip-path="url(#clip170)" d="
M340.699 1423.18 L2352.76 1423.18 L2352.76 47.2441 L340.699 47.2441  Z
  " fill="#ffffff" fill-rule="evenodd" fill-opacity="1"/>
<defs>
  <clipPath id="clip172">
    <rect x="340" y="47" width="2013" height="1377"/>
  </clipPath>
</defs>
<polyline clip-path="url(#clip172)" style="stroke:#000000; stroke-linecap:butt; stroke-linejoin:round; stroke-width:2; stroke-opacity:0.1; fill:none" points="
  392.887,1423.18 392.887,47.2441 
  "/>
<polyline clip-path="url(#clip172)" style="stroke:#000000; stroke-linecap:butt; stroke-linejoin:round; stroke-width:2; stroke-opacity:0.1; fill:none" points="
  868.618,1423.18 868.618,47.2441 
  "/>
<polyline clip-path="url(#clip172)" style="stroke:#000000; stroke-linecap:butt; stroke-linejoin:round; stroke-width:2; stroke-opacity:0.1; fill:none" points="
  1344.35,1423.18 1344.35,47.2441 
  "/>
<polyline clip-path="url(#clip172)" style="stroke:#000000; stroke-linecap:butt; stroke-linejoin:round; stroke-width:2; stroke-opacity:0.1; fill:none" points="
  1820.08,1423.18 1820.08,47.2441 
  "/>
<polyline clip-path="url(#clip172)" style="stroke:#000000; stroke-linecap:butt; stroke-linejoin:round; stroke-width:2; stroke-opacity:0.1; fill:none" points="
  2295.81,1423.18 2295.81,47.2441 
  "/>
<polyline clip-path="url(#clip170)" style="stroke:#000000; stroke-linecap:butt; stroke-linejoin:round; stroke-width:4; stroke-opacity:1; fill:none" points="
  340.699,1423.18 2352.76,1423.18 
  "/>
<polyline clip-path="url(#clip170)" style="stroke:#000000; stroke-linecap:butt; stroke-linejoin:round; stroke-width:4; stroke-opacity:1; fill:none" points="
  392.887,1423.18 392.887,1404.28 
  "/>
<polyline clip-path="url(#clip170)" style="stroke:#000000; stroke-linecap:butt; stroke-linejoin:round; stroke-width:4; stroke-opacity:1; fill:none" points="
  868.618,1423.18 868.618,1404.28 
  "/>
<polyline clip-path="url(#clip170)" style="stroke:#000000; stroke-linecap:butt; stroke-linejoin:round; stroke-width:4; stroke-opacity:1; fill:none" points="
  1344.35,1423.18 1344.35,1404.28 
  "/>
<polyline clip-path="url(#clip170)" style="stroke:#000000; stroke-linecap:butt; stroke-linejoin:round; stroke-width:4; stroke-opacity:1; fill:none" points="
  1820.08,1423.18 1820.08,1404.28 
  "/>
<polyline clip-path="url(#clip170)" style="stroke:#000000; stroke-linecap:butt; stroke-linejoin:round; stroke-width:4; stroke-opacity:1; fill:none" points="
  2295.81,1423.18 2295.81,1404.28 
  "/>
<path clip-path="url(#clip170)" d="M392.887 1454.1 Q389.276 1454.1 387.447 1457.66 Q385.641 1461.2 385.641 1468.33 Q385.641 1475.44 387.447 1479.01 Q389.276 1482.55 392.887 1482.55 Q396.521 1482.55 398.326 1479.01 Q400.155 1475.44 400.155 1468.33 Q400.155 1461.2 398.326 1457.66 Q396.521 1454.1 392.887 1454.1 M392.887 1450.39 Q398.697 1450.39 401.752 1455 Q404.831 1459.58 404.831 1468.33 Q404.831 1477.06 401.752 1481.67 Q398.697 1486.25 392.887 1486.25 Q387.076 1486.25 383.998 1481.67 Q380.942 1477.06 380.942 1468.33 Q380.942 1459.58 383.998 1455 Q387.076 1450.39 392.887 1450.39 Z" fill="#000000" fill-rule="evenodd" fill-opacity="1" /><path clip-path="url(#clip170)" d="M828.224 1481.64 L835.863 1481.64 L835.863 1455.28 L827.553 1456.95 L827.553 1452.69 L835.817 1451.02 L840.493 1451.02 L840.493 1481.64 L848.132 1481.64 L848.132 1485.58 L828.224 1485.58 L828.224 1481.64 Z" fill="#000000" fill-rule="evenodd" fill-opacity="1" /><path clip-path="url(#clip170)" d="M867.576 1454.1 Q863.965 1454.1 862.136 1457.66 Q860.331 1461.2 860.331 1468.33 Q860.331 1475.44 862.136 1479.01 Q863.965 1482.55 867.576 1482.55 Q871.21 1482.55 873.016 1479.01 Q874.845 1475.44 874.845 1468.33 Q874.845 1461.2 873.016 1457.66 Q871.21 1454.1 867.576 1454.1 M867.576 1450.39 Q873.386 1450.39 876.442 1455 Q879.52 1459.58 879.52 1468.33 Q879.52 1477.06 876.442 1481.67 Q873.386 1486.25 867.576 1486.25 Q861.766 1486.25 858.687 1481.67 Q855.632 1477.06 855.632 1468.33 Q855.632 1459.58 858.687 1455 Q861.766 1450.39 867.576 1450.39 Z" fill="#000000" fill-rule="evenodd" fill-opacity="1" /><path clip-path="url(#clip170)" d="M897.738 1454.1 Q894.127 1454.1 892.298 1457.66 Q890.493 1461.2 890.493 1468.33 Q890.493 1475.44 892.298 1479.01 Q894.127 1482.55 897.738 1482.55 Q901.372 1482.55 903.178 1479.01 Q905.006 1475.44 905.006 1468.33 Q905.006 1461.2 903.178 1457.66 Q901.372 1454.1 897.738 1454.1 M897.738 1450.39 Q903.548 1450.39 906.604 1455 Q909.682 1459.58 909.682 1468.33 Q909.682 1477.06 906.604 1481.67 Q903.548 1486.25 897.738 1486.25 Q891.928 1486.25 888.849 1481.67 Q885.794 1477.06 885.794 1468.33 Q885.794 1459.58 888.849 1455 Q891.928 1450.39 897.738 1450.39 Z" fill="#000000" fill-rule="evenodd" fill-opacity="1" /><path clip-path="url(#clip170)" d="M1308.04 1481.64 L1324.36 1481.64 L1324.36 1485.58 L1302.42 1485.58 L1302.42 1481.64 Q1305.08 1478.89 1309.66 1474.26 Q1314.27 1469.61 1315.45 1468.27 Q1317.69 1465.74 1318.57 1464.01 Q1319.48 1462.25 1319.48 1460.56 Q1319.48 1457.8 1317.53 1456.07 Q1315.61 1454.33 1312.51 1454.33 Q1310.31 1454.33 1307.86 1455.09 Q1305.43 1455.86 1302.65 1457.41 L1302.65 1452.69 Q1305.47 1451.55 1307.93 1450.97 Q1310.38 1450.39 1312.42 1450.39 Q1317.79 1450.39 1320.98 1453.08 Q1324.18 1455.77 1324.18 1460.26 Q1324.18 1462.39 1323.37 1464.31 Q1322.58 1466.2 1320.47 1468.8 Q1319.89 1469.47 1316.79 1472.69 Q1313.69 1475.88 1308.04 1481.64 Z" fill="#000000" fill-rule="evenodd" fill-opacity="1" /><path clip-path="url(#clip170)" d="M1344.18 1454.1 Q1340.56 1454.1 1338.74 1457.66 Q1336.93 1461.2 1336.93 1468.33 Q1336.93 1475.44 1338.74 1479.01 Q1340.56 1482.55 1344.18 1482.55 Q1347.81 1482.55 1349.61 1479.01 Q1351.44 1475.44 1351.44 1468.33 Q1351.44 1461.2 1349.61 1457.66 Q1347.81 1454.1 1344.18 1454.1 M1344.18 1450.39 Q1349.99 1450.39 1353.04 1455 Q1356.12 1459.58 1356.12 1468.33 Q1356.12 1477.06 1353.04 1481.67 Q1349.99 1486.25 1344.18 1486.25 Q1338.37 1486.25 1335.29 1481.67 Q1332.23 1477.06 1332.23 1468.33 Q1332.23 1459.58 1335.29 1455 Q1338.37 1450.39 1344.18 1450.39 Z" fill="#000000" fill-rule="evenodd" fill-opacity="1" /><path clip-path="url(#clip170)" d="M1374.34 1454.1 Q1370.73 1454.1 1368.9 1457.66 Q1367.09 1461.2 1367.09 1468.33 Q1367.09 1475.44 1368.9 1479.01 Q1370.73 1482.55 1374.34 1482.55 Q1377.97 1482.55 1379.78 1479.01 Q1381.61 1475.44 1381.61 1468.33 Q1381.61 1461.2 1379.78 1457.66 Q1377.97 1454.1 1374.34 1454.1 M1374.34 1450.39 Q1380.15 1450.39 1383.2 1455 Q1386.28 1459.58 1386.28 1468.33 Q1386.28 1477.06 1383.2 1481.67 Q1380.15 1486.25 1374.34 1486.25 Q1368.53 1486.25 1365.45 1481.67 Q1362.39 1477.06 1362.39 1468.33 Q1362.39 1459.58 1365.45 1455 Q1368.53 1450.39 1374.34 1450.39 Z" fill="#000000" fill-rule="evenodd" fill-opacity="1" /><path clip-path="url(#clip170)" d="M1793.84 1466.95 Q1797.2 1467.66 1799.07 1469.93 Q1800.97 1472.2 1800.97 1475.53 Q1800.97 1480.65 1797.45 1483.45 Q1793.93 1486.25 1787.45 1486.25 Q1785.28 1486.25 1782.96 1485.81 Q1780.67 1485.39 1778.22 1484.54 L1778.22 1480.02 Q1780.16 1481.16 1782.48 1481.74 Q1784.79 1482.32 1787.31 1482.32 Q1791.71 1482.32 1794 1480.58 Q1796.32 1478.84 1796.32 1475.53 Q1796.32 1472.48 1794.17 1470.77 Q1792.04 1469.03 1788.22 1469.03 L1784.19 1469.03 L1784.19 1465.19 L1788.4 1465.19 Q1791.85 1465.19 1793.68 1463.82 Q1795.51 1462.43 1795.51 1459.84 Q1795.51 1457.18 1793.61 1455.77 Q1791.74 1454.33 1788.22 1454.33 Q1786.3 1454.33 1784.1 1454.75 Q1781.9 1455.16 1779.26 1456.04 L1779.26 1451.88 Q1781.92 1451.14 1784.24 1450.77 Q1786.57 1450.39 1788.63 1450.39 Q1793.96 1450.39 1797.06 1452.83 Q1800.16 1455.23 1800.16 1459.35 Q1800.16 1462.22 1798.52 1464.21 Q1796.87 1466.18 1793.84 1466.95 Z" fill="#000000" fill-rule="evenodd" fill-opacity="1" /><path clip-path="url(#clip170)" d="M1819.84 1454.1 Q1816.23 1454.1 1814.4 1457.66 Q1812.59 1461.2 1812.59 1468.33 Q1812.59 1475.44 1814.4 1479.01 Q1816.23 1482.55 1819.84 1482.55 Q1823.47 1482.55 1825.28 1479.01 Q1827.11 1475.44 1827.11 1468.33 Q1827.11 1461.2 1825.28 1457.66 Q1823.47 1454.1 1819.84 1454.1 M1819.84 1450.39 Q1825.65 1450.39 1828.7 1455 Q1831.78 1459.58 1831.78 1468.33 Q1831.78 1477.06 1828.7 1481.67 Q1825.65 1486.25 1819.84 1486.25 Q1814.03 1486.25 1810.95 1481.67 Q1807.89 1477.06 1807.89 1468.33 Q1807.89 1459.58 1810.95 1455 Q1814.03 1450.39 1819.84 1450.39 Z" fill="#000000" fill-rule="evenodd" fill-opacity="1" /><path clip-path="url(#clip170)" d="M1850 1454.1 Q1846.39 1454.1 1844.56 1457.66 Q1842.75 1461.2 1842.75 1468.33 Q1842.75 1475.44 1844.56 1479.01 Q1846.39 1482.55 1850 1482.55 Q1853.63 1482.55 1855.44 1479.01 Q1857.27 1475.44 1857.27 1468.33 Q1857.27 1461.2 1855.44 1457.66 Q1853.63 1454.1 1850 1454.1 M1850 1450.39 Q1855.81 1450.39 1858.86 1455 Q1861.94 1459.58 1861.94 1468.33 Q1861.94 1477.06 1858.86 1481.67 Q1855.81 1486.25 1850 1486.25 Q1844.19 1486.25 1841.11 1481.67 Q1838.05 1477.06 1838.05 1468.33 Q1838.05 1459.58 1841.11 1455 Q1844.19 1450.39 1850 1450.39 Z" fill="#000000" fill-rule="evenodd" fill-opacity="1" /><path clip-path="url(#clip170)" d="M2268.9 1455.09 L2257.1 1473.54 L2268.9 1473.54 L2268.9 1455.09 M2267.67 1451.02 L2273.55 1451.02 L2273.55 1473.54 L2278.48 1473.54 L2278.48 1477.43 L2273.55 1477.43 L2273.55 1485.58 L2268.9 1485.58 L2268.9 1477.43 L2253.3 1477.43 L2253.3 1472.92 L2267.67 1451.02 Z" fill="#000000" fill-rule="evenodd" fill-opacity="1" /><path clip-path="url(#clip170)" d="M2296.22 1454.1 Q2292.6 1454.1 2290.78 1457.66 Q2288.97 1461.2 2288.97 1468.33 Q2288.97 1475.44 2290.78 1479.01 Q2292.6 1482.55 2296.22 1482.55 Q2299.85 1482.55 2301.66 1479.01 Q2303.48 1475.44 2303.48 1468.33 Q2303.48 1461.2 2301.66 1457.66 Q2299.85 1454.1 2296.22 1454.1 M2296.22 1450.39 Q2302.03 1450.39 2305.08 1455 Q2308.16 1459.58 2308.16 1468.33 Q2308.16 1477.06 2305.08 1481.67 Q2302.03 1486.25 2296.22 1486.25 Q2290.41 1486.25 2287.33 1481.67 Q2284.27 1477.06 2284.27 1468.33 Q2284.27 1459.58 2287.33 1455 Q2290.41 1450.39 2296.22 1450.39 Z" fill="#000000" fill-rule="evenodd" fill-opacity="1" /><path clip-path="url(#clip170)" d="M2326.38 1454.1 Q2322.77 1454.1 2320.94 1457.66 Q2319.13 1461.2 2319.13 1468.33 Q2319.13 1475.44 2320.94 1479.01 Q2322.77 1482.55 2326.38 1482.55 Q2330.01 1482.55 2331.82 1479.01 Q2333.65 1475.44 2333.65 1468.33 Q2333.65 1461.2 2331.82 1457.66 Q2330.01 1454.1 2326.38 1454.1 M2326.38 1450.39 Q2332.19 1450.39 2335.24 1455 Q2338.32 1459.58 2338.32 1468.33 Q2338.32 1477.06 2335.24 1481.67 Q2332.19 1486.25 2326.38 1486.25 Q2320.57 1486.25 2317.49 1481.67 Q2314.43 1477.06 2314.43 1468.33 Q2314.43 1459.58 2317.49 1455 Q2320.57 1450.39 2326.38 1450.39 Z" fill="#000000" fill-rule="evenodd" fill-opacity="1" /><path clip-path="url(#clip170)" d="M1299.19 1537.81 L1299.19 1518.52 L1305.05 1518.52 L1305.05 1568.04 L1299.19 1568.04 L1299.19 1562.7 Q1297.35 1565.88 1294.51 1567.44 Q1291.71 1568.97 1287.77 1568.97 Q1281.3 1568.97 1277.23 1563.81 Q1273.19 1558.65 1273.19 1550.25 Q1273.19 1541.85 1277.23 1536.69 Q1281.3 1531.54 1287.77 1531.54 Q1291.71 1531.54 1294.51 1533.1 Q1297.35 1534.62 1299.19 1537.81 M1279.24 1550.25 Q1279.24 1556.71 1281.88 1560.4 Q1284.55 1564.07 1289.2 1564.07 Q1293.84 1564.07 1296.52 1560.4 Q1299.19 1556.71 1299.19 1550.25 Q1299.19 1543.79 1296.52 1540.13 Q1293.84 1536.44 1289.2 1536.44 Q1284.55 1536.44 1281.88 1540.13 Q1279.24 1543.79 1279.24 1550.25 Z" fill="#000000" fill-rule="evenodd" fill-opacity="1" /><path clip-path="url(#clip170)" d="M1333.31 1550.12 Q1326.21 1550.12 1323.48 1551.75 Q1320.74 1553.37 1320.74 1557.29 Q1320.74 1560.4 1322.78 1562.25 Q1324.85 1564.07 1328.38 1564.07 Q1333.25 1564.07 1336.18 1560.63 Q1339.14 1557.16 1339.14 1551.43 L1339.14 1550.12 L1333.31 1550.12 M1344.99 1547.71 L1344.99 1568.04 L1339.14 1568.04 L1339.14 1562.63 Q1337.13 1565.88 1334.14 1567.44 Q1331.15 1568.97 1326.82 1568.97 Q1321.34 1568.97 1318.1 1565.91 Q1314.88 1562.82 1314.88 1557.67 Q1314.88 1551.65 1318.89 1548.6 Q1322.94 1545.54 1330.92 1545.54 L1339.14 1545.54 L1339.14 1544.97 Q1339.14 1540.93 1336.46 1538.73 Q1333.82 1536.5 1329.01 1536.5 Q1325.96 1536.5 1323.06 1537.23 Q1320.17 1537.97 1317.49 1539.43 L1317.49 1534.02 Q1320.71 1532.78 1323.73 1532.17 Q1326.76 1531.54 1329.62 1531.54 Q1337.35 1531.54 1341.17 1535.55 Q1344.99 1539.56 1344.99 1547.71 Z" fill="#000000" fill-rule="evenodd" fill-opacity="1" /><path clip-path="url(#clip170)" d="M1371.89 1571.35 Q1369.41 1577.72 1367.05 1579.66 Q1364.69 1581.6 1360.75 1581.6 L1356.07 1581.6 L1356.07 1576.7 L1359.51 1576.7 Q1361.93 1576.7 1363.26 1575.56 Q1364.6 1574.41 1366.22 1570.14 L1367.27 1567.47 L1352.85 1532.4 L1359.06 1532.4 L1370.2 1560.28 L1381.34 1532.4 L1387.55 1532.4 L1371.89 1571.35 Z" fill="#000000" fill-rule="evenodd" fill-opacity="1" /><path clip-path="url(#clip170)" d="M1418.36 1533.45 L1418.36 1538.98 Q1415.87 1537.71 1413.2 1537.07 Q1410.53 1536.44 1407.66 1536.44 Q1403.3 1536.44 1401.11 1537.77 Q1398.94 1539.11 1398.94 1541.79 Q1398.94 1543.82 1400.5 1545 Q1402.06 1546.15 1406.77 1547.2 L1408.78 1547.64 Q1415.02 1548.98 1417.63 1551.43 Q1420.27 1553.85 1420.27 1558.21 Q1420.27 1563.17 1416.32 1566.07 Q1412.41 1568.97 1405.53 1568.97 Q1402.67 1568.97 1399.55 1568.39 Q1396.46 1567.85 1393.02 1566.74 L1393.02 1560.69 Q1396.27 1562.38 1399.42 1563.24 Q1402.57 1564.07 1405.66 1564.07 Q1409.8 1564.07 1412.02 1562.66 Q1414.25 1561.23 1414.25 1558.65 Q1414.25 1556.27 1412.63 1554.99 Q1411.04 1553.72 1405.59 1552.54 L1403.56 1552.07 Q1398.11 1550.92 1395.7 1548.56 Q1393.28 1546.18 1393.28 1542.04 Q1393.28 1537.01 1396.84 1534.27 Q1400.41 1531.54 1406.96 1531.54 Q1410.21 1531.54 1413.07 1532.01 Q1415.94 1532.49 1418.36 1533.45 Z" fill="#000000" fill-rule="evenodd" fill-opacity="1" /><polyline clip-path="url(#clip172)" style="stroke:#000000; stroke-linecap:butt; stroke-linejoin:round; stroke-width:2; stroke-opacity:0.1; fill:none" points="
  340.699,1384.24 2352.76,1384.24 
  "/>
<polyline clip-path="url(#clip172)" style="stroke:#000000; stroke-linecap:butt; stroke-linejoin:round; stroke-width:2; stroke-opacity:0.1; fill:none" points="
  340.699,1059.6 2352.76,1059.6 
  "/>
<polyline clip-path="url(#clip172)" style="stroke:#000000; stroke-linecap:butt; stroke-linejoin:round; stroke-width:2; stroke-opacity:0.1; fill:none" points="
  340.699,734.968 2352.76,734.968 
  "/>
<polyline clip-path="url(#clip172)" style="stroke:#000000; stroke-linecap:butt; stroke-linejoin:round; stroke-width:2; stroke-opacity:0.1; fill:none" points="
  340.699,410.334 2352.76,410.334 
  "/>
<polyline clip-path="url(#clip172)" style="stroke:#000000; stroke-linecap:butt; stroke-linejoin:round; stroke-width:2; stroke-opacity:0.1; fill:none" points="
  340.699,85.6987 2352.76,85.6987 
  "/>
<polyline clip-path="url(#clip170)" style="stroke:#000000; stroke-linecap:butt; stroke-linejoin:round; stroke-width:4; stroke-opacity:1; fill:none" points="
  340.699,1423.18 340.699,47.2441 
  "/>
<polyline clip-path="url(#clip170)" style="stroke:#000000; stroke-linecap:butt; stroke-linejoin:round; stroke-width:4; stroke-opacity:1; fill:none" points="
  340.699,1384.24 359.597,1384.24 
  "/>
<polyline clip-path="url(#clip170)" style="stroke:#000000; stroke-linecap:butt; stroke-linejoin:round; stroke-width:4; stroke-opacity:1; fill:none" points="
  340.699,1059.6 359.597,1059.6 
  "/>
<polyline clip-path="url(#clip170)" style="stroke:#000000; stroke-linecap:butt; stroke-linejoin:round; stroke-width:4; stroke-opacity:1; fill:none" points="
  340.699,734.968 359.597,734.968 
  "/>
<polyline clip-path="url(#clip170)" style="stroke:#000000; stroke-linecap:butt; stroke-linejoin:round; stroke-width:4; stroke-opacity:1; fill:none" points="
  340.699,410.334 359.597,410.334 
  "/>
<polyline clip-path="url(#clip170)" style="stroke:#000000; stroke-linecap:butt; stroke-linejoin:round; stroke-width:4; stroke-opacity:1; fill:none" points="
  340.699,85.6987 359.597,85.6987 
  "/>
<path clip-path="url(#clip170)" d="M292.755 1370.04 Q289.143 1370.04 287.315 1373.6 Q285.509 1377.14 285.509 1384.27 Q285.509 1391.38 287.315 1394.94 Q289.143 1398.49 292.755 1398.49 Q296.389 1398.49 298.194 1394.94 Q300.023 1391.38 300.023 1384.27 Q300.023 1377.14 298.194 1373.6 Q296.389 1370.04 292.755 1370.04 M292.755 1366.33 Q298.565 1366.33 301.62 1370.94 Q304.699 1375.52 304.699 1384.27 Q304.699 1393 301.62 1397.61 Q298.565 1402.19 292.755 1402.19 Q286.944 1402.19 283.866 1397.61 Q280.81 1393 280.81 1384.27 Q280.81 1375.52 283.866 1370.94 Q286.944 1366.33 292.755 1366.33 Z" fill="#000000" fill-rule="evenodd" fill-opacity="1" /><path clip-path="url(#clip170)" d="M117.825 1079.4 L125.464 1079.4 L125.464 1053.03 L117.154 1054.7 L117.154 1050.44 L125.418 1048.77 L130.093 1048.77 L130.093 1079.4 L137.732 1079.4 L137.732 1083.33 L117.825 1083.33 L117.825 1079.4 Z" fill="#000000" fill-rule="evenodd" fill-opacity="1" /><path clip-path="url(#clip170)" d="M147.177 1077.45 L152.061 1077.45 L152.061 1083.33 L147.177 1083.33 L147.177 1077.45 Z" fill="#000000" fill-rule="evenodd" fill-opacity="1" /><path clip-path="url(#clip170)" d="M172.246 1051.85 Q168.635 1051.85 166.806 1055.41 Q165.001 1058.96 165.001 1066.09 Q165.001 1073.19 166.806 1076.76 Q168.635 1080.3 172.246 1080.3 Q175.88 1080.3 177.686 1076.76 Q179.514 1073.19 179.514 1066.09 Q179.514 1058.96 177.686 1055.41 Q175.88 1051.85 172.246 1051.85 M172.246 1048.15 Q178.056 1048.15 181.112 1052.75 Q184.19 1057.34 184.19 1066.09 Q184.19 1074.81 181.112 1079.42 Q178.056 1084 172.246 1084 Q166.436 1084 163.357 1079.42 Q160.302 1074.81 160.302 1066.09 Q160.302 1057.34 163.357 1052.75 Q166.436 1048.15 172.246 1048.15 Z" fill="#000000" fill-rule="evenodd" fill-opacity="1" /><path clip-path="url(#clip170)" d="M220.579 1057.87 L210 1068.49 L220.579 1079.07 L217.824 1081.87 L207.199 1071.25 L196.575 1081.87 L193.843 1079.07 L204.399 1068.49 L193.843 1057.87 L196.575 1055.07 L207.199 1065.69 L217.824 1055.07 L220.579 1057.87 Z" fill="#000000" fill-rule="evenodd" fill-opacity="1" /><path clip-path="url(#clip170)" d="M232.94 1079.4 L240.579 1079.4 L240.579 1053.03 L232.269 1054.7 L232.269 1050.44 L240.533 1048.77 L245.209 1048.77 L245.209 1079.4 L252.847 1079.4 L252.847 1083.33 L232.94 1083.33 L232.94 1079.4 Z" fill="#000000" fill-rule="evenodd" fill-opacity="1" /><path clip-path="url(#clip170)" d="M272.292 1051.85 Q268.681 1051.85 266.852 1055.41 Q265.046 1058.96 265.046 1066.09 Q265.046 1073.19 266.852 1076.76 Q268.681 1080.3 272.292 1080.3 Q275.926 1080.3 277.732 1076.76 Q279.56 1073.19 279.56 1066.09 Q279.56 1058.96 277.732 1055.41 Q275.926 1051.85 272.292 1051.85 M272.292 1048.15 Q278.102 1048.15 281.157 1052.75 Q284.236 1057.34 284.236 1066.09 Q284.236 1074.81 281.157 1079.42 Q278.102 1084 272.292 1084 Q266.482 1084 263.403 1079.42 Q260.347 1074.81 260.347 1066.09 Q260.347 1057.34 263.403 1052.75 Q266.482 1048.15 272.292 1048.15 Z" fill="#000000" fill-rule="evenodd" fill-opacity="1" /><path clip-path="url(#clip170)" d="M296.913 1031.15 L287.321 1046.14 L296.913 1046.14 L296.913 1031.15 M295.916 1027.84 L300.693 1027.84 L300.693 1046.14 L304.699 1046.14 L304.699 1049.3 L300.693 1049.3 L300.693 1055.92 L296.913 1055.92 L296.913 1049.3 L284.236 1049.3 L284.236 1045.63 L295.916 1027.84 Z" fill="#000000" fill-rule="evenodd" fill-opacity="1" /><path clip-path="url(#clip170)" d="M121.043 754.761 L137.362 754.761 L137.362 758.696 L115.418 758.696 L115.418 754.761 Q118.08 752.006 122.663 747.377 Q127.269 742.724 128.45 741.381 Q130.695 738.858 131.575 737.122 Q132.478 735.363 132.478 733.673 Q132.478 730.918 130.533 729.182 Q128.612 727.446 125.51 727.446 Q123.311 727.446 120.857 728.21 Q118.427 728.974 115.649 730.525 L115.649 725.803 Q118.473 724.668 120.927 724.09 Q123.38 723.511 125.418 723.511 Q130.788 723.511 133.982 726.196 Q137.177 728.881 137.177 733.372 Q137.177 735.502 136.367 737.423 Q135.579 739.321 133.473 741.914 Q132.894 742.585 129.792 745.803 Q126.691 748.997 121.043 754.761 Z" fill="#000000" fill-rule="evenodd" fill-opacity="1" /><path clip-path="url(#clip170)" d="M147.177 752.816 L152.061 752.816 L152.061 758.696 L147.177 758.696 L147.177 752.816 Z" fill="#000000" fill-rule="evenodd" fill-opacity="1" /><path clip-path="url(#clip170)" d="M172.246 727.215 Q168.635 727.215 166.806 730.78 Q165.001 734.321 165.001 741.451 Q165.001 748.557 166.806 752.122 Q168.635 755.664 172.246 755.664 Q175.88 755.664 177.686 752.122 Q179.514 748.557 179.514 741.451 Q179.514 734.321 177.686 730.78 Q175.88 727.215 172.246 727.215 M172.246 723.511 Q178.056 723.511 181.112 728.118 Q184.19 732.701 184.19 741.451 Q184.19 750.178 181.112 754.784 Q178.056 759.367 172.246 759.367 Q166.436 759.367 163.357 754.784 Q160.302 750.178 160.302 741.451 Q160.302 732.701 163.357 728.118 Q166.436 723.511 172.246 723.511 Z" fill="#000000" fill-rule="evenodd" fill-opacity="1" /><path clip-path="url(#clip170)" d="M220.579 733.233 L210 743.858 L220.579 754.437 L217.824 757.238 L207.199 746.613 L196.575 757.238 L193.843 754.437 L204.399 743.858 L193.843 733.233 L196.575 730.432 L207.199 741.057 L217.824 730.432 L220.579 733.233 Z" fill="#000000" fill-rule="evenodd" fill-opacity="1" /><path clip-path="url(#clip170)" d="M232.94 754.761 L240.579 754.761 L240.579 728.395 L232.269 730.062 L232.269 725.803 L240.533 724.136 L245.209 724.136 L245.209 754.761 L252.847 754.761 L252.847 758.696 L232.94 758.696 L232.94 754.761 Z" fill="#000000" fill-rule="evenodd" fill-opacity="1" /><path clip-path="url(#clip170)" d="M272.292 727.215 Q268.681 727.215 266.852 730.78 Q265.046 734.321 265.046 741.451 Q265.046 748.557 266.852 752.122 Q268.681 755.664 272.292 755.664 Q275.926 755.664 277.732 752.122 Q279.56 748.557 279.56 741.451 Q279.56 734.321 277.732 730.78 Q275.926 727.215 272.292 727.215 M272.292 723.511 Q278.102 723.511 281.157 728.118 Q284.236 732.701 284.236 741.451 Q284.236 750.178 281.157 754.784 Q278.102 759.367 272.292 759.367 Q266.482 759.367 263.403 754.784 Q260.347 750.178 260.347 741.451 Q260.347 732.701 263.403 728.118 Q266.482 723.511 272.292 723.511 Z" fill="#000000" fill-rule="evenodd" fill-opacity="1" /><path clip-path="url(#clip170)" d="M296.913 706.516 L287.321 721.506 L296.913 721.506 L296.913 706.516 M295.916 703.206 L300.693 703.206 L300.693 721.506 L304.699 721.506 L304.699 724.665 L300.693 724.665 L300.693 731.286 L296.913 731.286 L296.913 724.665 L284.236 724.665 L284.236 720.998 L295.916 703.206 Z" fill="#000000" fill-rule="evenodd" fill-opacity="1" /><path clip-path="url(#clip170)" d="M131.181 415.427 Q134.538 416.145 136.413 418.413 Q138.311 420.682 138.311 424.015 Q138.311 429.131 134.792 431.932 Q131.274 434.732 124.793 434.732 Q122.617 434.732 120.302 434.293 Q118.01 433.876 115.556 433.02 L115.556 428.506 Q117.501 429.64 119.816 430.219 Q122.13 430.797 124.654 430.797 Q129.052 430.797 131.343 429.061 Q133.658 427.325 133.658 424.015 Q133.658 420.959 131.505 419.246 Q129.376 417.51 125.556 417.51 L121.529 417.51 L121.529 413.668 L125.742 413.668 Q129.191 413.668 131.019 412.302 Q132.848 410.913 132.848 408.321 Q132.848 405.659 130.95 404.247 Q129.075 402.811 125.556 402.811 Q123.635 402.811 121.436 403.228 Q119.237 403.645 116.598 404.524 L116.598 400.358 Q119.26 399.617 121.575 399.247 Q123.913 398.876 125.973 398.876 Q131.297 398.876 134.399 401.307 Q137.501 403.714 137.501 407.834 Q137.501 410.705 135.857 412.696 Q134.214 414.663 131.181 415.427 Z" fill="#000000" fill-rule="evenodd" fill-opacity="1" /><path clip-path="url(#clip170)" d="M147.177 428.182 L152.061 428.182 L152.061 434.061 L147.177 434.061 L147.177 428.182 Z" fill="#000000" fill-rule="evenodd" fill-opacity="1" /><path clip-path="url(#clip170)" d="M172.246 402.58 Q168.635 402.58 166.806 406.145 Q165.001 409.686 165.001 416.816 Q165.001 423.922 166.806 427.487 Q168.635 431.029 172.246 431.029 Q175.88 431.029 177.686 427.487 Q179.514 423.922 179.514 416.816 Q179.514 409.686 177.686 406.145 Q175.88 402.58 172.246 402.58 M172.246 398.876 Q178.056 398.876 181.112 403.483 Q184.19 408.066 184.19 416.816 Q184.19 425.543 181.112 430.149 Q178.056 434.732 172.246 434.732 Q166.436 434.732 163.357 430.149 Q160.302 425.543 160.302 416.816 Q160.302 408.066 163.357 403.483 Q166.436 398.876 172.246 398.876 Z" fill="#000000" fill-rule="evenodd" fill-opacity="1" /><path clip-path="url(#clip170)" d="M220.579 408.598 L210 419.223 L220.579 429.802 L217.824 432.603 L207.199 421.978 L196.575 432.603 L193.843 429.802 L204.399 419.223 L193.843 408.598 L196.575 405.797 L207.199 416.422 L217.824 405.797 L220.579 408.598 Z" fill="#000000" fill-rule="evenodd" fill-opacity="1" /><path clip-path="url(#clip170)" d="M232.94 430.126 L240.579 430.126 L240.579 403.76 L232.269 405.427 L232.269 401.168 L240.533 399.501 L245.209 399.501 L245.209 430.126 L252.847 430.126 L252.847 434.061 L232.94 434.061 L232.94 430.126 Z" fill="#000000" fill-rule="evenodd" fill-opacity="1" /><path clip-path="url(#clip170)" d="M272.292 402.58 Q268.681 402.58 266.852 406.145 Q265.046 409.686 265.046 416.816 Q265.046 423.922 266.852 427.487 Q268.681 431.029 272.292 431.029 Q275.926 431.029 277.732 427.487 Q279.56 423.922 279.56 416.816 Q279.56 409.686 277.732 406.145 Q275.926 402.58 272.292 402.58 M272.292 398.876 Q278.102 398.876 281.157 403.483 Q284.236 408.066 284.236 416.816 Q284.236 425.543 281.157 430.149 Q278.102 434.732 272.292 434.732 Q266.482 434.732 263.403 430.149 Q260.347 425.543 260.347 416.816 Q260.347 408.066 263.403 403.483 Q266.482 398.876 272.292 398.876 Z" fill="#000000" fill-rule="evenodd" fill-opacity="1" /><path clip-path="url(#clip170)" d="M296.913 381.881 L287.321 396.871 L296.913 396.871 L296.913 381.881 M295.916 378.571 L300.693 378.571 L300.693 396.871 L304.699 396.871 L304.699 400.03 L300.693 400.03 L300.693 406.651 L296.913 406.651 L296.913 400.03 L284.236 400.03 L284.236 396.363 L295.916 378.571 Z" fill="#000000" fill-rule="evenodd" fill-opacity="1" /><path clip-path="url(#clip170)" d="M129.862 78.9404 L118.056 97.3893 L129.862 97.3893 L129.862 78.9404 M128.635 74.8663 L134.515 74.8663 L134.515 97.3893 L139.445 97.3893 L139.445 101.278 L134.515 101.278 L134.515 109.426 L129.862 109.426 L129.862 101.278 L114.26 101.278 L114.26 96.7644 L128.635 74.8663 Z" fill="#000000" fill-rule="evenodd" fill-opacity="1" /><path clip-path="url(#clip170)" d="M147.177 103.547 L152.061 103.547 L152.061 109.426 L147.177 109.426 L147.177 103.547 Z" fill="#000000" fill-rule="evenodd" fill-opacity="1" /><path clip-path="url(#clip170)" d="M172.246 77.945 Q168.635 77.945 166.806 81.5098 Q165.001 85.0515 165.001 92.181 Q165.001 99.2875 166.806 102.852 Q168.635 106.394 172.246 106.394 Q175.88 106.394 177.686 102.852 Q179.514 99.2875 179.514 92.181 Q179.514 85.0515 177.686 81.5098 Q175.88 77.945 172.246 77.945 M172.246 74.2413 Q178.056 74.2413 181.112 78.8478 Q184.19 83.4311 184.19 92.181 Q184.19 100.908 181.112 105.514 Q178.056 110.098 172.246 110.098 Q166.436 110.098 163.357 105.514 Q160.302 100.908 160.302 92.181 Q160.302 83.4311 163.357 78.8478 Q166.436 74.2413 172.246 74.2413 Z" fill="#000000" fill-rule="evenodd" fill-opacity="1" /><path clip-path="url(#clip170)" d="M220.579 83.9635 L210 94.5884 L220.579 105.167 L217.824 107.968 L207.199 97.3431 L196.575 107.968 L193.843 105.167 L204.399 94.5884 L193.843 83.9635 L196.575 81.1626 L207.199 91.7875 L217.824 81.1626 L220.579 83.9635 Z" fill="#000000" fill-rule="evenodd" fill-opacity="1" /><path clip-path="url(#clip170)" d="M232.94 105.491 L240.579 105.491 L240.579 79.1256 L232.269 80.7922 L232.269 76.533 L240.533 74.8663 L245.209 74.8663 L245.209 105.491 L252.847 105.491 L252.847 109.426 L232.94 109.426 L232.94 105.491 Z" fill="#000000" fill-rule="evenodd" fill-opacity="1" /><path clip-path="url(#clip170)" d="M272.292 77.945 Q268.681 77.945 266.852 81.5098 Q265.046 85.0515 265.046 92.181 Q265.046 99.2875 266.852 102.852 Q268.681 106.394 272.292 106.394 Q275.926 106.394 277.732 102.852 Q279.56 99.2875 279.56 92.181 Q279.56 85.0515 277.732 81.5098 Q275.926 77.945 272.292 77.945 M272.292 74.2413 Q278.102 74.2413 281.157 78.8478 Q284.236 83.4311 284.236 92.181 Q284.236 100.908 281.157 105.514 Q278.102 110.098 272.292 110.098 Q266.482 110.098 263.403 105.514 Q260.347 100.908 260.347 92.181 Q260.347 83.4311 263.403 78.8478 Q266.482 74.2413 272.292 74.2413 Z" fill="#000000" fill-rule="evenodd" fill-opacity="1" /><path clip-path="url(#clip170)" d="M296.913 57.2461 L287.321 72.2359 L296.913 72.2359 L296.913 57.2461 M295.916 53.9359 L300.693 53.9359 L300.693 72.2359 L304.699 72.2359 L304.699 75.3956 L300.693 75.3956 L300.693 82.0159 L296.913 82.0159 L296.913 75.3956 L284.236 75.3956 L284.236 71.7281 L295.916 53.9359 Z" fill="#000000" fill-rule="evenodd" fill-opacity="1" /><path clip-path="url(#clip170)" d="M29.7248 795.527 L35.1993 795.527 Q33.8307 798.01 33.1623 800.524 Q32.4621 803.007 32.4621 805.553 Q32.4621 811.25 36.0905 814.401 Q39.6872 817.552 46.212 817.552 Q52.7369 817.552 56.3653 814.401 Q59.9619 811.25 59.9619 805.553 Q59.9619 803.007 59.2935 800.524 Q58.5933 798.01 57.2247 795.527 L62.6355 795.527 Q63.7814 797.978 64.3543 800.62 Q64.9272 803.23 64.9272 806.19 Q64.9272 814.242 59.8664 818.985 Q54.8057 823.727 46.212 823.727 Q37.491 823.727 32.4939 818.953 Q27.4968 814.147 27.4968 805.808 Q27.4968 803.102 28.0697 800.524 Q28.6108 797.946 29.7248 795.527 Z" fill="#000000" fill-rule="evenodd" fill-opacity="1" /><path clip-path="url(#clip170)" d="M46.0847 769.141 Q46.0847 776.239 47.7079 778.976 Q49.3312 781.713 53.2461 781.713 Q56.3653 781.713 58.2114 779.676 Q60.0256 777.608 60.0256 774.075 Q60.0256 769.205 56.5881 766.277 Q53.1188 763.317 47.3897 763.317 L46.0847 763.317 L46.0847 769.141 M43.6657 757.46 L64.0042 757.46 L64.0042 763.317 L58.5933 763.317 Q61.8398 765.322 63.3994 768.314 Q64.9272 771.306 64.9272 775.634 Q64.9272 781.109 61.8716 784.355 Q58.7843 787.57 53.6281 787.57 Q47.6125 787.57 44.5569 783.56 Q41.5014 779.517 41.5014 771.528 L41.5014 763.317 L40.9285 763.317 Q36.8862 763.317 34.6901 765.99 Q32.4621 768.632 32.4621 773.438 Q32.4621 776.494 33.1941 779.39 Q33.9262 782.286 35.3903 784.96 L29.9795 784.96 Q28.7381 781.745 28.1334 778.722 Q27.4968 775.698 27.4968 772.833 Q27.4968 765.099 31.5072 761.28 Q35.5176 757.46 43.6657 757.46 Z" fill="#000000" fill-rule="evenodd" fill-opacity="1" /><path clip-path="url(#clip170)" d="M29.4065 722.672 L34.9447 722.672 Q33.6716 725.154 33.035 727.828 Q32.3984 730.501 32.3984 733.366 Q32.3984 737.726 33.7352 739.923 Q35.072 742.087 37.7456 742.087 Q39.7826 742.087 40.9603 740.527 Q42.1061 738.968 43.1565 734.257 L43.6021 732.252 Q44.9389 726.014 47.3897 723.404 Q49.8086 720.762 54.1691 720.762 Q59.1344 720.762 62.0308 724.709 Q64.9272 728.623 64.9272 735.498 Q64.9272 738.363 64.3543 741.482 Q63.8132 744.57 62.6992 748.007 L56.6518 748.007 Q58.3387 744.761 59.198 741.61 Q60.0256 738.458 60.0256 735.371 Q60.0256 731.233 58.6251 729.005 Q57.1929 726.777 54.6147 726.777 Q52.2276 726.777 50.9545 728.401 Q49.6813 729.992 48.5037 735.435 L48.0262 737.472 Q46.8804 742.914 44.5251 745.333 Q42.138 747.752 38.0002 747.752 Q32.9713 747.752 30.2341 744.188 Q27.4968 740.623 27.4968 734.066 Q27.4968 730.82 27.9743 727.955 Q28.4517 725.09 29.4065 722.672 Z" fill="#000000" fill-rule="evenodd" fill-opacity="1" /><path clip-path="url(#clip170)" d="M44.7161 680.944 L47.5806 680.944 L47.5806 707.871 Q53.6281 707.489 56.8109 704.243 Q59.9619 700.964 59.9619 695.14 Q59.9619 691.766 59.1344 688.615 Q58.3069 685.432 56.6518 682.313 L62.1899 682.313 Q63.5267 685.464 64.227 688.774 Q64.9272 692.084 64.9272 695.49 Q64.9272 704.02 59.9619 709.017 Q54.9967 713.982 46.5303 713.982 Q37.7774 713.982 32.6531 709.272 Q27.4968 704.529 27.4968 696.508 Q27.4968 689.315 32.1438 685.146 Q36.7589 680.944 44.7161 680.944 M42.9973 686.801 Q38.1912 686.864 35.3266 689.506 Q32.4621 692.116 32.4621 696.445 Q32.4621 701.346 35.2312 704.306 Q38.0002 707.235 43.0292 707.68 L42.9973 686.801 Z" fill="#000000" fill-rule="evenodd" fill-opacity="1" /><path clip-path="url(#clip170)" d="M29.4065 648.607 L34.9447 648.607 Q33.6716 651.089 33.035 653.763 Q32.3984 656.436 32.3984 659.301 Q32.3984 663.661 33.7352 665.858 Q35.072 668.022 37.7456 668.022 Q39.7826 668.022 40.9603 666.462 Q42.1061 664.903 43.1565 660.192 L43.6021 658.187 Q44.9389 651.949 47.3897 649.339 Q49.8086 646.697 54.1691 646.697 Q59.1344 646.697 62.0308 650.644 Q64.9272 654.558 64.9272 661.433 Q64.9272 664.298 64.3543 667.417 Q63.8132 670.505 62.6992 673.942 L56.6518 673.942 Q58.3387 670.696 59.198 667.545 Q60.0256 664.393 60.0256 661.306 Q60.0256 657.168 58.6251 654.94 Q57.1929 652.712 54.6147 652.712 Q52.2276 652.712 50.9545 654.336 Q49.6813 655.927 48.5037 661.37 L48.0262 663.407 Q46.8804 668.849 44.5251 671.268 Q42.138 673.687 38.0002 673.687 Q32.9713 673.687 30.2341 670.123 Q27.4968 666.558 27.4968 660.001 Q27.4968 656.755 27.9743 653.89 Q28.4517 651.025 29.4065 648.607 Z" fill="#000000" fill-rule="evenodd" fill-opacity="1" /><polyline clip-path="url(#clip172)" style="stroke:#009af9; stroke-linecap:butt; stroke-linejoin:round; stroke-width:4; stroke-opacity:1; fill:none" points="
  397.644,86.1857 402.401,86.4778 407.159,86.8999 411.916,87.5816 416.673,88.1659 421.431,89.0749 426.188,90.2111 430.945,91.185 435.702,92.8732 440.46,94.5937 
  445.217,96.5091 449.974,99.0088 454.732,101.671 459.489,104.592 464.246,107.741 469.004,110.728 473.761,114.559 478.518,118.519 483.276,122.999 488.033,127.479 
  492.79,132.673 497.547,138.322 502.305,143.289 507.062,148.873 511.819,154.911 516.577,161.923 521.334,169.812 526.091,177.733 530.849,186.336 535.606,195.231 
  540.363,203.833 545.121,212.079 549.878,221.623 554.635,231.005 559.393,239.933 564.15,250.321 568.907,260.742 573.664,270.448 578.422,281.032 583.179,292.199 
  587.936,303.561 592.694,315.345 597.451,326.708 602.208,337.94 606.966,350.244 611.723,362.775 616.48,375.435 621.238,389.005 625.995,401.633 630.752,413.58 
  635.509,427.085 640.267,440.297 645.024,454.159 649.781,468.151 654.539,480.974 659.296,494.739 664.053,507.464 668.811,520.612 673.568,536.032 678.325,550.511 
  683.083,564.957 687.84,578.462 692.597,593.947 697.355,609.075 702.112,624.333 706.869,640.305 711.626,654.621 716.384,668.808 721.141,684.163 725.898,699.356 
  730.656,714.581 735.413,730.196 740.17,746.298 744.928,760.745 749.685,776.132 754.442,792.591 759.2,807.589 763.957,822.1 768.714,836.287 773.471,850.311 
  778.229,865.634 782.986,879.658 787.743,893.553 792.501,907.187 797.258,920.757 802.015,934.911 806.773,948.741 811.53,961.791 816.287,975.068 821.045,987.924 
  825.802,999.319 830.559,1013.21 835.317,1024.9 840.074,1036.03 844.831,1046.59 849.588,1057.53 854.346,1068.5 859.103,1079.8 863.86,1089.4 868.618,1099.31 
  873.375,1108.01 878.132,1116.19 882.89,1123.78 887.647,1132.22 892.404,1140.83 897.162,1148.85 901.919,1157.64 906.676,1164.98 911.434,1172.06 916.191,1179.78 
  920.948,1186.63 925.705,1194.29 930.463,1201.7 935.22,1209.42 939.977,1215.07 944.735,1221.53 949.492,1228.28 954.249,1233.35 959.007,1240.36 963.764,1247.27 
  968.521,1254.03 973.279,1260.55 978.036,1266.33 982.793,1271.75 987.55,1277.37 992.308,1282.37 997.065,1285.48 1001.82,1289.77 1006.58,1294.8 1011.34,1298.63 
  1016.09,1303.86 1020.85,1307.04 1025.61,1310.61 1030.37,1313.57 1035.12,1317.07 1039.88,1319.93 1044.64,1323.86 1049.4,1327.65 1054.15,1330.45 1058.91,1333.4 
  1063.67,1335.41 1068.42,1338.82 1073.18,1341.22 1077.94,1342.78 1082.7,1345.15 1087.45,1347.81 1092.21,1350.35 1096.97,1353.66 1101.73,1355.74 1106.48,1358.24 
  1111.24,1359.83 1116,1360.83 1120.76,1361.94 1125.51,1363.27 1130.27,1364.37 1135.03,1365.44 1139.78,1366.12 1144.54,1367.49 1149.3,1368.66 1154.06,1369.73 
  1158.81,1370.31 1163.57,1371.09 1168.33,1370.8 1173.09,1371.51 1177.84,1371.61 1182.6,1372.81 1187.36,1373.04 1192.11,1373.3 1196.87,1373.91 1201.63,1374.76 
  1206.39,1374.76 1211.14,1374.69 1215.9,1374.47 1220.66,1374.66 1225.42,1375.08 1230.17,1374.95 1234.93,1374.92 1239.69,1374.99 1244.45,1374.53 1249.2,1374.69 
  1253.96,1374.53 1258.72,1374.56 1263.47,1374.69 1268.23,1374.86 1272.99,1374.34 1277.75,1374.27 1282.5,1374.5 1287.26,1374.66 1292.02,1374.66 1296.78,1374.43 
  1301.53,1374.08 1306.29,1374.37 1311.05,1374.66 1315.8,1375.12 1320.56,1375.54 1325.32,1375.44 1330.08,1375.28 1334.83,1375.28 1339.59,1375.31 1344.35,1375.18 
  1349.11,1374.92 1353.86,1374.24 1358.62,1374.43 1363.38,1374.79 1368.14,1375.15 1372.89,1374.95 1377.65,1375.12 1382.41,1375.08 1387.16,1374.53 1391.92,1374.82 
  1396.68,1375.44 1401.44,1375.12 1406.19,1374.69 1410.95,1374.69 1415.71,1374.63 1420.47,1374.5 1425.22,1374.34 1429.98,1374.5 1434.74,1374.11 1439.49,1374.53 
  1444.25,1373.95 1449.01,1374.53 1453.77,1374.69 1458.52,1375.64 1463.28,1375.08 1468.04,1374.63 1472.8,1374.43 1477.55,1374.11 1482.31,1374.3 1487.07,1374.43 
  1491.83,1374.92 1496.58,1375.02 1501.34,1374.95 1506.1,1373.95 1510.85,1374.21 1515.61,1374.37 1520.37,1373.98 1525.13,1373.14 1529.88,1372.71 1534.64,1373.1 
  1539.4,1373.79 1544.16,1373.72 1548.91,1373.33 1553.67,1373.72 1558.43,1374.89 1563.19,1375.08 1567.94,1374.43 1572.7,1375.12 1577.46,1374.89 1582.21,1375.15 
  1586.97,1374.79 1591.73,1374.95 1596.49,1374.95 1601.24,1375.05 1606,1374.73 1610.76,1374.99 1615.52,1375.6 1620.27,1375.15 1625.03,1375.41 1629.79,1375.51 
  1634.54,1375.7 1639.3,1375.28 1644.06,1375.05 1648.82,1375.34 1653.57,1375.12 1658.33,1375.44 1663.09,1375.12 1667.85,1374.89 1672.6,1375.02 1677.36,1374.89 
  1682.12,1374.89 1686.88,1374.37 1691.63,1374.37 1696.39,1374.21 1701.15,1373.98 1705.9,1373.91 1710.66,1373.79 1715.42,1373.85 1720.18,1373.01 1724.93,1373.07 
  1729.69,1372.97 1734.45,1373.33 1739.21,1373.49 1743.96,1374.11 1748.72,1374.53 1753.48,1374.86 1758.23,1374.6 1762.99,1374.08 1767.75,1373.72 1772.51,1374.04 
  1777.26,1374.5 1782.02,1374.14 1786.78,1374.14 1791.54,1373.98 1796.29,1373.98 1801.05,1374.14 1805.81,1373.91 1810.57,1373.72 1815.32,1373.98 1820.08,1373.95 
  1824.84,1373.4 1829.59,1373.66 1834.35,1374.01 1839.11,1374.27 1843.87,1374.66 1848.62,1374.4 1853.38,1374.17 1858.14,1374.4 1862.9,1374.99 1867.65,1375.05 
  1872.41,1375.38 1877.17,1375.31 1881.92,1375.41 1886.68,1375.34 1891.44,1375.47 1896.2,1375.67 1900.95,1376.06 1905.71,1375.12 1910.47,1375.21 1915.23,1374.99 
  1919.98,1374.95 1924.74,1375.41 1929.5,1374.99 1934.26,1375.08 1939.01,1375.28 1943.77,1375.21 1948.53,1375.51 1953.28,1374.92 1958.04,1374.82 1962.8,1374.56 
  1967.56,1374.43 1972.31,1374.27 1977.07,1374.5 1981.83,1374.66 1986.59,1374.79 1991.34,1374.56 1996.1,1374.92 2000.86,1374.4 2005.61,1374.27 2010.37,1374.08 
  2015.13,1374.5 2019.89,1374.99 2024.64,1375.02 2029.4,1374.79 2034.16,1374.79 2038.92,1374.5 2043.67,1374.37 2048.43,1374.99 2053.19,1374.4 2057.95,1374.6 
  2062.7,1374.73 2067.46,1374.66 2072.22,1374.73 2076.97,1374.4 2081.73,1373.98 2086.49,1373.98 2091.25,1373.98 2096,1374.01 2100.76,1373.59 2105.52,1373.72 
  2110.28,1373.53 2115.03,1373.69 2119.79,1373.33 2124.55,1373.46 2129.31,1373.07 2134.06,1373.33 2138.82,1373.49 2143.58,1374.08 2148.33,1374.27 2153.09,1374.3 
  2157.85,1374.14 2162.61,1373.82 2167.36,1373.53 2172.12,1373.88 2176.88,1373.79 2181.64,1373.95 2186.39,1373.69 2191.15,1373.66 2195.91,1372.91 2200.66,1373.04 
  2205.42,1373.36 2210.18,1373.49 2214.94,1373.36 2219.69,1373.07 2224.45,1372.94 2229.21,1372.75 2233.97,1372.19 2238.72,1372.32 2243.48,1372.68 2248.24,1373.01 
  2253,1373.4 2257.75,1373.43 2262.51,1373.59 2267.27,1373.4 2272.02,1373.49 2276.78,1373.4 2281.54,1373.49 2286.3,1373.46 2291.05,1373.43 2295.81,1373.4 
  
  "/>
<polyline clip-path="url(#clip172)" style="stroke:#e26f46; stroke-linecap:butt; stroke-linejoin:round; stroke-width:4; stroke-opacity:1; fill:none" points="
  397.644,1383.75 402.401,1383.49 407.159,1383.07 411.916,1382.39 416.673,1381.8 421.431,1380.89 426.188,1379.79 430.945,1378.82 435.702,1377.13 440.46,1375.44 
  445.217,1373.53 449.974,1371.09 454.732,1368.46 459.489,1365.54 464.246,1362.39 469.004,1359.44 473.761,1355.8 478.518,1351.9 483.276,1347.62 488.033,1343.17 
  492.79,1338.08 497.547,1332.65 502.305,1327.85 507.062,1322.43 511.819,1316.55 516.577,1309.77 521.334,1302.01 526.091,1294.35 530.849,1285.97 535.606,1277.37 
  540.363,1269.16 545.121,1261.1 549.878,1251.98 554.635,1243.31 559.393,1235 564.15,1225.17 568.907,1215.23 573.664,1206.01 578.422,1196.05 583.179,1185.56 
  587.936,1174.72 592.694,1163.55 597.451,1153.03 602.208,1142.71 606.966,1130.99 611.723,1119.37 616.48,1107.49 621.238,1094.92 625.995,1082.94 630.752,1071.84 
  635.509,1059.57 640.267,1047.43 645.024,1034.9 649.781,1022.04 654.539,1010.23 659.296,997.631 664.053,985.846 668.811,973.802 673.568,959.486 678.325,946.533 
  683.083,933.515 687.84,921.244 692.597,907.35 697.355,893.942 702.112,879.658 706.869,865.439 711.626,852.843 716.384,840.475 721.141,826.743 725.898,813.303 
  730.656,800.025 735.413,785.709 740.17,771.847 744.928,759.641 749.685,745.746 754.442,731.527 759.2,718.347 763.957,706.336 768.714,693.902 773.471,681.631 
  778.229,668.094 782.986,656.082 787.743,644.558 792.501,633.488 797.258,622.742 802.015,610.763 806.773,599.271 811.53,588.688 816.287,577.521 821.045,567.002 
  825.802,558.14 830.559,546.81 835.317,537.915 840.074,529.182 844.831,521.196 849.588,512.918 854.346,504.056 859.103,495.355 863.86,488.603 868.618,481.169 
  873.375,475.715 878.132,470.488 882.89,465.327 887.647,459.84 892.404,453.965 897.162,448.251 901.919,442.31 906.676,437.733 911.434,433.967 916.191,428.773 
  920.948,424.91 925.705,420.43 930.463,416.08 935.22,411.145 939.977,408.256 944.735,404.555 949.492,400.724 954.249,398.355 959.007,394.621 963.764,391.018 
  968.521,386.992 973.279,383.129 978.036,379.818 982.793,377.675 987.55,375.046 992.308,373.033 997.065,372.708 1001.82,371.248 1006.58,369.397 1011.34,368.488 
  1016.09,366.573 1020.85,367.222 1025.61,366.313 1030.37,366.768 1035.12,366.735 1039.88,366.768 1044.64,366.378 1049.4,365.696 1054.15,365.599 1058.91,365.956 
  1063.67,367.287 1068.42,367.287 1073.18,368.034 1077.94,369.917 1082.7,370.176 1087.45,370.501 1092.21,371.637 1096.97,371.702 1101.73,372.643 1106.48,373.163 
  1111.24,374.429 1116,376.637 1120.76,378.292 1125.51,379.85 1130.27,381.636 1135.03,384.233 1139.78,386.505 1144.54,388.161 1149.3,390.726 1154.06,392.706 
  1158.81,395.173 1163.57,398.42 1168.33,401.731 1173.09,404.101 1177.84,406.795 1182.6,408.353 1187.36,410.463 1192.11,413.32 1196.87,415.463 1201.63,417.378 
  1206.39,420.527 1211.14,423.287 1215.9,425.786 1220.66,428.448 1225.42,430.721 1230.17,433.805 1234.93,436.694 1239.69,439.551 1244.45,442.992 1249.2,445.686 
  1253.96,448.413 1258.72,451.27 1263.47,453.607 1268.23,456.01 1272.99,459.353 1277.75,461.951 1282.5,464.418 1287.26,467.372 1292.02,470.229 1296.78,473.118 
  1301.53,476.234 1306.29,478.604 1311.05,481.234 1315.8,483.798 1320.56,485.909 1325.32,488.376 1330.08,491.265 1334.83,494.252 1339.59,496.654 1344.35,499.771 
  1349.11,502.595 1353.86,505.874 1358.62,508.276 1363.38,510.711 1368.14,513.048 1372.89,515.84 1377.65,518.794 1382.41,521.781 1387.16,524.995 1391.92,527.364 
  1396.68,529.767 1401.44,532.948 1406.19,535.967 1410.95,538.24 1415.71,541.616 1420.47,544.148 1425.22,547.005 1429.98,549.634 1434.74,552.394 1439.49,554.114 
  1444.25,557.263 1449.01,559.373 1453.77,561.581 1458.52,563.107 1463.28,565.671 1468.04,568.658 1472.8,571.125 1477.55,574.112 1482.31,575.865 1487.07,578.462 
  1491.83,580.507 1496.58,582.747 1501.34,585.247 1506.1,589.435 1510.85,591.382 1515.61,593.72 1520.37,596.414 1525.13,599.726 1529.88,602.193 1534.64,604.173 
  1539.4,605.991 1544.16,608.556 1548.91,610.958 1553.67,612.549 1558.43,613.555 1563.19,615.568 1567.94,618.652 1572.7,620.243 1577.46,622.385 1582.21,624.43 
  1586.97,626.865 1591.73,629.397 1596.49,631.475 1601.24,634.007 1606,636.507 1610.76,638.097 1615.52,639.266 1620.27,641.863 1625.03,644.266 1629.79,646.376 
  1634.54,649.07 1639.3,652.057 1644.06,654.654 1648.82,656.277 1653.57,659.004 1658.33,660.919 1663.09,663.127 1667.85,665.529 1672.6,667.866 1677.36,669.749 
  1682.12,672.119 1686.88,675.008 1691.63,677.086 1696.39,679.878 1701.15,682.93 1705.9,684.975 1710.66,687.345 1715.42,688.935 1720.18,691.922 1724.93,693.642 
  1729.69,695.785 1734.45,697.506 1739.21,699.681 1743.96,701.142 1748.72,703.154 1753.48,704.842 1758.23,706.725 1762.99,709.42 1767.75,711.79 1772.51,713.608 
  1777.26,714.776 1782.02,717.016 1786.78,718.867 1791.54,720.879 1796.29,722.827 1801.05,724.256 1805.81,726.496 1810.57,729.028 1815.32,730.618 1820.08,732.761 
  1824.84,735.553 1829.59,737.208 1834.35,738.41 1839.11,739.903 1843.87,741.559 1848.62,744.221 1853.38,746.168 1858.14,747.986 1862.9,749.35 1867.65,751.395 
  1872.41,753.181 1877.17,755.031 1881.92,756.622 1886.68,758.147 1891.44,759.608 1896.2,761.361 1900.95,762.692 1905.71,765.517 1910.47,767.335 1915.23,769.477 
  1919.98,771.165 1924.74,772.464 1929.5,774.801 1934.26,776.457 1939.01,778.242 1943.77,780.093 1948.53,781.132 1953.28,783.404 1958.04,785.514 1962.8,787.559 
  1967.56,788.988 1972.31,790.611 1977.07,792.689 1981.83,794.409 1986.59,796.097 1991.34,797.753 1996.1,798.922 2000.86,801.259 2005.61,802.72 2010.37,805.187 
  2015.13,806.583 2019.89,808.174 2024.64,809.862 2029.4,811.81 2034.16,813.563 2038.92,815.673 2043.67,817.458 2048.43,818.432 2053.19,820.899 2057.95,822.587 
  2062.7,824.243 2067.46,826.061 2072.22,827.652 2076.97,829.632 2081.73,831.677 2086.49,833.106 2091.25,835.216 2096,836.969 2100.76,839.014 2105.52,840.313 
  2110.28,842.033 2115.03,843.559 2119.79,845.864 2124.55,847.13 2129.31,849.078 2134.06,850.279 2138.82,851.805 2143.58,853.168 2148.33,854.532 2153.09,855.863 
  2157.85,857.843 2162.61,859.953 2167.36,861.576 2172.12,863.037 2176.88,864.725 2181.64,866.121 2186.39,868.231 2191.15,870.211 2195.91,872.289 2200.66,873.945 
  2205.42,874.789 2210.18,876.899 2214.94,878.197 2219.69,880.502 2224.45,882.385 2229.21,884.008 2233.97,885.632 2238.72,886.898 2243.48,887.936 2248.24,889.235 
  2253,890.598 2257.75,891.8 2262.51,893.423 2267.27,895.176 2272.02,896.799 2276.78,898.617 2281.54,900.63 2286.3,902.285 2291.05,903.454 2295.81,905.012 
  
  "/>
<polyline clip-path="url(#clip172)" style="stroke:#3da44d; stroke-linecap:butt; stroke-linejoin:round; stroke-width:4; stroke-opacity:1; fill:none" points="
  397.644,1384.24 402.401,1384.21 407.159,1384.21 411.916,1384.21 416.673,1384.21 421.431,1384.21 426.188,1384.17 430.945,1384.17 435.702,1384.17 440.46,1384.14 
  445.217,1384.14 449.974,1384.08 454.732,1384.04 459.489,1384.04 464.246,1384.04 469.004,1384.01 473.761,1383.82 478.518,1383.75 483.276,1383.56 488.033,1383.52 
  492.79,1383.43 497.547,1383.2 502.305,1383.04 507.062,1382.87 511.819,1382.71 516.577,1382.49 521.334,1382.36 526.091,1382.1 530.849,1381.87 535.606,1381.58 
  540.363,1381.19 545.121,1380.99 549.878,1380.57 554.635,1379.86 559.393,1379.24 564.15,1378.69 568.907,1378.2 573.664,1377.71 578.422,1377.1 583.179,1376.41 
  587.936,1375.9 592.694,1375.28 597.451,1374.43 602.208,1373.53 606.966,1372.94 611.723,1372.03 616.48,1371.25 621.238,1370.25 625.995,1369.6 630.752,1368.75 
  635.509,1367.52 640.267,1366.45 645.024,1365.12 649.781,1363.98 654.539,1362.97 659.296,1361.81 664.053,1360.86 668.811,1359.76 673.568,1358.66 678.325,1357.13 
  683.083,1355.7 687.84,1354.47 692.597,1352.88 697.355,1351.16 702.112,1350.18 706.869,1348.43 711.626,1346.71 716.384,1344.89 721.141,1343.27 725.898,1341.52 
  730.656,1339.57 735.413,1338.27 740.17,1336.03 744.928,1333.79 749.685,1332.3 754.442,1330.06 759.2,1328.24 763.957,1325.74 768.714,1323.99 773.471,1322.23 
  778.229,1320.45 782.986,1318.43 787.743,1316.06 792.501,1313.5 797.258,1310.68 802.015,1308.5 806.773,1306.16 811.53,1303.7 816.287,1301.59 821.045,1299.25 
  825.802,1296.72 830.559,1294.15 835.317,1291.36 840.074,1288.96 844.831,1286.39 849.588,1283.73 854.346,1281.62 859.103,1279.02 863.86,1276.17 868.618,1273.7 
  873.375,1270.45 878.132,1267.5 882.89,1265.06 887.647,1262.11 892.404,1259.38 897.162,1257.08 901.919,1254.22 906.676,1251.46 911.434,1248.15 916.191,1245.62 
  920.948,1242.63 925.705,1239.45 930.463,1236.4 935.22,1233.61 939.977,1230.85 944.735,1228.09 949.492,1225.17 954.249,1222.47 959.007,1219.19 963.764,1215.88 
  968.521,1213.16 973.279,1210.49 978.036,1208.03 982.793,1204.75 987.55,1201.76 992.308,1198.77 997.065,1195.98 1001.82,1193.16 1006.58,1189.98 1011.34,1187.06 
  1016.09,1183.74 1020.85,1179.91 1025.61,1177.25 1030.37,1173.84 1035.12,1170.37 1039.88,1167.48 1044.64,1163.94 1049.4,1160.82 1054.15,1158.13 1058.91,1154.82 
  1063.67,1151.48 1068.42,1148.07 1073.18,1144.92 1077.94,1141.48 1082.7,1138.85 1087.45,1135.86 1092.21,1132.19 1096.97,1128.82 1101.73,1125.8 1106.48,1122.78 
  1111.24,1119.92 1116,1116.71 1120.76,1113.95 1125.51,1111.06 1130.27,1108.17 1135.03,1104.5 1139.78,1101.55 1144.54,1098.53 1149.3,1094.79 1154.06,1091.74 
  1158.81,1088.69 1163.57,1084.67 1168.33,1081.65 1173.09,1078.56 1177.84,1075.77 1182.6,1073.01 1187.36,1070.67 1192.11,1067.56 1196.87,1064.8 1201.63,1062.04 
  1206.39,1058.89 1211.14,1056.19 1215.9,1053.92 1220.66,1051.07 1225.42,1048.37 1230.17,1045.42 1234.93,1042.56 1239.69,1039.64 1244.45,1036.65 1249.2,1033.79 
  1253.96,1031.23 1258.72,1028.34 1263.47,1025.87 1268.23,1023.31 1272.99,1020.48 1277.75,1017.95 1282.5,1015.26 1287.26,1012.14 1292.02,1009.28 1296.78,1006.62 
  1301.53,1003.86 1306.29,1001.2 1311.05,998.28 1315.8,995.261 1320.56,992.729 1325.32,990.359 1330.08,987.632 1334.83,984.645 1339.59,982.21 1344.35,979.224 
  1349.11,976.659 1353.86,974.062 1358.62,971.465 1363.38,968.673 1368.14,965.979 1372.89,963.382 1377.65,960.265 1382.41,957.311 1387.16,954.649 1391.92,951.987 
  1396.68,948.968 1401.44,946.111 1406.19,943.514 1410.95,941.241 1415.71,937.93 1420.47,935.528 1425.22,932.833 1429.98,930.042 1434.74,927.672 1439.49,925.529 
  1444.25,922.965 1449.01,920.27 1453.77,917.9 1458.52,915.433 1463.28,913.42 1468.04,910.888 1472.8,908.616 1477.55,905.954 1482.31,904.006 1487.07,901.279 
  1491.83,898.747 1496.58,896.409 1501.34,893.975 1506.1,890.793 1510.85,888.586 1515.61,886.086 1520.37,883.781 1525.13,881.314 1529.88,879.269 1534.64,876.899 
  1539.4,874.399 1544.16,871.899 1548.91,869.887 1553.67,867.906 1558.43,865.731 1563.19,863.524 1567.94,861.089 1572.7,858.817 1577.46,856.901 1582.21,854.596 
  1586.97,852.519 1591.73,849.824 1596.49,847.747 1601.24,845.117 1606,842.942 1610.76,841.092 1615.52,839.306 1620.27,837.164 1625.03,834.502 1629.79,832.294 
  1634.54,829.405 1639.3,826.84 1644.06,824.47 1648.82,822.555 1653.57,820.055 1658.33,817.815 1663.09,815.932 1667.85,813.757 1672.6,811.29 1677.36,809.537 
  1682.12,807.167 1686.88,804.797 1691.63,802.72 1696.39,800.09 1701.15,797.266 1705.9,795.286 1710.66,793.046 1715.42,791.39 1720.18,789.247 1724.93,787.462 
  1729.69,785.417 1734.45,783.339 1739.21,781.002 1743.96,778.924 1748.72,776.489 1753.48,774.477 1758.23,772.853 1762.99,770.678 1767.75,768.666 1772.51,766.523 
  1777.26,764.9 1782.02,763.017 1786.78,761.167 1791.54,759.316 1796.29,757.368 1801.05,755.778 1805.81,753.765 1810.57,751.427 1815.32,749.577 1820.08,747.467 
  1824.84,745.227 1829.59,743.312 1834.35,741.753 1839.11,740 1843.87,737.955 1848.62,735.553 1853.38,733.832 1858.14,731.787 1862.9,729.839 1867.65,727.729 
  1872.41,725.619 1877.17,723.834 1881.92,722.145 1886.68,720.685 1891.44,719.094 1896.2,717.146 1900.95,715.425 1905.71,713.543 1910.47,711.627 1915.23,709.712 
  1919.98,708.056 1924.74,706.303 1929.5,704.388 1934.26,702.635 1939.01,700.655 1943.77,698.869 1948.53,697.538 1953.28,695.85 1958.04,693.837 1962.8,692.052 
  1967.56,690.753 1972.31,689.292 1977.07,686.987 1981.83,685.105 1986.59,683.287 1991.34,681.858 1996.1,680.332 2000.86,678.514 2005.61,677.183 2010.37,674.911 
  2015.13,673.093 2019.89,671.015 2024.64,669.295 2029.4,667.574 2034.16,665.821 2038.92,664.003 2043.67,662.348 2048.43,660.757 2053.19,658.874 2057.95,656.991 
  2062.7,655.206 2067.46,653.453 2072.22,651.797 2076.97,650.141 2081.73,648.518 2086.49,647.09 2091.25,644.98 2096,643.194 2100.76,641.571 2105.52,640.143 
  2110.28,638.617 2115.03,636.929 2119.79,634.981 2124.55,633.585 2129.31,632.027 2134.06,630.566 2138.82,628.878 2143.58,626.93 2148.33,625.372 2153.09,624.008 
  2157.85,622.19 2162.61,620.405 2167.36,619.074 2172.12,617.256 2176.88,615.665 2181.64,614.107 2186.39,612.257 2191.15,610.309 2195.91,608.978 2200.66,607.192 
  2205.42,606.024 2210.18,603.784 2214.94,602.615 2219.69,600.602 2224.45,598.849 2229.21,597.421 2233.97,596.349 2238.72,594.953 2243.48,593.558 2248.24,591.934 
  2253,590.181 2257.75,588.948 2262.51,587.162 2267.27,585.604 2272.02,583.883 2276.78,582.163 2281.54,580.053 2286.3,578.43 2291.05,577.293 2295.81,575.768 
  
  "/>
<path clip-path="url(#clip170)" d="
M1727.17 300.469 L2285.69 300.469 L2285.69 93.1086 L1727.17 93.1086  Z
  " fill="#ffffff" fill-rule="evenodd" fill-opacity="1"/>
<polyline clip-path="url(#clip170)" style="stroke:#000000; stroke-linecap:butt; stroke-linejoin:round; stroke-width:4; stroke-opacity:1; fill:none" points="
  1727.17,300.469 2285.69,300.469 2285.69,93.1086 1727.17,93.1086 1727.17,300.469 
  "/>
<polyline clip-path="url(#clip170)" style="stroke:#009af9; stroke-linecap:butt; stroke-linejoin:round; stroke-width:4; stroke-opacity:1; fill:none" points="
  1749.53,144.949 1883.67,144.949 
  "/>
<path clip-path="url(#clip170)" d="M1927.74 146.581 L1927.74 162.229 L1923.48 162.229 L1923.48 146.719 Q1923.48 143.039 1922.04 141.21 Q1920.61 139.382 1917.74 139.382 Q1914.29 139.382 1912.3 141.581 Q1910.31 143.78 1910.31 147.576 L1910.31 162.229 L1906.02 162.229 L1906.02 126.21 L1910.31 126.21 L1910.31 140.331 Q1911.83 137.993 1913.89 136.835 Q1915.98 135.678 1918.69 135.678 Q1923.15 135.678 1925.44 138.456 Q1927.74 141.21 1927.74 146.581 Z" fill="#000000" fill-rule="evenodd" fill-opacity="1" /><path clip-path="url(#clip170)" d="M1958.41 148.201 L1958.41 150.284 L1938.82 150.284 Q1939.1 154.682 1941.46 156.997 Q1943.85 159.289 1948.08 159.289 Q1950.54 159.289 1952.83 158.687 Q1955.14 158.085 1957.41 156.881 L1957.41 160.909 Q1955.12 161.881 1952.71 162.391 Q1950.31 162.9 1947.83 162.9 Q1941.62 162.9 1937.99 159.289 Q1934.38 155.678 1934.38 149.52 Q1934.38 143.155 1937.81 139.428 Q1941.25 135.678 1947.09 135.678 Q1952.32 135.678 1955.35 139.057 Q1958.41 142.414 1958.41 148.201 M1954.15 146.951 Q1954.1 143.456 1952.18 141.372 Q1950.28 139.289 1947.13 139.289 Q1943.57 139.289 1941.42 141.303 Q1939.29 143.317 1938.96 146.974 L1954.15 146.951 Z" fill="#000000" fill-rule="evenodd" fill-opacity="1" /><path clip-path="url(#clip170)" d="M1977.18 149.196 Q1972.02 149.196 1970.03 150.377 Q1968.04 151.557 1968.04 154.405 Q1968.04 156.673 1969.52 158.016 Q1971.02 159.335 1973.59 159.335 Q1977.13 159.335 1979.26 156.835 Q1981.42 154.312 1981.42 150.145 L1981.42 149.196 L1977.18 149.196 M1985.68 147.437 L1985.68 162.229 L1981.42 162.229 L1981.42 158.293 Q1979.96 160.655 1977.78 161.789 Q1975.61 162.9 1972.46 162.9 Q1968.48 162.9 1966.12 160.678 Q1963.78 158.432 1963.78 154.682 Q1963.78 150.307 1966.69 148.085 Q1969.63 145.863 1975.44 145.863 L1981.42 145.863 L1981.42 145.446 Q1981.42 142.507 1979.47 140.909 Q1977.55 139.289 1974.06 139.289 Q1971.83 139.289 1969.73 139.821 Q1967.62 140.354 1965.68 141.419 L1965.68 137.483 Q1968.01 136.581 1970.21 136.141 Q1972.41 135.678 1974.49 135.678 Q1980.12 135.678 1982.9 138.594 Q1985.68 141.511 1985.68 147.437 Z" fill="#000000" fill-rule="evenodd" fill-opacity="1" /><path clip-path="url(#clip170)" d="M1994.45 126.21 L1998.71 126.21 L1998.71 162.229 L1994.45 162.229 L1994.45 126.21 Z" fill="#000000" fill-rule="evenodd" fill-opacity="1" /><path clip-path="url(#clip170)" d="M2011.83 128.942 L2011.83 136.303 L2020.61 136.303 L2020.61 139.613 L2011.83 139.613 L2011.83 153.687 Q2011.83 156.858 2012.69 157.761 Q2013.57 158.664 2016.23 158.664 L2020.61 158.664 L2020.61 162.229 L2016.23 162.229 Q2011.3 162.229 2009.43 160.4 Q2007.55 158.548 2007.55 153.687 L2007.55 139.613 L2004.43 139.613 L2004.43 136.303 L2007.55 136.303 L2007.55 128.942 L2011.83 128.942 Z" fill="#000000" fill-rule="evenodd" fill-opacity="1" /><path clip-path="url(#clip170)" d="M2047.76 146.581 L2047.76 162.229 L2043.5 162.229 L2043.5 146.719 Q2043.5 143.039 2042.06 141.21 Q2040.63 139.382 2037.76 139.382 Q2034.31 139.382 2032.32 141.581 Q2030.33 143.78 2030.33 147.576 L2030.33 162.229 L2026.05 162.229 L2026.05 126.21 L2030.33 126.21 L2030.33 140.331 Q2031.86 137.993 2033.92 136.835 Q2036 135.678 2038.71 135.678 Q2043.18 135.678 2045.47 138.456 Q2047.76 141.21 2047.76 146.581 Z" fill="#000000" fill-rule="evenodd" fill-opacity="1" /><path clip-path="url(#clip170)" d="M2067.04 164.636 Q2065.24 169.266 2063.52 170.678 Q2061.81 172.09 2058.94 172.09 L2055.54 172.09 L2055.54 168.525 L2058.04 168.525 Q2059.8 168.525 2060.77 167.692 Q2061.74 166.858 2062.92 163.756 L2063.68 161.812 L2053.2 136.303 L2057.71 136.303 L2065.81 156.581 L2073.92 136.303 L2078.43 136.303 L2067.04 164.636 Z" fill="#000000" fill-rule="evenodd" fill-opacity="1" /><path clip-path="url(#clip170)" d="M2118.04 137.298 L2118.04 141.28 Q2116.23 140.284 2114.4 139.798 Q2112.6 139.289 2110.74 139.289 Q2106.6 139.289 2104.31 141.928 Q2102.02 144.544 2102.02 149.289 Q2102.02 154.034 2104.31 156.673 Q2106.6 159.289 2110.74 159.289 Q2112.6 159.289 2114.4 158.803 Q2116.23 158.293 2118.04 157.298 L2118.04 161.233 Q2116.25 162.067 2114.33 162.483 Q2112.43 162.9 2110.28 162.9 Q2104.42 162.9 2100.98 159.219 Q2097.53 155.539 2097.53 149.289 Q2097.53 142.946 2101 139.312 Q2104.49 135.678 2110.56 135.678 Q2112.53 135.678 2114.4 136.095 Q2116.28 136.488 2118.04 137.298 Z" fill="#000000" fill-rule="evenodd" fill-opacity="1" /><path clip-path="url(#clip170)" d="M2137.23 149.196 Q2132.06 149.196 2130.07 150.377 Q2128.08 151.557 2128.08 154.405 Q2128.08 156.673 2129.56 158.016 Q2131.07 159.335 2133.64 159.335 Q2137.18 159.335 2139.31 156.835 Q2141.46 154.312 2141.46 150.145 L2141.46 149.196 L2137.23 149.196 M2145.72 147.437 L2145.72 162.229 L2141.46 162.229 L2141.46 158.293 Q2140 160.655 2137.83 161.789 Q2135.65 162.9 2132.5 162.9 Q2128.52 162.9 2126.16 160.678 Q2123.82 158.432 2123.82 154.682 Q2123.82 150.307 2126.74 148.085 Q2129.68 145.863 2135.49 145.863 L2141.46 145.863 L2141.46 145.446 Q2141.46 142.507 2139.52 140.909 Q2137.6 139.289 2134.1 139.289 Q2131.88 139.289 2129.77 139.821 Q2127.67 140.354 2125.72 141.419 L2125.72 137.483 Q2128.06 136.581 2130.26 136.141 Q2132.46 135.678 2134.54 135.678 Q2140.17 135.678 2142.94 138.594 Q2145.72 141.511 2145.72 147.437 Z" fill="#000000" fill-rule="evenodd" fill-opacity="1" /><path clip-path="url(#clip170)" d="M2171.02 137.067 L2171.02 141.094 Q2169.22 140.169 2167.27 139.706 Q2165.33 139.243 2163.24 139.243 Q2160.07 139.243 2158.48 140.215 Q2156.9 141.187 2156.9 143.131 Q2156.9 144.613 2158.04 145.469 Q2159.17 146.303 2162.6 147.067 L2164.05 147.391 Q2168.59 148.363 2170.49 150.145 Q2172.41 151.905 2172.41 155.076 Q2172.41 158.687 2169.54 160.793 Q2166.69 162.9 2161.69 162.9 Q2159.61 162.9 2157.34 162.483 Q2155.1 162.09 2152.6 161.28 L2152.6 156.881 Q2154.96 158.108 2157.25 158.733 Q2159.54 159.335 2161.79 159.335 Q2164.79 159.335 2166.42 158.317 Q2168.04 157.275 2168.04 155.4 Q2168.04 153.664 2166.85 152.738 Q2165.7 151.812 2161.74 150.956 L2160.26 150.608 Q2156.3 149.775 2154.54 148.062 Q2152.78 146.326 2152.78 143.317 Q2152.78 139.659 2155.37 137.669 Q2157.97 135.678 2162.73 135.678 Q2165.1 135.678 2167.18 136.025 Q2169.26 136.372 2171.02 137.067 Z" fill="#000000" fill-rule="evenodd" fill-opacity="1" /><path clip-path="url(#clip170)" d="M2201.37 148.201 L2201.37 150.284 L2181.79 150.284 Q2182.06 154.682 2184.42 156.997 Q2186.81 159.289 2191.04 159.289 Q2193.5 159.289 2195.79 158.687 Q2198.1 158.085 2200.37 156.881 L2200.37 160.909 Q2198.08 161.881 2195.67 162.391 Q2193.27 162.9 2190.79 162.9 Q2184.59 162.9 2180.95 159.289 Q2177.34 155.678 2177.34 149.52 Q2177.34 143.155 2180.77 139.428 Q2184.22 135.678 2190.05 135.678 Q2195.28 135.678 2198.31 139.057 Q2201.37 142.414 2201.37 148.201 M2197.11 146.951 Q2197.06 143.456 2195.14 141.372 Q2193.24 139.289 2190.1 139.289 Q2186.53 139.289 2184.38 141.303 Q2182.25 143.317 2181.92 146.974 L2197.11 146.951 Z" fill="#000000" fill-rule="evenodd" fill-opacity="1" /><path clip-path="url(#clip170)" d="M2224.89 137.067 L2224.89 141.094 Q2223.08 140.169 2221.14 139.706 Q2219.19 139.243 2217.11 139.243 Q2213.94 139.243 2212.34 140.215 Q2210.77 141.187 2210.77 143.131 Q2210.77 144.613 2211.9 145.469 Q2213.04 146.303 2216.46 147.067 L2217.92 147.391 Q2222.46 148.363 2224.35 150.145 Q2226.28 151.905 2226.28 155.076 Q2226.28 158.687 2223.41 160.793 Q2220.56 162.9 2215.56 162.9 Q2213.48 162.9 2211.21 162.483 Q2208.96 162.09 2206.46 161.28 L2206.46 156.881 Q2208.82 158.108 2211.11 158.733 Q2213.41 159.335 2215.65 159.335 Q2218.66 159.335 2220.28 158.317 Q2221.9 157.275 2221.9 155.4 Q2221.9 153.664 2220.72 152.738 Q2219.56 151.812 2215.6 150.956 L2214.12 150.608 Q2210.16 149.775 2208.41 148.062 Q2206.65 146.326 2206.65 143.317 Q2206.65 139.659 2209.24 137.669 Q2211.83 135.678 2216.6 135.678 Q2218.96 135.678 2221.04 136.025 Q2223.13 136.372 2224.89 137.067 Z" fill="#000000" fill-rule="evenodd" fill-opacity="1" /><polyline clip-path="url(#clip170)" style="stroke:#e26f46; stroke-linecap:butt; stroke-linejoin:round; stroke-width:4; stroke-opacity:1; fill:none" points="
  1749.53,196.789 1883.67,196.789 
  "/>
<path clip-path="url(#clip170)" d="M1906.02 188.143 L1910.28 188.143 L1910.28 214.069 L1906.02 214.069 L1906.02 188.143 M1906.02 178.05 L1910.28 178.05 L1910.28 183.444 L1906.02 183.444 L1906.02 178.05 Z" fill="#000000" fill-rule="evenodd" fill-opacity="1" /><path clip-path="url(#clip170)" d="M1940.75 198.421 L1940.75 214.069 L1936.49 214.069 L1936.49 198.559 Q1936.49 194.879 1935.05 193.05 Q1933.62 191.222 1930.75 191.222 Q1927.3 191.222 1925.31 193.421 Q1923.31 195.62 1923.31 199.416 L1923.31 214.069 L1919.03 214.069 L1919.03 188.143 L1923.31 188.143 L1923.31 192.171 Q1924.84 189.833 1926.9 188.675 Q1928.99 187.518 1931.69 187.518 Q1936.16 187.518 1938.45 190.296 Q1940.75 193.05 1940.75 198.421 Z" fill="#000000" fill-rule="evenodd" fill-opacity="1" /><path clip-path="url(#clip170)" d="M1962.37 178.05 L1962.37 181.592 L1958.29 181.592 Q1956 181.592 1955.1 182.518 Q1954.22 183.444 1954.22 185.851 L1954.22 188.143 L1961.23 188.143 L1961.23 191.453 L1954.22 191.453 L1954.22 214.069 L1949.93 214.069 L1949.93 191.453 L1945.86 191.453 L1945.86 188.143 L1949.93 188.143 L1949.93 186.337 Q1949.93 182.009 1951.95 180.041 Q1953.96 178.05 1958.34 178.05 L1962.37 178.05 Z" fill="#000000" fill-rule="evenodd" fill-opacity="1" /><path clip-path="url(#clip170)" d="M1988.11 200.041 L1988.11 202.124 L1968.52 202.124 Q1968.8 206.522 1971.16 208.837 Q1973.55 211.129 1977.78 211.129 Q1980.24 211.129 1982.53 210.527 Q1984.84 209.925 1987.11 208.721 L1987.11 212.749 Q1984.82 213.721 1982.41 214.231 Q1980 214.74 1977.53 214.74 Q1971.32 214.74 1967.69 211.129 Q1964.08 207.518 1964.08 201.36 Q1964.08 194.995 1967.5 191.268 Q1970.95 187.518 1976.79 187.518 Q1982.02 187.518 1985.05 190.897 Q1988.11 194.254 1988.11 200.041 M1983.85 198.791 Q1983.8 195.296 1981.88 193.212 Q1979.98 191.129 1976.83 191.129 Q1973.27 191.129 1971.12 193.143 Q1968.99 195.157 1968.66 198.814 L1983.85 198.791 Z" fill="#000000" fill-rule="evenodd" fill-opacity="1" /><path clip-path="url(#clip170)" d="M2013.75 189.138 L2013.75 193.12 Q2011.95 192.124 2010.12 191.638 Q2008.31 191.129 2006.46 191.129 Q2002.32 191.129 2000.03 193.768 Q1997.74 196.384 1997.74 201.129 Q1997.74 205.874 2000.03 208.513 Q2002.32 211.129 2006.46 211.129 Q2008.31 211.129 2010.12 210.643 Q2011.95 210.133 2013.75 209.138 L2013.75 213.073 Q2011.97 213.907 2010.05 214.323 Q2008.15 214.74 2006 214.74 Q2000.14 214.74 1996.69 211.059 Q1993.24 207.379 1993.24 201.129 Q1993.24 194.786 1996.72 191.152 Q2000.21 187.518 2006.28 187.518 Q2008.24 187.518 2010.12 187.935 Q2011.99 188.328 2013.75 189.138 Z" fill="#000000" fill-rule="evenodd" fill-opacity="1" /><path clip-path="url(#clip170)" d="M2025.37 180.782 L2025.37 188.143 L2034.15 188.143 L2034.15 191.453 L2025.37 191.453 L2025.37 205.527 Q2025.37 208.698 2026.23 209.601 Q2027.11 210.504 2029.77 210.504 L2034.15 210.504 L2034.15 214.069 L2029.77 214.069 Q2024.84 214.069 2022.97 212.24 Q2021.09 210.388 2021.09 205.527 L2021.09 191.453 L2017.97 191.453 L2017.97 188.143 L2021.09 188.143 L2021.09 180.782 L2025.37 180.782 Z" fill="#000000" fill-rule="evenodd" fill-opacity="1" /><path clip-path="url(#clip170)" d="M2061.92 200.041 L2061.92 202.124 L2042.34 202.124 Q2042.62 206.522 2044.98 208.837 Q2047.36 211.129 2051.6 211.129 Q2054.05 211.129 2056.35 210.527 Q2058.66 209.925 2060.93 208.721 L2060.93 212.749 Q2058.64 213.721 2056.23 214.231 Q2053.82 214.74 2051.35 214.74 Q2045.14 214.74 2041.51 211.129 Q2037.9 207.518 2037.9 201.36 Q2037.9 194.995 2041.32 191.268 Q2044.77 187.518 2050.61 187.518 Q2055.84 187.518 2058.87 190.897 Q2061.92 194.254 2061.92 200.041 M2057.67 198.791 Q2057.62 195.296 2055.7 193.212 Q2053.8 191.129 2050.65 191.129 Q2047.09 191.129 2044.93 193.143 Q2042.8 195.157 2042.48 198.814 L2057.67 198.791 Z" fill="#000000" fill-rule="evenodd" fill-opacity="1" /><path clip-path="url(#clip170)" d="M2085.98 192.078 L2085.98 178.05 L2090.24 178.05 L2090.24 214.069 L2085.98 214.069 L2085.98 210.18 Q2084.63 212.495 2082.57 213.629 Q2080.54 214.74 2077.67 214.74 Q2072.97 214.74 2070 210.99 Q2067.06 207.24 2067.06 201.129 Q2067.06 195.018 2070 191.268 Q2072.97 187.518 2077.67 187.518 Q2080.54 187.518 2082.57 188.652 Q2084.63 189.763 2085.98 192.078 M2071.46 201.129 Q2071.46 205.828 2073.38 208.513 Q2075.33 211.175 2078.71 211.175 Q2082.09 211.175 2084.03 208.513 Q2085.98 205.828 2085.98 201.129 Q2085.98 196.43 2084.03 193.768 Q2082.09 191.083 2078.71 191.083 Q2075.33 191.083 2073.38 193.768 Q2071.46 196.43 2071.46 201.129 Z" fill="#000000" fill-rule="evenodd" fill-opacity="1" /><path clip-path="url(#clip170)" d="M2132.73 189.138 L2132.73 193.12 Q2130.93 192.124 2129.1 191.638 Q2127.3 191.129 2125.44 191.129 Q2121.3 191.129 2119.01 193.768 Q2116.72 196.384 2116.72 201.129 Q2116.72 205.874 2119.01 208.513 Q2121.3 211.129 2125.44 211.129 Q2127.3 211.129 2129.1 210.643 Q2130.93 210.133 2132.73 209.138 L2132.73 213.073 Q2130.95 213.907 2129.03 214.323 Q2127.13 214.74 2124.98 214.74 Q2119.12 214.74 2115.67 211.059 Q2112.23 207.379 2112.23 201.129 Q2112.23 194.786 2115.7 191.152 Q2119.19 187.518 2125.26 187.518 Q2127.23 187.518 2129.1 187.935 Q2130.98 188.328 2132.73 189.138 Z" fill="#000000" fill-rule="evenodd" fill-opacity="1" /><path clip-path="url(#clip170)" d="M2151.92 201.036 Q2146.76 201.036 2144.77 202.217 Q2142.78 203.397 2142.78 206.245 Q2142.78 208.513 2144.26 209.856 Q2145.77 211.175 2148.34 211.175 Q2151.88 211.175 2154.01 208.675 Q2156.16 206.152 2156.16 201.985 L2156.16 201.036 L2151.92 201.036 M2160.42 199.277 L2160.42 214.069 L2156.16 214.069 L2156.16 210.133 Q2154.7 212.495 2152.53 213.629 Q2150.35 214.74 2147.2 214.74 Q2143.22 214.74 2140.86 212.518 Q2138.52 210.272 2138.52 206.522 Q2138.52 202.147 2141.44 199.925 Q2144.38 197.703 2150.19 197.703 L2156.16 197.703 L2156.16 197.286 Q2156.16 194.347 2154.22 192.749 Q2152.29 191.129 2148.8 191.129 Q2146.58 191.129 2144.47 191.661 Q2142.36 192.194 2140.42 193.259 L2140.42 189.323 Q2142.76 188.421 2144.96 187.981 Q2147.16 187.518 2149.24 187.518 Q2154.86 187.518 2157.64 190.434 Q2160.42 193.351 2160.42 199.277 Z" fill="#000000" fill-rule="evenodd" fill-opacity="1" /><path clip-path="url(#clip170)" d="M2185.72 188.907 L2185.72 192.934 Q2183.92 192.009 2181.97 191.546 Q2180.03 191.083 2177.94 191.083 Q2174.77 191.083 2173.17 192.055 Q2171.6 193.027 2171.6 194.971 Q2171.6 196.453 2172.73 197.309 Q2173.87 198.143 2177.29 198.907 L2178.75 199.231 Q2183.29 200.203 2185.19 201.985 Q2187.11 203.745 2187.11 206.916 Q2187.11 210.527 2184.24 212.633 Q2181.39 214.74 2176.39 214.74 Q2174.31 214.74 2172.04 214.323 Q2169.79 213.93 2167.29 213.12 L2167.29 208.721 Q2169.66 209.948 2171.95 210.573 Q2174.24 211.175 2176.48 211.175 Q2179.49 211.175 2181.11 210.157 Q2182.73 209.115 2182.73 207.24 Q2182.73 205.504 2181.55 204.578 Q2180.4 203.652 2176.44 202.796 L2174.96 202.448 Q2171 201.615 2169.24 199.902 Q2167.48 198.166 2167.48 195.157 Q2167.48 191.499 2170.07 189.509 Q2172.67 187.518 2177.43 187.518 Q2179.79 187.518 2181.88 187.865 Q2183.96 188.212 2185.72 188.907 Z" fill="#000000" fill-rule="evenodd" fill-opacity="1" /><path clip-path="url(#clip170)" d="M2216.07 200.041 L2216.07 202.124 L2196.48 202.124 Q2196.76 206.522 2199.12 208.837 Q2201.51 211.129 2205.74 211.129 Q2208.2 211.129 2210.49 210.527 Q2212.8 209.925 2215.07 208.721 L2215.07 212.749 Q2212.78 213.721 2210.37 214.231 Q2207.97 214.74 2205.49 214.74 Q2199.29 214.74 2195.65 211.129 Q2192.04 207.518 2192.04 201.36 Q2192.04 194.995 2195.47 191.268 Q2198.92 187.518 2204.75 187.518 Q2209.98 187.518 2213.01 190.897 Q2216.07 194.254 2216.07 200.041 M2211.81 198.791 Q2211.76 195.296 2209.84 193.212 Q2207.94 191.129 2204.79 191.129 Q2201.23 191.129 2199.08 193.143 Q2196.95 195.157 2196.62 198.814 L2211.81 198.791 Z" fill="#000000" fill-rule="evenodd" fill-opacity="1" /><path clip-path="url(#clip170)" d="M2239.59 188.907 L2239.59 192.934 Q2237.78 192.009 2235.84 191.546 Q2233.89 191.083 2231.81 191.083 Q2228.64 191.083 2227.04 192.055 Q2225.47 193.027 2225.47 194.971 Q2225.47 196.453 2226.6 197.309 Q2227.73 198.143 2231.16 198.907 L2232.62 199.231 Q2237.16 200.203 2239.05 201.985 Q2240.97 203.745 2240.97 206.916 Q2240.97 210.527 2238.1 212.633 Q2235.26 214.74 2230.26 214.74 Q2228.17 214.74 2225.91 214.323 Q2223.66 213.93 2221.16 213.12 L2221.16 208.721 Q2223.52 209.948 2225.81 210.573 Q2228.1 211.175 2230.35 211.175 Q2233.36 211.175 2234.98 210.157 Q2236.6 209.115 2236.6 207.24 Q2236.6 205.504 2235.42 204.578 Q2234.26 203.652 2230.3 202.796 L2228.82 202.448 Q2224.86 201.615 2223.1 199.902 Q2221.35 198.166 2221.35 195.157 Q2221.35 191.499 2223.94 189.509 Q2226.53 187.518 2231.3 187.518 Q2233.66 187.518 2235.74 187.865 Q2237.83 188.212 2239.59 188.907 Z" fill="#000000" fill-rule="evenodd" fill-opacity="1" /><polyline clip-path="url(#clip170)" style="stroke:#3da44d; stroke-linecap:butt; stroke-linejoin:round; stroke-width:4; stroke-opacity:1; fill:none" points="
  1749.53,248.629 1883.67,248.629 
  "/>
<path clip-path="url(#clip170)" d="M1922.53 229.89 L1922.53 233.432 L1918.45 233.432 Q1916.16 233.432 1915.26 234.358 Q1914.38 235.284 1914.38 237.691 L1914.38 239.983 L1921.39 239.983 L1921.39 243.293 L1914.38 243.293 L1914.38 265.909 L1910.1 265.909 L1910.1 243.293 L1906.02 243.293 L1906.02 239.983 L1910.1 239.983 L1910.1 238.177 Q1910.1 233.849 1912.11 231.881 Q1914.12 229.89 1918.5 229.89 L1922.53 229.89 Z" fill="#000000" fill-rule="evenodd" fill-opacity="1" /><path clip-path="url(#clip170)" d="M1937.87 252.876 Q1932.71 252.876 1930.72 254.057 Q1928.73 255.237 1928.73 258.085 Q1928.73 260.353 1930.21 261.696 Q1931.72 263.015 1934.29 263.015 Q1937.83 263.015 1939.96 260.515 Q1942.11 257.992 1942.11 253.825 L1942.11 252.876 L1937.87 252.876 M1946.37 251.117 L1946.37 265.909 L1942.11 265.909 L1942.11 261.973 Q1940.65 264.335 1938.48 265.469 Q1936.3 266.58 1933.15 266.58 Q1929.17 266.58 1926.81 264.358 Q1924.47 262.112 1924.47 258.362 Q1924.47 253.987 1927.39 251.765 Q1930.33 249.543 1936.14 249.543 L1942.11 249.543 L1942.11 249.126 Q1942.11 246.187 1940.17 244.589 Q1938.25 242.969 1934.75 242.969 Q1932.53 242.969 1930.42 243.501 Q1928.31 244.034 1926.37 245.099 L1926.37 241.163 Q1928.71 240.261 1930.91 239.821 Q1933.11 239.358 1935.19 239.358 Q1940.81 239.358 1943.59 242.274 Q1946.37 245.191 1946.37 251.117 Z" fill="#000000" fill-rule="evenodd" fill-opacity="1" /><path clip-path="url(#clip170)" d="M1959.36 232.622 L1959.36 239.983 L1968.13 239.983 L1968.13 243.293 L1959.36 243.293 L1959.36 257.367 Q1959.36 260.538 1960.21 261.441 Q1961.09 262.344 1963.75 262.344 L1968.13 262.344 L1968.13 265.909 L1963.75 265.909 Q1958.82 265.909 1956.95 264.08 Q1955.07 262.228 1955.07 257.367 L1955.07 243.293 L1951.95 243.293 L1951.95 239.983 L1955.07 239.983 L1955.07 232.622 L1959.36 232.622 Z" fill="#000000" fill-rule="evenodd" fill-opacity="1" /><path clip-path="url(#clip170)" d="M1985.51 252.876 Q1980.35 252.876 1978.36 254.057 Q1976.37 255.237 1976.37 258.085 Q1976.37 260.353 1977.85 261.696 Q1979.36 263.015 1981.93 263.015 Q1985.47 263.015 1987.6 260.515 Q1989.75 257.992 1989.75 253.825 L1989.75 252.876 L1985.51 252.876 M1994.01 251.117 L1994.01 265.909 L1989.75 265.909 L1989.75 261.973 Q1988.29 264.335 1986.12 265.469 Q1983.94 266.58 1980.79 266.58 Q1976.81 266.58 1974.45 264.358 Q1972.11 262.112 1972.11 258.362 Q1972.11 253.987 1975.03 251.765 Q1977.97 249.543 1983.78 249.543 L1989.75 249.543 L1989.75 249.126 Q1989.75 246.187 1987.81 244.589 Q1985.88 242.969 1982.39 242.969 Q1980.17 242.969 1978.06 243.501 Q1975.95 244.034 1974.01 245.099 L1974.01 241.163 Q1976.35 240.261 1978.55 239.821 Q1980.74 239.358 1982.83 239.358 Q1988.45 239.358 1991.23 242.274 Q1994.01 245.191 1994.01 251.117 Z" fill="#000000" fill-rule="evenodd" fill-opacity="1" /><path clip-path="url(#clip170)" d="M2002.78 229.89 L2007.04 229.89 L2007.04 265.909 L2002.78 265.909 L2002.78 229.89 Z" fill="#000000" fill-rule="evenodd" fill-opacity="1" /><path clip-path="url(#clip170)" d="M2049.68 240.978 L2049.68 244.96 Q2047.87 243.964 2046.05 243.478 Q2044.24 242.969 2042.39 242.969 Q2038.24 242.969 2035.95 245.608 Q2033.66 248.224 2033.66 252.969 Q2033.66 257.714 2035.95 260.353 Q2038.24 262.969 2042.39 262.969 Q2044.24 262.969 2046.05 262.483 Q2047.87 261.973 2049.68 260.978 L2049.68 264.913 Q2047.9 265.747 2045.98 266.163 Q2044.08 266.58 2041.93 266.58 Q2036.07 266.58 2032.62 262.899 Q2029.17 259.219 2029.17 252.969 Q2029.17 246.626 2032.64 242.992 Q2036.14 239.358 2042.2 239.358 Q2044.17 239.358 2046.05 239.775 Q2047.92 240.168 2049.68 240.978 Z" fill="#000000" fill-rule="evenodd" fill-opacity="1" /><path clip-path="url(#clip170)" d="M2068.87 252.876 Q2063.71 252.876 2061.72 254.057 Q2059.73 255.237 2059.73 258.085 Q2059.73 260.353 2061.21 261.696 Q2062.71 263.015 2065.28 263.015 Q2068.82 263.015 2070.95 260.515 Q2073.11 257.992 2073.11 253.825 L2073.11 252.876 L2068.87 252.876 M2077.36 251.117 L2077.36 265.909 L2073.11 265.909 L2073.11 261.973 Q2071.65 264.335 2069.47 265.469 Q2067.3 266.58 2064.15 266.58 Q2060.17 266.58 2057.8 264.358 Q2055.47 262.112 2055.47 258.362 Q2055.47 253.987 2058.38 251.765 Q2061.32 249.543 2067.13 249.543 L2073.11 249.543 L2073.11 249.126 Q2073.11 246.187 2071.16 244.589 Q2069.24 242.969 2065.74 242.969 Q2063.52 242.969 2061.42 243.501 Q2059.31 244.034 2057.36 245.099 L2057.36 241.163 Q2059.7 240.261 2061.9 239.821 Q2064.1 239.358 2066.18 239.358 Q2071.81 239.358 2074.59 242.274 Q2077.36 245.191 2077.36 251.117 Z" fill="#000000" fill-rule="evenodd" fill-opacity="1" /><path clip-path="url(#clip170)" d="M2102.67 240.747 L2102.67 244.774 Q2100.86 243.849 2098.92 243.386 Q2096.97 242.923 2094.89 242.923 Q2091.72 242.923 2090.12 243.895 Q2088.55 244.867 2088.55 246.811 Q2088.55 248.293 2089.68 249.149 Q2090.81 249.983 2094.24 250.747 L2095.7 251.071 Q2100.23 252.043 2102.13 253.825 Q2104.05 255.585 2104.05 258.756 Q2104.05 262.367 2101.18 264.473 Q2098.34 266.58 2093.34 266.58 Q2091.25 266.58 2088.99 266.163 Q2086.74 265.77 2084.24 264.96 L2084.24 260.561 Q2086.6 261.788 2088.89 262.413 Q2091.18 263.015 2093.43 263.015 Q2096.44 263.015 2098.06 261.997 Q2099.68 260.955 2099.68 259.08 Q2099.68 257.344 2098.5 256.418 Q2097.34 255.492 2093.38 254.636 L2091.9 254.288 Q2087.94 253.455 2086.18 251.742 Q2084.42 250.006 2084.42 246.997 Q2084.42 243.339 2087.02 241.349 Q2089.61 239.358 2094.38 239.358 Q2096.74 239.358 2098.82 239.705 Q2100.91 240.052 2102.67 240.747 Z" fill="#000000" fill-rule="evenodd" fill-opacity="1" /><path clip-path="url(#clip170)" d="M2133.01 251.881 L2133.01 253.964 L2113.43 253.964 Q2113.71 258.362 2116.07 260.677 Q2118.45 262.969 2122.69 262.969 Q2125.14 262.969 2127.43 262.367 Q2129.75 261.765 2132.02 260.561 L2132.02 264.589 Q2129.73 265.561 2127.32 266.071 Q2124.91 266.58 2122.43 266.58 Q2116.23 266.58 2112.6 262.969 Q2108.98 259.358 2108.98 253.2 Q2108.98 246.835 2112.41 243.108 Q2115.86 239.358 2121.69 239.358 Q2126.92 239.358 2129.96 242.737 Q2133.01 246.094 2133.01 251.881 M2128.75 250.631 Q2128.71 247.136 2126.79 245.052 Q2124.89 242.969 2121.74 242.969 Q2118.17 242.969 2116.02 244.983 Q2113.89 246.997 2113.57 250.654 L2128.75 250.631 Z" fill="#000000" fill-rule="evenodd" fill-opacity="1" /><path clip-path="url(#clip170)" d="M2156.53 240.747 L2156.53 244.774 Q2154.73 243.849 2152.78 243.386 Q2150.84 242.923 2148.75 242.923 Q2145.58 242.923 2143.98 243.895 Q2142.41 244.867 2142.41 246.811 Q2142.41 248.293 2143.54 249.149 Q2144.68 249.983 2148.11 250.747 L2149.56 251.071 Q2154.1 252.043 2156 253.825 Q2157.92 255.585 2157.92 258.756 Q2157.92 262.367 2155.05 264.473 Q2152.2 266.58 2147.2 266.58 Q2145.12 266.58 2142.85 266.163 Q2140.61 265.77 2138.11 264.96 L2138.11 260.561 Q2140.47 261.788 2142.76 262.413 Q2145.05 263.015 2147.29 263.015 Q2150.3 263.015 2151.92 261.997 Q2153.54 260.955 2153.54 259.08 Q2153.54 257.344 2152.36 256.418 Q2151.21 255.492 2147.25 254.636 L2145.77 254.288 Q2141.81 253.455 2140.05 251.742 Q2138.29 250.006 2138.29 246.997 Q2138.29 243.339 2140.88 241.349 Q2143.48 239.358 2148.24 239.358 Q2150.61 239.358 2152.69 239.705 Q2154.77 240.052 2156.53 240.747 Z" fill="#000000" fill-rule="evenodd" fill-opacity="1" /></svg>
