<?xml version="1.0" encoding="utf-8"?>
<svg xmlns="http://www.w3.org/2000/svg" xmlns:xlink="http://www.w3.org/1999/xlink" width="600" height="400" viewBox="0 0 2400 1600">
<defs>
  <clipPath id="clip090">
    <rect x="0" y="0" width="2400" height="1600"/>
  </clipPath>
</defs>
<path clip-path="url(#clip090)" d="
M0 1600 L2400 1600 L2400 0 L0 0  Z
  " fill="#ffffff" fill-rule="evenodd" fill-opacity="1"/>
<defs>
  <clipPath id="clip091">
    <rect x="480" y="0" width="1681" height="1600"/>
  </clipPath>
</defs>
<path clip-path="url(#clip090)" d="
M264.287 1423.18 L2352.76 1423.18 L2352.76 47.2441 L264.287 47.2441  Z
  " fill="#ffffff" fill-rule="evenodd" fill-opacity="1"/>
<defs>
  <clipPath id="clip092">
    <rect x="264" y="47" width="2089" height="1377"/>
  </clipPath>
</defs>
<polyline clip-path="url(#clip092)" style="stroke:#000000; stroke-linecap:butt; stroke-linejoin:round; stroke-width:2; stroke-opacity:0.1; fill:none" points="
  318.457,1423.18 318.457,47.2441 
  "/>
<polyline clip-path="url(#clip092)" style="stroke:#000000; stroke-linecap:butt; stroke-linejoin:round; stroke-width:2; stroke-opacity:0.1; fill:none" points="
  812.255,1423.18 812.255,47.2441 
  "/>
<polyline clip-path="url(#clip092)" style="stroke:#000000; stroke-linecap:butt; stroke-linejoin:round; stroke-width:2; stroke-opacity:0.1; fill:none" points="
  1306.05,1423.18 1306.05,47.2441 
  "/>
<polyline clip-path="url(#clip092)" style="stroke:#000000; stroke-linecap:butt; stroke-linejoin:round; stroke-width:2; stroke-opacity:0.1; fill:none" points="
  1799.85,1423.18 1799.85,47.2441 
  "/>
<polyline clip-path="url(#clip092)" style="stroke:#000000; stroke-linecap:butt; stroke-linejoin:round; stroke-width:2; stroke-opacity:0.1; fill:none" points="
  2293.65,1423.18 2293.65,47.2441 
  "/>
<polyline clip-path="url(#clip090)" style="stroke:#000000; stroke-linecap:butt; stroke-linejoin:round; stroke-width:4; stroke-opacity:1; fill:none" points="
  264.287,1423.18 2352.76,1423.18 
  "/>
<polyline clip-path="url(#clip090)" style="stroke:#000000; stroke-linecap:butt; stroke-linejoin:round; stroke-width:4; stroke-opacity:1; fill:none" points="
  318.457,1423.18 318.457,1404.28 
  "/>
<polyline clip-path="url(#clip090)" style="stroke:#000000; stroke-linecap:butt; stroke-linejoin:round; stroke-width:4; stroke-opacity:1; fill:none" points="
  812.255,1423.18 812.255,1404.28 
  "/>
<polyline clip-path="url(#clip090)" style="stroke:#000000; stroke-linecap:butt; stroke-linejoin:round; stroke-width:4; stroke-opacity:1; fill:none" points="
  1306.05,1423.18 1306.05,1404.28 
  "/>
<polyline clip-path="url(#clip090)" style="stroke:#000000; stroke-linecap:butt; stroke-linejoin:round; stroke-width:4; stroke-opacity:1; fill:none" points="
  1799.85,1423.18 1799.85,1404.28 
  "/>
<polyline clip-path="url(#clip090)" style="stroke:#000000; stroke-linecap:butt; stroke-linejoin:round; stroke-width:4; stroke-opacity:1; fill:none" points="
  2293.65,1423.18 2293.65,1404.28 
  "/>
<path clip-path="url(#clip090)" d="M318.457 1454.1 Q314.846 1454.1 313.017 1457.66 Q311.212 1461.2 311.212 1468.33 Q311.212 1475.44 313.017 1479.01 Q314.846 1482.55 318.457 1482.55 Q322.091 1482.55 323.897 1479.01 Q325.725 1475.44 325.725 1468.33 Q325.725 1461.2 323.897 1457.66 Q322.091 1454.1 318.457 1454.1 M318.457 1450.39 Q324.267 1450.39 327.323 1455 Q330.401 1459.58 330.401 1468.33 Q330.401 1477.06 327.323 1481.67 Q324.267 1486.25 318.457 1486.25 Q312.647 1486.25 309.568 1481.67 Q306.513 1477.06 306.513 1468.33 Q306.513 1459.58 309.568 1455 Q312.647 1450.39 318.457 1450.39 Z" fill="#000000" fill-rule="evenodd" fill-opacity="1" /><path clip-path="url(#clip090)" d="M771.861 1481.64 L779.5 1481.64 L779.5 1455.28 L771.19 1456.95 L771.19 1452.69 L779.454 1451.02 L784.13 1451.02 L784.13 1481.64 L791.769 1481.64 L791.769 1485.58 L771.861 1485.58 L771.861 1481.64 Z" fill="#000000" fill-rule="evenodd" fill-opacity="1" /><path clip-path="url(#clip090)" d="M811.213 1454.1 Q807.602 1454.1 805.773 1457.66 Q803.968 1461.2 803.968 1468.33 Q803.968 1475.44 805.773 1479.01 Q807.602 1482.55 811.213 1482.55 Q814.847 1482.55 816.653 1479.01 Q818.482 1475.44 818.482 1468.33 Q818.482 1461.2 816.653 1457.66 Q814.847 1454.1 811.213 1454.1 M811.213 1450.39 Q817.023 1450.39 820.079 1455 Q823.158 1459.58 823.158 1468.33 Q823.158 1477.06 820.079 1481.67 Q817.023 1486.25 811.213 1486.25 Q805.403 1486.25 802.324 1481.67 Q799.269 1477.06 799.269 1468.33 Q799.269 1459.58 802.324 1455 Q805.403 1450.39 811.213 1450.39 Z" fill="#000000" fill-rule="evenodd" fill-opacity="1" /><path clip-path="url(#clip090)" d="M841.375 1454.1 Q837.764 1454.1 835.935 1457.66 Q834.13 1461.2 834.13 1468.33 Q834.13 1475.44 835.935 1479.01 Q837.764 1482.55 841.375 1482.55 Q845.009 1482.55 846.815 1479.01 Q848.643 1475.44 848.643 1468.33 Q848.643 1461.2 846.815 1457.66 Q845.009 1454.1 841.375 1454.1 M841.375 1450.39 Q847.185 1450.39 850.241 1455 Q853.319 1459.58 853.319 1468.33 Q853.319 1477.06 850.241 1481.67 Q847.185 1486.25 841.375 1486.25 Q835.565 1486.25 832.486 1481.67 Q829.431 1477.06 829.431 1468.33 Q829.431 1459.58 832.486 1455 Q835.565 1450.39 841.375 1450.39 Z" fill="#000000" fill-rule="evenodd" fill-opacity="1" /><path clip-path="url(#clip090)" d="M1269.74 1481.64 L1286.06 1481.64 L1286.06 1485.58 L1264.12 1485.58 L1264.12 1481.64 Q1266.78 1478.89 1271.37 1474.26 Q1275.97 1469.61 1277.15 1468.27 Q1279.4 1465.74 1280.28 1464.01 Q1281.18 1462.25 1281.18 1460.56 Q1281.18 1457.8 1279.24 1456.07 Q1277.31 1454.33 1274.21 1454.33 Q1272.01 1454.33 1269.56 1455.09 Q1267.13 1455.86 1264.35 1457.41 L1264.35 1452.69 Q1267.18 1451.55 1269.63 1450.97 Q1272.08 1450.39 1274.12 1450.39 Q1279.49 1450.39 1282.68 1453.08 Q1285.88 1455.77 1285.88 1460.26 Q1285.88 1462.39 1285.07 1464.31 Q1284.28 1466.2 1282.18 1468.8 Q1281.6 1469.47 1278.49 1472.69 Q1275.39 1475.88 1269.74 1481.64 Z" fill="#000000" fill-rule="evenodd" fill-opacity="1" /><path clip-path="url(#clip090)" d="M1305.88 1454.1 Q1302.27 1454.1 1300.44 1457.66 Q1298.63 1461.2 1298.63 1468.33 Q1298.63 1475.44 1300.44 1479.01 Q1302.27 1482.55 1305.88 1482.55 Q1309.51 1482.55 1311.32 1479.01 Q1313.15 1475.44 1313.15 1468.33 Q1313.15 1461.2 1311.32 1457.66 Q1309.51 1454.1 1305.88 1454.1 M1305.88 1450.39 Q1311.69 1450.39 1314.74 1455 Q1317.82 1459.58 1317.82 1468.33 Q1317.82 1477.06 1314.74 1481.67 Q1311.69 1486.25 1305.88 1486.25 Q1300.07 1486.25 1296.99 1481.67 Q1293.93 1477.06 1293.93 1468.33 Q1293.93 1459.58 1296.99 1455 Q1300.07 1450.39 1305.88 1450.39 Z" fill="#000000" fill-rule="evenodd" fill-opacity="1" /><path clip-path="url(#clip090)" d="M1336.04 1454.1 Q1332.43 1454.1 1330.6 1457.66 Q1328.8 1461.2 1328.8 1468.33 Q1328.8 1475.44 1330.6 1479.01 Q1332.43 1482.55 1336.04 1482.55 Q1339.68 1482.55 1341.48 1479.01 Q1343.31 1475.44 1343.31 1468.33 Q1343.31 1461.2 1341.48 1457.66 Q1339.68 1454.1 1336.04 1454.1 M1336.04 1450.39 Q1341.85 1450.39 1344.91 1455 Q1347.99 1459.58 1347.99 1468.33 Q1347.99 1477.06 1344.91 1481.67 Q1341.85 1486.25 1336.04 1486.25 Q1330.23 1486.25 1327.15 1481.67 Q1324.1 1477.06 1324.1 1468.33 Q1324.1 1459.58 1327.15 1455 Q1330.23 1450.39 1336.04 1450.39 Z" fill="#000000" fill-rule="evenodd" fill-opacity="1" /><path clip-path="url(#clip090)" d="M1773.61 1466.95 Q1776.97 1467.66 1778.84 1469.93 Q1780.74 1472.2 1780.74 1475.53 Q1780.74 1480.65 1777.22 1483.45 Q1773.7 1486.25 1767.22 1486.25 Q1765.05 1486.25 1762.73 1485.81 Q1760.44 1485.39 1757.99 1484.54 L1757.99 1480.02 Q1759.93 1481.16 1762.25 1481.74 Q1764.56 1482.32 1767.08 1482.32 Q1771.48 1482.32 1773.77 1480.58 Q1776.09 1478.84 1776.09 1475.53 Q1776.09 1472.48 1773.94 1470.77 Q1771.81 1469.03 1767.99 1469.03 L1763.96 1469.03 L1763.96 1465.19 L1768.17 1465.19 Q1771.62 1465.19 1773.45 1463.82 Q1775.28 1462.43 1775.28 1459.84 Q1775.28 1457.18 1773.38 1455.77 Q1771.51 1454.33 1767.99 1454.33 Q1766.07 1454.33 1763.87 1454.75 Q1761.67 1455.16 1759.03 1456.04 L1759.03 1451.88 Q1761.69 1451.14 1764.01 1450.77 Q1766.34 1450.39 1768.4 1450.39 Q1773.73 1450.39 1776.83 1452.83 Q1779.93 1455.23 1779.93 1459.35 Q1779.93 1462.22 1778.29 1464.21 Q1776.64 1466.18 1773.61 1466.95 Z" fill="#000000" fill-rule="evenodd" fill-opacity="1" /><path clip-path="url(#clip090)" d="M1799.61 1454.1 Q1796 1454.1 1794.17 1457.66 Q1792.36 1461.2 1792.36 1468.33 Q1792.36 1475.44 1794.17 1479.01 Q1796 1482.55 1799.61 1482.55 Q1803.24 1482.55 1805.05 1479.01 Q1806.88 1475.44 1806.88 1468.33 Q1806.88 1461.2 1805.05 1457.66 Q1803.24 1454.1 1799.61 1454.1 M1799.61 1450.39 Q1805.42 1450.39 1808.47 1455 Q1811.55 1459.58 1811.55 1468.33 Q1811.55 1477.06 1808.47 1481.67 Q1805.42 1486.25 1799.61 1486.25 Q1793.8 1486.25 1790.72 1481.67 Q1787.66 1477.06 1787.66 1468.33 Q1787.66 1459.58 1790.72 1455 Q1793.8 1450.39 1799.61 1450.39 Z" fill="#000000" fill-rule="evenodd" fill-opacity="1" /><path clip-path="url(#clip090)" d="M1829.77 1454.1 Q1826.16 1454.1 1824.33 1457.66 Q1822.52 1461.2 1822.52 1468.33 Q1822.52 1475.44 1824.33 1479.01 Q1826.16 1482.55 1829.77 1482.55 Q1833.4 1482.55 1835.21 1479.01 Q1837.04 1475.44 1837.04 1468.33 Q1837.04 1461.2 1835.21 1457.66 Q1833.4 1454.1 1829.77 1454.1 M1829.77 1450.39 Q1835.58 1450.39 1838.63 1455 Q1841.71 1459.58 1841.71 1468.33 Q1841.71 1477.06 1838.63 1481.67 Q1835.58 1486.25 1829.77 1486.25 Q1823.96 1486.25 1820.88 1481.67 Q1817.82 1477.06 1817.82 1468.33 Q1817.82 1459.58 1820.88 1455 Q1823.96 1450.39 1829.77 1450.39 Z" fill="#000000" fill-rule="evenodd" fill-opacity="1" /><path clip-path="url(#clip090)" d="M2266.74 1455.09 L2254.93 1473.54 L2266.74 1473.54 L2266.74 1455.09 M2265.51 1451.02 L2271.39 1451.02 L2271.39 1473.54 L2276.32 1473.54 L2276.32 1477.43 L2271.39 1477.43 L2271.39 1485.58 L2266.74 1485.58 L2266.74 1477.43 L2251.14 1477.43 L2251.14 1472.92 L2265.51 1451.02 Z" fill="#000000" fill-rule="evenodd" fill-opacity="1" /><path clip-path="url(#clip090)" d="M2294.05 1454.1 Q2290.44 1454.1 2288.61 1457.66 Q2286.81 1461.2 2286.81 1468.33 Q2286.81 1475.44 2288.61 1479.01 Q2290.44 1482.55 2294.05 1482.55 Q2297.69 1482.55 2299.49 1479.01 Q2301.32 1475.44 2301.32 1468.33 Q2301.32 1461.2 2299.49 1457.66 Q2297.69 1454.1 2294.05 1454.1 M2294.05 1450.39 Q2299.86 1450.39 2302.92 1455 Q2306 1459.58 2306 1468.33 Q2306 1477.06 2302.92 1481.67 Q2299.86 1486.25 2294.05 1486.25 Q2288.24 1486.25 2285.16 1481.67 Q2282.11 1477.06 2282.11 1468.33 Q2282.11 1459.58 2285.16 1455 Q2288.24 1450.39 2294.05 1450.39 Z" fill="#000000" fill-rule="evenodd" fill-opacity="1" /><path clip-path="url(#clip090)" d="M2324.22 1454.1 Q2320.6 1454.1 2318.78 1457.66 Q2316.97 1461.2 2316.97 1468.33 Q2316.97 1475.44 2318.78 1479.01 Q2320.6 1482.55 2324.22 1482.55 Q2327.85 1482.55 2329.66 1479.01 Q2331.48 1475.44 2331.48 1468.33 Q2331.48 1461.2 2329.66 1457.66 Q2327.85 1454.1 2324.22 1454.1 M2324.22 1450.39 Q2330.03 1450.39 2333.08 1455 Q2336.16 1459.58 2336.16 1468.33 Q2336.16 1477.06 2333.08 1481.67 Q2330.03 1486.25 2324.22 1486.25 Q2318.41 1486.25 2315.33 1481.67 Q2312.27 1477.06 2312.27 1468.33 Q2312.27 1459.58 2315.33 1455 Q2318.41 1450.39 2324.22 1450.39 Z" fill="#000000" fill-rule="evenodd" fill-opacity="1" /><path clip-path="url(#clip090)" d="M1260.99 1537.81 L1260.99 1518.52 L1266.84 1518.52 L1266.84 1568.04 L1260.99 1568.04 L1260.99 1562.7 Q1259.14 1565.88 1256.31 1567.44 Q1253.51 1568.97 1249.56 1568.97 Q1243.1 1568.97 1239.02 1563.81 Q1234.98 1558.65 1234.98 1550.25 Q1234.98 1541.85 1239.02 1536.69 Q1243.1 1531.54 1249.56 1531.54 Q1253.51 1531.54 1256.31 1533.1 Q1259.14 1534.62 1260.99 1537.81 M1241.03 1550.25 Q1241.03 1556.71 1243.67 1560.4 Q1246.34 1564.07 1250.99 1564.07 Q1255.64 1564.07 1258.31 1560.4 Q1260.99 1556.71 1260.99 1550.25 Q1260.99 1543.79 1258.31 1540.13 Q1255.64 1536.44 1250.99 1536.44 Q1246.34 1536.44 1243.67 1540.13 Q1241.03 1543.79 1241.03 1550.25 Z" fill="#000000" fill-rule="evenodd" fill-opacity="1" /><path clip-path="url(#clip090)" d="M1295.11 1550.12 Q1288.01 1550.12 1285.27 1551.75 Q1282.53 1553.37 1282.53 1557.29 Q1282.53 1560.4 1284.57 1562.25 Q1286.64 1564.07 1290.17 1564.07 Q1295.04 1564.07 1297.97 1560.63 Q1300.93 1557.16 1300.93 1551.43 L1300.93 1550.12 L1295.11 1550.12 M1306.79 1547.71 L1306.79 1568.04 L1300.93 1568.04 L1300.93 1562.63 Q1298.93 1565.88 1295.93 1567.44 Q1292.94 1568.97 1288.61 1568.97 Q1283.14 1568.97 1279.89 1565.91 Q1276.68 1562.82 1276.68 1557.67 Q1276.68 1551.65 1280.69 1548.6 Q1284.73 1545.54 1292.72 1545.54 L1300.93 1545.54 L1300.93 1544.97 Q1300.93 1540.93 1298.26 1538.73 Q1295.62 1536.5 1290.81 1536.5 Q1287.75 1536.5 1284.86 1537.23 Q1281.96 1537.97 1279.29 1539.43 L1279.29 1534.02 Q1282.5 1532.78 1285.53 1532.17 Q1288.55 1531.54 1291.41 1531.54 Q1299.15 1531.54 1302.97 1535.55 Q1306.79 1539.56 1306.79 1547.71 Z" fill="#000000" fill-rule="evenodd" fill-opacity="1" /><path clip-path="url(#clip090)" d="M1333.68 1571.35 Q1331.2 1577.72 1328.84 1579.66 Q1326.49 1581.6 1322.54 1581.6 L1317.86 1581.6 L1317.86 1576.7 L1321.3 1576.7 Q1323.72 1576.7 1325.06 1575.56 Q1326.39 1574.41 1328.02 1570.14 L1329.07 1567.47 L1314.65 1532.4 L1320.86 1532.4 L1332 1560.28 L1343.14 1532.4 L1349.34 1532.4 L1333.68 1571.35 Z" fill="#000000" fill-rule="evenodd" fill-opacity="1" /><path clip-path="url(#clip090)" d="M1380.15 1533.45 L1380.15 1538.98 Q1377.67 1537.71 1375 1537.07 Q1372.32 1536.44 1369.46 1536.44 Q1365.1 1536.44 1362.9 1537.77 Q1360.74 1539.11 1360.74 1541.79 Q1360.74 1543.82 1362.3 1545 Q1363.86 1546.15 1368.57 1547.2 L1370.57 1547.64 Q1376.81 1548.98 1379.42 1551.43 Q1382.06 1553.85 1382.06 1558.21 Q1382.06 1563.17 1378.11 1566.07 Q1374.2 1568.97 1367.32 1568.97 Q1364.46 1568.97 1361.34 1568.39 Q1358.25 1567.85 1354.82 1566.74 L1354.82 1560.69 Q1358.06 1562.38 1361.21 1563.24 Q1364.36 1564.07 1367.45 1564.07 Q1371.59 1564.07 1373.82 1562.66 Q1376.05 1561.23 1376.05 1558.65 Q1376.05 1556.27 1374.42 1554.99 Q1372.83 1553.72 1367.39 1552.54 L1365.35 1552.07 Q1359.91 1550.92 1357.49 1548.56 Q1355.07 1546.18 1355.07 1542.04 Q1355.07 1537.01 1358.64 1534.27 Q1362.2 1531.54 1368.76 1531.54 Q1372 1531.54 1374.87 1532.01 Q1377.73 1532.49 1380.15 1533.45 Z" fill="#000000" fill-rule="evenodd" fill-opacity="1" /><polyline clip-path="url(#clip092)" style="stroke:#000000; stroke-linecap:butt; stroke-linejoin:round; stroke-width:2; stroke-opacity:0.1; fill:none" points="
  264.287,1384.24 2352.76,1384.24 
  "/>
<polyline clip-path="url(#clip092)" style="stroke:#000000; stroke-linecap:butt; stroke-linejoin:round; stroke-width:2; stroke-opacity:0.1; fill:none" points="
  264.287,1122.74 2352.76,1122.74 
  "/>
<polyline clip-path="url(#clip092)" style="stroke:#000000; stroke-linecap:butt; stroke-linejoin:round; stroke-width:2; stroke-opacity:0.1; fill:none" points="
  264.287,861.252 2352.76,861.252 
  "/>
<polyline clip-path="url(#clip092)" style="stroke:#000000; stroke-linecap:butt; stroke-linejoin:round; stroke-width:2; stroke-opacity:0.1; fill:none" points="
  264.287,599.758 2352.76,599.758 
  "/>
<polyline clip-path="url(#clip092)" style="stroke:#000000; stroke-linecap:butt; stroke-linejoin:round; stroke-width:2; stroke-opacity:0.1; fill:none" points="
  264.287,338.265 2352.76,338.265 
  "/>
<polyline clip-path="url(#clip092)" style="stroke:#000000; stroke-linecap:butt; stroke-linejoin:round; stroke-width:2; stroke-opacity:0.1; fill:none" points="
  264.287,76.7719 2352.76,76.7719 
  "/>
<polyline clip-path="url(#clip090)" style="stroke:#000000; stroke-linecap:butt; stroke-linejoin:round; stroke-width:4; stroke-opacity:1; fill:none" points="
  264.287,1423.18 264.287,47.2441 
  "/>
<polyline clip-path="url(#clip090)" style="stroke:#000000; stroke-linecap:butt; stroke-linejoin:round; stroke-width:4; stroke-opacity:1; fill:none" points="
  264.287,1384.24 283.185,1384.24 
  "/>
<polyline clip-path="url(#clip090)" style="stroke:#000000; stroke-linecap:butt; stroke-linejoin:round; stroke-width:4; stroke-opacity:1; fill:none" points="
  264.287,1122.74 283.185,1122.74 
  "/>
<polyline clip-path="url(#clip090)" style="stroke:#000000; stroke-linecap:butt; stroke-linejoin:round; stroke-width:4; stroke-opacity:1; fill:none" points="
  264.287,861.252 283.185,861.252 
  "/>
<polyline clip-path="url(#clip090)" style="stroke:#000000; stroke-linecap:butt; stroke-linejoin:round; stroke-width:4; stroke-opacity:1; fill:none" points="
  264.287,599.758 283.185,599.758 
  "/>
<polyline clip-path="url(#clip090)" style="stroke:#000000; stroke-linecap:butt; stroke-linejoin:round; stroke-width:4; stroke-opacity:1; fill:none" points="
  264.287,338.265 283.185,338.265 
  "/>
<polyline clip-path="url(#clip090)" style="stroke:#000000; stroke-linecap:butt; stroke-linejoin:round; stroke-width:4; stroke-opacity:1; fill:none" points="
  264.287,76.7719 283.185,76.7719 
  "/>
<path clip-path="url(#clip090)" d="M216.343 1370.04 Q212.732 1370.04 210.903 1373.6 Q209.098 1377.14 209.098 1384.27 Q209.098 1391.38 210.903 1394.94 Q212.732 1398.49 216.343 1398.49 Q219.977 1398.49 221.783 1394.94 Q223.611 1391.38 223.611 1384.27 Q223.611 1377.14 221.783 1373.6 Q219.977 1370.04 216.343 1370.04 M216.343 1366.33 Q222.153 1366.33 225.209 1370.94 Q228.287 1375.52 228.287 1384.27 Q228.287 1393 225.209 1397.61 Q222.153 1402.19 216.343 1402.19 Q210.533 1402.19 207.454 1397.61 Q204.399 1393 204.399 1384.27 Q204.399 1375.52 207.454 1370.94 Q210.533 1366.33 216.343 1366.33 Z" fill="#000000" fill-rule="evenodd" fill-opacity="1" /><path clip-path="url(#clip090)" d="M146.066 1105.46 L164.422 1105.46 L164.422 1109.4 L150.348 1109.4 L150.348 1117.87 Q151.366 1117.53 152.385 1117.36 Q153.403 1117.18 154.422 1117.18 Q160.209 1117.18 163.589 1120.35 Q166.968 1123.52 166.968 1128.94 Q166.968 1134.52 163.496 1137.62 Q160.024 1140.7 153.704 1140.7 Q151.528 1140.7 149.26 1140.33 Q147.015 1139.96 144.607 1139.21 L144.607 1134.52 Q146.691 1135.65 148.913 1136.21 Q151.135 1136.76 153.612 1136.76 Q157.616 1136.76 159.954 1134.65 Q162.292 1132.55 162.292 1128.94 Q162.292 1125.33 159.954 1123.22 Q157.616 1121.11 153.612 1121.11 Q151.737 1121.11 149.862 1121.53 Q148.01 1121.95 146.066 1122.83 L146.066 1105.46 Z" fill="#000000" fill-rule="evenodd" fill-opacity="1" /><path clip-path="url(#clip090)" d="M186.181 1108.54 Q182.57 1108.54 180.741 1112.11 Q178.936 1115.65 178.936 1122.78 Q178.936 1129.89 180.741 1133.45 Q182.57 1136.99 186.181 1136.99 Q189.815 1136.99 191.621 1133.45 Q193.45 1129.89 193.45 1122.78 Q193.45 1115.65 191.621 1112.11 Q189.815 1108.54 186.181 1108.54 M186.181 1104.84 Q191.991 1104.84 195.047 1109.45 Q198.125 1114.03 198.125 1122.78 Q198.125 1131.51 195.047 1136.11 Q191.991 1140.7 186.181 1140.7 Q180.371 1140.7 177.292 1136.11 Q174.237 1131.51 174.237 1122.78 Q174.237 1114.03 177.292 1109.45 Q180.371 1104.84 186.181 1104.84 Z" fill="#000000" fill-rule="evenodd" fill-opacity="1" /><path clip-path="url(#clip090)" d="M216.343 1108.54 Q212.732 1108.54 210.903 1112.11 Q209.098 1115.65 209.098 1122.78 Q209.098 1129.89 210.903 1133.45 Q212.732 1136.99 216.343 1136.99 Q219.977 1136.99 221.783 1133.45 Q223.611 1129.89 223.611 1122.78 Q223.611 1115.65 221.783 1112.11 Q219.977 1108.54 216.343 1108.54 M216.343 1104.84 Q222.153 1104.84 225.209 1109.45 Q228.287 1114.03 228.287 1122.78 Q228.287 1131.51 225.209 1136.11 Q222.153 1140.7 216.343 1140.7 Q210.533 1140.7 207.454 1136.11 Q204.399 1131.51 204.399 1122.78 Q204.399 1114.03 207.454 1109.45 Q210.533 1104.84 216.343 1104.84 Z" fill="#000000" fill-rule="evenodd" fill-opacity="1" /><path clip-path="url(#clip090)" d="M116.668 874.597 L124.306 874.597 L124.306 848.231 L115.996 849.898 L115.996 845.638 L124.26 843.972 L128.936 843.972 L128.936 874.597 L136.575 874.597 L136.575 878.532 L116.668 878.532 L116.668 874.597 Z" fill="#000000" fill-rule="evenodd" fill-opacity="1" /><path clip-path="url(#clip090)" d="M156.019 847.05 Q152.408 847.05 150.579 850.615 Q148.774 854.157 148.774 861.286 Q148.774 868.393 150.579 871.958 Q152.408 875.499 156.019 875.499 Q159.653 875.499 161.459 871.958 Q163.288 868.393 163.288 861.286 Q163.288 854.157 161.459 850.615 Q159.653 847.05 156.019 847.05 M156.019 843.347 Q161.829 843.347 164.885 847.953 Q167.964 852.536 167.964 861.286 Q167.964 870.013 164.885 874.62 Q161.829 879.203 156.019 879.203 Q150.209 879.203 147.13 874.62 Q144.075 870.013 144.075 861.286 Q144.075 852.536 147.13 847.953 Q150.209 843.347 156.019 843.347 Z" fill="#000000" fill-rule="evenodd" fill-opacity="1" /><path clip-path="url(#clip090)" d="M186.181 847.05 Q182.57 847.05 180.741 850.615 Q178.936 854.157 178.936 861.286 Q178.936 868.393 180.741 871.958 Q182.57 875.499 186.181 875.499 Q189.815 875.499 191.621 871.958 Q193.45 868.393 193.45 861.286 Q193.45 854.157 191.621 850.615 Q189.815 847.05 186.181 847.05 M186.181 843.347 Q191.991 843.347 195.047 847.953 Q198.125 852.536 198.125 861.286 Q198.125 870.013 195.047 874.62 Q191.991 879.203 186.181 879.203 Q180.371 879.203 177.292 874.62 Q174.237 870.013 174.237 861.286 Q174.237 852.536 177.292 847.953 Q180.371 843.347 186.181 843.347 Z" fill="#000000" fill-rule="evenodd" fill-opacity="1" /><path clip-path="url(#clip090)" d="M216.343 847.05 Q212.732 847.05 210.903 850.615 Q209.098 854.157 209.098 861.286 Q209.098 868.393 210.903 871.958 Q212.732 875.499 216.343 875.499 Q219.977 875.499 221.783 871.958 Q223.611 868.393 223.611 861.286 Q223.611 854.157 221.783 850.615 Q219.977 847.05 216.343 847.05 M216.343 843.347 Q222.153 843.347 225.209 847.953 Q228.287 852.536 228.287 861.286 Q228.287 870.013 225.209 874.62 Q222.153 879.203 216.343 879.203 Q210.533 879.203 207.454 874.62 Q204.399 870.013 204.399 861.286 Q204.399 852.536 207.454 847.953 Q210.533 843.347 216.343 843.347 Z" fill="#000000" fill-rule="evenodd" fill-opacity="1" /><path clip-path="url(#clip090)" d="M116.668 613.103 L124.306 613.103 L124.306 586.738 L115.996 588.404 L115.996 584.145 L124.26 582.478 L128.936 582.478 L128.936 613.103 L136.575 613.103 L136.575 617.038 L116.668 617.038 L116.668 613.103 Z" fill="#000000" fill-rule="evenodd" fill-opacity="1" /><path clip-path="url(#clip090)" d="M146.066 582.478 L164.422 582.478 L164.422 586.414 L150.348 586.414 L150.348 594.886 Q151.366 594.539 152.385 594.377 Q153.403 594.191 154.422 594.191 Q160.209 594.191 163.589 597.363 Q166.968 600.534 166.968 605.951 Q166.968 611.529 163.496 614.631 Q160.024 617.71 153.704 617.71 Q151.528 617.71 149.26 617.339 Q147.015 616.969 144.607 616.228 L144.607 611.529 Q146.691 612.663 148.913 613.219 Q151.135 613.775 153.612 613.775 Q157.616 613.775 159.954 611.668 Q162.292 609.562 162.292 605.951 Q162.292 602.339 159.954 600.233 Q157.616 598.127 153.612 598.127 Q151.737 598.127 149.862 598.543 Q148.01 598.96 146.066 599.839 L146.066 582.478 Z" fill="#000000" fill-rule="evenodd" fill-opacity="1" /><path clip-path="url(#clip090)" d="M186.181 585.557 Q182.57 585.557 180.741 589.122 Q178.936 592.664 178.936 599.793 Q178.936 606.9 180.741 610.464 Q182.57 614.006 186.181 614.006 Q189.815 614.006 191.621 610.464 Q193.45 606.9 193.45 599.793 Q193.45 592.664 191.621 589.122 Q189.815 585.557 186.181 585.557 M186.181 581.853 Q191.991 581.853 195.047 586.46 Q198.125 591.043 198.125 599.793 Q198.125 608.52 195.047 613.126 Q191.991 617.71 186.181 617.71 Q180.371 617.71 177.292 613.126 Q174.237 608.52 174.237 599.793 Q174.237 591.043 177.292 586.46 Q180.371 581.853 186.181 581.853 Z" fill="#000000" fill-rule="evenodd" fill-opacity="1" /><path clip-path="url(#clip090)" d="M216.343 585.557 Q212.732 585.557 210.903 589.122 Q209.098 592.664 209.098 599.793 Q209.098 606.9 210.903 610.464 Q212.732 614.006 216.343 614.006 Q219.977 614.006 221.783 610.464 Q223.611 606.9 223.611 599.793 Q223.611 592.664 221.783 589.122 Q219.977 585.557 216.343 585.557 M216.343 581.853 Q222.153 581.853 225.209 586.46 Q228.287 591.043 228.287 599.793 Q228.287 608.52 225.209 613.126 Q222.153 617.71 216.343 617.71 Q210.533 617.71 207.454 613.126 Q204.399 608.52 204.399 599.793 Q204.399 591.043 207.454 586.46 Q210.533 581.853 216.343 581.853 Z" fill="#000000" fill-rule="evenodd" fill-opacity="1" /><path clip-path="url(#clip090)" d="M119.885 351.61 L136.204 351.61 L136.204 355.545 L114.26 355.545 L114.26 351.61 Q116.922 348.855 121.505 344.226 Q126.112 339.573 127.292 338.23 Q129.538 335.707 130.417 333.971 Q131.32 332.212 131.32 330.522 Q131.32 327.768 129.376 326.031 Q127.455 324.295 124.353 324.295 Q122.154 324.295 119.7 325.059 Q117.269 325.823 114.492 327.374 L114.492 322.652 Q117.316 321.518 119.769 320.939 Q122.223 320.36 124.26 320.36 Q129.63 320.36 132.825 323.045 Q136.019 325.731 136.019 330.221 Q136.019 332.351 135.209 334.272 Q134.422 336.17 132.316 338.763 Q131.737 339.434 128.635 342.652 Q125.533 345.846 119.885 351.61 Z" fill="#000000" fill-rule="evenodd" fill-opacity="1" /><path clip-path="url(#clip090)" d="M156.019 324.064 Q152.408 324.064 150.579 327.629 Q148.774 331.17 148.774 338.3 Q148.774 345.406 150.579 348.971 Q152.408 352.513 156.019 352.513 Q159.653 352.513 161.459 348.971 Q163.288 345.406 163.288 338.3 Q163.288 331.17 161.459 327.629 Q159.653 324.064 156.019 324.064 M156.019 320.36 Q161.829 320.36 164.885 324.967 Q167.964 329.55 167.964 338.3 Q167.964 347.027 164.885 351.633 Q161.829 356.216 156.019 356.216 Q150.209 356.216 147.13 351.633 Q144.075 347.027 144.075 338.3 Q144.075 329.55 147.13 324.967 Q150.209 320.36 156.019 320.36 Z" fill="#000000" fill-rule="evenodd" fill-opacity="1" /><path clip-path="url(#clip090)" d="M186.181 324.064 Q182.57 324.064 180.741 327.629 Q178.936 331.17 178.936 338.3 Q178.936 345.406 180.741 348.971 Q182.57 352.513 186.181 352.513 Q189.815 352.513 191.621 348.971 Q193.45 345.406 193.45 338.3 Q193.45 331.17 191.621 327.629 Q189.815 324.064 186.181 324.064 M186.181 320.36 Q191.991 320.36 195.047 324.967 Q198.125 329.55 198.125 338.3 Q198.125 347.027 195.047 351.633 Q191.991 356.216 186.181 356.216 Q180.371 356.216 177.292 351.633 Q174.237 347.027 174.237 338.3 Q174.237 329.55 177.292 324.967 Q180.371 320.36 186.181 320.36 Z" fill="#000000" fill-rule="evenodd" fill-opacity="1" /><path clip-path="url(#clip090)" d="M216.343 324.064 Q212.732 324.064 210.903 327.629 Q209.098 331.17 209.098 338.3 Q209.098 345.406 210.903 348.971 Q212.732 352.513 216.343 352.513 Q219.977 352.513 221.783 348.971 Q223.611 345.406 223.611 338.3 Q223.611 331.17 221.783 327.629 Q219.977 324.064 216.343 324.064 M216.343 320.36 Q222.153 320.36 225.209 324.967 Q228.287 329.55 228.287 338.3 Q228.287 347.027 225.209 351.633 Q222.153 356.216 216.343 356.216 Q210.533 356.216 207.454 351.633 Q204.399 347.027 204.399 338.3 Q204.399 329.55 207.454 324.967 Q210.533 320.36 216.343 320.36 Z" fill="#000000" fill-rule="evenodd" fill-opacity="1" /><path clip-path="url(#clip090)" d="M119.885 90.1168 L136.204 90.1168 L136.204 94.0519 L114.26 94.0519 L114.26 90.1168 Q116.922 87.3621 121.505 82.7325 Q126.112 78.0798 127.292 76.7372 Q129.538 74.2141 130.417 72.478 Q131.32 70.7187 131.32 69.0289 Q131.32 66.2743 129.376 64.5382 Q127.455 62.8021 124.353 62.8021 Q122.154 62.8021 119.7 63.566 Q117.269 64.3299 114.492 65.8808 L114.492 61.1586 Q117.316 60.0243 119.769 59.4456 Q122.223 58.8669 124.26 58.8669 Q129.63 58.8669 132.825 61.5521 Q136.019 64.2373 136.019 68.728 Q136.019 70.8576 135.209 72.7789 Q134.422 74.677 132.316 77.2696 Q131.737 77.9409 128.635 81.1585 Q125.533 84.3529 119.885 90.1168 Z" fill="#000000" fill-rule="evenodd" fill-opacity="1" /><path clip-path="url(#clip090)" d="M146.066 59.4919 L164.422 59.4919 L164.422 63.4271 L150.348 63.4271 L150.348 71.8993 Q151.366 71.552 152.385 71.39 Q153.403 71.2048 154.422 71.2048 Q160.209 71.2048 163.589 74.3761 Q166.968 77.5474 166.968 82.964 Q166.968 88.5427 163.496 91.6445 Q160.024 94.7232 153.704 94.7232 Q151.528 94.7232 149.26 94.3528 Q147.015 93.9825 144.607 93.2417 L144.607 88.5427 Q146.691 89.6769 148.913 90.2325 Q151.135 90.788 153.612 90.788 Q157.616 90.788 159.954 88.6816 Q162.292 86.5751 162.292 82.964 Q162.292 79.3529 159.954 77.2464 Q157.616 75.14 153.612 75.14 Q151.737 75.14 149.862 75.5566 Q148.01 75.9733 146.066 76.8529 L146.066 59.4919 Z" fill="#000000" fill-rule="evenodd" fill-opacity="1" /><path clip-path="url(#clip090)" d="M186.181 62.5706 Q182.57 62.5706 180.741 66.1354 Q178.936 69.677 178.936 76.8066 Q178.936 83.9131 180.741 87.4779 Q182.57 91.0195 186.181 91.0195 Q189.815 91.0195 191.621 87.4779 Q193.45 83.9131 193.45 76.8066 Q193.45 69.677 191.621 66.1354 Q189.815 62.5706 186.181 62.5706 M186.181 58.8669 Q191.991 58.8669 195.047 63.4734 Q198.125 68.0567 198.125 76.8066 Q198.125 85.5334 195.047 90.1399 Q191.991 94.7232 186.181 94.7232 Q180.371 94.7232 177.292 90.1399 Q174.237 85.5334 174.237 76.8066 Q174.237 68.0567 177.292 63.4734 Q180.371 58.8669 186.181 58.8669 Z" fill="#000000" fill-rule="evenodd" fill-opacity="1" /><path clip-path="url(#clip090)" d="M216.343 62.5706 Q212.732 62.5706 210.903 66.1354 Q209.098 69.677 209.098 76.8066 Q209.098 83.9131 210.903 87.4779 Q212.732 91.0195 216.343 91.0195 Q219.977 91.0195 221.783 87.4779 Q223.611 83.9131 223.611 76.8066 Q223.611 69.677 221.783 66.1354 Q219.977 62.5706 216.343 62.5706 M216.343 58.8669 Q222.153 58.8669 225.209 63.4734 Q228.287 68.0567 228.287 76.8066 Q228.287 85.5334 225.209 90.1399 Q222.153 94.7232 216.343 94.7232 Q210.533 94.7232 207.454 90.1399 Q204.399 85.5334 204.399 76.8066 Q204.399 68.0567 207.454 63.4734 Q210.533 58.8669 216.343 58.8669 Z" fill="#000000" fill-rule="evenodd" fill-opacity="1" /><path clip-path="url(#clip090)" d="M29.7248 795.527 L35.1993 795.527 Q33.8307 798.01 33.1623 800.524 Q32.4621 803.007 32.4621 805.553 Q32.4621 811.25 36.0905 814.401 Q39.6872 817.552 46.212 817.552 Q52.7369 817.552 56.3653 814.401 Q59.9619 811.25 59.9619 805.553 Q59.9619 803.007 59.2935 800.524 Q58.5933 798.01 57.2247 795.527 L62.6355 795.527 Q63.7814 797.978 64.3543 800.62 Q64.9272 803.23 64.9272 806.19 Q64.9272 814.242 59.8664 818.985 Q54.8057 823.727 46.212 823.727 Q37.491 823.727 32.4939 818.953 Q27.4968 814.147 27.4968 805.808 Q27.4968 803.102 28.0697 800.524 Q28.6108 797.946 29.7248 795.527 Z" fill="#000000" fill-rule="evenodd" fill-opacity="1" /><path clip-path="url(#clip090)" d="M46.0847 769.141 Q46.0847 776.239 47.7079 778.976 Q49.3312 781.713 53.2461 781.713 Q56.3653 781.713 58.2114 779.676 Q60.0256 777.608 60.0256 774.075 Q60.0256 769.205 56.5881 766.277 Q53.1188 763.317 47.3897 763.317 L46.0847 763.317 L46.0847 769.141 M43.6657 757.46 L64.0042 757.46 L64.0042 763.317 L58.5933 763.317 Q61.8398 765.322 63.3994 768.314 Q64.9272 771.306 64.9272 775.634 Q64.9272 781.109 61.8716 784.355 Q58.7843 787.57 53.6281 787.57 Q47.6125 787.57 44.5569 783.56 Q41.5014 779.517 41.5014 771.528 L41.5014 763.317 L40.9285 763.317 Q36.8862 763.317 34.6901 765.99 Q32.4621 768.632 32.4621 773.438 Q32.4621 776.494 33.1941 779.39 Q33.9262 782.286 35.3903 784.96 L29.9795 784.96 Q28.7381 781.745 28.1334 778.722 Q27.4968 775.698 27.4968 772.833 Q27.4968 765.099 31.5072 761.28 Q35.5176 757.46 43.6657 757.46 Z" fill="#000000" fill-rule="evenodd" fill-opacity="1" /><path clip-path="url(#clip090)" d="M29.4065 722.672 L34.9447 722.672 Q33.6716 725.154 33.035 727.828 Q32.3984 730.501 32.3984 733.366 Q32.3984 737.726 33.7352 739.923 Q35.072 742.087 37.7456 742.087 Q39.7826 742.087 40.9603 740.527 Q42.1061 738.968 43.1565 734.257 L43.6021 732.252 Q44.9389 726.014 47.3897 723.404 Q49.8086 720.762 54.1691 720.762 Q59.1344 720.762 62.0308 724.709 Q64.9272 728.623 64.9272 735.498 Q64.9272 738.363 64.3543 741.482 Q63.8132 744.57 62.6992 748.007 L56.6518 748.007 Q58.3387 744.761 59.198 741.61 Q60.0256 738.458 60.0256 735.371 Q60.0256 731.233 58.6251 729.005 Q57.1929 726.777 54.6147 726.777 Q52.2276 726.777 50.9545 728.401 Q49.6813 729.992 48.5037 735.435 L48.0262 737.472 Q46.8804 742.914 44.5251 745.333 Q42.138 747.752 38.0002 747.752 Q32.9713 747.752 30.2341 744.188 Q27.4968 740.623 27.4968 734.066 Q27.4968 730.82 27.9743 727.955 Q28.4517 725.09 29.4065 722.672 Z" fill="#000000" fill-rule="evenodd" fill-opacity="1" /><path clip-path="url(#clip090)" d="M44.7161 680.944 L47.5806 680.944 L47.5806 707.871 Q53.6281 707.489 56.8109 704.243 Q59.9619 700.964 59.9619 695.14 Q59.9619 691.766 59.1344 688.615 Q58.3069 685.432 56.6518 682.313 L62.1899 682.313 Q63.5267 685.464 64.227 688.774 Q64.9272 692.084 64.9272 695.49 Q64.9272 704.02 59.9619 709.017 Q54.9967 713.982 46.5303 713.982 Q37.7774 713.982 32.6531 709.272 Q27.4968 704.529 27.4968 696.508 Q27.4968 689.315 32.1438 685.146 Q36.7589 680.944 44.7161 680.944 M42.9973 686.801 Q38.1912 686.864 35.3266 689.506 Q32.4621 692.116 32.4621 696.445 Q32.4621 701.346 35.2312 704.306 Q38.0002 707.235 43.0292 707.68 L42.9973 686.801 Z" fill="#000000" fill-rule="evenodd" fill-opacity="1" /><path clip-path="url(#clip090)" d="M29.4065 648.607 L34.9447 648.607 Q33.6716 651.089 33.035 653.763 Q32.3984 656.436 32.3984 659.301 Q32.3984 663.661 33.7352 665.858 Q35.072 668.022 37.7456 668.022 Q39.7826 668.022 40.9603 666.462 Q42.1061 664.903 43.1565 660.192 L43.6021 658.187 Q44.9389 651.949 47.3897 649.339 Q49.8086 646.697 54.1691 646.697 Q59.1344 646.697 62.0308 650.644 Q64.9272 654.558 64.9272 661.433 Q64.9272 664.298 64.3543 667.417 Q63.8132 670.505 62.6992 673.942 L56.6518 673.942 Q58.3387 670.696 59.198 667.545 Q60.0256 664.393 60.0256 661.306 Q60.0256 657.168 58.6251 654.94 Q57.1929 652.712 54.6147 652.712 Q52.2276 652.712 50.9545 654.336 Q49.6813 655.927 48.5037 661.37 L48.0262 663.407 Q46.8804 668.849 44.5251 671.268 Q42.138 673.687 38.0002 673.687 Q32.9713 673.687 30.2341 670.123 Q27.4968 666.558 27.4968 660.001 Q27.4968 656.755 27.9743 653.89 Q28.4517 651.025 29.4065 648.607 Z" fill="#000000" fill-rule="evenodd" fill-opacity="1" /><polyline clip-path="url(#clip092)" style="stroke:#009af9; stroke-linecap:butt; stroke-linejoin:round; stroke-width:4; stroke-opacity:1; fill:none" points="
  323.395,86.1857 328.333,90.3696 333.271,94.5535 338.209,103.967 343.147,113.381 348.085,128.025 353.023,135.346 357.961,149.467 362.899,164.634 367.837,185.553 
  372.775,208.565 377.713,227.392 382.651,253.018 387.589,281.26 392.527,308.455 397.465,334.604 402.403,372.782 407.341,403.639 412.279,443.385 417.217,477.38 
  422.154,506.667 427.092,535.431 432.03,577.27 436.968,611.787 441.906,640.551 446.844,684.482 451.782,721.614 456.72,770.252 461.658,810.522 466.596,843.993 
  471.534,877.987 476.472,908.321 481.41,950.682 486.348,975.263 491.286,1014.49 496.224,1046.91 501.162,1065.22 506.1,1082.48 511.038,1108.1 515.976,1118.04 
  520.914,1138.43 525.852,1159.35 530.79,1164.06 535.728,1174.52 540.666,1172.43 545.604,1186.55 550.542,1202.76 555.48,1203.28 560.418,1209.56 565.356,1206.42 
  570.294,1210.61 575.232,1224.73 580.17,1229.96 585.108,1229.43 590.046,1230.48 594.984,1225.77 599.922,1221.59 604.86,1224.73 609.798,1225.25 614.736,1228.39 
  619.674,1218.97 624.612,1230.48 629.55,1228.39 634.488,1227.87 639.426,1242.51 644.364,1229.43 649.301,1217.93 654.239,1214.27 659.177,1214.27 664.115,1218.45 
  669.053,1227.34 673.991,1228.39 678.929,1233.1 683.867,1224.73 688.805,1224.2 693.743,1222.11 698.681,1221.07 703.619,1223.68 708.557,1226.82 713.495,1222.11 
  718.433,1229.96 723.371,1218.97 728.309,1224.73 733.247,1214.27 738.185,1211.13 743.123,1207.47 748.061,1212.18 752.999,1208.51 757.937,1208.51 762.875,1208.51 
  767.813,1217.41 772.751,1215.84 777.689,1205.9 782.627,1206.42 787.565,1201.19 792.503,1206.95 797.441,1205.38 802.379,1203.28 807.317,1192.3 812.255,1197.53 
  817.193,1199.62 822.131,1206.42 827.069,1209.56 832.007,1214.79 836.945,1211.65 841.883,1213.74 846.821,1217.41 851.759,1218.45 856.697,1217.93 861.635,1212.18 
  866.573,1209.56 871.511,1212.7 876.449,1218.97 881.386,1222.64 886.324,1214.27 891.262,1213.22 896.2,1207.99 901.138,1207.47 906.076,1207.47 911.014,1211.65 
  915.952,1208.51 920.89,1211.65 925.828,1208.51 930.766,1205.9 935.704,1217.93 940.642,1212.18 945.58,1216.88 950.518,1207.47 955.456,1196.49 960.394,1200.15 
  965.332,1199.62 970.27,1199.62 975.208,1199.1 980.146,1191.78 985.084,1191.78 990.022,1200.15 994.96,1198.58 999.898,1190.73 1004.84,1188.64 1009.77,1192.3 
  1014.71,1190.21 1019.65,1191.78 1024.59,1183.93 1029.53,1184.98 1034.46,1189.16 1039.4,1182.37 1044.34,1180.8 1049.28,1188.64 1054.22,1183.93 1059.15,1183.41 
  1064.09,1181.84 1069.03,1179.75 1073.97,1176.61 1078.91,1178.18 1083.84,1177.14 1088.78,1177.66 1093.72,1178.18 1098.66,1177.66 1103.6,1176.09 1108.53,1180.27 
  1113.47,1183.93 1118.41,1183.93 1123.35,1182.37 1128.29,1179.23 1133.22,1177.14 1138.16,1180.27 1143.1,1178.18 1148.04,1174.52 1152.98,1175.57 1157.91,1172.95 
  1162.85,1171.91 1167.79,1171.38 1172.73,1169.81 1177.67,1170.34 1182.6,1175.04 1187.54,1176.09 1192.48,1179.23 1197.42,1180.27 1202.36,1177.14 1207.29,1178.7 
  1212.23,1179.75 1217.17,1179.23 1222.11,1176.09 1227.04,1173.47 1231.98,1172.95 1236.92,1166.68 1241.86,1169.29 1246.8,1164.06 1251.73,1163.01 1256.67,1161.97 
  1261.61,1163.01 1266.55,1166.15 1271.49,1167.2 1276.42,1166.15 1281.36,1170.34 1286.3,1167.72 1291.24,1168.24 1296.18,1163.54 1301.11,1158.83 1306.05,1155.69 
  1310.99,1152.56 1315.93,1152.56 1320.87,1156.22 1325.8,1156.22 1330.74,1155.69 1335.68,1154.65 1340.62,1154.65 1345.56,1153.08 1350.49,1154.12 1355.43,1150.99 
  1360.37,1152.56 1365.31,1153.08 1370.25,1153.08 1375.18,1151.51 1380.12,1153.08 1385.06,1152.56 1390,1154.65 1394.94,1152.56 1399.87,1152.03 1404.81,1147.85 
  1409.75,1146.8 1414.69,1146.8 1419.63,1146.8 1424.56,1148.37 1429.5,1148.89 1434.44,1153.6 1439.38,1153.6 1444.32,1155.69 1449.25,1155.69 1454.19,1159.88 
  1459.13,1158.83 1464.07,1158.83 1469.01,1156.22 1473.94,1154.65 1478.88,1153.6 1483.82,1152.03 1488.76,1155.17 1493.7,1153.08 1498.63,1152.56 1503.57,1150.46 
  1508.51,1151.51 1513.45,1148.89 1518.39,1150.46 1523.32,1149.42 1528.26,1148.37 1533.2,1147.85 1538.14,1144.71 1543.08,1142.1 1548.01,1143.14 1552.95,1144.19 
  1557.89,1142.62 1562.83,1145.23 1567.77,1144.71 1572.7,1142.1 1577.64,1143.66 1582.58,1144.19 1587.52,1142.1 1592.46,1140 1597.39,1136.87 1602.33,1137.39 
  1607.27,1136.87 1612.21,1137.39 1617.15,1136.34 1622.08,1138.43 1627.02,1136.87 1631.96,1137.91 1636.9,1136.87 1641.84,1133.73 1646.77,1134.25 1651.71,1134.25 
  1656.65,1134.77 1661.59,1133.73 1666.53,1133.73 1671.46,1131.64 1676.4,1130.07 1681.34,1130.07 1686.28,1131.11 1691.21,1133.73 1696.15,1134.77 1701.09,1137.39 
  1706.03,1136.34 1710.97,1135.82 1715.9,1134.77 1720.84,1133.2 1725.78,1132.16 1730.72,1132.68 1735.66,1132.68 1740.59,1133.2 1745.53,1133.73 1750.47,1131.64 
  1755.41,1133.73 1760.35,1132.16 1765.28,1132.68 1770.22,1131.64 1775.16,1130.59 1780.1,1130.59 1785.04,1130.59 1789.97,1131.64 1794.91,1129.54 1799.85,1130.07 
  1804.79,1132.16 1809.73,1131.64 1814.66,1130.59 1819.6,1129.54 1824.54,1127.97 1829.48,1126.93 1834.42,1127.45 1839.35,1126.41 1844.29,1126.41 1849.23,1125.88 
  1854.17,1126.93 1859.11,1126.93 1864.04,1127.45 1868.98,1129.02 1873.92,1127.45 1878.86,1128.5 1883.8,1128.5 1888.73,1128.5 1893.67,1126.41 1898.61,1125.88 
  1903.55,1127.45 1908.49,1125.88 1913.42,1124.31 1918.36,1122.74 1923.3,1122.22 1928.24,1121.7 1933.18,1121.7 1938.11,1121.18 1943.05,1121.7 1947.99,1121.7 
  1952.93,1122.74 1957.87,1121.18 1962.8,1121.18 1967.74,1121.7 1972.68,1121.7 1977.62,1120.65 1982.56,1119.61 1987.49,1119.61 1992.43,1119.61 1997.37,1118.04 
  2002.31,1118.56 2007.25,1119.08 2012.18,1119.08 2017.12,1118.04 2022.06,1118.56 2027,1118.04 2031.94,1119.61 2036.87,1119.61 2041.81,1119.61 2046.75,1120.13 
  2051.69,1119.61 2056.63,1118.56 2061.56,1119.08 2066.5,1119.61 2071.44,1119.08 2076.38,1118.56 2081.32,1119.08 2086.25,1119.08 2091.19,1118.56 2096.13,1115.95 
  2101.07,1115.95 2106.01,1114.9 2110.94,1115.42 2115.88,1115.95 2120.82,1115.95 2125.76,1114.9 2130.7,1116.47 2135.63,1116.47 2140.57,1115.95 2145.51,1115.95 
  2150.45,1115.95 2155.38,1116.47 2160.32,1116.47 2165.26,1115.95 2170.2,1116.47 2175.14,1116.47 2180.07,1116.47 2185.01,1116.47 2189.95,1116.47 2194.89,1116.47 
  2199.83,1115.95 2204.76,1116.47 2209.7,1116.47 2214.64,1115.95 2219.58,1115.42 2224.52,1115.42 2229.45,1115.42 2234.39,1115.42 2239.33,1114.38 2244.27,1114.38 
  2249.21,1114.38 2254.14,1114.38 2259.08,1113.85 2264.02,1113.33 2268.96,1114.38 2273.9,1115.42 2278.83,1115.42 2283.77,1115.42 2288.71,1115.42 2293.65,1115.95 
  
  "/>
<polyline clip-path="url(#clip092)" style="stroke:#e26f46; stroke-linecap:butt; stroke-linejoin:round; stroke-width:4; stroke-opacity:1; fill:none" points="
  323.395,1374.82 328.333,1370.64 333.271,1366.98 338.209,1357.57 343.147,1349.2 348.085,1334.55 353.023,1327.23 357.961,1313.11 362.899,1300.56 367.837,1281.21 
  372.775,1260.81 377.713,1242.51 382.651,1217.41 387.589,1191.26 392.527,1166.15 397.465,1144.19 402.403,1107.58 407.341,1079.34 412.279,1043.77 417.217,1012.92 
  422.154,986.768 427.092,961.142 432.03,924.01 436.968,894.2 441.906,868.051 446.844,830.919 451.782,799.539 456.72,757.7 461.658,726.844 466.596,699.126 
  471.534,672.454 476.472,648.919 481.41,612.31 486.348,598.189 491.286,572.04 496.224,545.891 501.162,537 506.1,532.816 511.038,515.558 515.976,517.127 
  520.914,516.604 525.852,505.098 530.79,508.759 535.728,504.575 540.666,515.035 545.604,511.374 550.542,505.621 555.48,512.42 560.418,517.65 565.356,532.816 
  570.294,539.092 575.232,531.247 580.17,534.385 585.108,543.276 590.046,548.506 594.984,560.011 599.922,573.609 604.86,580.931 609.798,588.776 614.736,592.437 
  619.674,612.31 624.612,610.741 629.55,619.632 634.488,631.138 639.426,623.293 644.364,643.166 649.301,664.609 654.239,678.206 659.177,683.959 664.115,687.62 
  669.053,685.005 673.991,692.85 678.929,695.465 683.867,709.586 688.805,717.953 693.743,724.752 698.681,731.551 703.619,735.212 708.557,739.396 713.495,748.81 
  718.433,747.241 723.371,768.16 728.309,774.436 733.247,793.786 738.185,805.815 743.123,814.183 748.061,815.229 752.999,822.551 757.937,825.689 762.875,830.396 
  767.813,826.735 772.751,835.102 777.689,848.7 782.627,854.453 787.565,862.298 792.503,863.867 797.441,871.188 802.379,878.51 807.317,893.154 812.255,892.108 
  817.193,897.338 822.131,893.677 827.069,899.43 832.007,898.907 836.945,909.889 841.883,914.073 846.821,917.211 851.759,920.872 856.697,925.579 861.635,938.654 
  866.573,947.545 871.511,950.159 876.449,948.59 881.386,949.636 886.324,962.188 891.262,964.803 896.2,974.217 901.138,976.832 906.076,980.493 911.014,979.447 
  915.952,986.246 920.89,986.246 925.828,995.136 930.766,1002.98 935.704,996.705 940.642,1006.12 945.58,1005.6 950.518,1018.67 955.456,1033.84 960.394,1034.88 
  965.332,1038.54 970.27,1042.21 975.208,1045.34 980.146,1055.28 985.084,1059.46 990.022,1055.28 994.96,1059.99 999.898,1071.49 1004.84,1077.25 1009.77,1076.2 
  1014.71,1080.38 1019.65,1080.91 1024.59,1090.32 1029.53,1092.41 1034.46,1090.32 1039.4,1099.73 1044.34,1102.35 1049.28,1097.12 1054.22,1102.35 1059.15,1104.96 
  1064.09,1109.15 1069.03,1112.81 1073.97,1119.08 1078.91,1119.08 1083.84,1123.27 1088.78,1125.88 1093.72,1128.5 1098.66,1131.11 1103.6,1137.39 1108.53,1136.34 
  1113.47,1135.82 1118.41,1138.96 1123.35,1141.57 1128.29,1149.94 1133.22,1154.65 1138.16,1154.12 1143.1,1159.88 1148.04,1166.68 1152.98,1167.2 1157.91,1172.95 
  1162.85,1177.14 1167.79,1179.23 1172.73,1181.84 1177.67,1183.93 1182.6,1180.8 1187.54,1182.89 1192.48,1180.27 1197.42,1182.89 1202.36,1187.6 1207.29,1188.12 
  1212.23,1187.6 1217.17,1190.73 1222.11,1195.44 1227.04,1200.67 1231.98,1203.81 1236.92,1212.18 1241.86,1211.65 1246.8,1219.5 1251.73,1221.59 1256.67,1223.16 
  1261.61,1222.64 1266.55,1222.64 1271.49,1224.73 1276.42,1227.34 1281.36,1225.25 1286.3,1228.39 1291.24,1229.96 1296.18,1238.33 1301.11,1245.12 1306.05,1249.31 
  1310.99,1252.97 1315.93,1254.54 1320.87,1251.92 1325.8,1254.54 1330.74,1256.63 1335.68,1260.29 1340.62,1260.81 1345.56,1263.95 1350.49,1263.95 1355.43,1268.14 
  1360.37,1268.14 1365.31,1269.18 1370.25,1270.23 1375.18,1272.32 1380.12,1271.27 1385.06,1272.32 1390,1270.23 1394.94,1273.37 1399.87,1274.93 1404.81,1279.12 
  1409.75,1281.21 1414.69,1281.73 1419.63,1282.26 1424.56,1281.73 1429.5,1282.78 1434.44,1279.12 1439.38,1281.21 1444.32,1280.69 1449.25,1281.21 1454.19,1277.55 
  1459.13,1280.16 1464.07,1281.73 1469.01,1285.39 1473.94,1289.05 1478.88,1290.62 1483.82,1293.24 1488.76,1290.62 1493.7,1293.24 1498.63,1294.28 1503.57,1296.9 
  1508.51,1295.85 1513.45,1299.51 1518.39,1297.95 1523.32,1298.99 1528.26,1300.56 1533.2,1301.61 1538.14,1305.27 1543.08,1308.41 1548.01,1307.88 1552.95,1306.84 
  1557.89,1308.41 1562.83,1305.79 1567.77,1307.36 1572.7,1310.5 1577.64,1310.5 1582.58,1311.02 1587.52,1313.64 1592.46,1317.82 1597.39,1322 1602.33,1322.53 
  1607.27,1324.09 1612.21,1324.09 1617.15,1326.19 1622.08,1324.62 1627.02,1326.71 1631.96,1326.19 1636.9,1327.76 1641.84,1330.89 1646.77,1331.42 1651.71,1331.94 
  1656.65,1331.42 1661.59,1332.46 1666.53,1333.51 1671.46,1335.6 1676.4,1338.22 1681.34,1339.26 1686.28,1339.26 1691.21,1337.17 1696.15,1336.12 1701.09,1334.55 
  1706.03,1335.6 1710.97,1336.65 1715.9,1337.69 1720.84,1339.78 1725.78,1340.83 1730.72,1340.31 1735.66,1340.31 1740.59,1339.78 1745.53,1339.26 1750.47,1341.35 
  1755.41,1339.26 1760.35,1341.88 1765.28,1341.88 1770.22,1342.92 1775.16,1343.97 1780.1,1344.49 1785.04,1344.49 1789.97,1343.45 1794.91,1346.06 1799.85,1345.54 
  1804.79,1343.97 1809.73,1344.49 1814.66,1346.06 1819.6,1347.11 1824.54,1348.68 1829.48,1350.24 1834.42,1351.29 1839.35,1352.86 1844.29,1353.38 1849.23,1353.91 
  1854.17,1352.86 1859.11,1353.38 1864.04,1352.86 1868.98,1352.34 1873.92,1354.43 1878.86,1353.38 1883.8,1353.38 1888.73,1353.91 1893.67,1356 1898.61,1356.52 
  1903.55,1354.95 1908.49,1357.57 1913.42,1359.66 1918.36,1361.23 1923.3,1361.75 1928.24,1362.27 1933.18,1362.27 1938.11,1362.8 1943.05,1362.27 1947.99,1362.27 
  1952.93,1361.23 1957.87,1363.32 1962.8,1363.32 1967.74,1362.8 1972.68,1362.8 1977.62,1363.84 1982.56,1365.41 1987.49,1365.41 1992.43,1366.46 1997.37,1368.03 
  2002.31,1367.5 2007.25,1366.98 2012.18,1366.98 2017.12,1368.03 2022.06,1368.03 2027,1368.55 2031.94,1367.5 2036.87,1368.03 2041.81,1368.03 2046.75,1367.5 
  2051.69,1368.03 2056.63,1369.07 2061.56,1368.55 2066.5,1368.03 2071.44,1369.07 2076.38,1369.59 2081.32,1369.07 2086.25,1369.07 2091.19,1369.59 2096.13,1372.21 
  2101.07,1372.73 2106.01,1373.78 2110.94,1373.26 2115.88,1373.26 2120.82,1373.26 2125.76,1374.3 2130.7,1372.73 2135.63,1372.73 2140.57,1373.26 2145.51,1373.26 
  2150.45,1373.26 2155.38,1372.73 2160.32,1372.73 2165.26,1373.78 2170.2,1373.26 2175.14,1373.78 2180.07,1373.78 2185.01,1374.3 2189.95,1374.3 2194.89,1374.3 
  2199.83,1375.35 2204.76,1374.82 2209.7,1375.35 2214.64,1375.87 2219.58,1376.39 2224.52,1376.92 2229.45,1376.92 2234.39,1376.92 2239.33,1377.96 2244.27,1378.49 
  2249.21,1378.49 2254.14,1378.49 2259.08,1379.01 2264.02,1379.53 2268.96,1378.49 2273.9,1377.44 2278.83,1377.44 2283.77,1377.44 2288.71,1377.44 2293.65,1376.92 
  
  "/>
<polyline clip-path="url(#clip092)" style="stroke:#3da44d; stroke-linecap:butt; stroke-linejoin:round; stroke-width:4; stroke-opacity:1; fill:none" points="
  323.395,1384.24 328.333,1384.24 333.271,1383.72 338.209,1383.72 343.147,1382.67 348.085,1382.67 353.023,1382.67 357.961,1382.67 362.899,1380.05 367.837,1378.49 
  372.775,1375.87 377.713,1375.35 382.651,1374.82 387.589,1372.73 392.527,1370.64 397.465,1366.46 402.403,1364.89 407.341,1362.27 412.279,1358.09 417.217,1354.95 
  422.154,1351.81 427.092,1348.68 432.03,1343.97 436.968,1339.26 441.906,1336.65 446.844,1329.85 451.782,1324.09 456.72,1317.3 461.658,1307.88 466.596,1302.13 
  471.534,1294.81 476.472,1288.01 481.41,1282.26 486.348,1271.8 491.286,1258.72 496.224,1252.45 501.162,1243.03 506.1,1229.96 511.038,1221.59 515.976,1210.08 
  520.914,1190.21 525.852,1180.8 530.79,1172.43 535.728,1166.15 540.666,1157.79 545.604,1147.33 550.542,1136.87 555.48,1129.54 560.418,1118.04 565.356,1106.01 
  570.294,1095.55 575.232,1089.27 580.17,1080.91 585.108,1072.54 590.046,1066.26 594.984,1059.46 599.922,1050.05 604.86,1039.59 609.798,1031.22 614.736,1024.42 
  619.674,1013.96 624.612,1004.03 629.55,997.228 634.488,986.246 639.426,979.447 644.364,972.648 649.301,962.711 654.239,952.774 659.177,947.022 664.115,939.177 
  669.053,932.901 673.991,924.01 678.929,916.688 683.867,910.935 688.805,903.091 693.743,898.384 698.681,892.631 703.619,886.355 708.557,879.033 713.495,874.326 
  718.433,868.051 723.371,858.114 728.309,846.085 733.247,837.194 738.185,828.304 743.123,823.597 748.061,817.844 752.999,814.183 757.937,811.045 762.875,806.338 
  767.813,801.108 772.751,794.309 777.689,790.649 782.627,784.373 787.565,781.758 792.503,774.436 797.441,768.683 802.379,763.453 807.317,759.792 812.255,755.608 
  817.193,748.287 822.131,745.149 827.069,736.258 832.007,731.551 836.945,723.706 841.883,717.43 846.821,710.632 851.759,705.925 856.697,701.741 861.635,694.419 
  866.573,688.143 871.511,682.39 876.449,677.683 881.386,672.977 886.324,668.793 891.262,667.224 896.2,663.04 901.138,660.948 906.076,657.287 911.014,654.149 
  915.952,650.488 920.89,647.35 925.828,641.597 930.766,636.368 935.704,630.615 940.642,626.954 945.58,622.77 950.518,619.109 955.456,614.925 960.394,610.218 
  965.332,607.08 970.27,603.419 975.208,600.804 980.146,598.189 985.084,594.006 990.022,589.822 994.96,586.684 999.898,583.023 1004.84,579.362 1009.77,576.747 
  1014.71,574.655 1019.65,572.563 1024.59,570.994 1029.53,567.856 1034.46,565.764 1039.4,563.149 1044.34,562.103 1049.28,559.488 1054.22,558.966 1059.15,556.874 
  1064.09,554.259 1069.03,552.69 1073.97,549.552 1078.91,547.983 1083.84,544.845 1088.78,541.707 1093.72,538.569 1098.66,536.477 1103.6,531.77 1108.53,528.632 
  1113.47,525.494 1118.41,522.356 1123.35,521.31 1128.29,516.081 1133.22,513.466 1138.16,510.851 1143.1,507.19 1148.04,504.052 1152.98,502.483 1157.91,499.345 
  1162.85,496.207 1167.79,494.638 1172.73,493.592 1177.67,490.977 1182.6,489.408 1187.54,486.27 1192.48,485.747 1197.42,482.086 1202.36,480.518 1207.29,478.426 
  1212.23,477.903 1217.17,475.288 1222.11,473.719 1227.04,471.104 1231.98,468.489 1236.92,466.397 1241.86,464.305 1246.8,461.69 1251.73,460.644 1256.67,460.121 
  1261.61,459.598 1266.55,456.46 1271.49,453.322 1276.42,451.753 1281.36,449.661 1286.3,449.138 1291.24,447.046 1296.18,443.385 1301.11,441.294 1306.05,440.248 
  1310.99,439.725 1315.93,438.156 1320.87,437.11 1325.8,434.495 1330.74,432.926 1335.68,430.311 1340.62,429.788 1345.56,428.219 1350.49,427.173 1355.43,426.127 
  1360.37,424.558 1365.31,422.989 1370.25,421.943 1375.18,421.42 1380.12,420.897 1385.06,420.374 1390,420.374 1394.94,419.328 1399.87,418.282 1404.81,418.282 
  1409.75,417.236 1414.69,416.713 1419.63,416.19 1424.56,415.144 1429.5,413.575 1434.44,412.529 1439.38,410.437 1444.32,408.868 1449.25,408.345 1454.19,407.822 
  1459.13,406.253 1464.07,404.684 1469.01,403.639 1473.94,401.547 1478.88,401.024 1483.82,399.978 1488.76,399.455 1493.7,398.932 1498.63,398.409 1503.57,397.886 
  1508.51,397.886 1513.45,396.84 1518.39,396.84 1523.32,396.84 1528.26,396.317 1533.2,395.794 1538.14,395.271 1543.08,394.748 1548.01,394.225 1552.95,394.225 
  1557.89,394.225 1562.83,394.225 1567.77,393.179 1572.7,392.656 1577.64,391.087 1582.58,390.041 1587.52,389.518 1592.46,387.426 1597.39,386.38 1602.33,385.334 
  1607.27,384.288 1612.21,383.765 1617.15,382.719 1622.08,382.196 1627.02,381.673 1631.96,381.15 1636.9,380.627 1641.84,380.627 1646.77,379.581 1651.71,379.058 
  1656.65,379.058 1661.59,379.058 1666.53,378.012 1671.46,378.012 1676.4,376.966 1681.34,375.92 1686.28,374.874 1691.21,374.351 1696.15,374.351 1701.09,373.305 
  1706.03,373.305 1710.97,372.782 1715.9,372.782 1720.84,372.259 1725.78,372.259 1730.72,372.259 1735.66,372.259 1740.59,372.259 1745.53,372.259 1750.47,372.259 
  1755.41,372.259 1760.35,371.213 1765.28,370.69 1770.22,370.69 1775.16,370.69 1780.1,370.167 1785.04,370.167 1789.97,370.167 1794.91,369.644 1799.85,369.644 
  1804.79,369.121 1809.73,369.121 1814.66,368.598 1819.6,368.598 1824.54,368.598 1829.48,368.075 1834.42,366.506 1839.35,365.983 1844.29,365.46 1849.23,365.46 
  1854.17,365.46 1859.11,364.937 1864.04,364.937 1868.98,363.892 1873.92,363.369 1878.86,363.369 1883.8,363.369 1888.73,362.846 1893.67,362.846 1898.61,362.846 
  1903.55,362.846 1908.49,361.8 1913.42,361.277 1918.36,361.277 1923.3,361.277 1928.24,361.277 1933.18,361.277 1938.11,361.277 1943.05,361.277 1947.99,361.277 
  1952.93,361.277 1957.87,360.754 1962.8,360.754 1967.74,360.754 1972.68,360.754 1977.62,360.754 1982.56,360.231 1987.49,360.231 1992.43,359.185 1997.37,359.185 
  2002.31,359.185 2007.25,359.185 2012.18,359.185 2017.12,359.185 2022.06,358.662 2027,358.662 2031.94,358.139 2036.87,357.616 2041.81,357.616 2046.75,357.616 
  2051.69,357.616 2056.63,357.616 2061.56,357.616 2066.5,357.616 2071.44,357.093 2076.38,357.093 2081.32,357.093 2086.25,357.093 2091.19,357.093 2096.13,357.093 
  2101.07,356.57 2106.01,356.57 2110.94,356.57 2115.88,356.047 2120.82,356.047 2125.76,356.047 2130.7,356.047 2135.63,356.047 2140.57,356.047 2145.51,356.047 
  2150.45,356.047 2155.38,356.047 2160.32,356.047 2165.26,355.524 2170.2,355.524 2175.14,355.001 2180.07,355.001 2185.01,354.478 2189.95,354.478 2194.89,354.478 
  2199.83,353.955 2204.76,353.955 2209.7,353.432 2214.64,353.432 2219.58,353.432 2224.52,352.909 2229.45,352.909 2234.39,352.909 2239.33,352.909 2244.27,352.386 
  2249.21,352.386 2254.14,352.386 2259.08,352.386 2264.02,352.386 2268.96,352.386 2273.9,352.386 2278.83,352.386 2283.77,352.386 2288.71,352.386 2293.65,352.386 
  
  "/>
<path clip-path="url(#clip090)" d="
M1716.14 300.469 L2283.14 300.469 L2283.14 93.1086 L1716.14 93.1086  Z
  " fill="#ffffff" fill-rule="evenodd" fill-opacity="1"/>
<polyline clip-path="url(#clip090)" style="stroke:#000000; stroke-linecap:butt; stroke-linejoin:round; stroke-width:4; stroke-opacity:1; fill:none" points="
  1716.14,300.469 2283.14,300.469 2283.14,93.1086 1716.14,93.1086 1716.14,300.469 
  "/>
<polyline clip-path="url(#clip090)" style="stroke:#009af9; stroke-linecap:butt; stroke-linejoin:round; stroke-width:4; stroke-opacity:1; fill:none" points="
  1739.34,144.949 1878.57,144.949 
  "/>
<path clip-path="url(#clip090)" d="M1923.49 146.581 L1923.49 162.229 L1919.23 162.229 L1919.23 146.719 Q1919.23 143.039 1917.8 141.21 Q1916.36 139.382 1913.49 139.382 Q1910.04 139.382 1908.05 141.581 Q1906.06 143.78 1906.06 147.576 L1906.06 162.229 L1901.78 162.229 L1901.78 126.21 L1906.06 126.21 L1906.06 140.331 Q1907.59 137.993 1909.65 136.835 Q1911.73 135.678 1914.44 135.678 Q1918.91 135.678 1921.2 138.456 Q1923.49 141.21 1923.49 146.581 Z" fill="#000000" fill-rule="evenodd" fill-opacity="1" /><path clip-path="url(#clip090)" d="M1954.16 148.201 L1954.16 150.284 L1934.58 150.284 Q1934.86 154.682 1937.22 156.997 Q1939.6 159.289 1943.84 159.289 Q1946.29 159.289 1948.58 158.687 Q1950.9 158.085 1953.17 156.881 L1953.17 160.909 Q1950.87 161.881 1948.47 162.391 Q1946.06 162.9 1943.58 162.9 Q1937.38 162.9 1933.75 159.289 Q1930.13 155.678 1930.13 149.52 Q1930.13 143.155 1933.56 139.428 Q1937.01 135.678 1942.84 135.678 Q1948.07 135.678 1951.11 139.057 Q1954.16 142.414 1954.16 148.201 M1949.9 146.951 Q1949.86 143.456 1947.94 141.372 Q1946.04 139.289 1942.89 139.289 Q1939.32 139.289 1937.17 141.303 Q1935.04 143.317 1934.72 146.974 L1949.9 146.951 Z" fill="#000000" fill-rule="evenodd" fill-opacity="1" /><path clip-path="url(#clip090)" d="M1972.93 149.196 Q1967.77 149.196 1965.78 150.377 Q1963.79 151.557 1963.79 154.405 Q1963.79 156.673 1965.27 158.016 Q1966.78 159.335 1969.35 159.335 Q1972.89 159.335 1975.02 156.835 Q1977.17 154.312 1977.17 150.145 L1977.17 149.196 L1972.93 149.196 M1981.43 147.437 L1981.43 162.229 L1977.17 162.229 L1977.17 158.293 Q1975.71 160.655 1973.54 161.789 Q1971.36 162.9 1968.21 162.9 Q1964.23 162.9 1961.87 160.678 Q1959.53 158.432 1959.53 154.682 Q1959.53 150.307 1962.45 148.085 Q1965.39 145.863 1971.2 145.863 L1977.17 145.863 L1977.17 145.446 Q1977.17 142.507 1975.23 140.909 Q1973.31 139.289 1969.81 139.289 Q1967.59 139.289 1965.48 139.821 Q1963.37 140.354 1961.43 141.419 L1961.43 137.483 Q1963.77 136.581 1965.97 136.141 Q1968.17 135.678 1970.25 135.678 Q1975.87 135.678 1978.65 138.594 Q1981.43 141.511 1981.43 147.437 Z" fill="#000000" fill-rule="evenodd" fill-opacity="1" /><path clip-path="url(#clip090)" d="M1990.2 126.21 L1994.46 126.21 L1994.46 162.229 L1990.2 162.229 L1990.2 126.21 Z" fill="#000000" fill-rule="evenodd" fill-opacity="1" /><path clip-path="url(#clip090)" d="M2007.59 128.942 L2007.59 136.303 L2016.36 136.303 L2016.36 139.613 L2007.59 139.613 L2007.59 153.687 Q2007.59 156.858 2008.44 157.761 Q2009.32 158.664 2011.99 158.664 L2016.36 158.664 L2016.36 162.229 L2011.99 162.229 Q2007.06 162.229 2005.18 160.4 Q2003.31 158.548 2003.31 153.687 L2003.31 139.613 L2000.18 139.613 L2000.18 136.303 L2003.31 136.303 L2003.31 128.942 L2007.59 128.942 Z" fill="#000000" fill-rule="evenodd" fill-opacity="1" /><path clip-path="url(#clip090)" d="M2043.51 146.581 L2043.51 162.229 L2039.25 162.229 L2039.25 146.719 Q2039.25 143.039 2037.82 141.21 Q2036.38 139.382 2033.51 139.382 Q2030.06 139.382 2028.07 141.581 Q2026.08 143.78 2026.08 147.576 L2026.08 162.229 L2021.8 162.229 L2021.8 126.21 L2026.08 126.21 L2026.08 140.331 Q2027.61 137.993 2029.67 136.835 Q2031.75 135.678 2034.46 135.678 Q2038.93 135.678 2041.22 138.456 Q2043.51 141.21 2043.51 146.581 Z" fill="#000000" fill-rule="evenodd" fill-opacity="1" /><path clip-path="url(#clip090)" d="M2062.8 164.636 Q2060.99 169.266 2059.28 170.678 Q2057.56 172.09 2054.69 172.09 L2051.29 172.09 L2051.29 168.525 L2053.79 168.525 Q2055.55 168.525 2056.52 167.692 Q2057.49 166.858 2058.68 163.756 L2059.44 161.812 L2048.95 136.303 L2053.47 136.303 L2061.57 156.581 L2069.67 136.303 L2074.18 136.303 L2062.8 164.636 Z" fill="#000000" fill-rule="evenodd" fill-opacity="1" /><path clip-path="url(#clip090)" d="M2113.79 137.298 L2113.79 141.28 Q2111.99 140.284 2110.16 139.798 Q2108.35 139.289 2106.5 139.289 Q2102.36 139.289 2100.06 141.928 Q2097.77 144.544 2097.77 149.289 Q2097.77 154.034 2100.06 156.673 Q2102.36 159.289 2106.5 159.289 Q2108.35 159.289 2110.16 158.803 Q2111.99 158.293 2113.79 157.298 L2113.79 161.233 Q2112.01 162.067 2110.09 162.483 Q2108.19 162.9 2106.04 162.9 Q2100.18 162.9 2096.73 159.219 Q2093.28 155.539 2093.28 149.289 Q2093.28 142.946 2096.75 139.312 Q2100.25 135.678 2106.31 135.678 Q2108.28 135.678 2110.16 136.095 Q2112.03 136.488 2113.79 137.298 Z" fill="#000000" fill-rule="evenodd" fill-opacity="1" /><path clip-path="url(#clip090)" d="M2132.98 149.196 Q2127.82 149.196 2125.83 150.377 Q2123.84 151.557 2123.84 154.405 Q2123.84 156.673 2125.32 158.016 Q2126.82 159.335 2129.39 159.335 Q2132.93 159.335 2135.06 156.835 Q2137.22 154.312 2137.22 150.145 L2137.22 149.196 L2132.98 149.196 M2141.48 147.437 L2141.48 162.229 L2137.22 162.229 L2137.22 158.293 Q2135.76 160.655 2133.58 161.789 Q2131.41 162.9 2128.26 162.9 Q2124.28 162.9 2121.92 160.678 Q2119.58 158.432 2119.58 154.682 Q2119.58 150.307 2122.49 148.085 Q2125.43 145.863 2131.24 145.863 L2137.22 145.863 L2137.22 145.446 Q2137.22 142.507 2135.27 140.909 Q2133.35 139.289 2129.86 139.289 Q2127.63 139.289 2125.53 139.821 Q2123.42 140.354 2121.48 141.419 L2121.48 137.483 Q2123.81 136.581 2126.01 136.141 Q2128.21 135.678 2130.3 135.678 Q2135.92 135.678 2138.7 138.594 Q2141.48 141.511 2141.48 147.437 Z" fill="#000000" fill-rule="evenodd" fill-opacity="1" /><path clip-path="url(#clip090)" d="M2166.78 137.067 L2166.78 141.094 Q2164.97 140.169 2163.03 139.706 Q2161.08 139.243 2159 139.243 Q2155.83 139.243 2154.23 140.215 Q2152.66 141.187 2152.66 143.131 Q2152.66 144.613 2153.79 145.469 Q2154.92 146.303 2158.35 147.067 L2159.81 147.391 Q2164.35 148.363 2166.24 150.145 Q2168.17 151.905 2168.17 155.076 Q2168.17 158.687 2165.3 160.793 Q2162.45 162.9 2157.45 162.9 Q2155.36 162.9 2153.1 162.483 Q2150.85 162.09 2148.35 161.28 L2148.35 156.881 Q2150.71 158.108 2153 158.733 Q2155.3 159.335 2157.54 159.335 Q2160.55 159.335 2162.17 158.317 Q2163.79 157.275 2163.79 155.4 Q2163.79 153.664 2162.61 152.738 Q2161.45 151.812 2157.49 150.956 L2156.01 150.608 Q2152.05 149.775 2150.3 148.062 Q2148.54 146.326 2148.54 143.317 Q2148.54 139.659 2151.13 137.669 Q2153.72 135.678 2158.49 135.678 Q2160.85 135.678 2162.93 136.025 Q2165.02 136.372 2166.78 137.067 Z" fill="#000000" fill-rule="evenodd" fill-opacity="1" /><path clip-path="url(#clip090)" d="M2197.12 148.201 L2197.12 150.284 L2177.54 150.284 Q2177.82 154.682 2180.18 156.997 Q2182.56 159.289 2186.8 159.289 Q2189.25 159.289 2191.54 158.687 Q2193.86 158.085 2196.13 156.881 L2196.13 160.909 Q2193.84 161.881 2191.43 162.391 Q2189.02 162.9 2186.54 162.9 Q2180.34 162.9 2176.71 159.289 Q2173.1 155.678 2173.1 149.52 Q2173.1 143.155 2176.52 139.428 Q2179.97 135.678 2185.8 135.678 Q2191.04 135.678 2194.07 139.057 Q2197.12 142.414 2197.12 148.201 M2192.86 146.951 Q2192.82 143.456 2190.9 141.372 Q2189 139.289 2185.85 139.289 Q2182.29 139.289 2180.13 141.303 Q2178 143.317 2177.68 146.974 L2192.86 146.951 Z" fill="#000000" fill-rule="evenodd" fill-opacity="1" /><path clip-path="url(#clip090)" d="M2220.64 137.067 L2220.64 141.094 Q2218.84 140.169 2216.89 139.706 Q2214.95 139.243 2212.86 139.243 Q2209.69 139.243 2208.1 140.215 Q2206.52 141.187 2206.52 143.131 Q2206.52 144.613 2207.66 145.469 Q2208.79 146.303 2212.22 147.067 L2213.67 147.391 Q2218.21 148.363 2220.11 150.145 Q2222.03 151.905 2222.03 155.076 Q2222.03 158.687 2219.16 160.793 Q2216.31 162.9 2211.31 162.9 Q2209.23 162.9 2206.96 162.483 Q2204.72 162.09 2202.22 161.28 L2202.22 156.881 Q2204.58 158.108 2206.87 158.733 Q2209.16 159.335 2211.41 159.335 Q2214.42 159.335 2216.04 158.317 Q2217.66 157.275 2217.66 155.4 Q2217.66 153.664 2216.48 152.738 Q2215.32 151.812 2211.36 150.956 L2209.88 150.608 Q2205.92 149.775 2204.16 148.062 Q2202.4 146.326 2202.4 143.317 Q2202.4 139.659 2204.99 137.669 Q2207.59 135.678 2212.36 135.678 Q2214.72 135.678 2216.8 136.025 Q2218.88 136.372 2220.64 137.067 Z" fill="#000000" fill-rule="evenodd" fill-opacity="1" /><polyline clip-path="url(#clip090)" style="stroke:#e26f46; stroke-linecap:butt; stroke-linejoin:round; stroke-width:4; stroke-opacity:1; fill:none" points="
  1739.34,196.789 1878.57,196.789 
  "/>
<path clip-path="url(#clip090)" d="M1901.78 188.143 L1906.04 188.143 L1906.04 214.069 L1901.78 214.069 L1901.78 188.143 M1901.78 178.05 L1906.04 178.05 L1906.04 183.444 L1901.78 183.444 L1901.78 178.05 Z" fill="#000000" fill-rule="evenodd" fill-opacity="1" /><path clip-path="url(#clip090)" d="M1936.5 198.421 L1936.5 214.069 L1932.24 214.069 L1932.24 198.559 Q1932.24 194.879 1930.81 193.05 Q1929.37 191.222 1926.5 191.222 Q1923.05 191.222 1921.06 193.421 Q1919.07 195.62 1919.07 199.416 L1919.07 214.069 L1914.79 214.069 L1914.79 188.143 L1919.07 188.143 L1919.07 192.171 Q1920.6 189.833 1922.66 188.675 Q1924.74 187.518 1927.45 187.518 Q1931.92 187.518 1934.21 190.296 Q1936.5 193.05 1936.5 198.421 Z" fill="#000000" fill-rule="evenodd" fill-opacity="1" /><path clip-path="url(#clip090)" d="M1958.12 178.05 L1958.12 181.592 L1954.05 181.592 Q1951.75 181.592 1950.85 182.518 Q1949.97 183.444 1949.97 185.851 L1949.97 188.143 L1956.99 188.143 L1956.99 191.453 L1949.97 191.453 L1949.97 214.069 L1945.69 214.069 L1945.69 191.453 L1941.62 191.453 L1941.62 188.143 L1945.69 188.143 L1945.69 186.337 Q1945.69 182.009 1947.7 180.041 Q1949.72 178.05 1954.09 178.05 L1958.12 178.05 Z" fill="#000000" fill-rule="evenodd" fill-opacity="1" /><path clip-path="url(#clip090)" d="M1983.86 200.041 L1983.86 202.124 L1964.28 202.124 Q1964.56 206.522 1966.92 208.837 Q1969.3 211.129 1973.54 211.129 Q1975.99 211.129 1978.28 210.527 Q1980.6 209.925 1982.87 208.721 L1982.87 212.749 Q1980.57 213.721 1978.17 214.231 Q1975.76 214.74 1973.28 214.74 Q1967.08 214.74 1963.44 211.129 Q1959.83 207.518 1959.83 201.36 Q1959.83 194.995 1963.26 191.268 Q1966.71 187.518 1972.54 187.518 Q1977.77 187.518 1980.81 190.897 Q1983.86 194.254 1983.86 200.041 M1979.6 198.791 Q1979.56 195.296 1977.63 193.212 Q1975.74 191.129 1972.59 191.129 Q1969.02 191.129 1966.87 193.143 Q1964.74 195.157 1964.42 198.814 L1979.6 198.791 Z" fill="#000000" fill-rule="evenodd" fill-opacity="1" /><path clip-path="url(#clip090)" d="M2009.51 189.138 L2009.51 193.12 Q2007.7 192.124 2005.87 191.638 Q2004.07 191.129 2002.22 191.129 Q1998.07 191.129 1995.78 193.768 Q1993.49 196.384 1993.49 201.129 Q1993.49 205.874 1995.78 208.513 Q1998.07 211.129 2002.22 211.129 Q2004.07 211.129 2005.87 210.643 Q2007.7 210.133 2009.51 209.138 L2009.51 213.073 Q2007.73 213.907 2005.81 214.323 Q2003.91 214.74 2001.75 214.74 Q1995.9 214.74 1992.45 211.059 Q1989 207.379 1989 201.129 Q1989 194.786 1992.47 191.152 Q1995.97 187.518 2002.03 187.518 Q2004 187.518 2005.87 187.935 Q2007.75 188.328 2009.51 189.138 Z" fill="#000000" fill-rule="evenodd" fill-opacity="1" /><path clip-path="url(#clip090)" d="M2021.13 180.782 L2021.13 188.143 L2029.9 188.143 L2029.9 191.453 L2021.13 191.453 L2021.13 205.527 Q2021.13 208.698 2021.99 209.601 Q2022.87 210.504 2025.53 210.504 L2029.9 210.504 L2029.9 214.069 L2025.53 214.069 Q2020.6 214.069 2018.72 212.24 Q2016.85 210.388 2016.85 205.527 L2016.85 191.453 L2013.72 191.453 L2013.72 188.143 L2016.85 188.143 L2016.85 180.782 L2021.13 180.782 Z" fill="#000000" fill-rule="evenodd" fill-opacity="1" /><path clip-path="url(#clip090)" d="M2057.68 200.041 L2057.68 202.124 L2038.1 202.124 Q2038.37 206.522 2040.74 208.837 Q2043.12 211.129 2047.36 211.129 Q2049.81 211.129 2052.1 210.527 Q2054.42 209.925 2056.68 208.721 L2056.68 212.749 Q2054.39 213.721 2051.99 214.231 Q2049.58 214.74 2047.1 214.74 Q2040.9 214.74 2037.26 211.129 Q2033.65 207.518 2033.65 201.36 Q2033.65 194.995 2037.08 191.268 Q2040.53 187.518 2046.36 187.518 Q2051.59 187.518 2054.62 190.897 Q2057.68 194.254 2057.68 200.041 M2053.42 198.791 Q2053.37 195.296 2051.45 193.212 Q2049.55 191.129 2046.41 191.129 Q2042.84 191.129 2040.69 193.143 Q2038.56 195.157 2038.24 198.814 L2053.42 198.791 Z" fill="#000000" fill-rule="evenodd" fill-opacity="1" /><path clip-path="url(#clip090)" d="M2081.73 192.078 L2081.73 178.05 L2085.99 178.05 L2085.99 214.069 L2081.73 214.069 L2081.73 210.18 Q2080.39 212.495 2078.33 213.629 Q2076.29 214.74 2073.42 214.74 Q2068.72 214.74 2065.76 210.99 Q2062.82 207.24 2062.82 201.129 Q2062.82 195.018 2065.76 191.268 Q2068.72 187.518 2073.42 187.518 Q2076.29 187.518 2078.33 188.652 Q2080.39 189.763 2081.73 192.078 M2067.22 201.129 Q2067.22 205.828 2069.14 208.513 Q2071.08 211.175 2074.46 211.175 Q2077.84 211.175 2079.79 208.513 Q2081.73 205.828 2081.73 201.129 Q2081.73 196.43 2079.79 193.768 Q2077.84 191.083 2074.46 191.083 Q2071.08 191.083 2069.14 193.768 Q2067.22 196.43 2067.22 201.129 Z" fill="#000000" fill-rule="evenodd" fill-opacity="1" /><path clip-path="url(#clip090)" d="M2128.49 189.138 L2128.49 193.12 Q2126.68 192.124 2124.86 191.638 Q2123.05 191.129 2121.2 191.129 Q2117.05 191.129 2114.76 193.768 Q2112.47 196.384 2112.47 201.129 Q2112.47 205.874 2114.76 208.513 Q2117.05 211.129 2121.2 211.129 Q2123.05 211.129 2124.86 210.643 Q2126.68 210.133 2128.49 209.138 L2128.49 213.073 Q2126.71 213.907 2124.79 214.323 Q2122.89 214.74 2120.74 214.74 Q2114.88 214.74 2111.43 211.059 Q2107.98 207.379 2107.98 201.129 Q2107.98 194.786 2111.45 191.152 Q2114.95 187.518 2121.01 187.518 Q2122.98 187.518 2124.86 187.935 Q2126.73 188.328 2128.49 189.138 Z" fill="#000000" fill-rule="evenodd" fill-opacity="1" /><path clip-path="url(#clip090)" d="M2147.68 201.036 Q2142.52 201.036 2140.53 202.217 Q2138.54 203.397 2138.54 206.245 Q2138.54 208.513 2140.02 209.856 Q2141.52 211.175 2144.09 211.175 Q2147.63 211.175 2149.76 208.675 Q2151.92 206.152 2151.92 201.985 L2151.92 201.036 L2147.68 201.036 M2156.17 199.277 L2156.17 214.069 L2151.92 214.069 L2151.92 210.133 Q2150.46 212.495 2148.28 213.629 Q2146.11 214.74 2142.96 214.74 Q2138.98 214.74 2136.61 212.518 Q2134.28 210.272 2134.28 206.522 Q2134.28 202.147 2137.19 199.925 Q2140.13 197.703 2145.94 197.703 L2151.92 197.703 L2151.92 197.286 Q2151.92 194.347 2149.97 192.749 Q2148.05 191.129 2144.55 191.129 Q2142.33 191.129 2140.23 191.661 Q2138.12 192.194 2136.17 193.259 L2136.17 189.323 Q2138.51 188.421 2140.71 187.981 Q2142.91 187.518 2144.99 187.518 Q2150.62 187.518 2153.4 190.434 Q2156.17 193.351 2156.17 199.277 Z" fill="#000000" fill-rule="evenodd" fill-opacity="1" /><path clip-path="url(#clip090)" d="M2181.48 188.907 L2181.48 192.934 Q2179.67 192.009 2177.73 191.546 Q2175.78 191.083 2173.7 191.083 Q2170.53 191.083 2168.93 192.055 Q2167.36 193.027 2167.36 194.971 Q2167.36 196.453 2168.49 197.309 Q2169.62 198.143 2173.05 198.907 L2174.51 199.231 Q2179.04 200.203 2180.94 201.985 Q2182.86 203.745 2182.86 206.916 Q2182.86 210.527 2179.99 212.633 Q2177.15 214.74 2172.15 214.74 Q2170.06 214.74 2167.8 214.323 Q2165.55 213.93 2163.05 213.12 L2163.05 208.721 Q2165.41 209.948 2167.7 210.573 Q2169.99 211.175 2172.24 211.175 Q2175.25 211.175 2176.87 210.157 Q2178.49 209.115 2178.49 207.24 Q2178.49 205.504 2177.31 204.578 Q2176.15 203.652 2172.19 202.796 L2170.71 202.448 Q2166.75 201.615 2164.99 199.902 Q2163.23 198.166 2163.23 195.157 Q2163.23 191.499 2165.83 189.509 Q2168.42 187.518 2173.19 187.518 Q2175.55 187.518 2177.63 187.865 Q2179.72 188.212 2181.48 188.907 Z" fill="#000000" fill-rule="evenodd" fill-opacity="1" /><path clip-path="url(#clip090)" d="M2211.82 200.041 L2211.82 202.124 L2192.24 202.124 Q2192.52 206.522 2194.88 208.837 Q2197.26 211.129 2201.5 211.129 Q2203.95 211.129 2206.24 210.527 Q2208.56 209.925 2210.83 208.721 L2210.83 212.749 Q2208.54 213.721 2206.13 214.231 Q2203.72 214.74 2201.24 214.74 Q2195.04 214.74 2191.41 211.129 Q2187.79 207.518 2187.79 201.36 Q2187.79 194.995 2191.22 191.268 Q2194.67 187.518 2200.5 187.518 Q2205.73 187.518 2208.77 190.897 Q2211.82 194.254 2211.82 200.041 M2207.56 198.791 Q2207.52 195.296 2205.6 193.212 Q2203.7 191.129 2200.55 191.129 Q2196.98 191.129 2194.83 193.143 Q2192.7 195.157 2192.38 198.814 L2207.56 198.791 Z" fill="#000000" fill-rule="evenodd" fill-opacity="1" /><path clip-path="url(#clip090)" d="M2235.34 188.907 L2235.34 192.934 Q2233.54 192.009 2231.59 191.546 Q2229.65 191.083 2227.56 191.083 Q2224.39 191.083 2222.79 192.055 Q2221.22 193.027 2221.22 194.971 Q2221.22 196.453 2222.35 197.309 Q2223.49 198.143 2226.92 198.907 L2228.37 199.231 Q2232.91 200.203 2234.81 201.985 Q2236.73 203.745 2236.73 206.916 Q2236.73 210.527 2233.86 212.633 Q2231.01 214.74 2226.01 214.74 Q2223.93 214.74 2221.66 214.323 Q2219.42 213.93 2216.92 213.12 L2216.92 208.721 Q2219.28 209.948 2221.57 210.573 Q2223.86 211.175 2226.1 211.175 Q2229.11 211.175 2230.73 210.157 Q2232.35 209.115 2232.35 207.24 Q2232.35 205.504 2231.17 204.578 Q2230.02 203.652 2226.06 202.796 L2224.58 202.448 Q2220.62 201.615 2218.86 199.902 Q2217.1 198.166 2217.1 195.157 Q2217.1 191.499 2219.69 189.509 Q2222.29 187.518 2227.05 187.518 Q2229.42 187.518 2231.5 187.865 Q2233.58 188.212 2235.34 188.907 Z" fill="#000000" fill-rule="evenodd" fill-opacity="1" /><polyline clip-path="url(#clip090)" style="stroke:#3da44d; stroke-linecap:butt; stroke-linejoin:round; stroke-width:4; stroke-opacity:1; fill:none" points="
  1739.34,248.629 1878.57,248.629 
  "/>
<path clip-path="url(#clip090)" d="M1918.28 229.89 L1918.28 233.432 L1914.21 233.432 Q1911.92 233.432 1911.01 234.358 Q1910.13 235.284 1910.13 237.691 L1910.13 239.983 L1917.15 239.983 L1917.15 243.293 L1910.13 243.293 L1910.13 265.909 L1905.85 265.909 L1905.85 243.293 L1901.78 243.293 L1901.78 239.983 L1905.85 239.983 L1905.85 238.177 Q1905.85 233.849 1907.87 231.881 Q1909.88 229.89 1914.25 229.89 L1918.28 229.89 Z" fill="#000000" fill-rule="evenodd" fill-opacity="1" /><path clip-path="url(#clip090)" d="M1933.63 252.876 Q1928.47 252.876 1926.48 254.057 Q1924.49 255.237 1924.49 258.085 Q1924.49 260.353 1925.97 261.696 Q1927.47 263.015 1930.04 263.015 Q1933.58 263.015 1935.71 260.515 Q1937.87 257.992 1937.87 253.825 L1937.87 252.876 L1933.63 252.876 M1942.12 251.117 L1942.12 265.909 L1937.87 265.909 L1937.87 261.973 Q1936.41 264.335 1934.23 265.469 Q1932.06 266.58 1928.91 266.58 Q1924.93 266.58 1922.56 264.358 Q1920.23 262.112 1920.23 258.362 Q1920.23 253.987 1923.14 251.765 Q1926.08 249.543 1931.89 249.543 L1937.87 249.543 L1937.87 249.126 Q1937.87 246.187 1935.92 244.589 Q1934 242.969 1930.5 242.969 Q1928.28 242.969 1926.18 243.501 Q1924.07 244.034 1922.13 245.099 L1922.13 241.163 Q1924.46 240.261 1926.66 239.821 Q1928.86 239.358 1930.94 239.358 Q1936.57 239.358 1939.35 242.274 Q1942.12 245.191 1942.12 251.117 Z" fill="#000000" fill-rule="evenodd" fill-opacity="1" /><path clip-path="url(#clip090)" d="M1955.11 232.622 L1955.11 239.983 L1963.88 239.983 L1963.88 243.293 L1955.11 243.293 L1955.11 257.367 Q1955.11 260.538 1955.97 261.441 Q1956.85 262.344 1959.51 262.344 L1963.88 262.344 L1963.88 265.909 L1959.51 265.909 Q1954.58 265.909 1952.7 264.08 Q1950.83 262.228 1950.83 257.367 L1950.83 243.293 L1947.7 243.293 L1947.7 239.983 L1950.83 239.983 L1950.83 232.622 L1955.11 232.622 Z" fill="#000000" fill-rule="evenodd" fill-opacity="1" /><path clip-path="url(#clip090)" d="M1981.27 252.876 Q1976.11 252.876 1974.12 254.057 Q1972.12 255.237 1972.12 258.085 Q1972.12 260.353 1973.61 261.696 Q1975.11 263.015 1977.68 263.015 Q1981.22 263.015 1983.35 260.515 Q1985.5 257.992 1985.5 253.825 L1985.5 252.876 L1981.27 252.876 M1989.76 251.117 L1989.76 265.909 L1985.5 265.909 L1985.5 261.973 Q1984.05 264.335 1981.87 265.469 Q1979.69 266.58 1976.55 266.58 Q1972.56 266.58 1970.2 264.358 Q1967.87 262.112 1967.87 258.362 Q1967.87 253.987 1970.78 251.765 Q1973.72 249.543 1979.53 249.543 L1985.5 249.543 L1985.5 249.126 Q1985.5 246.187 1983.56 244.589 Q1981.64 242.969 1978.14 242.969 Q1975.92 242.969 1973.81 243.501 Q1971.71 244.034 1969.76 245.099 L1969.76 241.163 Q1972.1 240.261 1974.3 239.821 Q1976.5 239.358 1978.58 239.358 Q1984.21 239.358 1986.99 242.274 Q1989.76 245.191 1989.76 251.117 Z" fill="#000000" fill-rule="evenodd" fill-opacity="1" /><path clip-path="url(#clip090)" d="M1998.54 229.89 L2002.8 229.89 L2002.8 265.909 L1998.54 265.909 L1998.54 229.89 Z" fill="#000000" fill-rule="evenodd" fill-opacity="1" /><path clip-path="url(#clip090)" d="M2045.43 240.978 L2045.43 244.96 Q2043.63 243.964 2041.8 243.478 Q2039.99 242.969 2038.14 242.969 Q2034 242.969 2031.71 245.608 Q2029.42 248.224 2029.42 252.969 Q2029.42 257.714 2031.71 260.353 Q2034 262.969 2038.14 262.969 Q2039.99 262.969 2041.8 262.483 Q2043.63 261.973 2045.43 260.978 L2045.43 264.913 Q2043.65 265.747 2041.73 266.163 Q2039.83 266.58 2037.68 266.58 Q2031.82 266.58 2028.37 262.899 Q2024.93 259.219 2024.93 252.969 Q2024.93 246.626 2028.4 242.992 Q2031.89 239.358 2037.96 239.358 Q2039.93 239.358 2041.8 239.775 Q2043.68 240.168 2045.43 240.978 Z" fill="#000000" fill-rule="evenodd" fill-opacity="1" /><path clip-path="url(#clip090)" d="M2064.62 252.876 Q2059.46 252.876 2057.47 254.057 Q2055.48 255.237 2055.48 258.085 Q2055.48 260.353 2056.96 261.696 Q2058.47 263.015 2061.04 263.015 Q2064.58 263.015 2066.71 260.515 Q2068.86 257.992 2068.86 253.825 L2068.86 252.876 L2064.62 252.876 M2073.12 251.117 L2073.12 265.909 L2068.86 265.909 L2068.86 261.973 Q2067.4 264.335 2065.23 265.469 Q2063.05 266.58 2059.9 266.58 Q2055.92 266.58 2053.56 264.358 Q2051.22 262.112 2051.22 258.362 Q2051.22 253.987 2054.14 251.765 Q2057.08 249.543 2062.89 249.543 L2068.86 249.543 L2068.86 249.126 Q2068.86 246.187 2066.92 244.589 Q2064.99 242.969 2061.5 242.969 Q2059.28 242.969 2057.17 243.501 Q2055.06 244.034 2053.12 245.099 L2053.12 241.163 Q2055.46 240.261 2057.66 239.821 Q2059.86 239.358 2061.94 239.358 Q2067.56 239.358 2070.34 242.274 Q2073.12 245.191 2073.12 251.117 Z" fill="#000000" fill-rule="evenodd" fill-opacity="1" /><path clip-path="url(#clip090)" d="M2098.42 240.747 L2098.42 244.774 Q2096.61 243.849 2094.67 243.386 Q2092.73 242.923 2090.64 242.923 Q2087.47 242.923 2085.87 243.895 Q2084.3 244.867 2084.3 246.811 Q2084.3 248.293 2085.43 249.149 Q2086.57 249.983 2089.99 250.747 L2091.45 251.071 Q2095.99 252.043 2097.89 253.825 Q2099.81 255.585 2099.81 258.756 Q2099.81 262.367 2096.94 264.473 Q2094.09 266.58 2089.09 266.58 Q2087.01 266.58 2084.74 266.163 Q2082.49 265.77 2079.99 264.96 L2079.99 260.561 Q2082.36 261.788 2084.65 262.413 Q2086.94 263.015 2089.18 263.015 Q2092.19 263.015 2093.81 261.997 Q2095.43 260.955 2095.43 259.08 Q2095.43 257.344 2094.25 256.418 Q2093.1 255.492 2089.14 254.636 L2087.66 254.288 Q2083.7 253.455 2081.94 251.742 Q2080.18 250.006 2080.18 246.997 Q2080.18 243.339 2082.77 241.349 Q2085.36 239.358 2090.13 239.358 Q2092.49 239.358 2094.58 239.705 Q2096.66 240.052 2098.42 240.747 Z" fill="#000000" fill-rule="evenodd" fill-opacity="1" /><path clip-path="url(#clip090)" d="M2128.77 251.881 L2128.77 253.964 L2109.18 253.964 Q2109.46 258.362 2111.82 260.677 Q2114.21 262.969 2118.44 262.969 Q2120.9 262.969 2123.19 262.367 Q2125.5 261.765 2127.77 260.561 L2127.77 264.589 Q2125.48 265.561 2123.07 266.071 Q2120.67 266.58 2118.19 266.58 Q2111.99 266.58 2108.35 262.969 Q2104.74 259.358 2104.74 253.2 Q2104.74 246.835 2108.17 243.108 Q2111.61 239.358 2117.45 239.358 Q2122.68 239.358 2125.71 242.737 Q2128.77 246.094 2128.77 251.881 M2124.51 250.631 Q2124.46 247.136 2122.54 245.052 Q2120.64 242.969 2117.49 242.969 Q2113.93 242.969 2111.78 244.983 Q2109.65 246.997 2109.32 250.654 L2124.51 250.631 Z" fill="#000000" fill-rule="evenodd" fill-opacity="1" /><path clip-path="url(#clip090)" d="M2152.29 240.747 L2152.29 244.774 Q2150.48 243.849 2148.54 243.386 Q2146.59 242.923 2144.51 242.923 Q2141.34 242.923 2139.74 243.895 Q2138.17 244.867 2138.17 246.811 Q2138.17 248.293 2139.3 249.149 Q2140.43 249.983 2143.86 250.747 L2145.32 251.071 Q2149.86 252.043 2151.75 253.825 Q2153.67 255.585 2153.67 258.756 Q2153.67 262.367 2150.8 264.473 Q2147.96 266.58 2142.96 266.58 Q2140.87 266.58 2138.61 266.163 Q2136.36 265.77 2133.86 264.96 L2133.86 260.561 Q2136.22 261.788 2138.51 262.413 Q2140.8 263.015 2143.05 263.015 Q2146.06 263.015 2147.68 261.997 Q2149.3 260.955 2149.3 259.08 Q2149.3 257.344 2148.12 256.418 Q2146.96 255.492 2143 254.636 L2141.52 254.288 Q2137.56 253.455 2135.8 251.742 Q2134.05 250.006 2134.05 246.997 Q2134.05 243.339 2136.64 241.349 Q2139.23 239.358 2144 239.358 Q2146.36 239.358 2148.44 239.705 Q2150.53 240.052 2152.29 240.747 Z" fill="#000000" fill-rule="evenodd" fill-opacity="1" /></svg>
