<?xml version="1.0" encoding="utf-8"?>
<svg xmlns="http://www.w3.org/2000/svg" xmlns:xlink="http://www.w3.org/1999/xlink" width="600" height="400" viewBox="0 0 2400 1600">
<defs>
  <clipPath id="clip050">
    <rect x="0" y="0" width="2400" height="1600"/>
  </clipPath>
</defs>
<path clip-path="url(#clip050)" d="
M0 1600 L2400 1600 L2400 0 L0 0  Z
  " fill="#ffffff" fill-rule="evenodd" fill-opacity="1"/>
<defs>
  <clipPath id="clip051">
    <rect x="480" y="0" width="1681" height="1600"/>
  </clipPath>
</defs>
<path clip-path="url(#clip050)" d="
M234.125 1423.18 L2352.76 1423.18 L2352.76 47.2441 L234.125 47.2441  Z
  " fill="#ffffff" fill-rule="evenodd" fill-opacity="1"/>
<defs>
  <clipPath id="clip052">
    <rect x="234" y="47" width="2120" height="1377"/>
  </clipPath>
</defs>
<polyline clip-path="url(#clip052)" style="stroke:#000000; stroke-linecap:butt; stroke-linejoin:round; stroke-width:2; stroke-opacity:0.1; fill:none" points="
  284.043,1423.18 284.043,47.2441 
  "/>
<polyline clip-path="url(#clip052)" style="stroke:#000000; stroke-linecap:butt; stroke-linejoin:round; stroke-width:2; stroke-opacity:0.1; fill:none" points="
  786.231,1423.18 786.231,47.2441 
  "/>
<polyline clip-path="url(#clip052)" style="stroke:#000000; stroke-linecap:butt; stroke-linejoin:round; stroke-width:2; stroke-opacity:0.1; fill:none" points="
  1288.42,1423.18 1288.42,47.2441 
  "/>
<polyline clip-path="url(#clip052)" style="stroke:#000000; stroke-linecap:butt; stroke-linejoin:round; stroke-width:2; stroke-opacity:0.1; fill:none" points="
  1790.61,1423.18 1790.61,47.2441 
  "/>
<polyline clip-path="url(#clip052)" style="stroke:#000000; stroke-linecap:butt; stroke-linejoin:round; stroke-width:2; stroke-opacity:0.1; fill:none" points="
  2292.79,1423.18 2292.79,47.2441 
  "/>
<polyline clip-path="url(#clip050)" style="stroke:#000000; stroke-linecap:butt; stroke-linejoin:round; stroke-width:4; stroke-opacity:1; fill:none" points="
  234.125,1423.18 2352.76,1423.18 
  "/>
<polyline clip-path="url(#clip050)" style="stroke:#000000; stroke-linecap:butt; stroke-linejoin:round; stroke-width:4; stroke-opacity:1; fill:none" points="
  284.043,1423.18 284.043,1404.28 
  "/>
<polyline clip-path="url(#clip050)" style="stroke:#000000; stroke-linecap:butt; stroke-linejoin:round; stroke-width:4; stroke-opacity:1; fill:none" points="
  786.231,1423.18 786.231,1404.28 
  "/>
<polyline clip-path="url(#clip050)" style="stroke:#000000; stroke-linecap:butt; stroke-linejoin:round; stroke-width:4; stroke-opacity:1; fill:none" points="
  1288.42,1423.18 1288.42,1404.28 
  "/>
<polyline clip-path="url(#clip050)" style="stroke:#000000; stroke-linecap:butt; stroke-linejoin:round; stroke-width:4; stroke-opacity:1; fill:none" points="
  1790.61,1423.18 1790.61,1404.28 
  "/>
<polyline clip-path="url(#clip050)" style="stroke:#000000; stroke-linecap:butt; stroke-linejoin:round; stroke-width:4; stroke-opacity:1; fill:none" points="
  2292.79,1423.18 2292.79,1404.28 
  "/>
<path clip-path="url(#clip050)" d="M284.043 1454.1 Q280.432 1454.1 278.603 1457.66 Q276.798 1461.2 276.798 1468.33 Q276.798 1475.44 278.603 1479.01 Q280.432 1482.55 284.043 1482.55 Q287.677 1482.55 289.483 1479.01 Q291.311 1475.44 291.311 1468.33 Q291.311 1461.2 289.483 1457.66 Q287.677 1454.1 284.043 1454.1 M284.043 1450.39 Q289.853 1450.39 292.909 1455 Q295.987 1459.58 295.987 1468.33 Q295.987 1477.06 292.909 1481.67 Q289.853 1486.25 284.043 1486.25 Q278.233 1486.25 275.154 1481.67 Q272.099 1477.06 272.099 1468.33 Q272.099 1459.58 275.154 1455 Q278.233 1450.39 284.043 1450.39 Z" fill="#000000" fill-rule="evenodd" fill-opacity="1" /><path clip-path="url(#clip050)" d="M760.93 1451.02 L779.286 1451.02 L779.286 1454.96 L765.212 1454.96 L765.212 1463.43 Q766.231 1463.08 767.249 1462.92 Q768.268 1462.73 769.287 1462.73 Q775.074 1462.73 778.453 1465.9 Q781.833 1469.08 781.833 1474.49 Q781.833 1480.07 778.361 1483.17 Q774.888 1486.25 768.569 1486.25 Q766.393 1486.25 764.125 1485.88 Q761.879 1485.51 759.472 1484.77 L759.472 1480.07 Q761.555 1481.2 763.777 1481.76 Q765.999 1482.32 768.476 1482.32 Q772.481 1482.32 774.819 1480.21 Q777.157 1478.1 777.157 1474.49 Q777.157 1470.88 774.819 1468.77 Q772.481 1466.67 768.476 1466.67 Q766.601 1466.67 764.726 1467.08 Q762.875 1467.5 760.93 1468.38 L760.93 1451.02 Z" fill="#000000" fill-rule="evenodd" fill-opacity="1" /><path clip-path="url(#clip050)" d="M801.046 1454.1 Q797.435 1454.1 795.606 1457.66 Q793.8 1461.2 793.8 1468.33 Q793.8 1475.44 795.606 1479.01 Q797.435 1482.55 801.046 1482.55 Q804.68 1482.55 806.485 1479.01 Q808.314 1475.44 808.314 1468.33 Q808.314 1461.2 806.485 1457.66 Q804.68 1454.1 801.046 1454.1 M801.046 1450.39 Q806.856 1450.39 809.911 1455 Q812.99 1459.58 812.99 1468.33 Q812.99 1477.06 809.911 1481.67 Q806.856 1486.25 801.046 1486.25 Q795.235 1486.25 792.157 1481.67 Q789.101 1477.06 789.101 1468.33 Q789.101 1459.58 792.157 1455 Q795.235 1450.39 801.046 1450.39 Z" fill="#000000" fill-rule="evenodd" fill-opacity="1" /><path clip-path="url(#clip050)" d="M1248.03 1481.64 L1255.66 1481.64 L1255.66 1455.28 L1247.35 1456.95 L1247.35 1452.69 L1255.62 1451.02 L1260.29 1451.02 L1260.29 1481.64 L1267.93 1481.64 L1267.93 1485.58 L1248.03 1485.58 L1248.03 1481.64 Z" fill="#000000" fill-rule="evenodd" fill-opacity="1" /><path clip-path="url(#clip050)" d="M1287.38 1454.1 Q1283.77 1454.1 1281.94 1457.66 Q1280.13 1461.2 1280.13 1468.33 Q1280.13 1475.44 1281.94 1479.01 Q1283.77 1482.55 1287.38 1482.55 Q1291.01 1482.55 1292.82 1479.01 Q1294.65 1475.44 1294.65 1468.33 Q1294.65 1461.2 1292.82 1457.66 Q1291.01 1454.1 1287.38 1454.1 M1287.38 1450.39 Q1293.19 1450.39 1296.24 1455 Q1299.32 1459.58 1299.32 1468.33 Q1299.32 1477.06 1296.24 1481.67 Q1293.19 1486.25 1287.38 1486.25 Q1281.57 1486.25 1278.49 1481.67 Q1275.43 1477.06 1275.43 1468.33 Q1275.43 1459.58 1278.49 1455 Q1281.57 1450.39 1287.38 1450.39 Z" fill="#000000" fill-rule="evenodd" fill-opacity="1" /><path clip-path="url(#clip050)" d="M1317.54 1454.1 Q1313.93 1454.1 1312.1 1457.66 Q1310.29 1461.2 1310.29 1468.33 Q1310.29 1475.44 1312.1 1479.01 Q1313.93 1482.55 1317.54 1482.55 Q1321.17 1482.55 1322.98 1479.01 Q1324.81 1475.44 1324.81 1468.33 Q1324.81 1461.2 1322.98 1457.66 Q1321.17 1454.1 1317.54 1454.1 M1317.54 1450.39 Q1323.35 1450.39 1326.4 1455 Q1329.48 1459.58 1329.48 1468.33 Q1329.48 1477.06 1326.4 1481.67 Q1323.35 1486.25 1317.54 1486.25 Q1311.73 1486.25 1308.65 1481.67 Q1305.59 1477.06 1305.59 1468.33 Q1305.59 1459.58 1308.65 1455 Q1311.73 1450.39 1317.54 1450.39 Z" fill="#000000" fill-rule="evenodd" fill-opacity="1" /><path clip-path="url(#clip050)" d="M1750.21 1481.64 L1757.85 1481.64 L1757.85 1455.28 L1749.54 1456.95 L1749.54 1452.69 L1757.81 1451.02 L1762.48 1451.02 L1762.48 1481.64 L1770.12 1481.64 L1770.12 1485.58 L1750.21 1485.58 L1750.21 1481.64 Z" fill="#000000" fill-rule="evenodd" fill-opacity="1" /><path clip-path="url(#clip050)" d="M1779.61 1451.02 L1797.97 1451.02 L1797.97 1454.96 L1783.89 1454.96 L1783.89 1463.43 Q1784.91 1463.08 1785.93 1462.92 Q1786.95 1462.73 1787.97 1462.73 Q1793.75 1462.73 1797.13 1465.9 Q1800.51 1469.08 1800.51 1474.49 Q1800.51 1480.07 1797.04 1483.17 Q1793.57 1486.25 1787.25 1486.25 Q1785.07 1486.25 1782.81 1485.88 Q1780.56 1485.51 1778.15 1484.77 L1778.15 1480.07 Q1780.24 1481.2 1782.46 1481.76 Q1784.68 1482.32 1787.16 1482.32 Q1791.16 1482.32 1793.5 1480.21 Q1795.84 1478.1 1795.84 1474.49 Q1795.84 1470.88 1793.5 1468.77 Q1791.16 1466.67 1787.16 1466.67 Q1785.28 1466.67 1783.41 1467.08 Q1781.56 1467.5 1779.61 1468.38 L1779.61 1451.02 Z" fill="#000000" fill-rule="evenodd" fill-opacity="1" /><path clip-path="url(#clip050)" d="M1819.73 1454.1 Q1816.12 1454.1 1814.29 1457.66 Q1812.48 1461.2 1812.48 1468.33 Q1812.48 1475.44 1814.29 1479.01 Q1816.12 1482.55 1819.73 1482.55 Q1823.36 1482.55 1825.17 1479.01 Q1827 1475.44 1827 1468.33 Q1827 1461.2 1825.17 1457.66 Q1823.36 1454.1 1819.73 1454.1 M1819.73 1450.39 Q1825.54 1450.39 1828.59 1455 Q1831.67 1459.58 1831.67 1468.33 Q1831.67 1477.06 1828.59 1481.67 Q1825.54 1486.25 1819.73 1486.25 Q1813.92 1486.25 1810.84 1481.67 Q1807.78 1477.06 1807.78 1468.33 Q1807.78 1459.58 1810.84 1455 Q1813.92 1450.39 1819.73 1450.39 Z" fill="#000000" fill-rule="evenodd" fill-opacity="1" /><path clip-path="url(#clip050)" d="M2256.49 1481.64 L2272.81 1481.64 L2272.81 1485.58 L2250.86 1485.58 L2250.86 1481.64 Q2253.52 1478.89 2258.11 1474.26 Q2262.71 1469.61 2263.89 1468.27 Q2266.14 1465.74 2267.02 1464.01 Q2267.92 1462.25 2267.92 1460.56 Q2267.92 1457.8 2265.98 1456.07 Q2264.06 1454.33 2260.95 1454.33 Q2258.76 1454.33 2256.3 1455.09 Q2253.87 1455.86 2251.09 1457.41 L2251.09 1452.69 Q2253.92 1451.55 2256.37 1450.97 Q2258.82 1450.39 2260.86 1450.39 Q2266.23 1450.39 2269.43 1453.08 Q2272.62 1455.77 2272.62 1460.26 Q2272.62 1462.39 2271.81 1464.31 Q2271.02 1466.2 2268.92 1468.8 Q2268.34 1469.47 2265.24 1472.69 Q2262.14 1475.88 2256.49 1481.64 Z" fill="#000000" fill-rule="evenodd" fill-opacity="1" /><path clip-path="url(#clip050)" d="M2292.62 1454.1 Q2289.01 1454.1 2287.18 1457.66 Q2285.38 1461.2 2285.38 1468.33 Q2285.38 1475.44 2287.18 1479.01 Q2289.01 1482.55 2292.62 1482.55 Q2296.26 1482.55 2298.06 1479.01 Q2299.89 1475.44 2299.89 1468.33 Q2299.89 1461.2 2298.06 1457.66 Q2296.26 1454.1 2292.62 1454.1 M2292.62 1450.39 Q2298.43 1450.39 2301.49 1455 Q2304.57 1459.58 2304.57 1468.33 Q2304.57 1477.06 2301.49 1481.67 Q2298.43 1486.25 2292.62 1486.25 Q2286.81 1486.25 2283.73 1481.67 Q2280.68 1477.06 2280.68 1468.33 Q2280.68 1459.58 2283.73 1455 Q2286.81 1450.39 2292.62 1450.39 Z" fill="#000000" fill-rule="evenodd" fill-opacity="1" /><path clip-path="url(#clip050)" d="M2322.78 1454.1 Q2319.17 1454.1 2317.34 1457.66 Q2315.54 1461.2 2315.54 1468.33 Q2315.54 1475.44 2317.34 1479.01 Q2319.17 1482.55 2322.78 1482.55 Q2326.42 1482.55 2328.22 1479.01 Q2330.05 1475.44 2330.05 1468.33 Q2330.05 1461.2 2328.22 1457.66 Q2326.42 1454.1 2322.78 1454.1 M2322.78 1450.39 Q2328.59 1450.39 2331.65 1455 Q2334.73 1459.58 2334.73 1468.33 Q2334.73 1477.06 2331.65 1481.67 Q2328.59 1486.25 2322.78 1486.25 Q2316.97 1486.25 2313.89 1481.67 Q2310.84 1477.06 2310.84 1468.33 Q2310.84 1459.58 2313.89 1455 Q2316.97 1450.39 2322.78 1450.39 Z" fill="#000000" fill-rule="evenodd" fill-opacity="1" /><path clip-path="url(#clip050)" d="M1245.9 1537.81 L1245.9 1518.52 L1251.76 1518.52 L1251.76 1568.04 L1245.9 1568.04 L1245.9 1562.7 Q1244.06 1565.88 1241.23 1567.44 Q1238.43 1568.97 1234.48 1568.97 Q1228.02 1568.97 1223.94 1563.81 Q1219.9 1558.65 1219.9 1550.25 Q1219.9 1541.85 1223.94 1536.69 Q1228.02 1531.54 1234.48 1531.54 Q1238.43 1531.54 1241.23 1533.1 Q1244.06 1534.62 1245.9 1537.81 M1225.95 1550.25 Q1225.95 1556.71 1228.59 1560.4 Q1231.26 1564.07 1235.91 1564.07 Q1240.56 1564.07 1243.23 1560.4 Q1245.9 1556.71 1245.9 1550.25 Q1245.9 1543.79 1243.23 1540.13 Q1240.56 1536.44 1235.91 1536.44 Q1231.26 1536.44 1228.59 1540.13 Q1225.95 1543.79 1225.95 1550.25 Z" fill="#000000" fill-rule="evenodd" fill-opacity="1" /><path clip-path="url(#clip050)" d="M1280.02 1550.12 Q1272.93 1550.12 1270.19 1551.75 Q1267.45 1553.37 1267.45 1557.29 Q1267.45 1560.4 1269.49 1562.25 Q1271.56 1564.07 1275.09 1564.07 Q1279.96 1564.07 1282.89 1560.63 Q1285.85 1557.16 1285.85 1551.43 L1285.85 1550.12 L1280.02 1550.12 M1291.71 1547.71 L1291.71 1568.04 L1285.85 1568.04 L1285.85 1562.63 Q1283.84 1565.88 1280.85 1567.44 Q1277.86 1568.97 1273.53 1568.97 Q1268.06 1568.97 1264.81 1565.91 Q1261.6 1562.82 1261.6 1557.67 Q1261.6 1551.65 1265.61 1548.6 Q1269.65 1545.54 1277.64 1545.54 L1285.85 1545.54 L1285.85 1544.97 Q1285.85 1540.93 1283.18 1538.73 Q1280.53 1536.5 1275.73 1536.5 Q1272.67 1536.5 1269.78 1537.23 Q1266.88 1537.97 1264.21 1539.43 L1264.21 1534.02 Q1267.42 1532.78 1270.44 1532.17 Q1273.47 1531.54 1276.33 1531.54 Q1284.07 1531.54 1287.89 1535.55 Q1291.71 1539.56 1291.71 1547.71 Z" fill="#000000" fill-rule="evenodd" fill-opacity="1" /><path clip-path="url(#clip050)" d="M1318.6 1571.35 Q1316.12 1577.72 1313.76 1579.66 Q1311.41 1581.6 1307.46 1581.6 L1302.78 1581.6 L1302.78 1576.7 L1306.22 1576.7 Q1308.64 1576.7 1309.98 1575.56 Q1311.31 1574.41 1312.94 1570.14 L1313.99 1567.47 L1299.57 1532.4 L1305.77 1532.4 L1316.91 1560.28 L1328.05 1532.4 L1334.26 1532.4 L1318.6 1571.35 Z" fill="#000000" fill-rule="evenodd" fill-opacity="1" /><path clip-path="url(#clip050)" d="M1365.07 1533.45 L1365.07 1538.98 Q1362.59 1537.71 1359.91 1537.07 Q1357.24 1536.44 1354.38 1536.44 Q1350.02 1536.44 1347.82 1537.77 Q1345.66 1539.11 1345.66 1541.79 Q1345.66 1543.82 1347.21 1545 Q1348.77 1546.15 1353.49 1547.2 L1355.49 1547.64 Q1361.73 1548.98 1364.34 1551.43 Q1366.98 1553.85 1366.98 1558.21 Q1366.98 1563.17 1363.03 1566.07 Q1359.12 1568.97 1352.24 1568.97 Q1349.38 1568.97 1346.26 1568.39 Q1343.17 1567.85 1339.74 1566.74 L1339.74 1560.69 Q1342.98 1562.38 1346.13 1563.24 Q1349.28 1564.07 1352.37 1564.07 Q1356.51 1564.07 1358.74 1562.66 Q1360.96 1561.23 1360.96 1558.65 Q1360.96 1556.27 1359.34 1554.99 Q1357.75 1553.72 1352.31 1552.54 L1350.27 1552.07 Q1344.83 1550.92 1342.41 1548.56 Q1339.99 1546.18 1339.99 1542.04 Q1339.99 1537.01 1343.55 1534.27 Q1347.12 1531.54 1353.68 1531.54 Q1356.92 1531.54 1359.79 1532.01 Q1362.65 1532.49 1365.07 1533.45 Z" fill="#000000" fill-rule="evenodd" fill-opacity="1" /><polyline clip-path="url(#clip052)" style="stroke:#000000; stroke-linecap:butt; stroke-linejoin:round; stroke-width:2; stroke-opacity:0.1; fill:none" points="
  234.125,1384.24 2352.76,1384.24 
  "/>
<polyline clip-path="url(#clip052)" style="stroke:#000000; stroke-linecap:butt; stroke-linejoin:round; stroke-width:2; stroke-opacity:0.1; fill:none" points="
  234.125,1045.32 2352.76,1045.32 
  "/>
<polyline clip-path="url(#clip052)" style="stroke:#000000; stroke-linecap:butt; stroke-linejoin:round; stroke-width:2; stroke-opacity:0.1; fill:none" points="
  234.125,706.404 2352.76,706.404 
  "/>
<polyline clip-path="url(#clip052)" style="stroke:#000000; stroke-linecap:butt; stroke-linejoin:round; stroke-width:2; stroke-opacity:0.1; fill:none" points="
  234.125,367.487 2352.76,367.487 
  "/>
<polyline clip-path="url(#clip050)" style="stroke:#000000; stroke-linecap:butt; stroke-linejoin:round; stroke-width:4; stroke-opacity:1; fill:none" points="
  234.125,1423.18 234.125,47.2441 
  "/>
<polyline clip-path="url(#clip050)" style="stroke:#000000; stroke-linecap:butt; stroke-linejoin:round; stroke-width:4; stroke-opacity:1; fill:none" points="
  234.125,1384.24 253.023,1384.24 
  "/>
<polyline clip-path="url(#clip050)" style="stroke:#000000; stroke-linecap:butt; stroke-linejoin:round; stroke-width:4; stroke-opacity:1; fill:none" points="
  234.125,1045.32 253.023,1045.32 
  "/>
<polyline clip-path="url(#clip050)" style="stroke:#000000; stroke-linecap:butt; stroke-linejoin:round; stroke-width:4; stroke-opacity:1; fill:none" points="
  234.125,706.404 253.023,706.404 
  "/>
<polyline clip-path="url(#clip050)" style="stroke:#000000; stroke-linecap:butt; stroke-linejoin:round; stroke-width:4; stroke-opacity:1; fill:none" points="
  234.125,367.487 253.023,367.487 
  "/>
<path clip-path="url(#clip050)" d="M186.181 1370.04 Q182.57 1370.04 180.741 1373.6 Q178.936 1377.14 178.936 1384.27 Q178.936 1391.38 180.741 1394.94 Q182.57 1398.49 186.181 1398.49 Q189.815 1398.49 191.621 1394.94 Q193.45 1391.38 193.45 1384.27 Q193.45 1377.14 191.621 1373.6 Q189.815 1370.04 186.181 1370.04 M186.181 1366.33 Q191.991 1366.33 195.047 1370.94 Q198.125 1375.52 198.125 1384.27 Q198.125 1393 195.047 1397.61 Q191.991 1402.19 186.181 1402.19 Q180.371 1402.19 177.292 1397.61 Q174.237 1393 174.237 1384.27 Q174.237 1375.52 177.292 1370.94 Q180.371 1366.33 186.181 1366.33 Z" fill="#000000" fill-rule="evenodd" fill-opacity="1" /><path clip-path="url(#clip050)" d="M116.668 1058.67 L124.306 1058.67 L124.306 1032.3 L115.996 1033.97 L115.996 1029.71 L124.26 1028.04 L128.936 1028.04 L128.936 1058.67 L136.575 1058.67 L136.575 1062.6 L116.668 1062.6 L116.668 1058.67 Z" fill="#000000" fill-rule="evenodd" fill-opacity="1" /><path clip-path="url(#clip050)" d="M156.019 1031.12 Q152.408 1031.12 150.579 1034.68 Q148.774 1038.23 148.774 1045.36 Q148.774 1052.46 150.579 1056.03 Q152.408 1059.57 156.019 1059.57 Q159.653 1059.57 161.459 1056.03 Q163.288 1052.46 163.288 1045.36 Q163.288 1038.23 161.459 1034.68 Q159.653 1031.12 156.019 1031.12 M156.019 1027.42 Q161.829 1027.42 164.885 1032.02 Q167.964 1036.61 167.964 1045.36 Q167.964 1054.08 164.885 1058.69 Q161.829 1063.27 156.019 1063.27 Q150.209 1063.27 147.13 1058.69 Q144.075 1054.08 144.075 1045.36 Q144.075 1036.61 147.13 1032.02 Q150.209 1027.42 156.019 1027.42 Z" fill="#000000" fill-rule="evenodd" fill-opacity="1" /><path clip-path="url(#clip050)" d="M186.181 1031.12 Q182.57 1031.12 180.741 1034.68 Q178.936 1038.23 178.936 1045.36 Q178.936 1052.46 180.741 1056.03 Q182.57 1059.57 186.181 1059.57 Q189.815 1059.57 191.621 1056.03 Q193.45 1052.46 193.45 1045.36 Q193.45 1038.23 191.621 1034.68 Q189.815 1031.12 186.181 1031.12 M186.181 1027.42 Q191.991 1027.42 195.047 1032.02 Q198.125 1036.61 198.125 1045.36 Q198.125 1054.08 195.047 1058.69 Q191.991 1063.27 186.181 1063.27 Q180.371 1063.27 177.292 1058.69 Q174.237 1054.08 174.237 1045.36 Q174.237 1036.61 177.292 1032.02 Q180.371 1027.42 186.181 1027.42 Z" fill="#000000" fill-rule="evenodd" fill-opacity="1" /><path clip-path="url(#clip050)" d="M119.885 719.749 L136.204 719.749 L136.204 723.684 L114.26 723.684 L114.26 719.749 Q116.922 716.994 121.505 712.365 Q126.112 707.712 127.292 706.369 Q129.538 703.846 130.417 702.11 Q131.32 700.351 131.32 698.661 Q131.32 695.906 129.376 694.17 Q127.455 692.434 124.353 692.434 Q122.154 692.434 119.7 693.198 Q117.269 693.962 114.492 695.513 L114.492 690.791 Q117.316 689.656 119.769 689.078 Q122.223 688.499 124.26 688.499 Q129.63 688.499 132.825 691.184 Q136.019 693.869 136.019 698.36 Q136.019 700.49 135.209 702.411 Q134.422 704.309 132.316 706.902 Q131.737 707.573 128.635 710.791 Q125.533 713.985 119.885 719.749 Z" fill="#000000" fill-rule="evenodd" fill-opacity="1" /><path clip-path="url(#clip050)" d="M156.019 692.203 Q152.408 692.203 150.579 695.767 Q148.774 699.309 148.774 706.439 Q148.774 713.545 150.579 717.11 Q152.408 720.652 156.019 720.652 Q159.653 720.652 161.459 717.11 Q163.288 713.545 163.288 706.439 Q163.288 699.309 161.459 695.767 Q159.653 692.203 156.019 692.203 M156.019 688.499 Q161.829 688.499 164.885 693.105 Q167.964 697.689 167.964 706.439 Q167.964 715.166 164.885 719.772 Q161.829 724.355 156.019 724.355 Q150.209 724.355 147.13 719.772 Q144.075 715.166 144.075 706.439 Q144.075 697.689 147.13 693.105 Q150.209 688.499 156.019 688.499 Z" fill="#000000" fill-rule="evenodd" fill-opacity="1" /><path clip-path="url(#clip050)" d="M186.181 692.203 Q182.57 692.203 180.741 695.767 Q178.936 699.309 178.936 706.439 Q178.936 713.545 180.741 717.11 Q182.57 720.652 186.181 720.652 Q189.815 720.652 191.621 717.11 Q193.45 713.545 193.45 706.439 Q193.45 699.309 191.621 695.767 Q189.815 692.203 186.181 692.203 M186.181 688.499 Q191.991 688.499 195.047 693.105 Q198.125 697.689 198.125 706.439 Q198.125 715.166 195.047 719.772 Q191.991 724.355 186.181 724.355 Q180.371 724.355 177.292 719.772 Q174.237 715.166 174.237 706.439 Q174.237 697.689 177.292 693.105 Q180.371 688.499 186.181 688.499 Z" fill="#000000" fill-rule="evenodd" fill-opacity="1" /><path clip-path="url(#clip050)" d="M130.024 366.133 Q133.38 366.85 135.255 369.119 Q137.154 371.387 137.154 374.721 Q137.154 379.836 133.635 382.637 Q130.117 385.438 123.635 385.438 Q121.459 385.438 119.144 384.998 Q116.853 384.582 114.399 383.725 L114.399 379.211 Q116.343 380.346 118.658 380.924 Q120.973 381.503 123.496 381.503 Q127.894 381.503 130.186 379.767 Q132.501 378.031 132.501 374.721 Q132.501 371.665 130.348 369.952 Q128.218 368.216 124.399 368.216 L120.371 368.216 L120.371 364.373 L124.584 364.373 Q128.033 364.373 129.862 363.008 Q131.691 361.619 131.691 359.026 Q131.691 356.364 129.792 354.952 Q127.917 353.517 124.399 353.517 Q122.478 353.517 120.279 353.934 Q118.08 354.35 115.441 355.23 L115.441 351.063 Q118.103 350.323 120.418 349.952 Q122.755 349.582 124.816 349.582 Q130.14 349.582 133.242 352.012 Q136.343 354.42 136.343 358.54 Q136.343 361.411 134.7 363.401 Q133.056 365.369 130.024 366.133 Z" fill="#000000" fill-rule="evenodd" fill-opacity="1" /><path clip-path="url(#clip050)" d="M156.019 353.286 Q152.408 353.286 150.579 356.85 Q148.774 360.392 148.774 367.522 Q148.774 374.628 150.579 378.193 Q152.408 381.734 156.019 381.734 Q159.653 381.734 161.459 378.193 Q163.288 374.628 163.288 367.522 Q163.288 360.392 161.459 356.85 Q159.653 353.286 156.019 353.286 M156.019 349.582 Q161.829 349.582 164.885 354.188 Q167.964 358.772 167.964 367.522 Q167.964 376.248 164.885 380.855 Q161.829 385.438 156.019 385.438 Q150.209 385.438 147.13 380.855 Q144.075 376.248 144.075 367.522 Q144.075 358.772 147.13 354.188 Q150.209 349.582 156.019 349.582 Z" fill="#000000" fill-rule="evenodd" fill-opacity="1" /><path clip-path="url(#clip050)" d="M186.181 353.286 Q182.57 353.286 180.741 356.85 Q178.936 360.392 178.936 367.522 Q178.936 374.628 180.741 378.193 Q182.57 381.734 186.181 381.734 Q189.815 381.734 191.621 378.193 Q193.45 374.628 193.45 367.522 Q193.45 360.392 191.621 356.85 Q189.815 353.286 186.181 353.286 M186.181 349.582 Q191.991 349.582 195.047 354.188 Q198.125 358.772 198.125 367.522 Q198.125 376.248 195.047 380.855 Q191.991 385.438 186.181 385.438 Q180.371 385.438 177.292 380.855 Q174.237 376.248 174.237 367.522 Q174.237 358.772 177.292 354.188 Q180.371 349.582 186.181 349.582 Z" fill="#000000" fill-rule="evenodd" fill-opacity="1" /><path clip-path="url(#clip050)" d="M29.7248 795.527 L35.1993 795.527 Q33.8307 798.01 33.1623 800.524 Q32.4621 803.007 32.4621 805.553 Q32.4621 811.25 36.0905 814.401 Q39.6872 817.552 46.212 817.552 Q52.7369 817.552 56.3653 814.401 Q59.9619 811.25 59.9619 805.553 Q59.9619 803.007 59.2935 800.524 Q58.5933 798.01 57.2247 795.527 L62.6355 795.527 Q63.7814 797.978 64.3543 800.62 Q64.9272 803.23 64.9272 806.19 Q64.9272 814.242 59.8664 818.985 Q54.8057 823.727 46.212 823.727 Q37.491 823.727 32.4939 818.953 Q27.4968 814.147 27.4968 805.808 Q27.4968 803.102 28.0697 800.524 Q28.6108 797.946 29.7248 795.527 Z" fill="#000000" fill-rule="evenodd" fill-opacity="1" /><path clip-path="url(#clip050)" d="M46.0847 769.141 Q46.0847 776.239 47.7079 778.976 Q49.3312 781.713 53.2461 781.713 Q56.3653 781.713 58.2114 779.676 Q60.0256 777.608 60.0256 774.075 Q60.0256 769.205 56.5881 766.277 Q53.1188 763.317 47.3897 763.317 L46.0847 763.317 L46.0847 769.141 M43.6657 757.46 L64.0042 757.46 L64.0042 763.317 L58.5933 763.317 Q61.8398 765.322 63.3994 768.314 Q64.9272 771.306 64.9272 775.634 Q64.9272 781.109 61.8716 784.355 Q58.7843 787.57 53.6281 787.57 Q47.6125 787.57 44.5569 783.56 Q41.5014 779.517 41.5014 771.528 L41.5014 763.317 L40.9285 763.317 Q36.8862 763.317 34.6901 765.99 Q32.4621 768.632 32.4621 773.438 Q32.4621 776.494 33.1941 779.39 Q33.9262 782.286 35.3903 784.96 L29.9795 784.96 Q28.7381 781.745 28.1334 778.722 Q27.4968 775.698 27.4968 772.833 Q27.4968 765.099 31.5072 761.28 Q35.5176 757.46 43.6657 757.46 Z" fill="#000000" fill-rule="evenodd" fill-opacity="1" /><path clip-path="url(#clip050)" d="M29.4065 722.672 L34.9447 722.672 Q33.6716 725.154 33.035 727.828 Q32.3984 730.501 32.3984 733.366 Q32.3984 737.726 33.7352 739.923 Q35.072 742.087 37.7456 742.087 Q39.7826 742.087 40.9603 740.527 Q42.1061 738.968 43.1565 734.257 L43.6021 732.252 Q44.9389 726.014 47.3897 723.404 Q49.8086 720.762 54.1691 720.762 Q59.1344 720.762 62.0308 724.709 Q64.9272 728.623 64.9272 735.498 Q64.9272 738.363 64.3543 741.482 Q63.8132 744.57 62.6992 748.007 L56.6518 748.007 Q58.3387 744.761 59.198 741.61 Q60.0256 738.458 60.0256 735.371 Q60.0256 731.233 58.6251 729.005 Q57.1929 726.777 54.6147 726.777 Q52.2276 726.777 50.9545 728.401 Q49.6813 729.992 48.5037 735.435 L48.0262 737.472 Q46.8804 742.914 44.5251 745.333 Q42.138 747.752 38.0002 747.752 Q32.9713 747.752 30.2341 744.188 Q27.4968 740.623 27.4968 734.066 Q27.4968 730.82 27.9743 727.955 Q28.4517 725.09 29.4065 722.672 Z" fill="#000000" fill-rule="evenodd" fill-opacity="1" /><path clip-path="url(#clip050)" d="M44.7161 680.944 L47.5806 680.944 L47.5806 707.871 Q53.6281 707.489 56.8109 704.243 Q59.9619 700.964 59.9619 695.14 Q59.9619 691.766 59.1344 688.615 Q58.3069 685.432 56.6518 682.313 L62.1899 682.313 Q63.5267 685.464 64.227 688.774 Q64.9272 692.084 64.9272 695.49 Q64.9272 704.02 59.9619 709.017 Q54.9967 713.982 46.5303 713.982 Q37.7774 713.982 32.6531 709.272 Q27.4968 704.529 27.4968 696.508 Q27.4968 689.315 32.1438 685.146 Q36.7589 680.944 44.7161 680.944 M42.9973 686.801 Q38.1912 686.864 35.3266 689.506 Q32.4621 692.116 32.4621 696.445 Q32.4621 701.346 35.2312 704.306 Q38.0002 707.235 43.0292 707.68 L42.9973 686.801 Z" fill="#000000" fill-rule="evenodd" fill-opacity="1" /><path clip-path="url(#clip050)" d="M29.4065 648.607 L34.9447 648.607 Q33.6716 651.089 33.035 653.763 Q32.3984 656.436 32.3984 659.301 Q32.3984 663.661 33.7352 665.858 Q35.072 668.022 37.7456 668.022 Q39.7826 668.022 40.9603 666.462 Q42.1061 664.903 43.1565 660.192 L43.6021 658.187 Q44.9389 651.949 47.3897 649.339 Q49.8086 646.697 54.1691 646.697 Q59.1344 646.697 62.0308 650.644 Q64.9272 654.558 64.9272 661.433 Q64.9272 664.298 64.3543 667.417 Q63.8132 670.505 62.6992 673.942 L56.6518 673.942 Q58.3387 670.696 59.198 667.545 Q60.0256 664.393 60.0256 661.306 Q60.0256 657.168 58.6251 654.94 Q57.1929 652.712 54.6147 652.712 Q52.2276 652.712 50.9545 654.336 Q49.6813 655.927 48.5037 661.37 L48.0262 663.407 Q46.8804 668.849 44.5251 671.268 Q42.138 673.687 38.0002 673.687 Q32.9713 673.687 30.2341 670.123 Q27.4968 666.558 27.4968 660.001 Q27.4968 656.755 27.9743 653.89 Q28.4517 651.025 29.4065 648.607 Z" fill="#000000" fill-rule="evenodd" fill-opacity="1" /><polyline clip-path="url(#clip052)" style="stroke:#009af9; stroke-linecap:butt; stroke-linejoin:round; stroke-width:4; stroke-opacity:1; fill:none" points="
  294.087,86.1857 304.13,109.91 314.174,133.634 324.218,153.969 334.262,208.196 344.305,221.753 354.349,242.088 364.393,242.088 374.437,255.644 384.481,292.925 
  394.524,340.374 404.568,374.265 414.612,404.768 424.656,414.935 434.699,462.384 444.743,465.773 454.787,486.108 464.831,503.054 474.874,540.335 484.918,560.67 
  494.962,591.172 505.006,621.675 515.049,621.675 525.093,638.621 535.137,658.956 545.181,686.069 555.224,689.458 565.268,703.015 575.312,716.572 585.356,726.739 
  595.399,733.517 605.443,736.907 615.487,747.074 625.531,736.907 635.574,747.074 645.618,753.852 655.662,750.463 665.706,774.187 675.75,780.966 685.793,780.966 
  695.837,774.187 705.881,774.187 715.925,774.187 725.968,780.966 736.012,794.522 746.056,801.301 756.1,801.301 766.143,794.522 776.187,794.522 786.231,794.522 
  796.275,801.301 806.318,804.69 816.362,804.69 826.406,808.079 836.45,818.247 846.493,818.247 856.537,818.247 866.581,814.857 876.625,811.468 886.668,818.247 
  896.712,828.414 906.756,831.803 916.8,831.803 926.843,835.193 936.887,838.582 946.931,848.749 956.975,848.749 967.019,852.138 977.062,858.917 987.106,872.473 
  997.15,879.252 1007.19,886.03 1017.24,882.641 1027.28,896.198 1037.32,892.808 1047.37,909.754 1057.41,919.922 1067.46,916.533 1077.5,909.754 1087.54,916.533 
  1097.59,916.533 1107.63,909.754 1117.67,909.754 1127.72,909.754 1137.76,906.365 1147.81,909.754 1157.85,906.365 1167.89,906.365 1177.94,906.365 1187.98,906.365 
  1198.02,909.754 1208.07,916.533 1218.11,916.533 1228.16,916.533 1238.2,919.922 1248.24,919.922 1258.29,916.533 1268.33,916.533 1278.38,913.143 1288.42,909.754 
  1298.46,913.143 1308.51,913.143 1318.55,913.143 1328.59,913.143 1338.64,913.143 1348.68,913.143 1358.73,913.143 1368.77,909.754 1378.81,913.143 1388.86,913.143 
  1398.9,913.143 1408.94,913.143 1418.99,913.143 1429.03,909.754 1439.08,909.754 1449.12,909.754 1459.16,909.754 1469.21,909.754 1479.25,909.754 1489.29,909.754 
  1499.34,909.754 1509.38,909.754 1519.43,909.754 1529.47,909.754 1539.51,909.754 1549.56,909.754 1559.6,909.754 1569.64,909.754 1579.69,909.754 1589.73,909.754 
  1599.78,909.754 1609.82,909.754 1619.86,909.754 1629.91,909.754 1639.95,909.754 1649.99,909.754 1660.04,909.754 1670.08,909.754 1680.13,909.754 1690.17,909.754 
  1700.21,909.754 1710.26,909.754 1720.3,909.754 1730.34,909.754 1740.39,909.754 1750.43,909.754 1760.48,909.754 1770.52,909.754 1780.56,909.754 1790.61,909.754 
  1800.65,909.754 1810.69,909.754 1820.74,909.754 1830.78,909.754 1840.83,909.754 1850.87,909.754 1860.91,909.754 1870.96,909.754 1881,909.754 1891.04,909.754 
  1901.09,909.754 1911.13,909.754 1921.18,909.754 1931.22,909.754 1941.26,909.754 1951.31,909.754 1961.35,909.754 1971.39,909.754 1981.44,909.754 1991.48,909.754 
  2001.53,909.754 2011.57,909.754 2021.61,909.754 2031.66,909.754 2041.7,909.754 2051.74,909.754 2061.79,909.754 2071.83,909.754 2081.88,909.754 2091.92,909.754 
  2101.96,909.754 2112.01,909.754 2122.05,909.754 2132.09,909.754 2142.14,909.754 2152.18,909.754 2162.23,909.754 2172.27,909.754 2182.31,909.754 2192.36,909.754 
  2202.4,909.754 2212.44,909.754 2222.49,909.754 2232.53,909.754 2242.58,909.754 2252.62,909.754 2262.66,909.754 2272.71,909.754 2282.75,909.754 2292.79,909.754 
  
  "/>
<polyline clip-path="url(#clip052)" style="stroke:#e26f46; stroke-linecap:butt; stroke-linejoin:round; stroke-width:4; stroke-opacity:1; fill:none" points="
  294.087,1336.79 304.13,1316.45 314.174,1306.29 324.218,1296.12 334.262,1252.06 344.305,1255.45 354.349,1255.45 364.393,1275.78 374.437,1272.4 384.481,1258.84 
  394.524,1231.73 404.568,1208 414.612,1201.22 424.656,1224.95 434.699,1191.06 444.743,1214.78 454.787,1208 464.831,1214.78 474.874,1197.83 484.918,1201.22 
  494.962,1191.06 505.006,1167.33 515.049,1191.06 525.093,1194.44 535.137,1187.67 545.181,1191.06 555.224,1208 565.268,1208 575.312,1211.39 585.356,1231.73 
  595.399,1235.11 605.443,1252.06 615.487,1248.67 625.531,1272.4 635.574,1272.4 645.618,1285.95 655.662,1296.12 665.706,1289.34 675.75,1292.73 685.793,1299.51 
  695.837,1313.07 705.881,1323.23 715.925,1333.4 725.968,1330.01 736.012,1323.23 746.056,1319.84 756.1,1333.4 766.143,1346.96 776.187,1350.35 786.231,1357.12 
  796.275,1353.74 806.318,1360.51 816.362,1363.9 826.406,1363.9 836.45,1357.12 846.493,1360.51 856.537,1360.51 866.581,1363.9 876.625,1370.68 886.668,1363.9 
  896.712,1353.74 906.756,1350.35 916.8,1353.74 926.843,1350.35 936.887,1353.74 946.931,1350.35 956.975,1353.74 967.019,1353.74 977.062,1346.96 987.106,1336.79 
  997.15,1330.01 1007.19,1333.4 1017.24,1346.96 1027.28,1340.18 1037.32,1353.74 1047.37,1336.79 1057.41,1336.79 1067.46,1343.57 1077.5,1353.74 1087.54,1346.96 
  1097.59,1350.35 1107.63,1363.9 1117.67,1367.29 1127.72,1367.29 1137.76,1377.46 1147.81,1374.07 1157.85,1377.46 1167.89,1377.46 1177.94,1377.46 1187.98,1377.46 
  1198.02,1374.07 1208.07,1367.29 1218.11,1367.29 1228.16,1367.29 1238.2,1363.9 1248.24,1363.9 1258.29,1367.29 1268.33,1367.29 1278.38,1370.68 1288.42,1374.07 
  1298.46,1374.07 1308.51,1374.07 1318.55,1374.07 1328.59,1374.07 1338.64,1374.07 1348.68,1374.07 1358.73,1374.07 1368.77,1377.46 1378.81,1377.46 1388.86,1380.85 
  1398.9,1380.85 1408.94,1380.85 1418.99,1380.85 1429.03,1384.24 1439.08,1384.24 1449.12,1384.24 1459.16,1384.24 1469.21,1384.24 1479.25,1384.24 1489.29,1384.24 
  1499.34,1384.24 1509.38,1384.24 1519.43,1384.24 1529.47,1384.24 1539.51,1384.24 1549.56,1384.24 1559.6,1384.24 1569.64,1384.24 1579.69,1384.24 1589.73,1384.24 
  1599.78,1384.24 1609.82,1384.24 1619.86,1384.24 1629.91,1384.24 1639.95,1384.24 1649.99,1384.24 1660.04,1384.24 1670.08,1384.24 1680.13,1384.24 1690.17,1384.24 
  1700.21,1384.24 1710.26,1384.24 1720.3,1384.24 1730.34,1384.24 1740.39,1384.24 1750.43,1384.24 1760.48,1384.24 1770.52,1384.24 1780.56,1384.24 1790.61,1384.24 
  1800.65,1384.24 1810.69,1384.24 1820.74,1384.24 1830.78,1384.24 1840.83,1384.24 1850.87,1384.24 1860.91,1384.24 1870.96,1384.24 1881,1384.24 1891.04,1384.24 
  1901.09,1384.24 1911.13,1384.24 1921.18,1384.24 1931.22,1384.24 1941.26,1384.24 1951.31,1384.24 1961.35,1384.24 1971.39,1384.24 1981.44,1384.24 1991.48,1384.24 
  2001.53,1384.24 2011.57,1384.24 2021.61,1384.24 2031.66,1384.24 2041.7,1384.24 2051.74,1384.24 2061.79,1384.24 2071.83,1384.24 2081.88,1384.24 2091.92,1384.24 
  2101.96,1384.24 2112.01,1384.24 2122.05,1384.24 2132.09,1384.24 2142.14,1384.24 2152.18,1384.24 2162.23,1384.24 2172.27,1384.24 2182.31,1384.24 2192.36,1384.24 
  2202.4,1384.24 2212.44,1384.24 2222.49,1384.24 2232.53,1384.24 2242.58,1384.24 2252.62,1384.24 2262.66,1384.24 2272.71,1384.24 2282.75,1384.24 2292.79,1384.24 
  
  "/>
<polyline clip-path="url(#clip052)" style="stroke:#3da44d; stroke-linecap:butt; stroke-linejoin:round; stroke-width:4; stroke-opacity:1; fill:none" points="
  294.087,1374.07 304.13,1370.68 314.174,1357.12 324.218,1346.96 334.262,1336.79 344.305,1319.84 354.349,1299.51 364.393,1279.17 374.437,1269.01 384.481,1245.28 
  394.524,1224.95 404.568,1214.78 414.612,1191.06 424.656,1157.16 434.699,1143.61 444.743,1116.49 454.787,1102.94 464.831,1079.21 474.874,1058.88 484.918,1035.15 
  494.962,1014.82 505.006,1008.04 515.049,984.316 525.093,963.981 535.137,950.424 545.181,919.922 555.224,899.587 565.268,886.03 575.312,869.084 585.356,838.582 
  595.399,828.414 605.443,808.079 615.487,801.301 625.531,787.744 635.574,777.577 645.618,757.242 655.662,750.463 665.706,733.517 675.75,723.35 685.793,716.572 
  695.837,709.793 705.881,699.626 715.925,689.458 725.968,686.069 736.012,679.291 746.056,675.901 756.1,662.345 766.143,655.566 776.187,652.177 786.231,645.399 
  796.275,642.01 806.318,631.842 816.362,628.453 826.406,625.064 836.45,621.675 846.493,618.286 856.537,618.286 866.581,618.286 876.625,614.896 886.668,614.896 
  896.712,614.896 906.756,614.896 916.8,611.507 926.843,611.507 936.887,604.729 946.931,597.951 956.975,594.561 967.019,591.172 977.062,591.172 987.106,587.783 
  997.15,587.783 1007.19,577.616 1017.24,567.448 1027.28,560.67 1037.32,550.502 1047.37,550.502 1057.41,540.335 1067.46,536.945 1077.5,533.556 1087.54,533.556 
  1097.59,530.167 1107.63,523.389 1117.67,520 1127.72,520 1137.76,513.221 1147.81,513.221 1157.85,513.221 1167.89,513.221 1177.94,513.221 1187.98,513.221 
  1198.02,513.221 1208.07,513.221 1218.11,513.221 1228.16,513.221 1238.2,513.221 1248.24,513.221 1258.29,513.221 1268.33,513.221 1278.38,513.221 1288.42,513.221 
  1298.46,509.832 1308.51,509.832 1318.55,509.832 1328.59,509.832 1338.64,509.832 1348.68,509.832 1358.73,509.832 1368.77,509.832 1378.81,506.443 1388.86,503.054 
  1398.9,503.054 1408.94,503.054 1418.99,503.054 1429.03,503.054 1439.08,503.054 1449.12,503.054 1459.16,503.054 1469.21,503.054 1479.25,503.054 1489.29,503.054 
  1499.34,503.054 1509.38,503.054 1519.43,503.054 1529.47,503.054 1539.51,503.054 1549.56,503.054 1559.6,503.054 1569.64,503.054 1579.69,503.054 1589.73,503.054 
  1599.78,503.054 1609.82,503.054 1619.86,503.054 1629.91,503.054 1639.95,503.054 1649.99,503.054 1660.04,503.054 1670.08,503.054 1680.13,503.054 1690.17,503.054 
  1700.21,503.054 1710.26,503.054 1720.3,503.054 1730.34,503.054 1740.39,503.054 1750.43,503.054 1760.48,503.054 1770.52,503.054 1780.56,503.054 1790.61,503.054 
  1800.65,503.054 1810.69,503.054 1820.74,503.054 1830.78,503.054 1840.83,503.054 1850.87,503.054 1860.91,503.054 1870.96,503.054 1881,503.054 1891.04,503.054 
  1901.09,503.054 1911.13,503.054 1921.18,503.054 1931.22,503.054 1941.26,503.054 1951.31,503.054 1961.35,503.054 1971.39,503.054 1981.44,503.054 1991.48,503.054 
  2001.53,503.054 2011.57,503.054 2021.61,503.054 2031.66,503.054 2041.7,503.054 2051.74,503.054 2061.79,503.054 2071.83,503.054 2081.88,503.054 2091.92,503.054 
  2101.96,503.054 2112.01,503.054 2122.05,503.054 2132.09,503.054 2142.14,503.054 2152.18,503.054 2162.23,503.054 2172.27,503.054 2182.31,503.054 2192.36,503.054 
  2202.4,503.054 2212.44,503.054 2222.49,503.054 2232.53,503.054 2242.58,503.054 2252.62,503.054 2262.66,503.054 2272.71,503.054 2282.75,503.054 2292.79,503.054 
  
  "/>
<path clip-path="url(#clip050)" d="
M1711.78 300.469 L2282.13 300.469 L2282.13 93.1086 L1711.78 93.1086  Z
  " fill="#ffffff" fill-rule="evenodd" fill-opacity="1"/>
<polyline clip-path="url(#clip050)" style="stroke:#000000; stroke-linecap:butt; stroke-linejoin:round; stroke-width:4; stroke-opacity:1; fill:none" points="
  1711.78,300.469 2282.13,300.469 2282.13,93.1086 1711.78,93.1086 1711.78,300.469 
  "/>
<polyline clip-path="url(#clip050)" style="stroke:#009af9; stroke-linecap:butt; stroke-linejoin:round; stroke-width:4; stroke-opacity:1; fill:none" points="
  1735.32,144.949 1876.56,144.949 
  "/>
<path clip-path="url(#clip050)" d="M1921.82 146.581 L1921.82 162.229 L1917.56 162.229 L1917.56 146.719 Q1917.56 143.039 1916.12 141.21 Q1914.69 139.382 1911.82 139.382 Q1908.37 139.382 1906.38 141.581 Q1904.38 143.78 1904.38 147.576 L1904.38 162.229 L1900.1 162.229 L1900.1 126.21 L1904.38 126.21 L1904.38 140.331 Q1905.91 137.993 1907.97 136.835 Q1910.06 135.678 1912.76 135.678 Q1917.23 135.678 1919.52 138.456 Q1921.82 141.21 1921.82 146.581 Z" fill="#000000" fill-rule="evenodd" fill-opacity="1" /><path clip-path="url(#clip050)" d="M1952.49 148.201 L1952.49 150.284 L1932.9 150.284 Q1933.18 154.682 1935.54 156.997 Q1937.93 159.289 1942.16 159.289 Q1944.62 159.289 1946.91 158.687 Q1949.22 158.085 1951.49 156.881 L1951.49 160.909 Q1949.2 161.881 1946.79 162.391 Q1944.38 162.9 1941.91 162.9 Q1935.7 162.9 1932.07 159.289 Q1928.46 155.678 1928.46 149.52 Q1928.46 143.155 1931.88 139.428 Q1935.33 135.678 1941.17 135.678 Q1946.4 135.678 1949.43 139.057 Q1952.49 142.414 1952.49 148.201 M1948.23 146.951 Q1948.18 143.456 1946.26 141.372 Q1944.36 139.289 1941.21 139.289 Q1937.65 139.289 1935.5 141.303 Q1933.37 143.317 1933.04 146.974 L1948.23 146.951 Z" fill="#000000" fill-rule="evenodd" fill-opacity="1" /><path clip-path="url(#clip050)" d="M1971.26 149.196 Q1966.1 149.196 1964.11 150.377 Q1962.12 151.557 1962.12 154.405 Q1962.12 156.673 1963.6 158.016 Q1965.1 159.335 1967.67 159.335 Q1971.21 159.335 1973.34 156.835 Q1975.5 154.312 1975.5 150.145 L1975.5 149.196 L1971.26 149.196 M1979.75 147.437 L1979.75 162.229 L1975.5 162.229 L1975.5 158.293 Q1974.04 160.655 1971.86 161.789 Q1969.69 162.9 1966.54 162.9 Q1962.56 162.9 1960.19 160.678 Q1957.86 158.432 1957.86 154.682 Q1957.86 150.307 1960.77 148.085 Q1963.71 145.863 1969.52 145.863 L1975.5 145.863 L1975.5 145.446 Q1975.5 142.507 1973.55 140.909 Q1971.63 139.289 1968.13 139.289 Q1965.91 139.289 1963.81 139.821 Q1961.7 140.354 1959.75 141.419 L1959.75 137.483 Q1962.09 136.581 1964.29 136.141 Q1966.49 135.678 1968.57 135.678 Q1974.2 135.678 1976.98 138.594 Q1979.75 141.511 1979.75 147.437 Z" fill="#000000" fill-rule="evenodd" fill-opacity="1" /><path clip-path="url(#clip050)" d="M1988.53 126.21 L1992.79 126.21 L1992.79 162.229 L1988.53 162.229 L1988.53 126.21 Z" fill="#000000" fill-rule="evenodd" fill-opacity="1" /><path clip-path="url(#clip050)" d="M2005.91 128.942 L2005.91 136.303 L2014.69 136.303 L2014.69 139.613 L2005.91 139.613 L2005.91 153.687 Q2005.91 156.858 2006.77 157.761 Q2007.65 158.664 2010.31 158.664 L2014.69 158.664 L2014.69 162.229 L2010.31 162.229 Q2005.38 162.229 2003.5 160.4 Q2001.63 158.548 2001.63 153.687 L2001.63 139.613 L1998.5 139.613 L1998.5 136.303 L2001.63 136.303 L2001.63 128.942 L2005.91 128.942 Z" fill="#000000" fill-rule="evenodd" fill-opacity="1" /><path clip-path="url(#clip050)" d="M2041.84 146.581 L2041.84 162.229 L2037.58 162.229 L2037.58 146.719 Q2037.58 143.039 2036.14 141.21 Q2034.71 139.382 2031.84 139.382 Q2028.39 139.382 2026.4 141.581 Q2024.41 143.78 2024.41 147.576 L2024.41 162.229 L2020.12 162.229 L2020.12 126.21 L2024.41 126.21 L2024.41 140.331 Q2025.93 137.993 2028 136.835 Q2030.08 135.678 2032.79 135.678 Q2037.25 135.678 2039.55 138.456 Q2041.84 141.21 2041.84 146.581 Z" fill="#000000" fill-rule="evenodd" fill-opacity="1" /><path clip-path="url(#clip050)" d="M2061.12 164.636 Q2059.31 169.266 2057.6 170.678 Q2055.89 172.09 2053.02 172.09 L2049.62 172.09 L2049.62 168.525 L2052.12 168.525 Q2053.87 168.525 2054.85 167.692 Q2055.82 166.858 2057 163.756 L2057.76 161.812 L2047.28 136.303 L2051.79 136.303 L2059.89 156.581 L2067.99 136.303 L2072.51 136.303 L2061.12 164.636 Z" fill="#000000" fill-rule="evenodd" fill-opacity="1" /><path clip-path="url(#clip050)" d="M2112.12 137.298 L2112.12 141.28 Q2110.31 140.284 2108.48 139.798 Q2106.68 139.289 2104.82 139.289 Q2100.68 139.289 2098.39 141.928 Q2096.1 144.544 2096.1 149.289 Q2096.1 154.034 2098.39 156.673 Q2100.68 159.289 2104.82 159.289 Q2106.68 159.289 2108.48 158.803 Q2110.31 158.293 2112.12 157.298 L2112.12 161.233 Q2110.33 162.067 2108.41 162.483 Q2106.51 162.9 2104.36 162.9 Q2098.5 162.9 2095.05 159.219 Q2091.61 155.539 2091.61 149.289 Q2091.61 142.946 2095.08 139.312 Q2098.57 135.678 2104.64 135.678 Q2106.61 135.678 2108.48 136.095 Q2110.36 136.488 2112.12 137.298 Z" fill="#000000" fill-rule="evenodd" fill-opacity="1" /><path clip-path="url(#clip050)" d="M2131.3 149.196 Q2126.14 149.196 2124.15 150.377 Q2122.16 151.557 2122.16 154.405 Q2122.16 156.673 2123.64 158.016 Q2125.15 159.335 2127.72 159.335 Q2131.26 159.335 2133.39 156.835 Q2135.54 154.312 2135.54 150.145 L2135.54 149.196 L2131.3 149.196 M2139.8 147.437 L2139.8 162.229 L2135.54 162.229 L2135.54 158.293 Q2134.08 160.655 2131.91 161.789 Q2129.73 162.9 2126.58 162.9 Q2122.6 162.9 2120.24 160.678 Q2117.9 158.432 2117.9 154.682 Q2117.9 150.307 2120.82 148.085 Q2123.76 145.863 2129.57 145.863 L2135.54 145.863 L2135.54 145.446 Q2135.54 142.507 2133.6 140.909 Q2131.68 139.289 2128.18 139.289 Q2125.96 139.289 2123.85 139.821 Q2121.74 140.354 2119.8 141.419 L2119.8 137.483 Q2122.14 136.581 2124.34 136.141 Q2126.54 135.678 2128.62 135.678 Q2134.24 135.678 2137.02 138.594 Q2139.8 141.511 2139.8 147.437 Z" fill="#000000" fill-rule="evenodd" fill-opacity="1" /><path clip-path="url(#clip050)" d="M2165.1 137.067 L2165.1 141.094 Q2163.3 140.169 2161.35 139.706 Q2159.41 139.243 2157.32 139.243 Q2154.15 139.243 2152.55 140.215 Q2150.98 141.187 2150.98 143.131 Q2150.98 144.613 2152.11 145.469 Q2153.25 146.303 2156.68 147.067 L2158.13 147.391 Q2162.67 148.363 2164.57 150.145 Q2166.49 151.905 2166.49 155.076 Q2166.49 158.687 2163.62 160.793 Q2160.77 162.9 2155.77 162.9 Q2153.69 162.9 2151.42 162.483 Q2149.18 162.09 2146.68 161.28 L2146.68 156.881 Q2149.04 158.108 2151.33 158.733 Q2153.62 159.335 2155.86 159.335 Q2158.87 159.335 2160.49 158.317 Q2162.11 157.275 2162.11 155.4 Q2162.11 153.664 2160.93 152.738 Q2159.78 151.812 2155.82 150.956 L2154.34 150.608 Q2150.38 149.775 2148.62 148.062 Q2146.86 146.326 2146.86 143.317 Q2146.86 139.659 2149.45 137.669 Q2152.05 135.678 2156.81 135.678 Q2159.17 135.678 2161.26 136.025 Q2163.34 136.372 2165.1 137.067 Z" fill="#000000" fill-rule="evenodd" fill-opacity="1" /><path clip-path="url(#clip050)" d="M2195.45 148.201 L2195.45 150.284 L2175.86 150.284 Q2176.14 154.682 2178.5 156.997 Q2180.89 159.289 2185.12 159.289 Q2187.58 159.289 2189.87 158.687 Q2192.18 158.085 2194.45 156.881 L2194.45 160.909 Q2192.16 161.881 2189.75 162.391 Q2187.35 162.9 2184.87 162.9 Q2178.67 162.9 2175.03 159.289 Q2171.42 155.678 2171.42 149.52 Q2171.42 143.155 2174.85 139.428 Q2178.3 135.678 2184.13 135.678 Q2189.36 135.678 2192.39 139.057 Q2195.45 142.414 2195.45 148.201 M2191.19 146.951 Q2191.14 143.456 2189.22 141.372 Q2187.32 139.289 2184.17 139.289 Q2180.61 139.289 2178.46 141.303 Q2176.33 143.317 2176 146.974 L2191.19 146.951 Z" fill="#000000" fill-rule="evenodd" fill-opacity="1" /><path clip-path="url(#clip050)" d="M2218.97 137.067 L2218.97 141.094 Q2217.16 140.169 2215.22 139.706 Q2213.27 139.243 2211.19 139.243 Q2208.02 139.243 2206.42 140.215 Q2204.85 141.187 2204.85 143.131 Q2204.85 144.613 2205.98 145.469 Q2207.11 146.303 2210.54 147.067 L2212 147.391 Q2216.54 148.363 2218.43 150.145 Q2220.36 151.905 2220.36 155.076 Q2220.36 158.687 2217.48 160.793 Q2214.64 162.9 2209.64 162.9 Q2207.55 162.9 2205.29 162.483 Q2203.04 162.09 2200.54 161.28 L2200.54 156.881 Q2202.9 158.108 2205.19 158.733 Q2207.48 159.335 2209.73 159.335 Q2212.74 159.335 2214.36 158.317 Q2215.98 157.275 2215.98 155.4 Q2215.98 153.664 2214.8 152.738 Q2213.64 151.812 2209.68 150.956 L2208.2 150.608 Q2204.24 149.775 2202.48 148.062 Q2200.73 146.326 2200.73 143.317 Q2200.73 139.659 2203.32 137.669 Q2205.91 135.678 2210.68 135.678 Q2213.04 135.678 2215.12 136.025 Q2217.21 136.372 2218.97 137.067 Z" fill="#000000" fill-rule="evenodd" fill-opacity="1" /><polyline clip-path="url(#clip050)" style="stroke:#e26f46; stroke-linecap:butt; stroke-linejoin:round; stroke-width:4; stroke-opacity:1; fill:none" points="
  1735.32,196.789 1876.56,196.789 
  "/>
<path clip-path="url(#clip050)" d="M1900.1 188.143 L1904.36 188.143 L1904.36 214.069 L1900.1 214.069 L1900.1 188.143 M1900.1 178.05 L1904.36 178.05 L1904.36 183.444 L1900.1 183.444 L1900.1 178.05 Z" fill="#000000" fill-rule="evenodd" fill-opacity="1" /><path clip-path="url(#clip050)" d="M1934.82 198.421 L1934.82 214.069 L1930.57 214.069 L1930.57 198.559 Q1930.57 194.879 1929.13 193.05 Q1927.69 191.222 1924.82 191.222 Q1921.38 191.222 1919.38 193.421 Q1917.39 195.62 1917.39 199.416 L1917.39 214.069 L1913.11 214.069 L1913.11 188.143 L1917.39 188.143 L1917.39 192.171 Q1918.92 189.833 1920.98 188.675 Q1923.07 187.518 1925.77 187.518 Q1930.24 187.518 1932.53 190.296 Q1934.82 193.05 1934.82 198.421 Z" fill="#000000" fill-rule="evenodd" fill-opacity="1" /><path clip-path="url(#clip050)" d="M1956.44 178.05 L1956.44 181.592 L1952.37 181.592 Q1950.08 181.592 1949.18 182.518 Q1948.3 183.444 1948.3 185.851 L1948.3 188.143 L1955.31 188.143 L1955.31 191.453 L1948.3 191.453 L1948.3 214.069 L1944.01 214.069 L1944.01 191.453 L1939.94 191.453 L1939.94 188.143 L1944.01 188.143 L1944.01 186.337 Q1944.01 182.009 1946.03 180.041 Q1948.04 178.05 1952.42 178.05 L1956.44 178.05 Z" fill="#000000" fill-rule="evenodd" fill-opacity="1" /><path clip-path="url(#clip050)" d="M1982.19 200.041 L1982.19 202.124 L1962.6 202.124 Q1962.88 206.522 1965.24 208.837 Q1967.63 211.129 1971.86 211.129 Q1974.31 211.129 1976.61 210.527 Q1978.92 209.925 1981.19 208.721 L1981.19 212.749 Q1978.9 213.721 1976.49 214.231 Q1974.08 214.74 1971.61 214.74 Q1965.4 214.74 1961.77 211.129 Q1958.16 207.518 1958.16 201.36 Q1958.16 194.995 1961.58 191.268 Q1965.03 187.518 1970.87 187.518 Q1976.1 187.518 1979.13 190.897 Q1982.19 194.254 1982.19 200.041 M1977.93 198.791 Q1977.88 195.296 1975.96 193.212 Q1974.06 191.129 1970.91 191.129 Q1967.35 191.129 1965.19 193.143 Q1963.06 195.157 1962.74 198.814 L1977.93 198.791 Z" fill="#000000" fill-rule="evenodd" fill-opacity="1" /><path clip-path="url(#clip050)" d="M2007.83 189.138 L2007.83 193.12 Q2006.03 192.124 2004.2 191.638 Q2002.39 191.129 2000.54 191.129 Q1996.4 191.129 1994.11 193.768 Q1991.81 196.384 1991.81 201.129 Q1991.81 205.874 1994.11 208.513 Q1996.4 211.129 2000.54 211.129 Q2002.39 211.129 2004.2 210.643 Q2006.03 210.133 2007.83 209.138 L2007.83 213.073 Q2006.05 213.907 2004.13 214.323 Q2002.23 214.74 2000.08 214.74 Q1994.22 214.74 1990.77 211.059 Q1987.32 207.379 1987.32 201.129 Q1987.32 194.786 1990.8 191.152 Q1994.29 187.518 2000.36 187.518 Q2002.32 187.518 2004.2 187.935 Q2006.07 188.328 2007.83 189.138 Z" fill="#000000" fill-rule="evenodd" fill-opacity="1" /><path clip-path="url(#clip050)" d="M2019.45 180.782 L2019.45 188.143 L2028.23 188.143 L2028.23 191.453 L2019.45 191.453 L2019.45 205.527 Q2019.45 208.698 2020.31 209.601 Q2021.19 210.504 2023.85 210.504 L2028.23 210.504 L2028.23 214.069 L2023.85 214.069 Q2018.92 214.069 2017.05 212.24 Q2015.17 210.388 2015.17 205.527 L2015.17 191.453 L2012.05 191.453 L2012.05 188.143 L2015.17 188.143 L2015.17 180.782 L2019.45 180.782 Z" fill="#000000" fill-rule="evenodd" fill-opacity="1" /><path clip-path="url(#clip050)" d="M2056 200.041 L2056 202.124 L2036.42 202.124 Q2036.7 206.522 2039.06 208.837 Q2041.44 211.129 2045.68 211.129 Q2048.13 211.129 2050.43 210.527 Q2052.74 209.925 2055.01 208.721 L2055.01 212.749 Q2052.72 213.721 2050.31 214.231 Q2047.9 214.74 2045.43 214.74 Q2039.22 214.74 2035.59 211.129 Q2031.98 207.518 2031.98 201.36 Q2031.98 194.995 2035.4 191.268 Q2038.85 187.518 2044.68 187.518 Q2049.92 187.518 2052.95 190.897 Q2056 194.254 2056 200.041 M2051.75 198.791 Q2051.7 195.296 2049.78 193.212 Q2047.88 191.129 2044.73 191.129 Q2041.17 191.129 2039.01 193.143 Q2036.88 195.157 2036.56 198.814 L2051.75 198.791 Z" fill="#000000" fill-rule="evenodd" fill-opacity="1" /><path clip-path="url(#clip050)" d="M2080.06 192.078 L2080.06 178.05 L2084.31 178.05 L2084.31 214.069 L2080.06 214.069 L2080.06 210.18 Q2078.71 212.495 2076.65 213.629 Q2074.62 214.74 2071.74 214.74 Q2067.05 214.74 2064.08 210.99 Q2061.14 207.24 2061.14 201.129 Q2061.14 195.018 2064.08 191.268 Q2067.05 187.518 2071.74 187.518 Q2074.62 187.518 2076.65 188.652 Q2078.71 189.763 2080.06 192.078 M2065.54 201.129 Q2065.54 205.828 2067.46 208.513 Q2069.41 211.175 2072.79 211.175 Q2076.17 211.175 2078.11 208.513 Q2080.06 205.828 2080.06 201.129 Q2080.06 196.43 2078.11 193.768 Q2076.17 191.083 2072.79 191.083 Q2069.41 191.083 2067.46 193.768 Q2065.54 196.43 2065.54 201.129 Z" fill="#000000" fill-rule="evenodd" fill-opacity="1" /><path clip-path="url(#clip050)" d="M2126.81 189.138 L2126.81 193.12 Q2125.01 192.124 2123.18 191.638 Q2121.37 191.129 2119.52 191.129 Q2115.38 191.129 2113.09 193.768 Q2110.8 196.384 2110.8 201.129 Q2110.8 205.874 2113.09 208.513 Q2115.38 211.129 2119.52 211.129 Q2121.37 211.129 2123.18 210.643 Q2125.01 210.133 2126.81 209.138 L2126.81 213.073 Q2125.03 213.907 2123.11 214.323 Q2121.21 214.74 2119.06 214.74 Q2113.2 214.74 2109.75 211.059 Q2106.3 207.379 2106.3 201.129 Q2106.3 194.786 2109.78 191.152 Q2113.27 187.518 2119.34 187.518 Q2121.3 187.518 2123.18 187.935 Q2125.05 188.328 2126.81 189.138 Z" fill="#000000" fill-rule="evenodd" fill-opacity="1" /><path clip-path="url(#clip050)" d="M2146 201.036 Q2140.84 201.036 2138.85 202.217 Q2136.86 203.397 2136.86 206.245 Q2136.86 208.513 2138.34 209.856 Q2139.85 211.175 2142.42 211.175 Q2145.96 211.175 2148.09 208.675 Q2150.24 206.152 2150.24 201.985 L2150.24 201.036 L2146 201.036 M2154.5 199.277 L2154.5 214.069 L2150.24 214.069 L2150.24 210.133 Q2148.78 212.495 2146.61 213.629 Q2144.43 214.74 2141.28 214.74 Q2137.3 214.74 2134.94 212.518 Q2132.6 210.272 2132.6 206.522 Q2132.6 202.147 2135.52 199.925 Q2138.46 197.703 2144.27 197.703 L2150.24 197.703 L2150.24 197.286 Q2150.24 194.347 2148.3 192.749 Q2146.37 191.129 2142.88 191.129 Q2140.66 191.129 2138.55 191.661 Q2136.44 192.194 2134.5 193.259 L2134.5 189.323 Q2136.84 188.421 2139.04 187.981 Q2141.24 187.518 2143.32 187.518 Q2148.94 187.518 2151.72 190.434 Q2154.5 193.351 2154.5 199.277 Z" fill="#000000" fill-rule="evenodd" fill-opacity="1" /><path clip-path="url(#clip050)" d="M2179.8 188.907 L2179.8 192.934 Q2177.99 192.009 2176.05 191.546 Q2174.11 191.083 2172.02 191.083 Q2168.85 191.083 2167.25 192.055 Q2165.68 193.027 2165.68 194.971 Q2165.68 196.453 2166.81 197.309 Q2167.95 198.143 2171.37 198.907 L2172.83 199.231 Q2177.37 200.203 2179.27 201.985 Q2181.19 203.745 2181.19 206.916 Q2181.19 210.527 2178.32 212.633 Q2175.47 214.74 2170.47 214.74 Q2168.39 214.74 2166.12 214.323 Q2163.87 213.93 2161.37 213.12 L2161.37 208.721 Q2163.74 209.948 2166.03 210.573 Q2168.32 211.175 2170.56 211.175 Q2173.57 211.175 2175.19 210.157 Q2176.81 209.115 2176.81 207.24 Q2176.81 205.504 2175.63 204.578 Q2174.48 203.652 2170.52 202.796 L2169.04 202.448 Q2165.08 201.615 2163.32 199.902 Q2161.56 198.166 2161.56 195.157 Q2161.56 191.499 2164.15 189.509 Q2166.74 187.518 2171.51 187.518 Q2173.87 187.518 2175.96 187.865 Q2178.04 188.212 2179.8 188.907 Z" fill="#000000" fill-rule="evenodd" fill-opacity="1" /><path clip-path="url(#clip050)" d="M2210.15 200.041 L2210.15 202.124 L2190.56 202.124 Q2190.84 206.522 2193.2 208.837 Q2195.59 211.129 2199.82 211.129 Q2202.28 211.129 2204.57 210.527 Q2206.88 209.925 2209.15 208.721 L2209.15 212.749 Q2206.86 213.721 2204.45 214.231 Q2202.05 214.74 2199.57 214.74 Q2193.36 214.74 2189.73 211.129 Q2186.12 207.518 2186.12 201.36 Q2186.12 194.995 2189.55 191.268 Q2192.99 187.518 2198.83 187.518 Q2204.06 187.518 2207.09 190.897 Q2210.15 194.254 2210.15 200.041 M2205.89 198.791 Q2205.84 195.296 2203.92 193.212 Q2202.02 191.129 2198.87 191.129 Q2195.31 191.129 2193.16 193.143 Q2191.03 195.157 2190.7 198.814 L2205.89 198.791 Z" fill="#000000" fill-rule="evenodd" fill-opacity="1" /><path clip-path="url(#clip050)" d="M2233.67 188.907 L2233.67 192.934 Q2231.86 192.009 2229.92 191.546 Q2227.97 191.083 2225.89 191.083 Q2222.72 191.083 2221.12 192.055 Q2219.55 193.027 2219.55 194.971 Q2219.55 196.453 2220.68 197.309 Q2221.81 198.143 2225.24 198.907 L2226.7 199.231 Q2231.23 200.203 2233.13 201.985 Q2235.05 203.745 2235.05 206.916 Q2235.05 210.527 2232.18 212.633 Q2229.34 214.74 2224.34 214.74 Q2222.25 214.74 2219.98 214.323 Q2217.74 213.93 2215.24 213.12 L2215.24 208.721 Q2217.6 209.948 2219.89 210.573 Q2222.18 211.175 2224.43 211.175 Q2227.44 211.175 2229.06 210.157 Q2230.68 209.115 2230.68 207.24 Q2230.68 205.504 2229.5 204.578 Q2228.34 203.652 2224.38 202.796 L2222.9 202.448 Q2218.94 201.615 2217.18 199.902 Q2215.42 198.166 2215.42 195.157 Q2215.42 191.499 2218.02 189.509 Q2220.61 187.518 2225.38 187.518 Q2227.74 187.518 2229.82 187.865 Q2231.91 188.212 2233.67 188.907 Z" fill="#000000" fill-rule="evenodd" fill-opacity="1" /><polyline clip-path="url(#clip050)" style="stroke:#3da44d; stroke-linecap:butt; stroke-linejoin:round; stroke-width:4; stroke-opacity:1; fill:none" points="
  1735.32,248.629 1876.56,248.629 
  "/>
<path clip-path="url(#clip050)" d="M1916.61 229.89 L1916.61 233.432 L1912.53 233.432 Q1910.24 233.432 1909.34 234.358 Q1908.46 235.284 1908.46 237.691 L1908.46 239.983 L1915.47 239.983 L1915.47 243.293 L1908.46 243.293 L1908.46 265.909 L1904.18 265.909 L1904.18 243.293 L1900.1 243.293 L1900.1 239.983 L1904.18 239.983 L1904.18 238.177 Q1904.18 233.849 1906.19 231.881 Q1908.2 229.89 1912.58 229.89 L1916.61 229.89 Z" fill="#000000" fill-rule="evenodd" fill-opacity="1" /><path clip-path="url(#clip050)" d="M1931.95 252.876 Q1926.79 252.876 1924.8 254.057 Q1922.81 255.237 1922.81 258.085 Q1922.81 260.353 1924.29 261.696 Q1925.8 263.015 1928.37 263.015 Q1931.91 263.015 1934.04 260.515 Q1936.19 257.992 1936.19 253.825 L1936.19 252.876 L1931.95 252.876 M1940.45 251.117 L1940.45 265.909 L1936.19 265.909 L1936.19 261.973 Q1934.73 264.335 1932.56 265.469 Q1930.38 266.58 1927.23 266.58 Q1923.25 266.58 1920.89 264.358 Q1918.55 262.112 1918.55 258.362 Q1918.55 253.987 1921.47 251.765 Q1924.41 249.543 1930.22 249.543 L1936.19 249.543 L1936.19 249.126 Q1936.19 246.187 1934.25 244.589 Q1932.32 242.969 1928.83 242.969 Q1926.61 242.969 1924.5 243.501 Q1922.39 244.034 1920.45 245.099 L1920.45 241.163 Q1922.79 240.261 1924.99 239.821 Q1927.19 239.358 1929.27 239.358 Q1934.89 239.358 1937.67 242.274 Q1940.45 245.191 1940.45 251.117 Z" fill="#000000" fill-rule="evenodd" fill-opacity="1" /><path clip-path="url(#clip050)" d="M1953.44 232.622 L1953.44 239.983 L1962.21 239.983 L1962.21 243.293 L1953.44 243.293 L1953.44 257.367 Q1953.44 260.538 1954.29 261.441 Q1955.17 262.344 1957.83 262.344 L1962.21 262.344 L1962.21 265.909 L1957.83 265.909 Q1952.9 265.909 1951.03 264.08 Q1949.15 262.228 1949.15 257.367 L1949.15 243.293 L1946.03 243.293 L1946.03 239.983 L1949.15 239.983 L1949.15 232.622 L1953.44 232.622 Z" fill="#000000" fill-rule="evenodd" fill-opacity="1" /><path clip-path="url(#clip050)" d="M1979.59 252.876 Q1974.43 252.876 1972.44 254.057 Q1970.45 255.237 1970.45 258.085 Q1970.45 260.353 1971.93 261.696 Q1973.44 263.015 1976 263.015 Q1979.55 263.015 1981.68 260.515 Q1983.83 257.992 1983.83 253.825 L1983.83 252.876 L1979.59 252.876 M1988.09 251.117 L1988.09 265.909 L1983.83 265.909 L1983.83 261.973 Q1982.37 264.335 1980.19 265.469 Q1978.02 266.58 1974.87 266.58 Q1970.89 266.58 1968.53 264.358 Q1966.19 262.112 1966.19 258.362 Q1966.19 253.987 1969.11 251.765 Q1972.05 249.543 1977.86 249.543 L1983.83 249.543 L1983.83 249.126 Q1983.83 246.187 1981.88 244.589 Q1979.96 242.969 1976.47 242.969 Q1974.25 242.969 1972.14 243.501 Q1970.03 244.034 1968.09 245.099 L1968.09 241.163 Q1970.43 240.261 1972.63 239.821 Q1974.82 239.358 1976.91 239.358 Q1982.53 239.358 1985.31 242.274 Q1988.09 245.191 1988.09 251.117 Z" fill="#000000" fill-rule="evenodd" fill-opacity="1" /><path clip-path="url(#clip050)" d="M1996.86 229.89 L2001.12 229.89 L2001.12 265.909 L1996.86 265.909 L1996.86 229.89 Z" fill="#000000" fill-rule="evenodd" fill-opacity="1" /><path clip-path="url(#clip050)" d="M2043.76 240.978 L2043.76 244.96 Q2041.95 243.964 2040.12 243.478 Q2038.32 242.969 2036.47 242.969 Q2032.32 242.969 2030.03 245.608 Q2027.74 248.224 2027.74 252.969 Q2027.74 257.714 2030.03 260.353 Q2032.32 262.969 2036.47 262.969 Q2038.32 262.969 2040.12 262.483 Q2041.95 261.973 2043.76 260.978 L2043.76 264.913 Q2041.98 265.747 2040.06 266.163 Q2038.16 266.58 2036 266.58 Q2030.15 266.58 2026.7 262.899 Q2023.25 259.219 2023.25 252.969 Q2023.25 246.626 2026.72 242.992 Q2030.22 239.358 2036.28 239.358 Q2038.25 239.358 2040.12 239.775 Q2042 240.168 2043.76 240.978 Z" fill="#000000" fill-rule="evenodd" fill-opacity="1" /><path clip-path="url(#clip050)" d="M2062.95 252.876 Q2057.79 252.876 2055.8 254.057 Q2053.81 255.237 2053.81 258.085 Q2053.81 260.353 2055.29 261.696 Q2056.79 263.015 2059.36 263.015 Q2062.9 263.015 2065.03 260.515 Q2067.18 257.992 2067.18 253.825 L2067.18 252.876 L2062.95 252.876 M2071.44 251.117 L2071.44 265.909 L2067.18 265.909 L2067.18 261.973 Q2065.73 264.335 2063.55 265.469 Q2061.37 266.58 2058.23 266.58 Q2054.24 266.58 2051.88 264.358 Q2049.55 262.112 2049.55 258.362 Q2049.55 253.987 2052.46 251.765 Q2055.4 249.543 2061.21 249.543 L2067.18 249.543 L2067.18 249.126 Q2067.18 246.187 2065.24 244.589 Q2063.32 242.969 2059.82 242.969 Q2057.6 242.969 2055.49 243.501 Q2053.39 244.034 2051.44 245.099 L2051.44 241.163 Q2053.78 240.261 2055.98 239.821 Q2058.18 239.358 2060.26 239.358 Q2065.89 239.358 2068.67 242.274 Q2071.44 245.191 2071.44 251.117 Z" fill="#000000" fill-rule="evenodd" fill-opacity="1" /><path clip-path="url(#clip050)" d="M2096.74 240.747 L2096.74 244.774 Q2094.94 243.849 2092.99 243.386 Q2091.05 242.923 2088.97 242.923 Q2085.8 242.923 2084.2 243.895 Q2082.62 244.867 2082.62 246.811 Q2082.62 248.293 2083.76 249.149 Q2084.89 249.983 2088.32 250.747 L2089.78 251.071 Q2094.31 252.043 2096.21 253.825 Q2098.13 255.585 2098.13 258.756 Q2098.13 262.367 2095.26 264.473 Q2092.42 266.58 2087.42 266.58 Q2085.33 266.58 2083.06 266.163 Q2080.82 265.77 2078.32 264.96 L2078.32 260.561 Q2080.68 261.788 2082.97 262.413 Q2085.26 263.015 2087.51 263.015 Q2090.52 263.015 2092.14 261.997 Q2093.76 260.955 2093.76 259.08 Q2093.76 257.344 2092.58 256.418 Q2091.42 255.492 2087.46 254.636 L2085.98 254.288 Q2082.02 253.455 2080.26 251.742 Q2078.5 250.006 2078.5 246.997 Q2078.5 243.339 2081.1 241.349 Q2083.69 239.358 2088.46 239.358 Q2090.82 239.358 2092.9 239.705 Q2094.99 240.052 2096.74 240.747 Z" fill="#000000" fill-rule="evenodd" fill-opacity="1" /><path clip-path="url(#clip050)" d="M2127.09 251.881 L2127.09 253.964 L2107.51 253.964 Q2107.79 258.362 2110.15 260.677 Q2112.53 262.969 2116.77 262.969 Q2119.22 262.969 2121.51 262.367 Q2123.83 261.765 2126.1 260.561 L2126.1 264.589 Q2123.8 265.561 2121.4 266.071 Q2118.99 266.58 2116.51 266.58 Q2110.31 266.58 2106.68 262.969 Q2103.06 259.358 2103.06 253.2 Q2103.06 246.835 2106.49 243.108 Q2109.94 239.358 2115.77 239.358 Q2121 239.358 2124.04 242.737 Q2127.09 246.094 2127.09 251.881 M2122.83 250.631 Q2122.79 247.136 2120.87 245.052 Q2118.97 242.969 2115.82 242.969 Q2112.25 242.969 2110.1 244.983 Q2107.97 246.997 2107.65 250.654 L2122.83 250.631 Z" fill="#000000" fill-rule="evenodd" fill-opacity="1" /><path clip-path="url(#clip050)" d="M2150.61 240.747 L2150.61 244.774 Q2148.8 243.849 2146.86 243.386 Q2144.92 242.923 2142.83 242.923 Q2139.66 242.923 2138.06 243.895 Q2136.49 244.867 2136.49 246.811 Q2136.49 248.293 2137.62 249.149 Q2138.76 249.983 2142.18 250.747 L2143.64 251.071 Q2148.18 252.043 2150.08 253.825 Q2152 255.585 2152 258.756 Q2152 262.367 2149.13 264.473 Q2146.28 266.58 2141.28 266.58 Q2139.2 266.58 2136.93 266.163 Q2134.68 265.77 2132.18 264.96 L2132.18 260.561 Q2134.55 261.788 2136.84 262.413 Q2139.13 263.015 2141.37 263.015 Q2144.38 263.015 2146 261.997 Q2147.62 260.955 2147.62 259.08 Q2147.62 257.344 2146.44 256.418 Q2145.29 255.492 2141.33 254.636 L2139.85 254.288 Q2135.89 253.455 2134.13 251.742 Q2132.37 250.006 2132.37 246.997 Q2132.37 243.339 2134.96 241.349 Q2137.55 239.358 2142.32 239.358 Q2144.68 239.358 2146.77 239.705 Q2148.85 240.052 2150.61 240.747 Z" fill="#000000" fill-rule="evenodd" fill-opacity="1" /></svg>
