<?xml version="1.0" encoding="utf-8"?>
<svg xmlns="http://www.w3.org/2000/svg" xmlns:xlink="http://www.w3.org/1999/xlink" width="600" height="400" viewBox="0 0 2400 1600">
<defs>
  <clipPath id="clip650">
    <rect x="0" y="0" width="2400" height="1600"/>
  </clipPath>
</defs>
<path clip-path="url(#clip650)" d="
M0 1600 L2400 1600 L2400 0 L0 0  Z
  " fill="#ffffff" fill-rule="evenodd" fill-opacity="1"/>
<defs>
  <clipPath id="clip651">
    <rect x="480" y="0" width="1681" height="1600"/>
  </clipPath>
</defs>
<path clip-path="url(#clip650)" d="
M315.931 1423.18 L2352.76 1423.18 L2352.76 123.472 L315.931 123.472  Z
  " fill="#ffffff" fill-rule="evenodd" fill-opacity="1"/>
<defs>
  <clipPath id="clip652">
    <rect x="315" y="123" width="2038" height="1301"/>
  </clipPath>
</defs>
<polyline clip-path="url(#clip652)" style="stroke:#000000; stroke-linecap:butt; stroke-linejoin:round; stroke-width:2; stroke-opacity:0.1; fill:none" points="
  778.11,1423.18 778.11,123.472 
  "/>
<polyline clip-path="url(#clip652)" style="stroke:#000000; stroke-linecap:butt; stroke-linejoin:round; stroke-width:2; stroke-opacity:0.1; fill:none" points="
  1283.78,1423.18 1283.78,123.472 
  "/>
<polyline clip-path="url(#clip652)" style="stroke:#000000; stroke-linecap:butt; stroke-linejoin:round; stroke-width:2; stroke-opacity:0.1; fill:none" points="
  1789.44,1423.18 1789.44,123.472 
  "/>
<polyline clip-path="url(#clip652)" style="stroke:#000000; stroke-linecap:butt; stroke-linejoin:round; stroke-width:2; stroke-opacity:0.1; fill:none" points="
  2295.11,1423.18 2295.11,123.472 
  "/>
<polyline clip-path="url(#clip650)" style="stroke:#000000; stroke-linecap:butt; stroke-linejoin:round; stroke-width:4; stroke-opacity:1; fill:none" points="
  315.931,1423.18 2352.76,1423.18 
  "/>
<polyline clip-path="url(#clip650)" style="stroke:#000000; stroke-linecap:butt; stroke-linejoin:round; stroke-width:4; stroke-opacity:1; fill:none" points="
  778.11,1423.18 778.11,1404.28 
  "/>
<polyline clip-path="url(#clip650)" style="stroke:#000000; stroke-linecap:butt; stroke-linejoin:round; stroke-width:4; stroke-opacity:1; fill:none" points="
  1283.78,1423.18 1283.78,1404.28 
  "/>
<polyline clip-path="url(#clip650)" style="stroke:#000000; stroke-linecap:butt; stroke-linejoin:round; stroke-width:4; stroke-opacity:1; fill:none" points="
  1789.44,1423.18 1789.44,1404.28 
  "/>
<polyline clip-path="url(#clip650)" style="stroke:#000000; stroke-linecap:butt; stroke-linejoin:round; stroke-width:4; stroke-opacity:1; fill:none" points="
  2295.11,1423.18 2295.11,1404.28 
  "/>
<path clip-path="url(#clip650)" d="M752.809 1451.02 L771.165 1451.02 L771.165 1454.96 L757.091 1454.96 L757.091 1463.43 Q758.11 1463.08 759.129 1462.92 Q760.147 1462.73 761.166 1462.73 Q766.953 1462.73 770.332 1465.9 Q773.712 1469.08 773.712 1474.49 Q773.712 1480.07 770.24 1483.17 Q766.767 1486.25 760.448 1486.25 Q758.272 1486.25 756.004 1485.88 Q753.758 1485.51 751.351 1484.77 L751.351 1480.07 Q753.434 1481.2 755.656 1481.76 Q757.879 1482.32 760.355 1482.32 Q764.36 1482.32 766.698 1480.21 Q769.036 1478.1 769.036 1474.49 Q769.036 1470.88 766.698 1468.77 Q764.36 1466.67 760.355 1466.67 Q758.48 1466.67 756.605 1467.08 Q754.754 1467.5 752.809 1468.38 L752.809 1451.02 Z" fill="#000000" fill-rule="evenodd" fill-opacity="1" /><path clip-path="url(#clip650)" d="M792.925 1454.1 Q789.314 1454.1 787.485 1457.66 Q785.679 1461.2 785.679 1468.33 Q785.679 1475.44 787.485 1479.01 Q789.314 1482.55 792.925 1482.55 Q796.559 1482.55 798.364 1479.01 Q800.193 1475.44 800.193 1468.33 Q800.193 1461.2 798.364 1457.66 Q796.559 1454.1 792.925 1454.1 M792.925 1450.39 Q798.735 1450.39 801.79 1455 Q804.869 1459.58 804.869 1468.33 Q804.869 1477.06 801.79 1481.67 Q798.735 1486.25 792.925 1486.25 Q787.114 1486.25 784.036 1481.67 Q780.98 1477.06 780.98 1468.33 Q780.98 1459.58 784.036 1455 Q787.114 1450.39 792.925 1450.39 Z" fill="#000000" fill-rule="evenodd" fill-opacity="1" /><path clip-path="url(#clip650)" d="M1243.38 1481.64 L1251.02 1481.64 L1251.02 1455.28 L1242.71 1456.95 L1242.71 1452.69 L1250.98 1451.02 L1255.65 1451.02 L1255.65 1481.64 L1263.29 1481.64 L1263.29 1485.58 L1243.38 1485.58 L1243.38 1481.64 Z" fill="#000000" fill-rule="evenodd" fill-opacity="1" /><path clip-path="url(#clip650)" d="M1282.73 1454.1 Q1279.12 1454.1 1277.3 1457.66 Q1275.49 1461.2 1275.49 1468.33 Q1275.49 1475.44 1277.3 1479.01 Q1279.12 1482.55 1282.73 1482.55 Q1286.37 1482.55 1288.17 1479.01 Q1290 1475.44 1290 1468.33 Q1290 1461.2 1288.17 1457.66 Q1286.37 1454.1 1282.73 1454.1 M1282.73 1450.39 Q1288.55 1450.39 1291.6 1455 Q1294.68 1459.58 1294.68 1468.33 Q1294.68 1477.06 1291.6 1481.67 Q1288.55 1486.25 1282.73 1486.25 Q1276.92 1486.25 1273.85 1481.67 Q1270.79 1477.06 1270.79 1468.33 Q1270.79 1459.58 1273.85 1455 Q1276.92 1450.39 1282.73 1450.39 Z" fill="#000000" fill-rule="evenodd" fill-opacity="1" /><path clip-path="url(#clip650)" d="M1312.9 1454.1 Q1309.29 1454.1 1307.46 1457.66 Q1305.65 1461.2 1305.65 1468.33 Q1305.65 1475.44 1307.46 1479.01 Q1309.29 1482.55 1312.9 1482.55 Q1316.53 1482.55 1318.34 1479.01 Q1320.17 1475.44 1320.17 1468.33 Q1320.17 1461.2 1318.34 1457.66 Q1316.53 1454.1 1312.9 1454.1 M1312.9 1450.39 Q1318.71 1450.39 1321.76 1455 Q1324.84 1459.58 1324.84 1468.33 Q1324.84 1477.06 1321.76 1481.67 Q1318.71 1486.25 1312.9 1486.25 Q1307.09 1486.25 1304.01 1481.67 Q1300.95 1477.06 1300.95 1468.33 Q1300.95 1459.58 1304.01 1455 Q1307.09 1450.39 1312.9 1450.39 Z" fill="#000000" fill-rule="evenodd" fill-opacity="1" /><path clip-path="url(#clip650)" d="M1749.05 1481.64 L1756.69 1481.64 L1756.69 1455.28 L1748.38 1456.95 L1748.38 1452.69 L1756.64 1451.02 L1761.32 1451.02 L1761.32 1481.64 L1768.96 1481.64 L1768.96 1485.58 L1749.05 1485.58 L1749.05 1481.64 Z" fill="#000000" fill-rule="evenodd" fill-opacity="1" /><path clip-path="url(#clip650)" d="M1778.45 1451.02 L1796.8 1451.02 L1796.8 1454.96 L1782.73 1454.96 L1782.73 1463.43 Q1783.75 1463.08 1784.77 1462.92 Q1785.79 1462.73 1786.8 1462.73 Q1792.59 1462.73 1795.97 1465.9 Q1799.35 1469.08 1799.35 1474.49 Q1799.35 1480.07 1795.88 1483.17 Q1792.41 1486.25 1786.09 1486.25 Q1783.91 1486.25 1781.64 1485.88 Q1779.4 1485.51 1776.99 1484.77 L1776.99 1480.07 Q1779.07 1481.2 1781.3 1481.76 Q1783.52 1482.32 1785.99 1482.32 Q1790 1482.32 1792.34 1480.21 Q1794.67 1478.1 1794.67 1474.49 Q1794.67 1470.88 1792.34 1468.77 Q1790 1466.67 1785.99 1466.67 Q1784.12 1466.67 1782.24 1467.08 Q1780.39 1467.5 1778.45 1468.38 L1778.45 1451.02 Z" fill="#000000" fill-rule="evenodd" fill-opacity="1" /><path clip-path="url(#clip650)" d="M1818.56 1454.1 Q1814.95 1454.1 1813.12 1457.66 Q1811.32 1461.2 1811.32 1468.33 Q1811.32 1475.44 1813.12 1479.01 Q1814.95 1482.55 1818.56 1482.55 Q1822.2 1482.55 1824 1479.01 Q1825.83 1475.44 1825.83 1468.33 Q1825.83 1461.2 1824 1457.66 Q1822.2 1454.1 1818.56 1454.1 M1818.56 1450.39 Q1824.37 1450.39 1827.43 1455 Q1830.51 1459.58 1830.51 1468.33 Q1830.51 1477.06 1827.43 1481.67 Q1824.37 1486.25 1818.56 1486.25 Q1812.75 1486.25 1809.67 1481.67 Q1806.62 1477.06 1806.62 1468.33 Q1806.62 1459.58 1809.67 1455 Q1812.75 1450.39 1818.56 1450.39 Z" fill="#000000" fill-rule="evenodd" fill-opacity="1" /><path clip-path="url(#clip650)" d="M2258.8 1481.64 L2275.12 1481.64 L2275.12 1485.58 L2253.18 1485.58 L2253.18 1481.64 Q2255.84 1478.89 2260.42 1474.26 Q2265.03 1469.61 2266.21 1468.27 Q2268.45 1465.74 2269.33 1464.01 Q2270.24 1462.25 2270.24 1460.56 Q2270.24 1457.8 2268.29 1456.07 Q2266.37 1454.33 2263.27 1454.33 Q2261.07 1454.33 2258.62 1455.09 Q2256.19 1455.86 2253.41 1457.41 L2253.41 1452.69 Q2256.23 1451.55 2258.69 1450.97 Q2261.14 1450.39 2263.18 1450.39 Q2268.55 1450.39 2271.74 1453.08 Q2274.94 1455.77 2274.94 1460.26 Q2274.94 1462.39 2274.13 1464.31 Q2273.34 1466.2 2271.23 1468.8 Q2270.65 1469.47 2267.55 1472.69 Q2264.45 1475.88 2258.8 1481.64 Z" fill="#000000" fill-rule="evenodd" fill-opacity="1" /><path clip-path="url(#clip650)" d="M2294.94 1454.1 Q2291.33 1454.1 2289.5 1457.66 Q2287.69 1461.2 2287.69 1468.33 Q2287.69 1475.44 2289.5 1479.01 Q2291.33 1482.55 2294.94 1482.55 Q2298.57 1482.55 2300.38 1479.01 Q2302.2 1475.44 2302.2 1468.33 Q2302.2 1461.2 2300.38 1457.66 Q2298.57 1454.1 2294.94 1454.1 M2294.94 1450.39 Q2300.75 1450.39 2303.8 1455 Q2306.88 1459.58 2306.88 1468.33 Q2306.88 1477.06 2303.8 1481.67 Q2300.75 1486.25 2294.94 1486.25 Q2289.13 1486.25 2286.05 1481.67 Q2282.99 1477.06 2282.99 1468.33 Q2282.99 1459.58 2286.05 1455 Q2289.13 1450.39 2294.94 1450.39 Z" fill="#000000" fill-rule="evenodd" fill-opacity="1" /><path clip-path="url(#clip650)" d="M2325.1 1454.1 Q2321.49 1454.1 2319.66 1457.66 Q2317.85 1461.2 2317.85 1468.33 Q2317.85 1475.44 2319.66 1479.01 Q2321.49 1482.55 2325.1 1482.55 Q2328.73 1482.55 2330.54 1479.01 Q2332.37 1475.44 2332.37 1468.33 Q2332.37 1461.2 2330.54 1457.66 Q2328.73 1454.1 2325.1 1454.1 M2325.1 1450.39 Q2330.91 1450.39 2333.96 1455 Q2337.04 1459.58 2337.04 1468.33 Q2337.04 1477.06 2333.96 1481.67 Q2330.91 1486.25 2325.1 1486.25 Q2319.29 1486.25 2316.21 1481.67 Q2313.15 1477.06 2313.15 1468.33 Q2313.15 1459.58 2316.21 1455 Q2319.29 1450.39 2325.1 1450.39 Z" fill="#000000" fill-rule="evenodd" fill-opacity="1" /><path clip-path="url(#clip650)" d="M1299.98 1533.45 L1299.98 1538.98 Q1297.5 1537.71 1294.83 1537.07 Q1292.15 1536.44 1289.29 1536.44 Q1284.93 1536.44 1282.73 1537.77 Q1280.57 1539.11 1280.57 1541.79 Q1280.57 1543.82 1282.13 1545 Q1283.69 1546.15 1288.4 1547.2 L1290.4 1547.64 Q1296.64 1548.98 1299.25 1551.43 Q1301.89 1553.85 1301.89 1558.21 Q1301.89 1563.17 1297.95 1566.07 Q1294.03 1568.97 1287.16 1568.97 Q1284.29 1568.97 1281.17 1568.39 Q1278.09 1567.85 1274.65 1566.74 L1274.65 1560.69 Q1277.9 1562.38 1281.05 1563.24 Q1284.2 1564.07 1287.28 1564.07 Q1291.42 1564.07 1293.65 1562.66 Q1295.88 1561.23 1295.88 1558.65 Q1295.88 1556.27 1294.26 1554.99 Q1292.66 1553.72 1287.22 1552.54 L1285.18 1552.07 Q1279.74 1550.92 1277.32 1548.56 Q1274.9 1546.18 1274.9 1542.04 Q1274.9 1537.01 1278.47 1534.27 Q1282.03 1531.54 1288.59 1531.54 Q1291.84 1531.54 1294.7 1532.01 Q1297.57 1532.49 1299.98 1533.45 Z" fill="#000000" fill-rule="evenodd" fill-opacity="1" /><path clip-path="url(#clip650)" d="M1311.22 1532.4 L1317.08 1532.4 L1317.08 1568.04 L1311.22 1568.04 L1311.22 1532.4 M1311.22 1518.52 L1317.08 1518.52 L1317.08 1525.93 L1311.22 1525.93 L1311.22 1518.52 Z" fill="#000000" fill-rule="evenodd" fill-opacity="1" /><path clip-path="url(#clip650)" d="M1326.78 1532.4 L1354.6 1532.4 L1354.6 1537.74 L1332.58 1563.37 L1354.6 1563.37 L1354.6 1568.04 L1325.99 1568.04 L1325.99 1562.7 L1348.01 1537.07 L1326.78 1537.07 L1326.78 1532.4 Z" fill="#000000" fill-rule="evenodd" fill-opacity="1" /><path clip-path="url(#clip650)" d="M1394.04 1548.76 L1394.04 1551.62 L1367.11 1551.62 Q1367.49 1557.67 1370.74 1560.85 Q1374.02 1564 1379.84 1564 Q1383.22 1564 1386.37 1563.17 Q1389.55 1562.35 1392.67 1560.69 L1392.67 1566.23 Q1389.52 1567.57 1386.21 1568.27 Q1382.9 1568.97 1379.49 1568.97 Q1370.96 1568.97 1365.96 1564 Q1361 1559.04 1361 1550.57 Q1361 1541.82 1365.71 1536.69 Q1370.45 1531.54 1378.47 1531.54 Q1385.67 1531.54 1389.84 1536.18 Q1394.04 1540.8 1394.04 1548.76 M1388.18 1547.04 Q1388.12 1542.23 1385.48 1539.37 Q1382.87 1536.5 1378.54 1536.5 Q1373.64 1536.5 1370.68 1539.27 Q1367.75 1542.04 1367.3 1547.07 L1388.18 1547.04 Z" fill="#000000" fill-rule="evenodd" fill-opacity="1" /><polyline clip-path="url(#clip652)" style="stroke:#000000; stroke-linecap:butt; stroke-linejoin:round; stroke-width:2; stroke-opacity:0.1; fill:none" points="
  315.931,1374.82 2352.76,1374.82 
  "/>
<polyline clip-path="url(#clip652)" style="stroke:#000000; stroke-linecap:butt; stroke-linejoin:round; stroke-width:2; stroke-opacity:0.1; fill:none" points="
  315.931,1109.68 2352.76,1109.68 
  "/>
<polyline clip-path="url(#clip652)" style="stroke:#000000; stroke-linecap:butt; stroke-linejoin:round; stroke-width:2; stroke-opacity:0.1; fill:none" points="
  315.931,844.554 2352.76,844.554 
  "/>
<polyline clip-path="url(#clip652)" style="stroke:#000000; stroke-linecap:butt; stroke-linejoin:round; stroke-width:2; stroke-opacity:0.1; fill:none" points="
  315.931,579.423 2352.76,579.423 
  "/>
<polyline clip-path="url(#clip652)" style="stroke:#000000; stroke-linecap:butt; stroke-linejoin:round; stroke-width:2; stroke-opacity:0.1; fill:none" points="
  315.931,314.292 2352.76,314.292 
  "/>
<polyline clip-path="url(#clip650)" style="stroke:#000000; stroke-linecap:butt; stroke-linejoin:round; stroke-width:4; stroke-opacity:1; fill:none" points="
  315.931,1423.18 315.931,123.472 
  "/>
<polyline clip-path="url(#clip650)" style="stroke:#000000; stroke-linecap:butt; stroke-linejoin:round; stroke-width:4; stroke-opacity:1; fill:none" points="
  315.931,1374.82 334.828,1374.82 
  "/>
<polyline clip-path="url(#clip650)" style="stroke:#000000; stroke-linecap:butt; stroke-linejoin:round; stroke-width:4; stroke-opacity:1; fill:none" points="
  315.931,1109.68 334.828,1109.68 
  "/>
<polyline clip-path="url(#clip650)" style="stroke:#000000; stroke-linecap:butt; stroke-linejoin:round; stroke-width:4; stroke-opacity:1; fill:none" points="
  315.931,844.554 334.828,844.554 
  "/>
<polyline clip-path="url(#clip650)" style="stroke:#000000; stroke-linecap:butt; stroke-linejoin:round; stroke-width:4; stroke-opacity:1; fill:none" points="
  315.931,579.423 334.828,579.423 
  "/>
<polyline clip-path="url(#clip650)" style="stroke:#000000; stroke-linecap:butt; stroke-linejoin:round; stroke-width:4; stroke-opacity:1; fill:none" points="
  315.931,314.292 334.828,314.292 
  "/>
<path clip-path="url(#clip650)" d="M114.26 1375.27 L143.936 1375.27 L143.936 1379.2 L114.26 1379.2 L114.26 1375.27 Z" fill="#000000" fill-rule="evenodd" fill-opacity="1" /><path clip-path="url(#clip650)" d="M164.028 1360.61 Q160.417 1360.61 158.589 1364.18 Q156.783 1367.72 156.783 1374.85 Q156.783 1381.96 158.589 1385.52 Q160.417 1389.06 164.028 1389.06 Q167.663 1389.06 169.468 1385.52 Q171.297 1381.96 171.297 1374.85 Q171.297 1367.72 169.468 1364.18 Q167.663 1360.61 164.028 1360.61 M164.028 1356.91 Q169.839 1356.91 172.894 1361.52 Q175.973 1366.1 175.973 1374.85 Q175.973 1383.58 172.894 1388.18 Q169.839 1392.77 164.028 1392.77 Q158.218 1392.77 155.14 1388.18 Q152.084 1383.58 152.084 1374.85 Q152.084 1366.1 155.14 1361.52 Q158.218 1356.91 164.028 1356.91 Z" fill="#000000" fill-rule="evenodd" fill-opacity="1" /><path clip-path="url(#clip650)" d="M184.19 1386.22 L189.075 1386.22 L189.075 1392.1 L184.19 1392.1 L184.19 1386.22 Z" fill="#000000" fill-rule="evenodd" fill-opacity="1" /><path clip-path="url(#clip650)" d="M209.26 1360.61 Q205.649 1360.61 203.82 1364.18 Q202.014 1367.72 202.014 1374.85 Q202.014 1381.96 203.82 1385.52 Q205.649 1389.06 209.26 1389.06 Q212.894 1389.06 214.699 1385.52 Q216.528 1381.96 216.528 1374.85 Q216.528 1367.72 214.699 1364.18 Q212.894 1360.61 209.26 1360.61 M209.26 1356.91 Q215.07 1356.91 218.125 1361.52 Q221.204 1366.1 221.204 1374.85 Q221.204 1383.58 218.125 1388.18 Q215.07 1392.77 209.26 1392.77 Q203.449 1392.77 200.371 1388.18 Q197.315 1383.58 197.315 1374.85 Q197.315 1366.1 200.371 1361.52 Q203.449 1356.91 209.26 1356.91 Z" fill="#000000" fill-rule="evenodd" fill-opacity="1" /><path clip-path="url(#clip650)" d="M239.422 1360.61 Q235.81 1360.61 233.982 1364.18 Q232.176 1367.72 232.176 1374.85 Q232.176 1381.96 233.982 1385.52 Q235.81 1389.06 239.422 1389.06 Q243.056 1389.06 244.861 1385.52 Q246.69 1381.96 246.69 1374.85 Q246.69 1367.72 244.861 1364.18 Q243.056 1360.61 239.422 1360.61 M239.422 1356.91 Q245.232 1356.91 248.287 1361.52 Q251.366 1366.1 251.366 1374.85 Q251.366 1383.58 248.287 1388.18 Q245.232 1392.77 239.422 1392.77 Q233.611 1392.77 230.533 1388.18 Q227.477 1383.58 227.477 1374.85 Q227.477 1366.1 230.533 1361.52 Q233.611 1356.91 239.422 1356.91 Z" fill="#000000" fill-rule="evenodd" fill-opacity="1" /><path clip-path="url(#clip650)" d="M263.611 1388.16 L279.931 1388.16 L279.931 1392.1 L257.986 1392.1 L257.986 1388.16 Q260.648 1385.41 265.232 1380.78 Q269.838 1376.12 271.019 1374.78 Q273.264 1372.26 274.144 1370.52 Q275.046 1368.76 275.046 1367.07 Q275.046 1364.32 273.102 1362.58 Q271.181 1360.85 268.079 1360.85 Q265.88 1360.85 263.426 1361.61 Q260.995 1362.37 258.218 1363.92 L258.218 1359.2 Q261.042 1358.07 263.495 1357.49 Q265.949 1356.91 267.986 1356.91 Q273.357 1356.91 276.551 1359.6 Q279.745 1362.28 279.745 1366.77 Q279.745 1368.9 278.935 1370.82 Q278.148 1372.72 276.042 1375.31 Q275.463 1375.98 272.361 1379.2 Q269.259 1382.4 263.611 1388.16 Z" fill="#000000" fill-rule="evenodd" fill-opacity="1" /><path clip-path="url(#clip650)" d="M162.431 1095.48 Q158.82 1095.48 156.991 1099.05 Q155.186 1102.59 155.186 1109.72 Q155.186 1116.83 156.991 1120.39 Q158.82 1123.93 162.431 1123.93 Q166.065 1123.93 167.871 1120.39 Q169.7 1116.83 169.7 1109.72 Q169.7 1102.59 167.871 1099.05 Q166.065 1095.48 162.431 1095.48 M162.431 1091.78 Q168.241 1091.78 171.297 1096.39 Q174.376 1100.97 174.376 1109.72 Q174.376 1118.45 171.297 1123.05 Q168.241 1127.64 162.431 1127.64 Q156.621 1127.64 153.542 1123.05 Q150.487 1118.45 150.487 1109.72 Q150.487 1100.97 153.542 1096.39 Q156.621 1091.78 162.431 1091.78 Z" fill="#000000" fill-rule="evenodd" fill-opacity="1" /><path clip-path="url(#clip650)" d="M182.593 1121.09 L187.477 1121.09 L187.477 1126.96 L182.593 1126.96 L182.593 1121.09 Z" fill="#000000" fill-rule="evenodd" fill-opacity="1" /><path clip-path="url(#clip650)" d="M207.662 1095.48 Q204.051 1095.48 202.223 1099.05 Q200.417 1102.59 200.417 1109.72 Q200.417 1116.83 202.223 1120.39 Q204.051 1123.93 207.662 1123.93 Q211.297 1123.93 213.102 1120.39 Q214.931 1116.83 214.931 1109.72 Q214.931 1102.59 213.102 1099.05 Q211.297 1095.48 207.662 1095.48 M207.662 1091.78 Q213.473 1091.78 216.528 1096.39 Q219.607 1100.97 219.607 1109.72 Q219.607 1118.45 216.528 1123.05 Q213.473 1127.64 207.662 1127.64 Q201.852 1127.64 198.774 1123.05 Q195.718 1118.45 195.718 1109.72 Q195.718 1100.97 198.774 1096.39 Q201.852 1091.78 207.662 1091.78 Z" fill="#000000" fill-rule="evenodd" fill-opacity="1" /><path clip-path="url(#clip650)" d="M237.824 1095.48 Q234.213 1095.48 232.385 1099.05 Q230.579 1102.59 230.579 1109.72 Q230.579 1116.83 232.385 1120.39 Q234.213 1123.93 237.824 1123.93 Q241.459 1123.93 243.264 1120.39 Q245.093 1116.83 245.093 1109.72 Q245.093 1102.59 243.264 1099.05 Q241.459 1095.48 237.824 1095.48 M237.824 1091.78 Q243.634 1091.78 246.69 1096.39 Q249.769 1100.97 249.769 1109.72 Q249.769 1118.45 246.69 1123.05 Q243.634 1127.64 237.824 1127.64 Q232.014 1127.64 228.935 1123.05 Q225.88 1118.45 225.88 1109.72 Q225.88 1100.97 228.935 1096.39 Q232.014 1091.78 237.824 1091.78 Z" fill="#000000" fill-rule="evenodd" fill-opacity="1" /><path clip-path="url(#clip650)" d="M267.986 1095.48 Q264.375 1095.48 262.546 1099.05 Q260.741 1102.59 260.741 1109.72 Q260.741 1116.83 262.546 1120.39 Q264.375 1123.93 267.986 1123.93 Q271.62 1123.93 273.426 1120.39 Q275.255 1116.83 275.255 1109.72 Q275.255 1102.59 273.426 1099.05 Q271.62 1095.48 267.986 1095.48 M267.986 1091.78 Q273.796 1091.78 276.852 1096.39 Q279.931 1100.97 279.931 1109.72 Q279.931 1118.45 276.852 1123.05 Q273.796 1127.64 267.986 1127.64 Q262.176 1127.64 259.097 1123.05 Q256.042 1118.45 256.042 1109.72 Q256.042 1100.97 259.097 1096.39 Q262.176 1091.78 267.986 1091.78 Z" fill="#000000" fill-rule="evenodd" fill-opacity="1" /><path clip-path="url(#clip650)" d="M164.028 830.353 Q160.417 830.353 158.589 833.918 Q156.783 837.459 156.783 844.589 Q156.783 851.695 158.589 855.26 Q160.417 858.802 164.028 858.802 Q167.663 858.802 169.468 855.26 Q171.297 851.695 171.297 844.589 Q171.297 837.459 169.468 833.918 Q167.663 830.353 164.028 830.353 M164.028 826.649 Q169.839 826.649 172.894 831.256 Q175.973 835.839 175.973 844.589 Q175.973 853.316 172.894 857.922 Q169.839 862.505 164.028 862.505 Q158.218 862.505 155.14 857.922 Q152.084 853.316 152.084 844.589 Q152.084 835.839 155.14 831.256 Q158.218 826.649 164.028 826.649 Z" fill="#000000" fill-rule="evenodd" fill-opacity="1" /><path clip-path="url(#clip650)" d="M184.19 855.954 L189.075 855.954 L189.075 861.834 L184.19 861.834 L184.19 855.954 Z" fill="#000000" fill-rule="evenodd" fill-opacity="1" /><path clip-path="url(#clip650)" d="M209.26 830.353 Q205.649 830.353 203.82 833.918 Q202.014 837.459 202.014 844.589 Q202.014 851.695 203.82 855.26 Q205.649 858.802 209.26 858.802 Q212.894 858.802 214.699 855.26 Q216.528 851.695 216.528 844.589 Q216.528 837.459 214.699 833.918 Q212.894 830.353 209.26 830.353 M209.26 826.649 Q215.07 826.649 218.125 831.256 Q221.204 835.839 221.204 844.589 Q221.204 853.316 218.125 857.922 Q215.07 862.505 209.26 862.505 Q203.449 862.505 200.371 857.922 Q197.315 853.316 197.315 844.589 Q197.315 835.839 200.371 831.256 Q203.449 826.649 209.26 826.649 Z" fill="#000000" fill-rule="evenodd" fill-opacity="1" /><path clip-path="url(#clip650)" d="M239.422 830.353 Q235.81 830.353 233.982 833.918 Q232.176 837.459 232.176 844.589 Q232.176 851.695 233.982 855.26 Q235.81 858.802 239.422 858.802 Q243.056 858.802 244.861 855.26 Q246.69 851.695 246.69 844.589 Q246.69 837.459 244.861 833.918 Q243.056 830.353 239.422 830.353 M239.422 826.649 Q245.232 826.649 248.287 831.256 Q251.366 835.839 251.366 844.589 Q251.366 853.316 248.287 857.922 Q245.232 862.505 239.422 862.505 Q233.611 862.505 230.533 857.922 Q227.477 853.316 227.477 844.589 Q227.477 835.839 230.533 831.256 Q233.611 826.649 239.422 826.649 Z" fill="#000000" fill-rule="evenodd" fill-opacity="1" /><path clip-path="url(#clip650)" d="M263.611 857.899 L279.931 857.899 L279.931 861.834 L257.986 861.834 L257.986 857.899 Q260.648 855.144 265.232 850.515 Q269.838 845.862 271.019 844.519 Q273.264 841.996 274.144 840.26 Q275.046 838.501 275.046 836.811 Q275.046 834.056 273.102 832.32 Q271.181 830.584 268.079 830.584 Q265.88 830.584 263.426 831.348 Q260.995 832.112 258.218 833.663 L258.218 828.941 Q261.042 827.806 263.495 827.228 Q265.949 826.649 267.986 826.649 Q273.357 826.649 276.551 829.334 Q279.745 832.019 279.745 836.51 Q279.745 838.64 278.935 840.561 Q278.148 842.459 276.042 845.052 Q275.463 845.723 272.361 848.941 Q269.259 852.135 263.611 857.899 Z" fill="#000000" fill-rule="evenodd" fill-opacity="1" /><path clip-path="url(#clip650)" d="M161.945 565.222 Q158.334 565.222 156.505 568.787 Q154.7 572.328 154.7 579.458 Q154.7 586.564 156.505 590.129 Q158.334 593.671 161.945 593.671 Q165.579 593.671 167.385 590.129 Q169.214 586.564 169.214 579.458 Q169.214 572.328 167.385 568.787 Q165.579 565.222 161.945 565.222 M161.945 561.518 Q167.755 561.518 170.811 566.125 Q173.889 570.708 173.889 579.458 Q173.889 588.185 170.811 592.791 Q167.755 597.374 161.945 597.374 Q156.135 597.374 153.056 592.791 Q150.001 588.185 150.001 579.458 Q150.001 570.708 153.056 566.125 Q156.135 561.518 161.945 561.518 Z" fill="#000000" fill-rule="evenodd" fill-opacity="1" /><path clip-path="url(#clip650)" d="M182.107 590.823 L186.991 590.823 L186.991 596.703 L182.107 596.703 L182.107 590.823 Z" fill="#000000" fill-rule="evenodd" fill-opacity="1" /><path clip-path="url(#clip650)" d="M207.176 565.222 Q203.565 565.222 201.737 568.787 Q199.931 572.328 199.931 579.458 Q199.931 586.564 201.737 590.129 Q203.565 593.671 207.176 593.671 Q210.811 593.671 212.616 590.129 Q214.445 586.564 214.445 579.458 Q214.445 572.328 212.616 568.787 Q210.811 565.222 207.176 565.222 M207.176 561.518 Q212.986 561.518 216.042 566.125 Q219.121 570.708 219.121 579.458 Q219.121 588.185 216.042 592.791 Q212.986 597.374 207.176 597.374 Q201.366 597.374 198.287 592.791 Q195.232 588.185 195.232 579.458 Q195.232 570.708 198.287 566.125 Q201.366 561.518 207.176 561.518 Z" fill="#000000" fill-rule="evenodd" fill-opacity="1" /><path clip-path="url(#clip650)" d="M237.338 565.222 Q233.727 565.222 231.898 568.787 Q230.093 572.328 230.093 579.458 Q230.093 586.564 231.898 590.129 Q233.727 593.671 237.338 593.671 Q240.972 593.671 242.778 590.129 Q244.607 586.564 244.607 579.458 Q244.607 572.328 242.778 568.787 Q240.972 565.222 237.338 565.222 M237.338 561.518 Q243.148 561.518 246.204 566.125 Q249.283 570.708 249.283 579.458 Q249.283 588.185 246.204 592.791 Q243.148 597.374 237.338 597.374 Q231.528 597.374 228.449 592.791 Q225.394 588.185 225.394 579.458 Q225.394 570.708 228.449 566.125 Q231.528 561.518 237.338 561.518 Z" fill="#000000" fill-rule="evenodd" fill-opacity="1" /><path clip-path="url(#clip650)" d="M270.347 566.217 L258.542 584.666 L270.347 584.666 L270.347 566.217 M269.12 562.143 L275 562.143 L275 584.666 L279.931 584.666 L279.931 588.555 L275 588.555 L275 596.703 L270.347 596.703 L270.347 588.555 L254.746 588.555 L254.746 584.041 L269.12 562.143 Z" fill="#000000" fill-rule="evenodd" fill-opacity="1" /><path clip-path="url(#clip650)" d="M162.269 300.091 Q158.658 300.091 156.829 303.656 Q155.024 307.197 155.024 314.327 Q155.024 321.433 156.829 324.998 Q158.658 328.54 162.269 328.54 Q165.903 328.54 167.709 324.998 Q169.538 321.433 169.538 314.327 Q169.538 307.197 167.709 303.656 Q165.903 300.091 162.269 300.091 M162.269 296.387 Q168.079 296.387 171.135 300.994 Q174.214 305.577 174.214 314.327 Q174.214 323.054 171.135 327.66 Q168.079 332.243 162.269 332.243 Q156.459 332.243 153.38 327.66 Q150.325 323.054 150.325 314.327 Q150.325 305.577 153.38 300.994 Q156.459 296.387 162.269 296.387 Z" fill="#000000" fill-rule="evenodd" fill-opacity="1" /><path clip-path="url(#clip650)" d="M182.431 325.693 L187.315 325.693 L187.315 331.572 L182.431 331.572 L182.431 325.693 Z" fill="#000000" fill-rule="evenodd" fill-opacity="1" /><path clip-path="url(#clip650)" d="M207.5 300.091 Q203.889 300.091 202.061 303.656 Q200.255 307.197 200.255 314.327 Q200.255 321.433 202.061 324.998 Q203.889 328.54 207.5 328.54 Q211.135 328.54 212.94 324.998 Q214.769 321.433 214.769 314.327 Q214.769 307.197 212.94 303.656 Q211.135 300.091 207.5 300.091 M207.5 296.387 Q213.311 296.387 216.366 300.994 Q219.445 305.577 219.445 314.327 Q219.445 323.054 216.366 327.66 Q213.311 332.243 207.5 332.243 Q201.69 332.243 198.612 327.66 Q195.556 323.054 195.556 314.327 Q195.556 305.577 198.612 300.994 Q201.69 296.387 207.5 296.387 Z" fill="#000000" fill-rule="evenodd" fill-opacity="1" /><path clip-path="url(#clip650)" d="M237.662 300.091 Q234.051 300.091 232.222 303.656 Q230.417 307.197 230.417 314.327 Q230.417 321.433 232.222 324.998 Q234.051 328.54 237.662 328.54 Q241.297 328.54 243.102 324.998 Q244.931 321.433 244.931 314.327 Q244.931 307.197 243.102 303.656 Q241.297 300.091 237.662 300.091 M237.662 296.387 Q243.472 296.387 246.528 300.994 Q249.607 305.577 249.607 314.327 Q249.607 323.054 246.528 327.66 Q243.472 332.243 237.662 332.243 Q231.852 332.243 228.773 327.66 Q225.718 323.054 225.718 314.327 Q225.718 305.577 228.773 300.994 Q231.852 296.387 237.662 296.387 Z" fill="#000000" fill-rule="evenodd" fill-opacity="1" /><path clip-path="url(#clip650)" d="M268.403 312.429 Q265.255 312.429 263.403 314.581 Q261.574 316.734 261.574 320.484 Q261.574 324.211 263.403 326.387 Q265.255 328.54 268.403 328.54 Q271.551 328.54 273.38 326.387 Q275.232 324.211 275.232 320.484 Q275.232 316.734 273.38 314.581 Q271.551 312.429 268.403 312.429 M277.685 297.776 L277.685 302.035 Q275.926 301.202 274.12 300.762 Q272.338 300.322 270.579 300.322 Q265.949 300.322 263.495 303.447 Q261.065 306.572 260.718 312.892 Q262.083 310.878 264.144 309.813 Q266.204 308.725 268.681 308.725 Q273.889 308.725 276.898 311.896 Q279.931 315.044 279.931 320.484 Q279.931 325.808 276.782 329.026 Q273.634 332.243 268.403 332.243 Q262.408 332.243 259.236 327.66 Q256.065 323.054 256.065 314.327 Q256.065 306.132 259.954 301.271 Q263.843 296.387 270.394 296.387 Q272.153 296.387 273.935 296.734 Q275.741 297.082 277.685 297.776 Z" fill="#000000" fill-rule="evenodd" fill-opacity="1" /><path clip-path="url(#clip650)" d="M18.2347 885.872 L28.3562 885.872 L28.3562 873.809 L32.9077 873.809 L32.9077 885.872 L52.2594 885.872 Q56.6199 885.872 57.8613 884.694 Q59.1026 883.485 59.1026 879.824 L59.1026 873.809 L64.0042 873.809 L64.0042 879.824 Q64.0042 886.604 61.4897 889.182 Q58.9434 891.76 52.2594 891.76 L32.9077 891.76 L32.9077 896.057 L28.3562 896.057 L28.3562 891.76 L18.2347 891.76 L18.2347 885.872 Z" fill="#000000" fill-rule="evenodd" fill-opacity="1" /><path clip-path="url(#clip650)" d="M28.3562 866.106 L28.3562 860.25 L64.0042 860.25 L64.0042 866.106 L28.3562 866.106 M14.479 866.106 L14.479 860.25 L21.895 860.25 L21.895 866.106 L14.479 866.106 Z" fill="#000000" fill-rule="evenodd" fill-opacity="1" /><path clip-path="url(#clip650)" d="M35.1993 820.241 Q31.2526 818.045 29.3747 814.99 Q27.4968 811.934 27.4968 807.796 Q27.4968 802.226 31.4117 799.203 Q35.2948 796.179 42.4881 796.179 L64.0042 796.179 L64.0042 802.067 L42.679 802.067 Q37.5546 802.067 35.072 803.881 Q32.5894 805.696 32.5894 809.42 Q32.5894 813.971 35.6131 816.613 Q38.6368 819.255 43.8567 819.255 L64.0042 819.255 L64.0042 825.143 L42.679 825.143 Q37.5228 825.143 35.072 826.957 Q32.5894 828.771 32.5894 832.559 Q32.5894 837.047 35.6449 839.688 Q38.6686 842.33 43.8567 842.33 L64.0042 842.33 L64.0042 848.219 L28.3562 848.219 L28.3562 842.33 L33.8944 842.33 Q30.616 840.325 29.0564 837.524 Q27.4968 834.723 27.4968 830.872 Q27.4968 826.989 29.4702 824.283 Q31.4436 821.546 35.1993 820.241 Z" fill="#000000" fill-rule="evenodd" fill-opacity="1" /><path clip-path="url(#clip650)" d="M44.7161 754.006 L47.5806 754.006 L47.5806 780.933 Q53.6281 780.551 56.8109 777.305 Q59.9619 774.026 59.9619 768.202 Q59.9619 764.828 59.1344 761.677 Q58.3069 758.494 56.6518 755.375 L62.1899 755.375 Q63.5267 758.526 64.227 761.836 Q64.9272 765.146 64.9272 768.552 Q64.9272 777.082 59.9619 782.079 Q54.9967 787.044 46.5303 787.044 Q37.7774 787.044 32.6531 782.333 Q27.4968 777.591 27.4968 769.57 Q27.4968 762.377 32.1438 758.207 Q36.7589 754.006 44.7161 754.006 M42.9973 759.863 Q38.1912 759.926 35.3266 762.568 Q32.4621 765.178 32.4621 769.507 Q32.4621 774.408 35.2312 777.368 Q38.0002 780.296 43.0292 780.742 L42.9973 759.863 Z" fill="#000000" fill-rule="evenodd" fill-opacity="1" /><path clip-path="url(#clip650)" d="M14.479 724.215 L14.479 710.719 L19.0304 710.719 L19.0304 718.358 L68.0464 718.358 L68.0464 710.719 L72.5979 710.719 L72.5979 724.215 L14.479 724.215 Z" fill="#000000" fill-rule="evenodd" fill-opacity="1" /><path clip-path="url(#clip650)" d="M29.4065 675.517 L34.9447 675.517 Q33.6716 678 33.035 680.673 Q32.3984 683.347 32.3984 686.211 Q32.3984 690.572 33.7352 692.768 Q35.072 694.932 37.7456 694.932 Q39.7826 694.932 40.9603 693.373 Q42.1061 691.813 43.1565 687.102 L43.6021 685.097 Q44.9389 678.859 47.3897 676.249 Q49.8086 673.607 54.1691 673.607 Q59.1344 673.607 62.0308 677.554 Q64.9272 681.469 64.9272 688.344 Q64.9272 691.208 64.3543 694.328 Q63.8132 697.415 62.6992 700.852 L56.6518 700.852 Q58.3387 697.606 59.198 694.455 Q60.0256 691.304 60.0256 688.216 Q60.0256 684.079 58.6251 681.851 Q57.1929 679.623 54.6147 679.623 Q52.2276 679.623 50.9545 681.246 Q49.6813 682.837 48.5037 688.28 L48.0262 690.317 Q46.8804 695.76 44.5251 698.179 Q42.138 700.598 38.0002 700.598 Q32.9713 700.598 30.2341 697.033 Q27.4968 693.468 27.4968 686.912 Q27.4968 683.665 27.9743 680.8 Q28.4517 677.936 29.4065 675.517 Z" fill="#000000" fill-rule="evenodd" fill-opacity="1" /><path clip-path="url(#clip650)" d="M14.479 650.595 L72.5979 650.595 L72.5979 664.09 L68.0464 664.09 L68.0464 656.483 L19.0304 656.483 L19.0304 664.09 L14.479 664.09 L14.479 650.595 Z" fill="#000000" fill-rule="evenodd" fill-opacity="1" /><path clip-path="url(#clip650)" d="M1212.84 49.9314 Q1212.84 41.7081 1209.43 37.0496 Q1206.07 32.3505 1200.16 32.3505 Q1194.24 32.3505 1190.84 37.0496 Q1187.48 41.7081 1187.48 49.9314 Q1187.48 58.1548 1190.84 62.8538 Q1194.24 67.5124 1200.16 67.5124 Q1206.07 67.5124 1209.43 62.8538 Q1212.84 58.1548 1212.84 49.9314 M1187.48 34.0924 Q1189.83 30.0415 1193.39 28.0971 Q1197 26.1121 1201.98 26.1121 Q1210.24 26.1121 1215.39 32.6746 Q1220.57 39.2371 1220.57 49.9314 Q1220.57 60.6258 1215.39 67.1883 Q1210.24 73.7508 1201.98 73.7508 Q1197 73.7508 1193.39 71.8063 Q1189.83 69.8214 1187.48 65.7705 L1187.48 72.576 L1179.98 72.576 L1179.98 9.54393 L1187.48 9.54393 L1187.48 34.0924 Z" fill="#000000" fill-rule="evenodd" fill-opacity="1" /><path clip-path="url(#clip650)" d="M1271.74 48.0275 L1271.74 51.6733 L1237.47 51.6733 Q1237.95 59.3701 1242.08 63.421 Q1246.26 67.4314 1253.67 67.4314 Q1257.96 67.4314 1261.97 66.3781 Q1266.02 65.3249 1269.99 63.2184 L1269.99 70.267 Q1265.98 71.9684 1261.77 72.8596 Q1257.56 73.7508 1253.22 73.7508 Q1242.37 73.7508 1236.01 67.4314 Q1229.69 61.1119 1229.69 50.3365 Q1229.69 39.1965 1235.68 32.6746 Q1241.72 26.1121 1251.93 26.1121 Q1261.08 26.1121 1266.39 32.0264 Q1271.74 37.9003 1271.74 48.0275 M1264.28 45.84 Q1264.2 39.7232 1260.84 36.0774 Q1257.52 32.4315 1252.01 32.4315 Q1245.77 32.4315 1242 35.9558 Q1238.28 39.4801 1237.71 45.8805 L1264.28 45.84 Z" fill="#000000" fill-rule="evenodd" fill-opacity="1" /><path clip-path="url(#clip650)" d="M1312.89 28.5427 L1312.89 35.5912 Q1309.73 33.9709 1306.33 33.1607 Q1302.93 32.3505 1299.28 32.3505 Q1293.73 32.3505 1290.94 34.0519 Q1288.18 35.7533 1288.18 39.156 Q1288.18 41.7486 1290.17 43.2475 Q1292.15 44.7058 1298.15 46.0426 L1300.7 46.6097 Q1308.64 48.3111 1311.96 51.4303 Q1315.32 54.509 1315.32 60.0587 Q1315.32 66.3781 1310.3 70.0644 Q1305.32 73.7508 1296.57 73.7508 Q1292.92 73.7508 1288.95 73.0216 Q1285.02 72.3329 1280.65 70.9151 L1280.65 63.2184 Q1284.78 65.3654 1288.79 66.4591 Q1292.8 67.5124 1296.73 67.5124 Q1302 67.5124 1304.83 65.73 Q1307.67 63.9071 1307.67 60.6258 Q1307.67 57.5877 1305.6 55.9673 Q1303.58 54.3469 1296.65 52.8481 L1294.06 52.2405 Q1287.13 50.7821 1284.05 47.7845 Q1280.97 44.7463 1280.97 39.4801 Q1280.97 33.0797 1285.51 29.5959 Q1290.05 26.1121 1298.39 26.1121 Q1302.52 26.1121 1306.17 26.7198 Q1309.82 27.3274 1312.89 28.5427 Z" fill="#000000" fill-rule="evenodd" fill-opacity="1" /><path clip-path="url(#clip650)" d="M1334.57 14.324 L1334.57 27.2059 L1349.92 27.2059 L1349.92 32.9987 L1334.57 32.9987 L1334.57 57.6282 Q1334.57 63.1779 1336.06 64.7578 Q1337.6 66.3376 1342.26 66.3376 L1349.92 66.3376 L1349.92 72.576 L1342.26 72.576 Q1333.63 72.576 1330.35 69.3758 Q1327.07 66.1351 1327.07 57.6282 L1327.07 32.9987 L1321.6 32.9987 L1321.6 27.2059 L1327.07 27.2059 L1327.07 14.324 L1334.57 14.324 Z" fill="#000000" fill-rule="evenodd" fill-opacity="1" /><path clip-path="url(#clip650)" d="M1410.97 17.6457 Q1402.05 17.6457 1396.79 24.2892 Q1391.56 30.9327 1391.56 42.3968 Q1391.56 53.8203 1396.79 60.4638 Q1402.05 67.1073 1410.97 67.1073 Q1419.88 67.1073 1425.06 60.4638 Q1430.29 53.8203 1430.29 42.3968 Q1430.29 30.9327 1425.06 24.2892 Q1419.88 17.6457 1410.97 17.6457 M1410.97 11.0023 Q1423.69 11.0023 1431.3 19.5497 Q1438.92 28.0566 1438.92 42.3968 Q1438.92 56.6965 1431.3 65.2439 Q1423.69 73.7508 1410.97 73.7508 Q1398.21 73.7508 1390.55 65.2439 Q1382.93 56.737 1382.93 42.3968 Q1382.93 28.0566 1390.55 19.5497 Q1398.21 11.0023 1410.97 11.0023 Z" fill="#000000" fill-rule="evenodd" fill-opacity="1" /><path clip-path="url(#clip650)" d="M1453.87 65.6895 L1467.23 65.6895 L1467.23 19.5497 L1452.69 22.4663 L1452.69 15.0127 L1467.15 12.096 L1475.33 12.096 L1475.33 65.6895 L1488.7 65.6895 L1488.7 72.576 L1453.87 72.576 L1453.87 65.6895 Z" fill="#000000" fill-rule="evenodd" fill-opacity="1" /><polyline clip-path="url(#clip652)" style="stroke:#000000; stroke-linecap:butt; stroke-linejoin:round; stroke-width:4; stroke-opacity:1; fill:none" points="
  373.577,1109.68 373.577,1109.68 
  "/>
<polyline clip-path="url(#clip652)" style="stroke:#000000; stroke-linecap:butt; stroke-linejoin:round; stroke-width:4; stroke-opacity:1; fill:none" points="
  474.71,1109.68 474.71,1109.68 
  "/>
<polyline clip-path="url(#clip652)" style="stroke:#000000; stroke-linecap:butt; stroke-linejoin:round; stroke-width:4; stroke-opacity:1; fill:none" points="
  575.843,1109.68 575.843,1109.68 
  "/>
<polyline clip-path="url(#clip652)" style="stroke:#000000; stroke-linecap:butt; stroke-linejoin:round; stroke-width:4; stroke-opacity:1; fill:none" points="
  676.977,1228.99 676.977,963.863 
  "/>
<polyline clip-path="url(#clip652)" style="stroke:#000000; stroke-linecap:butt; stroke-linejoin:round; stroke-width:4; stroke-opacity:1; fill:none" points="
  778.11,1109.68 778.11,1109.68 
  "/>
<polyline clip-path="url(#clip652)" style="stroke:#000000; stroke-linecap:butt; stroke-linejoin:round; stroke-width:4; stroke-opacity:1; fill:none" points="
  879.243,1109.68 879.243,1109.68 
  "/>
<polyline clip-path="url(#clip652)" style="stroke:#000000; stroke-linecap:butt; stroke-linejoin:round; stroke-width:4; stroke-opacity:1; fill:none" points="
  980.377,1109.68 980.377,1109.68 
  "/>
<polyline clip-path="url(#clip652)" style="stroke:#000000; stroke-linecap:butt; stroke-linejoin:round; stroke-width:4; stroke-opacity:1; fill:none" points="
  1081.51,1109.68 1081.51,1109.68 
  "/>
<polyline clip-path="url(#clip652)" style="stroke:#000000; stroke-linecap:butt; stroke-linejoin:round; stroke-width:4; stroke-opacity:1; fill:none" points="
  1182.64,1109.68 1182.64,1109.68 
  "/>
<polyline clip-path="url(#clip652)" style="stroke:#000000; stroke-linecap:butt; stroke-linejoin:round; stroke-width:4; stroke-opacity:1; fill:none" points="
  1283.78,1109.68 1283.78,1109.68 
  "/>
<polyline clip-path="url(#clip652)" style="stroke:#000000; stroke-linecap:butt; stroke-linejoin:round; stroke-width:4; stroke-opacity:1; fill:none" points="
  1384.91,1109.68 1384.91,1109.68 
  "/>
<polyline clip-path="url(#clip652)" style="stroke:#000000; stroke-linecap:butt; stroke-linejoin:round; stroke-width:4; stroke-opacity:1; fill:none" points="
  1486.04,1109.68 1486.04,1109.68 
  "/>
<polyline clip-path="url(#clip652)" style="stroke:#000000; stroke-linecap:butt; stroke-linejoin:round; stroke-width:4; stroke-opacity:1; fill:none" points="
  1587.18,1109.68 1587.18,1109.68 
  "/>
<polyline clip-path="url(#clip652)" style="stroke:#000000; stroke-linecap:butt; stroke-linejoin:round; stroke-width:4; stroke-opacity:1; fill:none" points="
  1688.31,1109.68 1688.31,1109.68 
  "/>
<polyline clip-path="url(#clip652)" style="stroke:#000000; stroke-linecap:butt; stroke-linejoin:round; stroke-width:4; stroke-opacity:1; fill:none" points="
  1789.44,1109.68 1789.44,1109.68 
  "/>
<polyline clip-path="url(#clip652)" style="stroke:#000000; stroke-linecap:butt; stroke-linejoin:round; stroke-width:4; stroke-opacity:1; fill:none" points="
  1890.58,1109.68 1890.58,1109.68 
  "/>
<polyline clip-path="url(#clip652)" style="stroke:#000000; stroke-linecap:butt; stroke-linejoin:round; stroke-width:4; stroke-opacity:1; fill:none" points="
  1991.71,1109.68 1991.71,1109.68 
  "/>
<polyline clip-path="url(#clip652)" style="stroke:#000000; stroke-linecap:butt; stroke-linejoin:round; stroke-width:4; stroke-opacity:1; fill:none" points="
  2092.84,1109.68 2092.84,1109.68 
  "/>
<polyline clip-path="url(#clip652)" style="stroke:#000000; stroke-linecap:butt; stroke-linejoin:round; stroke-width:4; stroke-opacity:1; fill:none" points="
  2193.98,1109.68 2193.98,1109.68 
  "/>
<polyline clip-path="url(#clip652)" style="stroke:#000000; stroke-linecap:butt; stroke-linejoin:round; stroke-width:4; stroke-opacity:1; fill:none" points="
  2295.11,1109.68 2295.11,1109.68 
  "/>
<line clip-path="url(#clip652)" x1="389.577" y1="1109.68" x2="357.577" y2="1109.68" style="stroke:#000000; stroke-width:3.2; stroke-opacity:1"/>
<line clip-path="url(#clip652)" x1="389.577" y1="1109.68" x2="357.577" y2="1109.68" style="stroke:#000000; stroke-width:3.2; stroke-opacity:1"/>
<line clip-path="url(#clip652)" x1="490.71" y1="1109.68" x2="458.71" y2="1109.68" style="stroke:#000000; stroke-width:3.2; stroke-opacity:1"/>
<line clip-path="url(#clip652)" x1="490.71" y1="1109.68" x2="458.71" y2="1109.68" style="stroke:#000000; stroke-width:3.2; stroke-opacity:1"/>
<line clip-path="url(#clip652)" x1="591.843" y1="1109.68" x2="559.843" y2="1109.68" style="stroke:#000000; stroke-width:3.2; stroke-opacity:1"/>
<line clip-path="url(#clip652)" x1="591.843" y1="1109.68" x2="559.843" y2="1109.68" style="stroke:#000000; stroke-width:3.2; stroke-opacity:1"/>
<line clip-path="url(#clip652)" x1="692.977" y1="1228.99" x2="660.977" y2="1228.99" style="stroke:#000000; stroke-width:3.2; stroke-opacity:1"/>
<line clip-path="url(#clip652)" x1="692.977" y1="963.863" x2="660.977" y2="963.863" style="stroke:#000000; stroke-width:3.2; stroke-opacity:1"/>
<line clip-path="url(#clip652)" x1="794.11" y1="1109.68" x2="762.11" y2="1109.68" style="stroke:#000000; stroke-width:3.2; stroke-opacity:1"/>
<line clip-path="url(#clip652)" x1="794.11" y1="1109.68" x2="762.11" y2="1109.68" style="stroke:#000000; stroke-width:3.2; stroke-opacity:1"/>
<line clip-path="url(#clip652)" x1="895.243" y1="1109.68" x2="863.243" y2="1109.68" style="stroke:#000000; stroke-width:3.2; stroke-opacity:1"/>
<line clip-path="url(#clip652)" x1="895.243" y1="1109.68" x2="863.243" y2="1109.68" style="stroke:#000000; stroke-width:3.2; stroke-opacity:1"/>
<line clip-path="url(#clip652)" x1="996.377" y1="1109.68" x2="964.377" y2="1109.68" style="stroke:#000000; stroke-width:3.2; stroke-opacity:1"/>
<line clip-path="url(#clip652)" x1="996.377" y1="1109.68" x2="964.377" y2="1109.68" style="stroke:#000000; stroke-width:3.2; stroke-opacity:1"/>
<line clip-path="url(#clip652)" x1="1097.51" y1="1109.68" x2="1065.51" y2="1109.68" style="stroke:#000000; stroke-width:3.2; stroke-opacity:1"/>
<line clip-path="url(#clip652)" x1="1097.51" y1="1109.68" x2="1065.51" y2="1109.68" style="stroke:#000000; stroke-width:3.2; stroke-opacity:1"/>
<line clip-path="url(#clip652)" x1="1198.64" y1="1109.68" x2="1166.64" y2="1109.68" style="stroke:#000000; stroke-width:3.2; stroke-opacity:1"/>
<line clip-path="url(#clip652)" x1="1198.64" y1="1109.68" x2="1166.64" y2="1109.68" style="stroke:#000000; stroke-width:3.2; stroke-opacity:1"/>
<line clip-path="url(#clip652)" x1="1299.78" y1="1109.68" x2="1267.78" y2="1109.68" style="stroke:#000000; stroke-width:3.2; stroke-opacity:1"/>
<line clip-path="url(#clip652)" x1="1299.78" y1="1109.68" x2="1267.78" y2="1109.68" style="stroke:#000000; stroke-width:3.2; stroke-opacity:1"/>
<line clip-path="url(#clip652)" x1="1400.91" y1="1109.68" x2="1368.91" y2="1109.68" style="stroke:#000000; stroke-width:3.2; stroke-opacity:1"/>
<line clip-path="url(#clip652)" x1="1400.91" y1="1109.68" x2="1368.91" y2="1109.68" style="stroke:#000000; stroke-width:3.2; stroke-opacity:1"/>
<line clip-path="url(#clip652)" x1="1502.04" y1="1109.68" x2="1470.04" y2="1109.68" style="stroke:#000000; stroke-width:3.2; stroke-opacity:1"/>
<line clip-path="url(#clip652)" x1="1502.04" y1="1109.68" x2="1470.04" y2="1109.68" style="stroke:#000000; stroke-width:3.2; stroke-opacity:1"/>
<line clip-path="url(#clip652)" x1="1603.18" y1="1109.68" x2="1571.18" y2="1109.68" style="stroke:#000000; stroke-width:3.2; stroke-opacity:1"/>
<line clip-path="url(#clip652)" x1="1603.18" y1="1109.68" x2="1571.18" y2="1109.68" style="stroke:#000000; stroke-width:3.2; stroke-opacity:1"/>
<line clip-path="url(#clip652)" x1="1704.31" y1="1109.68" x2="1672.31" y2="1109.68" style="stroke:#000000; stroke-width:3.2; stroke-opacity:1"/>
<line clip-path="url(#clip652)" x1="1704.31" y1="1109.68" x2="1672.31" y2="1109.68" style="stroke:#000000; stroke-width:3.2; stroke-opacity:1"/>
<line clip-path="url(#clip652)" x1="1805.44" y1="1109.68" x2="1773.44" y2="1109.68" style="stroke:#000000; stroke-width:3.2; stroke-opacity:1"/>
<line clip-path="url(#clip652)" x1="1805.44" y1="1109.68" x2="1773.44" y2="1109.68" style="stroke:#000000; stroke-width:3.2; stroke-opacity:1"/>
<line clip-path="url(#clip652)" x1="1906.58" y1="1109.68" x2="1874.58" y2="1109.68" style="stroke:#000000; stroke-width:3.2; stroke-opacity:1"/>
<line clip-path="url(#clip652)" x1="1906.58" y1="1109.68" x2="1874.58" y2="1109.68" style="stroke:#000000; stroke-width:3.2; stroke-opacity:1"/>
<line clip-path="url(#clip652)" x1="2007.71" y1="1109.68" x2="1975.71" y2="1109.68" style="stroke:#000000; stroke-width:3.2; stroke-opacity:1"/>
<line clip-path="url(#clip652)" x1="2007.71" y1="1109.68" x2="1975.71" y2="1109.68" style="stroke:#000000; stroke-width:3.2; stroke-opacity:1"/>
<line clip-path="url(#clip652)" x1="2108.84" y1="1109.68" x2="2076.84" y2="1109.68" style="stroke:#000000; stroke-width:3.2; stroke-opacity:1"/>
<line clip-path="url(#clip652)" x1="2108.84" y1="1109.68" x2="2076.84" y2="1109.68" style="stroke:#000000; stroke-width:3.2; stroke-opacity:1"/>
<line clip-path="url(#clip652)" x1="2209.98" y1="1109.68" x2="2177.98" y2="1109.68" style="stroke:#000000; stroke-width:3.2; stroke-opacity:1"/>
<line clip-path="url(#clip652)" x1="2209.98" y1="1109.68" x2="2177.98" y2="1109.68" style="stroke:#000000; stroke-width:3.2; stroke-opacity:1"/>
<line clip-path="url(#clip652)" x1="2311.11" y1="1109.68" x2="2279.11" y2="1109.68" style="stroke:#000000; stroke-width:3.2; stroke-opacity:1"/>
<line clip-path="url(#clip652)" x1="2311.11" y1="1109.68" x2="2279.11" y2="1109.68" style="stroke:#000000; stroke-width:3.2; stroke-opacity:1"/>
<circle clip-path="url(#clip652)" cx="373.577" cy="1109.68" r="14" fill="#009af9" fill-rule="evenodd" fill-opacity="1" stroke="#000000" stroke-opacity="1" stroke-width="3.2"/>
<circle clip-path="url(#clip652)" cx="474.71" cy="1109.68" r="14" fill="#009af9" fill-rule="evenodd" fill-opacity="1" stroke="#000000" stroke-opacity="1" stroke-width="3.2"/>
<circle clip-path="url(#clip652)" cx="575.843" cy="1109.68" r="14" fill="#009af9" fill-rule="evenodd" fill-opacity="1" stroke="#000000" stroke-opacity="1" stroke-width="3.2"/>
<circle clip-path="url(#clip652)" cx="676.977" cy="1096.43" r="14" fill="#009af9" fill-rule="evenodd" fill-opacity="1" stroke="#000000" stroke-opacity="1" stroke-width="3.2"/>
<circle clip-path="url(#clip652)" cx="778.11" cy="1109.68" r="14" fill="#009af9" fill-rule="evenodd" fill-opacity="1" stroke="#000000" stroke-opacity="1" stroke-width="3.2"/>
<circle clip-path="url(#clip652)" cx="879.243" cy="1109.68" r="14" fill="#009af9" fill-rule="evenodd" fill-opacity="1" stroke="#000000" stroke-opacity="1" stroke-width="3.2"/>
<circle clip-path="url(#clip652)" cx="980.377" cy="1109.68" r="14" fill="#009af9" fill-rule="evenodd" fill-opacity="1" stroke="#000000" stroke-opacity="1" stroke-width="3.2"/>
<circle clip-path="url(#clip652)" cx="1081.51" cy="1109.68" r="14" fill="#009af9" fill-rule="evenodd" fill-opacity="1" stroke="#000000" stroke-opacity="1" stroke-width="3.2"/>
<circle clip-path="url(#clip652)" cx="1182.64" cy="1109.68" r="14" fill="#009af9" fill-rule="evenodd" fill-opacity="1" stroke="#000000" stroke-opacity="1" stroke-width="3.2"/>
<circle clip-path="url(#clip652)" cx="1283.78" cy="1109.68" r="14" fill="#009af9" fill-rule="evenodd" fill-opacity="1" stroke="#000000" stroke-opacity="1" stroke-width="3.2"/>
<circle clip-path="url(#clip652)" cx="1384.91" cy="1109.68" r="14" fill="#009af9" fill-rule="evenodd" fill-opacity="1" stroke="#000000" stroke-opacity="1" stroke-width="3.2"/>
<circle clip-path="url(#clip652)" cx="1486.04" cy="1109.68" r="14" fill="#009af9" fill-rule="evenodd" fill-opacity="1" stroke="#000000" stroke-opacity="1" stroke-width="3.2"/>
<circle clip-path="url(#clip652)" cx="1587.18" cy="1109.68" r="14" fill="#009af9" fill-rule="evenodd" fill-opacity="1" stroke="#000000" stroke-opacity="1" stroke-width="3.2"/>
<circle clip-path="url(#clip652)" cx="1688.31" cy="1109.68" r="14" fill="#009af9" fill-rule="evenodd" fill-opacity="1" stroke="#000000" stroke-opacity="1" stroke-width="3.2"/>
<circle clip-path="url(#clip652)" cx="1789.44" cy="1109.68" r="14" fill="#009af9" fill-rule="evenodd" fill-opacity="1" stroke="#000000" stroke-opacity="1" stroke-width="3.2"/>
<circle clip-path="url(#clip652)" cx="1890.58" cy="1109.68" r="14" fill="#009af9" fill-rule="evenodd" fill-opacity="1" stroke="#000000" stroke-opacity="1" stroke-width="3.2"/>
<circle clip-path="url(#clip652)" cx="1991.71" cy="1109.68" r="14" fill="#009af9" fill-rule="evenodd" fill-opacity="1" stroke="#000000" stroke-opacity="1" stroke-width="3.2"/>
<circle clip-path="url(#clip652)" cx="2092.84" cy="1109.68" r="14" fill="#009af9" fill-rule="evenodd" fill-opacity="1" stroke="#000000" stroke-opacity="1" stroke-width="3.2"/>
<circle clip-path="url(#clip652)" cx="2193.98" cy="1109.68" r="14" fill="#009af9" fill-rule="evenodd" fill-opacity="1" stroke="#000000" stroke-opacity="1" stroke-width="3.2"/>
<circle clip-path="url(#clip652)" cx="2295.11" cy="1109.68" r="14" fill="#009af9" fill-rule="evenodd" fill-opacity="1" stroke="#000000" stroke-opacity="1" stroke-width="3.2"/>
<polyline clip-path="url(#clip652)" style="stroke:#000000; stroke-linecap:butt; stroke-linejoin:round; stroke-width:4; stroke-opacity:1; fill:none" points="
  373.577,1109.68 373.577,1109.68 
  "/>
<polyline clip-path="url(#clip652)" style="stroke:#000000; stroke-linecap:butt; stroke-linejoin:round; stroke-width:4; stroke-opacity:1; fill:none" points="
  474.71,1109.68 474.71,1109.68 
  "/>
<polyline clip-path="url(#clip652)" style="stroke:#000000; stroke-linecap:butt; stroke-linejoin:round; stroke-width:4; stroke-opacity:1; fill:none" points="
  575.843,1109.68 575.843,1109.68 
  "/>
<polyline clip-path="url(#clip652)" style="stroke:#000000; stroke-linecap:butt; stroke-linejoin:round; stroke-width:4; stroke-opacity:1; fill:none" points="
  676.977,1109.68 676.977,1109.68 
  "/>
<polyline clip-path="url(#clip652)" style="stroke:#000000; stroke-linecap:butt; stroke-linejoin:round; stroke-width:4; stroke-opacity:1; fill:none" points="
  778.11,1109.68 778.11,1109.68 
  "/>
<polyline clip-path="url(#clip652)" style="stroke:#000000; stroke-linecap:butt; stroke-linejoin:round; stroke-width:4; stroke-opacity:1; fill:none" points="
  879.243,1109.68 879.243,1109.68 
  "/>
<polyline clip-path="url(#clip652)" style="stroke:#000000; stroke-linecap:butt; stroke-linejoin:round; stroke-width:4; stroke-opacity:1; fill:none" points="
  980.377,1109.68 980.377,1109.68 
  "/>
<polyline clip-path="url(#clip652)" style="stroke:#000000; stroke-linecap:butt; stroke-linejoin:round; stroke-width:4; stroke-opacity:1; fill:none" points="
  1081.51,1109.68 1081.51,1109.68 
  "/>
<polyline clip-path="url(#clip652)" style="stroke:#000000; stroke-linecap:butt; stroke-linejoin:round; stroke-width:4; stroke-opacity:1; fill:none" points="
  1182.64,1109.68 1182.64,1109.68 
  "/>
<polyline clip-path="url(#clip652)" style="stroke:#000000; stroke-linecap:butt; stroke-linejoin:round; stroke-width:4; stroke-opacity:1; fill:none" points="
  1283.78,1109.68 1283.78,1109.68 
  "/>
<polyline clip-path="url(#clip652)" style="stroke:#000000; stroke-linecap:butt; stroke-linejoin:round; stroke-width:4; stroke-opacity:1; fill:none" points="
  1384.91,1109.68 1384.91,1109.68 
  "/>
<polyline clip-path="url(#clip652)" style="stroke:#000000; stroke-linecap:butt; stroke-linejoin:round; stroke-width:4; stroke-opacity:1; fill:none" points="
  1486.04,1109.68 1486.04,1109.68 
  "/>
<polyline clip-path="url(#clip652)" style="stroke:#000000; stroke-linecap:butt; stroke-linejoin:round; stroke-width:4; stroke-opacity:1; fill:none" points="
  1587.18,1109.68 1587.18,1109.68 
  "/>
<polyline clip-path="url(#clip652)" style="stroke:#000000; stroke-linecap:butt; stroke-linejoin:round; stroke-width:4; stroke-opacity:1; fill:none" points="
  1688.31,1109.68 1688.31,1109.68 
  "/>
<polyline clip-path="url(#clip652)" style="stroke:#000000; stroke-linecap:butt; stroke-linejoin:round; stroke-width:4; stroke-opacity:1; fill:none" points="
  1789.44,1109.68 1789.44,1109.68 
  "/>
<polyline clip-path="url(#clip652)" style="stroke:#000000; stroke-linecap:butt; stroke-linejoin:round; stroke-width:4; stroke-opacity:1; fill:none" points="
  1890.58,1109.68 1890.58,1109.68 
  "/>
<polyline clip-path="url(#clip652)" style="stroke:#000000; stroke-linecap:butt; stroke-linejoin:round; stroke-width:4; stroke-opacity:1; fill:none" points="
  1991.71,1109.68 1991.71,1109.68 
  "/>
<polyline clip-path="url(#clip652)" style="stroke:#000000; stroke-linecap:butt; stroke-linejoin:round; stroke-width:4; stroke-opacity:1; fill:none" points="
  2092.84,1228.99 2092.84,963.863 
  "/>
<polyline clip-path="url(#clip652)" style="stroke:#000000; stroke-linecap:butt; stroke-linejoin:round; stroke-width:4; stroke-opacity:1; fill:none" points="
  2193.98,1109.68 2193.98,1109.68 
  "/>
<polyline clip-path="url(#clip652)" style="stroke:#000000; stroke-linecap:butt; stroke-linejoin:round; stroke-width:4; stroke-opacity:1; fill:none" points="
  2295.11,1109.68 2295.11,1109.68 
  "/>
<line clip-path="url(#clip652)" x1="389.577" y1="1109.68" x2="357.577" y2="1109.68" style="stroke:#000000; stroke-width:3.2; stroke-opacity:1"/>
<line clip-path="url(#clip652)" x1="389.577" y1="1109.68" x2="357.577" y2="1109.68" style="stroke:#000000; stroke-width:3.2; stroke-opacity:1"/>
<line clip-path="url(#clip652)" x1="490.71" y1="1109.68" x2="458.71" y2="1109.68" style="stroke:#000000; stroke-width:3.2; stroke-opacity:1"/>
<line clip-path="url(#clip652)" x1="490.71" y1="1109.68" x2="458.71" y2="1109.68" style="stroke:#000000; stroke-width:3.2; stroke-opacity:1"/>
<line clip-path="url(#clip652)" x1="591.843" y1="1109.68" x2="559.843" y2="1109.68" style="stroke:#000000; stroke-width:3.2; stroke-opacity:1"/>
<line clip-path="url(#clip652)" x1="591.843" y1="1109.68" x2="559.843" y2="1109.68" style="stroke:#000000; stroke-width:3.2; stroke-opacity:1"/>
<line clip-path="url(#clip652)" x1="692.977" y1="1109.68" x2="660.977" y2="1109.68" style="stroke:#000000; stroke-width:3.2; stroke-opacity:1"/>
<line clip-path="url(#clip652)" x1="692.977" y1="1109.68" x2="660.977" y2="1109.68" style="stroke:#000000; stroke-width:3.2; stroke-opacity:1"/>
<line clip-path="url(#clip652)" x1="794.11" y1="1109.68" x2="762.11" y2="1109.68" style="stroke:#000000; stroke-width:3.2; stroke-opacity:1"/>
<line clip-path="url(#clip652)" x1="794.11" y1="1109.68" x2="762.11" y2="1109.68" style="stroke:#000000; stroke-width:3.2; stroke-opacity:1"/>
<line clip-path="url(#clip652)" x1="895.243" y1="1109.68" x2="863.243" y2="1109.68" style="stroke:#000000; stroke-width:3.2; stroke-opacity:1"/>
<line clip-path="url(#clip652)" x1="895.243" y1="1109.68" x2="863.243" y2="1109.68" style="stroke:#000000; stroke-width:3.2; stroke-opacity:1"/>
<line clip-path="url(#clip652)" x1="996.377" y1="1109.68" x2="964.377" y2="1109.68" style="stroke:#000000; stroke-width:3.2; stroke-opacity:1"/>
<line clip-path="url(#clip652)" x1="996.377" y1="1109.68" x2="964.377" y2="1109.68" style="stroke:#000000; stroke-width:3.2; stroke-opacity:1"/>
<line clip-path="url(#clip652)" x1="1097.51" y1="1109.68" x2="1065.51" y2="1109.68" style="stroke:#000000; stroke-width:3.2; stroke-opacity:1"/>
<line clip-path="url(#clip652)" x1="1097.51" y1="1109.68" x2="1065.51" y2="1109.68" style="stroke:#000000; stroke-width:3.2; stroke-opacity:1"/>
<line clip-path="url(#clip652)" x1="1198.64" y1="1109.68" x2="1166.64" y2="1109.68" style="stroke:#000000; stroke-width:3.2; stroke-opacity:1"/>
<line clip-path="url(#clip652)" x1="1198.64" y1="1109.68" x2="1166.64" y2="1109.68" style="stroke:#000000; stroke-width:3.2; stroke-opacity:1"/>
<line clip-path="url(#clip652)" x1="1299.78" y1="1109.68" x2="1267.78" y2="1109.68" style="stroke:#000000; stroke-width:3.2; stroke-opacity:1"/>
<line clip-path="url(#clip652)" x1="1299.78" y1="1109.68" x2="1267.78" y2="1109.68" style="stroke:#000000; stroke-width:3.2; stroke-opacity:1"/>
<line clip-path="url(#clip652)" x1="1400.91" y1="1109.68" x2="1368.91" y2="1109.68" style="stroke:#000000; stroke-width:3.2; stroke-opacity:1"/>
<line clip-path="url(#clip652)" x1="1400.91" y1="1109.68" x2="1368.91" y2="1109.68" style="stroke:#000000; stroke-width:3.2; stroke-opacity:1"/>
<line clip-path="url(#clip652)" x1="1502.04" y1="1109.68" x2="1470.04" y2="1109.68" style="stroke:#000000; stroke-width:3.2; stroke-opacity:1"/>
<line clip-path="url(#clip652)" x1="1502.04" y1="1109.68" x2="1470.04" y2="1109.68" style="stroke:#000000; stroke-width:3.2; stroke-opacity:1"/>
<line clip-path="url(#clip652)" x1="1603.18" y1="1109.68" x2="1571.18" y2="1109.68" style="stroke:#000000; stroke-width:3.2; stroke-opacity:1"/>
<line clip-path="url(#clip652)" x1="1603.18" y1="1109.68" x2="1571.18" y2="1109.68" style="stroke:#000000; stroke-width:3.2; stroke-opacity:1"/>
<line clip-path="url(#clip652)" x1="1704.31" y1="1109.68" x2="1672.31" y2="1109.68" style="stroke:#000000; stroke-width:3.2; stroke-opacity:1"/>
<line clip-path="url(#clip652)" x1="1704.31" y1="1109.68" x2="1672.31" y2="1109.68" style="stroke:#000000; stroke-width:3.2; stroke-opacity:1"/>
<line clip-path="url(#clip652)" x1="1805.44" y1="1109.68" x2="1773.44" y2="1109.68" style="stroke:#000000; stroke-width:3.2; stroke-opacity:1"/>
<line clip-path="url(#clip652)" x1="1805.44" y1="1109.68" x2="1773.44" y2="1109.68" style="stroke:#000000; stroke-width:3.2; stroke-opacity:1"/>
<line clip-path="url(#clip652)" x1="1906.58" y1="1109.68" x2="1874.58" y2="1109.68" style="stroke:#000000; stroke-width:3.2; stroke-opacity:1"/>
<line clip-path="url(#clip652)" x1="1906.58" y1="1109.68" x2="1874.58" y2="1109.68" style="stroke:#000000; stroke-width:3.2; stroke-opacity:1"/>
<line clip-path="url(#clip652)" x1="2007.71" y1="1109.68" x2="1975.71" y2="1109.68" style="stroke:#000000; stroke-width:3.2; stroke-opacity:1"/>
<line clip-path="url(#clip652)" x1="2007.71" y1="1109.68" x2="1975.71" y2="1109.68" style="stroke:#000000; stroke-width:3.2; stroke-opacity:1"/>
<line clip-path="url(#clip652)" x1="2108.84" y1="1228.99" x2="2076.84" y2="1228.99" style="stroke:#000000; stroke-width:3.2; stroke-opacity:1"/>
<line clip-path="url(#clip652)" x1="2108.84" y1="963.863" x2="2076.84" y2="963.863" style="stroke:#000000; stroke-width:3.2; stroke-opacity:1"/>
<line clip-path="url(#clip652)" x1="2209.98" y1="1109.68" x2="2177.98" y2="1109.68" style="stroke:#000000; stroke-width:3.2; stroke-opacity:1"/>
<line clip-path="url(#clip652)" x1="2209.98" y1="1109.68" x2="2177.98" y2="1109.68" style="stroke:#000000; stroke-width:3.2; stroke-opacity:1"/>
<line clip-path="url(#clip652)" x1="2311.11" y1="1109.68" x2="2279.11" y2="1109.68" style="stroke:#000000; stroke-width:3.2; stroke-opacity:1"/>
<line clip-path="url(#clip652)" x1="2311.11" y1="1109.68" x2="2279.11" y2="1109.68" style="stroke:#000000; stroke-width:3.2; stroke-opacity:1"/>
<circle clip-path="url(#clip652)" cx="373.577" cy="1109.68" r="14" fill="#e26f46" fill-rule="evenodd" fill-opacity="1" stroke="#000000" stroke-opacity="1" stroke-width="3.2"/>
<circle clip-path="url(#clip652)" cx="474.71" cy="1109.68" r="14" fill="#e26f46" fill-rule="evenodd" fill-opacity="1" stroke="#000000" stroke-opacity="1" stroke-width="3.2"/>
<circle clip-path="url(#clip652)" cx="575.843" cy="1109.68" r="14" fill="#e26f46" fill-rule="evenodd" fill-opacity="1" stroke="#000000" stroke-opacity="1" stroke-width="3.2"/>
<circle clip-path="url(#clip652)" cx="676.977" cy="1109.68" r="14" fill="#e26f46" fill-rule="evenodd" fill-opacity="1" stroke="#000000" stroke-opacity="1" stroke-width="3.2"/>
<circle clip-path="url(#clip652)" cx="778.11" cy="1109.68" r="14" fill="#e26f46" fill-rule="evenodd" fill-opacity="1" stroke="#000000" stroke-opacity="1" stroke-width="3.2"/>
<circle clip-path="url(#clip652)" cx="879.243" cy="1109.68" r="14" fill="#e26f46" fill-rule="evenodd" fill-opacity="1" stroke="#000000" stroke-opacity="1" stroke-width="3.2"/>
<circle clip-path="url(#clip652)" cx="980.377" cy="1109.68" r="14" fill="#e26f46" fill-rule="evenodd" fill-opacity="1" stroke="#000000" stroke-opacity="1" stroke-width="3.2"/>
<circle clip-path="url(#clip652)" cx="1081.51" cy="1109.68" r="14" fill="#e26f46" fill-rule="evenodd" fill-opacity="1" stroke="#000000" stroke-opacity="1" stroke-width="3.2"/>
<circle clip-path="url(#clip652)" cx="1182.64" cy="1109.68" r="14" fill="#e26f46" fill-rule="evenodd" fill-opacity="1" stroke="#000000" stroke-opacity="1" stroke-width="3.2"/>
<circle clip-path="url(#clip652)" cx="1283.78" cy="1109.68" r="14" fill="#e26f46" fill-rule="evenodd" fill-opacity="1" stroke="#000000" stroke-opacity="1" stroke-width="3.2"/>
<circle clip-path="url(#clip652)" cx="1384.91" cy="1109.68" r="14" fill="#e26f46" fill-rule="evenodd" fill-opacity="1" stroke="#000000" stroke-opacity="1" stroke-width="3.2"/>
<circle clip-path="url(#clip652)" cx="1486.04" cy="1109.68" r="14" fill="#e26f46" fill-rule="evenodd" fill-opacity="1" stroke="#000000" stroke-opacity="1" stroke-width="3.2"/>
<circle clip-path="url(#clip652)" cx="1587.18" cy="1109.68" r="14" fill="#e26f46" fill-rule="evenodd" fill-opacity="1" stroke="#000000" stroke-opacity="1" stroke-width="3.2"/>
<circle clip-path="url(#clip652)" cx="1688.31" cy="1109.68" r="14" fill="#e26f46" fill-rule="evenodd" fill-opacity="1" stroke="#000000" stroke-opacity="1" stroke-width="3.2"/>
<circle clip-path="url(#clip652)" cx="1789.44" cy="1109.68" r="14" fill="#e26f46" fill-rule="evenodd" fill-opacity="1" stroke="#000000" stroke-opacity="1" stroke-width="3.2"/>
<circle clip-path="url(#clip652)" cx="1890.58" cy="1109.68" r="14" fill="#e26f46" fill-rule="evenodd" fill-opacity="1" stroke="#000000" stroke-opacity="1" stroke-width="3.2"/>
<circle clip-path="url(#clip652)" cx="1991.71" cy="1109.68" r="14" fill="#e26f46" fill-rule="evenodd" fill-opacity="1" stroke="#000000" stroke-opacity="1" stroke-width="3.2"/>
<circle clip-path="url(#clip652)" cx="2092.84" cy="1096.43" r="14" fill="#e26f46" fill-rule="evenodd" fill-opacity="1" stroke="#000000" stroke-opacity="1" stroke-width="3.2"/>
<circle clip-path="url(#clip652)" cx="2193.98" cy="1109.68" r="14" fill="#e26f46" fill-rule="evenodd" fill-opacity="1" stroke="#000000" stroke-opacity="1" stroke-width="3.2"/>
<circle clip-path="url(#clip652)" cx="2295.11" cy="1109.68" r="14" fill="#e26f46" fill-rule="evenodd" fill-opacity="1" stroke="#000000" stroke-opacity="1" stroke-width="3.2"/>
<polyline clip-path="url(#clip652)" style="stroke:#000000; stroke-linecap:butt; stroke-linejoin:round; stroke-width:4; stroke-opacity:1; fill:none" points="
  373.577,1109.68 373.577,1109.68 
  "/>
<polyline clip-path="url(#clip652)" style="stroke:#000000; stroke-linecap:butt; stroke-linejoin:round; stroke-width:4; stroke-opacity:1; fill:none" points="
  474.71,1109.68 474.71,1109.68 
  "/>
<polyline clip-path="url(#clip652)" style="stroke:#000000; stroke-linecap:butt; stroke-linejoin:round; stroke-width:4; stroke-opacity:1; fill:none" points="
  575.843,1109.68 575.843,1109.68 
  "/>
<polyline clip-path="url(#clip652)" style="stroke:#000000; stroke-linecap:butt; stroke-linejoin:round; stroke-width:4; stroke-opacity:1; fill:none" points="
  676.977,1109.68 676.977,1109.68 
  "/>
<polyline clip-path="url(#clip652)" style="stroke:#000000; stroke-linecap:butt; stroke-linejoin:round; stroke-width:4; stroke-opacity:1; fill:none" points="
  778.11,1109.68 778.11,1109.68 
  "/>
<polyline clip-path="url(#clip652)" style="stroke:#000000; stroke-linecap:butt; stroke-linejoin:round; stroke-width:4; stroke-opacity:1; fill:none" points="
  879.243,1228.99 879.243,963.863 
  "/>
<polyline clip-path="url(#clip652)" style="stroke:#000000; stroke-linecap:butt; stroke-linejoin:round; stroke-width:4; stroke-opacity:1; fill:none" points="
  980.377,1269.7 980.377,896.645 
  "/>
<polyline clip-path="url(#clip652)" style="stroke:#000000; stroke-linecap:butt; stroke-linejoin:round; stroke-width:4; stroke-opacity:1; fill:none" points="
  1081.51,1269.7 1081.51,896.645 
  "/>
<polyline clip-path="url(#clip652)" style="stroke:#000000; stroke-linecap:butt; stroke-linejoin:round; stroke-width:4; stroke-opacity:1; fill:none" points="
  1182.64,1297.19 1182.64,842.636 
  "/>
<polyline clip-path="url(#clip652)" style="stroke:#000000; stroke-linecap:butt; stroke-linejoin:round; stroke-width:4; stroke-opacity:1; fill:none" points="
  1283.78,1317.74 1283.78,795.576 
  "/>
<polyline clip-path="url(#clip652)" style="stroke:#000000; stroke-linecap:butt; stroke-linejoin:round; stroke-width:4; stroke-opacity:1; fill:none" points="
  1384.91,1333.78 1384.91,753.027 
  "/>
<polyline clip-path="url(#clip652)" style="stroke:#000000; stroke-linecap:butt; stroke-linejoin:round; stroke-width:4; stroke-opacity:1; fill:none" points="
  1486.04,1356.83 1486.04,676.948 
  "/>
<polyline clip-path="url(#clip652)" style="stroke:#000000; stroke-linecap:butt; stroke-linejoin:round; stroke-width:4; stroke-opacity:1; fill:none" points="
  1587.18,1365.09 1587.18,642.18 
  "/>
<polyline clip-path="url(#clip652)" style="stroke:#000000; stroke-linecap:butt; stroke-linejoin:round; stroke-width:4; stroke-opacity:1; fill:none" points="
  1688.31,1376.82 1688.31,577.42 
  "/>
<polyline clip-path="url(#clip652)" style="stroke:#000000; stroke-linecap:butt; stroke-linejoin:round; stroke-width:4; stroke-opacity:1; fill:none" points="
  1789.44,1383.56 1789.44,517.649 
  "/>
<polyline clip-path="url(#clip652)" style="stroke:#000000; stroke-linecap:butt; stroke-linejoin:round; stroke-width:4; stroke-opacity:1; fill:none" points="
  1890.58,1386.4 1890.58,461.791 
  "/>
<polyline clip-path="url(#clip652)" style="stroke:#000000; stroke-linecap:butt; stroke-linejoin:round; stroke-width:4; stroke-opacity:1; fill:none" points="
  1991.71,1384.79 1991.71,383.856 
  "/>
<polyline clip-path="url(#clip652)" style="stroke:#000000; stroke-linecap:butt; stroke-linejoin:round; stroke-width:4; stroke-opacity:1; fill:none" points="
  2092.84,1380.49 2092.84,335.135 
  "/>
<polyline clip-path="url(#clip652)" style="stroke:#000000; stroke-linecap:butt; stroke-linejoin:round; stroke-width:4; stroke-opacity:1; fill:none" points="
  2193.98,1360.54 2193.98,222.511 
  "/>
<polyline clip-path="url(#clip652)" style="stroke:#000000; stroke-linecap:butt; stroke-linejoin:round; stroke-width:4; stroke-opacity:1; fill:none" points="
  2295.11,1343.26 2295.11,160.256 
  "/>
<line clip-path="url(#clip652)" x1="389.577" y1="1109.68" x2="357.577" y2="1109.68" style="stroke:#000000; stroke-width:3.2; stroke-opacity:1"/>
<line clip-path="url(#clip652)" x1="389.577" y1="1109.68" x2="357.577" y2="1109.68" style="stroke:#000000; stroke-width:3.2; stroke-opacity:1"/>
<line clip-path="url(#clip652)" x1="490.71" y1="1109.68" x2="458.71" y2="1109.68" style="stroke:#000000; stroke-width:3.2; stroke-opacity:1"/>
<line clip-path="url(#clip652)" x1="490.71" y1="1109.68" x2="458.71" y2="1109.68" style="stroke:#000000; stroke-width:3.2; stroke-opacity:1"/>
<line clip-path="url(#clip652)" x1="591.843" y1="1109.68" x2="559.843" y2="1109.68" style="stroke:#000000; stroke-width:3.2; stroke-opacity:1"/>
<line clip-path="url(#clip652)" x1="591.843" y1="1109.68" x2="559.843" y2="1109.68" style="stroke:#000000; stroke-width:3.2; stroke-opacity:1"/>
<line clip-path="url(#clip652)" x1="692.977" y1="1109.68" x2="660.977" y2="1109.68" style="stroke:#000000; stroke-width:3.2; stroke-opacity:1"/>
<line clip-path="url(#clip652)" x1="692.977" y1="1109.68" x2="660.977" y2="1109.68" style="stroke:#000000; stroke-width:3.2; stroke-opacity:1"/>
<line clip-path="url(#clip652)" x1="794.11" y1="1109.68" x2="762.11" y2="1109.68" style="stroke:#000000; stroke-width:3.2; stroke-opacity:1"/>
<line clip-path="url(#clip652)" x1="794.11" y1="1109.68" x2="762.11" y2="1109.68" style="stroke:#000000; stroke-width:3.2; stroke-opacity:1"/>
<line clip-path="url(#clip652)" x1="895.243" y1="1228.99" x2="863.243" y2="1228.99" style="stroke:#000000; stroke-width:3.2; stroke-opacity:1"/>
<line clip-path="url(#clip652)" x1="895.243" y1="963.863" x2="863.243" y2="963.863" style="stroke:#000000; stroke-width:3.2; stroke-opacity:1"/>
<line clip-path="url(#clip652)" x1="996.377" y1="1269.7" x2="964.377" y2="1269.7" style="stroke:#000000; stroke-width:3.2; stroke-opacity:1"/>
<line clip-path="url(#clip652)" x1="996.377" y1="896.645" x2="964.377" y2="896.645" style="stroke:#000000; stroke-width:3.2; stroke-opacity:1"/>
<line clip-path="url(#clip652)" x1="1097.51" y1="1269.7" x2="1065.51" y2="1269.7" style="stroke:#000000; stroke-width:3.2; stroke-opacity:1"/>
<line clip-path="url(#clip652)" x1="1097.51" y1="896.645" x2="1065.51" y2="896.645" style="stroke:#000000; stroke-width:3.2; stroke-opacity:1"/>
<line clip-path="url(#clip652)" x1="1198.64" y1="1297.19" x2="1166.64" y2="1297.19" style="stroke:#000000; stroke-width:3.2; stroke-opacity:1"/>
<line clip-path="url(#clip652)" x1="1198.64" y1="842.636" x2="1166.64" y2="842.636" style="stroke:#000000; stroke-width:3.2; stroke-opacity:1"/>
<line clip-path="url(#clip652)" x1="1299.78" y1="1317.74" x2="1267.78" y2="1317.74" style="stroke:#000000; stroke-width:3.2; stroke-opacity:1"/>
<line clip-path="url(#clip652)" x1="1299.78" y1="795.576" x2="1267.78" y2="795.576" style="stroke:#000000; stroke-width:3.2; stroke-opacity:1"/>
<line clip-path="url(#clip652)" x1="1400.91" y1="1333.78" x2="1368.91" y2="1333.78" style="stroke:#000000; stroke-width:3.2; stroke-opacity:1"/>
<line clip-path="url(#clip652)" x1="1400.91" y1="753.027" x2="1368.91" y2="753.027" style="stroke:#000000; stroke-width:3.2; stroke-opacity:1"/>
<line clip-path="url(#clip652)" x1="1502.04" y1="1356.83" x2="1470.04" y2="1356.83" style="stroke:#000000; stroke-width:3.2; stroke-opacity:1"/>
<line clip-path="url(#clip652)" x1="1502.04" y1="676.948" x2="1470.04" y2="676.948" style="stroke:#000000; stroke-width:3.2; stroke-opacity:1"/>
<line clip-path="url(#clip652)" x1="1603.18" y1="1365.09" x2="1571.18" y2="1365.09" style="stroke:#000000; stroke-width:3.2; stroke-opacity:1"/>
<line clip-path="url(#clip652)" x1="1603.18" y1="642.18" x2="1571.18" y2="642.18" style="stroke:#000000; stroke-width:3.2; stroke-opacity:1"/>
<line clip-path="url(#clip652)" x1="1704.31" y1="1376.82" x2="1672.31" y2="1376.82" style="stroke:#000000; stroke-width:3.2; stroke-opacity:1"/>
<line clip-path="url(#clip652)" x1="1704.31" y1="577.42" x2="1672.31" y2="577.42" style="stroke:#000000; stroke-width:3.2; stroke-opacity:1"/>
<line clip-path="url(#clip652)" x1="1805.44" y1="1383.56" x2="1773.44" y2="1383.56" style="stroke:#000000; stroke-width:3.2; stroke-opacity:1"/>
<line clip-path="url(#clip652)" x1="1805.44" y1="517.649" x2="1773.44" y2="517.649" style="stroke:#000000; stroke-width:3.2; stroke-opacity:1"/>
<line clip-path="url(#clip652)" x1="1906.58" y1="1386.4" x2="1874.58" y2="1386.4" style="stroke:#000000; stroke-width:3.2; stroke-opacity:1"/>
<line clip-path="url(#clip652)" x1="1906.58" y1="461.791" x2="1874.58" y2="461.791" style="stroke:#000000; stroke-width:3.2; stroke-opacity:1"/>
<line clip-path="url(#clip652)" x1="2007.71" y1="1384.79" x2="1975.71" y2="1384.79" style="stroke:#000000; stroke-width:3.2; stroke-opacity:1"/>
<line clip-path="url(#clip652)" x1="2007.71" y1="383.856" x2="1975.71" y2="383.856" style="stroke:#000000; stroke-width:3.2; stroke-opacity:1"/>
<line clip-path="url(#clip652)" x1="2108.84" y1="1380.49" x2="2076.84" y2="1380.49" style="stroke:#000000; stroke-width:3.2; stroke-opacity:1"/>
<line clip-path="url(#clip652)" x1="2108.84" y1="335.135" x2="2076.84" y2="335.135" style="stroke:#000000; stroke-width:3.2; stroke-opacity:1"/>
<line clip-path="url(#clip652)" x1="2209.98" y1="1360.54" x2="2177.98" y2="1360.54" style="stroke:#000000; stroke-width:3.2; stroke-opacity:1"/>
<line clip-path="url(#clip652)" x1="2209.98" y1="222.511" x2="2177.98" y2="222.511" style="stroke:#000000; stroke-width:3.2; stroke-opacity:1"/>
<line clip-path="url(#clip652)" x1="2311.11" y1="1343.26" x2="2279.11" y2="1343.26" style="stroke:#000000; stroke-width:3.2; stroke-opacity:1"/>
<line clip-path="url(#clip652)" x1="2311.11" y1="160.256" x2="2279.11" y2="160.256" style="stroke:#000000; stroke-width:3.2; stroke-opacity:1"/>
<circle clip-path="url(#clip652)" cx="373.577" cy="1109.68" r="14" fill="#3da44d" fill-rule="evenodd" fill-opacity="1" stroke="#000000" stroke-opacity="1" stroke-width="3.2"/>
<circle clip-path="url(#clip652)" cx="474.71" cy="1109.68" r="14" fill="#3da44d" fill-rule="evenodd" fill-opacity="1" stroke="#000000" stroke-opacity="1" stroke-width="3.2"/>
<circle clip-path="url(#clip652)" cx="575.843" cy="1109.68" r="14" fill="#3da44d" fill-rule="evenodd" fill-opacity="1" stroke="#000000" stroke-opacity="1" stroke-width="3.2"/>
<circle clip-path="url(#clip652)" cx="676.977" cy="1109.68" r="14" fill="#3da44d" fill-rule="evenodd" fill-opacity="1" stroke="#000000" stroke-opacity="1" stroke-width="3.2"/>
<circle clip-path="url(#clip652)" cx="778.11" cy="1109.68" r="14" fill="#3da44d" fill-rule="evenodd" fill-opacity="1" stroke="#000000" stroke-opacity="1" stroke-width="3.2"/>
<circle clip-path="url(#clip652)" cx="879.243" cy="1096.43" r="14" fill="#3da44d" fill-rule="evenodd" fill-opacity="1" stroke="#000000" stroke-opacity="1" stroke-width="3.2"/>
<circle clip-path="url(#clip652)" cx="980.377" cy="1083.17" r="14" fill="#3da44d" fill-rule="evenodd" fill-opacity="1" stroke="#000000" stroke-opacity="1" stroke-width="3.2"/>
<circle clip-path="url(#clip652)" cx="1081.51" cy="1083.17" r="14" fill="#3da44d" fill-rule="evenodd" fill-opacity="1" stroke="#000000" stroke-opacity="1" stroke-width="3.2"/>
<circle clip-path="url(#clip652)" cx="1182.64" cy="1069.92" r="14" fill="#3da44d" fill-rule="evenodd" fill-opacity="1" stroke="#000000" stroke-opacity="1" stroke-width="3.2"/>
<circle clip-path="url(#clip652)" cx="1283.78" cy="1056.66" r="14" fill="#3da44d" fill-rule="evenodd" fill-opacity="1" stroke="#000000" stroke-opacity="1" stroke-width="3.2"/>
<circle clip-path="url(#clip652)" cx="1384.91" cy="1043.4" r="14" fill="#3da44d" fill-rule="evenodd" fill-opacity="1" stroke="#000000" stroke-opacity="1" stroke-width="3.2"/>
<circle clip-path="url(#clip652)" cx="1486.04" cy="1016.89" r="14" fill="#3da44d" fill-rule="evenodd" fill-opacity="1" stroke="#000000" stroke-opacity="1" stroke-width="3.2"/>
<circle clip-path="url(#clip652)" cx="1587.18" cy="1003.63" r="14" fill="#3da44d" fill-rule="evenodd" fill-opacity="1" stroke="#000000" stroke-opacity="1" stroke-width="3.2"/>
<circle clip-path="url(#clip652)" cx="1688.31" cy="977.12" r="14" fill="#3da44d" fill-rule="evenodd" fill-opacity="1" stroke="#000000" stroke-opacity="1" stroke-width="3.2"/>
<circle clip-path="url(#clip652)" cx="1789.44" cy="950.606" r="14" fill="#3da44d" fill-rule="evenodd" fill-opacity="1" stroke="#000000" stroke-opacity="1" stroke-width="3.2"/>
<circle clip-path="url(#clip652)" cx="1890.58" cy="924.093" r="14" fill="#3da44d" fill-rule="evenodd" fill-opacity="1" stroke="#000000" stroke-opacity="1" stroke-width="3.2"/>
<circle clip-path="url(#clip652)" cx="1991.71" cy="884.324" r="14" fill="#3da44d" fill-rule="evenodd" fill-opacity="1" stroke="#000000" stroke-opacity="1" stroke-width="3.2"/>
<circle clip-path="url(#clip652)" cx="2092.84" cy="857.811" r="14" fill="#3da44d" fill-rule="evenodd" fill-opacity="1" stroke="#000000" stroke-opacity="1" stroke-width="3.2"/>
<circle clip-path="url(#clip652)" cx="2193.98" cy="791.528" r="14" fill="#3da44d" fill-rule="evenodd" fill-opacity="1" stroke="#000000" stroke-opacity="1" stroke-width="3.2"/>
<circle clip-path="url(#clip652)" cx="2295.11" cy="751.758" r="14" fill="#3da44d" fill-rule="evenodd" fill-opacity="1" stroke="#000000" stroke-opacity="1" stroke-width="3.2"/>
<path clip-path="url(#clip650)" d="
M1608.94 374.156 L2284.86 374.156 L2284.86 166.796 L1608.94 166.796  Z
  " fill="#ffffff" fill-rule="evenodd" fill-opacity="1"/>
<polyline clip-path="url(#clip650)" style="stroke:#000000; stroke-linecap:butt; stroke-linejoin:round; stroke-width:4; stroke-opacity:1; fill:none" points="
  1608.94,374.156 2284.86,374.156 2284.86,166.796 1608.94,166.796 1608.94,374.156 
  "/>
<circle clip-path="url(#clip650)" cx="1699.47" cy="218.636" r="23" fill="#009af9" fill-rule="evenodd" fill-opacity="1" stroke="#000000" stroke-opacity="1" stroke-width="5.12"/>
<path clip-path="url(#clip650)" d="M1789.99 199.897 L1799.81 199.897 L1799.81 203.208 L1794.25 203.208 L1794.25 238.856 L1799.81 238.856 L1799.81 242.166 L1789.99 242.166 L1789.99 199.897 Z" fill="#000000" fill-rule="evenodd" fill-opacity="1" /><path clip-path="url(#clip650)" d="M1812.91 201.356 L1812.91 214.203 L1808.98 214.203 L1808.98 201.356 L1812.91 201.356 M1821.66 201.356 L1821.66 214.203 L1817.73 214.203 L1817.73 201.356 L1821.66 201.356 Z" fill="#000000" fill-rule="evenodd" fill-opacity="1" /><path clip-path="url(#clip650)" d="M1850.87 214.967 Q1852.47 212.096 1854.69 210.731 Q1856.92 209.365 1859.93 209.365 Q1863.98 209.365 1866.18 212.212 Q1868.37 215.036 1868.37 220.268 L1868.37 235.916 L1864.09 235.916 L1864.09 220.407 Q1864.09 216.68 1862.77 214.874 Q1861.45 213.069 1858.74 213.069 Q1855.43 213.069 1853.51 215.268 Q1851.59 217.467 1851.59 221.263 L1851.59 235.916 L1847.31 235.916 L1847.31 220.407 Q1847.31 216.657 1845.99 214.874 Q1844.67 213.069 1841.92 213.069 Q1838.65 213.069 1836.73 215.291 Q1834.81 217.49 1834.81 221.263 L1834.81 235.916 L1830.53 235.916 L1830.53 209.99 L1834.81 209.99 L1834.81 214.018 Q1836.27 211.633 1838.3 210.499 Q1840.34 209.365 1843.14 209.365 Q1845.97 209.365 1847.93 210.8 Q1849.93 212.235 1850.87 214.967 Z" fill="#000000" fill-rule="evenodd" fill-opacity="1" /><path clip-path="url(#clip650)" d="M1899.05 221.888 L1899.05 223.971 L1879.46 223.971 Q1879.74 228.369 1882.1 230.684 Q1884.49 232.976 1888.72 232.976 Q1891.17 232.976 1893.47 232.374 Q1895.78 231.772 1898.05 230.569 L1898.05 234.596 Q1895.76 235.568 1893.35 236.078 Q1890.94 236.587 1888.47 236.587 Q1882.26 236.587 1878.63 232.976 Q1875.02 229.365 1875.02 223.207 Q1875.02 216.842 1878.44 213.115 Q1881.89 209.365 1887.73 209.365 Q1892.96 209.365 1895.99 212.745 Q1899.05 216.101 1899.05 221.888 M1894.79 220.638 Q1894.74 217.143 1892.82 215.059 Q1890.92 212.976 1887.77 212.976 Q1884.21 212.976 1882.05 214.99 Q1879.92 217.004 1879.6 220.661 L1894.79 220.638 Z" fill="#000000" fill-rule="evenodd" fill-opacity="1" /><path clip-path="url(#clip650)" d="M1917.82 222.883 Q1912.66 222.883 1910.67 224.064 Q1908.67 225.244 1908.67 228.092 Q1908.67 230.36 1910.16 231.703 Q1911.66 233.022 1914.23 233.022 Q1917.77 233.022 1919.9 230.522 Q1922.05 227.999 1922.05 223.832 L1922.05 222.883 L1917.82 222.883 M1926.31 221.124 L1926.31 235.916 L1922.05 235.916 L1922.05 231.981 Q1920.6 234.342 1918.42 235.476 Q1916.24 236.587 1913.1 236.587 Q1909.11 236.587 1906.75 234.365 Q1904.42 232.119 1904.42 228.369 Q1904.42 223.994 1907.33 221.772 Q1910.27 219.55 1916.08 219.55 L1922.05 219.55 L1922.05 219.133 Q1922.05 216.194 1920.11 214.596 Q1918.19 212.976 1914.69 212.976 Q1912.47 212.976 1910.36 213.508 Q1908.26 214.041 1906.31 215.106 L1906.31 211.17 Q1908.65 210.268 1910.85 209.828 Q1913.05 209.365 1915.13 209.365 Q1920.76 209.365 1923.54 212.282 Q1926.31 215.198 1926.31 221.124 Z" fill="#000000" fill-rule="evenodd" fill-opacity="1" /><path clip-path="url(#clip650)" d="M1956.64 220.268 L1956.64 235.916 L1952.38 235.916 L1952.38 220.407 Q1952.38 216.726 1950.94 214.897 Q1949.51 213.069 1946.64 213.069 Q1943.19 213.069 1941.2 215.268 Q1939.21 217.467 1939.21 221.263 L1939.21 235.916 L1934.92 235.916 L1934.92 209.99 L1939.21 209.99 L1939.21 214.018 Q1940.73 211.68 1942.79 210.522 Q1944.88 209.365 1947.59 209.365 Q1952.05 209.365 1954.35 212.143 Q1956.64 214.897 1956.64 220.268 Z" fill="#000000" fill-rule="evenodd" fill-opacity="1" /><path clip-path="url(#clip650)" d="M2001.75 220.268 L2001.75 235.916 L1997.49 235.916 L1997.49 220.407 Q1997.49 216.726 1996.06 214.897 Q1994.62 213.069 1991.75 213.069 Q1988.3 213.069 1986.31 215.268 Q1984.32 217.467 1984.32 221.263 L1984.32 235.916 L1980.04 235.916 L1980.04 209.99 L1984.32 209.99 L1984.32 214.018 Q1985.85 211.68 1987.91 210.522 Q1989.99 209.365 1992.7 209.365 Q1997.17 209.365 1999.46 212.143 Q2001.75 214.897 2001.75 220.268 Z" fill="#000000" fill-rule="evenodd" fill-opacity="1" /><path clip-path="url(#clip650)" d="M2022.03 222.883 Q2016.87 222.883 2014.88 224.064 Q2012.89 225.244 2012.89 228.092 Q2012.89 230.36 2014.37 231.703 Q2015.87 233.022 2018.44 233.022 Q2021.98 233.022 2024.11 230.522 Q2026.27 227.999 2026.27 223.832 L2026.27 222.883 L2022.03 222.883 M2030.53 221.124 L2030.53 235.916 L2026.27 235.916 L2026.27 231.981 Q2024.81 234.342 2022.63 235.476 Q2020.46 236.587 2017.31 236.587 Q2013.33 236.587 2010.97 234.365 Q2008.63 232.119 2008.63 228.369 Q2008.63 223.994 2011.54 221.772 Q2014.48 219.55 2020.29 219.55 L2026.27 219.55 L2026.27 219.133 Q2026.27 216.194 2024.32 214.596 Q2022.4 212.976 2018.91 212.976 Q2016.68 212.976 2014.58 213.508 Q2012.47 214.041 2010.53 215.106 L2010.53 211.17 Q2012.86 210.268 2015.06 209.828 Q2017.26 209.365 2019.35 209.365 Q2024.97 209.365 2027.75 212.282 Q2030.53 215.198 2030.53 221.124 Z" fill="#000000" fill-rule="evenodd" fill-opacity="1" /><path clip-path="url(#clip650)" d="M2039.3 209.99 L2043.56 209.99 L2043.56 235.916 L2039.3 235.916 L2039.3 209.99 M2039.3 199.897 L2043.56 199.897 L2043.56 205.291 L2039.3 205.291 L2039.3 199.897 Z" fill="#000000" fill-rule="evenodd" fill-opacity="1" /><path clip-path="url(#clip650)" d="M2049.41 209.99 L2053.93 209.99 L2062.03 231.749 L2070.13 209.99 L2074.65 209.99 L2064.92 235.916 L2059.14 235.916 L2049.41 209.99 Z" fill="#000000" fill-rule="evenodd" fill-opacity="1" /><path clip-path="url(#clip650)" d="M2102.7 221.888 L2102.7 223.971 L2083.12 223.971 Q2083.4 228.369 2085.76 230.684 Q2088.14 232.976 2092.38 232.976 Q2094.83 232.976 2097.12 232.374 Q2099.44 231.772 2101.71 230.569 L2101.71 234.596 Q2099.41 235.568 2097.01 236.078 Q2094.6 236.587 2092.12 236.587 Q2085.92 236.587 2082.28 232.976 Q2078.67 229.365 2078.67 223.207 Q2078.67 216.842 2082.1 213.115 Q2085.55 209.365 2091.38 209.365 Q2096.61 209.365 2099.65 212.745 Q2102.7 216.101 2102.7 221.888 M2098.44 220.638 Q2098.4 217.143 2096.47 215.059 Q2094.58 212.976 2091.43 212.976 Q2087.86 212.976 2085.71 214.99 Q2083.58 217.004 2083.26 220.661 L2098.44 220.638 Z" fill="#000000" fill-rule="evenodd" fill-opacity="1" /><path clip-path="url(#clip650)" d="M2138.97 204.527 Q2133.88 204.527 2130.87 208.323 Q2127.89 212.12 2127.89 218.67 Q2127.89 225.198 2130.87 228.994 Q2133.88 232.791 2138.97 232.791 Q2144.07 232.791 2147.03 228.994 Q2150.02 225.198 2150.02 218.67 Q2150.02 212.12 2147.03 208.323 Q2144.07 204.527 2138.97 204.527 M2138.97 200.731 Q2146.24 200.731 2150.59 205.615 Q2154.95 210.476 2154.95 218.67 Q2154.95 226.842 2150.59 231.726 Q2146.24 236.587 2138.97 236.587 Q2131.68 236.587 2127.31 231.726 Q2122.96 226.865 2122.96 218.67 Q2122.96 210.476 2127.31 205.615 Q2131.68 200.731 2138.97 200.731 Z" fill="#000000" fill-rule="evenodd" fill-opacity="1" /><path clip-path="url(#clip650)" d="M2163.49 231.981 L2171.13 231.981 L2171.13 205.615 L2162.82 207.282 L2162.82 203.022 L2171.08 201.356 L2175.76 201.356 L2175.76 231.981 L2183.4 231.981 L2183.4 235.916 L2163.49 235.916 L2163.49 231.981 Z" fill="#000000" fill-rule="evenodd" fill-opacity="1" /><path clip-path="url(#clip650)" d="M2196.27 201.356 L2196.27 214.203 L2192.33 214.203 L2192.33 201.356 L2196.27 201.356 M2205.02 201.356 L2205.02 214.203 L2201.08 214.203 L2201.08 201.356 L2205.02 201.356 Z" fill="#000000" fill-rule="evenodd" fill-opacity="1" /><path clip-path="url(#clip650)" d="M2224 199.897 L2224 242.166 L2214.18 242.166 L2214.18 238.856 L2219.71 238.856 L2219.71 203.208 L2214.18 203.208 L2214.18 199.897 L2224 199.897 Z" fill="#000000" fill-rule="evenodd" fill-opacity="1" /><circle clip-path="url(#clip650)" cx="1699.47" cy="270.476" r="23" fill="#e26f46" fill-rule="evenodd" fill-opacity="1" stroke="#000000" stroke-opacity="1" stroke-width="5.12"/>
<path clip-path="url(#clip650)" d="M1789.99 251.737 L1799.81 251.737 L1799.81 255.048 L1794.25 255.048 L1794.25 290.696 L1799.81 290.696 L1799.81 294.006 L1789.99 294.006 L1789.99 251.737 Z" fill="#000000" fill-rule="evenodd" fill-opacity="1" /><path clip-path="url(#clip650)" d="M1812.91 253.196 L1812.91 266.043 L1808.98 266.043 L1808.98 253.196 L1812.91 253.196 M1821.66 253.196 L1821.66 266.043 L1817.73 266.043 L1817.73 253.196 L1821.66 253.196 Z" fill="#000000" fill-rule="evenodd" fill-opacity="1" /><path clip-path="url(#clip650)" d="M1850.87 266.807 Q1852.47 263.936 1854.69 262.571 Q1856.92 261.205 1859.93 261.205 Q1863.98 261.205 1866.18 264.052 Q1868.37 266.876 1868.37 272.108 L1868.37 287.756 L1864.09 287.756 L1864.09 272.247 Q1864.09 268.52 1862.77 266.714 Q1861.45 264.909 1858.74 264.909 Q1855.43 264.909 1853.51 267.108 Q1851.59 269.307 1851.59 273.103 L1851.59 287.756 L1847.31 287.756 L1847.31 272.247 Q1847.31 268.497 1845.99 266.714 Q1844.67 264.909 1841.92 264.909 Q1838.65 264.909 1836.73 267.131 Q1834.81 269.33 1834.81 273.103 L1834.81 287.756 L1830.53 287.756 L1830.53 261.83 L1834.81 261.83 L1834.81 265.858 Q1836.27 263.473 1838.3 262.339 Q1840.34 261.205 1843.14 261.205 Q1845.97 261.205 1847.93 262.64 Q1849.93 264.075 1850.87 266.807 Z" fill="#000000" fill-rule="evenodd" fill-opacity="1" /><path clip-path="url(#clip650)" d="M1899.05 273.728 L1899.05 275.811 L1879.46 275.811 Q1879.74 280.209 1882.1 282.524 Q1884.49 284.816 1888.72 284.816 Q1891.17 284.816 1893.47 284.214 Q1895.78 283.612 1898.05 282.409 L1898.05 286.436 Q1895.76 287.408 1893.35 287.918 Q1890.94 288.427 1888.47 288.427 Q1882.26 288.427 1878.63 284.816 Q1875.02 281.205 1875.02 275.047 Q1875.02 268.682 1878.44 264.955 Q1881.89 261.205 1887.73 261.205 Q1892.96 261.205 1895.99 264.585 Q1899.05 267.941 1899.05 273.728 M1894.79 272.478 Q1894.74 268.983 1892.82 266.899 Q1890.92 264.816 1887.77 264.816 Q1884.21 264.816 1882.05 266.83 Q1879.92 268.844 1879.6 272.501 L1894.79 272.478 Z" fill="#000000" fill-rule="evenodd" fill-opacity="1" /><path clip-path="url(#clip650)" d="M1917.82 274.723 Q1912.66 274.723 1910.67 275.904 Q1908.67 277.084 1908.67 279.932 Q1908.67 282.2 1910.16 283.543 Q1911.66 284.862 1914.23 284.862 Q1917.77 284.862 1919.9 282.362 Q1922.05 279.839 1922.05 275.672 L1922.05 274.723 L1917.82 274.723 M1926.31 272.964 L1926.31 287.756 L1922.05 287.756 L1922.05 283.821 Q1920.6 286.182 1918.42 287.316 Q1916.24 288.427 1913.1 288.427 Q1909.11 288.427 1906.75 286.205 Q1904.42 283.959 1904.42 280.209 Q1904.42 275.834 1907.33 273.612 Q1910.27 271.39 1916.08 271.39 L1922.05 271.39 L1922.05 270.973 Q1922.05 268.034 1920.11 266.436 Q1918.19 264.816 1914.69 264.816 Q1912.47 264.816 1910.36 265.348 Q1908.26 265.881 1906.31 266.946 L1906.31 263.01 Q1908.65 262.108 1910.85 261.668 Q1913.05 261.205 1915.13 261.205 Q1920.76 261.205 1923.54 264.122 Q1926.31 267.038 1926.31 272.964 Z" fill="#000000" fill-rule="evenodd" fill-opacity="1" /><path clip-path="url(#clip650)" d="M1956.64 272.108 L1956.64 287.756 L1952.38 287.756 L1952.38 272.247 Q1952.38 268.566 1950.94 266.737 Q1949.51 264.909 1946.64 264.909 Q1943.19 264.909 1941.2 267.108 Q1939.21 269.307 1939.21 273.103 L1939.21 287.756 L1934.92 287.756 L1934.92 261.83 L1939.21 261.83 L1939.21 265.858 Q1940.73 263.52 1942.79 262.362 Q1944.88 261.205 1947.59 261.205 Q1952.05 261.205 1954.35 263.983 Q1956.64 266.737 1956.64 272.108 Z" fill="#000000" fill-rule="evenodd" fill-opacity="1" /><path clip-path="url(#clip650)" d="M1998.81 274.816 Q1998.81 270.117 1996.87 267.455 Q1994.95 264.77 1991.57 264.77 Q1988.19 264.77 1986.24 267.455 Q1984.32 270.117 1984.32 274.816 Q1984.32 279.515 1986.24 282.2 Q1988.19 284.862 1991.57 284.862 Q1994.95 284.862 1996.87 282.2 Q1998.81 279.515 1998.81 274.816 M1984.32 265.765 Q1985.67 263.45 1987.7 262.339 Q1989.76 261.205 1992.61 261.205 Q1997.33 261.205 2000.27 264.955 Q2003.23 268.705 2003.23 274.816 Q2003.23 280.927 2000.27 284.677 Q1997.33 288.427 1992.61 288.427 Q1989.76 288.427 1987.7 287.316 Q1985.67 286.182 1984.32 283.867 L1984.32 287.756 L1980.04 287.756 L1980.04 251.737 L1984.32 251.737 L1984.32 265.765 Z" fill="#000000" fill-rule="evenodd" fill-opacity="1" /><path clip-path="url(#clip650)" d="M2032.47 273.728 L2032.47 275.811 L2012.89 275.811 Q2013.16 280.209 2015.53 282.524 Q2017.91 284.816 2022.15 284.816 Q2024.6 284.816 2026.89 284.214 Q2029.21 283.612 2031.48 282.409 L2031.48 286.436 Q2029.18 287.408 2026.78 287.918 Q2024.37 288.427 2021.89 288.427 Q2015.69 288.427 2012.05 284.816 Q2008.44 281.205 2008.44 275.047 Q2008.44 268.682 2011.87 264.955 Q2015.32 261.205 2021.15 261.205 Q2026.38 261.205 2029.41 264.585 Q2032.47 267.941 2032.47 273.728 M2028.21 272.478 Q2028.16 268.983 2026.24 266.899 Q2024.35 264.816 2021.2 264.816 Q2017.63 264.816 2015.48 266.83 Q2013.35 268.844 2013.03 272.501 L2028.21 272.478 Z" fill="#000000" fill-rule="evenodd" fill-opacity="1" /><path clip-path="url(#clip650)" d="M2043.67 254.469 L2043.67 261.83 L2052.45 261.83 L2052.45 265.14 L2043.67 265.14 L2043.67 279.214 Q2043.67 282.385 2044.53 283.288 Q2045.41 284.191 2048.07 284.191 L2052.45 284.191 L2052.45 287.756 L2048.07 287.756 Q2043.14 287.756 2041.27 285.927 Q2039.39 284.075 2039.39 279.214 L2039.39 265.14 L2036.27 265.14 L2036.27 261.83 L2039.39 261.83 L2039.39 254.469 L2043.67 254.469 Z" fill="#000000" fill-rule="evenodd" fill-opacity="1" /><path clip-path="url(#clip650)" d="M2062.26 254.469 L2062.26 261.83 L2071.04 261.83 L2071.04 265.14 L2062.26 265.14 L2062.26 279.214 Q2062.26 282.385 2063.12 283.288 Q2064 284.191 2066.66 284.191 L2071.04 284.191 L2071.04 287.756 L2066.66 287.756 Q2061.73 287.756 2059.85 285.927 Q2057.98 284.075 2057.98 279.214 L2057.98 265.14 L2054.85 265.14 L2054.85 261.83 L2057.98 261.83 L2057.98 254.469 L2062.26 254.469 Z" fill="#000000" fill-rule="evenodd" fill-opacity="1" /><path clip-path="url(#clip650)" d="M2098.81 273.728 L2098.81 275.811 L2079.23 275.811 Q2079.51 280.209 2081.87 282.524 Q2084.25 284.816 2088.49 284.816 Q2090.94 284.816 2093.23 284.214 Q2095.55 283.612 2097.82 282.409 L2097.82 286.436 Q2095.53 287.408 2093.12 287.918 Q2090.71 288.427 2088.23 288.427 Q2082.03 288.427 2078.4 284.816 Q2074.79 281.205 2074.79 275.047 Q2074.79 268.682 2078.21 264.955 Q2081.66 261.205 2087.49 261.205 Q2092.72 261.205 2095.76 264.585 Q2098.81 267.941 2098.81 273.728 M2094.55 272.478 Q2094.51 268.983 2092.59 266.899 Q2090.69 264.816 2087.54 264.816 Q2083.97 264.816 2081.82 266.83 Q2079.69 268.844 2079.37 272.501 L2094.55 272.478 Z" fill="#000000" fill-rule="evenodd" fill-opacity="1" /><path clip-path="url(#clip650)" d="M2120.83 265.811 Q2120.11 265.395 2119.25 265.21 Q2118.42 265.001 2117.4 265.001 Q2113.79 265.001 2111.84 267.362 Q2109.92 269.7 2109.92 274.098 L2109.92 287.756 L2105.64 287.756 L2105.64 261.83 L2109.92 261.83 L2109.92 265.858 Q2111.27 263.497 2113.42 262.362 Q2115.57 261.205 2118.65 261.205 Q2119.09 261.205 2119.62 261.274 Q2120.16 261.321 2120.8 261.436 L2120.83 265.811 Z" fill="#000000" fill-rule="evenodd" fill-opacity="1" /><path clip-path="url(#clip650)" d="M2154.58 256.367 Q2149.48 256.367 2146.47 260.163 Q2143.49 263.96 2143.49 270.51 Q2143.49 277.038 2146.47 280.834 Q2149.48 284.631 2154.58 284.631 Q2159.67 284.631 2162.63 280.834 Q2165.62 277.038 2165.62 270.51 Q2165.62 263.96 2162.63 260.163 Q2159.67 256.367 2154.58 256.367 M2154.58 252.571 Q2161.84 252.571 2166.2 257.455 Q2170.55 262.316 2170.55 270.51 Q2170.55 278.682 2166.2 283.566 Q2161.84 288.427 2154.58 288.427 Q2147.28 288.427 2142.91 283.566 Q2138.56 278.705 2138.56 270.51 Q2138.56 262.316 2142.91 257.455 Q2147.28 252.571 2154.58 252.571 Z" fill="#000000" fill-rule="evenodd" fill-opacity="1" /><path clip-path="url(#clip650)" d="M2179.09 283.821 L2186.73 283.821 L2186.73 257.455 L2178.42 259.122 L2178.42 254.862 L2186.68 253.196 L2191.36 253.196 L2191.36 283.821 L2199 283.821 L2199 287.756 L2179.09 287.756 L2179.09 283.821 Z" fill="#000000" fill-rule="evenodd" fill-opacity="1" /><path clip-path="url(#clip650)" d="M2211.87 253.196 L2211.87 266.043 L2207.93 266.043 L2207.93 253.196 L2211.87 253.196 M2220.62 253.196 L2220.62 266.043 L2216.68 266.043 L2216.68 253.196 L2220.62 253.196 Z" fill="#000000" fill-rule="evenodd" fill-opacity="1" /><path clip-path="url(#clip650)" d="M2239.6 251.737 L2239.6 294.006 L2229.78 294.006 L2229.78 290.696 L2235.32 290.696 L2235.32 255.048 L2229.78 255.048 L2229.78 251.737 L2239.6 251.737 Z" fill="#000000" fill-rule="evenodd" fill-opacity="1" /><circle clip-path="url(#clip650)" cx="1699.47" cy="322.316" r="23" fill="#3da44d" fill-rule="evenodd" fill-opacity="1" stroke="#000000" stroke-opacity="1" stroke-width="5.12"/>
<path clip-path="url(#clip650)" d="M1789.99 303.577 L1799.81 303.577 L1799.81 306.888 L1794.25 306.888 L1794.25 342.536 L1799.81 342.536 L1799.81 345.846 L1789.99 345.846 L1789.99 303.577 Z" fill="#000000" fill-rule="evenodd" fill-opacity="1" /><path clip-path="url(#clip650)" d="M1812.91 305.036 L1812.91 317.883 L1808.98 317.883 L1808.98 305.036 L1812.91 305.036 M1821.66 305.036 L1821.66 317.883 L1817.73 317.883 L1817.73 305.036 L1821.66 305.036 Z" fill="#000000" fill-rule="evenodd" fill-opacity="1" /><path clip-path="url(#clip650)" d="M1850.87 318.647 Q1852.47 315.776 1854.69 314.411 Q1856.92 313.045 1859.93 313.045 Q1863.98 313.045 1866.18 315.892 Q1868.37 318.716 1868.37 323.948 L1868.37 339.596 L1864.09 339.596 L1864.09 324.087 Q1864.09 320.36 1862.77 318.554 Q1861.45 316.749 1858.74 316.749 Q1855.43 316.749 1853.51 318.948 Q1851.59 321.147 1851.59 324.943 L1851.59 339.596 L1847.31 339.596 L1847.31 324.087 Q1847.31 320.337 1845.99 318.554 Q1844.67 316.749 1841.92 316.749 Q1838.65 316.749 1836.73 318.971 Q1834.81 321.17 1834.81 324.943 L1834.81 339.596 L1830.53 339.596 L1830.53 313.67 L1834.81 313.67 L1834.81 317.698 Q1836.27 315.313 1838.3 314.179 Q1840.34 313.045 1843.14 313.045 Q1845.97 313.045 1847.93 314.48 Q1849.93 315.915 1850.87 318.647 Z" fill="#000000" fill-rule="evenodd" fill-opacity="1" /><path clip-path="url(#clip650)" d="M1899.05 325.568 L1899.05 327.651 L1879.46 327.651 Q1879.74 332.049 1882.1 334.364 Q1884.49 336.656 1888.72 336.656 Q1891.17 336.656 1893.47 336.054 Q1895.78 335.452 1898.05 334.249 L1898.05 338.276 Q1895.76 339.248 1893.35 339.758 Q1890.94 340.267 1888.47 340.267 Q1882.26 340.267 1878.63 336.656 Q1875.02 333.045 1875.02 326.887 Q1875.02 320.522 1878.44 316.795 Q1881.89 313.045 1887.73 313.045 Q1892.96 313.045 1895.99 316.425 Q1899.05 319.781 1899.05 325.568 M1894.79 324.318 Q1894.74 320.823 1892.82 318.739 Q1890.92 316.656 1887.77 316.656 Q1884.21 316.656 1882.05 318.67 Q1879.92 320.684 1879.6 324.341 L1894.79 324.318 Z" fill="#000000" fill-rule="evenodd" fill-opacity="1" /><path clip-path="url(#clip650)" d="M1917.82 326.563 Q1912.66 326.563 1910.67 327.744 Q1908.67 328.924 1908.67 331.772 Q1908.67 334.04 1910.16 335.383 Q1911.66 336.702 1914.23 336.702 Q1917.77 336.702 1919.9 334.202 Q1922.05 331.679 1922.05 327.512 L1922.05 326.563 L1917.82 326.563 M1926.31 324.804 L1926.31 339.596 L1922.05 339.596 L1922.05 335.661 Q1920.6 338.022 1918.42 339.156 Q1916.24 340.267 1913.1 340.267 Q1909.11 340.267 1906.75 338.045 Q1904.42 335.799 1904.42 332.049 Q1904.42 327.674 1907.33 325.452 Q1910.27 323.23 1916.08 323.23 L1922.05 323.23 L1922.05 322.813 Q1922.05 319.874 1920.11 318.276 Q1918.19 316.656 1914.69 316.656 Q1912.47 316.656 1910.36 317.188 Q1908.26 317.721 1906.31 318.786 L1906.31 314.85 Q1908.65 313.948 1910.85 313.508 Q1913.05 313.045 1915.13 313.045 Q1920.76 313.045 1923.54 315.962 Q1926.31 318.878 1926.31 324.804 Z" fill="#000000" fill-rule="evenodd" fill-opacity="1" /><path clip-path="url(#clip650)" d="M1956.64 323.948 L1956.64 339.596 L1952.38 339.596 L1952.38 324.087 Q1952.38 320.406 1950.94 318.577 Q1949.51 316.749 1946.64 316.749 Q1943.19 316.749 1941.2 318.948 Q1939.21 321.147 1939.21 324.943 L1939.21 339.596 L1934.92 339.596 L1934.92 313.67 L1939.21 313.67 L1939.21 317.698 Q1940.73 315.36 1942.79 314.202 Q1944.88 313.045 1947.59 313.045 Q1952.05 313.045 1954.35 315.823 Q1956.64 318.577 1956.64 323.948 Z" fill="#000000" fill-rule="evenodd" fill-opacity="1" /><path clip-path="url(#clip650)" d="M1998.81 326.656 Q1998.81 321.957 1996.87 319.295 Q1994.95 316.61 1991.57 316.61 Q1988.19 316.61 1986.24 319.295 Q1984.32 321.957 1984.32 326.656 Q1984.32 331.355 1986.24 334.04 Q1988.19 336.702 1991.57 336.702 Q1994.95 336.702 1996.87 334.04 Q1998.81 331.355 1998.81 326.656 M1984.32 317.605 Q1985.67 315.29 1987.7 314.179 Q1989.76 313.045 1992.61 313.045 Q1997.33 313.045 2000.27 316.795 Q2003.23 320.545 2003.23 326.656 Q2003.23 332.767 2000.27 336.517 Q1997.33 340.267 1992.61 340.267 Q1989.76 340.267 1987.7 339.156 Q1985.67 338.022 1984.32 335.707 L1984.32 339.596 L1980.04 339.596 L1980.04 303.577 L1984.32 303.577 L1984.32 317.605 Z" fill="#000000" fill-rule="evenodd" fill-opacity="1" /><path clip-path="url(#clip650)" d="M2032.47 325.568 L2032.47 327.651 L2012.89 327.651 Q2013.16 332.049 2015.53 334.364 Q2017.91 336.656 2022.15 336.656 Q2024.6 336.656 2026.89 336.054 Q2029.21 335.452 2031.48 334.249 L2031.48 338.276 Q2029.18 339.248 2026.78 339.758 Q2024.37 340.267 2021.89 340.267 Q2015.69 340.267 2012.05 336.656 Q2008.44 333.045 2008.44 326.887 Q2008.44 320.522 2011.87 316.795 Q2015.32 313.045 2021.15 313.045 Q2026.38 313.045 2029.41 316.425 Q2032.47 319.781 2032.47 325.568 M2028.21 324.318 Q2028.16 320.823 2026.24 318.739 Q2024.35 316.656 2021.2 316.656 Q2017.63 316.656 2015.48 318.67 Q2013.35 320.684 2013.03 324.341 L2028.21 324.318 Z" fill="#000000" fill-rule="evenodd" fill-opacity="1" /><path clip-path="url(#clip650)" d="M2055.99 314.434 L2055.99 318.462 Q2054.18 317.536 2052.24 317.073 Q2050.29 316.61 2048.21 316.61 Q2045.04 316.61 2043.44 317.582 Q2041.87 318.554 2041.87 320.499 Q2041.87 321.98 2043 322.837 Q2044.14 323.67 2047.56 324.434 L2049.02 324.758 Q2053.56 325.73 2055.46 327.512 Q2057.38 329.272 2057.38 332.443 Q2057.38 336.054 2054.51 338.161 Q2051.66 340.267 2046.66 340.267 Q2044.58 340.267 2042.31 339.85 Q2040.06 339.457 2037.56 338.647 L2037.56 334.249 Q2039.92 335.475 2042.22 336.1 Q2044.51 336.702 2046.75 336.702 Q2049.76 336.702 2051.38 335.684 Q2053 334.642 2053 332.767 Q2053 331.031 2051.82 330.105 Q2050.66 329.179 2046.71 328.323 L2045.22 327.975 Q2041.27 327.142 2039.51 325.429 Q2037.75 323.693 2037.75 320.684 Q2037.75 317.026 2040.34 315.036 Q2042.93 313.045 2047.7 313.045 Q2050.06 313.045 2052.15 313.392 Q2054.23 313.739 2055.99 314.434 Z" fill="#000000" fill-rule="evenodd" fill-opacity="1" /><path clip-path="url(#clip650)" d="M2068.37 306.309 L2068.37 313.67 L2077.15 313.67 L2077.15 316.98 L2068.37 316.98 L2068.37 331.054 Q2068.37 334.225 2069.23 335.128 Q2070.11 336.031 2072.77 336.031 L2077.15 336.031 L2077.15 339.596 L2072.77 339.596 Q2067.84 339.596 2065.97 337.767 Q2064.09 335.915 2064.09 331.054 L2064.09 316.98 L2060.97 316.98 L2060.97 313.67 L2064.09 313.67 L2064.09 306.309 L2068.37 306.309 Z" fill="#000000" fill-rule="evenodd" fill-opacity="1" /><path clip-path="url(#clip650)" d="M2112.03 308.207 Q2106.94 308.207 2103.93 312.003 Q2100.94 315.8 2100.94 322.35 Q2100.94 328.878 2103.93 332.674 Q2106.94 336.471 2112.03 336.471 Q2117.12 336.471 2120.09 332.674 Q2123.07 328.878 2123.07 322.35 Q2123.07 315.8 2120.09 312.003 Q2117.12 308.207 2112.03 308.207 M2112.03 304.411 Q2119.3 304.411 2123.65 309.295 Q2128 314.156 2128 322.35 Q2128 330.522 2123.65 335.406 Q2119.3 340.267 2112.03 340.267 Q2104.74 340.267 2100.36 335.406 Q2096.01 330.545 2096.01 322.35 Q2096.01 314.156 2100.36 309.295 Q2104.74 304.411 2112.03 304.411 Z" fill="#000000" fill-rule="evenodd" fill-opacity="1" /><path clip-path="url(#clip650)" d="M2136.54 335.661 L2144.18 335.661 L2144.18 309.295 L2135.87 310.962 L2135.87 306.702 L2144.14 305.036 L2148.81 305.036 L2148.81 335.661 L2156.45 335.661 L2156.45 339.596 L2136.54 339.596 L2136.54 335.661 Z" fill="#000000" fill-rule="evenodd" fill-opacity="1" /><path clip-path="url(#clip650)" d="M2169.32 305.036 L2169.32 317.883 L2165.39 317.883 L2165.39 305.036 L2169.32 305.036 M2178.07 305.036 L2178.07 317.883 L2174.14 317.883 L2174.14 305.036 L2178.07 305.036 Z" fill="#000000" fill-rule="evenodd" fill-opacity="1" /><path clip-path="url(#clip650)" d="M2197.05 303.577 L2197.05 345.846 L2187.24 345.846 L2187.24 342.536 L2192.77 342.536 L2192.77 306.888 L2187.24 306.888 L2187.24 303.577 L2197.05 303.577 Z" fill="#000000" fill-rule="evenodd" fill-opacity="1" /></svg>
