<?xml version="1.0" encoding="utf-8"?>
<svg xmlns="http://www.w3.org/2000/svg" xmlns:xlink="http://www.w3.org/1999/xlink" width="600" height="400" viewBox="0 0 2400 1600">
<defs>
  <clipPath id="clip890">
    <rect x="0" y="0" width="2400" height="1600"/>
  </clipPath>
</defs>
<path clip-path="url(#clip890)" d="
M0 1600 L2400 1600 L2400 0 L0 0  Z
  " fill="#ffffff" fill-rule="evenodd" fill-opacity="1"/>
<defs>
  <clipPath id="clip891">
    <rect x="480" y="0" width="1681" height="1600"/>
  </clipPath>
</defs>
<path clip-path="url(#clip890)" d="
M156.598 1486.45 L2352.76 1486.45 L2352.76 47.2441 L156.598 47.2441  Z
  " fill="#ffffff" fill-rule="evenodd" fill-opacity="1"/>
<defs>
  <clipPath id="clip892">
    <rect x="156" y="47" width="2197" height="1440"/>
  </clipPath>
</defs>
<polyline clip-path="url(#clip892)" style="stroke:#000000; stroke-linecap:butt; stroke-linejoin:round; stroke-width:2; stroke-opacity:0.1; fill:none" points="
  218.754,1486.45 218.754,47.2441 
  "/>
<polyline clip-path="url(#clip892)" style="stroke:#000000; stroke-linecap:butt; stroke-linejoin:round; stroke-width:2; stroke-opacity:0.1; fill:none" points="
  736.715,1486.45 736.715,47.2441 
  "/>
<polyline clip-path="url(#clip892)" style="stroke:#000000; stroke-linecap:butt; stroke-linejoin:round; stroke-width:2; stroke-opacity:0.1; fill:none" points="
  1254.68,1486.45 1254.68,47.2441 
  "/>
<polyline clip-path="url(#clip892)" style="stroke:#000000; stroke-linecap:butt; stroke-linejoin:round; stroke-width:2; stroke-opacity:0.1; fill:none" points="
  1772.64,1486.45 1772.64,47.2441 
  "/>
<polyline clip-path="url(#clip892)" style="stroke:#000000; stroke-linecap:butt; stroke-linejoin:round; stroke-width:2; stroke-opacity:0.1; fill:none" points="
  2290.6,1486.45 2290.6,47.2441 
  "/>
<polyline clip-path="url(#clip890)" style="stroke:#000000; stroke-linecap:butt; stroke-linejoin:round; stroke-width:4; stroke-opacity:1; fill:none" points="
  156.598,1486.45 2352.76,1486.45 
  "/>
<polyline clip-path="url(#clip890)" style="stroke:#000000; stroke-linecap:butt; stroke-linejoin:round; stroke-width:4; stroke-opacity:1; fill:none" points="
  218.754,1486.45 218.754,1467.55 
  "/>
<polyline clip-path="url(#clip890)" style="stroke:#000000; stroke-linecap:butt; stroke-linejoin:round; stroke-width:4; stroke-opacity:1; fill:none" points="
  736.715,1486.45 736.715,1467.55 
  "/>
<polyline clip-path="url(#clip890)" style="stroke:#000000; stroke-linecap:butt; stroke-linejoin:round; stroke-width:4; stroke-opacity:1; fill:none" points="
  1254.68,1486.45 1254.68,1467.55 
  "/>
<polyline clip-path="url(#clip890)" style="stroke:#000000; stroke-linecap:butt; stroke-linejoin:round; stroke-width:4; stroke-opacity:1; fill:none" points="
  1772.64,1486.45 1772.64,1467.55 
  "/>
<polyline clip-path="url(#clip890)" style="stroke:#000000; stroke-linecap:butt; stroke-linejoin:round; stroke-width:4; stroke-opacity:1; fill:none" points="
  2290.6,1486.45 2290.6,1467.55 
  "/>
<path clip-path="url(#clip890)" d="M165.282 1532.02 L194.957 1532.02 L194.957 1535.95 L165.282 1535.95 L165.282 1532.02 Z" fill="#000000" fill-rule="evenodd" fill-opacity="1" /><path clip-path="url(#clip890)" d="M205.86 1544.91 L213.499 1544.91 L213.499 1518.55 L205.189 1520.21 L205.189 1515.95 L213.453 1514.29 L218.129 1514.29 L218.129 1544.91 L225.767 1544.91 L225.767 1548.85 L205.86 1548.85 L205.86 1544.91 Z" fill="#000000" fill-rule="evenodd" fill-opacity="1" /><path clip-path="url(#clip890)" d="M235.212 1542.97 L240.096 1542.97 L240.096 1548.85 L235.212 1548.85 L235.212 1542.97 Z" fill="#000000" fill-rule="evenodd" fill-opacity="1" /><path clip-path="url(#clip890)" d="M260.281 1517.37 Q256.67 1517.37 254.841 1520.93 Q253.036 1524.47 253.036 1531.6 Q253.036 1538.71 254.841 1542.27 Q256.67 1545.82 260.281 1545.82 Q263.915 1545.82 265.721 1542.27 Q267.55 1538.71 267.55 1531.6 Q267.55 1524.47 265.721 1520.93 Q263.915 1517.37 260.281 1517.37 M260.281 1513.66 Q266.091 1513.66 269.147 1518.27 Q272.226 1522.85 272.226 1531.6 Q272.226 1540.33 269.147 1544.94 Q266.091 1549.52 260.281 1549.52 Q254.471 1549.52 251.392 1544.94 Q248.337 1540.33 248.337 1531.6 Q248.337 1522.85 251.392 1518.27 Q254.471 1513.66 260.281 1513.66 Z" fill="#000000" fill-rule="evenodd" fill-opacity="1" /><path clip-path="url(#clip890)" d="M683.741 1532.02 L713.417 1532.02 L713.417 1535.95 L683.741 1535.95 L683.741 1532.02 Z" fill="#000000" fill-rule="evenodd" fill-opacity="1" /><path clip-path="url(#clip890)" d="M733.509 1517.37 Q729.898 1517.37 728.07 1520.93 Q726.264 1524.47 726.264 1531.6 Q726.264 1538.71 728.07 1542.27 Q729.898 1545.82 733.509 1545.82 Q737.144 1545.82 738.949 1542.27 Q740.778 1538.71 740.778 1531.6 Q740.778 1524.47 738.949 1520.93 Q737.144 1517.37 733.509 1517.37 M733.509 1513.66 Q739.32 1513.66 742.375 1518.27 Q745.454 1522.85 745.454 1531.6 Q745.454 1540.33 742.375 1544.94 Q739.32 1549.52 733.509 1549.52 Q727.699 1549.52 724.621 1544.94 Q721.565 1540.33 721.565 1531.6 Q721.565 1522.85 724.621 1518.27 Q727.699 1513.66 733.509 1513.66 Z" fill="#000000" fill-rule="evenodd" fill-opacity="1" /><path clip-path="url(#clip890)" d="M753.671 1542.97 L758.556 1542.97 L758.556 1548.85 L753.671 1548.85 L753.671 1542.97 Z" fill="#000000" fill-rule="evenodd" fill-opacity="1" /><path clip-path="url(#clip890)" d="M768.787 1514.29 L787.143 1514.29 L787.143 1518.22 L773.069 1518.22 L773.069 1526.7 Q774.088 1526.35 775.106 1526.19 Q776.125 1526 777.143 1526 Q782.93 1526 786.31 1529.17 Q789.69 1532.34 789.69 1537.76 Q789.69 1543.34 786.217 1546.44 Q782.745 1549.52 776.426 1549.52 Q774.25 1549.52 771.981 1549.15 Q769.736 1548.78 767.329 1548.04 L767.329 1543.34 Q769.412 1544.47 771.634 1545.03 Q773.856 1545.58 776.333 1545.58 Q780.338 1545.58 782.676 1543.48 Q785.014 1541.37 785.014 1537.76 Q785.014 1534.15 782.676 1532.04 Q780.338 1529.94 776.333 1529.94 Q774.458 1529.94 772.583 1530.35 Q770.731 1530.77 768.787 1531.65 L768.787 1514.29 Z" fill="#000000" fill-rule="evenodd" fill-opacity="1" /><path clip-path="url(#clip890)" d="M1232.06 1517.37 Q1228.45 1517.37 1226.62 1520.93 Q1224.82 1524.47 1224.82 1531.6 Q1224.82 1538.71 1226.62 1542.27 Q1228.45 1545.82 1232.06 1545.82 Q1235.7 1545.82 1237.5 1542.27 Q1239.33 1538.71 1239.33 1531.6 Q1239.33 1524.47 1237.5 1520.93 Q1235.7 1517.37 1232.06 1517.37 M1232.06 1513.66 Q1237.87 1513.66 1240.93 1518.27 Q1244.01 1522.85 1244.01 1531.6 Q1244.01 1540.33 1240.93 1544.94 Q1237.87 1549.52 1232.06 1549.52 Q1226.25 1549.52 1223.17 1544.94 Q1220.12 1540.33 1220.12 1531.6 Q1220.12 1522.85 1223.17 1518.27 Q1226.25 1513.66 1232.06 1513.66 Z" fill="#000000" fill-rule="evenodd" fill-opacity="1" /><path clip-path="url(#clip890)" d="M1252.22 1542.97 L1257.11 1542.97 L1257.11 1548.85 L1252.22 1548.85 L1252.22 1542.97 Z" fill="#000000" fill-rule="evenodd" fill-opacity="1" /><path clip-path="url(#clip890)" d="M1277.29 1517.37 Q1273.68 1517.37 1271.85 1520.93 Q1270.05 1524.47 1270.05 1531.6 Q1270.05 1538.71 1271.85 1542.27 Q1273.68 1545.82 1277.29 1545.82 Q1280.93 1545.82 1282.73 1542.27 Q1284.56 1538.71 1284.56 1531.6 Q1284.56 1524.47 1282.73 1520.93 Q1280.93 1517.37 1277.29 1517.37 M1277.29 1513.66 Q1283.1 1513.66 1286.16 1518.27 Q1289.24 1522.85 1289.24 1531.6 Q1289.24 1540.33 1286.16 1544.94 Q1283.1 1549.52 1277.29 1549.52 Q1271.48 1549.52 1268.4 1544.94 Q1265.35 1540.33 1265.35 1531.6 Q1265.35 1522.85 1268.4 1518.27 Q1271.48 1513.66 1277.29 1513.66 Z" fill="#000000" fill-rule="evenodd" fill-opacity="1" /><path clip-path="url(#clip890)" d="M1750.52 1517.37 Q1746.91 1517.37 1745.08 1520.93 Q1743.28 1524.47 1743.28 1531.6 Q1743.28 1538.71 1745.08 1542.27 Q1746.91 1545.82 1750.52 1545.82 Q1754.16 1545.82 1755.96 1542.27 Q1757.79 1538.71 1757.79 1531.6 Q1757.79 1524.47 1755.96 1520.93 Q1754.16 1517.37 1750.52 1517.37 M1750.52 1513.66 Q1756.33 1513.66 1759.39 1518.27 Q1762.47 1522.85 1762.47 1531.6 Q1762.47 1540.33 1759.39 1544.94 Q1756.33 1549.52 1750.52 1549.52 Q1744.71 1549.52 1741.63 1544.94 Q1738.58 1540.33 1738.58 1531.6 Q1738.58 1522.85 1741.63 1518.27 Q1744.71 1513.66 1750.52 1513.66 Z" fill="#000000" fill-rule="evenodd" fill-opacity="1" /><path clip-path="url(#clip890)" d="M1770.68 1542.97 L1775.57 1542.97 L1775.57 1548.85 L1770.68 1548.85 L1770.68 1542.97 Z" fill="#000000" fill-rule="evenodd" fill-opacity="1" /><path clip-path="url(#clip890)" d="M1785.8 1514.29 L1804.15 1514.29 L1804.15 1518.22 L1790.08 1518.22 L1790.08 1526.7 Q1791.1 1526.35 1792.12 1526.19 Q1793.14 1526 1794.15 1526 Q1799.94 1526 1803.32 1529.17 Q1806.7 1532.34 1806.7 1537.76 Q1806.7 1543.34 1803.23 1546.44 Q1799.76 1549.52 1793.44 1549.52 Q1791.26 1549.52 1788.99 1549.15 Q1786.75 1548.78 1784.34 1548.04 L1784.34 1543.34 Q1786.42 1544.47 1788.65 1545.03 Q1790.87 1545.58 1793.34 1545.58 Q1797.35 1545.58 1799.69 1543.48 Q1802.03 1541.37 1802.03 1537.76 Q1802.03 1534.15 1799.69 1532.04 Q1797.35 1529.94 1793.34 1529.94 Q1791.47 1529.94 1789.59 1530.35 Q1787.74 1530.77 1785.8 1531.65 L1785.8 1514.29 Z" fill="#000000" fill-rule="evenodd" fill-opacity="1" /><path clip-path="url(#clip890)" d="M2257.75 1544.91 L2265.39 1544.91 L2265.39 1518.55 L2257.08 1520.21 L2257.08 1515.95 L2265.35 1514.29 L2270.02 1514.29 L2270.02 1544.91 L2277.66 1544.91 L2277.66 1548.85 L2257.75 1548.85 L2257.75 1544.91 Z" fill="#000000" fill-rule="evenodd" fill-opacity="1" /><path clip-path="url(#clip890)" d="M2287.11 1542.97 L2291.99 1542.97 L2291.99 1548.85 L2287.11 1548.85 L2287.11 1542.97 Z" fill="#000000" fill-rule="evenodd" fill-opacity="1" /><path clip-path="url(#clip890)" d="M2312.17 1517.37 Q2308.56 1517.37 2306.73 1520.93 Q2304.93 1524.47 2304.93 1531.6 Q2304.93 1538.71 2306.73 1542.27 Q2308.56 1545.82 2312.17 1545.82 Q2315.81 1545.82 2317.61 1542.27 Q2319.44 1538.71 2319.44 1531.6 Q2319.44 1524.47 2317.61 1520.93 Q2315.81 1517.37 2312.17 1517.37 M2312.17 1513.66 Q2317.98 1513.66 2321.04 1518.27 Q2324.12 1522.85 2324.12 1531.6 Q2324.12 1540.33 2321.04 1544.94 Q2317.98 1549.52 2312.17 1549.52 Q2306.36 1549.52 2303.29 1544.94 Q2300.23 1540.33 2300.23 1531.6 Q2300.23 1522.85 2303.29 1518.27 Q2306.36 1513.66 2312.17 1513.66 Z" fill="#000000" fill-rule="evenodd" fill-opacity="1" /><polyline clip-path="url(#clip892)" style="stroke:#000000; stroke-linecap:butt; stroke-linejoin:round; stroke-width:2; stroke-opacity:0.1; fill:none" points="
  156.598,1209.12 2352.76,1209.12 
  "/>
<polyline clip-path="url(#clip892)" style="stroke:#000000; stroke-linecap:butt; stroke-linejoin:round; stroke-width:2; stroke-opacity:0.1; fill:none" points="
  156.598,928.837 2352.76,928.837 
  "/>
<polyline clip-path="url(#clip892)" style="stroke:#000000; stroke-linecap:butt; stroke-linejoin:round; stroke-width:2; stroke-opacity:0.1; fill:none" points="
  156.598,648.55 2352.76,648.55 
  "/>
<polyline clip-path="url(#clip892)" style="stroke:#000000; stroke-linecap:butt; stroke-linejoin:round; stroke-width:2; stroke-opacity:0.1; fill:none" points="
  156.598,368.263 2352.76,368.263 
  "/>
<polyline clip-path="url(#clip892)" style="stroke:#000000; stroke-linecap:butt; stroke-linejoin:round; stroke-width:2; stroke-opacity:0.1; fill:none" points="
  156.598,87.9763 2352.76,87.9763 
  "/>
<polyline clip-path="url(#clip890)" style="stroke:#000000; stroke-linecap:butt; stroke-linejoin:round; stroke-width:4; stroke-opacity:1; fill:none" points="
  156.598,1486.45 156.598,47.2441 
  "/>
<polyline clip-path="url(#clip890)" style="stroke:#000000; stroke-linecap:butt; stroke-linejoin:round; stroke-width:4; stroke-opacity:1; fill:none" points="
  156.598,1209.12 175.496,1209.12 
  "/>
<polyline clip-path="url(#clip890)" style="stroke:#000000; stroke-linecap:butt; stroke-linejoin:round; stroke-width:4; stroke-opacity:1; fill:none" points="
  156.598,928.837 175.496,928.837 
  "/>
<polyline clip-path="url(#clip890)" style="stroke:#000000; stroke-linecap:butt; stroke-linejoin:round; stroke-width:4; stroke-opacity:1; fill:none" points="
  156.598,648.55 175.496,648.55 
  "/>
<polyline clip-path="url(#clip890)" style="stroke:#000000; stroke-linecap:butt; stroke-linejoin:round; stroke-width:4; stroke-opacity:1; fill:none" points="
  156.598,368.263 175.496,368.263 
  "/>
<polyline clip-path="url(#clip890)" style="stroke:#000000; stroke-linecap:butt; stroke-linejoin:round; stroke-width:4; stroke-opacity:1; fill:none" points="
  156.598,87.9763 175.496,87.9763 
  "/>
<path clip-path="url(#clip890)" d="M65.0198 1194.92 Q61.4087 1194.92 59.58 1198.49 Q57.7745 1202.03 57.7745 1209.16 Q57.7745 1216.26 59.58 1219.83 Q61.4087 1223.37 65.0198 1223.37 Q68.6541 1223.37 70.4596 1219.83 Q72.2883 1216.26 72.2883 1209.16 Q72.2883 1202.03 70.4596 1198.49 Q68.6541 1194.92 65.0198 1194.92 M65.0198 1191.22 Q70.83 1191.22 73.8855 1195.83 Q76.9642 1200.41 76.9642 1209.16 Q76.9642 1217.89 73.8855 1222.49 Q70.83 1227.07 65.0198 1227.07 Q59.2097 1227.07 56.131 1222.49 Q53.0754 1217.89 53.0754 1209.16 Q53.0754 1200.41 56.131 1195.83 Q59.2097 1191.22 65.0198 1191.22 Z" fill="#000000" fill-rule="evenodd" fill-opacity="1" /><path clip-path="url(#clip890)" d="M85.1818 1220.52 L90.066 1220.52 L90.066 1226.4 L85.1818 1226.4 L85.1818 1220.52 Z" fill="#000000" fill-rule="evenodd" fill-opacity="1" /><path clip-path="url(#clip890)" d="M104.279 1222.47 L120.598 1222.47 L120.598 1226.4 L98.6539 1226.4 L98.6539 1222.47 Q101.316 1219.71 105.899 1215.08 Q110.506 1210.43 111.686 1209.09 Q113.932 1206.57 114.811 1204.83 Q115.714 1203.07 115.714 1201.38 Q115.714 1198.63 113.77 1196.89 Q111.848 1195.15 108.746 1195.15 Q106.547 1195.15 104.094 1195.92 Q101.663 1196.68 98.8854 1198.23 L98.8854 1193.51 Q101.709 1192.38 104.163 1191.8 Q106.617 1191.22 108.654 1191.22 Q114.024 1191.22 117.219 1193.9 Q120.413 1196.59 120.413 1201.08 Q120.413 1203.21 119.603 1205.13 Q118.816 1207.03 116.709 1209.62 Q116.131 1210.29 113.029 1213.51 Q109.927 1216.7 104.279 1222.47 Z" fill="#000000" fill-rule="evenodd" fill-opacity="1" /><path clip-path="url(#clip890)" d="M62.9365 914.635 Q59.3254 914.635 57.4967 918.2 Q55.6912 921.742 55.6912 928.872 Q55.6912 935.978 57.4967 939.543 Q59.3254 943.084 62.9365 943.084 Q66.5707 943.084 68.3763 939.543 Q70.205 935.978 70.205 928.872 Q70.205 921.742 68.3763 918.2 Q66.5707 914.635 62.9365 914.635 M62.9365 910.932 Q68.7467 910.932 71.8022 915.538 Q74.8809 920.122 74.8809 928.872 Q74.8809 937.598 71.8022 942.205 Q68.7467 946.788 62.9365 946.788 Q57.1264 946.788 54.0477 942.205 Q50.9921 937.598 50.9921 928.872 Q50.9921 920.122 54.0477 915.538 Q57.1264 910.932 62.9365 910.932 Z" fill="#000000" fill-rule="evenodd" fill-opacity="1" /><path clip-path="url(#clip890)" d="M83.0984 940.237 L87.9827 940.237 L87.9827 946.117 L83.0984 946.117 L83.0984 940.237 Z" fill="#000000" fill-rule="evenodd" fill-opacity="1" /><path clip-path="url(#clip890)" d="M111.015 915.631 L99.2095 934.08 L111.015 934.08 L111.015 915.631 M109.788 911.557 L115.668 911.557 L115.668 934.08 L120.598 934.08 L120.598 937.969 L115.668 937.969 L115.668 946.117 L111.015 946.117 L111.015 937.969 L95.4132 937.969 L95.4132 933.455 L109.788 911.557 Z" fill="#000000" fill-rule="evenodd" fill-opacity="1" /><path clip-path="url(#clip890)" d="M63.2606 634.349 Q59.6495 634.349 57.8208 637.913 Q56.0152 641.455 56.0152 648.585 Q56.0152 655.691 57.8208 659.256 Q59.6495 662.798 63.2606 662.798 Q66.8948 662.798 68.7004 659.256 Q70.5291 655.691 70.5291 648.585 Q70.5291 641.455 68.7004 637.913 Q66.8948 634.349 63.2606 634.349 M63.2606 630.645 Q69.0707 630.645 72.1263 635.251 Q75.205 639.835 75.205 648.585 Q75.205 657.311 72.1263 661.918 Q69.0707 666.501 63.2606 666.501 Q57.4504 666.501 54.3717 661.918 Q51.3162 657.311 51.3162 648.585 Q51.3162 639.835 54.3717 635.251 Q57.4504 630.645 63.2606 630.645 Z" fill="#000000" fill-rule="evenodd" fill-opacity="1" /><path clip-path="url(#clip890)" d="M83.4225 659.95 L88.3067 659.95 L88.3067 665.83 L83.4225 665.83 L83.4225 659.95 Z" fill="#000000" fill-rule="evenodd" fill-opacity="1" /><path clip-path="url(#clip890)" d="M109.071 646.687 Q105.922 646.687 104.071 648.839 Q102.242 650.992 102.242 654.742 Q102.242 658.469 104.071 660.645 Q105.922 662.798 109.071 662.798 Q112.219 662.798 114.047 660.645 Q115.899 658.469 115.899 654.742 Q115.899 650.992 114.047 648.839 Q112.219 646.687 109.071 646.687 M118.353 632.034 L118.353 636.293 Q116.594 635.46 114.788 635.02 Q113.006 634.58 111.246 634.58 Q106.617 634.58 104.163 637.705 Q101.733 640.83 101.385 647.149 Q102.751 645.136 104.811 644.071 Q106.871 642.983 109.348 642.983 Q114.557 642.983 117.566 646.154 Q120.598 649.302 120.598 654.742 Q120.598 660.066 117.45 663.284 Q114.302 666.501 109.071 666.501 Q103.075 666.501 99.9039 661.918 Q96.7326 657.311 96.7326 648.585 Q96.7326 640.39 100.621 635.529 Q104.51 630.645 111.061 630.645 Q112.82 630.645 114.603 630.992 Q116.408 631.339 118.353 632.034 Z" fill="#000000" fill-rule="evenodd" fill-opacity="1" /><path clip-path="url(#clip890)" d="M63.5152 354.062 Q59.9041 354.062 58.0754 357.627 Q56.2699 361.168 56.2699 368.298 Q56.2699 375.404 58.0754 378.969 Q59.9041 382.511 63.5152 382.511 Q67.1494 382.511 68.955 378.969 Q70.7837 375.404 70.7837 368.298 Q70.7837 361.168 68.955 357.627 Q67.1494 354.062 63.5152 354.062 M63.5152 350.358 Q69.3254 350.358 72.3809 354.965 Q75.4596 359.548 75.4596 368.298 Q75.4596 377.025 72.3809 381.631 Q69.3254 386.214 63.5152 386.214 Q57.7051 386.214 54.6264 381.631 Q51.5708 377.025 51.5708 368.298 Q51.5708 359.548 54.6264 354.965 Q57.7051 350.358 63.5152 350.358 Z" fill="#000000" fill-rule="evenodd" fill-opacity="1" /><path clip-path="url(#clip890)" d="M83.6771 379.664 L88.5614 379.664 L88.5614 385.543 L83.6771 385.543 L83.6771 379.664 Z" fill="#000000" fill-rule="evenodd" fill-opacity="1" /><path clip-path="url(#clip890)" d="M108.746 369.131 Q105.413 369.131 103.492 370.914 Q101.594 372.696 101.594 375.821 Q101.594 378.946 103.492 380.728 Q105.413 382.511 108.746 382.511 Q112.08 382.511 114.001 380.728 Q115.922 378.923 115.922 375.821 Q115.922 372.696 114.001 370.914 Q112.103 369.131 108.746 369.131 M104.071 367.14 Q101.061 366.4 99.3715 364.34 Q97.7048 362.279 97.7048 359.316 Q97.7048 355.173 100.645 352.766 Q103.608 350.358 108.746 350.358 Q113.908 350.358 116.848 352.766 Q119.788 355.173 119.788 359.316 Q119.788 362.279 118.098 364.34 Q116.432 366.4 113.445 367.14 Q116.825 367.927 118.7 370.219 Q120.598 372.511 120.598 375.821 Q120.598 380.844 117.52 383.529 Q114.464 386.214 108.746 386.214 Q103.029 386.214 99.9502 383.529 Q96.8947 380.844 96.8947 375.821 Q96.8947 372.511 98.7928 370.219 Q100.691 367.927 104.071 367.14 M102.358 359.756 Q102.358 362.441 104.024 363.946 Q105.714 365.451 108.746 365.451 Q111.756 365.451 113.445 363.946 Q115.158 362.441 115.158 359.756 Q115.158 357.071 113.445 355.566 Q111.756 354.062 108.746 354.062 Q105.714 354.062 104.024 355.566 Q102.358 357.071 102.358 359.756 Z" fill="#000000" fill-rule="evenodd" fill-opacity="1" /><path clip-path="url(#clip890)" d="M54.2328 101.321 L61.8717 101.321 L61.8717 74.9555 L53.5616 76.6222 L53.5616 72.3629 L61.8254 70.6963 L66.5013 70.6963 L66.5013 101.321 L74.1402 101.321 L74.1402 105.256 L54.2328 105.256 L54.2328 101.321 Z" fill="#000000" fill-rule="evenodd" fill-opacity="1" /><path clip-path="url(#clip890)" d="M83.5845 99.3767 L88.4688 99.3767 L88.4688 105.256 L83.5845 105.256 L83.5845 99.3767 Z" fill="#000000" fill-rule="evenodd" fill-opacity="1" /><path clip-path="url(#clip890)" d="M108.654 73.775 Q105.043 73.775 103.214 77.3398 Q101.409 80.8814 101.409 88.011 Q101.409 95.1174 103.214 98.6822 Q105.043 102.224 108.654 102.224 Q112.288 102.224 114.094 98.6822 Q115.922 95.1174 115.922 88.011 Q115.922 80.8814 114.094 77.3398 Q112.288 73.775 108.654 73.775 M108.654 70.0713 Q114.464 70.0713 117.52 74.6777 Q120.598 79.261 120.598 88.011 Q120.598 96.7378 117.52 101.344 Q114.464 105.928 108.654 105.928 Q102.844 105.928 99.765 101.344 Q96.7095 96.7378 96.7095 88.011 Q96.7095 79.261 99.765 74.6777 Q102.844 70.0713 108.654 70.0713 Z" fill="#000000" fill-rule="evenodd" fill-opacity="1" /><polyline clip-path="url(#clip892)" style="stroke:#009af9; stroke-linecap:butt; stroke-linejoin:round; stroke-width:4; stroke-opacity:1; fill:none" points="
  218.754,1435.51 219.79,1435.41 220.825,1435.3 221.861,1435.2 222.897,1435.09 223.933,1434.99 224.969,1434.88 226.005,1434.78 227.041,1434.67 228.077,1434.56 
  229.113,1434.46 230.149,1434.35 231.185,1434.24 232.221,1434.14 233.257,1434.03 234.292,1433.92 235.328,1433.81 236.364,1433.7 237.4,1433.59 238.436,1433.49 
  239.472,1433.38 240.508,1433.27 241.544,1433.16 242.58,1433.04 243.616,1432.93 244.652,1432.82 245.688,1432.71 246.724,1432.6 247.759,1432.49 248.795,1432.37 
  249.831,1432.26 250.867,1432.15 251.903,1432.03 252.939,1431.92 253.975,1431.81 255.011,1431.69 256.047,1431.58 257.083,1431.46 258.119,1431.35 259.155,1431.23 
  260.191,1431.11 261.227,1431 262.262,1430.88 263.298,1430.76 264.334,1430.65 265.37,1430.53 266.406,1430.41 267.442,1430.29 268.478,1430.17 269.514,1430.05 
  270.55,1429.93 271.586,1429.81 272.622,1429.69 273.658,1429.57 274.694,1429.45 275.729,1429.33 276.765,1429.21 277.801,1429.08 278.837,1428.96 279.873,1428.84 
  280.909,1428.72 281.945,1428.59 282.981,1428.47 284.017,1428.34 285.053,1428.22 286.089,1428.09 287.125,1427.97 288.161,1427.84 289.196,1427.72 290.232,1427.59 
  291.268,1427.46 292.304,1427.33 293.34,1427.21 294.376,1427.08 295.412,1426.95 296.448,1426.82 297.484,1426.69 298.52,1426.56 299.556,1426.43 300.592,1426.3 
  301.628,1426.17 302.663,1426.04 303.699,1425.91 304.735,1425.77 305.771,1425.64 306.807,1425.51 307.843,1425.37 308.879,1425.24 309.915,1425.11 310.951,1424.97 
  311.987,1424.84 313.023,1424.7 314.059,1424.56 315.095,1424.43 316.13,1424.29 317.166,1424.15 318.202,1424.02 319.238,1423.88 320.274,1423.74 321.31,1423.6 
  322.346,1423.46 323.382,1423.32 324.418,1423.18 325.454,1423.04 326.49,1422.9 327.526,1422.76 328.562,1422.61 329.597,1422.47 330.633,1422.33 331.669,1422.19 
  332.705,1422.04 333.741,1421.9 334.777,1421.75 335.813,1421.61 336.849,1421.46 337.885,1421.32 338.921,1421.17 339.957,1421.02 340.993,1420.87 342.029,1420.73 
  343.064,1420.58 344.1,1420.43 345.136,1420.28 346.172,1420.13 347.208,1419.98 348.244,1419.83 349.28,1419.68 350.316,1419.52 351.352,1419.37 352.388,1419.22 
  353.424,1419.07 354.46,1418.91 355.496,1418.76 356.531,1418.6 357.567,1418.45 358.603,1418.29 359.639,1418.14 360.675,1417.98 361.711,1417.82 362.747,1417.66 
  363.783,1417.51 364.819,1417.35 365.855,1417.19 366.891,1417.03 367.927,1416.87 368.963,1416.71 369.998,1416.54 371.034,1416.38 372.07,1416.22 373.106,1416.06 
  374.142,1415.89 375.178,1415.73 376.214,1415.56 377.25,1415.4 378.286,1415.23 379.322,1415.07 380.358,1414.9 381.394,1414.73 382.43,1414.56 383.465,1414.4 
  384.501,1414.23 385.537,1414.06 386.573,1413.89 387.609,1413.72 388.645,1413.54 389.681,1413.37 390.717,1413.2 391.753,1413.03 392.789,1412.85 393.825,1412.68 
  394.861,1412.5 395.897,1412.33 396.932,1412.15 397.968,1411.98 399.004,1411.8 400.04,1411.62 401.076,1411.44 402.112,1411.26 403.148,1411.08 404.184,1410.9 
  405.22,1410.72 406.256,1410.54 407.292,1410.36 408.328,1410.18 409.364,1409.99 410.399,1409.81 411.435,1409.62 412.471,1409.44 413.507,1409.25 414.543,1409.07 
  415.579,1408.88 416.615,1408.69 417.651,1408.5 418.687,1408.31 419.723,1408.13 420.759,1407.93 421.795,1407.74 422.831,1407.55 423.866,1407.36 424.902,1407.17 
  425.938,1406.97 426.974,1406.78 428.01,1406.58 429.046,1406.39 430.082,1406.19 431.118,1405.99 432.154,1405.8 433.19,1405.6 434.226,1405.4 435.262,1405.2 
  436.298,1405 437.333,1404.8 438.369,1404.6 439.405,1404.39 440.441,1404.19 441.477,1403.99 442.513,1403.78 443.549,1403.58 444.585,1403.37 445.621,1403.16 
  446.657,1402.96 447.693,1402.75 448.729,1402.54 449.765,1402.33 450.8,1402.12 451.836,1401.91 452.872,1401.69 453.908,1401.48 454.944,1401.27 455.98,1401.05 
  457.016,1400.84 458.052,1400.62 459.088,1400.41 460.124,1400.19 461.16,1399.97 462.196,1399.75 463.232,1399.53 464.267,1399.31 465.303,1399.09 466.339,1398.87 
  467.375,1398.64 468.411,1398.42 469.447,1398.2 470.483,1397.97 471.519,1397.74 472.555,1397.52 473.591,1397.29 474.627,1397.06 475.663,1396.83 476.699,1396.6 
  477.734,1396.37 478.77,1396.14 479.806,1395.9 480.842,1395.67 481.878,1395.44 482.914,1395.2 483.95,1394.96 484.986,1394.73 486.022,1394.49 487.058,1394.25 
  488.094,1394.01 489.13,1393.77 490.166,1393.53 491.202,1393.29 492.237,1393.04 493.273,1392.8 494.309,1392.55 495.345,1392.31 496.381,1392.06 497.417,1391.81 
  498.453,1391.56 499.489,1391.31 500.525,1391.06 501.561,1390.81 502.597,1390.56 503.633,1390.3 504.669,1390.05 505.704,1389.79 506.74,1389.54 507.776,1389.28 
  508.812,1389.02 509.848,1388.76 510.884,1388.5 511.92,1388.24 512.956,1387.98 513.992,1387.71 515.028,1387.45 516.064,1387.18 517.1,1386.92 518.136,1386.65 
  519.171,1386.38 520.207,1386.11 521.243,1385.84 522.279,1385.57 523.315,1385.3 524.351,1385.03 525.387,1384.75 526.423,1384.48 527.459,1384.2 528.495,1383.92 
  529.531,1383.64 530.567,1383.36 531.603,1383.08 532.638,1382.8 533.674,1382.52 534.71,1382.23 535.746,1381.95 536.782,1381.66 537.818,1381.37 538.854,1381.08 
  539.89,1380.79 540.926,1380.5 541.962,1380.21 542.998,1379.92 544.034,1379.62 545.07,1379.33 546.105,1379.03 547.141,1378.73 548.177,1378.43 549.213,1378.13 
  550.249,1377.83 551.285,1377.53 552.321,1377.22 553.357,1376.92 554.393,1376.61 555.429,1376.31 556.465,1376 557.501,1375.69 558.537,1375.38 559.572,1375.06 
  560.608,1374.75 561.644,1374.44 562.68,1374.12 563.716,1373.8 564.752,1373.48 565.788,1373.16 566.824,1372.84 567.86,1372.52 568.896,1372.2 569.932,1371.87 
  570.968,1371.54 572.004,1371.22 573.039,1370.89 574.075,1370.56 575.111,1370.22 576.147,1369.89 577.183,1369.56 578.219,1369.22 579.255,1368.88 580.291,1368.55 
  581.327,1368.21 582.363,1367.86 583.399,1367.52 584.435,1367.18 585.471,1366.83 586.506,1366.48 587.542,1366.14 588.578,1365.79 589.614,1365.43 590.65,1365.08 
  591.686,1364.73 592.722,1364.37 593.758,1364.01 594.794,1363.66 595.83,1363.3 596.866,1362.93 597.902,1362.57 598.938,1362.21 599.973,1361.84 601.009,1361.47 
  602.045,1361.1 603.081,1360.73 604.117,1360.36 605.153,1359.99 606.189,1359.61 607.225,1359.23 608.261,1358.86 609.297,1358.47 610.333,1358.09 611.369,1357.71 
  612.405,1357.32 613.44,1356.94 614.476,1356.55 615.512,1356.16 616.548,1355.77 617.584,1355.37 618.62,1354.98 619.656,1354.58 620.692,1354.18 621.728,1353.78 
  622.764,1353.38 623.8,1352.98 624.836,1352.57 625.872,1352.17 626.907,1351.76 627.943,1351.35 628.979,1350.93 630.015,1350.52 631.051,1350.1 632.087,1349.69 
  633.123,1349.27 634.159,1348.85 635.195,1348.42 636.231,1348 637.267,1347.57 638.303,1347.14 639.339,1346.71 640.374,1346.28 641.41,1345.84 642.446,1345.41 
  643.482,1344.97 644.518,1344.53 645.554,1344.09 646.59,1343.64 647.626,1343.2 648.662,1342.75 649.698,1342.3 650.734,1341.85 651.77,1341.39 652.806,1340.94 
  653.841,1340.48 654.877,1340.02 655.913,1339.56 656.949,1339.09 657.985,1338.63 659.021,1338.16 660.057,1337.69 661.093,1337.22 662.129,1336.74 663.165,1336.27 
  664.201,1335.79 665.237,1335.31 666.273,1334.82 667.308,1334.34 668.344,1333.85 669.38,1333.36 670.416,1332.87 671.452,1332.37 672.488,1331.88 673.524,1331.38 
  674.56,1330.88 675.596,1330.37 676.632,1329.87 677.668,1329.36 678.704,1328.85 679.74,1328.34 680.775,1327.82 681.811,1327.31 682.847,1326.79 683.883,1326.26 
  684.919,1325.74 685.955,1325.21 686.991,1324.68 688.027,1324.15 689.063,1323.62 690.099,1323.08 691.135,1322.54 692.171,1322 693.207,1321.46 694.242,1320.91 
  695.278,1320.36 696.314,1319.81 697.35,1319.25 698.386,1318.7 699.422,1318.14 700.458,1317.57 701.494,1317.01 702.53,1316.44 703.566,1315.87 704.602,1315.3 
  705.638,1314.72 706.674,1314.14 707.709,1313.56 708.745,1312.98 709.781,1312.39 710.817,1311.8 711.853,1311.21 712.889,1310.62 713.925,1310.02 714.961,1309.42 
  715.997,1308.81 717.033,1308.21 718.069,1307.6 719.105,1306.98 720.141,1306.37 721.177,1305.75 722.212,1305.13 723.248,1304.51 724.284,1303.88 725.32,1303.25 
  726.356,1302.61 727.392,1301.98 728.428,1301.34 729.464,1300.7 730.5,1300.05 731.536,1299.4 732.572,1298.75 733.608,1298.09 734.644,1297.44 735.679,1296.77 
  736.715,1296.11 737.751,1295.44 738.787,1294.77 739.823,1294.09 740.859,1293.42 741.895,1292.74 742.931,1292.05 743.967,1291.36 745.003,1290.67 746.039,1289.98 
  747.075,1289.28 748.111,1288.58 749.146,1287.87 750.182,1287.16 751.218,1286.45 752.254,1285.73 753.29,1285.01 754.326,1284.29 755.362,1283.56 756.398,1282.83 
  757.434,1282.1 758.47,1281.36 759.506,1280.62 760.542,1279.87 761.578,1279.12 762.613,1278.37 763.649,1277.61 764.685,1276.85 765.721,1276.09 766.757,1275.32 
  767.793,1274.55 768.829,1273.77 769.865,1272.99 770.901,1272.21 771.937,1271.42 772.973,1270.63 774.009,1269.83 775.045,1269.03 776.08,1268.23 777.116,1267.42 
  778.152,1266.61 779.188,1265.79 780.224,1264.97 781.26,1264.14 782.296,1263.31 783.332,1262.48 784.368,1261.64 785.404,1260.8 786.44,1259.95 787.476,1259.1 
  788.512,1258.25 789.547,1257.39 790.583,1256.52 791.619,1255.65 792.655,1254.78 793.691,1253.9 794.727,1253.02 795.763,1252.13 796.799,1251.24 797.835,1250.34 
  798.871,1249.44 799.907,1248.53 800.943,1247.62 801.979,1246.71 803.014,1245.78 804.05,1244.86 805.086,1243.93 806.122,1242.99 807.158,1242.05 808.194,1241.11 
  809.23,1240.16 810.266,1239.2 811.302,1238.24 812.338,1237.27 813.374,1236.3 814.41,1235.33 815.446,1234.34 816.481,1233.36 817.517,1232.37 818.553,1231.37 
  819.589,1230.37 820.625,1229.36 821.661,1228.34 822.697,1227.32 823.733,1226.3 824.769,1225.27 825.805,1224.23 826.841,1223.19 827.877,1222.14 828.913,1221.09 
  829.948,1220.03 830.984,1218.97 832.02,1217.9 833.056,1216.82 834.092,1215.74 835.128,1214.65 836.164,1213.56 837.2,1212.46 838.236,1211.35 839.272,1210.24 
  840.308,1209.12 841.344,1208 842.38,1206.87 843.415,1205.73 844.451,1204.59 845.487,1203.44 846.523,1202.28 847.559,1201.12 848.595,1199.95 849.631,1198.78 
  850.667,1197.6 851.703,1196.41 852.739,1195.21 853.775,1194.01 854.811,1192.8 855.847,1191.59 856.882,1190.37 857.918,1189.14 858.954,1187.9 859.99,1186.66 
  861.026,1185.41 862.062,1184.16 863.098,1182.89 864.134,1181.62 865.17,1180.34 866.206,1179.06 867.242,1177.77 868.278,1176.47 869.314,1175.16 870.349,1173.84 
  871.385,1172.52 872.421,1171.19 873.457,1169.86 874.493,1168.51 875.529,1167.16 876.565,1165.8 877.601,1164.43 878.637,1163.06 879.673,1161.67 880.709,1160.28 
  881.745,1158.88 882.781,1157.48 883.816,1156.06 884.852,1154.64 885.888,1153.21 886.924,1151.77 887.96,1150.32 888.996,1148.86 890.032,1147.4 891.068,1145.92 
  892.104,1144.44 893.14,1142.95 894.176,1141.45 895.212,1139.95 896.248,1138.43 897.283,1136.9 898.319,1135.37 899.355,1133.83 900.391,1132.28 901.427,1130.71 
  902.463,1129.14 903.499,1127.57 904.535,1125.98 905.571,1124.38 906.607,1122.77 907.643,1121.16 908.679,1119.53 909.715,1117.9 910.75,1116.25 911.786,1114.6 
  912.822,1112.93 913.858,1111.26 914.894,1109.58 915.93,1107.88 916.966,1106.18 918.002,1104.47 919.038,1102.74 920.074,1101.01 921.11,1099.27 922.146,1097.51 
  923.182,1095.75 924.217,1093.97 925.253,1092.19 926.289,1090.39 927.325,1088.59 928.361,1086.77 929.397,1084.94 930.433,1083.11 931.469,1081.26 932.505,1079.4 
  933.541,1077.53 934.577,1075.64 935.613,1073.75 936.649,1071.85 937.685,1069.93 938.72,1068.01 939.756,1066.07 940.792,1064.12 941.828,1062.16 942.864,1060.18 
  943.9,1058.2 944.936,1056.2 945.972,1054.2 947.008,1052.18 948.044,1050.14 949.08,1048.1 950.116,1046.04 951.152,1043.98 952.187,1041.9 953.223,1039.8 
  954.259,1037.7 955.295,1035.58 956.331,1033.45 957.367,1031.31 958.403,1029.15 959.439,1026.99 960.475,1024.81 961.511,1022.61 962.547,1020.41 963.583,1018.19 
  964.619,1015.95 965.654,1013.71 966.69,1011.45 967.726,1009.18 968.762,1006.89 969.798,1004.59 970.834,1002.28 971.87,999.95 972.906,997.61 973.942,995.256 
  974.978,992.888 976.014,990.506 977.05,988.11 978.086,985.701 979.121,983.277 980.157,980.838 981.193,978.386 982.229,975.919 983.265,973.437 984.301,970.942 
  985.337,968.431 986.373,965.906 987.409,963.366 988.445,960.812 989.481,958.242 990.517,955.658 991.553,953.058 992.588,950.444 993.624,947.814 994.66,945.169 
  995.696,942.509 996.732,939.834 997.768,937.143 998.804,934.436 999.84,931.714 1000.88,928.977 1001.91,926.224 1002.95,923.455 1003.98,920.67 1005.02,917.869 
  1006.06,915.052 1007.09,912.219 1008.13,909.371 1009.16,906.506 1010.2,903.625 1011.24,900.727 1012.27,897.813 1013.31,894.883 1014.34,891.937 1015.38,888.974 
  1016.41,885.994 1017.45,882.998 1018.49,879.985 1019.52,876.956 1020.56,873.909 1021.59,870.846 1022.63,867.766 1023.67,864.67 1024.7,861.556 1025.74,858.425 
  1026.77,855.277 1027.81,852.112 1028.85,848.931 1029.88,845.731 1030.92,842.515 1031.95,839.282 1032.99,836.031 1034.03,832.763 1035.06,829.477 1036.1,826.174 
  1037.13,822.854 1038.17,819.517 1039.2,816.162 1040.24,812.79 1041.28,809.4 1042.31,805.992 1043.35,802.568 1044.38,799.125 1045.42,795.666 1046.46,792.188 
  1047.49,788.693 1048.53,785.181 1049.56,781.651 1050.6,778.104 1051.64,774.539 1052.67,770.957 1053.71,767.357 1054.74,763.739 1055.78,760.105 1056.82,756.452 
  1057.85,752.783 1058.89,749.096 1059.92,745.391 1060.96,741.67 1062,737.931 1063.03,734.175 1064.07,730.401 1065.1,726.611 1066.14,722.803 1067.17,718.979 
  1068.21,715.137 1069.25,711.279 1070.28,707.404 1071.32,703.512 1072.35,699.603 1073.39,695.678 1074.43,691.736 1075.46,687.778 1076.5,683.803 1077.53,679.813 
  1078.57,675.806 1079.61,671.783 1080.64,667.744 1081.68,663.69 1082.71,659.619 1083.75,655.534 1084.79,651.433 1085.82,647.316 1086.86,643.185 1087.89,639.039 
  1088.93,634.877 1089.97,630.702 1091,626.512 1092.04,622.307 1093.07,618.089 1094.11,613.856 1095.14,609.61 1096.18,605.35 1097.22,601.077 1098.25,596.791 
  1099.29,592.493 1100.32,588.181 1101.36,583.857 1102.4,579.521 1103.43,575.173 1104.47,570.814 1105.5,566.443 1106.54,562.061 1107.58,557.668 1108.61,553.264 
  1109.65,548.851 1110.68,544.427 1111.72,539.994 1112.76,535.551 1113.79,531.099 1114.83,526.639 1115.86,522.17 1116.9,517.694 1117.94,513.209 1118.97,508.718 
  1120.01,504.219 1121.04,499.715 1122.08,495.203 1123.11,490.687 1124.15,486.165 1125.19,481.638 1126.22,477.106 1127.26,472.571 1128.29,468.031 1129.33,463.489 
  1130.37,458.944 1131.4,454.397 1132.44,449.848 1133.47,445.298 1134.51,440.747 1135.55,436.195 1136.58,431.644 1137.62,427.094 1138.65,422.545 1139.69,417.998 
  1140.73,413.453 1141.76,408.911 1142.8,404.373 1143.83,399.839 1144.87,395.309 1145.91,390.785 1146.94,386.266 1147.98,381.754 1149.01,377.249 1150.05,372.752 
  1151.08,368.263 1152.12,363.783 1153.16,359.313 1154.19,354.853 1155.23,350.403 1156.26,345.966 1157.3,341.541 1158.34,337.128 1159.37,332.73 1160.41,328.346 
  1161.44,323.977 1162.48,319.623 1163.52,315.287 1164.55,310.967 1165.59,306.666 1166.62,302.383 1167.66,298.12 1168.7,293.877 1169.73,289.655 1170.77,285.455 
  1171.8,281.278 1172.84,277.123 1173.88,272.993 1174.91,268.888 1175.95,264.809 1176.98,260.756 1178.02,256.73 1179.05,252.733 1180.09,248.764 1181.13,244.825 
  1182.16,240.917 1183.2,237.04 1184.23,233.195 1185.27,229.383 1186.31,225.605 1187.34,221.861 1188.38,218.153 1189.41,214.481 1190.45,210.846 1191.49,207.249 
  1192.52,203.691 1193.56,200.172 1194.59,196.694 1195.63,193.256 1196.67,189.861 1197.7,186.508 1198.74,183.199 1199.77,179.934 1200.81,176.715 1201.84,173.541 
  1202.88,170.414 1203.92,167.334 1204.95,164.302 1205.99,161.32 1207.02,158.387 1208.06,155.505 1209.1,152.674 1210.13,149.895 1211.17,147.169 1212.2,144.496 
  1213.24,141.878 1214.28,139.314 1215.31,136.805 1216.35,134.353 1217.38,131.958 1218.42,129.62 1219.46,127.34 1220.49,125.119 1221.53,122.957 1222.56,120.856 
  1223.6,118.815 1224.64,116.835 1225.67,114.916 1226.71,113.06 1227.74,111.267 1228.78,109.537 1229.81,107.87 1230.85,106.268 1231.89,104.731 1232.92,103.259 
  1233.96,101.852 1234.99,100.511 1236.03,99.2367 1237.07,98.029 1238.1,96.8884 1239.14,95.8152 1240.17,94.8098 1241.21,93.8724 1242.25,93.0033 1243.28,92.2028 
  1244.32,91.4711 1245.35,90.8084 1246.39,90.215 1247.43,89.6909 1248.46,89.2364 1249.5,88.8516 1250.53,88.5366 1251.57,88.2915 1252.61,88.1164 1253.64,88.0113 
  1254.68,87.9763 1255.71,88.0113 1256.75,88.1164 1257.78,88.2915 1258.82,88.5366 1259.86,88.8516 1260.89,89.2364 1261.93,89.6909 1262.96,90.215 1264,90.8084 
  1265.04,91.4711 1266.07,92.2028 1267.11,93.0033 1268.14,93.8724 1269.18,94.8098 1270.22,95.8152 1271.25,96.8884 1272.29,98.029 1273.32,99.2367 1274.36,100.511 
  1275.4,101.852 1276.43,103.259 1277.47,104.731 1278.5,106.268 1279.54,107.87 1280.58,109.537 1281.61,111.267 1282.65,113.06 1283.68,114.916 1284.72,116.835 
  1285.75,118.815 1286.79,120.856 1287.83,122.957 1288.86,125.119 1289.9,127.34 1290.93,129.62 1291.97,131.958 1293.01,134.353 1294.04,136.805 1295.08,139.314 
  1296.11,141.878 1297.15,144.496 1298.19,147.169 1299.22,149.895 1300.26,152.674 1301.29,155.505 1302.33,158.387 1303.37,161.32 1304.4,164.302 1305.44,167.334 
  1306.47,170.414 1307.51,173.541 1308.55,176.715 1309.58,179.934 1310.62,183.199 1311.65,186.508 1312.69,189.861 1313.72,193.256 1314.76,196.694 1315.8,200.172 
  1316.83,203.691 1317.87,207.249 1318.9,210.846 1319.94,214.481 1320.98,218.153 1322.01,221.861 1323.05,225.605 1324.08,229.383 1325.12,233.195 1326.16,237.04 
  1327.19,240.917 1328.23,244.825 1329.26,248.764 1330.3,252.733 1331.34,256.73 1332.37,260.756 1333.41,264.809 1334.44,268.888 1335.48,272.993 1336.52,277.123 
  1337.55,281.278 1338.59,285.455 1339.62,289.655 1340.66,293.877 1341.69,298.12 1342.73,302.383 1343.77,306.666 1344.8,310.967 1345.84,315.287 1346.87,319.623 
  1347.91,323.977 1348.95,328.346 1349.98,332.73 1351.02,337.128 1352.05,341.541 1353.09,345.966 1354.13,350.403 1355.16,354.853 1356.2,359.313 1357.23,363.783 
  1358.27,368.263 1359.31,372.752 1360.34,377.249 1361.38,381.754 1362.41,386.266 1363.45,390.785 1364.48,395.309 1365.52,399.839 1366.56,404.373 1367.59,408.911 
  1368.63,413.453 1369.66,417.998 1370.7,422.545 1371.74,427.094 1372.77,431.644 1373.81,436.195 1374.84,440.747 1375.88,445.298 1376.92,449.848 1377.95,454.397 
  1378.99,458.944 1380.02,463.489 1381.06,468.031 1382.1,472.571 1383.13,477.106 1384.17,481.638 1385.2,486.165 1386.24,490.687 1387.28,495.203 1388.31,499.715 
  1389.35,504.219 1390.38,508.718 1391.42,513.209 1392.45,517.694 1393.49,522.17 1394.53,526.639 1395.56,531.099 1396.6,535.551 1397.63,539.994 1398.67,544.427 
  1399.71,548.851 1400.74,553.264 1401.78,557.668 1402.81,562.061 1403.85,566.443 1404.89,570.814 1405.92,575.173 1406.96,579.521 1407.99,583.857 1409.03,588.181 
  1410.07,592.493 1411.1,596.791 1412.14,601.077 1413.17,605.35 1414.21,609.61 1415.25,613.856 1416.28,618.089 1417.32,622.307 1418.35,626.512 1419.39,630.702 
  1420.42,634.877 1421.46,639.039 1422.5,643.185 1423.53,647.316 1424.57,651.433 1425.6,655.534 1426.64,659.619 1427.68,663.69 1428.71,667.744 1429.75,671.783 
  1430.78,675.806 1431.82,679.813 1432.86,683.803 1433.89,687.778 1434.93,691.736 1435.96,695.678 1437,699.603 1438.04,703.512 1439.07,707.404 1440.11,711.279 
  1441.14,715.137 1442.18,718.979 1443.22,722.803 1444.25,726.611 1445.29,730.401 1446.32,734.175 1447.36,737.931 1448.39,741.67 1449.43,745.391 1450.47,749.096 
  1451.5,752.783 1452.54,756.452 1453.57,760.105 1454.61,763.739 1455.65,767.357 1456.68,770.957 1457.72,774.539 1458.75,778.104 1459.79,781.651 1460.83,785.181 
  1461.86,788.693 1462.9,792.188 1463.93,795.666 1464.97,799.125 1466.01,802.568 1467.04,805.992 1468.08,809.4 1469.11,812.79 1470.15,816.162 1471.19,819.517 
  1472.22,822.854 1473.26,826.174 1474.29,829.477 1475.33,832.763 1476.36,836.031 1477.4,839.282 1478.44,842.515 1479.47,845.731 1480.51,848.931 1481.54,852.112 
  1482.58,855.277 1483.62,858.425 1484.65,861.556 1485.69,864.67 1486.72,867.766 1487.76,870.846 1488.8,873.909 1489.83,876.956 1490.87,879.985 1491.9,882.998 
  1492.94,885.994 1493.98,888.974 1495.01,891.937 1496.05,894.883 1497.08,897.813 1498.12,900.727 1499.15,903.625 1500.19,906.506 1501.23,909.371 1502.26,912.219 
  1503.3,915.052 1504.33,917.869 1505.37,920.67 1506.41,923.455 1507.44,926.224 1508.48,928.977 1509.51,931.714 1510.55,934.436 1511.59,937.143 1512.62,939.834 
  1513.66,942.509 1514.69,945.169 1515.73,947.814 1516.77,950.444 1517.8,953.058 1518.84,955.658 1519.87,958.242 1520.91,960.812 1521.95,963.366 1522.98,965.906 
  1524.02,968.431 1525.05,970.942 1526.09,973.437 1527.12,975.919 1528.16,978.386 1529.2,980.838 1530.23,983.277 1531.27,985.701 1532.3,988.11 1533.34,990.506 
  1534.38,992.888 1535.41,995.256 1536.45,997.61 1537.48,999.95 1538.52,1002.28 1539.56,1004.59 1540.59,1006.89 1541.63,1009.18 1542.66,1011.45 1543.7,1013.71 
  1544.74,1015.95 1545.77,1018.19 1546.81,1020.41 1547.84,1022.61 1548.88,1024.81 1549.92,1026.99 1550.95,1029.15 1551.99,1031.31 1553.02,1033.45 1554.06,1035.58 
  1555.09,1037.7 1556.13,1039.8 1557.17,1041.9 1558.2,1043.98 1559.24,1046.04 1560.27,1048.1 1561.31,1050.14 1562.35,1052.18 1563.38,1054.2 1564.42,1056.2 
  1565.45,1058.2 1566.49,1060.18 1567.53,1062.16 1568.56,1064.12 1569.6,1066.07 1570.63,1068.01 1571.67,1069.93 1572.71,1071.85 1573.74,1073.75 1574.78,1075.64 
  1575.81,1077.53 1576.85,1079.4 1577.89,1081.26 1578.92,1083.11 1579.96,1084.94 1580.99,1086.77 1582.03,1088.59 1583.06,1090.39 1584.1,1092.19 1585.14,1093.97 
  1586.17,1095.75 1587.21,1097.51 1588.24,1099.27 1589.28,1101.01 1590.32,1102.74 1591.35,1104.47 1592.39,1106.18 1593.42,1107.88 1594.46,1109.58 1595.5,1111.26 
  1596.53,1112.93 1597.57,1114.6 1598.6,1116.25 1599.64,1117.9 1600.68,1119.53 1601.71,1121.16 1602.75,1122.77 1603.78,1124.38 1604.82,1125.98 1605.86,1127.57 
  1606.89,1129.14 1607.93,1130.71 1608.96,1132.28 1610,1133.83 1611.03,1135.37 1612.07,1136.9 1613.11,1138.43 1614.14,1139.95 1615.18,1141.45 1616.21,1142.95 
  1617.25,1144.44 1618.29,1145.92 1619.32,1147.4 1620.36,1148.86 1621.39,1150.32 1622.43,1151.77 1623.47,1153.21 1624.5,1154.64 1625.54,1156.06 1626.57,1157.48 
  1627.61,1158.88 1628.65,1160.28 1629.68,1161.67 1630.72,1163.06 1631.75,1164.43 1632.79,1165.8 1633.83,1167.16 1634.86,1168.51 1635.9,1169.86 1636.93,1171.19 
  1637.97,1172.52 1639,1173.84 1640.04,1175.16 1641.08,1176.47 1642.11,1177.77 1643.15,1179.06 1644.18,1180.34 1645.22,1181.62 1646.26,1182.89 1647.29,1184.16 
  1648.33,1185.41 1649.36,1186.66 1650.4,1187.9 1651.44,1189.14 1652.47,1190.37 1653.51,1191.59 1654.54,1192.8 1655.58,1194.01 1656.62,1195.21 1657.65,1196.41 
  1658.69,1197.6 1659.72,1198.78 1660.76,1199.95 1661.79,1201.12 1662.83,1202.28 1663.87,1203.44 1664.9,1204.59 1665.94,1205.73 1666.97,1206.87 1668.01,1208 
  1669.05,1209.12 1670.08,1210.24 1671.12,1211.35 1672.15,1212.46 1673.19,1213.56 1674.23,1214.65 1675.26,1215.74 1676.3,1216.82 1677.33,1217.9 1678.37,1218.97 
  1679.41,1220.03 1680.44,1221.09 1681.48,1222.14 1682.51,1223.19 1683.55,1224.23 1684.59,1225.27 1685.62,1226.3 1686.66,1227.32 1687.69,1228.34 1688.73,1229.36 
  1689.76,1230.37 1690.8,1231.37 1691.84,1232.37 1692.87,1233.36 1693.91,1234.34 1694.94,1235.33 1695.98,1236.3 1697.02,1237.27 1698.05,1238.24 1699.09,1239.2 
  1700.12,1240.16 1701.16,1241.11 1702.2,1242.05 1703.23,1242.99 1704.27,1243.93 1705.3,1244.86 1706.34,1245.78 1707.38,1246.71 1708.41,1247.62 1709.45,1248.53 
  1710.48,1249.44 1711.52,1250.34 1712.56,1251.24 1713.59,1252.13 1714.63,1253.02 1715.66,1253.9 1716.7,1254.78 1717.73,1255.65 1718.77,1256.52 1719.81,1257.39 
  1720.84,1258.25 1721.88,1259.1 1722.91,1259.95 1723.95,1260.8 1724.99,1261.64 1726.02,1262.48 1727.06,1263.31 1728.09,1264.14 1729.13,1264.97 1730.17,1265.79 
  1731.2,1266.61 1732.24,1267.42 1733.27,1268.23 1734.31,1269.03 1735.35,1269.83 1736.38,1270.63 1737.42,1271.42 1738.45,1272.21 1739.49,1272.99 1740.53,1273.77 
  1741.56,1274.55 1742.6,1275.32 1743.63,1276.09 1744.67,1276.85 1745.7,1277.61 1746.74,1278.37 1747.78,1279.12 1748.81,1279.87 1749.85,1280.62 1750.88,1281.36 
  1751.92,1282.1 1752.96,1282.83 1753.99,1283.56 1755.03,1284.29 1756.06,1285.01 1757.1,1285.73 1758.14,1286.45 1759.17,1287.16 1760.21,1287.87 1761.24,1288.58 
  1762.28,1289.28 1763.32,1289.98 1764.35,1290.67 1765.39,1291.36 1766.42,1292.05 1767.46,1292.74 1768.5,1293.42 1769.53,1294.09 1770.57,1294.77 1771.6,1295.44 
  1772.64,1296.11 1773.67,1296.77 1774.71,1297.44 1775.75,1298.09 1776.78,1298.75 1777.82,1299.4 1778.85,1300.05 1779.89,1300.7 1780.93,1301.34 1781.96,1301.98 
  1783,1302.61 1784.03,1303.25 1785.07,1303.88 1786.11,1304.51 1787.14,1305.13 1788.18,1305.75 1789.21,1306.37 1790.25,1306.98 1791.29,1307.6 1792.32,1308.21 
  1793.36,1308.81 1794.39,1309.42 1795.43,1310.02 1796.47,1310.62 1797.5,1311.21 1798.54,1311.8 1799.57,1312.39 1800.61,1312.98 1801.64,1313.56 1802.68,1314.14 
  1803.72,1314.72 1804.75,1315.3 1805.79,1315.87 1806.82,1316.44 1807.86,1317.01 1808.9,1317.57 1809.93,1318.14 1810.97,1318.7 1812,1319.25 1813.04,1319.81 
  1814.08,1320.36 1815.11,1320.91 1816.15,1321.46 1817.18,1322 1818.22,1322.54 1819.26,1323.08 1820.29,1323.62 1821.33,1324.15 1822.36,1324.68 1823.4,1325.21 
  1824.43,1325.74 1825.47,1326.26 1826.51,1326.79 1827.54,1327.31 1828.58,1327.82 1829.61,1328.34 1830.65,1328.85 1831.69,1329.36 1832.72,1329.87 1833.76,1330.37 
  1834.79,1330.88 1835.83,1331.38 1836.87,1331.88 1837.9,1332.37 1838.94,1332.87 1839.97,1333.36 1841.01,1333.85 1842.05,1334.34 1843.08,1334.82 1844.12,1335.31 
  1845.15,1335.79 1846.19,1336.27 1847.23,1336.74 1848.26,1337.22 1849.3,1337.69 1850.33,1338.16 1851.37,1338.63 1852.4,1339.09 1853.44,1339.56 1854.48,1340.02 
  1855.51,1340.48 1856.55,1340.94 1857.58,1341.39 1858.62,1341.85 1859.66,1342.3 1860.69,1342.75 1861.73,1343.2 1862.76,1343.64 1863.8,1344.09 1864.84,1344.53 
  1865.87,1344.97 1866.91,1345.41 1867.94,1345.84 1868.98,1346.28 1870.02,1346.71 1871.05,1347.14 1872.09,1347.57 1873.12,1348 1874.16,1348.42 1875.2,1348.85 
  1876.23,1349.27 1877.27,1349.69 1878.3,1350.1 1879.34,1350.52 1880.37,1350.93 1881.41,1351.35 1882.45,1351.76 1883.48,1352.17 1884.52,1352.57 1885.55,1352.98 
  1886.59,1353.38 1887.63,1353.78 1888.66,1354.18 1889.7,1354.58 1890.73,1354.98 1891.77,1355.37 1892.81,1355.77 1893.84,1356.16 1894.88,1356.55 1895.91,1356.94 
  1896.95,1357.32 1897.99,1357.71 1899.02,1358.09 1900.06,1358.47 1901.09,1358.86 1902.13,1359.23 1903.17,1359.61 1904.2,1359.99 1905.24,1360.36 1906.27,1360.73 
  1907.31,1361.1 1908.34,1361.47 1909.38,1361.84 1910.42,1362.21 1911.45,1362.57 1912.49,1362.93 1913.52,1363.3 1914.56,1363.66 1915.6,1364.01 1916.63,1364.37 
  1917.67,1364.73 1918.7,1365.08 1919.74,1365.43 1920.78,1365.79 1921.81,1366.14 1922.85,1366.48 1923.88,1366.83 1924.92,1367.18 1925.96,1367.52 1926.99,1367.86 
  1928.03,1368.21 1929.06,1368.55 1930.1,1368.88 1931.14,1369.22 1932.17,1369.56 1933.21,1369.89 1934.24,1370.22 1935.28,1370.56 1936.31,1370.89 1937.35,1371.22 
  1938.39,1371.54 1939.42,1371.87 1940.46,1372.2 1941.49,1372.52 1942.53,1372.84 1943.57,1373.16 1944.6,1373.48 1945.64,1373.8 1946.67,1374.12 1947.71,1374.44 
  1948.75,1374.75 1949.78,1375.06 1950.82,1375.38 1951.85,1375.69 1952.89,1376 1953.93,1376.31 1954.96,1376.61 1956,1376.92 1957.03,1377.22 1958.07,1377.53 
  1959.11,1377.83 1960.14,1378.13 1961.18,1378.43 1962.21,1378.73 1963.25,1379.03 1964.28,1379.33 1965.32,1379.62 1966.36,1379.92 1967.39,1380.21 1968.43,1380.5 
  1969.46,1380.79 1970.5,1381.08 1971.54,1381.37 1972.57,1381.66 1973.61,1381.95 1974.64,1382.23 1975.68,1382.52 1976.72,1382.8 1977.75,1383.08 1978.79,1383.36 
  1979.82,1383.64 1980.86,1383.92 1981.9,1384.2 1982.93,1384.48 1983.97,1384.75 1985,1385.03 1986.04,1385.3 1987.07,1385.57 1988.11,1385.84 1989.15,1386.11 
  1990.18,1386.38 1991.22,1386.65 1992.25,1386.92 1993.29,1387.18 1994.33,1387.45 1995.36,1387.71 1996.4,1387.98 1997.43,1388.24 1998.47,1388.5 1999.51,1388.76 
  2000.54,1389.02 2001.58,1389.28 2002.61,1389.54 2003.65,1389.79 2004.69,1390.05 2005.72,1390.3 2006.76,1390.56 2007.79,1390.81 2008.83,1391.06 2009.87,1391.31 
  2010.9,1391.56 2011.94,1391.81 2012.97,1392.06 2014.01,1392.31 2015.04,1392.55 2016.08,1392.8 2017.12,1393.04 2018.15,1393.29 2019.19,1393.53 2020.22,1393.77 
  2021.26,1394.01 2022.3,1394.25 2023.33,1394.49 2024.37,1394.73 2025.4,1394.96 2026.44,1395.2 2027.48,1395.44 2028.51,1395.67 2029.55,1395.9 2030.58,1396.14 
  2031.62,1396.37 2032.66,1396.6 2033.69,1396.83 2034.73,1397.06 2035.76,1397.29 2036.8,1397.52 2037.84,1397.74 2038.87,1397.97 2039.91,1398.2 2040.94,1398.42 
  2041.98,1398.64 2043.01,1398.87 2044.05,1399.09 2045.09,1399.31 2046.12,1399.53 2047.16,1399.75 2048.19,1399.97 2049.23,1400.19 2050.27,1400.41 2051.3,1400.62 
  2052.34,1400.84 2053.37,1401.05 2054.41,1401.27 2055.45,1401.48 2056.48,1401.69 2057.52,1401.91 2058.55,1402.12 2059.59,1402.33 2060.63,1402.54 2061.66,1402.75 
  2062.7,1402.96 2063.73,1403.16 2064.77,1403.37 2065.81,1403.58 2066.84,1403.78 2067.88,1403.99 2068.91,1404.19 2069.95,1404.39 2070.98,1404.6 2072.02,1404.8 
  2073.06,1405 2074.09,1405.2 2075.13,1405.4 2076.16,1405.6 2077.2,1405.8 2078.24,1405.99 2079.27,1406.19 2080.31,1406.39 2081.34,1406.58 2082.38,1406.78 
  2083.42,1406.97 2084.45,1407.17 2085.49,1407.36 2086.52,1407.55 2087.56,1407.74 2088.6,1407.93 2089.63,1408.13 2090.67,1408.31 2091.7,1408.5 2092.74,1408.69 
  2093.78,1408.88 2094.81,1409.07 2095.85,1409.25 2096.88,1409.44 2097.92,1409.62 2098.95,1409.81 2099.99,1409.99 2101.03,1410.18 2102.06,1410.36 2103.1,1410.54 
  2104.13,1410.72 2105.17,1410.9 2106.21,1411.08 2107.24,1411.26 2108.28,1411.44 2109.31,1411.62 2110.35,1411.8 2111.39,1411.98 2112.42,1412.15 2113.46,1412.33 
  2114.49,1412.5 2115.53,1412.68 2116.57,1412.85 2117.6,1413.03 2118.64,1413.2 2119.67,1413.37 2120.71,1413.54 2121.74,1413.72 2122.78,1413.89 2123.82,1414.06 
  2124.85,1414.23 2125.89,1414.4 2126.92,1414.56 2127.96,1414.73 2129,1414.9 2130.03,1415.07 2131.07,1415.23 2132.1,1415.4 2133.14,1415.56 2134.18,1415.73 
  2135.21,1415.89 2136.25,1416.06 2137.28,1416.22 2138.32,1416.38 2139.36,1416.54 2140.39,1416.71 2141.43,1416.87 2142.46,1417.03 2143.5,1417.19 2144.54,1417.35 
  2145.57,1417.51 2146.61,1417.66 2147.64,1417.82 2148.68,1417.98 2149.71,1418.14 2150.75,1418.29 2151.79,1418.45 2152.82,1418.6 2153.86,1418.76 2154.89,1418.91 
  2155.93,1419.07 2156.97,1419.22 2158,1419.37 2159.04,1419.52 2160.07,1419.68 2161.11,1419.83 2162.15,1419.98 2163.18,1420.13 2164.22,1420.28 2165.25,1420.43 
  2166.29,1420.58 2167.33,1420.73 2168.36,1420.87 2169.4,1421.02 2170.43,1421.17 2171.47,1421.32 2172.51,1421.46 2173.54,1421.61 2174.58,1421.75 2175.61,1421.9 
  2176.65,1422.04 2177.68,1422.19 2178.72,1422.33 2179.76,1422.47 2180.79,1422.61 2181.83,1422.76 2182.86,1422.9 2183.9,1423.04 2184.94,1423.18 2185.97,1423.32 
  2187.01,1423.46 2188.04,1423.6 2189.08,1423.74 2190.12,1423.88 2191.15,1424.02 2192.19,1424.15 2193.22,1424.29 2194.26,1424.43 2195.3,1424.56 2196.33,1424.7 
  2197.37,1424.84 2198.4,1424.97 2199.44,1425.11 2200.48,1425.24 2201.51,1425.37 2202.55,1425.51 2203.58,1425.64 2204.62,1425.77 2205.65,1425.91 2206.69,1426.04 
  2207.73,1426.17 2208.76,1426.3 2209.8,1426.43 2210.83,1426.56 2211.87,1426.69 2212.91,1426.82 2213.94,1426.95 2214.98,1427.08 2216.01,1427.21 2217.05,1427.33 
  2218.09,1427.46 2219.12,1427.59 2220.16,1427.72 2221.19,1427.84 2222.23,1427.97 2223.27,1428.09 2224.3,1428.22 2225.34,1428.34 2226.37,1428.47 2227.41,1428.59 
  2228.45,1428.72 2229.48,1428.84 2230.52,1428.96 2231.55,1429.08 2232.59,1429.21 2233.62,1429.33 2234.66,1429.45 2235.7,1429.57 2236.73,1429.69 2237.77,1429.81 
  2238.8,1429.93 2239.84,1430.05 2240.88,1430.17 2241.91,1430.29 2242.95,1430.41 2243.98,1430.53 2245.02,1430.65 2246.06,1430.76 2247.09,1430.88 2248.13,1431 
  2249.16,1431.11 2250.2,1431.23 2251.24,1431.35 2252.27,1431.46 2253.31,1431.58 2254.34,1431.69 2255.38,1431.81 2256.42,1431.92 2257.45,1432.03 2258.49,1432.15 
  2259.52,1432.26 2260.56,1432.37 2261.59,1432.49 2262.63,1432.6 2263.67,1432.71 2264.7,1432.82 2265.74,1432.93 2266.77,1433.04 2267.81,1433.16 2268.85,1433.27 
  2269.88,1433.38 2270.92,1433.49 2271.95,1433.59 2272.99,1433.7 2274.03,1433.81 2275.06,1433.92 2276.1,1434.03 2277.13,1434.14 2278.17,1434.24 2279.21,1434.35 
  2280.24,1434.46 2281.28,1434.56 2282.31,1434.67 2283.35,1434.78 2284.38,1434.88 2285.42,1434.99 2286.46,1435.09 2287.49,1435.2 2288.53,1435.3 2289.56,1435.41 
  2290.6,1435.51 
  "/>
<circle clip-path="url(#clip892)" cx="218.754" cy="1435.51" r="14" fill="#e26f46" fill-rule="evenodd" fill-opacity="1" stroke="#000000" stroke-opacity="1" stroke-width="3.2"/>
<circle clip-path="url(#clip892)" cx="425.938" cy="1406.97" r="14" fill="#e26f46" fill-rule="evenodd" fill-opacity="1" stroke="#000000" stroke-opacity="1" stroke-width="3.2"/>
<circle clip-path="url(#clip892)" cx="633.123" cy="1349.27" r="14" fill="#e26f46" fill-rule="evenodd" fill-opacity="1" stroke="#000000" stroke-opacity="1" stroke-width="3.2"/>
<circle clip-path="url(#clip892)" cx="840.308" cy="1209.12" r="14" fill="#e26f46" fill-rule="evenodd" fill-opacity="1" stroke="#000000" stroke-opacity="1" stroke-width="3.2"/>
<circle clip-path="url(#clip892)" cx="1047.49" cy="788.693" r="14" fill="#e26f46" fill-rule="evenodd" fill-opacity="1" stroke="#000000" stroke-opacity="1" stroke-width="3.2"/>
<circle clip-path="url(#clip892)" cx="1254.68" cy="87.9763" r="14" fill="#e26f46" fill-rule="evenodd" fill-opacity="1" stroke="#000000" stroke-opacity="1" stroke-width="3.2"/>
<circle clip-path="url(#clip892)" cx="1461.86" cy="788.693" r="14" fill="#e26f46" fill-rule="evenodd" fill-opacity="1" stroke="#000000" stroke-opacity="1" stroke-width="3.2"/>
<circle clip-path="url(#clip892)" cx="1669.05" cy="1209.12" r="14" fill="#e26f46" fill-rule="evenodd" fill-opacity="1" stroke="#000000" stroke-opacity="1" stroke-width="3.2"/>
<circle clip-path="url(#clip892)" cx="1876.23" cy="1349.27" r="14" fill="#e26f46" fill-rule="evenodd" fill-opacity="1" stroke="#000000" stroke-opacity="1" stroke-width="3.2"/>
<circle clip-path="url(#clip892)" cx="2083.42" cy="1406.97" r="14" fill="#e26f46" fill-rule="evenodd" fill-opacity="1" stroke="#000000" stroke-opacity="1" stroke-width="3.2"/>
<circle clip-path="url(#clip892)" cx="2290.6" cy="1435.51" r="14" fill="#e26f46" fill-rule="evenodd" fill-opacity="1" stroke="#000000" stroke-opacity="1" stroke-width="3.2"/>
<polyline clip-path="url(#clip892)" style="stroke:#3da44d; stroke-linecap:butt; stroke-linejoin:round; stroke-width:4; stroke-opacity:1; fill:none" points="
  231.508,1434.21 251.971,1444.76 272.434,1445.72 292.898,1440.43 313.361,1431.53 333.825,1421.05 354.288,1410.51 374.751,1400.95 395.215,1393.06 415.678,1387.18 
  436.141,1383.43 456.605,1381.68 477.068,1381.66 497.532,1382.96 517.995,1385.11 538.458,1387.55 558.922,1389.72 579.385,1391.05 599.849,1390.97 620.312,1388.99 
  640.775,1384.62 661.239,1377.45 681.702,1367.15 702.166,1353.45 722.629,1336.16 743.092,1315.19 763.556,1290.5 784.019,1262.16 804.482,1230.3 824.946,1195.12 
  845.409,1156.9 865.873,1115.98 886.336,1072.74 906.799,1027.63 927.263,981.131 947.726,933.744 968.19,886.007 988.653,838.468 1009.12,791.68 1029.58,746.196 
  1050.04,702.558 1070.51,661.289 1090.97,622.886 1111.43,587.815 1131.9,556.502 1152.36,529.329 1172.82,506.628 1193.29,488.676 1213.75,475.694 1234.21,467.841 
  1254.68,465.212 1275.14,467.841 1295.6,475.694 1316.07,488.676 1336.53,506.628 1356.99,529.329 1377.46,556.502 1397.92,587.815 1418.38,622.886 1438.85,661.289 
  1459.31,702.558 1479.77,746.196 1500.24,791.68 1520.7,838.468 1541.16,886.007 1561.63,933.744 1582.09,981.131 1602.55,1027.63 1623.02,1072.74 1643.48,1115.98 
  1663.94,1156.9 1684.41,1195.12 1704.87,1230.3 1725.34,1262.16 1745.8,1290.5 1766.26,1315.19 1786.73,1336.16 1807.19,1353.45 1827.65,1367.15 1848.12,1377.45 
  1868.58,1384.62 1889.04,1388.99 1909.51,1390.97 1929.97,1391.05 1950.43,1389.72 1970.9,1387.55 1991.36,1385.11 2011.82,1382.96 2032.29,1381.66 2052.75,1381.68 
  2073.21,1383.43 2093.68,1387.18 2114.14,1393.06 2134.6,1400.95 2155.07,1410.51 2175.53,1421.05 2195.99,1431.53 2216.46,1440.43 2236.92,1445.72 2257.38,1444.76 
  2277.85,1434.21 
  "/>
<circle clip-path="url(#clip892)" cx="231.508" cy="1434.21" r="14" fill="#c271d2" fill-rule="evenodd" fill-opacity="1" stroke="#000000" stroke-opacity="1" stroke-width="3.2"/>
<circle clip-path="url(#clip892)" cx="331.663" cy="1422.19" r="14" fill="#c271d2" fill-rule="evenodd" fill-opacity="1" stroke="#000000" stroke-opacity="1" stroke-width="3.2"/>
<circle clip-path="url(#clip892)" cx="522.169" cy="1385.6" r="14" fill="#c271d2" fill-rule="evenodd" fill-opacity="1" stroke="#000000" stroke-opacity="1" stroke-width="3.2"/>
<circle clip-path="url(#clip892)" cx="784.378" cy="1261.63" r="14" fill="#c271d2" fill-rule="evenodd" fill-opacity="1" stroke="#000000" stroke-opacity="1" stroke-width="3.2"/>
<circle clip-path="url(#clip892)" cx="1092.62" cy="619.923" r="14" fill="#c271d2" fill-rule="evenodd" fill-opacity="1" stroke="#000000" stroke-opacity="1" stroke-width="3.2"/>
<circle clip-path="url(#clip892)" cx="1416.73" cy="619.923" r="14" fill="#c271d2" fill-rule="evenodd" fill-opacity="1" stroke="#000000" stroke-opacity="1" stroke-width="3.2"/>
<circle clip-path="url(#clip892)" cx="1724.98" cy="1261.63" r="14" fill="#c271d2" fill-rule="evenodd" fill-opacity="1" stroke="#000000" stroke-opacity="1" stroke-width="3.2"/>
<circle clip-path="url(#clip892)" cx="1987.19" cy="1385.6" r="14" fill="#c271d2" fill-rule="evenodd" fill-opacity="1" stroke="#000000" stroke-opacity="1" stroke-width="3.2"/>
<circle clip-path="url(#clip892)" cx="2177.69" cy="1422.19" r="14" fill="#c271d2" fill-rule="evenodd" fill-opacity="1" stroke="#000000" stroke-opacity="1" stroke-width="3.2"/>
<circle clip-path="url(#clip892)" cx="2277.85" cy="1434.21" r="14" fill="#c271d2" fill-rule="evenodd" fill-opacity="1" stroke="#000000" stroke-opacity="1" stroke-width="3.2"/>
<path clip-path="url(#clip890)" d="
M1738.96 354.418 L2279.55 354.418 L2279.55 95.2176 L1738.96 95.2176  Z
  " fill="#ffffff" fill-rule="evenodd" fill-opacity="1"/>
<polyline clip-path="url(#clip890)" style="stroke:#000000; stroke-linecap:butt; stroke-linejoin:round; stroke-width:4; stroke-opacity:1; fill:none" points="
  1738.96,354.418 2279.55,354.418 2279.55,95.2176 1738.96,95.2176 1738.96,354.418 
  "/>
<polyline clip-path="url(#clip890)" style="stroke:#009af9; stroke-linecap:butt; stroke-linejoin:round; stroke-width:4; stroke-opacity:1; fill:none" points="
  1763.36,147.058 1909.77,147.058 
  "/>
<path clip-path="url(#clip890)" d="M1946.07 141.398 Q1942.65 141.398 1940.66 144.083 Q1938.67 146.745 1938.67 151.398 Q1938.67 156.051 1940.63 158.736 Q1942.62 161.398 1946.07 161.398 Q1949.48 161.398 1951.47 158.713 Q1953.46 156.027 1953.46 151.398 Q1953.46 146.791 1951.47 144.106 Q1949.48 141.398 1946.07 141.398 M1946.07 137.787 Q1951.63 137.787 1954.8 141.398 Q1957.97 145.009 1957.97 151.398 Q1957.97 157.764 1954.8 161.398 Q1951.63 165.009 1946.07 165.009 Q1940.49 165.009 1937.32 161.398 Q1934.17 157.764 1934.17 151.398 Q1934.17 145.009 1937.32 141.398 Q1940.49 137.787 1946.07 137.787 Z" fill="#000000" fill-rule="evenodd" fill-opacity="1" /><path clip-path="url(#clip890)" d="M1980.05 142.393 Q1979.34 141.977 1978.48 141.791 Q1977.65 141.583 1976.63 141.583 Q1973.02 141.583 1971.07 143.944 Q1969.15 146.282 1969.15 150.68 L1969.15 164.338 L1964.87 164.338 L1964.87 138.412 L1969.15 138.412 L1969.15 142.44 Q1970.49 140.078 1972.65 138.944 Q1974.8 137.787 1977.88 137.787 Q1978.32 137.787 1978.85 137.856 Q1979.38 137.903 1980.03 138.018 L1980.05 142.393 Z" fill="#000000" fill-rule="evenodd" fill-opacity="1" /><path clip-path="url(#clip890)" d="M2000.75 151.074 Q2000.75 146.444 1998.83 143.898 Q1996.93 141.352 1993.48 141.352 Q1990.05 141.352 1988.13 143.898 Q1986.23 146.444 1986.23 151.074 Q1986.23 155.68 1988.13 158.226 Q1990.05 160.773 1993.48 160.773 Q1996.93 160.773 1998.83 158.226 Q2000.75 155.68 2000.75 151.074 M2005.01 161.12 Q2005.01 167.74 2002.07 170.958 Q1999.13 174.199 1993.06 174.199 Q1990.82 174.199 1988.83 173.851 Q1986.84 173.527 1984.96 172.833 L1984.96 168.689 Q1986.84 169.708 1988.67 170.194 Q1990.49 170.68 1992.39 170.68 Q1996.58 170.68 1998.67 168.481 Q2000.75 166.305 2000.75 161.884 L2000.75 159.777 Q1999.43 162.069 1997.37 163.203 Q1995.31 164.338 1992.44 164.338 Q1987.67 164.338 1984.75 160.703 Q1981.84 157.069 1981.84 151.074 Q1981.84 145.055 1984.75 141.421 Q1987.67 137.787 1992.44 137.787 Q1995.31 137.787 1997.37 138.921 Q1999.43 140.055 2000.75 142.347 L2000.75 138.412 L2005.01 138.412 L2005.01 161.12 Z" fill="#000000" fill-rule="evenodd" fill-opacity="1" /><path clip-path="url(#clip890)" d="M2013.78 138.412 L2018.04 138.412 L2018.04 164.338 L2013.78 164.338 L2013.78 138.412 M2013.78 128.319 L2018.04 128.319 L2018.04 133.713 L2013.78 133.713 L2013.78 128.319 Z" fill="#000000" fill-rule="evenodd" fill-opacity="1" /><path clip-path="url(#clip890)" d="M2048.5 148.689 L2048.5 164.338 L2044.24 164.338 L2044.24 148.828 Q2044.24 145.148 2042.81 143.319 Q2041.37 141.49 2038.5 141.49 Q2035.05 141.49 2033.06 143.69 Q2031.07 145.889 2031.07 149.685 L2031.07 164.338 L2026.79 164.338 L2026.79 138.412 L2031.07 138.412 L2031.07 142.44 Q2032.6 140.102 2034.66 138.944 Q2036.74 137.787 2039.45 137.787 Q2043.92 137.787 2046.21 140.565 Q2048.5 143.319 2048.5 148.689 Z" fill="#000000" fill-rule="evenodd" fill-opacity="1" /><path clip-path="url(#clip890)" d="M2068.78 151.305 Q2063.62 151.305 2061.63 152.486 Q2059.64 153.666 2059.64 156.514 Q2059.64 158.782 2061.12 160.125 Q2062.62 161.444 2065.19 161.444 Q2068.73 161.444 2070.86 158.944 Q2073.02 156.421 2073.02 152.254 L2073.02 151.305 L2068.78 151.305 M2077.28 149.546 L2077.28 164.338 L2073.02 164.338 L2073.02 160.402 Q2071.56 162.763 2069.38 163.898 Q2067.21 165.009 2064.06 165.009 Q2060.08 165.009 2057.72 162.787 Q2055.38 160.541 2055.38 156.791 Q2055.38 152.416 2058.29 150.194 Q2061.23 147.972 2067.04 147.972 L2073.02 147.972 L2073.02 147.555 Q2073.02 144.615 2071.07 143.018 Q2069.15 141.398 2065.66 141.398 Q2063.43 141.398 2061.33 141.93 Q2059.22 142.463 2057.28 143.527 L2057.28 139.592 Q2059.61 138.69 2061.81 138.25 Q2064.01 137.787 2066.1 137.787 Q2071.72 137.787 2074.5 140.703 Q2077.28 143.62 2077.28 149.546 Z" fill="#000000" fill-rule="evenodd" fill-opacity="1" /><path clip-path="url(#clip890)" d="M2086.05 128.319 L2090.31 128.319 L2090.31 164.338 L2086.05 164.338 L2086.05 128.319 Z" fill="#000000" fill-rule="evenodd" fill-opacity="1" /><circle clip-path="url(#clip890)" cx="1836.57" cy="198.898" r="23" fill="#e26f46" fill-rule="evenodd" fill-opacity="1" stroke="#000000" stroke-opacity="1" stroke-width="5.12"/>
<path clip-path="url(#clip890)" d="M1938.46 212.289 L1938.46 226.039 L1934.17 226.039 L1934.17 190.252 L1938.46 190.252 L1938.46 194.187 Q1939.8 191.872 1941.84 190.761 Q1943.9 189.627 1946.74 189.627 Q1951.47 189.627 1954.41 193.377 Q1957.37 197.127 1957.37 203.238 Q1957.37 209.349 1954.41 213.099 Q1951.47 216.849 1946.74 216.849 Q1943.9 216.849 1941.84 215.738 Q1939.8 214.603 1938.46 212.289 M1952.95 203.238 Q1952.95 198.539 1951 195.877 Q1949.08 193.192 1945.7 193.192 Q1942.32 193.192 1940.38 195.877 Q1938.46 198.539 1938.46 203.238 Q1938.46 207.937 1940.38 210.622 Q1942.32 213.284 1945.7 213.284 Q1949.08 213.284 1951 210.622 Q1952.95 207.937 1952.95 203.238 Z" fill="#000000" fill-rule="evenodd" fill-opacity="1" /><path clip-path="url(#clip890)" d="M1974.48 193.238 Q1971.05 193.238 1969.06 195.923 Q1967.07 198.585 1967.07 203.238 Q1967.07 207.891 1969.04 210.576 Q1971.03 213.238 1974.48 213.238 Q1977.88 213.238 1979.87 210.553 Q1981.86 207.867 1981.86 203.238 Q1981.86 198.631 1979.87 195.946 Q1977.88 193.238 1974.48 193.238 M1974.48 189.627 Q1980.03 189.627 1983.2 193.238 Q1986.37 196.849 1986.37 203.238 Q1986.37 209.604 1983.2 213.238 Q1980.03 216.849 1974.48 216.849 Q1968.9 216.849 1965.73 213.238 Q1962.58 209.604 1962.58 203.238 Q1962.58 196.849 1965.73 193.238 Q1968.9 189.627 1974.48 189.627 Z" fill="#000000" fill-rule="evenodd" fill-opacity="1" /><path clip-path="url(#clip890)" d="M1993.43 190.252 L1997.69 190.252 L1997.69 216.178 L1993.43 216.178 L1993.43 190.252 M1993.43 180.159 L1997.69 180.159 L1997.69 185.553 L1993.43 185.553 L1993.43 180.159 Z" fill="#000000" fill-rule="evenodd" fill-opacity="1" /><path clip-path="url(#clip890)" d="M2028.16 200.529 L2028.16 216.178 L2023.9 216.178 L2023.9 200.668 Q2023.9 196.988 2022.46 195.159 Q2021.03 193.33 2018.16 193.33 Q2014.71 193.33 2012.72 195.53 Q2010.73 197.729 2010.73 201.525 L2010.73 216.178 L2006.44 216.178 L2006.44 190.252 L2010.73 190.252 L2010.73 194.28 Q2012.25 191.942 2014.31 190.784 Q2016.4 189.627 2019.1 189.627 Q2023.57 189.627 2025.86 192.405 Q2028.16 195.159 2028.16 200.529 Z" fill="#000000" fill-rule="evenodd" fill-opacity="1" /><path clip-path="url(#clip890)" d="M2040.86 182.891 L2040.86 190.252 L2049.64 190.252 L2049.64 193.562 L2040.86 193.562 L2040.86 207.636 Q2040.86 210.807 2041.72 211.71 Q2042.6 212.613 2045.26 212.613 L2049.64 212.613 L2049.64 216.178 L2045.26 216.178 Q2040.33 216.178 2038.46 214.349 Q2036.58 212.497 2036.58 207.636 L2036.58 193.562 L2033.46 193.562 L2033.46 190.252 L2036.58 190.252 L2036.58 182.891 L2040.86 182.891 Z" fill="#000000" fill-rule="evenodd" fill-opacity="1" /><path clip-path="url(#clip890)" d="M2071.77 191.016 L2071.77 195.043 Q2069.96 194.117 2068.02 193.655 Q2066.07 193.192 2063.99 193.192 Q2060.82 193.192 2059.22 194.164 Q2057.65 195.136 2057.65 197.08 Q2057.65 198.562 2058.78 199.418 Q2059.91 200.252 2063.34 201.016 L2064.8 201.34 Q2069.34 202.312 2071.23 204.094 Q2073.16 205.854 2073.16 209.025 Q2073.16 212.636 2070.29 214.742 Q2067.44 216.849 2062.44 216.849 Q2060.35 216.849 2058.09 216.432 Q2055.84 216.039 2053.34 215.228 L2053.34 210.83 Q2055.7 212.057 2057.99 212.682 Q2060.29 213.284 2062.53 213.284 Q2065.54 213.284 2067.16 212.266 Q2068.78 211.224 2068.78 209.349 Q2068.78 207.613 2067.6 206.687 Q2066.44 205.761 2062.48 204.904 L2061 204.557 Q2057.04 203.724 2055.29 202.011 Q2053.53 200.275 2053.53 197.266 Q2053.53 193.608 2056.12 191.618 Q2058.71 189.627 2063.48 189.627 Q2065.84 189.627 2067.92 189.974 Q2070.01 190.321 2071.77 191.016 Z" fill="#000000" fill-rule="evenodd" fill-opacity="1" /><polyline clip-path="url(#clip890)" style="stroke:#3da44d; stroke-linecap:butt; stroke-linejoin:round; stroke-width:4; stroke-opacity:1; fill:none" points="
  1763.36,250.738 1909.77,250.738 
  "/>
<path clip-path="url(#clip890)" d="M1954.68 243.087 L1954.68 247.069 Q1952.88 246.073 1951.05 245.587 Q1949.24 245.078 1947.39 245.078 Q1943.25 245.078 1940.96 247.717 Q1938.67 250.332 1938.67 255.078 Q1938.67 259.823 1940.96 262.462 Q1943.25 265.078 1947.39 265.078 Q1949.24 265.078 1951.05 264.592 Q1952.88 264.082 1954.68 263.087 L1954.68 267.022 Q1952.9 267.856 1950.98 268.272 Q1949.08 268.689 1946.93 268.689 Q1941.07 268.689 1937.62 265.008 Q1934.17 261.328 1934.17 255.078 Q1934.17 248.735 1937.65 245.101 Q1941.14 241.467 1947.21 241.467 Q1949.17 241.467 1951.05 241.883 Q1952.92 242.277 1954.68 243.087 Z" fill="#000000" fill-rule="evenodd" fill-opacity="1" /><path clip-path="url(#clip890)" d="M1983.64 252.369 L1983.64 268.018 L1979.38 268.018 L1979.38 252.508 Q1979.38 248.828 1977.95 246.999 Q1976.51 245.17 1973.64 245.17 Q1970.19 245.17 1968.2 247.37 Q1966.21 249.569 1966.21 253.365 L1966.21 268.018 L1961.93 268.018 L1961.93 231.999 L1966.21 231.999 L1966.21 246.12 Q1967.74 243.782 1969.8 242.624 Q1971.88 241.467 1974.59 241.467 Q1979.06 241.467 1981.35 244.245 Q1983.64 246.999 1983.64 252.369 Z" fill="#000000" fill-rule="evenodd" fill-opacity="1" /><path clip-path="url(#clip890)" d="M2014.31 253.99 L2014.31 256.073 L1994.73 256.073 Q1995.01 260.471 1997.37 262.786 Q1999.75 265.078 2003.99 265.078 Q2006.44 265.078 2008.73 264.476 Q2011.05 263.874 2013.32 262.67 L2013.32 266.698 Q2011.03 267.67 2008.62 268.18 Q2006.21 268.689 2003.73 268.689 Q1997.53 268.689 1993.9 265.078 Q1990.29 261.467 1990.29 255.309 Q1990.29 248.944 1993.71 245.217 Q1997.16 241.467 2002.99 241.467 Q2008.23 241.467 2011.26 244.846 Q2014.31 248.203 2014.31 253.99 M2010.05 252.74 Q2010.01 249.245 2008.09 247.161 Q2006.19 245.078 2003.04 245.078 Q1999.48 245.078 1997.32 247.092 Q1995.19 249.106 1994.87 252.763 L2010.05 252.74 Z" fill="#000000" fill-rule="evenodd" fill-opacity="1" /><path clip-path="url(#clip890)" d="M2039.91 255.078 Q2039.91 250.379 2037.97 247.717 Q2036.05 245.032 2032.67 245.032 Q2029.29 245.032 2027.35 247.717 Q2025.42 250.379 2025.42 255.078 Q2025.42 259.777 2027.35 262.462 Q2029.29 265.124 2032.67 265.124 Q2036.05 265.124 2037.97 262.462 Q2039.91 259.777 2039.91 255.078 M2025.42 246.027 Q2026.77 243.712 2028.8 242.601 Q2030.86 241.467 2033.71 241.467 Q2038.43 241.467 2041.37 245.217 Q2044.34 248.967 2044.34 255.078 Q2044.34 261.189 2041.37 264.939 Q2038.43 268.689 2033.71 268.689 Q2030.86 268.689 2028.8 267.578 Q2026.77 266.443 2025.42 264.129 L2025.42 268.018 L2021.14 268.018 L2021.14 231.999 L2025.42 231.999 L2025.42 246.027 Z" fill="#000000" fill-rule="evenodd" fill-opacity="1" /><path clip-path="url(#clip890)" d="M2062.18 270.425 Q2060.38 275.055 2058.66 276.467 Q2056.95 277.879 2054.08 277.879 L2050.68 277.879 L2050.68 274.314 L2053.18 274.314 Q2054.94 274.314 2055.91 273.48 Q2056.88 272.647 2058.06 269.545 L2058.83 267.601 L2048.34 242.092 L2052.85 242.092 L2060.96 262.369 L2069.06 242.092 L2073.57 242.092 L2062.18 270.425 Z" fill="#000000" fill-rule="evenodd" fill-opacity="1" /><path clip-path="url(#clip890)" d="M2107.65 231.999 L2107.65 235.541 L2103.57 235.541 Q2101.28 235.541 2100.38 236.467 Q2099.5 237.393 2099.5 239.8 L2099.5 242.092 L2106.51 242.092 L2106.51 245.402 L2099.5 245.402 L2099.5 268.018 L2095.22 268.018 L2095.22 245.402 L2091.14 245.402 L2091.14 242.092 L2095.22 242.092 L2095.22 240.286 Q2095.22 235.958 2097.23 233.99 Q2099.24 231.999 2103.62 231.999 L2107.65 231.999 Z" fill="#000000" fill-rule="evenodd" fill-opacity="1" /><path clip-path="url(#clip890)" d="M2111.21 242.092 L2115.47 242.092 L2115.47 268.018 L2111.21 268.018 L2111.21 242.092 M2111.21 231.999 L2115.47 231.999 L2115.47 237.393 L2111.21 237.393 L2111.21 231.999 Z" fill="#000000" fill-rule="evenodd" fill-opacity="1" /><path clip-path="url(#clip890)" d="M2128.59 234.731 L2128.59 242.092 L2137.37 242.092 L2137.37 245.402 L2128.59 245.402 L2128.59 259.476 Q2128.59 262.647 2129.45 263.55 Q2130.33 264.453 2132.99 264.453 L2137.37 264.453 L2137.37 268.018 L2132.99 268.018 Q2128.06 268.018 2126.19 266.189 Q2124.31 264.337 2124.31 259.476 L2124.31 245.402 L2121.19 245.402 L2121.19 242.092 L2124.31 242.092 L2124.31 234.731 L2128.59 234.731 Z" fill="#000000" fill-rule="evenodd" fill-opacity="1" /><circle clip-path="url(#clip890)" cx="1836.57" cy="302.578" r="23" fill="#c271d2" fill-rule="evenodd" fill-opacity="1" stroke="#000000" stroke-opacity="1" stroke-width="5.12"/>
<path clip-path="url(#clip890)" d="M1954.68 294.927 L1954.68 298.909 Q1952.88 297.913 1951.05 297.427 Q1949.24 296.918 1947.39 296.918 Q1943.25 296.918 1940.96 299.557 Q1938.67 302.172 1938.67 306.918 Q1938.67 311.663 1940.96 314.302 Q1943.25 316.918 1947.39 316.918 Q1949.24 316.918 1951.05 316.432 Q1952.88 315.922 1954.68 314.927 L1954.68 318.862 Q1952.9 319.696 1950.98 320.112 Q1949.08 320.529 1946.93 320.529 Q1941.07 320.529 1937.62 316.848 Q1934.17 313.168 1934.17 306.918 Q1934.17 300.575 1937.65 296.941 Q1941.14 293.307 1947.21 293.307 Q1949.17 293.307 1951.05 293.723 Q1952.92 294.117 1954.68 294.927 Z" fill="#000000" fill-rule="evenodd" fill-opacity="1" /><path clip-path="url(#clip890)" d="M1983.64 304.209 L1983.64 319.858 L1979.38 319.858 L1979.38 304.348 Q1979.38 300.668 1977.95 298.839 Q1976.51 297.01 1973.64 297.01 Q1970.19 297.01 1968.2 299.21 Q1966.21 301.409 1966.21 305.205 L1966.21 319.858 L1961.93 319.858 L1961.93 283.839 L1966.21 283.839 L1966.21 297.96 Q1967.74 295.622 1969.8 294.464 Q1971.88 293.307 1974.59 293.307 Q1979.06 293.307 1981.35 296.085 Q1983.64 298.839 1983.64 304.209 Z" fill="#000000" fill-rule="evenodd" fill-opacity="1" /><path clip-path="url(#clip890)" d="M2014.31 305.83 L2014.31 307.913 L1994.73 307.913 Q1995.01 312.311 1997.37 314.626 Q1999.75 316.918 2003.99 316.918 Q2006.44 316.918 2008.73 316.316 Q2011.05 315.714 2013.32 314.51 L2013.32 318.538 Q2011.03 319.51 2008.62 320.02 Q2006.21 320.529 2003.73 320.529 Q1997.53 320.529 1993.9 316.918 Q1990.29 313.307 1990.29 307.149 Q1990.29 300.784 1993.71 297.057 Q1997.16 293.307 2002.99 293.307 Q2008.23 293.307 2011.26 296.686 Q2014.31 300.043 2014.31 305.83 M2010.05 304.58 Q2010.01 301.085 2008.09 299.001 Q2006.19 296.918 2003.04 296.918 Q1999.48 296.918 1997.32 298.932 Q1995.19 300.946 1994.87 304.603 L2010.05 304.58 Z" fill="#000000" fill-rule="evenodd" fill-opacity="1" /><path clip-path="url(#clip890)" d="M2039.91 306.918 Q2039.91 302.219 2037.97 299.557 Q2036.05 296.872 2032.67 296.872 Q2029.29 296.872 2027.35 299.557 Q2025.42 302.219 2025.42 306.918 Q2025.42 311.617 2027.35 314.302 Q2029.29 316.964 2032.67 316.964 Q2036.05 316.964 2037.97 314.302 Q2039.91 311.617 2039.91 306.918 M2025.42 297.867 Q2026.77 295.552 2028.8 294.441 Q2030.86 293.307 2033.71 293.307 Q2038.43 293.307 2041.37 297.057 Q2044.34 300.807 2044.34 306.918 Q2044.34 313.029 2041.37 316.779 Q2038.43 320.529 2033.71 320.529 Q2030.86 320.529 2028.8 319.418 Q2026.77 318.283 2025.42 315.969 L2025.42 319.858 L2021.14 319.858 L2021.14 283.839 L2025.42 283.839 L2025.42 297.867 Z" fill="#000000" fill-rule="evenodd" fill-opacity="1" /><path clip-path="url(#clip890)" d="M2062.18 322.265 Q2060.38 326.895 2058.66 328.307 Q2056.95 329.719 2054.08 329.719 L2050.68 329.719 L2050.68 326.154 L2053.18 326.154 Q2054.94 326.154 2055.91 325.32 Q2056.88 324.487 2058.06 321.385 L2058.83 319.441 L2048.34 293.932 L2052.85 293.932 L2060.96 314.209 L2069.06 293.932 L2073.57 293.932 L2062.18 322.265 Z" fill="#000000" fill-rule="evenodd" fill-opacity="1" /><path clip-path="url(#clip890)" d="M2116.07 304.209 L2116.07 319.858 L2111.81 319.858 L2111.81 304.348 Q2111.81 300.668 2110.38 298.839 Q2108.94 297.01 2106.07 297.01 Q2102.62 297.01 2100.63 299.21 Q2098.64 301.409 2098.64 305.205 L2098.64 319.858 L2094.36 319.858 L2094.36 293.932 L2098.64 293.932 L2098.64 297.96 Q2100.17 295.622 2102.23 294.464 Q2104.31 293.307 2107.02 293.307 Q2111.49 293.307 2113.78 296.085 Q2116.07 298.839 2116.07 304.209 Z" fill="#000000" fill-rule="evenodd" fill-opacity="1" /><path clip-path="url(#clip890)" d="M2134.61 296.918 Q2131.19 296.918 2129.2 299.603 Q2127.21 302.265 2127.21 306.918 Q2127.21 311.571 2129.17 314.256 Q2131.16 316.918 2134.61 316.918 Q2138.02 316.918 2140.01 314.233 Q2142 311.547 2142 306.918 Q2142 302.311 2140.01 299.626 Q2138.02 296.918 2134.61 296.918 M2134.61 293.307 Q2140.17 293.307 2143.34 296.918 Q2146.51 300.529 2146.51 306.918 Q2146.51 313.284 2143.34 316.918 Q2140.17 320.529 2134.61 320.529 Q2129.03 320.529 2125.86 316.918 Q2122.72 313.284 2122.72 306.918 Q2122.72 300.529 2125.86 296.918 Q2129.03 293.307 2134.61 293.307 Z" fill="#000000" fill-rule="evenodd" fill-opacity="1" /><path clip-path="url(#clip890)" d="M2170.63 297.867 L2170.63 283.839 L2174.89 283.839 L2174.89 319.858 L2170.63 319.858 L2170.63 315.969 Q2169.29 318.283 2167.23 319.418 Q2165.19 320.529 2162.32 320.529 Q2157.62 320.529 2154.66 316.779 Q2151.72 313.029 2151.72 306.918 Q2151.72 300.807 2154.66 297.057 Q2157.62 293.307 2162.32 293.307 Q2165.19 293.307 2167.23 294.441 Q2169.29 295.552 2170.63 297.867 M2156.12 306.918 Q2156.12 311.617 2158.04 314.302 Q2159.98 316.964 2163.36 316.964 Q2166.74 316.964 2168.69 314.302 Q2170.63 311.617 2170.63 306.918 Q2170.63 302.219 2168.69 299.557 Q2166.74 296.872 2163.36 296.872 Q2159.98 296.872 2158.04 299.557 Q2156.12 302.219 2156.12 306.918 Z" fill="#000000" fill-rule="evenodd" fill-opacity="1" /><path clip-path="url(#clip890)" d="M2205.84 305.83 L2205.84 307.913 L2186.26 307.913 Q2186.53 312.311 2188.9 314.626 Q2191.28 316.918 2195.52 316.918 Q2197.97 316.918 2200.26 316.316 Q2202.58 315.714 2204.84 314.51 L2204.84 318.538 Q2202.55 319.51 2200.15 320.02 Q2197.74 320.529 2195.26 320.529 Q2189.06 320.529 2185.42 316.918 Q2181.81 313.307 2181.81 307.149 Q2181.81 300.784 2185.24 297.057 Q2188.69 293.307 2194.52 293.307 Q2199.75 293.307 2202.78 296.686 Q2205.84 300.043 2205.84 305.83 M2201.58 304.58 Q2201.53 301.085 2199.61 299.001 Q2197.71 296.918 2194.57 296.918 Q2191 296.918 2188.85 298.932 Q2186.72 300.946 2186.4 304.603 L2201.58 304.58 Z" fill="#000000" fill-rule="evenodd" fill-opacity="1" /><path clip-path="url(#clip890)" d="M2229.36 294.696 L2229.36 298.723 Q2227.55 297.797 2225.61 297.335 Q2223.66 296.872 2221.58 296.872 Q2218.41 296.872 2216.81 297.844 Q2215.24 298.816 2215.24 300.76 Q2215.24 302.242 2216.37 303.098 Q2217.51 303.932 2220.93 304.696 L2222.39 305.02 Q2226.93 305.992 2228.83 307.774 Q2230.75 309.534 2230.75 312.705 Q2230.75 316.316 2227.88 318.422 Q2225.03 320.529 2220.03 320.529 Q2217.95 320.529 2215.68 320.112 Q2213.43 319.719 2210.93 318.908 L2210.93 314.51 Q2213.29 315.737 2215.59 316.362 Q2217.88 316.964 2220.12 316.964 Q2223.13 316.964 2224.75 315.946 Q2226.37 314.904 2226.37 313.029 Q2226.37 311.293 2225.19 310.367 Q2224.03 309.441 2220.08 308.584 L2218.59 308.237 Q2214.64 307.404 2212.88 305.691 Q2211.12 303.955 2211.12 300.946 Q2211.12 297.288 2213.71 295.298 Q2216.3 293.307 2221.07 293.307 Q2223.43 293.307 2225.52 293.654 Q2227.6 294.001 2229.36 294.696 Z" fill="#000000" fill-rule="evenodd" fill-opacity="1" /></svg>
