<?xml version="1.0" encoding="utf-8"?>
<svg xmlns="http://www.w3.org/2000/svg" xmlns:xlink="http://www.w3.org/1999/xlink" width="600" height="400" viewBox="0 0 2400 1600">
<defs>
  <clipPath id="clip930">
    <rect x="0" y="0" width="2400" height="1600"/>
  </clipPath>
</defs>
<path clip-path="url(#clip930)" d="
M0 1600 L2400 1600 L2400 0 L0 0  Z
  " fill="#ffffff" fill-rule="evenodd" fill-opacity="1"/>
<defs>
  <clipPath id="clip931">
    <rect x="480" y="0" width="1681" height="1600"/>
  </clipPath>
</defs>
<path clip-path="url(#clip930)" d="
M184.191 1486.45 L2352.76 1486.45 L2352.76 47.2441 L184.191 47.2441  Z
  " fill="#ffffff" fill-rule="evenodd" fill-opacity="1"/>
<defs>
  <clipPath id="clip932">
    <rect x="184" y="47" width="2170" height="1440"/>
  </clipPath>
</defs>
<polyline clip-path="url(#clip932)" style="stroke:#000000; stroke-linecap:butt; stroke-linejoin:round; stroke-width:2; stroke-opacity:0.1; fill:none" points="
  245.565,1486.45 245.565,47.2441 
  "/>
<polyline clip-path="url(#clip932)" style="stroke:#000000; stroke-linecap:butt; stroke-linejoin:round; stroke-width:2; stroke-opacity:0.1; fill:none" points="
  927.504,1486.45 927.504,47.2441 
  "/>
<polyline clip-path="url(#clip932)" style="stroke:#000000; stroke-linecap:butt; stroke-linejoin:round; stroke-width:2; stroke-opacity:0.1; fill:none" points="
  1609.44,1486.45 1609.44,47.2441 
  "/>
<polyline clip-path="url(#clip932)" style="stroke:#000000; stroke-linecap:butt; stroke-linejoin:round; stroke-width:2; stroke-opacity:0.1; fill:none" points="
  2291.38,1486.45 2291.38,47.2441 
  "/>
<polyline clip-path="url(#clip930)" style="stroke:#000000; stroke-linecap:butt; stroke-linejoin:round; stroke-width:4; stroke-opacity:1; fill:none" points="
  184.191,1486.45 2352.76,1486.45 
  "/>
<polyline clip-path="url(#clip930)" style="stroke:#000000; stroke-linecap:butt; stroke-linejoin:round; stroke-width:4; stroke-opacity:1; fill:none" points="
  245.565,1486.45 245.565,1467.55 
  "/>
<polyline clip-path="url(#clip930)" style="stroke:#000000; stroke-linecap:butt; stroke-linejoin:round; stroke-width:4; stroke-opacity:1; fill:none" points="
  927.504,1486.45 927.504,1467.55 
  "/>
<polyline clip-path="url(#clip930)" style="stroke:#000000; stroke-linecap:butt; stroke-linejoin:round; stroke-width:4; stroke-opacity:1; fill:none" points="
  1609.44,1486.45 1609.44,1467.55 
  "/>
<polyline clip-path="url(#clip930)" style="stroke:#000000; stroke-linecap:butt; stroke-linejoin:round; stroke-width:4; stroke-opacity:1; fill:none" points="
  2291.38,1486.45 2291.38,1467.55 
  "/>
<path clip-path="url(#clip930)" d="M245.565 1517.37 Q241.954 1517.37 240.125 1520.93 Q238.32 1524.47 238.32 1531.6 Q238.32 1538.71 240.125 1542.27 Q241.954 1545.82 245.565 1545.82 Q249.199 1545.82 251.005 1542.27 Q252.834 1538.71 252.834 1531.6 Q252.834 1524.47 251.005 1520.93 Q249.199 1517.37 245.565 1517.37 M245.565 1513.66 Q251.375 1513.66 254.431 1518.27 Q257.51 1522.85 257.51 1531.6 Q257.51 1540.33 254.431 1544.94 Q251.375 1549.52 245.565 1549.52 Q239.755 1549.52 236.676 1544.94 Q233.621 1540.33 233.621 1531.6 Q233.621 1522.85 236.676 1518.27 Q239.755 1513.66 245.565 1513.66 Z" fill="#000000" fill-rule="evenodd" fill-opacity="1" /><path clip-path="url(#clip930)" d="M917.886 1544.91 L925.525 1544.91 L925.525 1518.55 L917.215 1520.21 L917.215 1515.95 L925.478 1514.29 L930.154 1514.29 L930.154 1544.91 L937.793 1544.91 L937.793 1548.85 L917.886 1548.85 L917.886 1544.91 Z" fill="#000000" fill-rule="evenodd" fill-opacity="1" /><path clip-path="url(#clip930)" d="M1604.1 1544.91 L1620.41 1544.91 L1620.41 1548.85 L1598.47 1548.85 L1598.47 1544.91 Q1601.13 1542.16 1605.72 1537.53 Q1610.32 1532.88 1611.5 1531.53 Q1613.75 1529.01 1614.63 1527.27 Q1615.53 1525.51 1615.53 1523.82 Q1615.53 1521.07 1613.59 1519.33 Q1611.66 1517.6 1608.56 1517.6 Q1606.36 1517.6 1603.91 1518.36 Q1601.48 1519.13 1598.7 1520.68 L1598.7 1515.95 Q1601.53 1514.82 1603.98 1514.24 Q1606.43 1513.66 1608.47 1513.66 Q1613.84 1513.66 1617.04 1516.35 Q1620.23 1519.03 1620.23 1523.52 Q1620.23 1525.65 1619.42 1527.57 Q1618.63 1529.47 1616.53 1532.07 Q1615.95 1532.74 1612.85 1535.95 Q1609.74 1539.15 1604.1 1544.91 Z" fill="#000000" fill-rule="evenodd" fill-opacity="1" /><path clip-path="url(#clip930)" d="M2295.63 1530.21 Q2298.99 1530.93 2300.86 1533.2 Q2302.76 1535.47 2302.76 1538.8 Q2302.76 1543.92 2299.24 1546.72 Q2295.72 1549.52 2289.24 1549.52 Q2287.06 1549.52 2284.75 1549.08 Q2282.46 1548.66 2280 1547.81 L2280 1543.29 Q2281.95 1544.43 2284.26 1545.01 Q2286.58 1545.58 2289.1 1545.58 Q2293.5 1545.58 2295.79 1543.85 Q2298.11 1542.11 2298.11 1538.8 Q2298.11 1535.75 2295.95 1534.03 Q2293.82 1532.3 2290 1532.3 L2285.98 1532.3 L2285.98 1528.45 L2290.19 1528.45 Q2293.64 1528.45 2295.47 1527.09 Q2297.3 1525.7 2297.3 1523.11 Q2297.3 1520.45 2295.4 1519.03 Q2293.52 1517.6 2290 1517.6 Q2288.08 1517.6 2285.88 1518.01 Q2283.68 1518.43 2281.05 1519.31 L2281.05 1515.14 Q2283.71 1514.4 2286.02 1514.03 Q2288.36 1513.66 2290.42 1513.66 Q2295.74 1513.66 2298.85 1516.09 Q2301.95 1518.5 2301.95 1522.62 Q2301.95 1525.49 2300.3 1527.48 Q2298.66 1529.45 2295.63 1530.21 Z" fill="#000000" fill-rule="evenodd" fill-opacity="1" /><polyline clip-path="url(#clip932)" style="stroke:#000000; stroke-linecap:butt; stroke-linejoin:round; stroke-width:2; stroke-opacity:0.1; fill:none" points="
  184.191,1204.86 2352.76,1204.86 
  "/>
<polyline clip-path="url(#clip932)" style="stroke:#000000; stroke-linecap:butt; stroke-linejoin:round; stroke-width:2; stroke-opacity:0.1; fill:none" points="
  184.191,909.387 2352.76,909.387 
  "/>
<polyline clip-path="url(#clip932)" style="stroke:#000000; stroke-linecap:butt; stroke-linejoin:round; stroke-width:2; stroke-opacity:0.1; fill:none" points="
  184.191,613.916 2352.76,613.916 
  "/>
<polyline clip-path="url(#clip932)" style="stroke:#000000; stroke-linecap:butt; stroke-linejoin:round; stroke-width:2; stroke-opacity:0.1; fill:none" points="
  184.191,318.444 2352.76,318.444 
  "/>
<polyline clip-path="url(#clip930)" style="stroke:#000000; stroke-linecap:butt; stroke-linejoin:round; stroke-width:4; stroke-opacity:1; fill:none" points="
  184.191,1486.45 184.191,47.2441 
  "/>
<polyline clip-path="url(#clip930)" style="stroke:#000000; stroke-linecap:butt; stroke-linejoin:round; stroke-width:4; stroke-opacity:1; fill:none" points="
  184.191,1204.86 203.088,1204.86 
  "/>
<polyline clip-path="url(#clip930)" style="stroke:#000000; stroke-linecap:butt; stroke-linejoin:round; stroke-width:4; stroke-opacity:1; fill:none" points="
  184.191,909.387 203.088,909.387 
  "/>
<polyline clip-path="url(#clip930)" style="stroke:#000000; stroke-linecap:butt; stroke-linejoin:round; stroke-width:4; stroke-opacity:1; fill:none" points="
  184.191,613.916 203.088,613.916 
  "/>
<polyline clip-path="url(#clip930)" style="stroke:#000000; stroke-linecap:butt; stroke-linejoin:round; stroke-width:4; stroke-opacity:1; fill:none" points="
  184.191,318.444 203.088,318.444 
  "/>
<path clip-path="url(#clip930)" d="M86.0382 1218.2 L102.358 1218.2 L102.358 1222.14 L80.4133 1222.14 L80.4133 1218.2 Q83.0753 1215.45 87.6586 1210.82 Q92.2651 1206.17 93.4456 1204.82 Q95.691 1202.3 96.5706 1200.56 Q97.4734 1198.81 97.4734 1197.12 Q97.4734 1194.36 95.5289 1192.63 Q93.6076 1190.89 90.5058 1190.89 Q88.3067 1190.89 85.8531 1191.65 Q83.4225 1192.42 80.6447 1193.97 L80.6447 1189.25 Q83.4688 1188.11 85.9225 1187.53 Q88.3762 1186.95 90.4132 1186.95 Q95.7836 1186.95 98.978 1189.64 Q102.172 1192.32 102.172 1196.81 Q102.172 1198.94 101.362 1200.87 Q100.575 1202.76 98.4687 1205.36 Q97.89 1206.03 94.7882 1209.25 Q91.6864 1212.44 86.0382 1218.2 Z" fill="#000000" fill-rule="evenodd" fill-opacity="1" /><path clip-path="url(#clip930)" d="M112.172 1216.26 L117.057 1216.26 L117.057 1222.14 L112.172 1222.14 L112.172 1216.26 Z" fill="#000000" fill-rule="evenodd" fill-opacity="1" /><path clip-path="url(#clip930)" d="M127.288 1187.58 L145.644 1187.58 L145.644 1191.51 L131.57 1191.51 L131.57 1199.99 Q132.589 1199.64 133.607 1199.48 Q134.626 1199.29 135.644 1199.29 Q141.431 1199.29 144.811 1202.46 Q148.191 1205.63 148.191 1211.05 Q148.191 1216.63 144.718 1219.73 Q141.246 1222.81 134.927 1222.81 Q132.751 1222.81 130.482 1222.44 Q128.237 1222.07 125.83 1221.33 L125.83 1216.63 Q127.913 1217.76 130.135 1218.32 Q132.357 1218.87 134.834 1218.87 Q138.839 1218.87 141.177 1216.77 Q143.515 1214.66 143.515 1211.05 Q143.515 1207.44 141.177 1205.33 Q138.839 1203.23 134.834 1203.23 Q132.959 1203.23 131.084 1203.64 Q129.232 1204.06 127.288 1204.94 L127.288 1187.58 Z" fill="#000000" fill-rule="evenodd" fill-opacity="1" /><path clip-path="url(#clip930)" d="M81.0614 892.107 L99.4178 892.107 L99.4178 896.042 L85.3438 896.042 L85.3438 904.515 Q86.3623 904.167 87.3808 904.005 Q88.3993 903.82 89.4178 903.82 Q95.2049 903.82 98.5845 906.991 Q101.964 910.163 101.964 915.579 Q101.964 921.158 98.4919 924.26 Q95.0197 927.339 88.7003 927.339 Q86.5243 927.339 84.2558 926.968 Q82.0105 926.598 79.6031 925.857 L79.6031 921.158 Q81.6864 922.292 83.9086 922.848 Q86.1308 923.403 88.6077 923.403 Q92.6123 923.403 94.9502 921.297 Q97.2882 919.19 97.2882 915.579 Q97.2882 911.968 94.9502 909.862 Q92.6123 907.755 88.6077 907.755 Q86.7327 907.755 84.8577 908.172 Q83.0058 908.589 81.0614 909.468 L81.0614 892.107 Z" fill="#000000" fill-rule="evenodd" fill-opacity="1" /><path clip-path="url(#clip930)" d="M111.177 920.788 L116.061 920.788 L116.061 926.667 L111.177 926.667 L111.177 920.788 Z" fill="#000000" fill-rule="evenodd" fill-opacity="1" /><path clip-path="url(#clip930)" d="M136.246 895.186 Q132.635 895.186 130.807 898.751 Q129.001 902.292 129.001 909.422 Q129.001 916.528 130.807 920.093 Q132.635 923.635 136.246 923.635 Q139.881 923.635 141.686 920.093 Q143.515 916.528 143.515 909.422 Q143.515 902.292 141.686 898.751 Q139.881 895.186 136.246 895.186 M136.246 891.482 Q142.056 891.482 145.112 896.089 Q148.191 900.672 148.191 909.422 Q148.191 918.149 145.112 922.755 Q142.056 927.339 136.246 927.339 Q130.436 927.339 127.357 922.755 Q124.302 918.149 124.302 909.422 Q124.302 900.672 127.357 896.089 Q130.436 891.482 136.246 891.482 Z" fill="#000000" fill-rule="evenodd" fill-opacity="1" /><path clip-path="url(#clip930)" d="M80.8299 596.636 L103.052 596.636 L103.052 598.626 L90.5058 631.196 L85.6216 631.196 L97.4271 600.571 L80.8299 600.571 L80.8299 596.636 Z" fill="#000000" fill-rule="evenodd" fill-opacity="1" /><path clip-path="url(#clip930)" d="M112.172 625.316 L117.057 625.316 L117.057 631.196 L112.172 631.196 L112.172 625.316 Z" fill="#000000" fill-rule="evenodd" fill-opacity="1" /><path clip-path="url(#clip930)" d="M127.288 596.636 L145.644 596.636 L145.644 600.571 L131.57 600.571 L131.57 609.043 Q132.589 608.696 133.607 608.534 Q134.626 608.349 135.644 608.349 Q141.431 608.349 144.811 611.52 Q148.191 614.691 148.191 620.108 Q148.191 625.686 144.718 628.788 Q141.246 631.867 134.927 631.867 Q132.751 631.867 130.482 631.497 Q128.237 631.126 125.83 630.386 L125.83 625.686 Q127.913 626.821 130.135 627.376 Q132.357 627.932 134.834 627.932 Q138.839 627.932 141.177 625.825 Q143.515 623.719 143.515 620.108 Q143.515 616.497 141.177 614.39 Q138.839 612.284 134.834 612.284 Q132.959 612.284 131.084 612.7 Q129.232 613.117 127.288 613.997 L127.288 596.636 Z" fill="#000000" fill-rule="evenodd" fill-opacity="1" /><path clip-path="url(#clip930)" d="M51.6634 331.789 L59.3023 331.789 L59.3023 305.423 L50.9921 307.09 L50.9921 302.831 L59.256 301.164 L63.9319 301.164 L63.9319 331.789 L71.5707 331.789 L71.5707 335.724 L51.6634 335.724 L51.6634 331.789 Z" fill="#000000" fill-rule="evenodd" fill-opacity="1" /><path clip-path="url(#clip930)" d="M91.0151 304.243 Q87.404 304.243 85.5753 307.808 Q83.7697 311.349 83.7697 318.479 Q83.7697 325.585 85.5753 329.15 Q87.404 332.692 91.0151 332.692 Q94.6493 332.692 96.4548 329.15 Q98.2835 325.585 98.2835 318.479 Q98.2835 311.349 96.4548 307.808 Q94.6493 304.243 91.0151 304.243 M91.0151 300.539 Q96.8252 300.539 99.8808 305.146 Q102.959 309.729 102.959 318.479 Q102.959 327.206 99.8808 331.812 Q96.8252 336.395 91.0151 336.395 Q85.2049 336.395 82.1262 331.812 Q79.0707 327.206 79.0707 318.479 Q79.0707 309.729 82.1262 305.146 Q85.2049 300.539 91.0151 300.539 Z" fill="#000000" fill-rule="evenodd" fill-opacity="1" /><path clip-path="url(#clip930)" d="M111.177 329.845 L116.061 329.845 L116.061 335.724 L111.177 335.724 L111.177 329.845 Z" fill="#000000" fill-rule="evenodd" fill-opacity="1" /><path clip-path="url(#clip930)" d="M136.246 304.243 Q132.635 304.243 130.807 307.808 Q129.001 311.349 129.001 318.479 Q129.001 325.585 130.807 329.15 Q132.635 332.692 136.246 332.692 Q139.881 332.692 141.686 329.15 Q143.515 325.585 143.515 318.479 Q143.515 311.349 141.686 307.808 Q139.881 304.243 136.246 304.243 M136.246 300.539 Q142.056 300.539 145.112 305.146 Q148.191 309.729 148.191 318.479 Q148.191 327.206 145.112 331.812 Q142.056 336.395 136.246 336.395 Q130.436 336.395 127.357 331.812 Q124.302 327.206 124.302 318.479 Q124.302 309.729 127.357 305.146 Q130.436 300.539 136.246 300.539 Z" fill="#000000" fill-rule="evenodd" fill-opacity="1" /><circle clip-path="url(#clip932)" cx="313.759" cy="1387.68" r="14" fill="#009af9" fill-rule="evenodd" fill-opacity="1" stroke="#000000" stroke-opacity="1" stroke-width="3.2"/>
<circle clip-path="url(#clip932)" cx="381.953" cy="1392.59" r="14" fill="#009af9" fill-rule="evenodd" fill-opacity="1" stroke="#000000" stroke-opacity="1" stroke-width="3.2"/>
<circle clip-path="url(#clip932)" cx="450.147" cy="1396.97" r="14" fill="#009af9" fill-rule="evenodd" fill-opacity="1" stroke="#000000" stroke-opacity="1" stroke-width="3.2"/>
<circle clip-path="url(#clip932)" cx="518.341" cy="1400.91" r="14" fill="#009af9" fill-rule="evenodd" fill-opacity="1" stroke="#000000" stroke-opacity="1" stroke-width="3.2"/>
<circle clip-path="url(#clip932)" cx="586.535" cy="1404.49" r="14" fill="#009af9" fill-rule="evenodd" fill-opacity="1" stroke="#000000" stroke-opacity="1" stroke-width="3.2"/>
<circle clip-path="url(#clip932)" cx="654.728" cy="1407.75" r="14" fill="#009af9" fill-rule="evenodd" fill-opacity="1" stroke="#000000" stroke-opacity="1" stroke-width="3.2"/>
<circle clip-path="url(#clip932)" cx="722.922" cy="1410.74" r="14" fill="#009af9" fill-rule="evenodd" fill-opacity="1" stroke="#000000" stroke-opacity="1" stroke-width="3.2"/>
<circle clip-path="url(#clip932)" cx="791.116" cy="1413.49" r="14" fill="#009af9" fill-rule="evenodd" fill-opacity="1" stroke="#000000" stroke-opacity="1" stroke-width="3.2"/>
<circle clip-path="url(#clip932)" cx="859.31" cy="1416.04" r="14" fill="#009af9" fill-rule="evenodd" fill-opacity="1" stroke="#000000" stroke-opacity="1" stroke-width="3.2"/>
<circle clip-path="url(#clip932)" cx="927.504" cy="1418.41" r="14" fill="#009af9" fill-rule="evenodd" fill-opacity="1" stroke="#000000" stroke-opacity="1" stroke-width="3.2"/>
<circle clip-path="url(#clip932)" cx="995.698" cy="1420.61" r="14" fill="#009af9" fill-rule="evenodd" fill-opacity="1" stroke="#000000" stroke-opacity="1" stroke-width="3.2"/>
<circle clip-path="url(#clip932)" cx="1063.89" cy="1422.67" r="14" fill="#009af9" fill-rule="evenodd" fill-opacity="1" stroke="#000000" stroke-opacity="1" stroke-width="3.2"/>
<circle clip-path="url(#clip932)" cx="1132.09" cy="1424.61" r="14" fill="#009af9" fill-rule="evenodd" fill-opacity="1" stroke="#000000" stroke-opacity="1" stroke-width="3.2"/>
<circle clip-path="url(#clip932)" cx="1200.28" cy="1426.42" r="14" fill="#009af9" fill-rule="evenodd" fill-opacity="1" stroke="#000000" stroke-opacity="1" stroke-width="3.2"/>
<circle clip-path="url(#clip932)" cx="1268.47" cy="1428.13" r="14" fill="#009af9" fill-rule="evenodd" fill-opacity="1" stroke="#000000" stroke-opacity="1" stroke-width="3.2"/>
<circle clip-path="url(#clip932)" cx="1336.67" cy="1429.75" r="14" fill="#009af9" fill-rule="evenodd" fill-opacity="1" stroke="#000000" stroke-opacity="1" stroke-width="3.2"/>
<circle clip-path="url(#clip932)" cx="1404.86" cy="1431.28" r="14" fill="#009af9" fill-rule="evenodd" fill-opacity="1" stroke="#000000" stroke-opacity="1" stroke-width="3.2"/>
<circle clip-path="url(#clip932)" cx="1473.05" cy="1432.73" r="14" fill="#009af9" fill-rule="evenodd" fill-opacity="1" stroke="#000000" stroke-opacity="1" stroke-width="3.2"/>
<circle clip-path="url(#clip932)" cx="1541.25" cy="1434.1" r="14" fill="#009af9" fill-rule="evenodd" fill-opacity="1" stroke="#000000" stroke-opacity="1" stroke-width="3.2"/>
<circle clip-path="url(#clip932)" cx="1609.44" cy="1435.41" r="14" fill="#009af9" fill-rule="evenodd" fill-opacity="1" stroke="#000000" stroke-opacity="1" stroke-width="3.2"/>
<circle clip-path="url(#clip932)" cx="1677.64" cy="1436.65" r="14" fill="#009af9" fill-rule="evenodd" fill-opacity="1" stroke="#000000" stroke-opacity="1" stroke-width="3.2"/>
<circle clip-path="url(#clip932)" cx="1745.83" cy="1437.84" r="14" fill="#009af9" fill-rule="evenodd" fill-opacity="1" stroke="#000000" stroke-opacity="1" stroke-width="3.2"/>
<circle clip-path="url(#clip932)" cx="1814.02" cy="1438.98" r="14" fill="#009af9" fill-rule="evenodd" fill-opacity="1" stroke="#000000" stroke-opacity="1" stroke-width="3.2"/>
<circle clip-path="url(#clip932)" cx="1882.22" cy="1440.07" r="14" fill="#009af9" fill-rule="evenodd" fill-opacity="1" stroke="#000000" stroke-opacity="1" stroke-width="3.2"/>
<circle clip-path="url(#clip932)" cx="1950.41" cy="1441.11" r="14" fill="#009af9" fill-rule="evenodd" fill-opacity="1" stroke="#000000" stroke-opacity="1" stroke-width="3.2"/>
<circle clip-path="url(#clip932)" cx="2018.61" cy="1442.1" r="14" fill="#009af9" fill-rule="evenodd" fill-opacity="1" stroke="#000000" stroke-opacity="1" stroke-width="3.2"/>
<circle clip-path="url(#clip932)" cx="2086.8" cy="1443.06" r="14" fill="#009af9" fill-rule="evenodd" fill-opacity="1" stroke="#000000" stroke-opacity="1" stroke-width="3.2"/>
<circle clip-path="url(#clip932)" cx="2154.99" cy="1443.98" r="14" fill="#009af9" fill-rule="evenodd" fill-opacity="1" stroke="#000000" stroke-opacity="1" stroke-width="3.2"/>
<circle clip-path="url(#clip932)" cx="2223.19" cy="1444.86" r="14" fill="#009af9" fill-rule="evenodd" fill-opacity="1" stroke="#000000" stroke-opacity="1" stroke-width="3.2"/>
<circle clip-path="url(#clip932)" cx="2291.38" cy="1445.72" r="14" fill="#009af9" fill-rule="evenodd" fill-opacity="1" stroke="#000000" stroke-opacity="1" stroke-width="3.2"/>
<polyline clip-path="url(#clip932)" style="stroke:#e26f46; stroke-linecap:butt; stroke-linejoin:round; stroke-width:4; stroke-opacity:1; fill:none" points="
  245.565,1382.14 266.023,1383.88 286.481,1385.55 306.94,1387.16 327.398,1388.71 347.856,1390.21 368.314,1391.65 388.772,1393.04 409.23,1394.39 429.689,1395.68 
  450.147,1396.93 470.605,1398.13 491.063,1399.29 511.521,1400.4 531.979,1401.47 552.438,1402.48 572.896,1403.44 593.354,1404.35 613.812,1405.21 634.27,1406 
  654.728,1406.73 675.187,1407.4 695.645,1407.99 716.103,1408.51 736.561,1408.94 757.019,1409.29 777.477,1409.54 797.936,1409.69 818.394,1409.73 838.852,1409.65 
  859.31,1409.45 879.768,1409.11 900.226,1408.63 920.685,1408 941.143,1407.2 961.601,1406.23 982.059,1405.07 1002.52,1403.72 1022.98,1402.16 1043.43,1400.38 
  1063.89,1398.37 1084.35,1396.11 1104.81,1393.58 1125.27,1390.78 1145.72,1387.7 1166.18,1384.3 1186.64,1380.59 1207.1,1376.54 1227.56,1372.14 1248.02,1367.36 
  1268.47,1362.2 1288.93,1356.63 1309.39,1350.64 1329.85,1344.2 1350.31,1337.3 1370.76,1329.92 1391.22,1322.03 1411.68,1313.63 1432.14,1304.67 1452.6,1295.15 
  1473.05,1285.05 1493.51,1274.33 1513.97,1262.98 1534.43,1250.97 1554.89,1238.28 1575.35,1224.88 1595.8,1210.76 1616.26,1195.87 1636.72,1180.21 1657.18,1163.74 
  1677.64,1146.43 1698.09,1128.26 1718.55,1109.2 1739.01,1089.23 1759.47,1068.31 1779.93,1046.41 1800.39,1023.51 1820.84,999.578 1841.3,974.579 1861.76,948.484 
  1882.22,921.263 1902.68,892.883 1923.13,863.313 1943.59,832.519 1964.05,800.469 1984.51,767.129 2004.97,732.464 2025.43,696.441 2045.88,659.025 2066.34,620.179 
  2086.8,579.869 2107.26,538.058 2127.72,494.708 2148.17,449.783 2168.63,403.246 2189.09,355.057 2209.55,305.178 2230.01,253.57 2250.47,200.194 2270.92,145.01 
  2291.38,87.9763 
  "/>
<polyline clip-path="url(#clip932)" style="stroke:#3da44d; stroke-linecap:butt; stroke-linejoin:round; stroke-width:4; stroke-opacity:1; fill:none" points="
  245.565,1382.14 248.895,1382.43 252.225,1382.72 255.555,1383 258.885,1383.28 289.674,1385.81 320.463,1388.19 351.252,1390.45 382.041,1392.59 400.544,1393.83 
  419.048,1395.03 437.551,1396.19 456.054,1397.33 487.342,1399.17 518.63,1400.93 552.618,1402.75 586.605,1404.49 617.939,1406.02 649.273,1407.49 682.866,1409.01 
  716.459,1410.46 755.38,1412.07 794.3,1413.61 828.889,1414.92 863.477,1416.18 893.808,1417.24 924.138,1418.27 990.276,1420.41 1056.81,1422.43 1130.36,1424.51 
  1200.35,1426.36 1273.12,1428.17 1334.38,1429.6 1409.17,1431.26 1477.68,1432.69 1540.96,1433.95 1605.06,1435.16 1676.89,1436.45 1741.98,1437.57 1816.51,1438.78 
  1885.52,1439.85 1953.55,1440.86 2019.6,1441.8 2087.32,1442.72 2161.5,1443.69 2269.27,1445.02 2291.38,1445.28 
  "/>
<path clip-path="url(#clip930)" d="
M1837.11 302.578 L2280.47 302.578 L2280.47 95.2176 L1837.11 95.2176  Z
  " fill="#ffffff" fill-rule="evenodd" fill-opacity="1"/>
<polyline clip-path="url(#clip930)" style="stroke:#000000; stroke-linecap:butt; stroke-linejoin:round; stroke-width:4; stroke-opacity:1; fill:none" points="
  1837.11,302.578 2280.47,302.578 2280.47,95.2176 1837.11,95.2176 1837.11,302.578 
  "/>
<path clip-path="url(#clip930)" d="M2046.38 128.319 L2046.38 131.861 L2042.3 131.861 Q2040.01 131.861 2039.11 132.787 Q2038.23 133.713 2038.23 136.12 L2038.23 138.412 L2045.24 138.412 L2045.24 141.722 L2038.23 141.722 L2038.23 164.338 L2033.95 164.338 L2033.95 141.722 L2029.87 141.722 L2029.87 138.412 L2033.95 138.412 L2033.95 136.606 Q2033.95 132.278 2035.96 130.31 Q2037.98 128.319 2042.35 128.319 L2046.38 128.319 Z" fill="#000000" fill-rule="evenodd" fill-opacity="1" /><path clip-path="url(#clip930)" d="M2069.13 160.449 L2069.13 174.199 L2064.85 174.199 L2064.85 138.412 L2069.13 138.412 L2069.13 142.347 Q2070.48 140.032 2072.51 138.921 Q2074.57 137.787 2077.42 137.787 Q2082.14 137.787 2085.08 141.537 Q2088.04 145.287 2088.04 151.398 Q2088.04 157.509 2085.08 161.259 Q2082.14 165.009 2077.42 165.009 Q2074.57 165.009 2072.51 163.898 Q2070.48 162.763 2069.13 160.449 M2083.62 151.398 Q2083.62 146.699 2081.68 144.037 Q2079.76 141.352 2076.38 141.352 Q2073 141.352 2071.05 144.037 Q2069.13 146.699 2069.13 151.398 Q2069.13 156.097 2071.05 158.782 Q2073 161.444 2076.38 161.444 Q2079.76 161.444 2081.68 158.782 Q2083.62 156.097 2083.62 151.398 Z" fill="#000000" fill-rule="evenodd" fill-opacity="1" /><path clip-path="url(#clip930)" d="M2105.15 141.398 Q2101.73 141.398 2099.73 144.083 Q2097.74 146.745 2097.74 151.398 Q2097.74 156.051 2099.71 158.736 Q2101.7 161.398 2105.15 161.398 Q2108.55 161.398 2110.54 158.713 Q2112.54 156.027 2112.54 151.398 Q2112.54 146.791 2110.54 144.106 Q2108.55 141.398 2105.15 141.398 M2105.15 137.787 Q2110.71 137.787 2113.88 141.398 Q2117.05 145.009 2117.05 151.398 Q2117.05 157.764 2113.88 161.398 Q2110.71 165.009 2105.15 165.009 Q2099.57 165.009 2096.4 161.398 Q2093.25 157.764 2093.25 151.398 Q2093.25 145.009 2096.4 141.398 Q2099.57 137.787 2105.15 137.787 Z" fill="#000000" fill-rule="evenodd" fill-opacity="1" /><path clip-path="url(#clip930)" d="M2124.11 138.412 L2128.37 138.412 L2128.37 164.338 L2124.11 164.338 L2124.11 138.412 M2124.11 128.319 L2128.37 128.319 L2128.37 133.713 L2124.11 133.713 L2124.11 128.319 Z" fill="#000000" fill-rule="evenodd" fill-opacity="1" /><path clip-path="url(#clip930)" d="M2158.83 148.689 L2158.83 164.338 L2154.57 164.338 L2154.57 148.828 Q2154.57 145.148 2153.14 143.319 Q2151.7 141.49 2148.83 141.49 Q2145.38 141.49 2143.39 143.69 Q2141.4 145.889 2141.4 149.685 L2141.4 164.338 L2137.12 164.338 L2137.12 138.412 L2141.4 138.412 L2141.4 142.44 Q2142.93 140.102 2144.99 138.944 Q2147.07 137.787 2149.78 137.787 Q2154.25 137.787 2156.54 140.565 Q2158.83 143.319 2158.83 148.689 Z" fill="#000000" fill-rule="evenodd" fill-opacity="1" /><path clip-path="url(#clip930)" d="M2171.54 131.051 L2171.54 138.412 L2180.31 138.412 L2180.31 141.722 L2171.54 141.722 L2171.54 155.796 Q2171.54 158.967 2172.4 159.87 Q2173.28 160.773 2175.94 160.773 L2180.31 160.773 L2180.31 164.338 L2175.94 164.338 Q2171.01 164.338 2169.13 162.509 Q2167.26 160.657 2167.26 155.796 L2167.26 141.722 L2164.13 141.722 L2164.13 138.412 L2167.26 138.412 L2167.26 131.051 L2171.54 131.051 Z" fill="#000000" fill-rule="evenodd" fill-opacity="1" /><path clip-path="url(#clip930)" d="M2202.44 139.176 L2202.44 143.203 Q2200.64 142.277 2198.69 141.815 Q2196.75 141.352 2194.66 141.352 Q2191.49 141.352 2189.9 142.324 Q2188.32 143.296 2188.32 145.24 Q2188.32 146.722 2189.46 147.578 Q2190.59 148.412 2194.02 149.176 L2195.47 149.5 Q2200.01 150.472 2201.91 152.254 Q2203.83 154.014 2203.83 157.185 Q2203.83 160.796 2200.96 162.902 Q2198.11 165.009 2193.11 165.009 Q2191.03 165.009 2188.76 164.592 Q2186.52 164.199 2184.02 163.388 L2184.02 158.99 Q2186.38 160.217 2188.67 160.842 Q2190.96 161.444 2193.21 161.444 Q2196.22 161.444 2197.84 160.426 Q2199.46 159.384 2199.46 157.509 Q2199.46 155.773 2198.28 154.847 Q2197.12 153.921 2193.16 153.064 L2191.68 152.717 Q2187.72 151.884 2185.96 150.171 Q2184.2 148.435 2184.2 145.426 Q2184.2 141.768 2186.79 139.778 Q2189.39 137.787 2194.16 137.787 Q2196.52 137.787 2198.6 138.134 Q2200.68 138.481 2202.44 139.176 Z" fill="#000000" fill-rule="evenodd" fill-opacity="1" /><polyline clip-path="url(#clip930)" style="stroke:#e26f46; stroke-linecap:butt; stroke-linejoin:round; stroke-width:4; stroke-opacity:1; fill:none" points="
  1861.21,198.898 2005.78,198.898 
  "/>
<path clip-path="url(#clip930)" d="M2029.87 181.618 L2059.11 181.618 L2059.11 185.553 L2046.84 185.553 L2046.84 216.178 L2042.14 216.178 L2042.14 185.553 L2029.87 185.553 L2029.87 181.618 Z" fill="#000000" fill-rule="evenodd" fill-opacity="1" /><path clip-path="url(#clip930)" d="M2067.37 203.145 Q2062.21 203.145 2060.22 204.326 Q2058.23 205.506 2058.23 208.354 Q2058.23 210.622 2059.71 211.965 Q2061.22 213.284 2063.79 213.284 Q2067.33 213.284 2069.46 210.784 Q2071.61 208.261 2071.61 204.094 L2071.61 203.145 L2067.37 203.145 M2075.87 201.386 L2075.87 216.178 L2071.61 216.178 L2071.61 212.242 Q2070.15 214.603 2067.98 215.738 Q2065.8 216.849 2062.65 216.849 Q2058.67 216.849 2056.31 214.627 Q2053.97 212.381 2053.97 208.631 Q2053.97 204.256 2056.89 202.034 Q2059.83 199.812 2065.64 199.812 L2071.61 199.812 L2071.61 199.395 Q2071.61 196.455 2069.67 194.858 Q2067.74 193.238 2064.25 193.238 Q2062.03 193.238 2059.92 193.77 Q2057.81 194.303 2055.87 195.367 L2055.87 191.432 Q2058.21 190.53 2060.41 190.09 Q2062.61 189.627 2064.69 189.627 Q2070.31 189.627 2073.09 192.543 Q2075.87 195.46 2075.87 201.386 Z" fill="#000000" fill-rule="evenodd" fill-opacity="1" /><path clip-path="url(#clip930)" d="M2095.43 218.585 Q2093.62 223.215 2091.91 224.627 Q2090.2 226.039 2087.33 226.039 L2083.92 226.039 L2083.92 222.474 L2086.42 222.474 Q2088.18 222.474 2089.16 221.64 Q2090.13 220.807 2091.31 217.705 L2092.07 215.761 L2081.59 190.252 L2086.1 190.252 L2094.2 210.529 L2102.3 190.252 L2106.82 190.252 L2095.43 218.585 Z" fill="#000000" fill-rule="evenodd" fill-opacity="1" /><path clip-path="url(#clip930)" d="M2112.7 180.159 L2116.96 180.159 L2116.96 216.178 L2112.7 216.178 L2112.7 180.159 Z" fill="#000000" fill-rule="evenodd" fill-opacity="1" /><path clip-path="url(#clip930)" d="M2135.91 193.238 Q2132.49 193.238 2130.5 195.923 Q2128.51 198.585 2128.51 203.238 Q2128.51 207.891 2130.48 210.576 Q2132.47 213.238 2135.91 213.238 Q2139.32 213.238 2141.31 210.553 Q2143.3 207.867 2143.3 203.238 Q2143.3 198.631 2141.31 195.946 Q2139.32 193.238 2135.91 193.238 M2135.91 189.627 Q2141.47 189.627 2144.64 193.238 Q2147.81 196.849 2147.81 203.238 Q2147.81 209.604 2144.64 213.238 Q2141.47 216.849 2135.91 216.849 Q2130.34 216.849 2127.16 213.238 Q2124.02 209.604 2124.02 203.238 Q2124.02 196.849 2127.16 193.238 Q2130.34 189.627 2135.91 189.627 Z" fill="#000000" fill-rule="evenodd" fill-opacity="1" /><path clip-path="url(#clip930)" d="M2169.9 194.233 Q2169.18 193.817 2168.32 193.631 Q2167.49 193.423 2166.47 193.423 Q2162.86 193.423 2160.91 195.784 Q2158.99 198.122 2158.99 202.52 L2158.99 216.178 L2154.71 216.178 L2154.71 190.252 L2158.99 190.252 L2158.99 194.28 Q2160.34 191.918 2162.49 190.784 Q2164.64 189.627 2167.72 189.627 Q2168.16 189.627 2168.69 189.696 Q2169.22 189.743 2169.87 189.858 L2169.9 194.233 Z" fill="#000000" fill-rule="evenodd" fill-opacity="1" /><path clip-path="url(#clip930)" d="M2202.56 180.159 L2202.56 183.701 L2198.48 183.701 Q2196.19 183.701 2195.29 184.627 Q2194.41 185.553 2194.41 187.96 L2194.41 190.252 L2201.42 190.252 L2201.42 193.562 L2194.41 193.562 L2194.41 216.178 L2190.13 216.178 L2190.13 193.562 L2186.05 193.562 L2186.05 190.252 L2190.13 190.252 L2190.13 188.446 Q2190.13 184.118 2192.14 182.15 Q2194.16 180.159 2198.53 180.159 L2202.56 180.159 Z" fill="#000000" fill-rule="evenodd" fill-opacity="1" /><path clip-path="url(#clip930)" d="M2206.12 190.252 L2210.38 190.252 L2210.38 216.178 L2206.12 216.178 L2206.12 190.252 M2206.12 180.159 L2210.38 180.159 L2210.38 185.553 L2206.12 185.553 L2206.12 180.159 Z" fill="#000000" fill-rule="evenodd" fill-opacity="1" /><path clip-path="url(#clip930)" d="M2223.51 182.891 L2223.51 190.252 L2232.28 190.252 L2232.28 193.562 L2223.51 193.562 L2223.51 207.636 Q2223.51 210.807 2224.36 211.71 Q2225.24 212.613 2227.91 212.613 L2232.28 212.613 L2232.28 216.178 L2227.91 216.178 Q2222.97 216.178 2221.1 214.349 Q2219.22 212.497 2219.22 207.636 L2219.22 193.562 L2216.1 193.562 L2216.1 190.252 L2219.22 190.252 L2219.22 182.891 L2223.51 182.891 Z" fill="#000000" fill-rule="evenodd" fill-opacity="1" /><polyline clip-path="url(#clip930)" style="stroke:#3da44d; stroke-linecap:butt; stroke-linejoin:round; stroke-width:4; stroke-opacity:1; fill:none" points="
  1861.21,250.738 2005.78,250.738 
  "/>
<path clip-path="url(#clip930)" d="M2034.55 237.3 L2034.55 250.286 L2040.43 250.286 Q2043.69 250.286 2045.48 248.596 Q2047.26 246.907 2047.26 243.782 Q2047.26 240.68 2045.48 238.99 Q2043.69 237.3 2040.43 237.3 L2034.55 237.3 M2029.87 233.458 L2040.43 233.458 Q2046.24 233.458 2049.2 236.096 Q2052.19 238.712 2052.19 243.782 Q2052.19 248.897 2049.2 251.513 Q2046.24 254.129 2040.43 254.129 L2034.55 254.129 L2034.55 268.018 L2029.87 268.018 L2029.87 233.458 Z" fill="#000000" fill-rule="evenodd" fill-opacity="1" /><path clip-path="url(#clip930)" d="M2067.93 254.985 Q2062.77 254.985 2060.78 256.166 Q2058.79 257.346 2058.79 260.194 Q2058.79 262.462 2060.27 263.805 Q2061.77 265.124 2064.34 265.124 Q2067.88 265.124 2070.01 262.624 Q2072.17 260.101 2072.17 255.934 L2072.17 254.985 L2067.93 254.985 M2076.42 253.226 L2076.42 268.018 L2072.17 268.018 L2072.17 264.082 Q2070.71 266.443 2068.53 267.578 Q2066.36 268.689 2063.21 268.689 Q2059.23 268.689 2056.86 266.467 Q2054.53 264.221 2054.53 260.471 Q2054.53 256.096 2057.44 253.874 Q2060.38 251.652 2066.19 251.652 L2072.17 251.652 L2072.17 251.235 Q2072.17 248.295 2070.22 246.698 Q2068.3 245.078 2064.8 245.078 Q2062.58 245.078 2060.48 245.61 Q2058.37 246.143 2056.42 247.207 L2056.42 243.272 Q2058.76 242.37 2060.96 241.93 Q2063.16 241.467 2065.24 241.467 Q2070.87 241.467 2073.65 244.383 Q2076.42 247.3 2076.42 253.226 Z" fill="#000000" fill-rule="evenodd" fill-opacity="1" /><path clip-path="url(#clip930)" d="M2102.26 246.027 L2102.26 231.999 L2106.52 231.999 L2106.52 268.018 L2102.26 268.018 L2102.26 264.129 Q2100.92 266.443 2098.85 267.578 Q2096.82 268.689 2093.95 268.689 Q2089.25 268.689 2086.29 264.939 Q2083.35 261.189 2083.35 255.078 Q2083.35 248.967 2086.29 245.217 Q2089.25 241.467 2093.95 241.467 Q2096.82 241.467 2098.85 242.601 Q2100.92 243.712 2102.26 246.027 M2087.74 255.078 Q2087.74 259.777 2089.67 262.462 Q2091.61 265.124 2094.99 265.124 Q2098.37 265.124 2100.31 262.462 Q2102.26 259.777 2102.26 255.078 Q2102.26 250.379 2100.31 247.717 Q2098.37 245.032 2094.99 245.032 Q2091.61 245.032 2089.67 247.717 Q2087.74 250.379 2087.74 255.078 Z" fill="#000000" fill-rule="evenodd" fill-opacity="1" /><path clip-path="url(#clip930)" d="M2137.47 253.99 L2137.47 256.073 L2117.88 256.073 Q2118.16 260.471 2120.52 262.786 Q2122.91 265.078 2127.14 265.078 Q2129.6 265.078 2131.89 264.476 Q2134.2 263.874 2136.47 262.67 L2136.47 266.698 Q2134.18 267.67 2131.77 268.18 Q2129.36 268.689 2126.89 268.689 Q2120.68 268.689 2117.05 265.078 Q2113.44 261.467 2113.44 255.309 Q2113.44 248.944 2116.86 245.217 Q2120.31 241.467 2126.15 241.467 Q2131.38 241.467 2134.41 244.846 Q2137.47 248.203 2137.47 253.99 M2133.21 252.74 Q2133.16 249.245 2131.24 247.161 Q2129.34 245.078 2126.19 245.078 Q2122.63 245.078 2120.48 247.092 Q2118.35 249.106 2118.02 252.763 L2133.21 252.74 Z" fill="#000000" fill-rule="evenodd" fill-opacity="1" /></svg>
