<?xml version="1.0" encoding="utf-8"?>
<svg xmlns="http://www.w3.org/2000/svg" xmlns:xlink="http://www.w3.org/1999/xlink" width="600" height="400" viewBox="0 0 2400 1600">
<defs>
  <clipPath id="clip570">
    <rect x="0" y="0" width="2400" height="1600"/>
  </clipPath>
</defs>
<path clip-path="url(#clip570)" d="
M0 1600 L2400 1600 L2400 0 L0 0  Z
  " fill="#ffffff" fill-rule="evenodd" fill-opacity="1"/>
<defs>
  <clipPath id="clip571">
    <rect x="480" y="0" width="1681" height="1600"/>
  </clipPath>
</defs>
<path clip-path="url(#clip570)" d="
M279.704 1423.18 L2352.76 1423.18 L2352.76 123.472 L279.704 123.472  Z
  " fill="#ffffff" fill-rule="evenodd" fill-opacity="1"/>
<defs>
  <clipPath id="clip572">
    <rect x="279" y="123" width="2074" height="1301"/>
  </clipPath>
</defs>
<polyline clip-path="url(#clip572)" style="stroke:#000000; stroke-linecap:butt; stroke-linejoin:round; stroke-width:2; stroke-opacity:0.1; fill:none" points="
  750.103,1423.18 750.103,123.472 
  "/>
<polyline clip-path="url(#clip572)" style="stroke:#000000; stroke-linecap:butt; stroke-linejoin:round; stroke-width:2; stroke-opacity:0.1; fill:none" points="
  1264.76,1423.18 1264.76,123.472 
  "/>
<polyline clip-path="url(#clip572)" style="stroke:#000000; stroke-linecap:butt; stroke-linejoin:round; stroke-width:2; stroke-opacity:0.1; fill:none" points="
  1779.42,1423.18 1779.42,123.472 
  "/>
<polyline clip-path="url(#clip572)" style="stroke:#000000; stroke-linecap:butt; stroke-linejoin:round; stroke-width:2; stroke-opacity:0.1; fill:none" points="
  2294.08,1423.18 2294.08,123.472 
  "/>
<polyline clip-path="url(#clip570)" style="stroke:#000000; stroke-linecap:butt; stroke-linejoin:round; stroke-width:4; stroke-opacity:1; fill:none" points="
  279.704,1423.18 2352.76,1423.18 
  "/>
<polyline clip-path="url(#clip570)" style="stroke:#000000; stroke-linecap:butt; stroke-linejoin:round; stroke-width:4; stroke-opacity:1; fill:none" points="
  750.103,1423.18 750.103,1404.28 
  "/>
<polyline clip-path="url(#clip570)" style="stroke:#000000; stroke-linecap:butt; stroke-linejoin:round; stroke-width:4; stroke-opacity:1; fill:none" points="
  1264.76,1423.18 1264.76,1404.28 
  "/>
<polyline clip-path="url(#clip570)" style="stroke:#000000; stroke-linecap:butt; stroke-linejoin:round; stroke-width:4; stroke-opacity:1; fill:none" points="
  1779.42,1423.18 1779.42,1404.28 
  "/>
<polyline clip-path="url(#clip570)" style="stroke:#000000; stroke-linecap:butt; stroke-linejoin:round; stroke-width:4; stroke-opacity:1; fill:none" points="
  2294.08,1423.18 2294.08,1404.28 
  "/>
<path clip-path="url(#clip570)" d="M724.803 1451.02 L743.159 1451.02 L743.159 1454.96 L729.085 1454.96 L729.085 1463.43 Q730.104 1463.08 731.122 1462.92 Q732.141 1462.73 733.159 1462.73 Q738.946 1462.73 742.326 1465.9 Q745.705 1469.08 745.705 1474.49 Q745.705 1480.07 742.233 1483.17 Q738.761 1486.25 732.442 1486.25 Q730.266 1486.25 727.997 1485.88 Q725.752 1485.51 723.344 1484.77 L723.344 1480.07 Q725.428 1481.2 727.65 1481.76 Q729.872 1482.32 732.349 1482.32 Q736.354 1482.32 738.692 1480.21 Q741.029 1478.1 741.029 1474.49 Q741.029 1470.88 738.692 1468.77 Q736.354 1466.67 732.349 1466.67 Q730.474 1466.67 728.599 1467.08 Q726.747 1467.5 724.803 1468.38 L724.803 1451.02 Z" fill="#000000" fill-rule="evenodd" fill-opacity="1" /><path clip-path="url(#clip570)" d="M764.918 1454.1 Q761.307 1454.1 759.478 1457.66 Q757.673 1461.2 757.673 1468.33 Q757.673 1475.44 759.478 1479.01 Q761.307 1482.55 764.918 1482.55 Q768.552 1482.55 770.358 1479.01 Q772.187 1475.44 772.187 1468.33 Q772.187 1461.2 770.358 1457.66 Q768.552 1454.1 764.918 1454.1 M764.918 1450.39 Q770.728 1450.39 773.784 1455 Q776.863 1459.58 776.863 1468.33 Q776.863 1477.06 773.784 1481.67 Q770.728 1486.25 764.918 1486.25 Q759.108 1486.25 756.029 1481.67 Q752.974 1477.06 752.974 1468.33 Q752.974 1459.58 756.029 1455 Q759.108 1450.39 764.918 1450.39 Z" fill="#000000" fill-rule="evenodd" fill-opacity="1" /><path clip-path="url(#clip570)" d="M1224.37 1481.64 L1232.01 1481.64 L1232.01 1455.28 L1223.7 1456.95 L1223.7 1452.69 L1231.96 1451.02 L1236.64 1451.02 L1236.64 1481.64 L1244.28 1481.64 L1244.28 1485.58 L1224.37 1485.58 L1224.37 1481.64 Z" fill="#000000" fill-rule="evenodd" fill-opacity="1" /><path clip-path="url(#clip570)" d="M1263.72 1454.1 Q1260.11 1454.1 1258.28 1457.66 Q1256.48 1461.2 1256.48 1468.33 Q1256.48 1475.44 1258.28 1479.01 Q1260.11 1482.55 1263.72 1482.55 Q1267.36 1482.55 1269.16 1479.01 Q1270.99 1475.44 1270.99 1468.33 Q1270.99 1461.2 1269.16 1457.66 Q1267.36 1454.1 1263.72 1454.1 M1263.72 1450.39 Q1269.53 1450.39 1272.59 1455 Q1275.67 1459.58 1275.67 1468.33 Q1275.67 1477.06 1272.59 1481.67 Q1269.53 1486.25 1263.72 1486.25 Q1257.91 1486.25 1254.83 1481.67 Q1251.78 1477.06 1251.78 1468.33 Q1251.78 1459.58 1254.83 1455 Q1257.91 1450.39 1263.72 1450.39 Z" fill="#000000" fill-rule="evenodd" fill-opacity="1" /><path clip-path="url(#clip570)" d="M1293.88 1454.1 Q1290.27 1454.1 1288.44 1457.66 Q1286.64 1461.2 1286.64 1468.33 Q1286.64 1475.44 1288.44 1479.01 Q1290.27 1482.55 1293.88 1482.55 Q1297.52 1482.55 1299.32 1479.01 Q1301.15 1475.44 1301.15 1468.33 Q1301.15 1461.2 1299.32 1457.66 Q1297.52 1454.1 1293.88 1454.1 M1293.88 1450.39 Q1299.69 1450.39 1302.75 1455 Q1305.83 1459.58 1305.83 1468.33 Q1305.83 1477.06 1302.75 1481.67 Q1299.69 1486.25 1293.88 1486.25 Q1288.07 1486.25 1285 1481.67 Q1281.94 1477.06 1281.94 1468.33 Q1281.94 1459.58 1285 1455 Q1288.07 1450.39 1293.88 1450.39 Z" fill="#000000" fill-rule="evenodd" fill-opacity="1" /><path clip-path="url(#clip570)" d="M1739.03 1481.64 L1746.67 1481.64 L1746.67 1455.28 L1738.36 1456.95 L1738.36 1452.69 L1746.62 1451.02 L1751.3 1451.02 L1751.3 1481.64 L1758.94 1481.64 L1758.94 1485.58 L1739.03 1485.58 L1739.03 1481.64 Z" fill="#000000" fill-rule="evenodd" fill-opacity="1" /><path clip-path="url(#clip570)" d="M1768.43 1451.02 L1786.79 1451.02 L1786.79 1454.96 L1772.71 1454.96 L1772.71 1463.43 Q1773.73 1463.08 1774.75 1462.92 Q1775.77 1462.73 1776.79 1462.73 Q1782.57 1462.73 1785.95 1465.9 Q1789.33 1469.08 1789.33 1474.49 Q1789.33 1480.07 1785.86 1483.17 Q1782.39 1486.25 1776.07 1486.25 Q1773.89 1486.25 1771.62 1485.88 Q1769.38 1485.51 1766.97 1484.77 L1766.97 1480.07 Q1769.05 1481.2 1771.28 1481.76 Q1773.5 1482.32 1775.98 1482.32 Q1779.98 1482.32 1782.32 1480.21 Q1784.66 1478.1 1784.66 1474.49 Q1784.66 1470.88 1782.32 1468.77 Q1779.98 1466.67 1775.98 1466.67 Q1774.1 1466.67 1772.23 1467.08 Q1770.37 1467.5 1768.43 1468.38 L1768.43 1451.02 Z" fill="#000000" fill-rule="evenodd" fill-opacity="1" /><path clip-path="url(#clip570)" d="M1808.54 1454.1 Q1804.93 1454.1 1803.1 1457.66 Q1801.3 1461.2 1801.3 1468.33 Q1801.3 1475.44 1803.1 1479.01 Q1804.93 1482.55 1808.54 1482.55 Q1812.18 1482.55 1813.98 1479.01 Q1815.81 1475.44 1815.81 1468.33 Q1815.81 1461.2 1813.98 1457.66 Q1812.18 1454.1 1808.54 1454.1 M1808.54 1450.39 Q1814.35 1450.39 1817.41 1455 Q1820.49 1459.58 1820.49 1468.33 Q1820.49 1477.06 1817.41 1481.67 Q1814.35 1486.25 1808.54 1486.25 Q1802.73 1486.25 1799.66 1481.67 Q1796.6 1477.06 1796.6 1468.33 Q1796.6 1459.58 1799.66 1455 Q1802.73 1450.39 1808.54 1450.39 Z" fill="#000000" fill-rule="evenodd" fill-opacity="1" /><path clip-path="url(#clip570)" d="M2257.78 1481.64 L2274.1 1481.64 L2274.1 1485.58 L2252.15 1485.58 L2252.15 1481.64 Q2254.81 1478.89 2259.4 1474.26 Q2264 1469.61 2265.18 1468.27 Q2267.43 1465.74 2268.31 1464.01 Q2269.21 1462.25 2269.21 1460.56 Q2269.21 1457.8 2267.27 1456.07 Q2265.35 1454.33 2262.24 1454.33 Q2260.05 1454.33 2257.59 1455.09 Q2255.16 1455.86 2252.38 1457.41 L2252.38 1452.69 Q2255.21 1451.55 2257.66 1450.97 Q2260.11 1450.39 2262.15 1450.39 Q2267.52 1450.39 2270.72 1453.08 Q2273.91 1455.77 2273.91 1460.26 Q2273.91 1462.39 2273.1 1464.31 Q2272.31 1466.2 2270.21 1468.8 Q2269.63 1469.47 2266.53 1472.69 Q2263.43 1475.88 2257.78 1481.64 Z" fill="#000000" fill-rule="evenodd" fill-opacity="1" /><path clip-path="url(#clip570)" d="M2293.91 1454.1 Q2290.3 1454.1 2288.47 1457.66 Q2286.67 1461.2 2286.67 1468.33 Q2286.67 1475.44 2288.47 1479.01 Q2290.3 1482.55 2293.91 1482.55 Q2297.55 1482.55 2299.35 1479.01 Q2301.18 1475.44 2301.18 1468.33 Q2301.18 1461.2 2299.35 1457.66 Q2297.55 1454.1 2293.91 1454.1 M2293.91 1450.39 Q2299.72 1450.39 2302.78 1455 Q2305.86 1459.58 2305.86 1468.33 Q2305.86 1477.06 2302.78 1481.67 Q2299.72 1486.25 2293.91 1486.25 Q2288.1 1486.25 2285.02 1481.67 Q2281.97 1477.06 2281.97 1468.33 Q2281.97 1459.58 2285.02 1455 Q2288.1 1450.39 2293.91 1450.39 Z" fill="#000000" fill-rule="evenodd" fill-opacity="1" /><path clip-path="url(#clip570)" d="M2324.07 1454.1 Q2320.46 1454.1 2318.63 1457.66 Q2316.83 1461.2 2316.83 1468.33 Q2316.83 1475.44 2318.63 1479.01 Q2320.46 1482.55 2324.07 1482.55 Q2327.71 1482.55 2329.51 1479.01 Q2331.34 1475.44 2331.34 1468.33 Q2331.34 1461.2 2329.51 1457.66 Q2327.71 1454.1 2324.07 1454.1 M2324.07 1450.39 Q2329.88 1450.39 2332.94 1455 Q2336.02 1459.58 2336.02 1468.33 Q2336.02 1477.06 2332.94 1481.67 Q2329.88 1486.25 2324.07 1486.25 Q2318.26 1486.25 2315.18 1481.67 Q2312.13 1477.06 2312.13 1468.33 Q2312.13 1459.58 2315.18 1455 Q2318.26 1450.39 2324.07 1450.39 Z" fill="#000000" fill-rule="evenodd" fill-opacity="1" /><path clip-path="url(#clip570)" d="M1281.87 1533.45 L1281.87 1538.98 Q1279.39 1537.71 1276.71 1537.07 Q1274.04 1536.44 1271.18 1536.44 Q1266.82 1536.44 1264.62 1537.77 Q1262.46 1539.11 1262.46 1541.79 Q1262.46 1543.82 1264.02 1545 Q1265.57 1546.15 1270.29 1547.2 L1272.29 1547.64 Q1278.53 1548.98 1281.14 1551.43 Q1283.78 1553.85 1283.78 1558.21 Q1283.78 1563.17 1279.83 1566.07 Q1275.92 1568.97 1269.04 1568.97 Q1266.18 1568.97 1263.06 1568.39 Q1259.97 1567.85 1256.54 1566.74 L1256.54 1560.69 Q1259.78 1562.38 1262.93 1563.24 Q1266.08 1564.07 1269.17 1564.07 Q1273.31 1564.07 1275.54 1562.66 Q1277.77 1561.23 1277.77 1558.65 Q1277.77 1556.27 1276.14 1554.99 Q1274.55 1553.72 1269.11 1552.54 L1267.07 1552.07 Q1261.63 1550.92 1259.21 1548.56 Q1256.79 1546.18 1256.79 1542.04 Q1256.79 1537.01 1260.35 1534.27 Q1263.92 1531.54 1270.48 1531.54 Q1273.72 1531.54 1276.59 1532.01 Q1279.45 1532.49 1281.87 1533.45 Z" fill="#000000" fill-rule="evenodd" fill-opacity="1" /><path clip-path="url(#clip570)" d="M1293.11 1532.4 L1298.96 1532.4 L1298.96 1568.04 L1293.11 1568.04 L1293.11 1532.4 M1293.11 1518.52 L1298.96 1518.52 L1298.96 1525.93 L1293.11 1525.93 L1293.11 1518.52 Z" fill="#000000" fill-rule="evenodd" fill-opacity="1" /><path clip-path="url(#clip570)" d="M1308.67 1532.4 L1336.49 1532.4 L1336.49 1537.74 L1314.46 1563.37 L1336.49 1563.37 L1336.49 1568.04 L1307.87 1568.04 L1307.87 1562.7 L1329.9 1537.07 L1308.67 1537.07 L1308.67 1532.4 Z" fill="#000000" fill-rule="evenodd" fill-opacity="1" /><path clip-path="url(#clip570)" d="M1375.92 1548.76 L1375.92 1551.62 L1349 1551.62 Q1349.38 1557.67 1352.63 1560.85 Q1355.9 1564 1361.73 1564 Q1365.1 1564 1368.25 1563.17 Q1371.44 1562.35 1374.56 1560.69 L1374.56 1566.23 Q1371.4 1567.57 1368.09 1568.27 Q1364.78 1568.97 1361.38 1568.97 Q1352.85 1568.97 1347.85 1564 Q1342.89 1559.04 1342.89 1550.57 Q1342.89 1541.82 1347.6 1536.69 Q1352.34 1531.54 1360.36 1531.54 Q1367.55 1531.54 1371.72 1536.18 Q1375.92 1540.8 1375.92 1548.76 M1370.07 1547.04 Q1370 1542.23 1367.36 1539.37 Q1364.75 1536.5 1360.42 1536.5 Q1355.52 1536.5 1352.56 1539.27 Q1349.63 1542.04 1349.19 1547.07 L1370.07 1547.04 Z" fill="#000000" fill-rule="evenodd" fill-opacity="1" /><polyline clip-path="url(#clip572)" style="stroke:#000000; stroke-linecap:butt; stroke-linejoin:round; stroke-width:2; stroke-opacity:0.1; fill:none" points="
  279.704,1364.04 2352.76,1364.04 
  "/>
<polyline clip-path="url(#clip572)" style="stroke:#000000; stroke-linecap:butt; stroke-linejoin:round; stroke-width:2; stroke-opacity:0.1; fill:none" points="
  279.704,1082.54 2352.76,1082.54 
  "/>
<polyline clip-path="url(#clip572)" style="stroke:#000000; stroke-linecap:butt; stroke-linejoin:round; stroke-width:2; stroke-opacity:0.1; fill:none" points="
  279.704,801.05 2352.76,801.05 
  "/>
<polyline clip-path="url(#clip572)" style="stroke:#000000; stroke-linecap:butt; stroke-linejoin:round; stroke-width:2; stroke-opacity:0.1; fill:none" points="
  279.704,519.556 2352.76,519.556 
  "/>
<polyline clip-path="url(#clip572)" style="stroke:#000000; stroke-linecap:butt; stroke-linejoin:round; stroke-width:2; stroke-opacity:0.1; fill:none" points="
  279.704,238.061 2352.76,238.061 
  "/>
<polyline clip-path="url(#clip570)" style="stroke:#000000; stroke-linecap:butt; stroke-linejoin:round; stroke-width:4; stroke-opacity:1; fill:none" points="
  279.704,1423.18 279.704,123.472 
  "/>
<polyline clip-path="url(#clip570)" style="stroke:#000000; stroke-linecap:butt; stroke-linejoin:round; stroke-width:4; stroke-opacity:1; fill:none" points="
  279.704,1364.04 298.602,1364.04 
  "/>
<polyline clip-path="url(#clip570)" style="stroke:#000000; stroke-linecap:butt; stroke-linejoin:round; stroke-width:4; stroke-opacity:1; fill:none" points="
  279.704,1082.54 298.602,1082.54 
  "/>
<polyline clip-path="url(#clip570)" style="stroke:#000000; stroke-linecap:butt; stroke-linejoin:round; stroke-width:4; stroke-opacity:1; fill:none" points="
  279.704,801.05 298.602,801.05 
  "/>
<polyline clip-path="url(#clip570)" style="stroke:#000000; stroke-linecap:butt; stroke-linejoin:round; stroke-width:4; stroke-opacity:1; fill:none" points="
  279.704,519.556 298.602,519.556 
  "/>
<polyline clip-path="url(#clip570)" style="stroke:#000000; stroke-linecap:butt; stroke-linejoin:round; stroke-width:4; stroke-opacity:1; fill:none" points="
  279.704,238.061 298.602,238.061 
  "/>
<path clip-path="url(#clip570)" d="M126.205 1349.84 Q122.593 1349.84 120.765 1353.4 Q118.959 1356.94 118.959 1364.07 Q118.959 1371.18 120.765 1374.75 Q122.593 1378.29 126.205 1378.29 Q129.839 1378.29 131.644 1374.75 Q133.473 1371.18 133.473 1364.07 Q133.473 1356.94 131.644 1353.4 Q129.839 1349.84 126.205 1349.84 M126.205 1346.13 Q132.015 1346.13 135.07 1350.74 Q138.149 1355.32 138.149 1364.07 Q138.149 1372.8 135.07 1377.41 Q132.015 1381.99 126.205 1381.99 Q120.394 1381.99 117.316 1377.41 Q114.26 1372.8 114.26 1364.07 Q114.26 1355.32 117.316 1350.74 Q120.394 1346.13 126.205 1346.13 Z" fill="#000000" fill-rule="evenodd" fill-opacity="1" /><path clip-path="url(#clip570)" d="M146.366 1375.44 L151.251 1375.44 L151.251 1381.32 L146.366 1381.32 L146.366 1375.44 Z" fill="#000000" fill-rule="evenodd" fill-opacity="1" /><path clip-path="url(#clip570)" d="M171.436 1349.84 Q167.825 1349.84 165.996 1353.4 Q164.19 1356.94 164.19 1364.07 Q164.19 1371.18 165.996 1374.75 Q167.825 1378.29 171.436 1378.29 Q175.07 1378.29 176.876 1374.75 Q178.704 1371.18 178.704 1364.07 Q178.704 1356.94 176.876 1353.4 Q175.07 1349.84 171.436 1349.84 M171.436 1346.13 Q177.246 1346.13 180.301 1350.74 Q183.38 1355.32 183.38 1364.07 Q183.38 1372.8 180.301 1377.41 Q177.246 1381.99 171.436 1381.99 Q165.626 1381.99 162.547 1377.41 Q159.491 1372.8 159.491 1364.07 Q159.491 1355.32 162.547 1350.74 Q165.626 1346.13 171.436 1346.13 Z" fill="#000000" fill-rule="evenodd" fill-opacity="1" /><path clip-path="url(#clip570)" d="M201.598 1349.84 Q197.987 1349.84 196.158 1353.4 Q194.352 1356.94 194.352 1364.07 Q194.352 1371.18 196.158 1374.75 Q197.987 1378.29 201.598 1378.29 Q205.232 1378.29 207.037 1374.75 Q208.866 1371.18 208.866 1364.07 Q208.866 1356.94 207.037 1353.4 Q205.232 1349.84 201.598 1349.84 M201.598 1346.13 Q207.408 1346.13 210.463 1350.74 Q213.542 1355.32 213.542 1364.07 Q213.542 1372.8 210.463 1377.41 Q207.408 1381.99 201.598 1381.99 Q195.787 1381.99 192.709 1377.41 Q189.653 1372.8 189.653 1364.07 Q189.653 1355.32 192.709 1350.74 Q195.787 1346.13 201.598 1346.13 Z" fill="#000000" fill-rule="evenodd" fill-opacity="1" /><path clip-path="url(#clip570)" d="M231.76 1349.84 Q228.148 1349.84 226.32 1353.4 Q224.514 1356.94 224.514 1364.07 Q224.514 1371.18 226.32 1374.75 Q228.148 1378.29 231.76 1378.29 Q235.394 1378.29 237.199 1374.75 Q239.028 1371.18 239.028 1364.07 Q239.028 1356.94 237.199 1353.4 Q235.394 1349.84 231.76 1349.84 M231.76 1346.13 Q237.57 1346.13 240.625 1350.74 Q243.704 1355.32 243.704 1364.07 Q243.704 1372.8 240.625 1377.41 Q237.57 1381.99 231.76 1381.99 Q225.949 1381.99 222.871 1377.41 Q219.815 1372.8 219.815 1364.07 Q219.815 1355.32 222.871 1350.74 Q225.949 1346.13 231.76 1346.13 Z" fill="#000000" fill-rule="evenodd" fill-opacity="1" /><path clip-path="url(#clip570)" d="M127.2 1068.34 Q123.589 1068.34 121.76 1071.91 Q119.955 1075.45 119.955 1082.58 Q119.955 1089.69 121.76 1093.25 Q123.589 1096.79 127.2 1096.79 Q130.834 1096.79 132.64 1093.25 Q134.468 1089.69 134.468 1082.58 Q134.468 1075.45 132.64 1071.91 Q130.834 1068.34 127.2 1068.34 M127.2 1064.64 Q133.01 1064.64 136.066 1069.25 Q139.144 1073.83 139.144 1082.58 Q139.144 1091.31 136.066 1095.91 Q133.01 1100.5 127.2 1100.5 Q121.39 1100.5 118.311 1095.91 Q115.256 1091.31 115.256 1082.58 Q115.256 1073.83 118.311 1069.25 Q121.39 1064.64 127.2 1064.64 Z" fill="#000000" fill-rule="evenodd" fill-opacity="1" /><path clip-path="url(#clip570)" d="M147.362 1093.95 L152.246 1093.95 L152.246 1099.82 L147.362 1099.82 L147.362 1093.95 Z" fill="#000000" fill-rule="evenodd" fill-opacity="1" /><path clip-path="url(#clip570)" d="M172.431 1068.34 Q168.82 1068.34 166.991 1071.91 Q165.186 1075.45 165.186 1082.58 Q165.186 1089.69 166.991 1093.25 Q168.82 1096.79 172.431 1096.79 Q176.065 1096.79 177.871 1093.25 Q179.7 1089.69 179.7 1082.58 Q179.7 1075.45 177.871 1071.91 Q176.065 1068.34 172.431 1068.34 M172.431 1064.64 Q178.241 1064.64 181.297 1069.25 Q184.376 1073.83 184.376 1082.58 Q184.376 1091.31 181.297 1095.91 Q178.241 1100.5 172.431 1100.5 Q166.621 1100.5 163.542 1095.91 Q160.487 1091.31 160.487 1082.58 Q160.487 1073.83 163.542 1069.25 Q166.621 1064.64 172.431 1064.64 Z" fill="#000000" fill-rule="evenodd" fill-opacity="1" /><path clip-path="url(#clip570)" d="M202.593 1068.34 Q198.982 1068.34 197.153 1071.91 Q195.348 1075.45 195.348 1082.58 Q195.348 1089.69 197.153 1093.25 Q198.982 1096.79 202.593 1096.79 Q206.227 1096.79 208.033 1093.25 Q209.861 1089.69 209.861 1082.58 Q209.861 1075.45 208.033 1071.91 Q206.227 1068.34 202.593 1068.34 M202.593 1064.64 Q208.403 1064.64 211.459 1069.25 Q214.537 1073.83 214.537 1082.58 Q214.537 1091.31 211.459 1095.91 Q208.403 1100.5 202.593 1100.5 Q196.783 1100.5 193.704 1095.91 Q190.649 1091.31 190.649 1082.58 Q190.649 1073.83 193.704 1069.25 Q196.783 1064.64 202.593 1064.64 Z" fill="#000000" fill-rule="evenodd" fill-opacity="1" /><path clip-path="url(#clip570)" d="M222.801 1065.26 L241.158 1065.26 L241.158 1069.2 L227.084 1069.2 L227.084 1077.67 Q228.102 1077.32 229.121 1077.16 Q230.139 1076.98 231.158 1076.98 Q236.945 1076.98 240.324 1080.15 Q243.704 1083.32 243.704 1088.74 Q243.704 1094.32 240.232 1097.42 Q236.76 1100.5 230.44 1100.5 Q228.264 1100.5 225.996 1100.13 Q223.75 1099.76 221.343 1099.01 L221.343 1094.32 Q223.426 1095.45 225.648 1096.01 Q227.871 1096.56 230.347 1096.56 Q234.352 1096.56 236.69 1094.45 Q239.028 1092.35 239.028 1088.74 Q239.028 1085.13 236.69 1083.02 Q234.352 1080.91 230.347 1080.91 Q228.473 1080.91 226.598 1081.33 Q224.746 1081.75 222.801 1082.63 L222.801 1065.26 Z" fill="#000000" fill-rule="evenodd" fill-opacity="1" /><path clip-path="url(#clip570)" d="M126.205 786.849 Q122.593 786.849 120.765 790.414 Q118.959 793.955 118.959 801.085 Q118.959 808.191 120.765 811.756 Q122.593 815.298 126.205 815.298 Q129.839 815.298 131.644 811.756 Q133.473 808.191 133.473 801.085 Q133.473 793.955 131.644 790.414 Q129.839 786.849 126.205 786.849 M126.205 783.145 Q132.015 783.145 135.07 787.752 Q138.149 792.335 138.149 801.085 Q138.149 809.812 135.07 814.418 Q132.015 819.001 126.205 819.001 Q120.394 819.001 117.316 814.418 Q114.26 809.812 114.26 801.085 Q114.26 792.335 117.316 787.752 Q120.394 783.145 126.205 783.145 Z" fill="#000000" fill-rule="evenodd" fill-opacity="1" /><path clip-path="url(#clip570)" d="M146.366 812.451 L151.251 812.451 L151.251 818.33 L146.366 818.33 L146.366 812.451 Z" fill="#000000" fill-rule="evenodd" fill-opacity="1" /><path clip-path="url(#clip570)" d="M171.436 786.849 Q167.825 786.849 165.996 790.414 Q164.19 793.955 164.19 801.085 Q164.19 808.191 165.996 811.756 Q167.825 815.298 171.436 815.298 Q175.07 815.298 176.876 811.756 Q178.704 808.191 178.704 801.085 Q178.704 793.955 176.876 790.414 Q175.07 786.849 171.436 786.849 M171.436 783.145 Q177.246 783.145 180.301 787.752 Q183.38 792.335 183.38 801.085 Q183.38 809.812 180.301 814.418 Q177.246 819.001 171.436 819.001 Q165.626 819.001 162.547 814.418 Q159.491 809.812 159.491 801.085 Q159.491 792.335 162.547 787.752 Q165.626 783.145 171.436 783.145 Z" fill="#000000" fill-rule="evenodd" fill-opacity="1" /><path clip-path="url(#clip570)" d="M192.408 814.395 L200.047 814.395 L200.047 788.029 L191.737 789.696 L191.737 785.437 L200 783.77 L204.676 783.77 L204.676 814.395 L212.315 814.395 L212.315 818.33 L192.408 818.33 L192.408 814.395 Z" fill="#000000" fill-rule="evenodd" fill-opacity="1" /><path clip-path="url(#clip570)" d="M231.76 786.849 Q228.148 786.849 226.32 790.414 Q224.514 793.955 224.514 801.085 Q224.514 808.191 226.32 811.756 Q228.148 815.298 231.76 815.298 Q235.394 815.298 237.199 811.756 Q239.028 808.191 239.028 801.085 Q239.028 793.955 237.199 790.414 Q235.394 786.849 231.76 786.849 M231.76 783.145 Q237.57 783.145 240.625 787.752 Q243.704 792.335 243.704 801.085 Q243.704 809.812 240.625 814.418 Q237.57 819.001 231.76 819.001 Q225.949 819.001 222.871 814.418 Q219.815 809.812 219.815 801.085 Q219.815 792.335 222.871 787.752 Q225.949 783.145 231.76 783.145 Z" fill="#000000" fill-rule="evenodd" fill-opacity="1" /><path clip-path="url(#clip570)" d="M127.2 505.354 Q123.589 505.354 121.76 508.919 Q119.955 512.461 119.955 519.59 Q119.955 526.697 121.76 530.262 Q123.589 533.803 127.2 533.803 Q130.834 533.803 132.64 530.262 Q134.468 526.697 134.468 519.59 Q134.468 512.461 132.64 508.919 Q130.834 505.354 127.2 505.354 M127.2 501.651 Q133.01 501.651 136.066 506.257 Q139.144 510.84 139.144 519.59 Q139.144 528.317 136.066 532.924 Q133.01 537.507 127.2 537.507 Q121.39 537.507 118.311 532.924 Q115.256 528.317 115.256 519.59 Q115.256 510.84 118.311 506.257 Q121.39 501.651 127.2 501.651 Z" fill="#000000" fill-rule="evenodd" fill-opacity="1" /><path clip-path="url(#clip570)" d="M147.362 530.956 L152.246 530.956 L152.246 536.836 L147.362 536.836 L147.362 530.956 Z" fill="#000000" fill-rule="evenodd" fill-opacity="1" /><path clip-path="url(#clip570)" d="M172.431 505.354 Q168.82 505.354 166.991 508.919 Q165.186 512.461 165.186 519.59 Q165.186 526.697 166.991 530.262 Q168.82 533.803 172.431 533.803 Q176.065 533.803 177.871 530.262 Q179.7 526.697 179.7 519.59 Q179.7 512.461 177.871 508.919 Q176.065 505.354 172.431 505.354 M172.431 501.651 Q178.241 501.651 181.297 506.257 Q184.376 510.84 184.376 519.59 Q184.376 528.317 181.297 532.924 Q178.241 537.507 172.431 537.507 Q166.621 537.507 163.542 532.924 Q160.487 528.317 160.487 519.59 Q160.487 510.84 163.542 506.257 Q166.621 501.651 172.431 501.651 Z" fill="#000000" fill-rule="evenodd" fill-opacity="1" /><path clip-path="url(#clip570)" d="M193.403 532.9 L201.042 532.9 L201.042 506.535 L192.732 508.201 L192.732 503.942 L200.996 502.276 L205.672 502.276 L205.672 532.9 L213.311 532.9 L213.311 536.836 L193.403 536.836 L193.403 532.9 Z" fill="#000000" fill-rule="evenodd" fill-opacity="1" /><path clip-path="url(#clip570)" d="M222.801 502.276 L241.158 502.276 L241.158 506.211 L227.084 506.211 L227.084 514.683 Q228.102 514.336 229.121 514.174 Q230.139 513.988 231.158 513.988 Q236.945 513.988 240.324 517.16 Q243.704 520.331 243.704 525.748 Q243.704 531.326 240.232 534.428 Q236.76 537.507 230.44 537.507 Q228.264 537.507 225.996 537.136 Q223.75 536.766 221.343 536.025 L221.343 531.326 Q223.426 532.461 225.648 533.016 Q227.871 533.572 230.347 533.572 Q234.352 533.572 236.69 531.465 Q239.028 529.359 239.028 525.748 Q239.028 522.137 236.69 520.03 Q234.352 517.924 230.347 517.924 Q228.473 517.924 226.598 518.34 Q224.746 518.757 222.801 519.637 L222.801 502.276 Z" fill="#000000" fill-rule="evenodd" fill-opacity="1" /><path clip-path="url(#clip570)" d="M126.205 223.86 Q122.593 223.86 120.765 227.424 Q118.959 230.966 118.959 238.096 Q118.959 245.202 120.765 248.767 Q122.593 252.309 126.205 252.309 Q129.839 252.309 131.644 248.767 Q133.473 245.202 133.473 238.096 Q133.473 230.966 131.644 227.424 Q129.839 223.86 126.205 223.86 M126.205 220.156 Q132.015 220.156 135.07 224.762 Q138.149 229.346 138.149 238.096 Q138.149 246.822 135.07 251.429 Q132.015 256.012 126.205 256.012 Q120.394 256.012 117.316 251.429 Q114.26 246.822 114.26 238.096 Q114.26 229.346 117.316 224.762 Q120.394 220.156 126.205 220.156 Z" fill="#000000" fill-rule="evenodd" fill-opacity="1" /><path clip-path="url(#clip570)" d="M146.366 249.461 L151.251 249.461 L151.251 255.341 L146.366 255.341 L146.366 249.461 Z" fill="#000000" fill-rule="evenodd" fill-opacity="1" /><path clip-path="url(#clip570)" d="M171.436 223.86 Q167.825 223.86 165.996 227.424 Q164.19 230.966 164.19 238.096 Q164.19 245.202 165.996 248.767 Q167.825 252.309 171.436 252.309 Q175.07 252.309 176.876 248.767 Q178.704 245.202 178.704 238.096 Q178.704 230.966 176.876 227.424 Q175.07 223.86 171.436 223.86 M171.436 220.156 Q177.246 220.156 180.301 224.762 Q183.38 229.346 183.38 238.096 Q183.38 246.822 180.301 251.429 Q177.246 256.012 171.436 256.012 Q165.626 256.012 162.547 251.429 Q159.491 246.822 159.491 238.096 Q159.491 229.346 162.547 224.762 Q165.626 220.156 171.436 220.156 Z" fill="#000000" fill-rule="evenodd" fill-opacity="1" /><path clip-path="url(#clip570)" d="M195.625 251.406 L211.945 251.406 L211.945 255.341 L190 255.341 L190 251.406 Q192.663 248.651 197.246 244.022 Q201.852 239.369 203.033 238.026 Q205.278 235.503 206.158 233.767 Q207.061 232.008 207.061 230.318 Q207.061 227.563 205.116 225.827 Q203.195 224.091 200.093 224.091 Q197.894 224.091 195.44 224.855 Q193.01 225.619 190.232 227.17 L190.232 222.448 Q193.056 221.313 195.51 220.735 Q197.963 220.156 200 220.156 Q205.371 220.156 208.565 222.841 Q211.76 225.526 211.76 230.017 Q211.76 232.147 210.949 234.068 Q210.162 235.966 208.056 238.559 Q207.477 239.23 204.375 242.447 Q201.274 245.642 195.625 251.406 Z" fill="#000000" fill-rule="evenodd" fill-opacity="1" /><path clip-path="url(#clip570)" d="M231.76 223.86 Q228.148 223.86 226.32 227.424 Q224.514 230.966 224.514 238.096 Q224.514 245.202 226.32 248.767 Q228.148 252.309 231.76 252.309 Q235.394 252.309 237.199 248.767 Q239.028 245.202 239.028 238.096 Q239.028 230.966 237.199 227.424 Q235.394 223.86 231.76 223.86 M231.76 220.156 Q237.57 220.156 240.625 224.762 Q243.704 229.346 243.704 238.096 Q243.704 246.822 240.625 251.429 Q237.57 256.012 231.76 256.012 Q225.949 256.012 222.871 251.429 Q219.815 246.822 219.815 238.096 Q219.815 229.346 222.871 224.762 Q225.949 220.156 231.76 220.156 Z" fill="#000000" fill-rule="evenodd" fill-opacity="1" /><path clip-path="url(#clip570)" d="M18.2347 885.872 L28.3562 885.872 L28.3562 873.809 L32.9077 873.809 L32.9077 885.872 L52.2594 885.872 Q56.6199 885.872 57.8613 884.694 Q59.1026 883.485 59.1026 879.824 L59.1026 873.809 L64.0042 873.809 L64.0042 879.824 Q64.0042 886.604 61.4897 889.182 Q58.9434 891.76 52.2594 891.76 L32.9077 891.76 L32.9077 896.057 L28.3562 896.057 L28.3562 891.76 L18.2347 891.76 L18.2347 885.872 Z" fill="#000000" fill-rule="evenodd" fill-opacity="1" /><path clip-path="url(#clip570)" d="M28.3562 866.106 L28.3562 860.25 L64.0042 860.25 L64.0042 866.106 L28.3562 866.106 M14.479 866.106 L14.479 860.25 L21.895 860.25 L21.895 866.106 L14.479 866.106 Z" fill="#000000" fill-rule="evenodd" fill-opacity="1" /><path clip-path="url(#clip570)" d="M35.1993 820.241 Q31.2526 818.045 29.3747 814.99 Q27.4968 811.934 27.4968 807.796 Q27.4968 802.226 31.4117 799.203 Q35.2948 796.179 42.4881 796.179 L64.0042 796.179 L64.0042 802.067 L42.679 802.067 Q37.5546 802.067 35.072 803.881 Q32.5894 805.696 32.5894 809.42 Q32.5894 813.971 35.6131 816.613 Q38.6368 819.255 43.8567 819.255 L64.0042 819.255 L64.0042 825.143 L42.679 825.143 Q37.5228 825.143 35.072 826.957 Q32.5894 828.771 32.5894 832.559 Q32.5894 837.047 35.6449 839.688 Q38.6686 842.33 43.8567 842.33 L64.0042 842.33 L64.0042 848.219 L28.3562 848.219 L28.3562 842.33 L33.8944 842.33 Q30.616 840.325 29.0564 837.524 Q27.4968 834.723 27.4968 830.872 Q27.4968 826.989 29.4702 824.283 Q31.4436 821.546 35.1993 820.241 Z" fill="#000000" fill-rule="evenodd" fill-opacity="1" /><path clip-path="url(#clip570)" d="M44.7161 754.006 L47.5806 754.006 L47.5806 780.933 Q53.6281 780.551 56.8109 777.305 Q59.9619 774.026 59.9619 768.202 Q59.9619 764.828 59.1344 761.677 Q58.3069 758.494 56.6518 755.375 L62.1899 755.375 Q63.5267 758.526 64.227 761.836 Q64.9272 765.146 64.9272 768.552 Q64.9272 777.082 59.9619 782.079 Q54.9967 787.044 46.5303 787.044 Q37.7774 787.044 32.6531 782.333 Q27.4968 777.591 27.4968 769.57 Q27.4968 762.377 32.1438 758.207 Q36.7589 754.006 44.7161 754.006 M42.9973 759.863 Q38.1912 759.926 35.3266 762.568 Q32.4621 765.178 32.4621 769.507 Q32.4621 774.408 35.2312 777.368 Q38.0002 780.296 43.0292 780.742 L42.9973 759.863 Z" fill="#000000" fill-rule="evenodd" fill-opacity="1" /><path clip-path="url(#clip570)" d="M14.479 724.215 L14.479 710.719 L19.0304 710.719 L19.0304 718.358 L68.0464 718.358 L68.0464 710.719 L72.5979 710.719 L72.5979 724.215 L14.479 724.215 Z" fill="#000000" fill-rule="evenodd" fill-opacity="1" /><path clip-path="url(#clip570)" d="M29.4065 675.517 L34.9447 675.517 Q33.6716 678 33.035 680.673 Q32.3984 683.347 32.3984 686.211 Q32.3984 690.572 33.7352 692.768 Q35.072 694.932 37.7456 694.932 Q39.7826 694.932 40.9603 693.373 Q42.1061 691.813 43.1565 687.102 L43.6021 685.097 Q44.9389 678.859 47.3897 676.249 Q49.8086 673.607 54.1691 673.607 Q59.1344 673.607 62.0308 677.554 Q64.9272 681.469 64.9272 688.344 Q64.9272 691.208 64.3543 694.328 Q63.8132 697.415 62.6992 700.852 L56.6518 700.852 Q58.3387 697.606 59.198 694.455 Q60.0256 691.304 60.0256 688.216 Q60.0256 684.079 58.6251 681.851 Q57.1929 679.623 54.6147 679.623 Q52.2276 679.623 50.9545 681.246 Q49.6813 682.837 48.5037 688.28 L48.0262 690.317 Q46.8804 695.76 44.5251 698.179 Q42.138 700.598 38.0002 700.598 Q32.9713 700.598 30.2341 697.033 Q27.4968 693.468 27.4968 686.912 Q27.4968 683.665 27.9743 680.8 Q28.4517 677.936 29.4065 675.517 Z" fill="#000000" fill-rule="evenodd" fill-opacity="1" /><path clip-path="url(#clip570)" d="M14.479 650.595 L72.5979 650.595 L72.5979 664.09 L68.0464 664.09 L68.0464 656.483 L19.0304 656.483 L19.0304 664.09 L14.479 664.09 L14.479 650.595 Z" fill="#000000" fill-rule="evenodd" fill-opacity="1" /><path clip-path="url(#clip570)" d="M1237.62 43.6931 L1237.62 65.8515 L1250.75 65.8515 Q1257.35 65.8515 1260.51 63.1374 Q1263.71 60.3828 1263.71 54.752 Q1263.71 49.0808 1260.51 46.4072 Q1257.35 43.6931 1250.75 43.6931 L1237.62 43.6931 M1237.62 18.8205 L1237.62 37.0496 L1249.73 37.0496 Q1255.73 37.0496 1258.65 34.8216 Q1261.6 32.5531 1261.6 27.935 Q1261.6 23.3575 1258.65 21.089 Q1255.73 18.8205 1249.73 18.8205 L1237.62 18.8205 M1229.44 12.096 L1250.34 12.096 Q1259.7 12.096 1264.76 15.9849 Q1269.83 19.8737 1269.83 27.0438 Q1269.83 32.5936 1267.23 35.8748 Q1264.64 39.156 1259.62 39.9662 Q1265.65 41.2625 1268.98 45.3944 Q1272.34 49.4858 1272.34 55.6432 Q1272.34 63.745 1266.83 68.1605 Q1261.32 72.576 1251.15 72.576 L1229.44 72.576 L1229.44 12.096 Z" fill="#000000" fill-rule="evenodd" fill-opacity="1" /><path clip-path="url(#clip570)" d="M1324.84 48.0275 L1324.84 51.6733 L1290.57 51.6733 Q1291.05 59.3701 1295.19 63.421 Q1299.36 67.4314 1306.77 67.4314 Q1311.07 67.4314 1315.08 66.3781 Q1319.13 65.3249 1323.1 63.2184 L1323.1 70.267 Q1319.09 71.9684 1314.87 72.8596 Q1310.66 73.7508 1306.33 73.7508 Q1295.47 73.7508 1289.11 67.4314 Q1282.79 61.1119 1282.79 50.3365 Q1282.79 39.1965 1288.79 32.6746 Q1294.82 26.1121 1305.03 26.1121 Q1314.18 26.1121 1319.49 32.0264 Q1324.84 37.9003 1324.84 48.0275 M1317.38 45.84 Q1317.3 39.7232 1313.94 36.0774 Q1310.62 32.4315 1305.11 32.4315 Q1298.87 32.4315 1295.1 35.9558 Q1291.38 39.4801 1290.81 45.8805 L1317.38 45.84 Z" fill="#000000" fill-rule="evenodd" fill-opacity="1" /><path clip-path="url(#clip570)" d="M1366 28.5427 L1366 35.5912 Q1362.84 33.9709 1359.43 33.1607 Q1356.03 32.3505 1352.38 32.3505 Q1346.83 32.3505 1344.04 34.0519 Q1341.28 35.7533 1341.28 39.156 Q1341.28 41.7486 1343.27 43.2475 Q1345.25 44.7058 1351.25 46.0426 L1353.8 46.6097 Q1361.74 48.3111 1365.06 51.4303 Q1368.43 54.509 1368.43 60.0587 Q1368.43 66.3781 1363.4 70.0644 Q1358.42 73.7508 1349.67 73.7508 Q1346.02 73.7508 1342.05 73.0216 Q1338.13 72.3329 1333.75 70.9151 L1333.75 63.2184 Q1337.88 65.3654 1341.89 66.4591 Q1345.9 67.5124 1349.83 67.5124 Q1355.1 67.5124 1357.93 65.73 Q1360.77 63.9071 1360.77 60.6258 Q1360.77 57.5877 1358.7 55.9673 Q1356.68 54.3469 1349.75 52.8481 L1347.16 52.2405 Q1340.23 50.7821 1337.15 47.7845 Q1334.07 44.7463 1334.07 39.4801 Q1334.07 33.0797 1338.61 29.5959 Q1343.15 26.1121 1351.49 26.1121 Q1355.62 26.1121 1359.27 26.7198 Q1362.92 27.3274 1366 28.5427 Z" fill="#000000" fill-rule="evenodd" fill-opacity="1" /><path clip-path="url(#clip570)" d="M1387.67 14.324 L1387.67 27.2059 L1403.02 27.2059 L1403.02 32.9987 L1387.67 32.9987 L1387.67 57.6282 Q1387.67 63.1779 1389.17 64.7578 Q1390.71 66.3376 1395.36 66.3376 L1403.02 66.3376 L1403.02 72.576 L1395.36 72.576 Q1386.74 72.576 1383.45 69.3758 Q1380.17 66.1351 1380.17 57.6282 L1380.17 32.9987 L1374.7 32.9987 L1374.7 27.2059 L1380.17 27.2059 L1380.17 14.324 L1387.67 14.324 Z" fill="#000000" fill-rule="evenodd" fill-opacity="1" /><polyline clip-path="url(#clip572)" style="stroke:#000000; stroke-linecap:butt; stroke-linejoin:round; stroke-width:4; stroke-opacity:1; fill:none" points="
  338.375,1363.97 338.375,1363.95 
  "/>
<polyline clip-path="url(#clip572)" style="stroke:#000000; stroke-linecap:butt; stroke-linejoin:round; stroke-width:4; stroke-opacity:1; fill:none" points="
  441.307,1363.46 441.307,1363.21 
  "/>
<polyline clip-path="url(#clip572)" style="stroke:#000000; stroke-linecap:butt; stroke-linejoin:round; stroke-width:4; stroke-opacity:1; fill:none" points="
  544.239,1362.12 544.239,1360.19 
  "/>
<polyline clip-path="url(#clip572)" style="stroke:#000000; stroke-linecap:butt; stroke-linejoin:round; stroke-width:4; stroke-opacity:1; fill:none" points="
  647.171,1358.42 647.171,1356.11 
  "/>
<polyline clip-path="url(#clip572)" style="stroke:#000000; stroke-linecap:butt; stroke-linejoin:round; stroke-width:4; stroke-opacity:1; fill:none" points="
  750.103,1352.92 750.103,1348.6 
  "/>
<polyline clip-path="url(#clip572)" style="stroke:#000000; stroke-linecap:butt; stroke-linejoin:round; stroke-width:4; stroke-opacity:1; fill:none" points="
  853.036,1343.65 853.036,1335.33 
  "/>
<polyline clip-path="url(#clip572)" style="stroke:#000000; stroke-linecap:butt; stroke-linejoin:round; stroke-width:4; stroke-opacity:1; fill:none" points="
  955.968,1328.11 955.968,1315.52 
  "/>
<polyline clip-path="url(#clip572)" style="stroke:#000000; stroke-linecap:butt; stroke-linejoin:round; stroke-width:4; stroke-opacity:1; fill:none" points="
  1058.9,1308.97 1058.9,1276.53 
  "/>
<polyline clip-path="url(#clip572)" style="stroke:#000000; stroke-linecap:butt; stroke-linejoin:round; stroke-width:4; stroke-opacity:1; fill:none" points="
  1161.83,1279.38 1161.83,1255.91 
  "/>
<polyline clip-path="url(#clip572)" style="stroke:#000000; stroke-linecap:butt; stroke-linejoin:round; stroke-width:4; stroke-opacity:1; fill:none" points="
  1264.76,1267.2 1264.76,1181.12 
  "/>
<polyline clip-path="url(#clip572)" style="stroke:#000000; stroke-linecap:butt; stroke-linejoin:round; stroke-width:4; stroke-opacity:1; fill:none" points="
  1367.7,1204.66 1367.7,1172.62 
  "/>
<polyline clip-path="url(#clip572)" style="stroke:#000000; stroke-linecap:butt; stroke-linejoin:round; stroke-width:4; stroke-opacity:1; fill:none" points="
  1470.63,1137.49 1470.63,1108.78 
  "/>
<polyline clip-path="url(#clip572)" style="stroke:#000000; stroke-linecap:butt; stroke-linejoin:round; stroke-width:4; stroke-opacity:1; fill:none" points="
  1573.56,1088.16 1573.56,1039.52 
  "/>
<polyline clip-path="url(#clip572)" style="stroke:#000000; stroke-linecap:butt; stroke-linejoin:round; stroke-width:4; stroke-opacity:1; fill:none" points="
  1676.49,1007.19 1676.49,951.409 
  "/>
<polyline clip-path="url(#clip572)" style="stroke:#000000; stroke-linecap:butt; stroke-linejoin:round; stroke-width:4; stroke-opacity:1; fill:none" points="
  1779.42,930.3 1779.42,850.269 
  "/>
<polyline clip-path="url(#clip572)" style="stroke:#000000; stroke-linecap:butt; stroke-linejoin:round; stroke-width:4; stroke-opacity:1; fill:none" points="
  1882.36,834.009 1882.36,733.555 
  "/>
<polyline clip-path="url(#clip572)" style="stroke:#000000; stroke-linecap:butt; stroke-linejoin:round; stroke-width:4; stroke-opacity:1; fill:none" points="
  1985.29,738.757 1985.29,568.064 
  "/>
<polyline clip-path="url(#clip572)" style="stroke:#000000; stroke-linecap:butt; stroke-linejoin:round; stroke-width:4; stroke-opacity:1; fill:none" points="
  2088.22,578.368 2088.22,412.144 
  "/>
<polyline clip-path="url(#clip572)" style="stroke:#000000; stroke-linecap:butt; stroke-linejoin:round; stroke-width:4; stroke-opacity:1; fill:none" points="
  2191.15,436.189 2191.15,239.638 
  "/>
<polyline clip-path="url(#clip572)" style="stroke:#000000; stroke-linecap:butt; stroke-linejoin:round; stroke-width:4; stroke-opacity:1; fill:none" points="
  2294.08,263.262 2294.08,160.256 
  "/>
<line clip-path="url(#clip572)" x1="354.375" y1="1363.97" x2="322.375" y2="1363.97" style="stroke:#000000; stroke-width:3.2; stroke-opacity:1"/>
<line clip-path="url(#clip572)" x1="354.375" y1="1363.95" x2="322.375" y2="1363.95" style="stroke:#000000; stroke-width:3.2; stroke-opacity:1"/>
<line clip-path="url(#clip572)" x1="457.307" y1="1363.46" x2="425.307" y2="1363.46" style="stroke:#000000; stroke-width:3.2; stroke-opacity:1"/>
<line clip-path="url(#clip572)" x1="457.307" y1="1363.21" x2="425.307" y2="1363.21" style="stroke:#000000; stroke-width:3.2; stroke-opacity:1"/>
<line clip-path="url(#clip572)" x1="560.239" y1="1362.12" x2="528.239" y2="1362.12" style="stroke:#000000; stroke-width:3.2; stroke-opacity:1"/>
<line clip-path="url(#clip572)" x1="560.239" y1="1360.19" x2="528.239" y2="1360.19" style="stroke:#000000; stroke-width:3.2; stroke-opacity:1"/>
<line clip-path="url(#clip572)" x1="663.171" y1="1358.42" x2="631.171" y2="1358.42" style="stroke:#000000; stroke-width:3.2; stroke-opacity:1"/>
<line clip-path="url(#clip572)" x1="663.171" y1="1356.11" x2="631.171" y2="1356.11" style="stroke:#000000; stroke-width:3.2; stroke-opacity:1"/>
<line clip-path="url(#clip572)" x1="766.103" y1="1352.92" x2="734.103" y2="1352.92" style="stroke:#000000; stroke-width:3.2; stroke-opacity:1"/>
<line clip-path="url(#clip572)" x1="766.103" y1="1348.6" x2="734.103" y2="1348.6" style="stroke:#000000; stroke-width:3.2; stroke-opacity:1"/>
<line clip-path="url(#clip572)" x1="869.036" y1="1343.65" x2="837.036" y2="1343.65" style="stroke:#000000; stroke-width:3.2; stroke-opacity:1"/>
<line clip-path="url(#clip572)" x1="869.036" y1="1335.33" x2="837.036" y2="1335.33" style="stroke:#000000; stroke-width:3.2; stroke-opacity:1"/>
<line clip-path="url(#clip572)" x1="971.968" y1="1328.11" x2="939.968" y2="1328.11" style="stroke:#000000; stroke-width:3.2; stroke-opacity:1"/>
<line clip-path="url(#clip572)" x1="971.968" y1="1315.52" x2="939.968" y2="1315.52" style="stroke:#000000; stroke-width:3.2; stroke-opacity:1"/>
<line clip-path="url(#clip572)" x1="1074.9" y1="1308.97" x2="1042.9" y2="1308.97" style="stroke:#000000; stroke-width:3.2; stroke-opacity:1"/>
<line clip-path="url(#clip572)" x1="1074.9" y1="1276.53" x2="1042.9" y2="1276.53" style="stroke:#000000; stroke-width:3.2; stroke-opacity:1"/>
<line clip-path="url(#clip572)" x1="1177.83" y1="1279.38" x2="1145.83" y2="1279.38" style="stroke:#000000; stroke-width:3.2; stroke-opacity:1"/>
<line clip-path="url(#clip572)" x1="1177.83" y1="1255.91" x2="1145.83" y2="1255.91" style="stroke:#000000; stroke-width:3.2; stroke-opacity:1"/>
<line clip-path="url(#clip572)" x1="1280.76" y1="1267.2" x2="1248.76" y2="1267.2" style="stroke:#000000; stroke-width:3.2; stroke-opacity:1"/>
<line clip-path="url(#clip572)" x1="1280.76" y1="1181.12" x2="1248.76" y2="1181.12" style="stroke:#000000; stroke-width:3.2; stroke-opacity:1"/>
<line clip-path="url(#clip572)" x1="1383.7" y1="1204.66" x2="1351.7" y2="1204.66" style="stroke:#000000; stroke-width:3.2; stroke-opacity:1"/>
<line clip-path="url(#clip572)" x1="1383.7" y1="1172.62" x2="1351.7" y2="1172.62" style="stroke:#000000; stroke-width:3.2; stroke-opacity:1"/>
<line clip-path="url(#clip572)" x1="1486.63" y1="1137.49" x2="1454.63" y2="1137.49" style="stroke:#000000; stroke-width:3.2; stroke-opacity:1"/>
<line clip-path="url(#clip572)" x1="1486.63" y1="1108.78" x2="1454.63" y2="1108.78" style="stroke:#000000; stroke-width:3.2; stroke-opacity:1"/>
<line clip-path="url(#clip572)" x1="1589.56" y1="1088.16" x2="1557.56" y2="1088.16" style="stroke:#000000; stroke-width:3.2; stroke-opacity:1"/>
<line clip-path="url(#clip572)" x1="1589.56" y1="1039.52" x2="1557.56" y2="1039.52" style="stroke:#000000; stroke-width:3.2; stroke-opacity:1"/>
<line clip-path="url(#clip572)" x1="1692.49" y1="1007.19" x2="1660.49" y2="1007.19" style="stroke:#000000; stroke-width:3.2; stroke-opacity:1"/>
<line clip-path="url(#clip572)" x1="1692.49" y1="951.409" x2="1660.49" y2="951.409" style="stroke:#000000; stroke-width:3.2; stroke-opacity:1"/>
<line clip-path="url(#clip572)" x1="1795.42" y1="930.3" x2="1763.42" y2="930.3" style="stroke:#000000; stroke-width:3.2; stroke-opacity:1"/>
<line clip-path="url(#clip572)" x1="1795.42" y1="850.269" x2="1763.42" y2="850.269" style="stroke:#000000; stroke-width:3.2; stroke-opacity:1"/>
<line clip-path="url(#clip572)" x1="1898.36" y1="834.009" x2="1866.36" y2="834.009" style="stroke:#000000; stroke-width:3.2; stroke-opacity:1"/>
<line clip-path="url(#clip572)" x1="1898.36" y1="733.555" x2="1866.36" y2="733.555" style="stroke:#000000; stroke-width:3.2; stroke-opacity:1"/>
<line clip-path="url(#clip572)" x1="2001.29" y1="738.757" x2="1969.29" y2="738.757" style="stroke:#000000; stroke-width:3.2; stroke-opacity:1"/>
<line clip-path="url(#clip572)" x1="2001.29" y1="568.064" x2="1969.29" y2="568.064" style="stroke:#000000; stroke-width:3.2; stroke-opacity:1"/>
<line clip-path="url(#clip572)" x1="2104.22" y1="578.368" x2="2072.22" y2="578.368" style="stroke:#000000; stroke-width:3.2; stroke-opacity:1"/>
<line clip-path="url(#clip572)" x1="2104.22" y1="412.144" x2="2072.22" y2="412.144" style="stroke:#000000; stroke-width:3.2; stroke-opacity:1"/>
<line clip-path="url(#clip572)" x1="2207.15" y1="436.189" x2="2175.15" y2="436.189" style="stroke:#000000; stroke-width:3.2; stroke-opacity:1"/>
<line clip-path="url(#clip572)" x1="2207.15" y1="239.638" x2="2175.15" y2="239.638" style="stroke:#000000; stroke-width:3.2; stroke-opacity:1"/>
<line clip-path="url(#clip572)" x1="2310.08" y1="263.262" x2="2278.08" y2="263.262" style="stroke:#000000; stroke-width:3.2; stroke-opacity:1"/>
<line clip-path="url(#clip572)" x1="2310.08" y1="160.256" x2="2278.08" y2="160.256" style="stroke:#000000; stroke-width:3.2; stroke-opacity:1"/>
<circle clip-path="url(#clip572)" cx="338.375" cy="1363.96" r="14" fill="#009af9" fill-rule="evenodd" fill-opacity="1" stroke="#000000" stroke-opacity="1" stroke-width="3.2"/>
<circle clip-path="url(#clip572)" cx="441.307" cy="1363.34" r="14" fill="#009af9" fill-rule="evenodd" fill-opacity="1" stroke="#000000" stroke-opacity="1" stroke-width="3.2"/>
<circle clip-path="url(#clip572)" cx="544.239" cy="1361.15" r="14" fill="#009af9" fill-rule="evenodd" fill-opacity="1" stroke="#000000" stroke-opacity="1" stroke-width="3.2"/>
<circle clip-path="url(#clip572)" cx="647.171" cy="1357.27" r="14" fill="#009af9" fill-rule="evenodd" fill-opacity="1" stroke="#000000" stroke-opacity="1" stroke-width="3.2"/>
<circle clip-path="url(#clip572)" cx="750.103" cy="1350.76" r="14" fill="#009af9" fill-rule="evenodd" fill-opacity="1" stroke="#000000" stroke-opacity="1" stroke-width="3.2"/>
<circle clip-path="url(#clip572)" cx="853.036" cy="1339.49" r="14" fill="#009af9" fill-rule="evenodd" fill-opacity="1" stroke="#000000" stroke-opacity="1" stroke-width="3.2"/>
<circle clip-path="url(#clip572)" cx="955.968" cy="1321.82" r="14" fill="#009af9" fill-rule="evenodd" fill-opacity="1" stroke="#000000" stroke-opacity="1" stroke-width="3.2"/>
<circle clip-path="url(#clip572)" cx="1058.9" cy="1292.75" r="14" fill="#009af9" fill-rule="evenodd" fill-opacity="1" stroke="#000000" stroke-opacity="1" stroke-width="3.2"/>
<circle clip-path="url(#clip572)" cx="1161.83" cy="1267.64" r="14" fill="#009af9" fill-rule="evenodd" fill-opacity="1" stroke="#000000" stroke-opacity="1" stroke-width="3.2"/>
<circle clip-path="url(#clip572)" cx="1264.76" cy="1224.16" r="14" fill="#009af9" fill-rule="evenodd" fill-opacity="1" stroke="#000000" stroke-opacity="1" stroke-width="3.2"/>
<circle clip-path="url(#clip572)" cx="1367.7" cy="1188.64" r="14" fill="#009af9" fill-rule="evenodd" fill-opacity="1" stroke="#000000" stroke-opacity="1" stroke-width="3.2"/>
<circle clip-path="url(#clip572)" cx="1470.63" cy="1123.13" r="14" fill="#009af9" fill-rule="evenodd" fill-opacity="1" stroke="#000000" stroke-opacity="1" stroke-width="3.2"/>
<circle clip-path="url(#clip572)" cx="1573.56" cy="1063.84" r="14" fill="#009af9" fill-rule="evenodd" fill-opacity="1" stroke="#000000" stroke-opacity="1" stroke-width="3.2"/>
<circle clip-path="url(#clip572)" cx="1676.49" cy="979.3" r="14" fill="#009af9" fill-rule="evenodd" fill-opacity="1" stroke="#000000" stroke-opacity="1" stroke-width="3.2"/>
<circle clip-path="url(#clip572)" cx="1779.42" cy="890.284" r="14" fill="#009af9" fill-rule="evenodd" fill-opacity="1" stroke="#000000" stroke-opacity="1" stroke-width="3.2"/>
<circle clip-path="url(#clip572)" cx="1882.36" cy="783.782" r="14" fill="#009af9" fill-rule="evenodd" fill-opacity="1" stroke="#000000" stroke-opacity="1" stroke-width="3.2"/>
<circle clip-path="url(#clip572)" cx="1985.29" cy="653.411" r="14" fill="#009af9" fill-rule="evenodd" fill-opacity="1" stroke="#000000" stroke-opacity="1" stroke-width="3.2"/>
<circle clip-path="url(#clip572)" cx="2088.22" cy="495.256" r="14" fill="#009af9" fill-rule="evenodd" fill-opacity="1" stroke="#000000" stroke-opacity="1" stroke-width="3.2"/>
<circle clip-path="url(#clip572)" cx="2191.15" cy="337.913" r="14" fill="#009af9" fill-rule="evenodd" fill-opacity="1" stroke="#000000" stroke-opacity="1" stroke-width="3.2"/>
<circle clip-path="url(#clip572)" cx="2294.08" cy="211.759" r="14" fill="#009af9" fill-rule="evenodd" fill-opacity="1" stroke="#000000" stroke-opacity="1" stroke-width="3.2"/>
<polyline clip-path="url(#clip572)" style="stroke:#000000; stroke-linecap:butt; stroke-linejoin:round; stroke-width:4; stroke-opacity:1; fill:none" points="
  338.375,1364.02 338.375,1363.9 
  "/>
<polyline clip-path="url(#clip572)" style="stroke:#000000; stroke-linecap:butt; stroke-linejoin:round; stroke-width:4; stroke-opacity:1; fill:none" points="
  441.307,1364.05 441.307,1362.59 
  "/>
<polyline clip-path="url(#clip572)" style="stroke:#000000; stroke-linecap:butt; stroke-linejoin:round; stroke-width:4; stroke-opacity:1; fill:none" points="
  544.239,1362.14 544.239,1361.51 
  "/>
<polyline clip-path="url(#clip572)" style="stroke:#000000; stroke-linecap:butt; stroke-linejoin:round; stroke-width:4; stroke-opacity:1; fill:none" points="
  647.171,1359.73 647.171,1358.38 
  "/>
<polyline clip-path="url(#clip572)" style="stroke:#000000; stroke-linecap:butt; stroke-linejoin:round; stroke-width:4; stroke-opacity:1; fill:none" points="
  750.103,1356.38 750.103,1351.86 
  "/>
<polyline clip-path="url(#clip572)" style="stroke:#000000; stroke-linecap:butt; stroke-linejoin:round; stroke-width:4; stroke-opacity:1; fill:none" points="
  853.036,1350.88 853.036,1344.41 
  "/>
<polyline clip-path="url(#clip572)" style="stroke:#000000; stroke-linecap:butt; stroke-linejoin:round; stroke-width:4; stroke-opacity:1; fill:none" points="
  955.968,1386.4 955.968,1276.06 
  "/>
<polyline clip-path="url(#clip572)" style="stroke:#000000; stroke-linecap:butt; stroke-linejoin:round; stroke-width:4; stroke-opacity:1; fill:none" points="
  1058.9,1331 1058.9,1305.58 
  "/>
<polyline clip-path="url(#clip572)" style="stroke:#000000; stroke-linecap:butt; stroke-linejoin:round; stroke-width:4; stroke-opacity:1; fill:none" points="
  1161.83,1320.25 1161.83,1292.57 
  "/>
<polyline clip-path="url(#clip572)" style="stroke:#000000; stroke-linecap:butt; stroke-linejoin:round; stroke-width:4; stroke-opacity:1; fill:none" points="
  1264.76,1298.99 1264.76,1281.98 
  "/>
<polyline clip-path="url(#clip572)" style="stroke:#000000; stroke-linecap:butt; stroke-linejoin:round; stroke-width:4; stroke-opacity:1; fill:none" points="
  1367.7,1282.4 1367.7,1258.68 
  "/>
<polyline clip-path="url(#clip572)" style="stroke:#000000; stroke-linecap:butt; stroke-linejoin:round; stroke-width:4; stroke-opacity:1; fill:none" points="
  1470.63,1250.44 1470.63,1224.32 
  "/>
<polyline clip-path="url(#clip572)" style="stroke:#000000; stroke-linecap:butt; stroke-linejoin:round; stroke-width:4; stroke-opacity:1; fill:none" points="
  1573.56,1222.51 1573.56,1182.28 
  "/>
<polyline clip-path="url(#clip572)" style="stroke:#000000; stroke-linecap:butt; stroke-linejoin:round; stroke-width:4; stroke-opacity:1; fill:none" points="
  1676.49,1188.44 1676.49,1139.85 
  "/>
<polyline clip-path="url(#clip572)" style="stroke:#000000; stroke-linecap:butt; stroke-linejoin:round; stroke-width:4; stroke-opacity:1; fill:none" points="
  1779.42,1155.04 1779.42,1108.29 
  "/>
<polyline clip-path="url(#clip572)" style="stroke:#000000; stroke-linecap:butt; stroke-linejoin:round; stroke-width:4; stroke-opacity:1; fill:none" points="
  1882.36,1119.2 1882.36,1051.32 
  "/>
<polyline clip-path="url(#clip572)" style="stroke:#000000; stroke-linecap:butt; stroke-linejoin:round; stroke-width:4; stroke-opacity:1; fill:none" points="
  1985.29,1056.56 1985.29,985.324 
  "/>
<polyline clip-path="url(#clip572)" style="stroke:#000000; stroke-linecap:butt; stroke-linejoin:round; stroke-width:4; stroke-opacity:1; fill:none" points="
  2088.22,986.94 2088.22,813.986 
  "/>
<polyline clip-path="url(#clip572)" style="stroke:#000000; stroke-linecap:butt; stroke-linejoin:round; stroke-width:4; stroke-opacity:1; fill:none" points="
  2191.15,899.269 2191.15,779.236 
  "/>
<polyline clip-path="url(#clip572)" style="stroke:#000000; stroke-linecap:butt; stroke-linejoin:round; stroke-width:4; stroke-opacity:1; fill:none" points="
  2294.08,859.827 2294.08,761.927 
  "/>
<line clip-path="url(#clip572)" x1="354.375" y1="1364.02" x2="322.375" y2="1364.02" style="stroke:#000000; stroke-width:3.2; stroke-opacity:1"/>
<line clip-path="url(#clip572)" x1="354.375" y1="1363.9" x2="322.375" y2="1363.9" style="stroke:#000000; stroke-width:3.2; stroke-opacity:1"/>
<line clip-path="url(#clip572)" x1="457.307" y1="1364.05" x2="425.307" y2="1364.05" style="stroke:#000000; stroke-width:3.2; stroke-opacity:1"/>
<line clip-path="url(#clip572)" x1="457.307" y1="1362.59" x2="425.307" y2="1362.59" style="stroke:#000000; stroke-width:3.2; stroke-opacity:1"/>
<line clip-path="url(#clip572)" x1="560.239" y1="1362.14" x2="528.239" y2="1362.14" style="stroke:#000000; stroke-width:3.2; stroke-opacity:1"/>
<line clip-path="url(#clip572)" x1="560.239" y1="1361.51" x2="528.239" y2="1361.51" style="stroke:#000000; stroke-width:3.2; stroke-opacity:1"/>
<line clip-path="url(#clip572)" x1="663.171" y1="1359.73" x2="631.171" y2="1359.73" style="stroke:#000000; stroke-width:3.2; stroke-opacity:1"/>
<line clip-path="url(#clip572)" x1="663.171" y1="1358.38" x2="631.171" y2="1358.38" style="stroke:#000000; stroke-width:3.2; stroke-opacity:1"/>
<line clip-path="url(#clip572)" x1="766.103" y1="1356.38" x2="734.103" y2="1356.38" style="stroke:#000000; stroke-width:3.2; stroke-opacity:1"/>
<line clip-path="url(#clip572)" x1="766.103" y1="1351.86" x2="734.103" y2="1351.86" style="stroke:#000000; stroke-width:3.2; stroke-opacity:1"/>
<line clip-path="url(#clip572)" x1="869.036" y1="1350.88" x2="837.036" y2="1350.88" style="stroke:#000000; stroke-width:3.2; stroke-opacity:1"/>
<line clip-path="url(#clip572)" x1="869.036" y1="1344.41" x2="837.036" y2="1344.41" style="stroke:#000000; stroke-width:3.2; stroke-opacity:1"/>
<line clip-path="url(#clip572)" x1="971.968" y1="1386.4" x2="939.968" y2="1386.4" style="stroke:#000000; stroke-width:3.2; stroke-opacity:1"/>
<line clip-path="url(#clip572)" x1="971.968" y1="1276.06" x2="939.968" y2="1276.06" style="stroke:#000000; stroke-width:3.2; stroke-opacity:1"/>
<line clip-path="url(#clip572)" x1="1074.9" y1="1331" x2="1042.9" y2="1331" style="stroke:#000000; stroke-width:3.2; stroke-opacity:1"/>
<line clip-path="url(#clip572)" x1="1074.9" y1="1305.58" x2="1042.9" y2="1305.58" style="stroke:#000000; stroke-width:3.2; stroke-opacity:1"/>
<line clip-path="url(#clip572)" x1="1177.83" y1="1320.25" x2="1145.83" y2="1320.25" style="stroke:#000000; stroke-width:3.2; stroke-opacity:1"/>
<line clip-path="url(#clip572)" x1="1177.83" y1="1292.57" x2="1145.83" y2="1292.57" style="stroke:#000000; stroke-width:3.2; stroke-opacity:1"/>
<line clip-path="url(#clip572)" x1="1280.76" y1="1298.99" x2="1248.76" y2="1298.99" style="stroke:#000000; stroke-width:3.2; stroke-opacity:1"/>
<line clip-path="url(#clip572)" x1="1280.76" y1="1281.98" x2="1248.76" y2="1281.98" style="stroke:#000000; stroke-width:3.2; stroke-opacity:1"/>
<line clip-path="url(#clip572)" x1="1383.7" y1="1282.4" x2="1351.7" y2="1282.4" style="stroke:#000000; stroke-width:3.2; stroke-opacity:1"/>
<line clip-path="url(#clip572)" x1="1383.7" y1="1258.68" x2="1351.7" y2="1258.68" style="stroke:#000000; stroke-width:3.2; stroke-opacity:1"/>
<line clip-path="url(#clip572)" x1="1486.63" y1="1250.44" x2="1454.63" y2="1250.44" style="stroke:#000000; stroke-width:3.2; stroke-opacity:1"/>
<line clip-path="url(#clip572)" x1="1486.63" y1="1224.32" x2="1454.63" y2="1224.32" style="stroke:#000000; stroke-width:3.2; stroke-opacity:1"/>
<line clip-path="url(#clip572)" x1="1589.56" y1="1222.51" x2="1557.56" y2="1222.51" style="stroke:#000000; stroke-width:3.2; stroke-opacity:1"/>
<line clip-path="url(#clip572)" x1="1589.56" y1="1182.28" x2="1557.56" y2="1182.28" style="stroke:#000000; stroke-width:3.2; stroke-opacity:1"/>
<line clip-path="url(#clip572)" x1="1692.49" y1="1188.44" x2="1660.49" y2="1188.44" style="stroke:#000000; stroke-width:3.2; stroke-opacity:1"/>
<line clip-path="url(#clip572)" x1="1692.49" y1="1139.85" x2="1660.49" y2="1139.85" style="stroke:#000000; stroke-width:3.2; stroke-opacity:1"/>
<line clip-path="url(#clip572)" x1="1795.42" y1="1155.04" x2="1763.42" y2="1155.04" style="stroke:#000000; stroke-width:3.2; stroke-opacity:1"/>
<line clip-path="url(#clip572)" x1="1795.42" y1="1108.29" x2="1763.42" y2="1108.29" style="stroke:#000000; stroke-width:3.2; stroke-opacity:1"/>
<line clip-path="url(#clip572)" x1="1898.36" y1="1119.2" x2="1866.36" y2="1119.2" style="stroke:#000000; stroke-width:3.2; stroke-opacity:1"/>
<line clip-path="url(#clip572)" x1="1898.36" y1="1051.32" x2="1866.36" y2="1051.32" style="stroke:#000000; stroke-width:3.2; stroke-opacity:1"/>
<line clip-path="url(#clip572)" x1="2001.29" y1="1056.56" x2="1969.29" y2="1056.56" style="stroke:#000000; stroke-width:3.2; stroke-opacity:1"/>
<line clip-path="url(#clip572)" x1="2001.29" y1="985.324" x2="1969.29" y2="985.324" style="stroke:#000000; stroke-width:3.2; stroke-opacity:1"/>
<line clip-path="url(#clip572)" x1="2104.22" y1="986.94" x2="2072.22" y2="986.94" style="stroke:#000000; stroke-width:3.2; stroke-opacity:1"/>
<line clip-path="url(#clip572)" x1="2104.22" y1="813.986" x2="2072.22" y2="813.986" style="stroke:#000000; stroke-width:3.2; stroke-opacity:1"/>
<line clip-path="url(#clip572)" x1="2207.15" y1="899.269" x2="2175.15" y2="899.269" style="stroke:#000000; stroke-width:3.2; stroke-opacity:1"/>
<line clip-path="url(#clip572)" x1="2207.15" y1="779.236" x2="2175.15" y2="779.236" style="stroke:#000000; stroke-width:3.2; stroke-opacity:1"/>
<line clip-path="url(#clip572)" x1="2310.08" y1="859.827" x2="2278.08" y2="859.827" style="stroke:#000000; stroke-width:3.2; stroke-opacity:1"/>
<line clip-path="url(#clip572)" x1="2310.08" y1="761.927" x2="2278.08" y2="761.927" style="stroke:#000000; stroke-width:3.2; stroke-opacity:1"/>
<circle clip-path="url(#clip572)" cx="338.375" cy="1363.96" r="14" fill="#e26f46" fill-rule="evenodd" fill-opacity="1" stroke="#000000" stroke-opacity="1" stroke-width="3.2"/>
<circle clip-path="url(#clip572)" cx="441.307" cy="1363.32" r="14" fill="#e26f46" fill-rule="evenodd" fill-opacity="1" stroke="#000000" stroke-opacity="1" stroke-width="3.2"/>
<circle clip-path="url(#clip572)" cx="544.239" cy="1361.83" r="14" fill="#e26f46" fill-rule="evenodd" fill-opacity="1" stroke="#000000" stroke-opacity="1" stroke-width="3.2"/>
<circle clip-path="url(#clip572)" cx="647.171" cy="1359.05" r="14" fill="#e26f46" fill-rule="evenodd" fill-opacity="1" stroke="#000000" stroke-opacity="1" stroke-width="3.2"/>
<circle clip-path="url(#clip572)" cx="750.103" cy="1354.12" r="14" fill="#e26f46" fill-rule="evenodd" fill-opacity="1" stroke="#000000" stroke-opacity="1" stroke-width="3.2"/>
<circle clip-path="url(#clip572)" cx="853.036" cy="1347.65" r="14" fill="#e26f46" fill-rule="evenodd" fill-opacity="1" stroke="#000000" stroke-opacity="1" stroke-width="3.2"/>
<circle clip-path="url(#clip572)" cx="955.968" cy="1331.23" r="14" fill="#e26f46" fill-rule="evenodd" fill-opacity="1" stroke="#000000" stroke-opacity="1" stroke-width="3.2"/>
<circle clip-path="url(#clip572)" cx="1058.9" cy="1318.29" r="14" fill="#e26f46" fill-rule="evenodd" fill-opacity="1" stroke="#000000" stroke-opacity="1" stroke-width="3.2"/>
<circle clip-path="url(#clip572)" cx="1161.83" cy="1306.41" r="14" fill="#e26f46" fill-rule="evenodd" fill-opacity="1" stroke="#000000" stroke-opacity="1" stroke-width="3.2"/>
<circle clip-path="url(#clip572)" cx="1264.76" cy="1290.49" r="14" fill="#e26f46" fill-rule="evenodd" fill-opacity="1" stroke="#000000" stroke-opacity="1" stroke-width="3.2"/>
<circle clip-path="url(#clip572)" cx="1367.7" cy="1270.54" r="14" fill="#e26f46" fill-rule="evenodd" fill-opacity="1" stroke="#000000" stroke-opacity="1" stroke-width="3.2"/>
<circle clip-path="url(#clip572)" cx="1470.63" cy="1237.38" r="14" fill="#e26f46" fill-rule="evenodd" fill-opacity="1" stroke="#000000" stroke-opacity="1" stroke-width="3.2"/>
<circle clip-path="url(#clip572)" cx="1573.56" cy="1202.4" r="14" fill="#e26f46" fill-rule="evenodd" fill-opacity="1" stroke="#000000" stroke-opacity="1" stroke-width="3.2"/>
<circle clip-path="url(#clip572)" cx="1676.49" cy="1164.14" r="14" fill="#e26f46" fill-rule="evenodd" fill-opacity="1" stroke="#000000" stroke-opacity="1" stroke-width="3.2"/>
<circle clip-path="url(#clip572)" cx="1779.42" cy="1131.66" r="14" fill="#e26f46" fill-rule="evenodd" fill-opacity="1" stroke="#000000" stroke-opacity="1" stroke-width="3.2"/>
<circle clip-path="url(#clip572)" cx="1882.36" cy="1085.26" r="14" fill="#e26f46" fill-rule="evenodd" fill-opacity="1" stroke="#000000" stroke-opacity="1" stroke-width="3.2"/>
<circle clip-path="url(#clip572)" cx="1985.29" cy="1020.94" r="14" fill="#e26f46" fill-rule="evenodd" fill-opacity="1" stroke="#000000" stroke-opacity="1" stroke-width="3.2"/>
<circle clip-path="url(#clip572)" cx="2088.22" cy="900.463" r="14" fill="#e26f46" fill-rule="evenodd" fill-opacity="1" stroke="#000000" stroke-opacity="1" stroke-width="3.2"/>
<circle clip-path="url(#clip572)" cx="2191.15" cy="839.252" r="14" fill="#e26f46" fill-rule="evenodd" fill-opacity="1" stroke="#000000" stroke-opacity="1" stroke-width="3.2"/>
<circle clip-path="url(#clip572)" cx="2294.08" cy="810.877" r="14" fill="#e26f46" fill-rule="evenodd" fill-opacity="1" stroke="#000000" stroke-opacity="1" stroke-width="3.2"/>
<polyline clip-path="url(#clip572)" style="stroke:#000000; stroke-linecap:butt; stroke-linejoin:round; stroke-width:4; stroke-opacity:1; fill:none" points="
  338.375,1364.02 338.375,1363.9 
  "/>
<polyline clip-path="url(#clip572)" style="stroke:#000000; stroke-linecap:butt; stroke-linejoin:round; stroke-width:4; stroke-opacity:1; fill:none" points="
  441.307,1364.61 441.307,1362.88 
  "/>
<polyline clip-path="url(#clip572)" style="stroke:#000000; stroke-linecap:butt; stroke-linejoin:round; stroke-width:4; stroke-opacity:1; fill:none" points="
  544.239,1363.74 544.239,1363 
  "/>
<polyline clip-path="url(#clip572)" style="stroke:#000000; stroke-linecap:butt; stroke-linejoin:round; stroke-width:4; stroke-opacity:1; fill:none" points="
  647.171,1363.37 647.171,1361.08 
  "/>
<polyline clip-path="url(#clip572)" style="stroke:#000000; stroke-linecap:butt; stroke-linejoin:round; stroke-width:4; stroke-opacity:1; fill:none" points="
  750.103,1361.21 750.103,1358.39 
  "/>
<polyline clip-path="url(#clip572)" style="stroke:#000000; stroke-linecap:butt; stroke-linejoin:round; stroke-width:4; stroke-opacity:1; fill:none" points="
  853.036,1360.72 853.036,1358.56 
  "/>
<polyline clip-path="url(#clip572)" style="stroke:#000000; stroke-linecap:butt; stroke-linejoin:round; stroke-width:4; stroke-opacity:1; fill:none" points="
  955.968,1359.11 955.968,1358.84 
  "/>
<polyline clip-path="url(#clip572)" style="stroke:#000000; stroke-linecap:butt; stroke-linejoin:round; stroke-width:4; stroke-opacity:1; fill:none" points="
  1058.9,1356.21 1058.9,1350.68 
  "/>
<polyline clip-path="url(#clip572)" style="stroke:#000000; stroke-linecap:butt; stroke-linejoin:round; stroke-width:4; stroke-opacity:1; fill:none" points="
  1161.83,1354.39 1161.83,1344.89 
  "/>
<polyline clip-path="url(#clip572)" style="stroke:#000000; stroke-linecap:butt; stroke-linejoin:round; stroke-width:4; stroke-opacity:1; fill:none" points="
  1264.76,1349.53 1264.76,1339.21 
  "/>
<polyline clip-path="url(#clip572)" style="stroke:#000000; stroke-linecap:butt; stroke-linejoin:round; stroke-width:4; stroke-opacity:1; fill:none" points="
  1367.7,1366.59 1367.7,1311.13 
  "/>
<polyline clip-path="url(#clip572)" style="stroke:#000000; stroke-linecap:butt; stroke-linejoin:round; stroke-width:4; stroke-opacity:1; fill:none" points="
  1470.63,1337.07 1470.63,1320.19 
  "/>
<polyline clip-path="url(#clip572)" style="stroke:#000000; stroke-linecap:butt; stroke-linejoin:round; stroke-width:4; stroke-opacity:1; fill:none" points="
  1573.56,1333.85 1573.56,1313.77 
  "/>
<polyline clip-path="url(#clip572)" style="stroke:#000000; stroke-linecap:butt; stroke-linejoin:round; stroke-width:4; stroke-opacity:1; fill:none" points="
  1676.49,1326.62 1676.49,1316.64 
  "/>
<polyline clip-path="url(#clip572)" style="stroke:#000000; stroke-linecap:butt; stroke-linejoin:round; stroke-width:4; stroke-opacity:1; fill:none" points="
  1779.42,1324.22 1779.42,1279.59 
  "/>
<polyline clip-path="url(#clip572)" style="stroke:#000000; stroke-linecap:butt; stroke-linejoin:round; stroke-width:4; stroke-opacity:1; fill:none" points="
  1882.36,1310.57 1882.36,1281.45 
  "/>
<polyline clip-path="url(#clip572)" style="stroke:#000000; stroke-linecap:butt; stroke-linejoin:round; stroke-width:4; stroke-opacity:1; fill:none" points="
  1985.29,1299.3 1985.29,1250.15 
  "/>
<polyline clip-path="url(#clip572)" style="stroke:#000000; stroke-linecap:butt; stroke-linejoin:round; stroke-width:4; stroke-opacity:1; fill:none" points="
  2088.22,1286.38 2088.22,1250.38 
  "/>
<polyline clip-path="url(#clip572)" style="stroke:#000000; stroke-linecap:butt; stroke-linejoin:round; stroke-width:4; stroke-opacity:1; fill:none" points="
  2191.15,1256.3 2191.15,1225.13 
  "/>
<polyline clip-path="url(#clip572)" style="stroke:#000000; stroke-linecap:butt; stroke-linejoin:round; stroke-width:4; stroke-opacity:1; fill:none" points="
  2294.08,1251.1 2294.08,1222.12 
  "/>
<line clip-path="url(#clip572)" x1="354.375" y1="1364.02" x2="322.375" y2="1364.02" style="stroke:#000000; stroke-width:3.2; stroke-opacity:1"/>
<line clip-path="url(#clip572)" x1="354.375" y1="1363.9" x2="322.375" y2="1363.9" style="stroke:#000000; stroke-width:3.2; stroke-opacity:1"/>
<line clip-path="url(#clip572)" x1="457.307" y1="1364.61" x2="425.307" y2="1364.61" style="stroke:#000000; stroke-width:3.2; stroke-opacity:1"/>
<line clip-path="url(#clip572)" x1="457.307" y1="1362.88" x2="425.307" y2="1362.88" style="stroke:#000000; stroke-width:3.2; stroke-opacity:1"/>
<line clip-path="url(#clip572)" x1="560.239" y1="1363.74" x2="528.239" y2="1363.74" style="stroke:#000000; stroke-width:3.2; stroke-opacity:1"/>
<line clip-path="url(#clip572)" x1="560.239" y1="1363" x2="528.239" y2="1363" style="stroke:#000000; stroke-width:3.2; stroke-opacity:1"/>
<line clip-path="url(#clip572)" x1="663.171" y1="1363.37" x2="631.171" y2="1363.37" style="stroke:#000000; stroke-width:3.2; stroke-opacity:1"/>
<line clip-path="url(#clip572)" x1="663.171" y1="1361.08" x2="631.171" y2="1361.08" style="stroke:#000000; stroke-width:3.2; stroke-opacity:1"/>
<line clip-path="url(#clip572)" x1="766.103" y1="1361.21" x2="734.103" y2="1361.21" style="stroke:#000000; stroke-width:3.2; stroke-opacity:1"/>
<line clip-path="url(#clip572)" x1="766.103" y1="1358.39" x2="734.103" y2="1358.39" style="stroke:#000000; stroke-width:3.2; stroke-opacity:1"/>
<line clip-path="url(#clip572)" x1="869.036" y1="1360.72" x2="837.036" y2="1360.72" style="stroke:#000000; stroke-width:3.2; stroke-opacity:1"/>
<line clip-path="url(#clip572)" x1="869.036" y1="1358.56" x2="837.036" y2="1358.56" style="stroke:#000000; stroke-width:3.2; stroke-opacity:1"/>
<line clip-path="url(#clip572)" x1="971.968" y1="1359.11" x2="939.968" y2="1359.11" style="stroke:#000000; stroke-width:3.2; stroke-opacity:1"/>
<line clip-path="url(#clip572)" x1="971.968" y1="1358.84" x2="939.968" y2="1358.84" style="stroke:#000000; stroke-width:3.2; stroke-opacity:1"/>
<line clip-path="url(#clip572)" x1="1074.9" y1="1356.21" x2="1042.9" y2="1356.21" style="stroke:#000000; stroke-width:3.2; stroke-opacity:1"/>
<line clip-path="url(#clip572)" x1="1074.9" y1="1350.68" x2="1042.9" y2="1350.68" style="stroke:#000000; stroke-width:3.2; stroke-opacity:1"/>
<line clip-path="url(#clip572)" x1="1177.83" y1="1354.39" x2="1145.83" y2="1354.39" style="stroke:#000000; stroke-width:3.2; stroke-opacity:1"/>
<line clip-path="url(#clip572)" x1="1177.83" y1="1344.89" x2="1145.83" y2="1344.89" style="stroke:#000000; stroke-width:3.2; stroke-opacity:1"/>
<line clip-path="url(#clip572)" x1="1280.76" y1="1349.53" x2="1248.76" y2="1349.53" style="stroke:#000000; stroke-width:3.2; stroke-opacity:1"/>
<line clip-path="url(#clip572)" x1="1280.76" y1="1339.21" x2="1248.76" y2="1339.21" style="stroke:#000000; stroke-width:3.2; stroke-opacity:1"/>
<line clip-path="url(#clip572)" x1="1383.7" y1="1366.59" x2="1351.7" y2="1366.59" style="stroke:#000000; stroke-width:3.2; stroke-opacity:1"/>
<line clip-path="url(#clip572)" x1="1383.7" y1="1311.13" x2="1351.7" y2="1311.13" style="stroke:#000000; stroke-width:3.2; stroke-opacity:1"/>
<line clip-path="url(#clip572)" x1="1486.63" y1="1337.07" x2="1454.63" y2="1337.07" style="stroke:#000000; stroke-width:3.2; stroke-opacity:1"/>
<line clip-path="url(#clip572)" x1="1486.63" y1="1320.19" x2="1454.63" y2="1320.19" style="stroke:#000000; stroke-width:3.2; stroke-opacity:1"/>
<line clip-path="url(#clip572)" x1="1589.56" y1="1333.85" x2="1557.56" y2="1333.85" style="stroke:#000000; stroke-width:3.2; stroke-opacity:1"/>
<line clip-path="url(#clip572)" x1="1589.56" y1="1313.77" x2="1557.56" y2="1313.77" style="stroke:#000000; stroke-width:3.2; stroke-opacity:1"/>
<line clip-path="url(#clip572)" x1="1692.49" y1="1326.62" x2="1660.49" y2="1326.62" style="stroke:#000000; stroke-width:3.2; stroke-opacity:1"/>
<line clip-path="url(#clip572)" x1="1692.49" y1="1316.64" x2="1660.49" y2="1316.64" style="stroke:#000000; stroke-width:3.2; stroke-opacity:1"/>
<line clip-path="url(#clip572)" x1="1795.42" y1="1324.22" x2="1763.42" y2="1324.22" style="stroke:#000000; stroke-width:3.2; stroke-opacity:1"/>
<line clip-path="url(#clip572)" x1="1795.42" y1="1279.59" x2="1763.42" y2="1279.59" style="stroke:#000000; stroke-width:3.2; stroke-opacity:1"/>
<line clip-path="url(#clip572)" x1="1898.36" y1="1310.57" x2="1866.36" y2="1310.57" style="stroke:#000000; stroke-width:3.2; stroke-opacity:1"/>
<line clip-path="url(#clip572)" x1="1898.36" y1="1281.45" x2="1866.36" y2="1281.45" style="stroke:#000000; stroke-width:3.2; stroke-opacity:1"/>
<line clip-path="url(#clip572)" x1="2001.29" y1="1299.3" x2="1969.29" y2="1299.3" style="stroke:#000000; stroke-width:3.2; stroke-opacity:1"/>
<line clip-path="url(#clip572)" x1="2001.29" y1="1250.15" x2="1969.29" y2="1250.15" style="stroke:#000000; stroke-width:3.2; stroke-opacity:1"/>
<line clip-path="url(#clip572)" x1="2104.22" y1="1286.38" x2="2072.22" y2="1286.38" style="stroke:#000000; stroke-width:3.2; stroke-opacity:1"/>
<line clip-path="url(#clip572)" x1="2104.22" y1="1250.38" x2="2072.22" y2="1250.38" style="stroke:#000000; stroke-width:3.2; stroke-opacity:1"/>
<line clip-path="url(#clip572)" x1="2207.15" y1="1256.3" x2="2175.15" y2="1256.3" style="stroke:#000000; stroke-width:3.2; stroke-opacity:1"/>
<line clip-path="url(#clip572)" x1="2207.15" y1="1225.13" x2="2175.15" y2="1225.13" style="stroke:#000000; stroke-width:3.2; stroke-opacity:1"/>
<line clip-path="url(#clip572)" x1="2310.08" y1="1251.1" x2="2278.08" y2="1251.1" style="stroke:#000000; stroke-width:3.2; stroke-opacity:1"/>
<line clip-path="url(#clip572)" x1="2310.08" y1="1222.12" x2="2278.08" y2="1222.12" style="stroke:#000000; stroke-width:3.2; stroke-opacity:1"/>
<circle clip-path="url(#clip572)" cx="338.375" cy="1363.96" r="14" fill="#3da44d" fill-rule="evenodd" fill-opacity="1" stroke="#000000" stroke-opacity="1" stroke-width="3.2"/>
<circle clip-path="url(#clip572)" cx="441.307" cy="1363.75" r="14" fill="#3da44d" fill-rule="evenodd" fill-opacity="1" stroke="#000000" stroke-opacity="1" stroke-width="3.2"/>
<circle clip-path="url(#clip572)" cx="544.239" cy="1363.37" r="14" fill="#3da44d" fill-rule="evenodd" fill-opacity="1" stroke="#000000" stroke-opacity="1" stroke-width="3.2"/>
<circle clip-path="url(#clip572)" cx="647.171" cy="1362.23" r="14" fill="#3da44d" fill-rule="evenodd" fill-opacity="1" stroke="#000000" stroke-opacity="1" stroke-width="3.2"/>
<circle clip-path="url(#clip572)" cx="750.103" cy="1359.8" r="14" fill="#3da44d" fill-rule="evenodd" fill-opacity="1" stroke="#000000" stroke-opacity="1" stroke-width="3.2"/>
<circle clip-path="url(#clip572)" cx="853.036" cy="1359.64" r="14" fill="#3da44d" fill-rule="evenodd" fill-opacity="1" stroke="#000000" stroke-opacity="1" stroke-width="3.2"/>
<circle clip-path="url(#clip572)" cx="955.968" cy="1358.98" r="14" fill="#3da44d" fill-rule="evenodd" fill-opacity="1" stroke="#000000" stroke-opacity="1" stroke-width="3.2"/>
<circle clip-path="url(#clip572)" cx="1058.9" cy="1353.44" r="14" fill="#3da44d" fill-rule="evenodd" fill-opacity="1" stroke="#000000" stroke-opacity="1" stroke-width="3.2"/>
<circle clip-path="url(#clip572)" cx="1161.83" cy="1349.64" r="14" fill="#3da44d" fill-rule="evenodd" fill-opacity="1" stroke="#000000" stroke-opacity="1" stroke-width="3.2"/>
<circle clip-path="url(#clip572)" cx="1264.76" cy="1344.37" r="14" fill="#3da44d" fill-rule="evenodd" fill-opacity="1" stroke="#000000" stroke-opacity="1" stroke-width="3.2"/>
<circle clip-path="url(#clip572)" cx="1367.7" cy="1338.86" r="14" fill="#3da44d" fill-rule="evenodd" fill-opacity="1" stroke="#000000" stroke-opacity="1" stroke-width="3.2"/>
<circle clip-path="url(#clip572)" cx="1470.63" cy="1328.63" r="14" fill="#3da44d" fill-rule="evenodd" fill-opacity="1" stroke="#000000" stroke-opacity="1" stroke-width="3.2"/>
<circle clip-path="url(#clip572)" cx="1573.56" cy="1323.81" r="14" fill="#3da44d" fill-rule="evenodd" fill-opacity="1" stroke="#000000" stroke-opacity="1" stroke-width="3.2"/>
<circle clip-path="url(#clip572)" cx="1676.49" cy="1321.63" r="14" fill="#3da44d" fill-rule="evenodd" fill-opacity="1" stroke="#000000" stroke-opacity="1" stroke-width="3.2"/>
<circle clip-path="url(#clip572)" cx="1779.42" cy="1301.91" r="14" fill="#3da44d" fill-rule="evenodd" fill-opacity="1" stroke="#000000" stroke-opacity="1" stroke-width="3.2"/>
<circle clip-path="url(#clip572)" cx="1882.36" cy="1296.01" r="14" fill="#3da44d" fill-rule="evenodd" fill-opacity="1" stroke="#000000" stroke-opacity="1" stroke-width="3.2"/>
<circle clip-path="url(#clip572)" cx="1985.29" cy="1274.72" r="14" fill="#3da44d" fill-rule="evenodd" fill-opacity="1" stroke="#000000" stroke-opacity="1" stroke-width="3.2"/>
<circle clip-path="url(#clip572)" cx="2088.22" cy="1268.38" r="14" fill="#3da44d" fill-rule="evenodd" fill-opacity="1" stroke="#000000" stroke-opacity="1" stroke-width="3.2"/>
<circle clip-path="url(#clip572)" cx="2191.15" cy="1240.71" r="14" fill="#3da44d" fill-rule="evenodd" fill-opacity="1" stroke="#000000" stroke-opacity="1" stroke-width="3.2"/>
<circle clip-path="url(#clip572)" cx="2294.08" cy="1236.61" r="14" fill="#3da44d" fill-rule="evenodd" fill-opacity="1" stroke="#000000" stroke-opacity="1" stroke-width="3.2"/>
<path clip-path="url(#clip570)" d="
M1683.83 374.156 L2283.65 374.156 L2283.65 166.796 L1683.83 166.796  Z
  " fill="#ffffff" fill-rule="evenodd" fill-opacity="1"/>
<polyline clip-path="url(#clip570)" style="stroke:#000000; stroke-linecap:butt; stroke-linejoin:round; stroke-width:4; stroke-opacity:1; fill:none" points="
  1683.83,374.156 2283.65,374.156 2283.65,166.796 1683.83,166.796 1683.83,374.156 
  "/>
<circle clip-path="url(#clip570)" cx="1775.96" cy="218.636" r="23" fill="#009af9" fill-rule="evenodd" fill-opacity="1" stroke="#000000" stroke-opacity="1" stroke-width="5.12"/>
<path clip-path="url(#clip570)" d="M1868.1 199.897 L1877.91 199.897 L1877.91 203.208 L1872.36 203.208 L1872.36 238.856 L1877.91 238.856 L1877.91 242.166 L1868.1 242.166 L1868.1 199.897 Z" fill="#000000" fill-rule="evenodd" fill-opacity="1" /><path clip-path="url(#clip570)" d="M1891.01 201.356 L1891.01 214.203 L1887.08 214.203 L1887.08 201.356 L1891.01 201.356 M1899.76 201.356 L1899.76 214.203 L1895.83 214.203 L1895.83 201.356 L1899.76 201.356 Z" fill="#000000" fill-rule="evenodd" fill-opacity="1" /><path clip-path="url(#clip570)" d="M1928.98 214.967 Q1930.57 212.096 1932.8 210.731 Q1935.02 209.365 1938.03 209.365 Q1942.08 209.365 1944.28 212.212 Q1946.48 215.036 1946.48 220.268 L1946.48 235.916 L1942.19 235.916 L1942.19 220.407 Q1942.19 216.68 1940.87 214.874 Q1939.56 213.069 1936.85 213.069 Q1933.54 213.069 1931.62 215.268 Q1929.69 217.467 1929.69 221.263 L1929.69 235.916 L1925.41 235.916 L1925.41 220.407 Q1925.41 216.657 1924.09 214.874 Q1922.77 213.069 1920.02 213.069 Q1916.75 213.069 1914.83 215.291 Q1912.91 217.49 1912.91 221.263 L1912.91 235.916 L1908.63 235.916 L1908.63 209.99 L1912.91 209.99 L1912.91 214.018 Q1914.37 211.633 1916.41 210.499 Q1918.44 209.365 1921.25 209.365 Q1924.07 209.365 1926.04 210.8 Q1928.03 212.235 1928.98 214.967 Z" fill="#000000" fill-rule="evenodd" fill-opacity="1" /><path clip-path="url(#clip570)" d="M1977.15 221.888 L1977.15 223.971 L1957.56 223.971 Q1957.84 228.369 1960.2 230.684 Q1962.59 232.976 1966.82 232.976 Q1969.28 232.976 1971.57 232.374 Q1973.88 231.772 1976.15 230.569 L1976.15 234.596 Q1973.86 235.568 1971.45 236.078 Q1969.05 236.587 1966.57 236.587 Q1960.37 236.587 1956.73 232.976 Q1953.12 229.365 1953.12 223.207 Q1953.12 216.842 1956.55 213.115 Q1960 209.365 1965.83 209.365 Q1971.06 209.365 1974.09 212.745 Q1977.15 216.101 1977.15 221.888 M1972.89 220.638 Q1972.84 217.143 1970.92 215.059 Q1969.02 212.976 1965.87 212.976 Q1962.31 212.976 1960.16 214.99 Q1958.03 217.004 1957.7 220.661 L1972.89 220.638 Z" fill="#000000" fill-rule="evenodd" fill-opacity="1" /><path clip-path="url(#clip570)" d="M1995.92 222.883 Q1990.76 222.883 1988.77 224.064 Q1986.78 225.244 1986.78 228.092 Q1986.78 230.36 1988.26 231.703 Q1989.76 233.022 1992.33 233.022 Q1995.87 233.022 1998 230.522 Q2000.16 227.999 2000.16 223.832 L2000.16 222.883 L1995.92 222.883 M2004.42 221.124 L2004.42 235.916 L2000.16 235.916 L2000.16 231.981 Q1998.7 234.342 1996.52 235.476 Q1994.35 236.587 1991.2 236.587 Q1987.22 236.587 1984.86 234.365 Q1982.52 232.119 1982.52 228.369 Q1982.52 223.994 1985.43 221.772 Q1988.37 219.55 1994.18 219.55 L2000.16 219.55 L2000.16 219.133 Q2000.16 216.194 1998.21 214.596 Q1996.29 212.976 1992.8 212.976 Q1990.57 212.976 1988.47 213.508 Q1986.36 214.041 1984.42 215.106 L1984.42 211.17 Q1986.75 210.268 1988.95 209.828 Q1991.15 209.365 1993.24 209.365 Q1998.86 209.365 2001.64 212.282 Q2004.42 215.198 2004.42 221.124 Z" fill="#000000" fill-rule="evenodd" fill-opacity="1" /><path clip-path="url(#clip570)" d="M2034.74 220.268 L2034.74 235.916 L2030.48 235.916 L2030.48 220.407 Q2030.48 216.726 2029.05 214.897 Q2027.61 213.069 2024.74 213.069 Q2021.29 213.069 2019.3 215.268 Q2017.31 217.467 2017.31 221.263 L2017.31 235.916 L2013.03 235.916 L2013.03 209.99 L2017.31 209.99 L2017.31 214.018 Q2018.84 211.68 2020.9 210.522 Q2022.98 209.365 2025.69 209.365 Q2030.16 209.365 2032.45 212.143 Q2034.74 214.897 2034.74 220.268 Z" fill="#000000" fill-rule="evenodd" fill-opacity="1" /><path clip-path="url(#clip570)" d="M2058.49 201.356 L2064.79 201.356 L2080.11 230.268 L2080.11 201.356 L2084.65 201.356 L2084.65 235.916 L2078.35 235.916 L2063.03 207.004 L2063.03 235.916 L2058.49 235.916 L2058.49 201.356 Z" fill="#000000" fill-rule="evenodd" fill-opacity="1" /><path clip-path="url(#clip570)" d="M2105.55 222.883 Q2100.39 222.883 2098.4 224.064 Q2096.41 225.244 2096.41 228.092 Q2096.41 230.36 2097.89 231.703 Q2099.39 233.022 2101.96 233.022 Q2105.5 233.022 2107.63 230.522 Q2109.79 227.999 2109.79 223.832 L2109.79 222.883 L2105.55 222.883 M2114.05 221.124 L2114.05 235.916 L2109.79 235.916 L2109.79 231.981 Q2108.33 234.342 2106.15 235.476 Q2103.98 236.587 2100.83 236.587 Q2096.85 236.587 2094.49 234.365 Q2092.15 232.119 2092.15 228.369 Q2092.15 223.994 2095.06 221.772 Q2098 219.55 2103.81 219.55 L2109.79 219.55 L2109.79 219.133 Q2109.79 216.194 2107.84 214.596 Q2105.92 212.976 2102.43 212.976 Q2100.2 212.976 2098.1 213.508 Q2095.99 214.041 2094.05 215.106 L2094.05 211.17 Q2096.38 210.268 2098.58 209.828 Q2100.78 209.365 2102.86 209.365 Q2108.49 209.365 2111.27 212.282 Q2114.05 215.198 2114.05 221.124 Z" fill="#000000" fill-rule="evenodd" fill-opacity="1" /><path clip-path="url(#clip570)" d="M2122.82 209.99 L2127.08 209.99 L2127.08 235.916 L2122.82 235.916 L2122.82 209.99 M2122.82 199.897 L2127.08 199.897 L2127.08 205.291 L2122.82 205.291 L2122.82 199.897 Z" fill="#000000" fill-rule="evenodd" fill-opacity="1" /><path clip-path="url(#clip570)" d="M2132.93 209.99 L2137.45 209.99 L2145.55 231.749 L2153.65 209.99 L2158.17 209.99 L2148.44 235.916 L2142.66 235.916 L2132.93 209.99 Z" fill="#000000" fill-rule="evenodd" fill-opacity="1" /><path clip-path="url(#clip570)" d="M2186.22 221.888 L2186.22 223.971 L2166.64 223.971 Q2166.92 228.369 2169.28 230.684 Q2171.66 232.976 2175.9 232.976 Q2178.35 232.976 2180.64 232.374 Q2182.96 231.772 2185.23 230.569 L2185.23 234.596 Q2182.93 235.568 2180.53 236.078 Q2178.12 236.587 2175.64 236.587 Q2169.44 236.587 2165.8 232.976 Q2162.19 229.365 2162.19 223.207 Q2162.19 216.842 2165.62 213.115 Q2169.07 209.365 2174.9 209.365 Q2180.13 209.365 2183.17 212.745 Q2186.22 216.101 2186.22 221.888 M2181.96 220.638 Q2181.92 217.143 2179.99 215.059 Q2178.1 212.976 2174.95 212.976 Q2171.38 212.976 2169.23 214.99 Q2167.1 217.004 2166.78 220.661 L2181.96 220.638 Z" fill="#000000" fill-rule="evenodd" fill-opacity="1" /><path clip-path="url(#clip570)" d="M2197.24 201.356 L2197.24 214.203 L2193.3 214.203 L2193.3 201.356 L2197.24 201.356 M2205.99 201.356 L2205.99 214.203 L2202.05 214.203 L2202.05 201.356 L2205.99 201.356 Z" fill="#000000" fill-rule="evenodd" fill-opacity="1" /><path clip-path="url(#clip570)" d="M2224.97 199.897 L2224.97 242.166 L2215.16 242.166 L2215.16 238.856 L2220.69 238.856 L2220.69 203.208 L2215.16 203.208 L2215.16 199.897 L2224.97 199.897 Z" fill="#000000" fill-rule="evenodd" fill-opacity="1" /><circle clip-path="url(#clip570)" cx="1775.96" cy="270.476" r="23" fill="#e26f46" fill-rule="evenodd" fill-opacity="1" stroke="#000000" stroke-opacity="1" stroke-width="5.12"/>
<path clip-path="url(#clip570)" d="M1868.1 251.737 L1877.91 251.737 L1877.91 255.048 L1872.36 255.048 L1872.36 290.696 L1877.91 290.696 L1877.91 294.006 L1868.1 294.006 L1868.1 251.737 Z" fill="#000000" fill-rule="evenodd" fill-opacity="1" /><path clip-path="url(#clip570)" d="M1891.01 253.196 L1891.01 266.043 L1887.08 266.043 L1887.08 253.196 L1891.01 253.196 M1899.76 253.196 L1899.76 266.043 L1895.83 266.043 L1895.83 253.196 L1899.76 253.196 Z" fill="#000000" fill-rule="evenodd" fill-opacity="1" /><path clip-path="url(#clip570)" d="M1928.98 266.807 Q1930.57 263.936 1932.8 262.571 Q1935.02 261.205 1938.03 261.205 Q1942.08 261.205 1944.28 264.052 Q1946.48 266.876 1946.48 272.108 L1946.48 287.756 L1942.19 287.756 L1942.19 272.247 Q1942.19 268.52 1940.87 266.714 Q1939.56 264.909 1936.85 264.909 Q1933.54 264.909 1931.62 267.108 Q1929.69 269.307 1929.69 273.103 L1929.69 287.756 L1925.41 287.756 L1925.41 272.247 Q1925.41 268.497 1924.09 266.714 Q1922.77 264.909 1920.02 264.909 Q1916.75 264.909 1914.83 267.131 Q1912.91 269.33 1912.91 273.103 L1912.91 287.756 L1908.63 287.756 L1908.63 261.83 L1912.91 261.83 L1912.91 265.858 Q1914.37 263.473 1916.41 262.339 Q1918.44 261.205 1921.25 261.205 Q1924.07 261.205 1926.04 262.64 Q1928.03 264.075 1928.98 266.807 Z" fill="#000000" fill-rule="evenodd" fill-opacity="1" /><path clip-path="url(#clip570)" d="M1977.15 273.728 L1977.15 275.811 L1957.56 275.811 Q1957.84 280.209 1960.2 282.524 Q1962.59 284.816 1966.82 284.816 Q1969.28 284.816 1971.57 284.214 Q1973.88 283.612 1976.15 282.409 L1976.15 286.436 Q1973.86 287.408 1971.45 287.918 Q1969.05 288.427 1966.57 288.427 Q1960.37 288.427 1956.73 284.816 Q1953.12 281.205 1953.12 275.047 Q1953.12 268.682 1956.55 264.955 Q1960 261.205 1965.83 261.205 Q1971.06 261.205 1974.09 264.585 Q1977.15 267.941 1977.15 273.728 M1972.89 272.478 Q1972.84 268.983 1970.92 266.899 Q1969.02 264.816 1965.87 264.816 Q1962.31 264.816 1960.16 266.83 Q1958.03 268.844 1957.7 272.501 L1972.89 272.478 Z" fill="#000000" fill-rule="evenodd" fill-opacity="1" /><path clip-path="url(#clip570)" d="M1995.92 274.723 Q1990.76 274.723 1988.77 275.904 Q1986.78 277.084 1986.78 279.932 Q1986.78 282.2 1988.26 283.543 Q1989.76 284.862 1992.33 284.862 Q1995.87 284.862 1998 282.362 Q2000.16 279.839 2000.16 275.672 L2000.16 274.723 L1995.92 274.723 M2004.42 272.964 L2004.42 287.756 L2000.16 287.756 L2000.16 283.821 Q1998.7 286.182 1996.52 287.316 Q1994.35 288.427 1991.2 288.427 Q1987.22 288.427 1984.86 286.205 Q1982.52 283.959 1982.52 280.209 Q1982.52 275.834 1985.43 273.612 Q1988.37 271.39 1994.18 271.39 L2000.16 271.39 L2000.16 270.973 Q2000.16 268.034 1998.21 266.436 Q1996.29 264.816 1992.8 264.816 Q1990.57 264.816 1988.47 265.348 Q1986.36 265.881 1984.42 266.946 L1984.42 263.01 Q1986.75 262.108 1988.95 261.668 Q1991.15 261.205 1993.24 261.205 Q1998.86 261.205 2001.64 264.122 Q2004.42 267.038 2004.42 272.964 Z" fill="#000000" fill-rule="evenodd" fill-opacity="1" /><path clip-path="url(#clip570)" d="M2034.74 272.108 L2034.74 287.756 L2030.48 287.756 L2030.48 272.247 Q2030.48 268.566 2029.05 266.737 Q2027.61 264.909 2024.74 264.909 Q2021.29 264.909 2019.3 267.108 Q2017.31 269.307 2017.31 273.103 L2017.31 287.756 L2013.03 287.756 L2013.03 261.83 L2017.31 261.83 L2017.31 265.858 Q2018.84 263.52 2020.9 262.362 Q2022.98 261.205 2025.69 261.205 Q2030.16 261.205 2032.45 263.983 Q2034.74 266.737 2034.74 272.108 Z" fill="#000000" fill-rule="evenodd" fill-opacity="1" /><path clip-path="url(#clip570)" d="M2063.17 271.251 L2063.17 283.913 L2070.67 283.913 Q2074.44 283.913 2076.24 282.362 Q2078.07 280.788 2078.07 277.571 Q2078.07 274.33 2076.24 272.802 Q2074.44 271.251 2070.67 271.251 L2063.17 271.251 M2063.17 257.038 L2063.17 267.455 L2070.09 267.455 Q2073.51 267.455 2075.18 266.182 Q2076.87 264.885 2076.87 262.247 Q2076.87 259.631 2075.18 258.335 Q2073.51 257.038 2070.09 257.038 L2063.17 257.038 M2058.49 253.196 L2070.43 253.196 Q2075.78 253.196 2078.68 255.418 Q2081.57 257.64 2081.57 261.737 Q2081.57 264.909 2080.09 266.784 Q2078.61 268.659 2075.74 269.122 Q2079.18 269.862 2081.08 272.223 Q2083 274.561 2083 278.08 Q2083 282.709 2079.86 285.233 Q2076.71 287.756 2070.9 287.756 L2058.49 287.756 L2058.49 253.196 Z" fill="#000000" fill-rule="evenodd" fill-opacity="1" /><path clip-path="url(#clip570)" d="M2113 273.728 L2113 275.811 L2093.42 275.811 Q2093.7 280.209 2096.06 282.524 Q2098.44 284.816 2102.68 284.816 Q2105.13 284.816 2107.43 284.214 Q2109.74 283.612 2112.01 282.409 L2112.01 286.436 Q2109.72 287.408 2107.31 287.918 Q2104.9 288.427 2102.43 288.427 Q2096.22 288.427 2092.59 284.816 Q2088.98 281.205 2088.98 275.047 Q2088.98 268.682 2092.4 264.955 Q2095.85 261.205 2101.68 261.205 Q2106.92 261.205 2109.95 264.585 Q2113 267.941 2113 273.728 M2108.74 272.478 Q2108.7 268.983 2106.78 266.899 Q2104.88 264.816 2101.73 264.816 Q2098.17 264.816 2096.01 266.83 Q2093.88 268.844 2093.56 272.501 L2108.74 272.478 Z" fill="#000000" fill-rule="evenodd" fill-opacity="1" /><path clip-path="url(#clip570)" d="M2124.21 254.469 L2124.21 261.83 L2132.98 261.83 L2132.98 265.14 L2124.21 265.14 L2124.21 279.214 Q2124.21 282.385 2125.06 283.288 Q2125.94 284.191 2128.61 284.191 L2132.98 284.191 L2132.98 287.756 L2128.61 287.756 Q2123.67 287.756 2121.8 285.927 Q2119.92 284.075 2119.92 279.214 L2119.92 265.14 L2116.8 265.14 L2116.8 261.83 L2119.92 261.83 L2119.92 254.469 L2124.21 254.469 Z" fill="#000000" fill-rule="evenodd" fill-opacity="1" /><path clip-path="url(#clip570)" d="M2142.8 254.469 L2142.8 261.83 L2151.57 261.83 L2151.57 265.14 L2142.8 265.14 L2142.8 279.214 Q2142.8 282.385 2143.65 283.288 Q2144.53 284.191 2147.19 284.191 L2151.57 284.191 L2151.57 287.756 L2147.19 287.756 Q2142.26 287.756 2140.39 285.927 Q2138.51 284.075 2138.51 279.214 L2138.51 265.14 L2135.39 265.14 L2135.39 261.83 L2138.51 261.83 L2138.51 254.469 L2142.8 254.469 Z" fill="#000000" fill-rule="evenodd" fill-opacity="1" /><path clip-path="url(#clip570)" d="M2179.35 273.728 L2179.35 275.811 L2159.76 275.811 Q2160.04 280.209 2162.4 282.524 Q2164.79 284.816 2169.02 284.816 Q2171.48 284.816 2173.77 284.214 Q2176.08 283.612 2178.35 282.409 L2178.35 286.436 Q2176.06 287.408 2173.65 287.918 Q2171.24 288.427 2168.77 288.427 Q2162.56 288.427 2158.93 284.816 Q2155.32 281.205 2155.32 275.047 Q2155.32 268.682 2158.74 264.955 Q2162.19 261.205 2168.03 261.205 Q2173.26 261.205 2176.29 264.585 Q2179.35 267.941 2179.35 273.728 M2175.09 272.478 Q2175.04 268.983 2173.12 266.899 Q2171.22 264.816 2168.07 264.816 Q2164.51 264.816 2162.36 266.83 Q2160.23 268.844 2159.9 272.501 L2175.09 272.478 Z" fill="#000000" fill-rule="evenodd" fill-opacity="1" /><path clip-path="url(#clip570)" d="M2201.36 265.811 Q2200.64 265.395 2199.79 265.21 Q2198.95 265.001 2197.93 265.001 Q2194.32 265.001 2192.38 267.362 Q2190.46 269.7 2190.46 274.098 L2190.46 287.756 L2186.17 287.756 L2186.17 261.83 L2190.46 261.83 L2190.46 265.858 Q2191.8 263.497 2193.95 262.362 Q2196.11 261.205 2199.18 261.205 Q2199.62 261.205 2200.16 261.274 Q2200.69 261.321 2201.34 261.436 L2201.36 265.811 Z" fill="#000000" fill-rule="evenodd" fill-opacity="1" /><path clip-path="url(#clip570)" d="M2209.86 253.196 L2209.86 266.043 L2205.92 266.043 L2205.92 253.196 L2209.86 253.196 M2218.6 253.196 L2218.6 266.043 L2214.67 266.043 L2214.67 253.196 L2218.6 253.196 Z" fill="#000000" fill-rule="evenodd" fill-opacity="1" /><path clip-path="url(#clip570)" d="M2237.59 251.737 L2237.59 294.006 L2227.77 294.006 L2227.77 290.696 L2233.3 290.696 L2233.3 255.048 L2227.77 255.048 L2227.77 251.737 L2237.59 251.737 Z" fill="#000000" fill-rule="evenodd" fill-opacity="1" /><circle clip-path="url(#clip570)" cx="1775.96" cy="322.316" r="23" fill="#3da44d" fill-rule="evenodd" fill-opacity="1" stroke="#000000" stroke-opacity="1" stroke-width="5.12"/>
<path clip-path="url(#clip570)" d="M1868.1 303.577 L1877.91 303.577 L1877.91 306.888 L1872.36 306.888 L1872.36 342.536 L1877.91 342.536 L1877.91 345.846 L1868.1 345.846 L1868.1 303.577 Z" fill="#000000" fill-rule="evenodd" fill-opacity="1" /><path clip-path="url(#clip570)" d="M1891.01 305.036 L1891.01 317.883 L1887.08 317.883 L1887.08 305.036 L1891.01 305.036 M1899.76 305.036 L1899.76 317.883 L1895.83 317.883 L1895.83 305.036 L1899.76 305.036 Z" fill="#000000" fill-rule="evenodd" fill-opacity="1" /><path clip-path="url(#clip570)" d="M1928.98 318.647 Q1930.57 315.776 1932.8 314.411 Q1935.02 313.045 1938.03 313.045 Q1942.08 313.045 1944.28 315.892 Q1946.48 318.716 1946.48 323.948 L1946.48 339.596 L1942.19 339.596 L1942.19 324.087 Q1942.19 320.36 1940.87 318.554 Q1939.56 316.749 1936.85 316.749 Q1933.54 316.749 1931.62 318.948 Q1929.69 321.147 1929.69 324.943 L1929.69 339.596 L1925.41 339.596 L1925.41 324.087 Q1925.41 320.337 1924.09 318.554 Q1922.77 316.749 1920.02 316.749 Q1916.75 316.749 1914.83 318.971 Q1912.91 321.17 1912.91 324.943 L1912.91 339.596 L1908.63 339.596 L1908.63 313.67 L1912.91 313.67 L1912.91 317.698 Q1914.37 315.313 1916.41 314.179 Q1918.44 313.045 1921.25 313.045 Q1924.07 313.045 1926.04 314.48 Q1928.03 315.915 1928.98 318.647 Z" fill="#000000" fill-rule="evenodd" fill-opacity="1" /><path clip-path="url(#clip570)" d="M1977.15 325.568 L1977.15 327.651 L1957.56 327.651 Q1957.84 332.049 1960.2 334.364 Q1962.59 336.656 1966.82 336.656 Q1969.28 336.656 1971.57 336.054 Q1973.88 335.452 1976.15 334.249 L1976.15 338.276 Q1973.86 339.248 1971.45 339.758 Q1969.05 340.267 1966.57 340.267 Q1960.37 340.267 1956.73 336.656 Q1953.12 333.045 1953.12 326.887 Q1953.12 320.522 1956.55 316.795 Q1960 313.045 1965.83 313.045 Q1971.06 313.045 1974.09 316.425 Q1977.15 319.781 1977.15 325.568 M1972.89 324.318 Q1972.84 320.823 1970.92 318.739 Q1969.02 316.656 1965.87 316.656 Q1962.31 316.656 1960.16 318.67 Q1958.03 320.684 1957.7 324.341 L1972.89 324.318 Z" fill="#000000" fill-rule="evenodd" fill-opacity="1" /><path clip-path="url(#clip570)" d="M1995.92 326.563 Q1990.76 326.563 1988.77 327.744 Q1986.78 328.924 1986.78 331.772 Q1986.78 334.04 1988.26 335.383 Q1989.76 336.702 1992.33 336.702 Q1995.87 336.702 1998 334.202 Q2000.16 331.679 2000.16 327.512 L2000.16 326.563 L1995.92 326.563 M2004.42 324.804 L2004.42 339.596 L2000.16 339.596 L2000.16 335.661 Q1998.7 338.022 1996.52 339.156 Q1994.35 340.267 1991.2 340.267 Q1987.22 340.267 1984.86 338.045 Q1982.52 335.799 1982.52 332.049 Q1982.52 327.674 1985.43 325.452 Q1988.37 323.23 1994.18 323.23 L2000.16 323.23 L2000.16 322.813 Q2000.16 319.874 1998.21 318.276 Q1996.29 316.656 1992.8 316.656 Q1990.57 316.656 1988.47 317.188 Q1986.36 317.721 1984.42 318.786 L1984.42 314.85 Q1986.75 313.948 1988.95 313.508 Q1991.15 313.045 1993.24 313.045 Q1998.86 313.045 2001.64 315.962 Q2004.42 318.878 2004.42 324.804 Z" fill="#000000" fill-rule="evenodd" fill-opacity="1" /><path clip-path="url(#clip570)" d="M2034.74 323.948 L2034.74 339.596 L2030.48 339.596 L2030.48 324.087 Q2030.48 320.406 2029.05 318.577 Q2027.61 316.749 2024.74 316.749 Q2021.29 316.749 2019.3 318.948 Q2017.31 321.147 2017.31 324.943 L2017.31 339.596 L2013.03 339.596 L2013.03 313.67 L2017.31 313.67 L2017.31 317.698 Q2018.84 315.36 2020.9 314.202 Q2022.98 313.045 2025.69 313.045 Q2030.16 313.045 2032.45 315.823 Q2034.74 318.577 2034.74 323.948 Z" fill="#000000" fill-rule="evenodd" fill-opacity="1" /><path clip-path="url(#clip570)" d="M2063.17 323.091 L2063.17 335.753 L2070.67 335.753 Q2074.44 335.753 2076.24 334.202 Q2078.07 332.628 2078.07 329.411 Q2078.07 326.17 2076.24 324.642 Q2074.44 323.091 2070.67 323.091 L2063.17 323.091 M2063.17 308.878 L2063.17 319.295 L2070.09 319.295 Q2073.51 319.295 2075.18 318.022 Q2076.87 316.725 2076.87 314.087 Q2076.87 311.471 2075.18 310.175 Q2073.51 308.878 2070.09 308.878 L2063.17 308.878 M2058.49 305.036 L2070.43 305.036 Q2075.78 305.036 2078.68 307.258 Q2081.57 309.48 2081.57 313.577 Q2081.57 316.749 2080.09 318.624 Q2078.61 320.499 2075.74 320.962 Q2079.18 321.702 2081.08 324.063 Q2083 326.401 2083 329.92 Q2083 334.549 2079.86 337.073 Q2076.71 339.596 2070.9 339.596 L2058.49 339.596 L2058.49 305.036 Z" fill="#000000" fill-rule="evenodd" fill-opacity="1" /><path clip-path="url(#clip570)" d="M2113 325.568 L2113 327.651 L2093.42 327.651 Q2093.7 332.049 2096.06 334.364 Q2098.44 336.656 2102.68 336.656 Q2105.13 336.656 2107.43 336.054 Q2109.74 335.452 2112.01 334.249 L2112.01 338.276 Q2109.72 339.248 2107.31 339.758 Q2104.9 340.267 2102.43 340.267 Q2096.22 340.267 2092.59 336.656 Q2088.98 333.045 2088.98 326.887 Q2088.98 320.522 2092.4 316.795 Q2095.85 313.045 2101.68 313.045 Q2106.92 313.045 2109.95 316.425 Q2113 319.781 2113 325.568 M2108.74 324.318 Q2108.7 320.823 2106.78 318.739 Q2104.88 316.656 2101.73 316.656 Q2098.17 316.656 2096.01 318.67 Q2093.88 320.684 2093.56 324.341 L2108.74 324.318 Z" fill="#000000" fill-rule="evenodd" fill-opacity="1" /><path clip-path="url(#clip570)" d="M2136.52 314.434 L2136.52 318.462 Q2134.72 317.536 2132.77 317.073 Q2130.83 316.61 2128.74 316.61 Q2125.57 316.61 2123.98 317.582 Q2122.4 318.554 2122.4 320.499 Q2122.4 321.98 2123.54 322.837 Q2124.67 323.67 2128.1 324.434 L2129.55 324.758 Q2134.09 325.73 2135.99 327.512 Q2137.91 329.272 2137.91 332.443 Q2137.91 336.054 2135.04 338.161 Q2132.19 340.267 2127.19 340.267 Q2125.11 340.267 2122.84 339.85 Q2120.6 339.457 2118.1 338.647 L2118.1 334.249 Q2120.46 335.475 2122.75 336.1 Q2125.04 336.702 2127.29 336.702 Q2130.3 336.702 2131.92 335.684 Q2133.54 334.642 2133.54 332.767 Q2133.54 331.031 2132.36 330.105 Q2131.2 329.179 2127.24 328.323 L2125.76 327.975 Q2121.8 327.142 2120.04 325.429 Q2118.28 323.693 2118.28 320.684 Q2118.28 317.026 2120.87 315.036 Q2123.47 313.045 2128.24 313.045 Q2130.6 313.045 2132.68 313.392 Q2134.76 313.739 2136.52 314.434 Z" fill="#000000" fill-rule="evenodd" fill-opacity="1" /><path clip-path="url(#clip570)" d="M2148.91 306.309 L2148.91 313.67 L2157.68 313.67 L2157.68 316.98 L2148.91 316.98 L2148.91 331.054 Q2148.91 334.225 2149.76 335.128 Q2150.64 336.031 2153.3 336.031 L2157.68 336.031 L2157.68 339.596 L2153.3 339.596 Q2148.37 339.596 2146.5 337.767 Q2144.62 335.915 2144.62 331.054 L2144.62 316.98 L2141.5 316.98 L2141.5 313.67 L2144.62 313.67 L2144.62 306.309 L2148.91 306.309 Z" fill="#000000" fill-rule="evenodd" fill-opacity="1" /><path clip-path="url(#clip570)" d="M2167.31 305.036 L2167.31 317.883 L2163.37 317.883 L2163.37 305.036 L2167.31 305.036 M2176.06 305.036 L2176.06 317.883 L2172.12 317.883 L2172.12 305.036 L2176.06 305.036 Z" fill="#000000" fill-rule="evenodd" fill-opacity="1" /><path clip-path="url(#clip570)" d="M2195.04 303.577 L2195.04 345.846 L2185.23 345.846 L2185.23 342.536 L2190.76 342.536 L2190.76 306.888 L2185.23 306.888 L2185.23 303.577 L2195.04 303.577 Z" fill="#000000" fill-rule="evenodd" fill-opacity="1" /></svg>
