<?xml version="1.0" encoding="utf-8"?>
<svg xmlns="http://www.w3.org/2000/svg" xmlns:xlink="http://www.w3.org/1999/xlink" width="600" height="400" viewBox="0 0 2400 1600">
<defs>
  <clipPath id="clip810">
    <rect x="0" y="0" width="2400" height="1600"/>
  </clipPath>
</defs>
<path clip-path="url(#clip810)" d="
M0 1600 L2400 1600 L2400 0 L0 0  Z
  " fill="#ffffff" fill-rule="evenodd" fill-opacity="1"/>
<defs>
  <clipPath id="clip811">
    <rect x="480" y="0" width="1681" height="1600"/>
  </clipPath>
</defs>
<path clip-path="url(#clip810)" d="
M249.542 1423.18 L2352.76 1423.18 L2352.76 123.472 L249.542 123.472  Z
  " fill="#ffffff" fill-rule="evenodd" fill-opacity="1"/>
<defs>
  <clipPath id="clip812">
    <rect x="249" y="123" width="2104" height="1301"/>
  </clipPath>
</defs>
<polyline clip-path="url(#clip812)" style="stroke:#000000; stroke-linecap:butt; stroke-linejoin:round; stroke-width:2; stroke-opacity:0.1; fill:none" points="
  726.786,1423.18 726.786,123.472 
  "/>
<polyline clip-path="url(#clip812)" style="stroke:#000000; stroke-linecap:butt; stroke-linejoin:round; stroke-width:2; stroke-opacity:0.1; fill:none" points="
  1248.93,1423.18 1248.93,123.472 
  "/>
<polyline clip-path="url(#clip812)" style="stroke:#000000; stroke-linecap:butt; stroke-linejoin:round; stroke-width:2; stroke-opacity:0.1; fill:none" points="
  1771.08,1423.18 1771.08,123.472 
  "/>
<polyline clip-path="url(#clip812)" style="stroke:#000000; stroke-linecap:butt; stroke-linejoin:round; stroke-width:2; stroke-opacity:0.1; fill:none" points="
  2293.23,1423.18 2293.23,123.472 
  "/>
<polyline clip-path="url(#clip810)" style="stroke:#000000; stroke-linecap:butt; stroke-linejoin:round; stroke-width:4; stroke-opacity:1; fill:none" points="
  249.542,1423.18 2352.76,1423.18 
  "/>
<polyline clip-path="url(#clip810)" style="stroke:#000000; stroke-linecap:butt; stroke-linejoin:round; stroke-width:4; stroke-opacity:1; fill:none" points="
  726.786,1423.18 726.786,1404.28 
  "/>
<polyline clip-path="url(#clip810)" style="stroke:#000000; stroke-linecap:butt; stroke-linejoin:round; stroke-width:4; stroke-opacity:1; fill:none" points="
  1248.93,1423.18 1248.93,1404.28 
  "/>
<polyline clip-path="url(#clip810)" style="stroke:#000000; stroke-linecap:butt; stroke-linejoin:round; stroke-width:4; stroke-opacity:1; fill:none" points="
  1771.08,1423.18 1771.08,1404.28 
  "/>
<polyline clip-path="url(#clip810)" style="stroke:#000000; stroke-linecap:butt; stroke-linejoin:round; stroke-width:4; stroke-opacity:1; fill:none" points="
  2293.23,1423.18 2293.23,1404.28 
  "/>
<path clip-path="url(#clip810)" d="M701.485 1451.02 L719.841 1451.02 L719.841 1454.96 L705.767 1454.96 L705.767 1463.43 Q706.786 1463.08 707.804 1462.92 Q708.823 1462.73 709.841 1462.73 Q715.628 1462.73 719.008 1465.9 Q722.388 1469.08 722.388 1474.49 Q722.388 1480.07 718.915 1483.17 Q715.443 1486.25 709.124 1486.25 Q706.948 1486.25 704.679 1485.88 Q702.434 1485.51 700.027 1484.77 L700.027 1480.07 Q702.11 1481.2 704.332 1481.76 Q706.554 1482.32 709.031 1482.32 Q713.036 1482.32 715.374 1480.21 Q717.712 1478.1 717.712 1474.49 Q717.712 1470.88 715.374 1468.77 Q713.036 1466.67 709.031 1466.67 Q707.156 1466.67 705.281 1467.08 Q703.429 1467.5 701.485 1468.38 L701.485 1451.02 Z" fill="#000000" fill-rule="evenodd" fill-opacity="1" /><path clip-path="url(#clip810)" d="M741.6 1454.1 Q737.989 1454.1 736.161 1457.66 Q734.355 1461.2 734.355 1468.33 Q734.355 1475.44 736.161 1479.01 Q737.989 1482.55 741.6 1482.55 Q745.235 1482.55 747.04 1479.01 Q748.869 1475.44 748.869 1468.33 Q748.869 1461.2 747.04 1457.66 Q745.235 1454.1 741.6 1454.1 M741.6 1450.39 Q747.411 1450.39 750.466 1455 Q753.545 1459.58 753.545 1468.33 Q753.545 1477.06 750.466 1481.67 Q747.411 1486.25 741.6 1486.25 Q735.79 1486.25 732.712 1481.67 Q729.656 1477.06 729.656 1468.33 Q729.656 1459.58 732.712 1455 Q735.79 1450.39 741.6 1450.39 Z" fill="#000000" fill-rule="evenodd" fill-opacity="1" /><path clip-path="url(#clip810)" d="M1208.54 1481.64 L1216.18 1481.64 L1216.18 1455.28 L1207.87 1456.95 L1207.87 1452.69 L1216.13 1451.02 L1220.81 1451.02 L1220.81 1481.64 L1228.45 1481.64 L1228.45 1485.58 L1208.54 1485.58 L1208.54 1481.64 Z" fill="#000000" fill-rule="evenodd" fill-opacity="1" /><path clip-path="url(#clip810)" d="M1247.89 1454.1 Q1244.28 1454.1 1242.45 1457.66 Q1240.65 1461.2 1240.65 1468.33 Q1240.65 1475.44 1242.45 1479.01 Q1244.28 1482.55 1247.89 1482.55 Q1251.53 1482.55 1253.33 1479.01 Q1255.16 1475.44 1255.16 1468.33 Q1255.16 1461.2 1253.33 1457.66 Q1251.53 1454.1 1247.89 1454.1 M1247.89 1450.39 Q1253.7 1450.39 1256.76 1455 Q1259.84 1459.58 1259.84 1468.33 Q1259.84 1477.06 1256.76 1481.67 Q1253.7 1486.25 1247.89 1486.25 Q1242.08 1486.25 1239 1481.67 Q1235.95 1477.06 1235.95 1468.33 Q1235.95 1459.58 1239 1455 Q1242.08 1450.39 1247.89 1450.39 Z" fill="#000000" fill-rule="evenodd" fill-opacity="1" /><path clip-path="url(#clip810)" d="M1278.05 1454.1 Q1274.44 1454.1 1272.61 1457.66 Q1270.81 1461.2 1270.81 1468.33 Q1270.81 1475.44 1272.61 1479.01 Q1274.44 1482.55 1278.05 1482.55 Q1281.69 1482.55 1283.49 1479.01 Q1285.32 1475.44 1285.32 1468.33 Q1285.32 1461.2 1283.49 1457.66 Q1281.69 1454.1 1278.05 1454.1 M1278.05 1450.39 Q1283.86 1450.39 1286.92 1455 Q1290 1459.58 1290 1468.33 Q1290 1477.06 1286.92 1481.67 Q1283.86 1486.25 1278.05 1486.25 Q1272.24 1486.25 1269.17 1481.67 Q1266.11 1477.06 1266.11 1468.33 Q1266.11 1459.58 1269.17 1455 Q1272.24 1450.39 1278.05 1450.39 Z" fill="#000000" fill-rule="evenodd" fill-opacity="1" /><path clip-path="url(#clip810)" d="M1730.69 1481.64 L1738.33 1481.64 L1738.33 1455.28 L1730.02 1456.95 L1730.02 1452.69 L1738.28 1451.02 L1742.96 1451.02 L1742.96 1481.64 L1750.6 1481.64 L1750.6 1485.58 L1730.69 1485.58 L1730.69 1481.64 Z" fill="#000000" fill-rule="evenodd" fill-opacity="1" /><path clip-path="url(#clip810)" d="M1760.09 1451.02 L1778.44 1451.02 L1778.44 1454.96 L1764.37 1454.96 L1764.37 1463.43 Q1765.39 1463.08 1766.41 1462.92 Q1767.43 1462.73 1768.44 1462.73 Q1774.23 1462.73 1777.61 1465.9 Q1780.99 1469.08 1780.99 1474.49 Q1780.99 1480.07 1777.52 1483.17 Q1774.05 1486.25 1767.73 1486.25 Q1765.55 1486.25 1763.28 1485.88 Q1761.04 1485.51 1758.63 1484.77 L1758.63 1480.07 Q1760.71 1481.2 1762.93 1481.76 Q1765.16 1482.32 1767.63 1482.32 Q1771.64 1482.32 1773.98 1480.21 Q1776.31 1478.1 1776.31 1474.49 Q1776.31 1470.88 1773.98 1468.77 Q1771.64 1466.67 1767.63 1466.67 Q1765.76 1466.67 1763.88 1467.08 Q1762.03 1467.5 1760.09 1468.38 L1760.09 1451.02 Z" fill="#000000" fill-rule="evenodd" fill-opacity="1" /><path clip-path="url(#clip810)" d="M1800.2 1454.1 Q1796.59 1454.1 1794.76 1457.66 Q1792.96 1461.2 1792.96 1468.33 Q1792.96 1475.44 1794.76 1479.01 Q1796.59 1482.55 1800.2 1482.55 Q1803.84 1482.55 1805.64 1479.01 Q1807.47 1475.44 1807.47 1468.33 Q1807.47 1461.2 1805.64 1457.66 Q1803.84 1454.1 1800.2 1454.1 M1800.2 1450.39 Q1806.01 1450.39 1809.07 1455 Q1812.15 1459.58 1812.15 1468.33 Q1812.15 1477.06 1809.07 1481.67 Q1806.01 1486.25 1800.2 1486.25 Q1794.39 1486.25 1791.31 1481.67 Q1788.26 1477.06 1788.26 1468.33 Q1788.26 1459.58 1791.31 1455 Q1794.39 1450.39 1800.2 1450.39 Z" fill="#000000" fill-rule="evenodd" fill-opacity="1" /><path clip-path="url(#clip810)" d="M2256.92 1481.64 L2273.24 1481.64 L2273.24 1485.58 L2251.3 1485.58 L2251.3 1481.64 Q2253.96 1478.89 2258.54 1474.26 Q2263.15 1469.61 2264.33 1468.27 Q2266.58 1465.74 2267.46 1464.01 Q2268.36 1462.25 2268.36 1460.56 Q2268.36 1457.8 2266.41 1456.07 Q2264.49 1454.33 2261.39 1454.33 Q2259.19 1454.33 2256.74 1455.09 Q2254.31 1455.86 2251.53 1457.41 L2251.53 1452.69 Q2254.35 1451.55 2256.81 1450.97 Q2259.26 1450.39 2261.3 1450.39 Q2266.67 1450.39 2269.86 1453.08 Q2273.06 1455.77 2273.06 1460.26 Q2273.06 1462.39 2272.25 1464.31 Q2271.46 1466.2 2269.35 1468.8 Q2268.78 1469.47 2265.67 1472.69 Q2262.57 1475.88 2256.92 1481.64 Z" fill="#000000" fill-rule="evenodd" fill-opacity="1" /><path clip-path="url(#clip810)" d="M2293.06 1454.1 Q2289.45 1454.1 2287.62 1457.66 Q2285.81 1461.2 2285.81 1468.33 Q2285.81 1475.44 2287.62 1479.01 Q2289.45 1482.55 2293.06 1482.55 Q2296.69 1482.55 2298.5 1479.01 Q2300.33 1475.44 2300.33 1468.33 Q2300.33 1461.2 2298.5 1457.66 Q2296.69 1454.1 2293.06 1454.1 M2293.06 1450.39 Q2298.87 1450.39 2301.92 1455 Q2305 1459.58 2305 1468.33 Q2305 1477.06 2301.92 1481.67 Q2298.87 1486.25 2293.06 1486.25 Q2287.25 1486.25 2284.17 1481.67 Q2281.11 1477.06 2281.11 1468.33 Q2281.11 1459.58 2284.17 1455 Q2287.25 1450.39 2293.06 1450.39 Z" fill="#000000" fill-rule="evenodd" fill-opacity="1" /><path clip-path="url(#clip810)" d="M2323.22 1454.1 Q2319.61 1454.1 2317.78 1457.66 Q2315.97 1461.2 2315.97 1468.33 Q2315.97 1475.44 2317.78 1479.01 Q2319.61 1482.55 2323.22 1482.55 Q2326.85 1482.55 2328.66 1479.01 Q2330.49 1475.44 2330.49 1468.33 Q2330.49 1461.2 2328.66 1457.66 Q2326.85 1454.1 2323.22 1454.1 M2323.22 1450.39 Q2329.03 1450.39 2332.08 1455 Q2335.16 1459.58 2335.16 1468.33 Q2335.16 1477.06 2332.08 1481.67 Q2329.03 1486.25 2323.22 1486.25 Q2317.41 1486.25 2314.33 1481.67 Q2311.27 1477.06 2311.27 1468.33 Q2311.27 1459.58 2314.33 1455 Q2317.41 1450.39 2323.22 1450.39 Z" fill="#000000" fill-rule="evenodd" fill-opacity="1" /><path clip-path="url(#clip810)" d="M1266.79 1533.45 L1266.79 1538.98 Q1264.31 1537.71 1261.63 1537.07 Q1258.96 1536.44 1256.1 1536.44 Q1251.74 1536.44 1249.54 1537.77 Q1247.37 1539.11 1247.37 1541.79 Q1247.37 1543.82 1248.93 1545 Q1250.49 1546.15 1255.2 1547.2 L1257.21 1547.64 Q1263.45 1548.98 1266.06 1551.43 Q1268.7 1553.85 1268.7 1558.21 Q1268.7 1563.17 1264.75 1566.07 Q1260.84 1568.97 1253.96 1568.97 Q1251.1 1568.97 1247.98 1568.39 Q1244.89 1567.85 1241.45 1566.74 L1241.45 1560.69 Q1244.7 1562.38 1247.85 1563.24 Q1251 1564.07 1254.09 1564.07 Q1258.23 1564.07 1260.46 1562.66 Q1262.68 1561.23 1262.68 1558.65 Q1262.68 1556.27 1261.06 1554.99 Q1259.47 1553.72 1254.03 1552.54 L1251.99 1552.07 Q1246.55 1550.92 1244.13 1548.56 Q1241.71 1546.18 1241.71 1542.04 Q1241.71 1537.01 1245.27 1534.27 Q1248.84 1531.54 1255.4 1531.54 Q1258.64 1531.54 1261.51 1532.01 Q1264.37 1532.49 1266.79 1533.45 Z" fill="#000000" fill-rule="evenodd" fill-opacity="1" /><path clip-path="url(#clip810)" d="M1278.03 1532.4 L1283.88 1532.4 L1283.88 1568.04 L1278.03 1568.04 L1278.03 1532.4 M1278.03 1518.52 L1283.88 1518.52 L1283.88 1525.93 L1278.03 1525.93 L1278.03 1518.52 Z" fill="#000000" fill-rule="evenodd" fill-opacity="1" /><path clip-path="url(#clip810)" d="M1293.59 1532.4 L1321.41 1532.4 L1321.41 1537.74 L1299.38 1563.37 L1321.41 1563.37 L1321.41 1568.04 L1292.79 1568.04 L1292.79 1562.7 L1314.82 1537.07 L1293.59 1537.07 L1293.59 1532.4 Z" fill="#000000" fill-rule="evenodd" fill-opacity="1" /><path clip-path="url(#clip810)" d="M1360.84 1548.76 L1360.84 1551.62 L1333.92 1551.62 Q1334.3 1557.67 1337.54 1560.85 Q1340.82 1564 1346.65 1564 Q1350.02 1564 1353.17 1563.17 Q1356.36 1562.35 1359.47 1560.69 L1359.47 1566.23 Q1356.32 1567.57 1353.01 1568.27 Q1349.7 1568.97 1346.3 1568.97 Q1337.77 1568.97 1332.77 1564 Q1327.81 1559.04 1327.81 1550.57 Q1327.81 1541.82 1332.52 1536.69 Q1337.26 1531.54 1345.28 1531.54 Q1352.47 1531.54 1356.64 1536.18 Q1360.84 1540.8 1360.84 1548.76 M1354.99 1547.04 Q1354.92 1542.23 1352.28 1539.37 Q1349.67 1536.5 1345.34 1536.5 Q1340.44 1536.5 1337.48 1539.27 Q1334.55 1542.04 1334.11 1547.07 L1354.99 1547.04 Z" fill="#000000" fill-rule="evenodd" fill-opacity="1" /><polyline clip-path="url(#clip812)" style="stroke:#000000; stroke-linecap:butt; stroke-linejoin:round; stroke-width:2; stroke-opacity:0.1; fill:none" points="
  249.542,1380.04 2352.76,1380.04 
  "/>
<polyline clip-path="url(#clip812)" style="stroke:#000000; stroke-linecap:butt; stroke-linejoin:round; stroke-width:2; stroke-opacity:0.1; fill:none" points="
  249.542,981.416 2352.76,981.416 
  "/>
<polyline clip-path="url(#clip812)" style="stroke:#000000; stroke-linecap:butt; stroke-linejoin:round; stroke-width:2; stroke-opacity:0.1; fill:none" points="
  249.542,582.795 2352.76,582.795 
  "/>
<polyline clip-path="url(#clip812)" style="stroke:#000000; stroke-linecap:butt; stroke-linejoin:round; stroke-width:2; stroke-opacity:0.1; fill:none" points="
  249.542,184.174 2352.76,184.174 
  "/>
<polyline clip-path="url(#clip810)" style="stroke:#000000; stroke-linecap:butt; stroke-linejoin:round; stroke-width:4; stroke-opacity:1; fill:none" points="
  249.542,1423.18 249.542,123.472 
  "/>
<polyline clip-path="url(#clip810)" style="stroke:#000000; stroke-linecap:butt; stroke-linejoin:round; stroke-width:4; stroke-opacity:1; fill:none" points="
  249.542,1380.04 268.44,1380.04 
  "/>
<polyline clip-path="url(#clip810)" style="stroke:#000000; stroke-linecap:butt; stroke-linejoin:round; stroke-width:4; stroke-opacity:1; fill:none" points="
  249.542,981.416 268.44,981.416 
  "/>
<polyline clip-path="url(#clip810)" style="stroke:#000000; stroke-linecap:butt; stroke-linejoin:round; stroke-width:4; stroke-opacity:1; fill:none" points="
  249.542,582.795 268.44,582.795 
  "/>
<polyline clip-path="url(#clip810)" style="stroke:#000000; stroke-linecap:butt; stroke-linejoin:round; stroke-width:4; stroke-opacity:1; fill:none" points="
  249.542,184.174 268.44,184.174 
  "/>
<path clip-path="url(#clip810)" d="M126.205 1365.84 Q122.593 1365.84 120.765 1369.4 Q118.959 1372.94 118.959 1380.07 Q118.959 1387.18 120.765 1390.74 Q122.593 1394.28 126.205 1394.28 Q129.839 1394.28 131.644 1390.74 Q133.473 1387.18 133.473 1380.07 Q133.473 1372.94 131.644 1369.4 Q129.839 1365.84 126.205 1365.84 M126.205 1362.13 Q132.015 1362.13 135.07 1366.74 Q138.149 1371.32 138.149 1380.07 Q138.149 1388.8 135.07 1393.4 Q132.015 1397.99 126.205 1397.99 Q120.394 1397.99 117.316 1393.4 Q114.26 1388.8 114.26 1380.07 Q114.26 1371.32 117.316 1366.74 Q120.394 1362.13 126.205 1362.13 Z" fill="#000000" fill-rule="evenodd" fill-opacity="1" /><path clip-path="url(#clip810)" d="M146.366 1391.44 L151.251 1391.44 L151.251 1397.32 L146.366 1397.32 L146.366 1391.44 Z" fill="#000000" fill-rule="evenodd" fill-opacity="1" /><path clip-path="url(#clip810)" d="M171.436 1365.84 Q167.825 1365.84 165.996 1369.4 Q164.19 1372.94 164.19 1380.07 Q164.19 1387.18 165.996 1390.74 Q167.825 1394.28 171.436 1394.28 Q175.07 1394.28 176.876 1390.74 Q178.704 1387.18 178.704 1380.07 Q178.704 1372.94 176.876 1369.4 Q175.07 1365.84 171.436 1365.84 M171.436 1362.13 Q177.246 1362.13 180.301 1366.74 Q183.38 1371.32 183.38 1380.07 Q183.38 1388.8 180.301 1393.4 Q177.246 1397.99 171.436 1397.99 Q165.626 1397.99 162.547 1393.4 Q159.491 1388.8 159.491 1380.07 Q159.491 1371.32 162.547 1366.74 Q165.626 1362.13 171.436 1362.13 Z" fill="#000000" fill-rule="evenodd" fill-opacity="1" /><path clip-path="url(#clip810)" d="M201.598 1365.84 Q197.987 1365.84 196.158 1369.4 Q194.352 1372.94 194.352 1380.07 Q194.352 1387.18 196.158 1390.74 Q197.987 1394.28 201.598 1394.28 Q205.232 1394.28 207.037 1390.74 Q208.866 1387.18 208.866 1380.07 Q208.866 1372.94 207.037 1369.4 Q205.232 1365.84 201.598 1365.84 M201.598 1362.13 Q207.408 1362.13 210.463 1366.74 Q213.542 1371.32 213.542 1380.07 Q213.542 1388.8 210.463 1393.4 Q207.408 1397.99 201.598 1397.99 Q195.787 1397.99 192.709 1393.4 Q189.653 1388.8 189.653 1380.07 Q189.653 1371.32 192.709 1366.74 Q195.787 1362.13 201.598 1362.13 Z" fill="#000000" fill-rule="evenodd" fill-opacity="1" /><path clip-path="url(#clip810)" d="M127.431 967.214 Q123.82 967.214 121.992 970.779 Q120.186 974.321 120.186 981.45 Q120.186 988.557 121.992 992.122 Q123.82 995.663 127.431 995.663 Q131.066 995.663 132.871 992.122 Q134.7 988.557 134.7 981.45 Q134.7 974.321 132.871 970.779 Q131.066 967.214 127.431 967.214 M127.431 963.511 Q133.242 963.511 136.297 968.117 Q139.376 972.7 139.376 981.45 Q139.376 990.177 136.297 994.784 Q133.242 999.367 127.431 999.367 Q121.621 999.367 118.543 994.784 Q115.487 990.177 115.487 981.45 Q115.487 972.7 118.543 968.117 Q121.621 963.511 127.431 963.511 Z" fill="#000000" fill-rule="evenodd" fill-opacity="1" /><path clip-path="url(#clip810)" d="M147.593 992.816 L152.478 992.816 L152.478 998.696 L147.593 998.696 L147.593 992.816 Z" fill="#000000" fill-rule="evenodd" fill-opacity="1" /><path clip-path="url(#clip810)" d="M172.663 967.214 Q169.052 967.214 167.223 970.779 Q165.417 974.321 165.417 981.45 Q165.417 988.557 167.223 992.122 Q169.052 995.663 172.663 995.663 Q176.297 995.663 178.102 992.122 Q179.931 988.557 179.931 981.45 Q179.931 974.321 178.102 970.779 Q176.297 967.214 172.663 967.214 M172.663 963.511 Q178.473 963.511 181.528 968.117 Q184.607 972.7 184.607 981.45 Q184.607 990.177 181.528 994.784 Q178.473 999.367 172.663 999.367 Q166.852 999.367 163.774 994.784 Q160.718 990.177 160.718 981.45 Q160.718 972.7 163.774 968.117 Q166.852 963.511 172.663 963.511 Z" fill="#000000" fill-rule="evenodd" fill-opacity="1" /><path clip-path="url(#clip810)" d="M193.635 994.76 L201.274 994.76 L201.274 968.395 L192.963 970.062 L192.963 965.802 L201.227 964.136 L205.903 964.136 L205.903 994.76 L213.542 994.76 L213.542 998.696 L193.635 998.696 L193.635 994.76 Z" fill="#000000" fill-rule="evenodd" fill-opacity="1" /><path clip-path="url(#clip810)" d="M127.802 568.593 Q124.191 568.593 122.362 572.158 Q120.556 575.7 120.556 582.829 Q120.556 589.936 122.362 593.501 Q124.191 597.042 127.802 597.042 Q131.436 597.042 133.242 593.501 Q135.07 589.936 135.07 582.829 Q135.07 575.7 133.242 572.158 Q131.436 568.593 127.802 568.593 M127.802 564.89 Q133.612 564.89 136.667 569.496 Q139.746 574.079 139.746 582.829 Q139.746 591.556 136.667 596.163 Q133.612 600.746 127.802 600.746 Q121.992 600.746 118.913 596.163 Q115.857 591.556 115.857 582.829 Q115.857 574.079 118.913 569.496 Q121.992 564.89 127.802 564.89 Z" fill="#000000" fill-rule="evenodd" fill-opacity="1" /><path clip-path="url(#clip810)" d="M147.964 594.195 L152.848 594.195 L152.848 600.075 L147.964 600.075 L147.964 594.195 Z" fill="#000000" fill-rule="evenodd" fill-opacity="1" /><path clip-path="url(#clip810)" d="M173.033 568.593 Q169.422 568.593 167.593 572.158 Q165.788 575.7 165.788 582.829 Q165.788 589.936 167.593 593.501 Q169.422 597.042 173.033 597.042 Q176.667 597.042 178.473 593.501 Q180.301 589.936 180.301 582.829 Q180.301 575.7 178.473 572.158 Q176.667 568.593 173.033 568.593 M173.033 564.89 Q178.843 564.89 181.899 569.496 Q184.977 574.079 184.977 582.829 Q184.977 591.556 181.899 596.163 Q178.843 600.746 173.033 600.746 Q167.223 600.746 164.144 596.163 Q161.089 591.556 161.089 582.829 Q161.089 574.079 164.144 569.496 Q167.223 564.89 173.033 564.89 Z" fill="#000000" fill-rule="evenodd" fill-opacity="1" /><path clip-path="url(#clip810)" d="M197.223 596.139 L213.542 596.139 L213.542 600.075 L191.598 600.075 L191.598 596.139 Q194.26 593.385 198.843 588.755 Q203.449 584.102 204.63 582.76 Q206.875 580.237 207.755 578.501 Q208.658 576.741 208.658 575.052 Q208.658 572.297 206.713 570.561 Q204.792 568.825 201.69 568.825 Q199.491 568.825 197.037 569.589 Q194.607 570.353 191.829 571.903 L191.829 567.181 Q194.653 566.047 197.107 565.468 Q199.561 564.89 201.598 564.89 Q206.968 564.89 210.162 567.575 Q213.357 570.26 213.357 574.751 Q213.357 576.88 212.547 578.802 Q211.76 580.7 209.653 583.292 Q209.074 583.964 205.973 587.181 Q202.871 590.376 197.223 596.139 Z" fill="#000000" fill-rule="evenodd" fill-opacity="1" /><path clip-path="url(#clip810)" d="M126.853 169.972 Q123.242 169.972 121.413 173.537 Q119.607 177.079 119.607 184.208 Q119.607 191.315 121.413 194.88 Q123.242 198.421 126.853 198.421 Q130.487 198.421 132.292 194.88 Q134.121 191.315 134.121 184.208 Q134.121 177.079 132.292 173.537 Q130.487 169.972 126.853 169.972 M126.853 166.269 Q132.663 166.269 135.718 170.875 Q138.797 175.458 138.797 184.208 Q138.797 192.935 135.718 197.542 Q132.663 202.125 126.853 202.125 Q121.043 202.125 117.964 197.542 Q114.908 192.935 114.908 184.208 Q114.908 175.458 117.964 170.875 Q121.043 166.269 126.853 166.269 Z" fill="#000000" fill-rule="evenodd" fill-opacity="1" /><path clip-path="url(#clip810)" d="M147.015 195.574 L151.899 195.574 L151.899 201.454 L147.015 201.454 L147.015 195.574 Z" fill="#000000" fill-rule="evenodd" fill-opacity="1" /><path clip-path="url(#clip810)" d="M172.084 169.972 Q168.473 169.972 166.644 173.537 Q164.839 177.079 164.839 184.208 Q164.839 191.315 166.644 194.88 Q168.473 198.421 172.084 198.421 Q175.718 198.421 177.524 194.88 Q179.352 191.315 179.352 184.208 Q179.352 177.079 177.524 173.537 Q175.718 169.972 172.084 169.972 M172.084 166.269 Q177.894 166.269 180.95 170.875 Q184.028 175.458 184.028 184.208 Q184.028 192.935 180.95 197.542 Q177.894 202.125 172.084 202.125 Q166.274 202.125 163.195 197.542 Q160.14 192.935 160.14 184.208 Q160.14 175.458 163.195 170.875 Q166.274 166.269 172.084 166.269 Z" fill="#000000" fill-rule="evenodd" fill-opacity="1" /><path clip-path="url(#clip810)" d="M206.412 182.819 Q209.769 183.537 211.644 185.806 Q213.542 188.074 213.542 191.407 Q213.542 196.523 210.024 199.324 Q206.505 202.125 200.024 202.125 Q197.848 202.125 195.533 201.685 Q193.241 201.268 190.788 200.412 L190.788 195.898 Q192.732 197.032 195.047 197.611 Q197.362 198.19 199.885 198.19 Q204.283 198.19 206.574 196.454 Q208.889 194.717 208.889 191.407 Q208.889 188.352 206.737 186.639 Q204.607 184.903 200.787 184.903 L196.76 184.903 L196.76 181.06 L200.973 181.06 Q204.422 181.06 206.25 179.694 Q208.079 178.306 208.079 175.713 Q208.079 173.051 206.181 171.639 Q204.306 170.204 200.787 170.204 Q198.866 170.204 196.667 170.62 Q194.468 171.037 191.829 171.917 L191.829 167.75 Q194.491 167.009 196.806 166.639 Q199.144 166.269 201.204 166.269 Q206.528 166.269 209.63 168.699 Q212.732 171.107 212.732 175.227 Q212.732 178.097 211.088 180.088 Q209.445 182.056 206.412 182.819 Z" fill="#000000" fill-rule="evenodd" fill-opacity="1" /><path clip-path="url(#clip810)" d="M18.2347 885.872 L28.3562 885.872 L28.3562 873.809 L32.9077 873.809 L32.9077 885.872 L52.2594 885.872 Q56.6199 885.872 57.8613 884.694 Q59.1026 883.485 59.1026 879.824 L59.1026 873.809 L64.0042 873.809 L64.0042 879.824 Q64.0042 886.604 61.4897 889.182 Q58.9434 891.76 52.2594 891.76 L32.9077 891.76 L32.9077 896.057 L28.3562 896.057 L28.3562 891.76 L18.2347 891.76 L18.2347 885.872 Z" fill="#000000" fill-rule="evenodd" fill-opacity="1" /><path clip-path="url(#clip810)" d="M28.3562 866.106 L28.3562 860.25 L64.0042 860.25 L64.0042 866.106 L28.3562 866.106 M14.479 866.106 L14.479 860.25 L21.895 860.25 L21.895 866.106 L14.479 866.106 Z" fill="#000000" fill-rule="evenodd" fill-opacity="1" /><path clip-path="url(#clip810)" d="M35.1993 820.241 Q31.2526 818.045 29.3747 814.99 Q27.4968 811.934 27.4968 807.796 Q27.4968 802.226 31.4117 799.203 Q35.2948 796.179 42.4881 796.179 L64.0042 796.179 L64.0042 802.067 L42.679 802.067 Q37.5546 802.067 35.072 803.881 Q32.5894 805.696 32.5894 809.42 Q32.5894 813.971 35.6131 816.613 Q38.6368 819.255 43.8567 819.255 L64.0042 819.255 L64.0042 825.143 L42.679 825.143 Q37.5228 825.143 35.072 826.957 Q32.5894 828.771 32.5894 832.559 Q32.5894 837.047 35.6449 839.688 Q38.6686 842.33 43.8567 842.33 L64.0042 842.33 L64.0042 848.219 L28.3562 848.219 L28.3562 842.33 L33.8944 842.33 Q30.616 840.325 29.0564 837.524 Q27.4968 834.723 27.4968 830.872 Q27.4968 826.989 29.4702 824.283 Q31.4436 821.546 35.1993 820.241 Z" fill="#000000" fill-rule="evenodd" fill-opacity="1" /><path clip-path="url(#clip810)" d="M44.7161 754.006 L47.5806 754.006 L47.5806 780.933 Q53.6281 780.551 56.8109 777.305 Q59.9619 774.026 59.9619 768.202 Q59.9619 764.828 59.1344 761.677 Q58.3069 758.494 56.6518 755.375 L62.1899 755.375 Q63.5267 758.526 64.227 761.836 Q64.9272 765.146 64.9272 768.552 Q64.9272 777.082 59.9619 782.079 Q54.9967 787.044 46.5303 787.044 Q37.7774 787.044 32.6531 782.333 Q27.4968 777.591 27.4968 769.57 Q27.4968 762.377 32.1438 758.207 Q36.7589 754.006 44.7161 754.006 M42.9973 759.863 Q38.1912 759.926 35.3266 762.568 Q32.4621 765.178 32.4621 769.507 Q32.4621 774.408 35.2312 777.368 Q38.0002 780.296 43.0292 780.742 L42.9973 759.863 Z" fill="#000000" fill-rule="evenodd" fill-opacity="1" /><path clip-path="url(#clip810)" d="M14.479 724.215 L14.479 710.719 L19.0304 710.719 L19.0304 718.358 L68.0464 718.358 L68.0464 710.719 L72.5979 710.719 L72.5979 724.215 L14.479 724.215 Z" fill="#000000" fill-rule="evenodd" fill-opacity="1" /><path clip-path="url(#clip810)" d="M29.4065 675.517 L34.9447 675.517 Q33.6716 678 33.035 680.673 Q32.3984 683.347 32.3984 686.211 Q32.3984 690.572 33.7352 692.768 Q35.072 694.932 37.7456 694.932 Q39.7826 694.932 40.9603 693.373 Q42.1061 691.813 43.1565 687.102 L43.6021 685.097 Q44.9389 678.859 47.3897 676.249 Q49.8086 673.607 54.1691 673.607 Q59.1344 673.607 62.0308 677.554 Q64.9272 681.469 64.9272 688.344 Q64.9272 691.208 64.3543 694.328 Q63.8132 697.415 62.6992 700.852 L56.6518 700.852 Q58.3387 697.606 59.198 694.455 Q60.0256 691.304 60.0256 688.216 Q60.0256 684.079 58.6251 681.851 Q57.1929 679.623 54.6147 679.623 Q52.2276 679.623 50.9545 681.246 Q49.6813 682.837 48.5037 688.28 L48.0262 690.317 Q46.8804 695.76 44.5251 698.179 Q42.138 700.598 38.0002 700.598 Q32.9713 700.598 30.2341 697.033 Q27.4968 693.468 27.4968 686.912 Q27.4968 683.665 27.9743 680.8 Q28.4517 677.936 29.4065 675.517 Z" fill="#000000" fill-rule="evenodd" fill-opacity="1" /><path clip-path="url(#clip810)" d="M14.479 650.595 L72.5979 650.595 L72.5979 664.09 L68.0464 664.09 L68.0464 656.483 L19.0304 656.483 L19.0304 664.09 L14.479 664.09 L14.479 650.595 Z" fill="#000000" fill-rule="evenodd" fill-opacity="1" /><path clip-path="url(#clip810)" d="M1178.57 49.9314 Q1178.57 41.7081 1175.17 37.0496 Q1171.8 32.3505 1165.89 32.3505 Q1159.97 32.3505 1156.57 37.0496 Q1153.21 41.7081 1153.21 49.9314 Q1153.21 58.1548 1156.57 62.8538 Q1159.97 67.5124 1165.89 67.5124 Q1171.8 67.5124 1175.17 62.8538 Q1178.57 58.1548 1178.57 49.9314 M1153.21 34.0924 Q1155.56 30.0415 1159.12 28.0971 Q1162.73 26.1121 1167.71 26.1121 Q1175.98 26.1121 1181.12 32.6746 Q1186.31 39.2371 1186.31 49.9314 Q1186.31 60.6258 1181.12 67.1883 Q1175.98 73.7508 1167.71 73.7508 Q1162.73 73.7508 1159.12 71.8063 Q1155.56 69.8214 1153.21 65.7705 L1153.21 72.576 L1145.72 72.576 L1145.72 9.54393 L1153.21 9.54393 L1153.21 34.0924 Z" fill="#000000" fill-rule="evenodd" fill-opacity="1" /><path clip-path="url(#clip810)" d="M1237.47 48.0275 L1237.47 51.6733 L1203.2 51.6733 Q1203.68 59.3701 1207.82 63.421 Q1211.99 67.4314 1219.4 67.4314 Q1223.7 67.4314 1227.71 66.3781 Q1231.76 65.3249 1235.73 63.2184 L1235.73 70.267 Q1231.72 71.9684 1227.5 72.8596 Q1223.29 73.7508 1218.96 73.7508 Q1208.1 73.7508 1201.74 67.4314 Q1195.42 61.1119 1195.42 50.3365 Q1195.42 39.1965 1201.42 32.6746 Q1207.45 26.1121 1217.66 26.1121 Q1226.81 26.1121 1232.12 32.0264 Q1237.47 37.9003 1237.47 48.0275 M1230.02 45.84 Q1229.93 39.7232 1226.57 36.0774 Q1223.25 32.4315 1217.74 32.4315 Q1211.5 32.4315 1207.74 35.9558 Q1204.01 39.4801 1203.44 45.8805 L1230.02 45.84 Z" fill="#000000" fill-rule="evenodd" fill-opacity="1" /><path clip-path="url(#clip810)" d="M1278.63 28.5427 L1278.63 35.5912 Q1275.47 33.9709 1272.06 33.1607 Q1268.66 32.3505 1265.01 32.3505 Q1259.47 32.3505 1256.67 34.0519 Q1253.92 35.7533 1253.92 39.156 Q1253.92 41.7486 1255.9 43.2475 Q1257.89 44.7058 1263.88 46.0426 L1266.43 46.6097 Q1274.37 48.3111 1277.69 51.4303 Q1281.06 54.509 1281.06 60.0587 Q1281.06 66.3781 1276.03 70.0644 Q1271.05 73.7508 1262.3 73.7508 Q1258.65 73.7508 1254.69 73.0216 Q1250.76 72.3329 1246.38 70.9151 L1246.38 63.2184 Q1250.51 65.3654 1254.52 66.4591 Q1258.53 67.5124 1262.46 67.5124 Q1267.73 67.5124 1270.56 65.73 Q1273.4 63.9071 1273.4 60.6258 Q1273.4 57.5877 1271.33 55.9673 Q1269.31 54.3469 1262.38 52.8481 L1259.79 52.2405 Q1252.86 50.7821 1249.78 47.7845 Q1246.7 44.7463 1246.7 39.4801 Q1246.7 33.0797 1251.24 29.5959 Q1255.78 26.1121 1264.12 26.1121 Q1268.26 26.1121 1271.9 26.7198 Q1275.55 27.3274 1278.63 28.5427 Z" fill="#000000" fill-rule="evenodd" fill-opacity="1" /><path clip-path="url(#clip810)" d="M1300.3 14.324 L1300.3 27.2059 L1315.65 27.2059 L1315.65 32.9987 L1300.3 32.9987 L1300.3 57.6282 Q1300.3 63.1779 1301.8 64.7578 Q1303.34 66.3376 1307.99 66.3376 L1315.65 66.3376 L1315.65 72.576 L1307.99 72.576 Q1299.37 72.576 1296.09 69.3758 Q1292.8 66.1351 1292.8 57.6282 L1292.8 32.9987 L1287.34 32.9987 L1287.34 27.2059 L1292.8 27.2059 L1292.8 14.324 L1300.3 14.324 Z" fill="#000000" fill-rule="evenodd" fill-opacity="1" /><path clip-path="url(#clip810)" d="M1376.7 17.6457 Q1367.79 17.6457 1362.52 24.2892 Q1357.29 30.9327 1357.29 42.3968 Q1357.29 53.8203 1362.52 60.4638 Q1367.79 67.1073 1376.7 67.1073 Q1385.61 67.1073 1390.8 60.4638 Q1396.02 53.8203 1396.02 42.3968 Q1396.02 30.9327 1390.8 24.2892 Q1385.61 17.6457 1376.7 17.6457 M1376.7 11.0023 Q1389.42 11.0023 1397.03 19.5497 Q1404.65 28.0566 1404.65 42.3968 Q1404.65 56.6965 1397.03 65.2439 Q1389.42 73.7508 1376.7 73.7508 Q1363.94 73.7508 1356.28 65.2439 Q1348.67 56.737 1348.67 42.3968 Q1348.67 28.0566 1356.28 19.5497 Q1363.94 11.0023 1376.7 11.0023 Z" fill="#000000" fill-rule="evenodd" fill-opacity="1" /><path clip-path="url(#clip810)" d="M1435.68 17.4837 Q1429.36 17.4837 1426.16 23.7221 Q1423 29.92 1423 42.3968 Q1423 54.833 1426.16 61.0714 Q1429.36 67.2693 1435.68 67.2693 Q1442.04 67.2693 1445.2 61.0714 Q1448.4 54.833 1448.4 42.3968 Q1448.4 29.92 1445.2 23.7221 Q1442.04 17.4837 1435.68 17.4837 M1435.68 11.0023 Q1445.85 11.0023 1451.19 19.0636 Q1456.58 27.0843 1456.58 42.3968 Q1456.58 57.6687 1451.19 65.73 Q1445.85 73.7508 1435.68 73.7508 Q1425.51 73.7508 1420.12 65.73 Q1414.78 57.6687 1414.78 42.3968 Q1414.78 27.0843 1420.12 19.0636 Q1425.51 11.0023 1435.68 11.0023 Z" fill="#000000" fill-rule="evenodd" fill-opacity="1" /><circle clip-path="url(#clip812)" cx="309.067" cy="1380.04" r="14" fill="#009af9" fill-rule="evenodd" fill-opacity="1" stroke="#000000" stroke-opacity="1" stroke-width="3.2"/>
<circle clip-path="url(#clip812)" cx="413.497" cy="1380.04" r="14" fill="#009af9" fill-rule="evenodd" fill-opacity="1" stroke="#000000" stroke-opacity="1" stroke-width="3.2"/>
<circle clip-path="url(#clip812)" cx="517.926" cy="1376.05" r="14" fill="#009af9" fill-rule="evenodd" fill-opacity="1" stroke="#000000" stroke-opacity="1" stroke-width="3.2"/>
<circle clip-path="url(#clip812)" cx="622.356" cy="1372.06" r="14" fill="#009af9" fill-rule="evenodd" fill-opacity="1" stroke="#000000" stroke-opacity="1" stroke-width="3.2"/>
<circle clip-path="url(#clip812)" cx="726.786" cy="1360.11" r="14" fill="#009af9" fill-rule="evenodd" fill-opacity="1" stroke="#000000" stroke-opacity="1" stroke-width="3.2"/>
<circle clip-path="url(#clip812)" cx="831.215" cy="1352.13" r="14" fill="#009af9" fill-rule="evenodd" fill-opacity="1" stroke="#000000" stroke-opacity="1" stroke-width="3.2"/>
<circle clip-path="url(#clip812)" cx="935.645" cy="1336.19" r="14" fill="#009af9" fill-rule="evenodd" fill-opacity="1" stroke="#000000" stroke-opacity="1" stroke-width="3.2"/>
<circle clip-path="url(#clip812)" cx="1040.07" cy="1308.28" r="14" fill="#009af9" fill-rule="evenodd" fill-opacity="1" stroke="#000000" stroke-opacity="1" stroke-width="3.2"/>
<circle clip-path="url(#clip812)" cx="1144.5" cy="1272.41" r="14" fill="#009af9" fill-rule="evenodd" fill-opacity="1" stroke="#000000" stroke-opacity="1" stroke-width="3.2"/>
<circle clip-path="url(#clip812)" cx="1248.93" cy="1260.45" r="14" fill="#009af9" fill-rule="evenodd" fill-opacity="1" stroke="#000000" stroke-opacity="1" stroke-width="3.2"/>
<circle clip-path="url(#clip812)" cx="1353.36" cy="1172.75" r="14" fill="#009af9" fill-rule="evenodd" fill-opacity="1" stroke="#000000" stroke-opacity="1" stroke-width="3.2"/>
<circle clip-path="url(#clip812)" cx="1457.79" cy="1136.88" r="14" fill="#009af9" fill-rule="evenodd" fill-opacity="1" stroke="#000000" stroke-opacity="1" stroke-width="3.2"/>
<circle clip-path="url(#clip812)" cx="1562.22" cy="1073.1" r="14" fill="#009af9" fill-rule="evenodd" fill-opacity="1" stroke="#000000" stroke-opacity="1" stroke-width="3.2"/>
<circle clip-path="url(#clip812)" cx="1666.65" cy="1009.32" r="14" fill="#009af9" fill-rule="evenodd" fill-opacity="1" stroke="#000000" stroke-opacity="1" stroke-width="3.2"/>
<circle clip-path="url(#clip812)" cx="1771.08" cy="965.471" r="14" fill="#009af9" fill-rule="evenodd" fill-opacity="1" stroke="#000000" stroke-opacity="1" stroke-width="3.2"/>
<circle clip-path="url(#clip812)" cx="1875.51" cy="754.202" r="14" fill="#009af9" fill-rule="evenodd" fill-opacity="1" stroke="#000000" stroke-opacity="1" stroke-width="3.2"/>
<circle clip-path="url(#clip812)" cx="1979.94" cy="706.367" r="14" fill="#009af9" fill-rule="evenodd" fill-opacity="1" stroke="#000000" stroke-opacity="1" stroke-width="3.2"/>
<circle clip-path="url(#clip812)" cx="2084.37" cy="562.864" r="14" fill="#009af9" fill-rule="evenodd" fill-opacity="1" stroke="#000000" stroke-opacity="1" stroke-width="3.2"/>
<circle clip-path="url(#clip812)" cx="2188.8" cy="347.608" r="14" fill="#009af9" fill-rule="evenodd" fill-opacity="1" stroke="#000000" stroke-opacity="1" stroke-width="3.2"/>
<circle clip-path="url(#clip812)" cx="2293.23" cy="263.898" r="14" fill="#009af9" fill-rule="evenodd" fill-opacity="1" stroke="#000000" stroke-opacity="1" stroke-width="3.2"/>
<circle clip-path="url(#clip812)" cx="309.067" cy="1380.04" r="14" fill="#e26f46" fill-rule="evenodd" fill-opacity="1" stroke="#000000" stroke-opacity="1" stroke-width="3.2"/>
<circle clip-path="url(#clip812)" cx="413.497" cy="1376.05" r="14" fill="#e26f46" fill-rule="evenodd" fill-opacity="1" stroke="#000000" stroke-opacity="1" stroke-width="3.2"/>
<circle clip-path="url(#clip812)" cx="517.926" cy="1372.06" r="14" fill="#e26f46" fill-rule="evenodd" fill-opacity="1" stroke="#000000" stroke-opacity="1" stroke-width="3.2"/>
<circle clip-path="url(#clip812)" cx="622.356" cy="1372.06" r="14" fill="#e26f46" fill-rule="evenodd" fill-opacity="1" stroke="#000000" stroke-opacity="1" stroke-width="3.2"/>
<circle clip-path="url(#clip812)" cx="726.786" cy="1364.09" r="14" fill="#e26f46" fill-rule="evenodd" fill-opacity="1" stroke="#000000" stroke-opacity="1" stroke-width="3.2"/>
<circle clip-path="url(#clip812)" cx="831.215" cy="1344.16" r="14" fill="#e26f46" fill-rule="evenodd" fill-opacity="1" stroke="#000000" stroke-opacity="1" stroke-width="3.2"/>
<circle clip-path="url(#clip812)" cx="935.645" cy="1324.23" r="14" fill="#e26f46" fill-rule="evenodd" fill-opacity="1" stroke="#000000" stroke-opacity="1" stroke-width="3.2"/>
<circle clip-path="url(#clip812)" cx="1040.07" cy="1300.31" r="14" fill="#e26f46" fill-rule="evenodd" fill-opacity="1" stroke="#000000" stroke-opacity="1" stroke-width="3.2"/>
<circle clip-path="url(#clip812)" cx="1144.5" cy="1276.4" r="14" fill="#e26f46" fill-rule="evenodd" fill-opacity="1" stroke="#000000" stroke-opacity="1" stroke-width="3.2"/>
<circle clip-path="url(#clip812)" cx="1248.93" cy="1216.6" r="14" fill="#e26f46" fill-rule="evenodd" fill-opacity="1" stroke="#000000" stroke-opacity="1" stroke-width="3.2"/>
<circle clip-path="url(#clip812)" cx="1353.36" cy="1212.62" r="14" fill="#e26f46" fill-rule="evenodd" fill-opacity="1" stroke="#000000" stroke-opacity="1" stroke-width="3.2"/>
<circle clip-path="url(#clip812)" cx="1457.79" cy="1140.86" r="14" fill="#e26f46" fill-rule="evenodd" fill-opacity="1" stroke="#000000" stroke-opacity="1" stroke-width="3.2"/>
<circle clip-path="url(#clip812)" cx="1562.22" cy="1057.15" r="14" fill="#e26f46" fill-rule="evenodd" fill-opacity="1" stroke="#000000" stroke-opacity="1" stroke-width="3.2"/>
<circle clip-path="url(#clip812)" cx="1666.65" cy="957.498" r="14" fill="#e26f46" fill-rule="evenodd" fill-opacity="1" stroke="#000000" stroke-opacity="1" stroke-width="3.2"/>
<circle clip-path="url(#clip812)" cx="1771.08" cy="877.774" r="14" fill="#e26f46" fill-rule="evenodd" fill-opacity="1" stroke="#000000" stroke-opacity="1" stroke-width="3.2"/>
<circle clip-path="url(#clip812)" cx="1875.51" cy="849.871" r="14" fill="#e26f46" fill-rule="evenodd" fill-opacity="1" stroke="#000000" stroke-opacity="1" stroke-width="3.2"/>
<circle clip-path="url(#clip812)" cx="1979.94" cy="658.533" r="14" fill="#e26f46" fill-rule="evenodd" fill-opacity="1" stroke="#000000" stroke-opacity="1" stroke-width="3.2"/>
<circle clip-path="url(#clip812)" cx="2084.37" cy="511.043" r="14" fill="#e26f46" fill-rule="evenodd" fill-opacity="1" stroke="#000000" stroke-opacity="1" stroke-width="3.2"/>
<circle clip-path="url(#clip812)" cx="2188.8" cy="347.608" r="14" fill="#e26f46" fill-rule="evenodd" fill-opacity="1" stroke="#000000" stroke-opacity="1" stroke-width="3.2"/>
<circle clip-path="url(#clip812)" cx="2293.23" cy="160.256" r="14" fill="#e26f46" fill-rule="evenodd" fill-opacity="1" stroke="#000000" stroke-opacity="1" stroke-width="3.2"/>
<circle clip-path="url(#clip812)" cx="309.067" cy="1380.04" r="14" fill="#3da44d" fill-rule="evenodd" fill-opacity="1" stroke="#000000" stroke-opacity="1" stroke-width="3.2"/>
<circle clip-path="url(#clip812)" cx="413.497" cy="1380.04" r="14" fill="#3da44d" fill-rule="evenodd" fill-opacity="1" stroke="#000000" stroke-opacity="1" stroke-width="3.2"/>
<circle clip-path="url(#clip812)" cx="517.926" cy="1380.04" r="14" fill="#3da44d" fill-rule="evenodd" fill-opacity="1" stroke="#000000" stroke-opacity="1" stroke-width="3.2"/>
<circle clip-path="url(#clip812)" cx="622.356" cy="1376.05" r="14" fill="#3da44d" fill-rule="evenodd" fill-opacity="1" stroke="#000000" stroke-opacity="1" stroke-width="3.2"/>
<circle clip-path="url(#clip812)" cx="726.786" cy="1376.05" r="14" fill="#3da44d" fill-rule="evenodd" fill-opacity="1" stroke="#000000" stroke-opacity="1" stroke-width="3.2"/>
<circle clip-path="url(#clip812)" cx="831.215" cy="1376.05" r="14" fill="#3da44d" fill-rule="evenodd" fill-opacity="1" stroke="#000000" stroke-opacity="1" stroke-width="3.2"/>
<circle clip-path="url(#clip812)" cx="935.645" cy="1376.05" r="14" fill="#3da44d" fill-rule="evenodd" fill-opacity="1" stroke="#000000" stroke-opacity="1" stroke-width="3.2"/>
<circle clip-path="url(#clip812)" cx="1040.07" cy="1380.04" r="14" fill="#3da44d" fill-rule="evenodd" fill-opacity="1" stroke="#000000" stroke-opacity="1" stroke-width="3.2"/>
<circle clip-path="url(#clip812)" cx="1144.5" cy="1376.05" r="14" fill="#3da44d" fill-rule="evenodd" fill-opacity="1" stroke="#000000" stroke-opacity="1" stroke-width="3.2"/>
<circle clip-path="url(#clip812)" cx="1248.93" cy="1368.08" r="14" fill="#3da44d" fill-rule="evenodd" fill-opacity="1" stroke="#000000" stroke-opacity="1" stroke-width="3.2"/>
<circle clip-path="url(#clip812)" cx="1353.36" cy="1364.09" r="14" fill="#3da44d" fill-rule="evenodd" fill-opacity="1" stroke="#000000" stroke-opacity="1" stroke-width="3.2"/>
<circle clip-path="url(#clip812)" cx="1457.79" cy="1344.16" r="14" fill="#3da44d" fill-rule="evenodd" fill-opacity="1" stroke="#000000" stroke-opacity="1" stroke-width="3.2"/>
<circle clip-path="url(#clip812)" cx="1562.22" cy="1348.15" r="14" fill="#3da44d" fill-rule="evenodd" fill-opacity="1" stroke="#000000" stroke-opacity="1" stroke-width="3.2"/>
<circle clip-path="url(#clip812)" cx="1666.65" cy="1364.09" r="14" fill="#3da44d" fill-rule="evenodd" fill-opacity="1" stroke="#000000" stroke-opacity="1" stroke-width="3.2"/>
<circle clip-path="url(#clip812)" cx="1771.08" cy="1300.31" r="14" fill="#3da44d" fill-rule="evenodd" fill-opacity="1" stroke="#000000" stroke-opacity="1" stroke-width="3.2"/>
<circle clip-path="url(#clip812)" cx="1875.51" cy="1316.26" r="14" fill="#3da44d" fill-rule="evenodd" fill-opacity="1" stroke="#000000" stroke-opacity="1" stroke-width="3.2"/>
<circle clip-path="url(#clip812)" cx="1979.94" cy="1312.27" r="14" fill="#3da44d" fill-rule="evenodd" fill-opacity="1" stroke="#000000" stroke-opacity="1" stroke-width="3.2"/>
<circle clip-path="url(#clip812)" cx="2084.37" cy="1304.3" r="14" fill="#3da44d" fill-rule="evenodd" fill-opacity="1" stroke="#000000" stroke-opacity="1" stroke-width="3.2"/>
<circle clip-path="url(#clip812)" cx="2188.8" cy="1296.33" r="14" fill="#3da44d" fill-rule="evenodd" fill-opacity="1" stroke="#000000" stroke-opacity="1" stroke-width="3.2"/>
<circle clip-path="url(#clip812)" cx="2293.23" cy="1224.57" r="14" fill="#3da44d" fill-rule="evenodd" fill-opacity="1" stroke="#000000" stroke-opacity="1" stroke-width="3.2"/>
<polyline clip-path="url(#clip812)" style="stroke:#c271d2; stroke-linecap:butt; stroke-linejoin:round; stroke-width:4; stroke-opacity:1; fill:none" points="
  309.067,1382.07 328.909,1381.53 348.75,1380.98 368.592,1380.43 388.434,1379.86 408.275,1379.28 428.117,1378.66 447.958,1378.02 467.8,1377.33 487.642,1376.59 
  507.483,1375.8 527.325,1374.95 547.167,1374.04 567.008,1373.05 586.85,1371.97 606.692,1370.81 626.533,1369.56 646.375,1368.2 666.216,1366.73 686.058,1365.15 
  705.9,1363.45 725.741,1361.62 745.583,1359.66 765.425,1357.55 785.266,1355.29 805.108,1352.88 824.95,1350.3 844.791,1347.56 864.633,1344.64 884.475,1341.54 
  904.316,1338.25 924.158,1334.76 943.999,1331.07 963.841,1327.17 983.683,1323.05 1003.52,1318.71 1023.37,1314.14 1043.21,1309.33 1063.05,1304.28 1082.89,1298.98 
  1102.73,1293.42 1122.57,1287.6 1142.42,1281.51 1162.26,1275.14 1182.1,1268.48 1201.94,1261.54 1221.78,1254.29 1241.62,1246.75 1261.47,1238.89 1281.31,1230.71 
  1301.15,1222.21 1320.99,1213.38 1340.83,1204.2 1360.67,1194.69 1380.52,1184.82 1400.36,1174.59 1420.2,1164 1440.04,1153.03 1459.88,1141.69 1479.72,1129.96 
  1499.57,1117.84 1519.41,1105.32 1539.25,1092.39 1559.09,1079.05 1578.93,1065.29 1598.77,1051.1 1618.62,1036.49 1638.46,1021.43 1658.3,1005.92 1678.14,989.962 
  1697.98,973.543 1717.82,956.656 1737.67,939.296 1757.51,921.456 1777.35,903.128 1797.19,884.307 1817.03,864.984 1836.87,845.154 1856.71,824.81 1876.56,803.944 
  1896.4,782.551 1916.24,760.623 1936.08,738.153 1955.92,715.136 1975.76,691.563 1995.61,667.429 2015.45,642.726 2035.29,617.448 2055.13,591.588 2074.97,565.14 
  2094.81,538.095 2114.66,510.449 2134.5,482.193 2154.34,453.321 2174.18,423.827 2194.02,393.703 2213.86,362.944 2233.71,331.541 2253.55,299.488 2273.39,266.779 
  2293.23,233.407 
  "/>
<polyline clip-path="url(#clip812)" style="stroke:#ac8d18; stroke-linecap:butt; stroke-linejoin:round; stroke-width:4; stroke-opacity:1; fill:none" points="
  309.067,1386.4 328.909,1384.76 348.75,1383.19 368.592,1381.67 388.434,1380.21 408.275,1378.78 428.117,1377.38 447.958,1376 467.8,1374.64 487.642,1373.28 
  507.483,1371.92 527.325,1370.55 547.167,1369.16 567.008,1367.73 586.85,1366.27 606.692,1364.77 626.533,1363.21 646.375,1361.58 666.216,1359.89 686.058,1358.11 
  705.9,1356.25 725.741,1354.29 745.583,1352.23 765.425,1350.05 785.266,1347.74 805.108,1345.31 824.95,1342.74 844.791,1340.02 864.633,1337.14 884.475,1334.1 
  904.316,1330.89 924.158,1327.49 943.999,1323.9 963.841,1320.11 983.683,1316.12 1003.52,1311.91 1023.37,1307.47 1043.21,1302.81 1063.05,1297.9 1082.89,1292.74 
  1102.73,1287.32 1122.57,1281.64 1142.42,1275.68 1162.26,1269.43 1182.1,1262.9 1201.94,1256.06 1221.78,1248.91 1241.62,1241.45 1261.47,1233.66 1281.31,1225.53 
  1301.15,1217.06 1320.99,1208.24 1340.83,1199.06 1360.67,1189.5 1380.52,1179.58 1400.36,1169.26 1420.2,1158.55 1440.04,1147.44 1459.88,1135.92 1479.72,1123.97 
  1499.57,1111.6 1519.41,1098.79 1539.25,1085.54 1559.09,1071.83 1578.93,1057.66 1598.77,1043.01 1618.62,1027.89 1638.46,1012.28 1658.3,996.176 1678.14,979.565 
  1697.98,962.44 1717.82,944.793 1737.67,926.616 1757.51,907.9 1777.35,888.636 1797.19,868.817 1817.03,848.433 1836.87,827.475 1856.71,805.937 1876.56,783.808 
  1896.4,761.081 1916.24,737.747 1936.08,713.797 1955.92,689.223 1975.76,664.017 1995.61,638.17 2015.45,611.673 2035.29,584.519 2055.13,556.697 2074.97,528.201 
  2094.81,499.022 2114.66,469.15 2134.5,438.578 2154.34,407.296 2174.18,375.297 2194.02,342.573 2213.86,309.113 2233.71,274.911 2253.55,239.957 2273.39,204.243 
  2293.23,167.761 
  "/>
<polyline clip-path="url(#clip812)" style="stroke:#00a9ad; stroke-linecap:butt; stroke-linejoin:round; stroke-width:4; stroke-opacity:1; fill:none" points="
  309.067,1381.13 328.909,1380.84 348.75,1380.57 368.592,1380.32 388.434,1380.08 408.275,1379.86 428.117,1379.65 447.958,1379.45 467.8,1379.27 487.642,1379.09 
  507.483,1378.92 527.325,1378.76 547.167,1378.61 567.008,1378.46 586.85,1378.32 606.692,1378.18 626.533,1378.04 646.375,1377.9 666.216,1377.76 686.058,1377.61 
  705.9,1377.47 725.741,1377.32 745.583,1377.16 765.425,1377 785.266,1376.83 805.108,1376.65 824.95,1376.46 844.791,1376.26 864.633,1376.05 884.475,1375.82 
  904.316,1375.57 924.158,1375.31 943.999,1375.04 963.841,1374.74 983.683,1374.43 1003.52,1374.09 1023.37,1373.73 1043.21,1373.35 1063.05,1372.94 1082.89,1372.51 
  1102.73,1372.04 1122.57,1371.56 1142.42,1371.04 1162.26,1370.49 1182.1,1369.91 1201.94,1369.29 1221.78,1368.64 1241.62,1367.96 1261.47,1367.24 1281.31,1366.48 
  1301.15,1365.68 1320.99,1364.85 1340.83,1363.97 1360.67,1363.05 1380.52,1362.08 1400.36,1361.07 1420.2,1360.01 1440.04,1358.91 1459.88,1357.76 1479.72,1356.55 
  1499.57,1355.3 1519.41,1353.99 1539.25,1352.64 1559.09,1351.22 1578.93,1349.75 1598.77,1348.23 1618.62,1346.64 1638.46,1345 1658.3,1343.29 1678.14,1341.53 
  1697.98,1339.7 1717.82,1337.8 1737.67,1335.84 1757.51,1333.82 1777.35,1331.73 1797.19,1329.56 1817.03,1327.33 1836.87,1325.03 1856.71,1322.65 1876.56,1320.2 
  1896.4,1317.68 1916.24,1315.08 1936.08,1312.4 1955.92,1309.64 1975.76,1306.81 1995.61,1303.89 2015.45,1300.89 2035.29,1297.81 2055.13,1294.64 2074.97,1291.39 
  2094.81,1288.05 2114.66,1284.62 2134.5,1281.11 2154.34,1277.5 2174.18,1273.8 2194.02,1270.01 2213.86,1266.13 2233.71,1262.15 2253.55,1258.07 2273.39,1253.89 
  2293.23,1249.62 
  "/>
<path clip-path="url(#clip810)" d="
M1599.35 529.676 L2282.65 529.676 L2282.65 166.796 L1599.35 166.796  Z
  " fill="#ffffff" fill-rule="evenodd" fill-opacity="1"/>
<polyline clip-path="url(#clip810)" style="stroke:#000000; stroke-linecap:butt; stroke-linejoin:round; stroke-width:4; stroke-opacity:1; fill:none" points="
  1599.35,529.676 2282.65,529.676 2282.65,166.796 1599.35,166.796 1599.35,529.676 
  "/>
<circle clip-path="url(#clip810)" cx="1692.83" cy="218.636" r="23" fill="#009af9" fill-rule="evenodd" fill-opacity="1" stroke="#000000" stroke-opacity="1" stroke-width="5.12"/>
<path clip-path="url(#clip810)" d="M1786.31 199.897 L1796.12 199.897 L1796.12 203.208 L1790.57 203.208 L1790.57 238.856 L1796.12 238.856 L1796.12 242.166 L1786.31 242.166 L1786.31 199.897 Z" fill="#000000" fill-rule="evenodd" fill-opacity="1" /><path clip-path="url(#clip810)" d="M1809.22 201.356 L1809.22 214.203 L1805.29 214.203 L1805.29 201.356 L1809.22 201.356 M1817.97 201.356 L1817.97 214.203 L1814.04 214.203 L1814.04 201.356 L1817.97 201.356 Z" fill="#000000" fill-rule="evenodd" fill-opacity="1" /><path clip-path="url(#clip810)" d="M1847.19 214.967 Q1848.78 212.096 1851.01 210.731 Q1853.23 209.365 1856.24 209.365 Q1860.29 209.365 1862.49 212.212 Q1864.69 215.036 1864.69 220.268 L1864.69 235.916 L1860.4 235.916 L1860.4 220.407 Q1860.4 216.68 1859.08 214.874 Q1857.76 213.069 1855.06 213.069 Q1851.75 213.069 1849.82 215.268 Q1847.9 217.467 1847.9 221.263 L1847.9 235.916 L1843.62 235.916 L1843.62 220.407 Q1843.62 216.657 1842.3 214.874 Q1840.98 213.069 1838.23 213.069 Q1834.96 213.069 1833.04 215.291 Q1831.12 217.49 1831.12 221.263 L1831.12 235.916 L1826.84 235.916 L1826.84 209.99 L1831.12 209.99 L1831.12 214.018 Q1832.58 211.633 1834.62 210.499 Q1836.65 209.365 1839.45 209.365 Q1842.28 209.365 1844.25 210.8 Q1846.24 212.235 1847.19 214.967 Z" fill="#000000" fill-rule="evenodd" fill-opacity="1" /><path clip-path="url(#clip810)" d="M1895.36 221.888 L1895.36 223.971 L1875.77 223.971 Q1876.05 228.369 1878.41 230.684 Q1880.8 232.976 1885.03 232.976 Q1887.49 232.976 1889.78 232.374 Q1892.09 231.772 1894.36 230.569 L1894.36 234.596 Q1892.07 235.568 1889.66 236.078 Q1887.26 236.587 1884.78 236.587 Q1878.57 236.587 1874.94 232.976 Q1871.33 229.365 1871.33 223.207 Q1871.33 216.842 1874.76 213.115 Q1878.2 209.365 1884.04 209.365 Q1889.27 209.365 1892.3 212.745 Q1895.36 216.101 1895.36 221.888 M1891.1 220.638 Q1891.05 217.143 1889.13 215.059 Q1887.23 212.976 1884.08 212.976 Q1880.52 212.976 1878.37 214.99 Q1876.24 217.004 1875.91 220.661 L1891.1 220.638 Z" fill="#000000" fill-rule="evenodd" fill-opacity="1" /><path clip-path="url(#clip810)" d="M1914.13 222.883 Q1908.97 222.883 1906.98 224.064 Q1904.99 225.244 1904.99 228.092 Q1904.99 230.36 1906.47 231.703 Q1907.97 233.022 1910.54 233.022 Q1914.08 233.022 1916.21 230.522 Q1918.37 227.999 1918.37 223.832 L1918.37 222.883 L1914.13 222.883 M1922.63 221.124 L1922.63 235.916 L1918.37 235.916 L1918.37 231.981 Q1916.91 234.342 1914.73 235.476 Q1912.56 236.587 1909.41 236.587 Q1905.43 236.587 1903.07 234.365 Q1900.73 232.119 1900.73 228.369 Q1900.73 223.994 1903.64 221.772 Q1906.58 219.55 1912.39 219.55 L1918.37 219.55 L1918.37 219.133 Q1918.37 216.194 1916.42 214.596 Q1914.5 212.976 1911.01 212.976 Q1908.78 212.976 1906.68 213.508 Q1904.57 214.041 1902.63 215.106 L1902.63 211.17 Q1904.96 210.268 1907.16 209.828 Q1909.36 209.365 1911.44 209.365 Q1917.07 209.365 1919.85 212.282 Q1922.63 215.198 1922.63 221.124 Z" fill="#000000" fill-rule="evenodd" fill-opacity="1" /><path clip-path="url(#clip810)" d="M1952.95 220.268 L1952.95 235.916 L1948.69 235.916 L1948.69 220.407 Q1948.69 216.726 1947.25 214.897 Q1945.82 213.069 1942.95 213.069 Q1939.5 213.069 1937.51 215.268 Q1935.52 217.467 1935.52 221.263 L1935.52 235.916 L1931.24 235.916 L1931.24 209.99 L1935.52 209.99 L1935.52 214.018 Q1937.05 211.68 1939.11 210.522 Q1941.19 209.365 1943.9 209.365 Q1948.37 209.365 1950.66 212.143 Q1952.95 214.897 1952.95 220.268 Z" fill="#000000" fill-rule="evenodd" fill-opacity="1" /><path clip-path="url(#clip810)" d="M1998.06 220.268 L1998.06 235.916 L1993.81 235.916 L1993.81 220.407 Q1993.81 216.726 1992.37 214.897 Q1990.94 213.069 1988.06 213.069 Q1984.62 213.069 1982.63 215.268 Q1980.63 217.467 1980.63 221.263 L1980.63 235.916 L1976.35 235.916 L1976.35 209.99 L1980.63 209.99 L1980.63 214.018 Q1982.16 211.68 1984.22 210.522 Q1986.31 209.365 1989.01 209.365 Q1993.48 209.365 1995.77 212.143 Q1998.06 214.897 1998.06 220.268 Z" fill="#000000" fill-rule="evenodd" fill-opacity="1" /><path clip-path="url(#clip810)" d="M2018.34 222.883 Q2013.18 222.883 2011.19 224.064 Q2009.2 225.244 2009.2 228.092 Q2009.2 230.36 2010.68 231.703 Q2012.19 233.022 2014.75 233.022 Q2018.3 233.022 2020.43 230.522 Q2022.58 227.999 2022.58 223.832 L2022.58 222.883 L2018.34 222.883 M2026.84 221.124 L2026.84 235.916 L2022.58 235.916 L2022.58 231.981 Q2021.12 234.342 2018.94 235.476 Q2016.77 236.587 2013.62 236.587 Q2009.64 236.587 2007.28 234.365 Q2004.94 232.119 2004.94 228.369 Q2004.94 223.994 2007.86 221.772 Q2010.8 219.55 2016.61 219.55 L2022.58 219.55 L2022.58 219.133 Q2022.58 216.194 2020.63 214.596 Q2018.71 212.976 2015.22 212.976 Q2013 212.976 2010.89 213.508 Q2008.78 214.041 2006.84 215.106 L2006.84 211.17 Q2009.18 210.268 2011.37 209.828 Q2013.57 209.365 2015.66 209.365 Q2021.28 209.365 2024.06 212.282 Q2026.84 215.198 2026.84 221.124 Z" fill="#000000" fill-rule="evenodd" fill-opacity="1" /><path clip-path="url(#clip810)" d="M2035.61 209.99 L2039.87 209.99 L2039.87 235.916 L2035.61 235.916 L2035.61 209.99 M2035.61 199.897 L2039.87 199.897 L2039.87 205.291 L2035.61 205.291 L2035.61 199.897 Z" fill="#000000" fill-rule="evenodd" fill-opacity="1" /><path clip-path="url(#clip810)" d="M2045.73 209.99 L2050.24 209.99 L2058.34 231.749 L2066.44 209.99 L2070.96 209.99 L2061.24 235.916 L2055.45 235.916 L2045.73 209.99 Z" fill="#000000" fill-rule="evenodd" fill-opacity="1" /><path clip-path="url(#clip810)" d="M2099.01 221.888 L2099.01 223.971 L2079.43 223.971 Q2079.71 228.369 2082.07 230.684 Q2084.45 232.976 2088.69 232.976 Q2091.14 232.976 2093.43 232.374 Q2095.75 231.772 2098.02 230.569 L2098.02 234.596 Q2095.73 235.568 2093.32 236.078 Q2090.91 236.587 2088.43 236.587 Q2082.23 236.587 2078.6 232.976 Q2074.99 229.365 2074.99 223.207 Q2074.99 216.842 2078.41 213.115 Q2081.86 209.365 2087.69 209.365 Q2092.93 209.365 2095.96 212.745 Q2099.01 216.101 2099.01 221.888 M2094.75 220.638 Q2094.71 217.143 2092.79 215.059 Q2090.89 212.976 2087.74 212.976 Q2084.18 212.976 2082.02 214.99 Q2079.89 217.004 2079.57 220.661 L2094.75 220.638 Z" fill="#000000" fill-rule="evenodd" fill-opacity="1" /><path clip-path="url(#clip810)" d="M2135.29 204.527 Q2130.19 204.527 2127.18 208.323 Q2124.2 212.12 2124.2 218.67 Q2124.2 225.198 2127.18 228.994 Q2130.19 232.791 2135.29 232.791 Q2140.38 232.791 2143.34 228.994 Q2146.33 225.198 2146.33 218.67 Q2146.33 212.12 2143.34 208.323 Q2140.38 204.527 2135.29 204.527 M2135.29 200.731 Q2142.55 200.731 2146.91 205.615 Q2151.26 210.476 2151.26 218.67 Q2151.26 226.842 2146.91 231.726 Q2142.55 236.587 2135.29 236.587 Q2127.99 236.587 2123.62 231.726 Q2119.27 226.865 2119.27 218.67 Q2119.27 210.476 2123.62 205.615 Q2127.99 200.731 2135.29 200.731 Z" fill="#000000" fill-rule="evenodd" fill-opacity="1" /><path clip-path="url(#clip810)" d="M2168.99 204.434 Q2165.38 204.434 2163.55 207.999 Q2161.74 211.541 2161.74 218.67 Q2161.74 225.777 2163.55 229.342 Q2165.38 232.883 2168.99 232.883 Q2172.62 232.883 2174.43 229.342 Q2176.26 225.777 2176.26 218.67 Q2176.26 211.541 2174.43 207.999 Q2172.62 204.434 2168.99 204.434 M2168.99 200.731 Q2174.8 200.731 2177.86 205.337 Q2180.93 209.92 2180.93 218.67 Q2180.93 227.397 2177.86 232.004 Q2174.8 236.587 2168.99 236.587 Q2163.18 236.587 2160.1 232.004 Q2157.05 227.397 2157.05 218.67 Q2157.05 209.92 2160.1 205.337 Q2163.18 200.731 2168.99 200.731 Z" fill="#000000" fill-rule="evenodd" fill-opacity="1" /><path clip-path="url(#clip810)" d="M2192.58 201.356 L2192.58 214.203 L2188.64 214.203 L2188.64 201.356 L2192.58 201.356 M2201.33 201.356 L2201.33 214.203 L2197.39 214.203 L2197.39 201.356 L2201.33 201.356 Z" fill="#000000" fill-rule="evenodd" fill-opacity="1" /><path clip-path="url(#clip810)" d="M2220.31 199.897 L2220.31 242.166 L2210.49 242.166 L2210.49 238.856 L2216.03 238.856 L2216.03 203.208 L2210.49 203.208 L2210.49 199.897 L2220.31 199.897 Z" fill="#000000" fill-rule="evenodd" fill-opacity="1" /><circle clip-path="url(#clip810)" cx="1692.83" cy="270.476" r="23" fill="#e26f46" fill-rule="evenodd" fill-opacity="1" stroke="#000000" stroke-opacity="1" stroke-width="5.12"/>
<path clip-path="url(#clip810)" d="M1786.31 251.737 L1796.12 251.737 L1796.12 255.048 L1790.57 255.048 L1790.57 290.696 L1796.12 290.696 L1796.12 294.006 L1786.31 294.006 L1786.31 251.737 Z" fill="#000000" fill-rule="evenodd" fill-opacity="1" /><path clip-path="url(#clip810)" d="M1809.22 253.196 L1809.22 266.043 L1805.29 266.043 L1805.29 253.196 L1809.22 253.196 M1817.97 253.196 L1817.97 266.043 L1814.04 266.043 L1814.04 253.196 L1817.97 253.196 Z" fill="#000000" fill-rule="evenodd" fill-opacity="1" /><path clip-path="url(#clip810)" d="M1847.19 266.807 Q1848.78 263.936 1851.01 262.571 Q1853.23 261.205 1856.24 261.205 Q1860.29 261.205 1862.49 264.052 Q1864.69 266.876 1864.69 272.108 L1864.69 287.756 L1860.4 287.756 L1860.4 272.247 Q1860.4 268.52 1859.08 266.714 Q1857.76 264.909 1855.06 264.909 Q1851.75 264.909 1849.82 267.108 Q1847.9 269.307 1847.9 273.103 L1847.9 287.756 L1843.62 287.756 L1843.62 272.247 Q1843.62 268.497 1842.3 266.714 Q1840.98 264.909 1838.23 264.909 Q1834.96 264.909 1833.04 267.131 Q1831.12 269.33 1831.12 273.103 L1831.12 287.756 L1826.84 287.756 L1826.84 261.83 L1831.12 261.83 L1831.12 265.858 Q1832.58 263.473 1834.62 262.339 Q1836.65 261.205 1839.45 261.205 Q1842.28 261.205 1844.25 262.64 Q1846.24 264.075 1847.19 266.807 Z" fill="#000000" fill-rule="evenodd" fill-opacity="1" /><path clip-path="url(#clip810)" d="M1895.36 273.728 L1895.36 275.811 L1875.77 275.811 Q1876.05 280.209 1878.41 282.524 Q1880.8 284.816 1885.03 284.816 Q1887.49 284.816 1889.78 284.214 Q1892.09 283.612 1894.36 282.409 L1894.36 286.436 Q1892.07 287.408 1889.66 287.918 Q1887.26 288.427 1884.78 288.427 Q1878.57 288.427 1874.94 284.816 Q1871.33 281.205 1871.33 275.047 Q1871.33 268.682 1874.76 264.955 Q1878.2 261.205 1884.04 261.205 Q1889.27 261.205 1892.3 264.585 Q1895.36 267.941 1895.36 273.728 M1891.1 272.478 Q1891.05 268.983 1889.13 266.899 Q1887.23 264.816 1884.08 264.816 Q1880.52 264.816 1878.37 266.83 Q1876.24 268.844 1875.91 272.501 L1891.1 272.478 Z" fill="#000000" fill-rule="evenodd" fill-opacity="1" /><path clip-path="url(#clip810)" d="M1914.13 274.723 Q1908.97 274.723 1906.98 275.904 Q1904.99 277.084 1904.99 279.932 Q1904.99 282.2 1906.47 283.543 Q1907.97 284.862 1910.54 284.862 Q1914.08 284.862 1916.21 282.362 Q1918.37 279.839 1918.37 275.672 L1918.37 274.723 L1914.13 274.723 M1922.63 272.964 L1922.63 287.756 L1918.37 287.756 L1918.37 283.821 Q1916.91 286.182 1914.73 287.316 Q1912.56 288.427 1909.41 288.427 Q1905.43 288.427 1903.07 286.205 Q1900.73 283.959 1900.73 280.209 Q1900.73 275.834 1903.64 273.612 Q1906.58 271.39 1912.39 271.39 L1918.37 271.39 L1918.37 270.973 Q1918.37 268.034 1916.42 266.436 Q1914.5 264.816 1911.01 264.816 Q1908.78 264.816 1906.68 265.348 Q1904.57 265.881 1902.63 266.946 L1902.63 263.01 Q1904.96 262.108 1907.16 261.668 Q1909.36 261.205 1911.44 261.205 Q1917.07 261.205 1919.85 264.122 Q1922.63 267.038 1922.63 272.964 Z" fill="#000000" fill-rule="evenodd" fill-opacity="1" /><path clip-path="url(#clip810)" d="M1952.95 272.108 L1952.95 287.756 L1948.69 287.756 L1948.69 272.247 Q1948.69 268.566 1947.25 266.737 Q1945.82 264.909 1942.95 264.909 Q1939.5 264.909 1937.51 267.108 Q1935.52 269.307 1935.52 273.103 L1935.52 287.756 L1931.24 287.756 L1931.24 261.83 L1935.52 261.83 L1935.52 265.858 Q1937.05 263.52 1939.11 262.362 Q1941.19 261.205 1943.9 261.205 Q1948.37 261.205 1950.66 263.983 Q1952.95 266.737 1952.95 272.108 Z" fill="#000000" fill-rule="evenodd" fill-opacity="1" /><path clip-path="url(#clip810)" d="M1995.12 274.816 Q1995.12 270.117 1993.18 267.455 Q1991.26 264.77 1987.88 264.77 Q1984.5 264.77 1982.56 267.455 Q1980.63 270.117 1980.63 274.816 Q1980.63 279.515 1982.56 282.2 Q1984.5 284.862 1987.88 284.862 Q1991.26 284.862 1993.18 282.2 Q1995.12 279.515 1995.12 274.816 M1980.63 265.765 Q1981.98 263.45 1984.01 262.339 Q1986.07 261.205 1988.92 261.205 Q1993.64 261.205 1996.58 264.955 Q1999.55 268.705 1999.55 274.816 Q1999.55 280.927 1996.58 284.677 Q1993.64 288.427 1988.92 288.427 Q1986.07 288.427 1984.01 287.316 Q1981.98 286.182 1980.63 283.867 L1980.63 287.756 L1976.35 287.756 L1976.35 251.737 L1980.63 251.737 L1980.63 265.765 Z" fill="#000000" fill-rule="evenodd" fill-opacity="1" /><path clip-path="url(#clip810)" d="M2028.78 273.728 L2028.78 275.811 L2009.2 275.811 Q2009.48 280.209 2011.84 282.524 Q2014.22 284.816 2018.46 284.816 Q2020.91 284.816 2023.2 284.214 Q2025.52 283.612 2027.79 282.409 L2027.79 286.436 Q2025.5 287.408 2023.09 287.918 Q2020.68 288.427 2018.2 288.427 Q2012 288.427 2008.37 284.816 Q2004.75 281.205 2004.75 275.047 Q2004.75 268.682 2008.18 264.955 Q2011.63 261.205 2017.46 261.205 Q2022.69 261.205 2025.73 264.585 Q2028.78 267.941 2028.78 273.728 M2024.52 272.478 Q2024.48 268.983 2022.56 266.899 Q2020.66 264.816 2017.51 264.816 Q2013.94 264.816 2011.79 266.83 Q2009.66 268.844 2009.34 272.501 L2024.52 272.478 Z" fill="#000000" fill-rule="evenodd" fill-opacity="1" /><path clip-path="url(#clip810)" d="M2039.99 254.469 L2039.99 261.83 L2048.76 261.83 L2048.76 265.14 L2039.99 265.14 L2039.99 279.214 Q2039.99 282.385 2040.84 283.288 Q2041.72 284.191 2044.38 284.191 L2048.76 284.191 L2048.76 287.756 L2044.38 287.756 Q2039.45 287.756 2037.58 285.927 Q2035.7 284.075 2035.7 279.214 L2035.7 265.14 L2032.58 265.14 L2032.58 261.83 L2035.7 261.83 L2035.7 254.469 L2039.99 254.469 Z" fill="#000000" fill-rule="evenodd" fill-opacity="1" /><path clip-path="url(#clip810)" d="M2058.57 254.469 L2058.57 261.83 L2067.35 261.83 L2067.35 265.14 L2058.57 265.14 L2058.57 279.214 Q2058.57 282.385 2059.43 283.288 Q2060.31 284.191 2062.97 284.191 L2067.35 284.191 L2067.35 287.756 L2062.97 287.756 Q2058.04 287.756 2056.17 285.927 Q2054.29 284.075 2054.29 279.214 L2054.29 265.14 L2051.17 265.14 L2051.17 261.83 L2054.29 261.83 L2054.29 254.469 L2058.57 254.469 Z" fill="#000000" fill-rule="evenodd" fill-opacity="1" /><path clip-path="url(#clip810)" d="M2095.12 273.728 L2095.12 275.811 L2075.54 275.811 Q2075.82 280.209 2078.18 282.524 Q2080.56 284.816 2084.8 284.816 Q2087.25 284.816 2089.55 284.214 Q2091.86 283.612 2094.13 282.409 L2094.13 286.436 Q2091.84 287.408 2089.43 287.918 Q2087.02 288.427 2084.55 288.427 Q2078.34 288.427 2074.71 284.816 Q2071.1 281.205 2071.1 275.047 Q2071.1 268.682 2074.52 264.955 Q2077.97 261.205 2083.81 261.205 Q2089.04 261.205 2092.07 264.585 Q2095.12 267.941 2095.12 273.728 M2090.87 272.478 Q2090.82 268.983 2088.9 266.899 Q2087 264.816 2083.85 264.816 Q2080.29 264.816 2078.13 266.83 Q2076 268.844 2075.68 272.501 L2090.87 272.478 Z" fill="#000000" fill-rule="evenodd" fill-opacity="1" /><path clip-path="url(#clip810)" d="M2117.14 265.811 Q2116.42 265.395 2115.56 265.21 Q2114.73 265.001 2113.71 265.001 Q2110.1 265.001 2108.16 267.362 Q2106.24 269.7 2106.24 274.098 L2106.24 287.756 L2101.95 287.756 L2101.95 261.83 L2106.24 261.83 L2106.24 265.858 Q2107.58 263.497 2109.73 262.362 Q2111.88 261.205 2114.96 261.205 Q2115.4 261.205 2115.93 261.274 Q2116.47 261.321 2117.12 261.436 L2117.14 265.811 Z" fill="#000000" fill-rule="evenodd" fill-opacity="1" /><path clip-path="url(#clip810)" d="M2150.89 256.367 Q2145.8 256.367 2142.79 260.163 Q2139.8 263.96 2139.8 270.51 Q2139.8 277.038 2142.79 280.834 Q2145.8 284.631 2150.89 284.631 Q2155.98 284.631 2158.94 280.834 Q2161.93 277.038 2161.93 270.51 Q2161.93 263.96 2158.94 260.163 Q2155.98 256.367 2150.89 256.367 M2150.89 252.571 Q2158.16 252.571 2162.51 257.455 Q2166.86 262.316 2166.86 270.51 Q2166.86 278.682 2162.51 283.566 Q2158.16 288.427 2150.89 288.427 Q2143.6 288.427 2139.22 283.566 Q2134.87 278.705 2134.87 270.51 Q2134.87 262.316 2139.22 257.455 Q2143.6 252.571 2150.89 252.571 Z" fill="#000000" fill-rule="evenodd" fill-opacity="1" /><path clip-path="url(#clip810)" d="M2184.59 256.274 Q2180.98 256.274 2179.15 259.839 Q2177.35 263.381 2177.35 270.51 Q2177.35 277.617 2179.15 281.182 Q2180.98 284.723 2184.59 284.723 Q2188.23 284.723 2190.03 281.182 Q2191.86 277.617 2191.86 270.51 Q2191.86 263.381 2190.03 259.839 Q2188.23 256.274 2184.59 256.274 M2184.59 252.571 Q2190.4 252.571 2193.46 257.177 Q2196.54 261.76 2196.54 270.51 Q2196.54 279.237 2193.46 283.844 Q2190.4 288.427 2184.59 288.427 Q2178.78 288.427 2175.7 283.844 Q2172.65 279.237 2172.65 270.51 Q2172.65 261.76 2175.7 257.177 Q2178.78 252.571 2184.59 252.571 Z" fill="#000000" fill-rule="evenodd" fill-opacity="1" /><path clip-path="url(#clip810)" d="M2208.18 253.196 L2208.18 266.043 L2204.24 266.043 L2204.24 253.196 L2208.18 253.196 M2216.93 253.196 L2216.93 266.043 L2212.99 266.043 L2212.99 253.196 L2216.93 253.196 Z" fill="#000000" fill-rule="evenodd" fill-opacity="1" /><path clip-path="url(#clip810)" d="M2235.91 251.737 L2235.91 294.006 L2226.1 294.006 L2226.1 290.696 L2231.63 290.696 L2231.63 255.048 L2226.1 255.048 L2226.1 251.737 L2235.91 251.737 Z" fill="#000000" fill-rule="evenodd" fill-opacity="1" /><circle clip-path="url(#clip810)" cx="1692.83" cy="322.316" r="23" fill="#3da44d" fill-rule="evenodd" fill-opacity="1" stroke="#000000" stroke-opacity="1" stroke-width="5.12"/>
<path clip-path="url(#clip810)" d="M1786.31 303.577 L1796.12 303.577 L1796.12 306.888 L1790.57 306.888 L1790.57 342.536 L1796.12 342.536 L1796.12 345.846 L1786.31 345.846 L1786.31 303.577 Z" fill="#000000" fill-rule="evenodd" fill-opacity="1" /><path clip-path="url(#clip810)" d="M1809.22 305.036 L1809.22 317.883 L1805.29 317.883 L1805.29 305.036 L1809.22 305.036 M1817.97 305.036 L1817.97 317.883 L1814.04 317.883 L1814.04 305.036 L1817.97 305.036 Z" fill="#000000" fill-rule="evenodd" fill-opacity="1" /><path clip-path="url(#clip810)" d="M1847.19 318.647 Q1848.78 315.776 1851.01 314.411 Q1853.23 313.045 1856.24 313.045 Q1860.29 313.045 1862.49 315.892 Q1864.69 318.716 1864.69 323.948 L1864.69 339.596 L1860.4 339.596 L1860.4 324.087 Q1860.4 320.36 1859.08 318.554 Q1857.76 316.749 1855.06 316.749 Q1851.75 316.749 1849.82 318.948 Q1847.9 321.147 1847.9 324.943 L1847.9 339.596 L1843.62 339.596 L1843.62 324.087 Q1843.62 320.337 1842.3 318.554 Q1840.98 316.749 1838.23 316.749 Q1834.96 316.749 1833.04 318.971 Q1831.12 321.17 1831.12 324.943 L1831.12 339.596 L1826.84 339.596 L1826.84 313.67 L1831.12 313.67 L1831.12 317.698 Q1832.58 315.313 1834.62 314.179 Q1836.65 313.045 1839.45 313.045 Q1842.28 313.045 1844.25 314.48 Q1846.24 315.915 1847.19 318.647 Z" fill="#000000" fill-rule="evenodd" fill-opacity="1" /><path clip-path="url(#clip810)" d="M1895.36 325.568 L1895.36 327.651 L1875.77 327.651 Q1876.05 332.049 1878.41 334.364 Q1880.8 336.656 1885.03 336.656 Q1887.49 336.656 1889.78 336.054 Q1892.09 335.452 1894.36 334.249 L1894.36 338.276 Q1892.07 339.248 1889.66 339.758 Q1887.26 340.267 1884.78 340.267 Q1878.57 340.267 1874.94 336.656 Q1871.33 333.045 1871.33 326.887 Q1871.33 320.522 1874.76 316.795 Q1878.2 313.045 1884.04 313.045 Q1889.27 313.045 1892.3 316.425 Q1895.36 319.781 1895.36 325.568 M1891.1 324.318 Q1891.05 320.823 1889.13 318.739 Q1887.23 316.656 1884.08 316.656 Q1880.52 316.656 1878.37 318.67 Q1876.24 320.684 1875.91 324.341 L1891.1 324.318 Z" fill="#000000" fill-rule="evenodd" fill-opacity="1" /><path clip-path="url(#clip810)" d="M1914.13 326.563 Q1908.97 326.563 1906.98 327.744 Q1904.99 328.924 1904.99 331.772 Q1904.99 334.04 1906.47 335.383 Q1907.97 336.702 1910.54 336.702 Q1914.08 336.702 1916.21 334.202 Q1918.37 331.679 1918.37 327.512 L1918.37 326.563 L1914.13 326.563 M1922.63 324.804 L1922.63 339.596 L1918.37 339.596 L1918.37 335.661 Q1916.91 338.022 1914.73 339.156 Q1912.56 340.267 1909.41 340.267 Q1905.43 340.267 1903.07 338.045 Q1900.73 335.799 1900.73 332.049 Q1900.73 327.674 1903.64 325.452 Q1906.58 323.23 1912.39 323.23 L1918.37 323.23 L1918.37 322.813 Q1918.37 319.874 1916.42 318.276 Q1914.5 316.656 1911.01 316.656 Q1908.78 316.656 1906.68 317.188 Q1904.57 317.721 1902.63 318.786 L1902.63 314.85 Q1904.96 313.948 1907.16 313.508 Q1909.36 313.045 1911.44 313.045 Q1917.07 313.045 1919.85 315.962 Q1922.63 318.878 1922.63 324.804 Z" fill="#000000" fill-rule="evenodd" fill-opacity="1" /><path clip-path="url(#clip810)" d="M1952.95 323.948 L1952.95 339.596 L1948.69 339.596 L1948.69 324.087 Q1948.69 320.406 1947.25 318.577 Q1945.82 316.749 1942.95 316.749 Q1939.5 316.749 1937.51 318.948 Q1935.52 321.147 1935.52 324.943 L1935.52 339.596 L1931.24 339.596 L1931.24 313.67 L1935.52 313.67 L1935.52 317.698 Q1937.05 315.36 1939.11 314.202 Q1941.19 313.045 1943.9 313.045 Q1948.37 313.045 1950.66 315.823 Q1952.95 318.577 1952.95 323.948 Z" fill="#000000" fill-rule="evenodd" fill-opacity="1" /><path clip-path="url(#clip810)" d="M1995.12 326.656 Q1995.12 321.957 1993.18 319.295 Q1991.26 316.61 1987.88 316.61 Q1984.5 316.61 1982.56 319.295 Q1980.63 321.957 1980.63 326.656 Q1980.63 331.355 1982.56 334.04 Q1984.5 336.702 1987.88 336.702 Q1991.26 336.702 1993.18 334.04 Q1995.12 331.355 1995.12 326.656 M1980.63 317.605 Q1981.98 315.29 1984.01 314.179 Q1986.07 313.045 1988.92 313.045 Q1993.64 313.045 1996.58 316.795 Q1999.55 320.545 1999.55 326.656 Q1999.55 332.767 1996.58 336.517 Q1993.64 340.267 1988.92 340.267 Q1986.07 340.267 1984.01 339.156 Q1981.98 338.022 1980.63 335.707 L1980.63 339.596 L1976.35 339.596 L1976.35 303.577 L1980.63 303.577 L1980.63 317.605 Z" fill="#000000" fill-rule="evenodd" fill-opacity="1" /><path clip-path="url(#clip810)" d="M2028.78 325.568 L2028.78 327.651 L2009.2 327.651 Q2009.48 332.049 2011.84 334.364 Q2014.22 336.656 2018.46 336.656 Q2020.91 336.656 2023.2 336.054 Q2025.52 335.452 2027.79 334.249 L2027.79 338.276 Q2025.5 339.248 2023.09 339.758 Q2020.68 340.267 2018.2 340.267 Q2012 340.267 2008.37 336.656 Q2004.75 333.045 2004.75 326.887 Q2004.75 320.522 2008.18 316.795 Q2011.63 313.045 2017.46 313.045 Q2022.69 313.045 2025.73 316.425 Q2028.78 319.781 2028.78 325.568 M2024.52 324.318 Q2024.48 320.823 2022.56 318.739 Q2020.66 316.656 2017.51 316.656 Q2013.94 316.656 2011.79 318.67 Q2009.66 320.684 2009.34 324.341 L2024.52 324.318 Z" fill="#000000" fill-rule="evenodd" fill-opacity="1" /><path clip-path="url(#clip810)" d="M2052.3 314.434 L2052.3 318.462 Q2050.5 317.536 2048.55 317.073 Q2046.61 316.61 2044.52 316.61 Q2041.35 316.61 2039.75 317.582 Q2038.18 318.554 2038.18 320.499 Q2038.18 321.98 2039.31 322.837 Q2040.45 323.67 2043.87 324.434 L2045.33 324.758 Q2049.87 325.73 2051.77 327.512 Q2053.69 329.272 2053.69 332.443 Q2053.69 336.054 2050.82 338.161 Q2047.97 340.267 2042.97 340.267 Q2040.89 340.267 2038.62 339.85 Q2036.37 339.457 2033.87 338.647 L2033.87 334.249 Q2036.24 335.475 2038.53 336.1 Q2040.82 336.702 2043.06 336.702 Q2046.07 336.702 2047.69 335.684 Q2049.31 334.642 2049.31 332.767 Q2049.31 331.031 2048.13 330.105 Q2046.98 329.179 2043.02 328.323 L2041.54 327.975 Q2037.58 327.142 2035.82 325.429 Q2034.06 323.693 2034.06 320.684 Q2034.06 317.026 2036.65 315.036 Q2039.25 313.045 2044.01 313.045 Q2046.37 313.045 2048.46 313.392 Q2050.54 313.739 2052.3 314.434 Z" fill="#000000" fill-rule="evenodd" fill-opacity="1" /><path clip-path="url(#clip810)" d="M2064.68 306.309 L2064.68 313.67 L2073.46 313.67 L2073.46 316.98 L2064.68 316.98 L2064.68 331.054 Q2064.68 334.225 2065.54 335.128 Q2066.42 336.031 2069.08 336.031 L2073.46 336.031 L2073.46 339.596 L2069.08 339.596 Q2064.15 339.596 2062.28 337.767 Q2060.4 335.915 2060.4 331.054 L2060.4 316.98 L2057.28 316.98 L2057.28 313.67 L2060.4 313.67 L2060.4 306.309 L2064.68 306.309 Z" fill="#000000" fill-rule="evenodd" fill-opacity="1" /><path clip-path="url(#clip810)" d="M2108.34 308.207 Q2103.25 308.207 2100.24 312.003 Q2097.25 315.8 2097.25 322.35 Q2097.25 328.878 2100.24 332.674 Q2103.25 336.471 2108.34 336.471 Q2113.43 336.471 2116.4 332.674 Q2119.38 328.878 2119.38 322.35 Q2119.38 315.8 2116.4 312.003 Q2113.43 308.207 2108.34 308.207 M2108.34 304.411 Q2115.61 304.411 2119.96 309.295 Q2124.31 314.156 2124.31 322.35 Q2124.31 330.522 2119.96 335.406 Q2115.61 340.267 2108.34 340.267 Q2101.05 340.267 2096.68 335.406 Q2092.32 330.545 2092.32 322.35 Q2092.32 314.156 2096.68 309.295 Q2101.05 304.411 2108.34 304.411 Z" fill="#000000" fill-rule="evenodd" fill-opacity="1" /><path clip-path="url(#clip810)" d="M2142.05 308.114 Q2138.43 308.114 2136.61 311.679 Q2134.8 315.221 2134.8 322.35 Q2134.8 329.457 2136.61 333.022 Q2138.43 336.563 2142.05 336.563 Q2145.68 336.563 2147.49 333.022 Q2149.31 329.457 2149.31 322.35 Q2149.31 315.221 2147.49 311.679 Q2145.68 308.114 2142.05 308.114 M2142.05 304.411 Q2147.86 304.411 2150.91 309.017 Q2153.99 313.6 2153.99 322.35 Q2153.99 331.077 2150.91 335.684 Q2147.86 340.267 2142.05 340.267 Q2136.24 340.267 2133.16 335.684 Q2130.1 331.077 2130.1 322.35 Q2130.1 313.6 2133.16 309.017 Q2136.24 304.411 2142.05 304.411 Z" fill="#000000" fill-rule="evenodd" fill-opacity="1" /><path clip-path="url(#clip810)" d="M2165.63 305.036 L2165.63 317.883 L2161.7 317.883 L2161.7 305.036 L2165.63 305.036 M2174.38 305.036 L2174.38 317.883 L2170.45 317.883 L2170.45 305.036 L2174.38 305.036 Z" fill="#000000" fill-rule="evenodd" fill-opacity="1" /><path clip-path="url(#clip810)" d="M2193.36 303.577 L2193.36 345.846 L2183.55 345.846 L2183.55 342.536 L2189.08 342.536 L2189.08 306.888 L2183.55 306.888 L2183.55 303.577 L2193.36 303.577 Z" fill="#000000" fill-rule="evenodd" fill-opacity="1" /><polyline clip-path="url(#clip810)" style="stroke:#c271d2; stroke-linecap:butt; stroke-linejoin:round; stroke-width:4; stroke-opacity:1; fill:none" points="
  1622.72,374.156 1762.94,374.156 
  "/>
<path clip-path="url(#clip810)" d="M1802.81 355.417 L1802.81 358.959 L1798.74 358.959 Q1796.45 358.959 1795.54 359.885 Q1794.66 360.811 1794.66 363.218 L1794.66 365.51 L1801.68 365.51 L1801.68 368.82 L1794.66 368.82 L1794.66 391.436 L1790.38 391.436 L1790.38 368.82 L1786.31 368.82 L1786.31 365.51 L1790.38 365.51 L1790.38 363.704 Q1790.38 359.376 1792.39 357.408 Q1794.41 355.417 1798.78 355.417 L1802.81 355.417 Z" fill="#000000" fill-rule="evenodd" fill-opacity="1" /><path clip-path="url(#clip810)" d="M1806.38 365.51 L1810.64 365.51 L1810.64 391.436 L1806.38 391.436 L1806.38 365.51 M1806.38 355.417 L1810.64 355.417 L1810.64 360.811 L1806.38 360.811 L1806.38 355.417 Z" fill="#000000" fill-rule="evenodd" fill-opacity="1" /><path clip-path="url(#clip810)" d="M1823.76 358.149 L1823.76 365.51 L1832.53 365.51 L1832.53 368.82 L1823.76 368.82 L1823.76 382.894 Q1823.76 386.065 1824.62 386.968 Q1825.5 387.871 1828.16 387.871 L1832.53 387.871 L1832.53 391.436 L1828.16 391.436 Q1823.23 391.436 1821.35 389.607 Q1819.48 387.755 1819.48 382.894 L1819.48 368.82 L1816.35 368.82 L1816.35 365.51 L1819.48 365.51 L1819.48 358.149 L1823.76 358.149 Z" fill="#000000" fill-rule="evenodd" fill-opacity="1" /><path clip-path="url(#clip810)" d="M1853.39 356.876 L1859.69 356.876 L1875.01 385.788 L1875.01 356.876 L1879.55 356.876 L1879.55 391.436 L1873.25 391.436 L1857.93 362.524 L1857.93 391.436 L1853.39 391.436 L1853.39 356.876 Z" fill="#000000" fill-rule="evenodd" fill-opacity="1" /><path clip-path="url(#clip810)" d="M1900.45 378.403 Q1895.29 378.403 1893.3 379.584 Q1891.31 380.764 1891.31 383.612 Q1891.31 385.88 1892.79 387.223 Q1894.29 388.542 1896.86 388.542 Q1900.4 388.542 1902.53 386.042 Q1904.69 383.519 1904.69 379.352 L1904.69 378.403 L1900.45 378.403 M1908.94 376.644 L1908.94 391.436 L1904.69 391.436 L1904.69 387.501 Q1903.23 389.862 1901.05 390.996 Q1898.88 392.107 1895.73 392.107 Q1891.75 392.107 1889.38 389.885 Q1887.05 387.639 1887.05 383.889 Q1887.05 379.514 1889.96 377.292 Q1892.9 375.07 1898.71 375.07 L1904.69 375.07 L1904.69 374.653 Q1904.69 371.714 1902.74 370.116 Q1900.82 368.496 1897.32 368.496 Q1895.1 368.496 1893 369.028 Q1890.89 369.561 1888.94 370.626 L1888.94 366.69 Q1891.28 365.788 1893.48 365.348 Q1895.68 364.885 1897.76 364.885 Q1903.39 364.885 1906.17 367.802 Q1908.94 370.718 1908.94 376.644 Z" fill="#000000" fill-rule="evenodd" fill-opacity="1" /><path clip-path="url(#clip810)" d="M1917.72 365.51 L1921.98 365.51 L1921.98 391.436 L1917.72 391.436 L1917.72 365.51 M1917.72 355.417 L1921.98 355.417 L1921.98 360.811 L1917.72 360.811 L1917.72 355.417 Z" fill="#000000" fill-rule="evenodd" fill-opacity="1" /><path clip-path="url(#clip810)" d="M1927.83 365.51 L1932.35 365.51 L1940.45 387.269 L1948.55 365.51 L1953.06 365.51 L1943.34 391.436 L1937.56 391.436 L1927.83 365.51 Z" fill="#000000" fill-rule="evenodd" fill-opacity="1" /><path clip-path="url(#clip810)" d="M1981.12 377.408 L1981.12 379.491 L1961.54 379.491 Q1961.81 383.889 1964.18 386.204 Q1966.56 388.496 1970.8 388.496 Q1973.25 388.496 1975.54 387.894 Q1977.86 387.292 1980.13 386.089 L1980.13 390.116 Q1977.83 391.088 1975.43 391.598 Q1973.02 392.107 1970.54 392.107 Q1964.34 392.107 1960.7 388.496 Q1957.09 384.885 1957.09 378.727 Q1957.09 372.362 1960.52 368.635 Q1963.97 364.885 1969.8 364.885 Q1975.03 364.885 1978.06 368.265 Q1981.12 371.621 1981.12 377.408 M1976.86 376.158 Q1976.81 372.663 1974.89 370.579 Q1973 368.496 1969.85 368.496 Q1966.28 368.496 1964.13 370.51 Q1962 372.524 1961.68 376.181 L1976.86 376.158 Z" fill="#000000" fill-rule="evenodd" fill-opacity="1" /><polyline clip-path="url(#clip810)" style="stroke:#ac8d18; stroke-linecap:butt; stroke-linejoin:round; stroke-width:4; stroke-opacity:1; fill:none" points="
  1622.72,425.996 1762.94,425.996 
  "/>
<path clip-path="url(#clip810)" d="M1802.81 407.257 L1802.81 410.799 L1798.74 410.799 Q1796.45 410.799 1795.54 411.725 Q1794.66 412.651 1794.66 415.058 L1794.66 417.35 L1801.68 417.35 L1801.68 420.66 L1794.66 420.66 L1794.66 443.276 L1790.38 443.276 L1790.38 420.66 L1786.31 420.66 L1786.31 417.35 L1790.38 417.35 L1790.38 415.544 Q1790.38 411.216 1792.39 409.248 Q1794.41 407.257 1798.78 407.257 L1802.81 407.257 Z" fill="#000000" fill-rule="evenodd" fill-opacity="1" /><path clip-path="url(#clip810)" d="M1806.38 417.35 L1810.64 417.35 L1810.64 443.276 L1806.38 443.276 L1806.38 417.35 M1806.38 407.257 L1810.64 407.257 L1810.64 412.651 L1806.38 412.651 L1806.38 407.257 Z" fill="#000000" fill-rule="evenodd" fill-opacity="1" /><path clip-path="url(#clip810)" d="M1823.76 409.989 L1823.76 417.35 L1832.53 417.35 L1832.53 420.66 L1823.76 420.66 L1823.76 434.734 Q1823.76 437.905 1824.62 438.808 Q1825.5 439.711 1828.16 439.711 L1832.53 439.711 L1832.53 443.276 L1828.16 443.276 Q1823.23 443.276 1821.35 441.447 Q1819.48 439.595 1819.48 434.734 L1819.48 420.66 L1816.35 420.66 L1816.35 417.35 L1819.48 417.35 L1819.48 409.989 L1823.76 409.989 Z" fill="#000000" fill-rule="evenodd" fill-opacity="1" /><path clip-path="url(#clip810)" d="M1858.07 426.771 L1858.07 439.433 L1865.57 439.433 Q1869.34 439.433 1871.14 437.882 Q1872.97 436.308 1872.97 433.091 Q1872.97 429.85 1871.14 428.322 Q1869.34 426.771 1865.57 426.771 L1858.07 426.771 M1858.07 412.558 L1858.07 422.975 L1864.99 422.975 Q1868.41 422.975 1870.08 421.702 Q1871.77 420.405 1871.77 417.767 Q1871.77 415.151 1870.08 413.855 Q1868.41 412.558 1864.99 412.558 L1858.07 412.558 M1853.39 408.716 L1865.33 408.716 Q1870.68 408.716 1873.57 410.938 Q1876.47 413.16 1876.47 417.257 Q1876.47 420.429 1874.99 422.304 Q1873.51 424.179 1870.63 424.642 Q1874.08 425.382 1875.98 427.743 Q1877.9 430.081 1877.9 433.6 Q1877.9 438.229 1874.76 440.753 Q1871.61 443.276 1865.8 443.276 L1853.39 443.276 L1853.39 408.716 Z" fill="#000000" fill-rule="evenodd" fill-opacity="1" /><path clip-path="url(#clip810)" d="M1907.9 429.248 L1907.9 431.331 L1888.32 431.331 Q1888.6 435.729 1890.96 438.044 Q1893.34 440.336 1897.58 440.336 Q1900.03 440.336 1902.32 439.734 Q1904.64 439.132 1906.91 437.929 L1906.91 441.956 Q1904.62 442.928 1902.21 443.438 Q1899.8 443.947 1897.32 443.947 Q1891.12 443.947 1887.49 440.336 Q1883.88 436.725 1883.88 430.567 Q1883.88 424.202 1887.3 420.475 Q1890.75 416.725 1896.58 416.725 Q1901.82 416.725 1904.85 420.105 Q1907.9 423.461 1907.9 429.248 M1903.64 427.998 Q1903.6 424.503 1901.68 422.419 Q1899.78 420.336 1896.63 420.336 Q1893.07 420.336 1890.91 422.35 Q1888.78 424.364 1888.46 428.021 L1903.64 427.998 Z" fill="#000000" fill-rule="evenodd" fill-opacity="1" /><path clip-path="url(#clip810)" d="M1919.11 409.989 L1919.11 417.35 L1927.88 417.35 L1927.88 420.66 L1919.11 420.66 L1919.11 434.734 Q1919.11 437.905 1919.96 438.808 Q1920.84 439.711 1923.5 439.711 L1927.88 439.711 L1927.88 443.276 L1923.5 443.276 Q1918.57 443.276 1916.7 441.447 Q1914.82 439.595 1914.82 434.734 L1914.82 420.66 L1911.7 420.66 L1911.7 417.35 L1914.82 417.35 L1914.82 409.989 L1919.11 409.989 Z" fill="#000000" fill-rule="evenodd" fill-opacity="1" /><path clip-path="url(#clip810)" d="M1937.69 409.989 L1937.69 417.35 L1946.47 417.35 L1946.47 420.66 L1937.69 420.66 L1937.69 434.734 Q1937.69 437.905 1938.55 438.808 Q1939.43 439.711 1942.09 439.711 L1946.47 439.711 L1946.47 443.276 L1942.09 443.276 Q1937.16 443.276 1935.29 441.447 Q1933.41 439.595 1933.41 434.734 L1933.41 420.66 L1930.29 420.66 L1930.29 417.35 L1933.41 417.35 L1933.41 409.989 L1937.69 409.989 Z" fill="#000000" fill-rule="evenodd" fill-opacity="1" /><path clip-path="url(#clip810)" d="M1974.25 429.248 L1974.25 431.331 L1954.66 431.331 Q1954.94 435.729 1957.3 438.044 Q1959.69 440.336 1963.92 440.336 Q1966.38 440.336 1968.67 439.734 Q1970.98 439.132 1973.25 437.929 L1973.25 441.956 Q1970.96 442.928 1968.55 443.438 Q1966.14 443.947 1963.67 443.947 Q1957.46 443.947 1953.83 440.336 Q1950.22 436.725 1950.22 430.567 Q1950.22 424.202 1953.64 420.475 Q1957.09 416.725 1962.93 416.725 Q1968.16 416.725 1971.19 420.105 Q1974.25 423.461 1974.25 429.248 M1969.99 427.998 Q1969.94 424.503 1968.02 422.419 Q1966.12 420.336 1962.97 420.336 Q1959.41 420.336 1957.25 422.35 Q1955.13 424.364 1954.8 428.021 L1969.99 427.998 Z" fill="#000000" fill-rule="evenodd" fill-opacity="1" /><path clip-path="url(#clip810)" d="M1996.26 421.331 Q1995.54 420.915 1994.69 420.73 Q1993.85 420.521 1992.83 420.521 Q1989.22 420.521 1987.28 422.882 Q1985.36 425.22 1985.36 429.618 L1985.36 443.276 L1981.07 443.276 L1981.07 417.35 L1985.36 417.35 L1985.36 421.378 Q1986.7 419.017 1988.85 417.882 Q1991 416.725 1994.08 416.725 Q1994.52 416.725 1995.06 416.794 Q1995.59 416.841 1996.24 416.956 L1996.26 421.331 Z" fill="#000000" fill-rule="evenodd" fill-opacity="1" /><polyline clip-path="url(#clip810)" style="stroke:#00a9ad; stroke-linecap:butt; stroke-linejoin:round; stroke-width:4; stroke-opacity:1; fill:none" points="
  1622.72,477.836 1762.94,477.836 
  "/>
<path clip-path="url(#clip810)" d="M1802.81 459.097 L1802.81 462.639 L1798.74 462.639 Q1796.45 462.639 1795.54 463.565 Q1794.66 464.491 1794.66 466.898 L1794.66 469.19 L1801.68 469.19 L1801.68 472.5 L1794.66 472.5 L1794.66 495.116 L1790.38 495.116 L1790.38 472.5 L1786.31 472.5 L1786.31 469.19 L1790.38 469.19 L1790.38 467.384 Q1790.38 463.056 1792.39 461.088 Q1794.41 459.097 1798.78 459.097 L1802.81 459.097 Z" fill="#000000" fill-rule="evenodd" fill-opacity="1" /><path clip-path="url(#clip810)" d="M1806.38 469.19 L1810.64 469.19 L1810.64 495.116 L1806.38 495.116 L1806.38 469.19 M1806.38 459.097 L1810.64 459.097 L1810.64 464.491 L1806.38 464.491 L1806.38 459.097 Z" fill="#000000" fill-rule="evenodd" fill-opacity="1" /><path clip-path="url(#clip810)" d="M1823.76 461.829 L1823.76 469.19 L1832.53 469.19 L1832.53 472.5 L1823.76 472.5 L1823.76 486.574 Q1823.76 489.745 1824.62 490.648 Q1825.5 491.551 1828.16 491.551 L1832.53 491.551 L1832.53 495.116 L1828.16 495.116 Q1823.23 495.116 1821.35 493.287 Q1819.48 491.435 1819.48 486.574 L1819.48 472.5 L1816.35 472.5 L1816.35 469.19 L1819.48 469.19 L1819.48 461.829 L1823.76 461.829 Z" fill="#000000" fill-rule="evenodd" fill-opacity="1" /><path clip-path="url(#clip810)" d="M1858.07 478.611 L1858.07 491.273 L1865.57 491.273 Q1869.34 491.273 1871.14 489.722 Q1872.97 488.148 1872.97 484.931 Q1872.97 481.69 1871.14 480.162 Q1869.34 478.611 1865.57 478.611 L1858.07 478.611 M1858.07 464.398 L1858.07 474.815 L1864.99 474.815 Q1868.41 474.815 1870.08 473.542 Q1871.77 472.245 1871.77 469.607 Q1871.77 466.991 1870.08 465.695 Q1868.41 464.398 1864.99 464.398 L1858.07 464.398 M1853.39 460.556 L1865.33 460.556 Q1870.68 460.556 1873.57 462.778 Q1876.47 465 1876.47 469.097 Q1876.47 472.269 1874.99 474.144 Q1873.51 476.019 1870.63 476.482 Q1874.08 477.222 1875.98 479.583 Q1877.9 481.921 1877.9 485.44 Q1877.9 490.069 1874.76 492.593 Q1871.61 495.116 1865.8 495.116 L1853.39 495.116 L1853.39 460.556 Z" fill="#000000" fill-rule="evenodd" fill-opacity="1" /><path clip-path="url(#clip810)" d="M1907.9 481.088 L1907.9 483.171 L1888.32 483.171 Q1888.6 487.569 1890.96 489.884 Q1893.34 492.176 1897.58 492.176 Q1900.03 492.176 1902.32 491.574 Q1904.64 490.972 1906.91 489.769 L1906.91 493.796 Q1904.62 494.768 1902.21 495.278 Q1899.8 495.787 1897.32 495.787 Q1891.12 495.787 1887.49 492.176 Q1883.88 488.565 1883.88 482.407 Q1883.88 476.042 1887.3 472.315 Q1890.75 468.565 1896.58 468.565 Q1901.82 468.565 1904.85 471.945 Q1907.9 475.301 1907.9 481.088 M1903.64 479.838 Q1903.6 476.343 1901.68 474.259 Q1899.78 472.176 1896.63 472.176 Q1893.07 472.176 1890.91 474.19 Q1888.78 476.204 1888.46 479.861 L1903.64 479.838 Z" fill="#000000" fill-rule="evenodd" fill-opacity="1" /><path clip-path="url(#clip810)" d="M1931.42 469.954 L1931.42 473.982 Q1929.62 473.056 1927.67 472.593 Q1925.73 472.13 1923.64 472.13 Q1920.47 472.13 1918.88 473.102 Q1917.3 474.074 1917.3 476.019 Q1917.3 477.5 1918.44 478.357 Q1919.57 479.19 1923 479.954 L1924.45 480.278 Q1928.99 481.25 1930.89 483.032 Q1932.81 484.792 1932.81 487.963 Q1932.81 491.574 1929.94 493.681 Q1927.09 495.787 1922.09 495.787 Q1920.01 495.787 1917.74 495.37 Q1915.5 494.977 1913 494.167 L1913 489.769 Q1915.36 490.995 1917.65 491.62 Q1919.94 492.222 1922.19 492.222 Q1925.19 492.222 1926.82 491.204 Q1928.44 490.162 1928.44 488.287 Q1928.44 486.551 1927.25 485.625 Q1926.1 484.699 1922.14 483.843 L1920.66 483.495 Q1916.7 482.662 1914.94 480.949 Q1913.18 479.213 1913.18 476.204 Q1913.18 472.546 1915.77 470.556 Q1918.37 468.565 1923.13 468.565 Q1925.5 468.565 1927.58 468.912 Q1929.66 469.259 1931.42 469.954 Z" fill="#000000" fill-rule="evenodd" fill-opacity="1" /><path clip-path="url(#clip810)" d="M1943.81 461.829 L1943.81 469.19 L1952.58 469.19 L1952.58 472.5 L1943.81 472.5 L1943.81 486.574 Q1943.81 489.745 1944.66 490.648 Q1945.54 491.551 1948.2 491.551 L1952.58 491.551 L1952.58 495.116 L1948.2 495.116 Q1943.27 495.116 1941.4 493.287 Q1939.52 491.435 1939.52 486.574 L1939.52 472.5 L1936.4 472.5 L1936.4 469.19 L1939.52 469.19 L1939.52 461.829 L1943.81 461.829 Z" fill="#000000" fill-rule="evenodd" fill-opacity="1" /></svg>
