<?xml version="1.0" encoding="utf-8"?>
<svg xmlns="http://www.w3.org/2000/svg" xmlns:xlink="http://www.w3.org/1999/xlink" width="600" height="400" viewBox="0 0 2400 1600">
<defs>
  <clipPath id="clip610">
    <rect x="0" y="0" width="2400" height="1600"/>
  </clipPath>
</defs>
<path clip-path="url(#clip610)" d="
M0 1600 L2400 1600 L2400 0 L0 0  Z
  " fill="#ffffff" fill-rule="evenodd" fill-opacity="1"/>
<defs>
  <clipPath id="clip611">
    <rect x="480" y="0" width="1681" height="1600"/>
  </clipPath>
</defs>
<path clip-path="url(#clip610)" d="
M249.542 1423.18 L2352.76 1423.18 L2352.76 123.472 L249.542 123.472  Z
  " fill="#ffffff" fill-rule="evenodd" fill-opacity="1"/>
<defs>
  <clipPath id="clip612">
    <rect x="249" y="123" width="2104" height="1301"/>
  </clipPath>
</defs>
<polyline clip-path="url(#clip612)" style="stroke:#000000; stroke-linecap:butt; stroke-linejoin:round; stroke-width:2; stroke-opacity:0.1; fill:none" points="
  726.786,1423.18 726.786,123.472 
  "/>
<polyline clip-path="url(#clip612)" style="stroke:#000000; stroke-linecap:butt; stroke-linejoin:round; stroke-width:2; stroke-opacity:0.1; fill:none" points="
  1248.93,1423.18 1248.93,123.472 
  "/>
<polyline clip-path="url(#clip612)" style="stroke:#000000; stroke-linecap:butt; stroke-linejoin:round; stroke-width:2; stroke-opacity:0.1; fill:none" points="
  1771.08,1423.18 1771.08,123.472 
  "/>
<polyline clip-path="url(#clip612)" style="stroke:#000000; stroke-linecap:butt; stroke-linejoin:round; stroke-width:2; stroke-opacity:0.1; fill:none" points="
  2293.23,1423.18 2293.23,123.472 
  "/>
<polyline clip-path="url(#clip610)" style="stroke:#000000; stroke-linecap:butt; stroke-linejoin:round; stroke-width:4; stroke-opacity:1; fill:none" points="
  249.542,1423.18 2352.76,1423.18 
  "/>
<polyline clip-path="url(#clip610)" style="stroke:#000000; stroke-linecap:butt; stroke-linejoin:round; stroke-width:4; stroke-opacity:1; fill:none" points="
  726.786,1423.18 726.786,1404.28 
  "/>
<polyline clip-path="url(#clip610)" style="stroke:#000000; stroke-linecap:butt; stroke-linejoin:round; stroke-width:4; stroke-opacity:1; fill:none" points="
  1248.93,1423.18 1248.93,1404.28 
  "/>
<polyline clip-path="url(#clip610)" style="stroke:#000000; stroke-linecap:butt; stroke-linejoin:round; stroke-width:4; stroke-opacity:1; fill:none" points="
  1771.08,1423.18 1771.08,1404.28 
  "/>
<polyline clip-path="url(#clip610)" style="stroke:#000000; stroke-linecap:butt; stroke-linejoin:round; stroke-width:4; stroke-opacity:1; fill:none" points="
  2293.23,1423.18 2293.23,1404.28 
  "/>
<path clip-path="url(#clip610)" d="M701.485 1451.02 L719.841 1451.02 L719.841 1454.96 L705.767 1454.96 L705.767 1463.43 Q706.786 1463.08 707.804 1462.92 Q708.823 1462.73 709.841 1462.73 Q715.628 1462.73 719.008 1465.9 Q722.388 1469.08 722.388 1474.49 Q722.388 1480.07 718.915 1483.17 Q715.443 1486.25 709.124 1486.25 Q706.948 1486.25 704.679 1485.88 Q702.434 1485.51 700.027 1484.77 L700.027 1480.07 Q702.11 1481.2 704.332 1481.76 Q706.554 1482.32 709.031 1482.32 Q713.036 1482.32 715.374 1480.21 Q717.712 1478.1 717.712 1474.49 Q717.712 1470.88 715.374 1468.77 Q713.036 1466.67 709.031 1466.67 Q707.156 1466.67 705.281 1467.08 Q703.429 1467.5 701.485 1468.38 L701.485 1451.02 Z" fill="#000000" fill-rule="evenodd" fill-opacity="1" /><path clip-path="url(#clip610)" d="M741.6 1454.1 Q737.989 1454.1 736.161 1457.66 Q734.355 1461.2 734.355 1468.33 Q734.355 1475.44 736.161 1479.01 Q737.989 1482.55 741.6 1482.55 Q745.235 1482.55 747.04 1479.01 Q748.869 1475.44 748.869 1468.33 Q748.869 1461.2 747.04 1457.66 Q745.235 1454.1 741.6 1454.1 M741.6 1450.39 Q747.411 1450.39 750.466 1455 Q753.545 1459.58 753.545 1468.33 Q753.545 1477.06 750.466 1481.67 Q747.411 1486.25 741.6 1486.25 Q735.79 1486.25 732.712 1481.67 Q729.656 1477.06 729.656 1468.33 Q729.656 1459.58 732.712 1455 Q735.79 1450.39 741.6 1450.39 Z" fill="#000000" fill-rule="evenodd" fill-opacity="1" /><path clip-path="url(#clip610)" d="M1208.54 1481.64 L1216.18 1481.64 L1216.18 1455.28 L1207.87 1456.95 L1207.87 1452.69 L1216.13 1451.02 L1220.81 1451.02 L1220.81 1481.64 L1228.45 1481.64 L1228.45 1485.58 L1208.54 1485.58 L1208.54 1481.64 Z" fill="#000000" fill-rule="evenodd" fill-opacity="1" /><path clip-path="url(#clip610)" d="M1247.89 1454.1 Q1244.28 1454.1 1242.45 1457.66 Q1240.65 1461.2 1240.65 1468.33 Q1240.65 1475.44 1242.45 1479.01 Q1244.28 1482.55 1247.89 1482.55 Q1251.53 1482.55 1253.33 1479.01 Q1255.16 1475.44 1255.16 1468.33 Q1255.16 1461.2 1253.33 1457.66 Q1251.53 1454.1 1247.89 1454.1 M1247.89 1450.39 Q1253.7 1450.39 1256.76 1455 Q1259.84 1459.58 1259.84 1468.33 Q1259.84 1477.06 1256.76 1481.67 Q1253.7 1486.25 1247.89 1486.25 Q1242.08 1486.25 1239 1481.67 Q1235.95 1477.06 1235.95 1468.33 Q1235.95 1459.58 1239 1455 Q1242.08 1450.39 1247.89 1450.39 Z" fill="#000000" fill-rule="evenodd" fill-opacity="1" /><path clip-path="url(#clip610)" d="M1278.05 1454.1 Q1274.44 1454.1 1272.61 1457.66 Q1270.81 1461.2 1270.81 1468.33 Q1270.81 1475.44 1272.61 1479.01 Q1274.44 1482.55 1278.05 1482.55 Q1281.69 1482.55 1283.49 1479.01 Q1285.32 1475.44 1285.32 1468.33 Q1285.32 1461.2 1283.49 1457.66 Q1281.69 1454.1 1278.05 1454.1 M1278.05 1450.39 Q1283.86 1450.39 1286.92 1455 Q1290 1459.58 1290 1468.33 Q1290 1477.06 1286.92 1481.67 Q1283.86 1486.25 1278.05 1486.25 Q1272.24 1486.25 1269.17 1481.67 Q1266.11 1477.06 1266.11 1468.33 Q1266.11 1459.58 1269.17 1455 Q1272.24 1450.39 1278.05 1450.39 Z" fill="#000000" fill-rule="evenodd" fill-opacity="1" /><path clip-path="url(#clip610)" d="M1730.69 1481.64 L1738.33 1481.64 L1738.33 1455.28 L1730.02 1456.95 L1730.02 1452.69 L1738.28 1451.02 L1742.96 1451.02 L1742.96 1481.64 L1750.6 1481.64 L1750.6 1485.58 L1730.69 1485.58 L1730.69 1481.64 Z" fill="#000000" fill-rule="evenodd" fill-opacity="1" /><path clip-path="url(#clip610)" d="M1760.09 1451.02 L1778.44 1451.02 L1778.44 1454.96 L1764.37 1454.96 L1764.37 1463.43 Q1765.39 1463.08 1766.41 1462.92 Q1767.43 1462.73 1768.44 1462.73 Q1774.23 1462.73 1777.61 1465.9 Q1780.99 1469.08 1780.99 1474.49 Q1780.99 1480.07 1777.52 1483.17 Q1774.05 1486.25 1767.73 1486.25 Q1765.55 1486.25 1763.28 1485.88 Q1761.04 1485.51 1758.63 1484.77 L1758.63 1480.07 Q1760.71 1481.2 1762.93 1481.76 Q1765.16 1482.32 1767.63 1482.32 Q1771.64 1482.32 1773.98 1480.21 Q1776.31 1478.1 1776.31 1474.49 Q1776.31 1470.88 1773.98 1468.77 Q1771.64 1466.67 1767.63 1466.67 Q1765.76 1466.67 1763.88 1467.08 Q1762.03 1467.5 1760.09 1468.38 L1760.09 1451.02 Z" fill="#000000" fill-rule="evenodd" fill-opacity="1" /><path clip-path="url(#clip610)" d="M1800.2 1454.1 Q1796.59 1454.1 1794.76 1457.66 Q1792.96 1461.2 1792.96 1468.33 Q1792.96 1475.44 1794.76 1479.01 Q1796.59 1482.55 1800.2 1482.55 Q1803.84 1482.55 1805.64 1479.01 Q1807.47 1475.44 1807.47 1468.33 Q1807.47 1461.2 1805.64 1457.66 Q1803.84 1454.1 1800.2 1454.1 M1800.2 1450.39 Q1806.01 1450.39 1809.07 1455 Q1812.15 1459.58 1812.15 1468.33 Q1812.15 1477.06 1809.07 1481.67 Q1806.01 1486.25 1800.2 1486.25 Q1794.39 1486.25 1791.31 1481.67 Q1788.26 1477.06 1788.26 1468.33 Q1788.26 1459.58 1791.31 1455 Q1794.39 1450.39 1800.2 1450.39 Z" fill="#000000" fill-rule="evenodd" fill-opacity="1" /><path clip-path="url(#clip610)" d="M2256.92 1481.64 L2273.24 1481.64 L2273.24 1485.58 L2251.3 1485.58 L2251.3 1481.64 Q2253.96 1478.89 2258.54 1474.26 Q2263.15 1469.61 2264.33 1468.27 Q2266.58 1465.74 2267.46 1464.01 Q2268.36 1462.25 2268.36 1460.56 Q2268.36 1457.8 2266.41 1456.07 Q2264.49 1454.33 2261.39 1454.33 Q2259.19 1454.33 2256.74 1455.09 Q2254.31 1455.86 2251.53 1457.41 L2251.53 1452.69 Q2254.35 1451.55 2256.81 1450.97 Q2259.26 1450.39 2261.3 1450.39 Q2266.67 1450.39 2269.86 1453.08 Q2273.06 1455.77 2273.06 1460.26 Q2273.06 1462.39 2272.25 1464.31 Q2271.46 1466.2 2269.35 1468.8 Q2268.78 1469.47 2265.67 1472.69 Q2262.57 1475.88 2256.92 1481.64 Z" fill="#000000" fill-rule="evenodd" fill-opacity="1" /><path clip-path="url(#clip610)" d="M2293.06 1454.1 Q2289.45 1454.1 2287.62 1457.66 Q2285.81 1461.2 2285.81 1468.33 Q2285.81 1475.44 2287.62 1479.01 Q2289.45 1482.55 2293.06 1482.55 Q2296.69 1482.55 2298.5 1479.01 Q2300.33 1475.44 2300.33 1468.33 Q2300.33 1461.2 2298.5 1457.66 Q2296.69 1454.1 2293.06 1454.1 M2293.06 1450.39 Q2298.87 1450.39 2301.92 1455 Q2305 1459.58 2305 1468.33 Q2305 1477.06 2301.92 1481.67 Q2298.87 1486.25 2293.06 1486.25 Q2287.25 1486.25 2284.17 1481.67 Q2281.11 1477.06 2281.11 1468.33 Q2281.11 1459.58 2284.17 1455 Q2287.25 1450.39 2293.06 1450.39 Z" fill="#000000" fill-rule="evenodd" fill-opacity="1" /><path clip-path="url(#clip610)" d="M2323.22 1454.1 Q2319.61 1454.1 2317.78 1457.66 Q2315.97 1461.2 2315.97 1468.33 Q2315.97 1475.44 2317.78 1479.01 Q2319.61 1482.55 2323.22 1482.55 Q2326.85 1482.55 2328.66 1479.01 Q2330.49 1475.44 2330.49 1468.33 Q2330.49 1461.2 2328.66 1457.66 Q2326.85 1454.1 2323.22 1454.1 M2323.22 1450.39 Q2329.03 1450.39 2332.08 1455 Q2335.16 1459.58 2335.16 1468.33 Q2335.16 1477.06 2332.08 1481.67 Q2329.03 1486.25 2323.22 1486.25 Q2317.41 1486.25 2314.33 1481.67 Q2311.27 1477.06 2311.27 1468.33 Q2311.27 1459.58 2314.33 1455 Q2317.41 1450.39 2323.22 1450.39 Z" fill="#000000" fill-rule="evenodd" fill-opacity="1" /><path clip-path="url(#clip610)" d="M1266.79 1533.45 L1266.79 1538.98 Q1264.31 1537.71 1261.63 1537.07 Q1258.96 1536.44 1256.1 1536.44 Q1251.74 1536.44 1249.54 1537.77 Q1247.37 1539.11 1247.37 1541.79 Q1247.37 1543.82 1248.93 1545 Q1250.49 1546.15 1255.2 1547.2 L1257.21 1547.64 Q1263.45 1548.98 1266.06 1551.43 Q1268.7 1553.85 1268.7 1558.21 Q1268.7 1563.17 1264.75 1566.07 Q1260.84 1568.97 1253.96 1568.97 Q1251.1 1568.97 1247.98 1568.39 Q1244.89 1567.85 1241.45 1566.74 L1241.45 1560.69 Q1244.7 1562.38 1247.85 1563.24 Q1251 1564.07 1254.09 1564.07 Q1258.23 1564.07 1260.46 1562.66 Q1262.68 1561.23 1262.68 1558.65 Q1262.68 1556.27 1261.06 1554.99 Q1259.47 1553.72 1254.03 1552.54 L1251.99 1552.07 Q1246.55 1550.92 1244.13 1548.56 Q1241.71 1546.18 1241.71 1542.04 Q1241.71 1537.01 1245.27 1534.27 Q1248.84 1531.54 1255.4 1531.54 Q1258.64 1531.54 1261.51 1532.01 Q1264.37 1532.49 1266.79 1533.45 Z" fill="#000000" fill-rule="evenodd" fill-opacity="1" /><path clip-path="url(#clip610)" d="M1278.03 1532.4 L1283.88 1532.4 L1283.88 1568.04 L1278.03 1568.04 L1278.03 1532.4 M1278.03 1518.52 L1283.88 1518.52 L1283.88 1525.93 L1278.03 1525.93 L1278.03 1518.52 Z" fill="#000000" fill-rule="evenodd" fill-opacity="1" /><path clip-path="url(#clip610)" d="M1293.59 1532.4 L1321.41 1532.4 L1321.41 1537.74 L1299.38 1563.37 L1321.41 1563.37 L1321.41 1568.04 L1292.79 1568.04 L1292.79 1562.7 L1314.82 1537.07 L1293.59 1537.07 L1293.59 1532.4 Z" fill="#000000" fill-rule="evenodd" fill-opacity="1" /><path clip-path="url(#clip610)" d="M1360.84 1548.76 L1360.84 1551.62 L1333.92 1551.62 Q1334.3 1557.67 1337.54 1560.85 Q1340.82 1564 1346.65 1564 Q1350.02 1564 1353.17 1563.17 Q1356.36 1562.35 1359.47 1560.69 L1359.47 1566.23 Q1356.32 1567.57 1353.01 1568.27 Q1349.7 1568.97 1346.3 1568.97 Q1337.77 1568.97 1332.77 1564 Q1327.81 1559.04 1327.81 1550.57 Q1327.81 1541.82 1332.52 1536.69 Q1337.26 1531.54 1345.28 1531.54 Q1352.47 1531.54 1356.64 1536.18 Q1360.84 1540.8 1360.84 1548.76 M1354.99 1547.04 Q1354.92 1542.23 1352.28 1539.37 Q1349.67 1536.5 1345.34 1536.5 Q1340.44 1536.5 1337.48 1539.27 Q1334.55 1542.04 1334.11 1547.07 L1354.99 1547.04 Z" fill="#000000" fill-rule="evenodd" fill-opacity="1" /><polyline clip-path="url(#clip612)" style="stroke:#000000; stroke-linecap:butt; stroke-linejoin:round; stroke-width:2; stroke-opacity:0.1; fill:none" points="
  249.542,1317.05 2352.76,1317.05 
  "/>
<polyline clip-path="url(#clip612)" style="stroke:#000000; stroke-linecap:butt; stroke-linejoin:round; stroke-width:2; stroke-opacity:0.1; fill:none" points="
  249.542,984.841 2352.76,984.841 
  "/>
<polyline clip-path="url(#clip612)" style="stroke:#000000; stroke-linecap:butt; stroke-linejoin:round; stroke-width:2; stroke-opacity:0.1; fill:none" points="
  249.542,652.631 2352.76,652.631 
  "/>
<polyline clip-path="url(#clip612)" style="stroke:#000000; stroke-linecap:butt; stroke-linejoin:round; stroke-width:2; stroke-opacity:0.1; fill:none" points="
  249.542,320.42 2352.76,320.42 
  "/>
<polyline clip-path="url(#clip610)" style="stroke:#000000; stroke-linecap:butt; stroke-linejoin:round; stroke-width:4; stroke-opacity:1; fill:none" points="
  249.542,1423.18 249.542,123.472 
  "/>
<polyline clip-path="url(#clip610)" style="stroke:#000000; stroke-linecap:butt; stroke-linejoin:round; stroke-width:4; stroke-opacity:1; fill:none" points="
  249.542,1317.05 268.44,1317.05 
  "/>
<polyline clip-path="url(#clip610)" style="stroke:#000000; stroke-linecap:butt; stroke-linejoin:round; stroke-width:4; stroke-opacity:1; fill:none" points="
  249.542,984.841 268.44,984.841 
  "/>
<polyline clip-path="url(#clip610)" style="stroke:#000000; stroke-linecap:butt; stroke-linejoin:round; stroke-width:4; stroke-opacity:1; fill:none" points="
  249.542,652.631 268.44,652.631 
  "/>
<polyline clip-path="url(#clip610)" style="stroke:#000000; stroke-linecap:butt; stroke-linejoin:round; stroke-width:4; stroke-opacity:1; fill:none" points="
  249.542,320.42 268.44,320.42 
  "/>
<path clip-path="url(#clip610)" d="M126.205 1302.85 Q122.593 1302.85 120.765 1306.42 Q118.959 1309.96 118.959 1317.09 Q118.959 1324.19 120.765 1327.76 Q122.593 1331.3 126.205 1331.3 Q129.839 1331.3 131.644 1327.76 Q133.473 1324.19 133.473 1317.09 Q133.473 1309.96 131.644 1306.42 Q129.839 1302.85 126.205 1302.85 M126.205 1299.15 Q132.015 1299.15 135.07 1303.75 Q138.149 1308.34 138.149 1317.09 Q138.149 1325.81 135.07 1330.42 Q132.015 1335 126.205 1335 Q120.394 1335 117.316 1330.42 Q114.26 1325.81 114.26 1317.09 Q114.26 1308.34 117.316 1303.75 Q120.394 1299.15 126.205 1299.15 Z" fill="#000000" fill-rule="evenodd" fill-opacity="1" /><path clip-path="url(#clip610)" d="M146.366 1328.45 L151.251 1328.45 L151.251 1334.33 L146.366 1334.33 L146.366 1328.45 Z" fill="#000000" fill-rule="evenodd" fill-opacity="1" /><path clip-path="url(#clip610)" d="M171.436 1302.85 Q167.825 1302.85 165.996 1306.42 Q164.19 1309.96 164.19 1317.09 Q164.19 1324.19 165.996 1327.76 Q167.825 1331.3 171.436 1331.3 Q175.07 1331.3 176.876 1327.76 Q178.704 1324.19 178.704 1317.09 Q178.704 1309.96 176.876 1306.42 Q175.07 1302.85 171.436 1302.85 M171.436 1299.15 Q177.246 1299.15 180.301 1303.75 Q183.38 1308.34 183.38 1317.09 Q183.38 1325.81 180.301 1330.42 Q177.246 1335 171.436 1335 Q165.626 1335 162.547 1330.42 Q159.491 1325.81 159.491 1317.09 Q159.491 1308.34 162.547 1303.75 Q165.626 1299.15 171.436 1299.15 Z" fill="#000000" fill-rule="evenodd" fill-opacity="1" /><path clip-path="url(#clip610)" d="M201.598 1302.85 Q197.987 1302.85 196.158 1306.42 Q194.352 1309.96 194.352 1317.09 Q194.352 1324.19 196.158 1327.76 Q197.987 1331.3 201.598 1331.3 Q205.232 1331.3 207.037 1327.76 Q208.866 1324.19 208.866 1317.09 Q208.866 1309.96 207.037 1306.42 Q205.232 1302.85 201.598 1302.85 M201.598 1299.15 Q207.408 1299.15 210.463 1303.75 Q213.542 1308.34 213.542 1317.09 Q213.542 1325.81 210.463 1330.42 Q207.408 1335 201.598 1335 Q195.787 1335 192.709 1330.42 Q189.653 1325.81 189.653 1317.09 Q189.653 1308.34 192.709 1303.75 Q195.787 1299.15 201.598 1299.15 Z" fill="#000000" fill-rule="evenodd" fill-opacity="1" /><path clip-path="url(#clip610)" d="M127.431 970.64 Q123.82 970.64 121.992 974.205 Q120.186 977.746 120.186 984.876 Q120.186 991.982 121.992 995.547 Q123.82 999.089 127.431 999.089 Q131.066 999.089 132.871 995.547 Q134.7 991.982 134.7 984.876 Q134.7 977.746 132.871 974.205 Q131.066 970.64 127.431 970.64 M127.431 966.936 Q133.242 966.936 136.297 971.543 Q139.376 976.126 139.376 984.876 Q139.376 993.603 136.297 998.209 Q133.242 1002.79 127.431 1002.79 Q121.621 1002.79 118.543 998.209 Q115.487 993.603 115.487 984.876 Q115.487 976.126 118.543 971.543 Q121.621 966.936 127.431 966.936 Z" fill="#000000" fill-rule="evenodd" fill-opacity="1" /><path clip-path="url(#clip610)" d="M147.593 996.242 L152.478 996.242 L152.478 1002.12 L147.593 1002.12 L147.593 996.242 Z" fill="#000000" fill-rule="evenodd" fill-opacity="1" /><path clip-path="url(#clip610)" d="M172.663 970.64 Q169.052 970.64 167.223 974.205 Q165.417 977.746 165.417 984.876 Q165.417 991.982 167.223 995.547 Q169.052 999.089 172.663 999.089 Q176.297 999.089 178.102 995.547 Q179.931 991.982 179.931 984.876 Q179.931 977.746 178.102 974.205 Q176.297 970.64 172.663 970.64 M172.663 966.936 Q178.473 966.936 181.528 971.543 Q184.607 976.126 184.607 984.876 Q184.607 993.603 181.528 998.209 Q178.473 1002.79 172.663 1002.79 Q166.852 1002.79 163.774 998.209 Q160.718 993.603 160.718 984.876 Q160.718 976.126 163.774 971.543 Q166.852 966.936 172.663 966.936 Z" fill="#000000" fill-rule="evenodd" fill-opacity="1" /><path clip-path="url(#clip610)" d="M193.635 998.186 L201.274 998.186 L201.274 971.82 L192.963 973.487 L192.963 969.228 L201.227 967.561 L205.903 967.561 L205.903 998.186 L213.542 998.186 L213.542 1002.12 L193.635 1002.12 L193.635 998.186 Z" fill="#000000" fill-rule="evenodd" fill-opacity="1" /><path clip-path="url(#clip610)" d="M127.802 638.429 Q124.191 638.429 122.362 641.994 Q120.556 645.536 120.556 652.665 Q120.556 659.772 122.362 663.337 Q124.191 666.878 127.802 666.878 Q131.436 666.878 133.242 663.337 Q135.07 659.772 135.07 652.665 Q135.07 645.536 133.242 641.994 Q131.436 638.429 127.802 638.429 M127.802 634.726 Q133.612 634.726 136.667 639.332 Q139.746 643.915 139.746 652.665 Q139.746 661.392 136.667 665.999 Q133.612 670.582 127.802 670.582 Q121.992 670.582 118.913 665.999 Q115.857 661.392 115.857 652.665 Q115.857 643.915 118.913 639.332 Q121.992 634.726 127.802 634.726 Z" fill="#000000" fill-rule="evenodd" fill-opacity="1" /><path clip-path="url(#clip610)" d="M147.964 664.031 L152.848 664.031 L152.848 669.911 L147.964 669.911 L147.964 664.031 Z" fill="#000000" fill-rule="evenodd" fill-opacity="1" /><path clip-path="url(#clip610)" d="M173.033 638.429 Q169.422 638.429 167.593 641.994 Q165.788 645.536 165.788 652.665 Q165.788 659.772 167.593 663.337 Q169.422 666.878 173.033 666.878 Q176.667 666.878 178.473 663.337 Q180.301 659.772 180.301 652.665 Q180.301 645.536 178.473 641.994 Q176.667 638.429 173.033 638.429 M173.033 634.726 Q178.843 634.726 181.899 639.332 Q184.977 643.915 184.977 652.665 Q184.977 661.392 181.899 665.999 Q178.843 670.582 173.033 670.582 Q167.223 670.582 164.144 665.999 Q161.089 661.392 161.089 652.665 Q161.089 643.915 164.144 639.332 Q167.223 634.726 173.033 634.726 Z" fill="#000000" fill-rule="evenodd" fill-opacity="1" /><path clip-path="url(#clip610)" d="M197.223 665.976 L213.542 665.976 L213.542 669.911 L191.598 669.911 L191.598 665.976 Q194.26 663.221 198.843 658.591 Q203.449 653.939 204.63 652.596 Q206.875 650.073 207.755 648.337 Q208.658 646.578 208.658 644.888 Q208.658 642.133 206.713 640.397 Q204.792 638.661 201.69 638.661 Q199.491 638.661 197.037 639.425 Q194.607 640.189 191.829 641.74 L191.829 637.017 Q194.653 635.883 197.107 635.304 Q199.561 634.726 201.598 634.726 Q206.968 634.726 210.162 637.411 Q213.357 640.096 213.357 644.587 Q213.357 646.716 212.547 648.638 Q211.76 650.536 209.653 653.128 Q209.074 653.8 205.973 657.017 Q202.871 660.212 197.223 665.976 Z" fill="#000000" fill-rule="evenodd" fill-opacity="1" /><path clip-path="url(#clip610)" d="M126.853 306.219 Q123.242 306.219 121.413 309.784 Q119.607 313.325 119.607 320.455 Q119.607 327.561 121.413 331.126 Q123.242 334.668 126.853 334.668 Q130.487 334.668 132.292 331.126 Q134.121 327.561 134.121 320.455 Q134.121 313.325 132.292 309.784 Q130.487 306.219 126.853 306.219 M126.853 302.515 Q132.663 302.515 135.718 307.122 Q138.797 311.705 138.797 320.455 Q138.797 329.182 135.718 333.788 Q132.663 338.372 126.853 338.372 Q121.043 338.372 117.964 333.788 Q114.908 329.182 114.908 320.455 Q114.908 311.705 117.964 307.122 Q121.043 302.515 126.853 302.515 Z" fill="#000000" fill-rule="evenodd" fill-opacity="1" /><path clip-path="url(#clip610)" d="M147.015 331.821 L151.899 331.821 L151.899 337.7 L147.015 337.7 L147.015 331.821 Z" fill="#000000" fill-rule="evenodd" fill-opacity="1" /><path clip-path="url(#clip610)" d="M172.084 306.219 Q168.473 306.219 166.644 309.784 Q164.839 313.325 164.839 320.455 Q164.839 327.561 166.644 331.126 Q168.473 334.668 172.084 334.668 Q175.718 334.668 177.524 331.126 Q179.352 327.561 179.352 320.455 Q179.352 313.325 177.524 309.784 Q175.718 306.219 172.084 306.219 M172.084 302.515 Q177.894 302.515 180.95 307.122 Q184.028 311.705 184.028 320.455 Q184.028 329.182 180.95 333.788 Q177.894 338.372 172.084 338.372 Q166.274 338.372 163.195 333.788 Q160.14 329.182 160.14 320.455 Q160.14 311.705 163.195 307.122 Q166.274 302.515 172.084 302.515 Z" fill="#000000" fill-rule="evenodd" fill-opacity="1" /><path clip-path="url(#clip610)" d="M206.412 319.066 Q209.769 319.784 211.644 322.052 Q213.542 324.321 213.542 327.654 Q213.542 332.77 210.024 335.571 Q206.505 338.372 200.024 338.372 Q197.848 338.372 195.533 337.932 Q193.241 337.515 190.788 336.659 L190.788 332.145 Q192.732 333.279 195.047 333.858 Q197.362 334.436 199.885 334.436 Q204.283 334.436 206.574 332.7 Q208.889 330.964 208.889 327.654 Q208.889 324.598 206.737 322.886 Q204.607 321.149 200.787 321.149 L196.76 321.149 L196.76 317.307 L200.973 317.307 Q204.422 317.307 206.25 315.941 Q208.079 314.552 208.079 311.96 Q208.079 309.298 206.181 307.886 Q204.306 306.45 200.787 306.45 Q198.866 306.45 196.667 306.867 Q194.468 307.284 191.829 308.163 L191.829 303.997 Q194.491 303.256 196.806 302.886 Q199.144 302.515 201.204 302.515 Q206.528 302.515 209.63 304.946 Q212.732 307.353 212.732 311.474 Q212.732 314.344 211.088 316.335 Q209.445 318.302 206.412 319.066 Z" fill="#000000" fill-rule="evenodd" fill-opacity="1" /><path clip-path="url(#clip610)" d="M18.2347 885.872 L28.3562 885.872 L28.3562 873.809 L32.9077 873.809 L32.9077 885.872 L52.2594 885.872 Q56.6199 885.872 57.8613 884.694 Q59.1026 883.485 59.1026 879.824 L59.1026 873.809 L64.0042 873.809 L64.0042 879.824 Q64.0042 886.604 61.4897 889.182 Q58.9434 891.76 52.2594 891.76 L32.9077 891.76 L32.9077 896.057 L28.3562 896.057 L28.3562 891.76 L18.2347 891.76 L18.2347 885.872 Z" fill="#000000" fill-rule="evenodd" fill-opacity="1" /><path clip-path="url(#clip610)" d="M28.3562 866.106 L28.3562 860.25 L64.0042 860.25 L64.0042 866.106 L28.3562 866.106 M14.479 866.106 L14.479 860.25 L21.895 860.25 L21.895 866.106 L14.479 866.106 Z" fill="#000000" fill-rule="evenodd" fill-opacity="1" /><path clip-path="url(#clip610)" d="M35.1993 820.241 Q31.2526 818.045 29.3747 814.99 Q27.4968 811.934 27.4968 807.796 Q27.4968 802.226 31.4117 799.203 Q35.2948 796.179 42.4881 796.179 L64.0042 796.179 L64.0042 802.067 L42.679 802.067 Q37.5546 802.067 35.072 803.881 Q32.5894 805.696 32.5894 809.42 Q32.5894 813.971 35.6131 816.613 Q38.6368 819.255 43.8567 819.255 L64.0042 819.255 L64.0042 825.143 L42.679 825.143 Q37.5228 825.143 35.072 826.957 Q32.5894 828.771 32.5894 832.559 Q32.5894 837.047 35.6449 839.688 Q38.6686 842.33 43.8567 842.33 L64.0042 842.33 L64.0042 848.219 L28.3562 848.219 L28.3562 842.33 L33.8944 842.33 Q30.616 840.325 29.0564 837.524 Q27.4968 834.723 27.4968 830.872 Q27.4968 826.989 29.4702 824.283 Q31.4436 821.546 35.1993 820.241 Z" fill="#000000" fill-rule="evenodd" fill-opacity="1" /><path clip-path="url(#clip610)" d="M44.7161 754.006 L47.5806 754.006 L47.5806 780.933 Q53.6281 780.551 56.8109 777.305 Q59.9619 774.026 59.9619 768.202 Q59.9619 764.828 59.1344 761.677 Q58.3069 758.494 56.6518 755.375 L62.1899 755.375 Q63.5267 758.526 64.227 761.836 Q64.9272 765.146 64.9272 768.552 Q64.9272 777.082 59.9619 782.079 Q54.9967 787.044 46.5303 787.044 Q37.7774 787.044 32.6531 782.333 Q27.4968 777.591 27.4968 769.57 Q27.4968 762.377 32.1438 758.207 Q36.7589 754.006 44.7161 754.006 M42.9973 759.863 Q38.1912 759.926 35.3266 762.568 Q32.4621 765.178 32.4621 769.507 Q32.4621 774.408 35.2312 777.368 Q38.0002 780.296 43.0292 780.742 L42.9973 759.863 Z" fill="#000000" fill-rule="evenodd" fill-opacity="1" /><path clip-path="url(#clip610)" d="M14.479 724.215 L14.479 710.719 L19.0304 710.719 L19.0304 718.358 L68.0464 718.358 L68.0464 710.719 L72.5979 710.719 L72.5979 724.215 L14.479 724.215 Z" fill="#000000" fill-rule="evenodd" fill-opacity="1" /><path clip-path="url(#clip610)" d="M29.4065 675.517 L34.9447 675.517 Q33.6716 678 33.035 680.673 Q32.3984 683.347 32.3984 686.211 Q32.3984 690.572 33.7352 692.768 Q35.072 694.932 37.7456 694.932 Q39.7826 694.932 40.9603 693.373 Q42.1061 691.813 43.1565 687.102 L43.6021 685.097 Q44.9389 678.859 47.3897 676.249 Q49.8086 673.607 54.1691 673.607 Q59.1344 673.607 62.0308 677.554 Q64.9272 681.469 64.9272 688.344 Q64.9272 691.208 64.3543 694.328 Q63.8132 697.415 62.6992 700.852 L56.6518 700.852 Q58.3387 697.606 59.198 694.455 Q60.0256 691.304 60.0256 688.216 Q60.0256 684.079 58.6251 681.851 Q57.1929 679.623 54.6147 679.623 Q52.2276 679.623 50.9545 681.246 Q49.6813 682.837 48.5037 688.28 L48.0262 690.317 Q46.8804 695.76 44.5251 698.179 Q42.138 700.598 38.0002 700.598 Q32.9713 700.598 30.2341 697.033 Q27.4968 693.468 27.4968 686.912 Q27.4968 683.665 27.9743 680.8 Q28.4517 677.936 29.4065 675.517 Z" fill="#000000" fill-rule="evenodd" fill-opacity="1" /><path clip-path="url(#clip610)" d="M14.479 650.595 L72.5979 650.595 L72.5979 664.09 L68.0464 664.09 L68.0464 656.483 L19.0304 656.483 L19.0304 664.09 L14.479 664.09 L14.479 650.595 Z" fill="#000000" fill-rule="evenodd" fill-opacity="1" /><path clip-path="url(#clip610)" d="M1178.57 49.9314 Q1178.57 41.7081 1175.17 37.0496 Q1171.8 32.3505 1165.89 32.3505 Q1159.97 32.3505 1156.57 37.0496 Q1153.21 41.7081 1153.21 49.9314 Q1153.21 58.1548 1156.57 62.8538 Q1159.97 67.5124 1165.89 67.5124 Q1171.8 67.5124 1175.17 62.8538 Q1178.57 58.1548 1178.57 49.9314 M1153.21 34.0924 Q1155.56 30.0415 1159.12 28.0971 Q1162.73 26.1121 1167.71 26.1121 Q1175.98 26.1121 1181.12 32.6746 Q1186.31 39.2371 1186.31 49.9314 Q1186.31 60.6258 1181.12 67.1883 Q1175.98 73.7508 1167.71 73.7508 Q1162.73 73.7508 1159.12 71.8063 Q1155.56 69.8214 1153.21 65.7705 L1153.21 72.576 L1145.72 72.576 L1145.72 9.54393 L1153.21 9.54393 L1153.21 34.0924 Z" fill="#000000" fill-rule="evenodd" fill-opacity="1" /><path clip-path="url(#clip610)" d="M1237.47 48.0275 L1237.47 51.6733 L1203.2 51.6733 Q1203.68 59.3701 1207.82 63.421 Q1211.99 67.4314 1219.4 67.4314 Q1223.7 67.4314 1227.71 66.3781 Q1231.76 65.3249 1235.73 63.2184 L1235.73 70.267 Q1231.72 71.9684 1227.5 72.8596 Q1223.29 73.7508 1218.96 73.7508 Q1208.1 73.7508 1201.74 67.4314 Q1195.42 61.1119 1195.42 50.3365 Q1195.42 39.1965 1201.42 32.6746 Q1207.45 26.1121 1217.66 26.1121 Q1226.81 26.1121 1232.12 32.0264 Q1237.47 37.9003 1237.47 48.0275 M1230.02 45.84 Q1229.93 39.7232 1226.57 36.0774 Q1223.25 32.4315 1217.74 32.4315 Q1211.5 32.4315 1207.74 35.9558 Q1204.01 39.4801 1203.44 45.8805 L1230.02 45.84 Z" fill="#000000" fill-rule="evenodd" fill-opacity="1" /><path clip-path="url(#clip610)" d="M1278.63 28.5427 L1278.63 35.5912 Q1275.47 33.9709 1272.06 33.1607 Q1268.66 32.3505 1265.01 32.3505 Q1259.47 32.3505 1256.67 34.0519 Q1253.92 35.7533 1253.92 39.156 Q1253.92 41.7486 1255.9 43.2475 Q1257.89 44.7058 1263.88 46.0426 L1266.43 46.6097 Q1274.37 48.3111 1277.69 51.4303 Q1281.06 54.509 1281.06 60.0587 Q1281.06 66.3781 1276.03 70.0644 Q1271.05 73.7508 1262.3 73.7508 Q1258.65 73.7508 1254.69 73.0216 Q1250.76 72.3329 1246.38 70.9151 L1246.38 63.2184 Q1250.51 65.3654 1254.52 66.4591 Q1258.53 67.5124 1262.46 67.5124 Q1267.73 67.5124 1270.56 65.73 Q1273.4 63.9071 1273.4 60.6258 Q1273.4 57.5877 1271.33 55.9673 Q1269.31 54.3469 1262.38 52.8481 L1259.79 52.2405 Q1252.86 50.7821 1249.78 47.7845 Q1246.7 44.7463 1246.7 39.4801 Q1246.7 33.0797 1251.24 29.5959 Q1255.78 26.1121 1264.12 26.1121 Q1268.26 26.1121 1271.9 26.7198 Q1275.55 27.3274 1278.63 28.5427 Z" fill="#000000" fill-rule="evenodd" fill-opacity="1" /><path clip-path="url(#clip610)" d="M1300.3 14.324 L1300.3 27.2059 L1315.65 27.2059 L1315.65 32.9987 L1300.3 32.9987 L1300.3 57.6282 Q1300.3 63.1779 1301.8 64.7578 Q1303.34 66.3376 1307.99 66.3376 L1315.65 66.3376 L1315.65 72.576 L1307.99 72.576 Q1299.37 72.576 1296.09 69.3758 Q1292.8 66.1351 1292.8 57.6282 L1292.8 32.9987 L1287.34 32.9987 L1287.34 27.2059 L1292.8 27.2059 L1292.8 14.324 L1300.3 14.324 Z" fill="#000000" fill-rule="evenodd" fill-opacity="1" /><path clip-path="url(#clip610)" d="M1376.7 17.6457 Q1367.79 17.6457 1362.52 24.2892 Q1357.29 30.9327 1357.29 42.3968 Q1357.29 53.8203 1362.52 60.4638 Q1367.79 67.1073 1376.7 67.1073 Q1385.61 67.1073 1390.8 60.4638 Q1396.02 53.8203 1396.02 42.3968 Q1396.02 30.9327 1390.8 24.2892 Q1385.61 17.6457 1376.7 17.6457 M1376.7 11.0023 Q1389.42 11.0023 1397.03 19.5497 Q1404.65 28.0566 1404.65 42.3968 Q1404.65 56.6965 1397.03 65.2439 Q1389.42 73.7508 1376.7 73.7508 Q1363.94 73.7508 1356.28 65.2439 Q1348.67 56.737 1348.67 42.3968 Q1348.67 28.0566 1356.28 19.5497 Q1363.94 11.0023 1376.7 11.0023 Z" fill="#000000" fill-rule="evenodd" fill-opacity="1" /><path clip-path="url(#clip610)" d="M1435.68 17.4837 Q1429.36 17.4837 1426.16 23.7221 Q1423 29.92 1423 42.3968 Q1423 54.833 1426.16 61.0714 Q1429.36 67.2693 1435.68 67.2693 Q1442.04 67.2693 1445.2 61.0714 Q1448.4 54.833 1448.4 42.3968 Q1448.4 29.92 1445.2 23.7221 Q1442.04 17.4837 1435.68 17.4837 M1435.68 11.0023 Q1445.85 11.0023 1451.19 19.0636 Q1456.58 27.0843 1456.58 42.3968 Q1456.58 57.6687 1451.19 65.73 Q1445.85 73.7508 1435.68 73.7508 Q1425.51 73.7508 1420.12 65.73 Q1414.78 57.6687 1414.78 42.3968 Q1414.78 27.0843 1420.12 19.0636 Q1425.51 11.0023 1435.68 11.0023 Z" fill="#000000" fill-rule="evenodd" fill-opacity="1" /><polyline clip-path="url(#clip612)" style="stroke:#000000; stroke-linecap:butt; stroke-linejoin:round; stroke-width:4; stroke-opacity:1; fill:none" points="
  309.067,1317.05 309.067,1317.05 
  "/>
<polyline clip-path="url(#clip612)" style="stroke:#000000; stroke-linecap:butt; stroke-linejoin:round; stroke-width:4; stroke-opacity:1; fill:none" points="
  413.497,1317.05 413.497,1317.05 
  "/>
<polyline clip-path="url(#clip612)" style="stroke:#000000; stroke-linecap:butt; stroke-linejoin:round; stroke-width:4; stroke-opacity:1; fill:none" points="
  517.926,1346.95 517.926,1280.51 
  "/>
<polyline clip-path="url(#clip612)" style="stroke:#000000; stroke-linecap:butt; stroke-linejoin:round; stroke-width:4; stroke-opacity:1; fill:none" points="
  622.356,1357.15 622.356,1263.66 
  "/>
<polyline clip-path="url(#clip612)" style="stroke:#000000; stroke-linecap:butt; stroke-linejoin:round; stroke-width:4; stroke-opacity:1; fill:none" points="
  726.786,1373.21 726.786,1227.67 
  "/>
<polyline clip-path="url(#clip612)" style="stroke:#000000; stroke-linecap:butt; stroke-linejoin:round; stroke-width:4; stroke-opacity:1; fill:none" points="
  831.215,1378.99 831.215,1208.61 
  "/>
<polyline clip-path="url(#clip612)" style="stroke:#000000; stroke-linecap:butt; stroke-linejoin:round; stroke-width:4; stroke-opacity:1; fill:none" points="
  935.645,1384.98 935.645,1176.04 
  "/>
<polyline clip-path="url(#clip612)" style="stroke:#000000; stroke-linecap:butt; stroke-linejoin:round; stroke-width:4; stroke-opacity:1; fill:none" points="
  1040.07,1385.53 1040.07,1128.98 
  "/>
<polyline clip-path="url(#clip612)" style="stroke:#000000; stroke-linecap:butt; stroke-linejoin:round; stroke-width:4; stroke-opacity:1; fill:none" points="
  1144.5,1375.59 1144.5,1079.12 
  "/>
<polyline clip-path="url(#clip612)" style="stroke:#000000; stroke-linecap:butt; stroke-linejoin:round; stroke-width:4; stroke-opacity:1; fill:none" points="
  1248.93,1370.39 1248.93,1064.38 
  "/>
<polyline clip-path="url(#clip612)" style="stroke:#000000; stroke-linecap:butt; stroke-linejoin:round; stroke-width:4; stroke-opacity:1; fill:none" points="
  1353.36,1311.11 1353.36,977.494 
  "/>
<polyline clip-path="url(#clip612)" style="stroke:#000000; stroke-linecap:butt; stroke-linejoin:round; stroke-width:4; stroke-opacity:1; fill:none" points="
  1457.79,1283.96 1457.79,944.844 
  "/>
<polyline clip-path="url(#clip612)" style="stroke:#000000; stroke-linecap:butt; stroke-linejoin:round; stroke-width:4; stroke-opacity:1; fill:none" points="
  1562.22,1201.76 1562.22,920.74 
  "/>
<polyline clip-path="url(#clip612)" style="stroke:#000000; stroke-linecap:butt; stroke-linejoin:round; stroke-width:4; stroke-opacity:1; fill:none" points="
  1666.65,1105.5 1666.65,910.696 
  "/>
<polyline clip-path="url(#clip612)" style="stroke:#000000; stroke-linecap:butt; stroke-linejoin:round; stroke-width:4; stroke-opacity:1; fill:none" points="
  1771.08,1104.44 1771.08,838.669 
  "/>
<polyline clip-path="url(#clip612)" style="stroke:#000000; stroke-linecap:butt; stroke-linejoin:round; stroke-width:4; stroke-opacity:1; fill:none" points="
  1875.51,960.779 1875.51,630.183 
  "/>
<polyline clip-path="url(#clip612)" style="stroke:#000000; stroke-linecap:butt; stroke-linejoin:round; stroke-width:4; stroke-opacity:1; fill:none" points="
  1979.94,910.035 1979.94,601.197 
  "/>
<polyline clip-path="url(#clip612)" style="stroke:#000000; stroke-linecap:butt; stroke-linejoin:round; stroke-width:4; stroke-opacity:1; fill:none" points="
  2084.37,722.766 2084.37,549.275 
  "/>
<polyline clip-path="url(#clip612)" style="stroke:#000000; stroke-linecap:butt; stroke-linejoin:round; stroke-width:4; stroke-opacity:1; fill:none" points="
  2188.8,620.842 2188.8,292.411 
  "/>
<polyline clip-path="url(#clip612)" style="stroke:#000000; stroke-linecap:butt; stroke-linejoin:round; stroke-width:4; stroke-opacity:1; fill:none" points="
  2293.23,581.549 2293.23,192.176 
  "/>
<line clip-path="url(#clip612)" x1="325.067" y1="1317.05" x2="293.067" y2="1317.05" style="stroke:#000000; stroke-width:3.2; stroke-opacity:1"/>
<line clip-path="url(#clip612)" x1="325.067" y1="1317.05" x2="293.067" y2="1317.05" style="stroke:#000000; stroke-width:3.2; stroke-opacity:1"/>
<line clip-path="url(#clip612)" x1="429.497" y1="1317.05" x2="397.497" y2="1317.05" style="stroke:#000000; stroke-width:3.2; stroke-opacity:1"/>
<line clip-path="url(#clip612)" x1="429.497" y1="1317.05" x2="397.497" y2="1317.05" style="stroke:#000000; stroke-width:3.2; stroke-opacity:1"/>
<line clip-path="url(#clip612)" x1="533.926" y1="1346.95" x2="501.926" y2="1346.95" style="stroke:#000000; stroke-width:3.2; stroke-opacity:1"/>
<line clip-path="url(#clip612)" x1="533.926" y1="1280.51" x2="501.926" y2="1280.51" style="stroke:#000000; stroke-width:3.2; stroke-opacity:1"/>
<line clip-path="url(#clip612)" x1="638.356" y1="1357.15" x2="606.356" y2="1357.15" style="stroke:#000000; stroke-width:3.2; stroke-opacity:1"/>
<line clip-path="url(#clip612)" x1="638.356" y1="1263.66" x2="606.356" y2="1263.66" style="stroke:#000000; stroke-width:3.2; stroke-opacity:1"/>
<line clip-path="url(#clip612)" x1="742.786" y1="1373.21" x2="710.786" y2="1373.21" style="stroke:#000000; stroke-width:3.2; stroke-opacity:1"/>
<line clip-path="url(#clip612)" x1="742.786" y1="1227.67" x2="710.786" y2="1227.67" style="stroke:#000000; stroke-width:3.2; stroke-opacity:1"/>
<line clip-path="url(#clip612)" x1="847.215" y1="1378.99" x2="815.215" y2="1378.99" style="stroke:#000000; stroke-width:3.2; stroke-opacity:1"/>
<line clip-path="url(#clip612)" x1="847.215" y1="1208.61" x2="815.215" y2="1208.61" style="stroke:#000000; stroke-width:3.2; stroke-opacity:1"/>
<line clip-path="url(#clip612)" x1="951.645" y1="1384.98" x2="919.645" y2="1384.98" style="stroke:#000000; stroke-width:3.2; stroke-opacity:1"/>
<line clip-path="url(#clip612)" x1="951.645" y1="1176.04" x2="919.645" y2="1176.04" style="stroke:#000000; stroke-width:3.2; stroke-opacity:1"/>
<line clip-path="url(#clip612)" x1="1056.07" y1="1385.53" x2="1024.07" y2="1385.53" style="stroke:#000000; stroke-width:3.2; stroke-opacity:1"/>
<line clip-path="url(#clip612)" x1="1056.07" y1="1128.98" x2="1024.07" y2="1128.98" style="stroke:#000000; stroke-width:3.2; stroke-opacity:1"/>
<line clip-path="url(#clip612)" x1="1160.5" y1="1375.59" x2="1128.5" y2="1375.59" style="stroke:#000000; stroke-width:3.2; stroke-opacity:1"/>
<line clip-path="url(#clip612)" x1="1160.5" y1="1079.12" x2="1128.5" y2="1079.12" style="stroke:#000000; stroke-width:3.2; stroke-opacity:1"/>
<line clip-path="url(#clip612)" x1="1264.93" y1="1370.39" x2="1232.93" y2="1370.39" style="stroke:#000000; stroke-width:3.2; stroke-opacity:1"/>
<line clip-path="url(#clip612)" x1="1264.93" y1="1064.38" x2="1232.93" y2="1064.38" style="stroke:#000000; stroke-width:3.2; stroke-opacity:1"/>
<line clip-path="url(#clip612)" x1="1369.36" y1="1311.11" x2="1337.36" y2="1311.11" style="stroke:#000000; stroke-width:3.2; stroke-opacity:1"/>
<line clip-path="url(#clip612)" x1="1369.36" y1="977.494" x2="1337.36" y2="977.494" style="stroke:#000000; stroke-width:3.2; stroke-opacity:1"/>
<line clip-path="url(#clip612)" x1="1473.79" y1="1283.96" x2="1441.79" y2="1283.96" style="stroke:#000000; stroke-width:3.2; stroke-opacity:1"/>
<line clip-path="url(#clip612)" x1="1473.79" y1="944.844" x2="1441.79" y2="944.844" style="stroke:#000000; stroke-width:3.2; stroke-opacity:1"/>
<line clip-path="url(#clip612)" x1="1578.22" y1="1201.76" x2="1546.22" y2="1201.76" style="stroke:#000000; stroke-width:3.2; stroke-opacity:1"/>
<line clip-path="url(#clip612)" x1="1578.22" y1="920.74" x2="1546.22" y2="920.74" style="stroke:#000000; stroke-width:3.2; stroke-opacity:1"/>
<line clip-path="url(#clip612)" x1="1682.65" y1="1105.5" x2="1650.65" y2="1105.5" style="stroke:#000000; stroke-width:3.2; stroke-opacity:1"/>
<line clip-path="url(#clip612)" x1="1682.65" y1="910.696" x2="1650.65" y2="910.696" style="stroke:#000000; stroke-width:3.2; stroke-opacity:1"/>
<line clip-path="url(#clip612)" x1="1787.08" y1="1104.44" x2="1755.08" y2="1104.44" style="stroke:#000000; stroke-width:3.2; stroke-opacity:1"/>
<line clip-path="url(#clip612)" x1="1787.08" y1="838.669" x2="1755.08" y2="838.669" style="stroke:#000000; stroke-width:3.2; stroke-opacity:1"/>
<line clip-path="url(#clip612)" x1="1891.51" y1="960.779" x2="1859.51" y2="960.779" style="stroke:#000000; stroke-width:3.2; stroke-opacity:1"/>
<line clip-path="url(#clip612)" x1="1891.51" y1="630.183" x2="1859.51" y2="630.183" style="stroke:#000000; stroke-width:3.2; stroke-opacity:1"/>
<line clip-path="url(#clip612)" x1="1995.94" y1="910.035" x2="1963.94" y2="910.035" style="stroke:#000000; stroke-width:3.2; stroke-opacity:1"/>
<line clip-path="url(#clip612)" x1="1995.94" y1="601.197" x2="1963.94" y2="601.197" style="stroke:#000000; stroke-width:3.2; stroke-opacity:1"/>
<line clip-path="url(#clip612)" x1="2100.37" y1="722.766" x2="2068.37" y2="722.766" style="stroke:#000000; stroke-width:3.2; stroke-opacity:1"/>
<line clip-path="url(#clip612)" x1="2100.37" y1="549.275" x2="2068.37" y2="549.275" style="stroke:#000000; stroke-width:3.2; stroke-opacity:1"/>
<line clip-path="url(#clip612)" x1="2204.8" y1="620.842" x2="2172.8" y2="620.842" style="stroke:#000000; stroke-width:3.2; stroke-opacity:1"/>
<line clip-path="url(#clip612)" x1="2204.8" y1="292.411" x2="2172.8" y2="292.411" style="stroke:#000000; stroke-width:3.2; stroke-opacity:1"/>
<line clip-path="url(#clip612)" x1="2309.23" y1="581.549" x2="2277.23" y2="581.549" style="stroke:#000000; stroke-width:3.2; stroke-opacity:1"/>
<line clip-path="url(#clip612)" x1="2309.23" y1="192.176" x2="2277.23" y2="192.176" style="stroke:#000000; stroke-width:3.2; stroke-opacity:1"/>
<circle clip-path="url(#clip612)" cx="309.067" cy="1317.05" r="14" fill="#009af9" fill-rule="evenodd" fill-opacity="1" stroke="#000000" stroke-opacity="1" stroke-width="3.2"/>
<circle clip-path="url(#clip612)" cx="413.497" cy="1317.05" r="14" fill="#009af9" fill-rule="evenodd" fill-opacity="1" stroke="#000000" stroke-opacity="1" stroke-width="3.2"/>
<circle clip-path="url(#clip612)" cx="517.926" cy="1313.73" r="14" fill="#009af9" fill-rule="evenodd" fill-opacity="1" stroke="#000000" stroke-opacity="1" stroke-width="3.2"/>
<circle clip-path="url(#clip612)" cx="622.356" cy="1310.41" r="14" fill="#009af9" fill-rule="evenodd" fill-opacity="1" stroke="#000000" stroke-opacity="1" stroke-width="3.2"/>
<circle clip-path="url(#clip612)" cx="726.786" cy="1300.44" r="14" fill="#009af9" fill-rule="evenodd" fill-opacity="1" stroke="#000000" stroke-opacity="1" stroke-width="3.2"/>
<circle clip-path="url(#clip612)" cx="831.215" cy="1293.8" r="14" fill="#009af9" fill-rule="evenodd" fill-opacity="1" stroke="#000000" stroke-opacity="1" stroke-width="3.2"/>
<circle clip-path="url(#clip612)" cx="935.645" cy="1280.51" r="14" fill="#009af9" fill-rule="evenodd" fill-opacity="1" stroke="#000000" stroke-opacity="1" stroke-width="3.2"/>
<circle clip-path="url(#clip612)" cx="1040.07" cy="1257.25" r="14" fill="#009af9" fill-rule="evenodd" fill-opacity="1" stroke="#000000" stroke-opacity="1" stroke-width="3.2"/>
<circle clip-path="url(#clip612)" cx="1144.5" cy="1227.35" r="14" fill="#009af9" fill-rule="evenodd" fill-opacity="1" stroke="#000000" stroke-opacity="1" stroke-width="3.2"/>
<circle clip-path="url(#clip612)" cx="1248.93" cy="1217.39" r="14" fill="#009af9" fill-rule="evenodd" fill-opacity="1" stroke="#000000" stroke-opacity="1" stroke-width="3.2"/>
<circle clip-path="url(#clip612)" cx="1353.36" cy="1144.3" r="14" fill="#009af9" fill-rule="evenodd" fill-opacity="1" stroke="#000000" stroke-opacity="1" stroke-width="3.2"/>
<circle clip-path="url(#clip612)" cx="1457.79" cy="1114.4" r="14" fill="#009af9" fill-rule="evenodd" fill-opacity="1" stroke="#000000" stroke-opacity="1" stroke-width="3.2"/>
<circle clip-path="url(#clip612)" cx="1562.22" cy="1061.25" r="14" fill="#009af9" fill-rule="evenodd" fill-opacity="1" stroke="#000000" stroke-opacity="1" stroke-width="3.2"/>
<circle clip-path="url(#clip612)" cx="1666.65" cy="1008.1" r="14" fill="#009af9" fill-rule="evenodd" fill-opacity="1" stroke="#000000" stroke-opacity="1" stroke-width="3.2"/>
<circle clip-path="url(#clip612)" cx="1771.08" cy="971.553" r="14" fill="#009af9" fill-rule="evenodd" fill-opacity="1" stroke="#000000" stroke-opacity="1" stroke-width="3.2"/>
<circle clip-path="url(#clip612)" cx="1875.51" cy="795.481" r="14" fill="#009af9" fill-rule="evenodd" fill-opacity="1" stroke="#000000" stroke-opacity="1" stroke-width="3.2"/>
<circle clip-path="url(#clip612)" cx="1979.94" cy="755.616" r="14" fill="#009af9" fill-rule="evenodd" fill-opacity="1" stroke="#000000" stroke-opacity="1" stroke-width="3.2"/>
<circle clip-path="url(#clip612)" cx="2084.37" cy="636.02" r="14" fill="#009af9" fill-rule="evenodd" fill-opacity="1" stroke="#000000" stroke-opacity="1" stroke-width="3.2"/>
<circle clip-path="url(#clip612)" cx="2188.8" cy="456.627" r="14" fill="#009af9" fill-rule="evenodd" fill-opacity="1" stroke="#000000" stroke-opacity="1" stroke-width="3.2"/>
<circle clip-path="url(#clip612)" cx="2293.23" cy="386.862" r="14" fill="#009af9" fill-rule="evenodd" fill-opacity="1" stroke="#000000" stroke-opacity="1" stroke-width="3.2"/>
<polyline clip-path="url(#clip612)" style="stroke:#000000; stroke-linecap:butt; stroke-linejoin:round; stroke-width:4; stroke-opacity:1; fill:none" points="
  309.067,1317.05 309.067,1317.05 
  "/>
<polyline clip-path="url(#clip612)" style="stroke:#000000; stroke-linecap:butt; stroke-linejoin:round; stroke-width:4; stroke-opacity:1; fill:none" points="
  413.497,1346.95 413.497,1280.51 
  "/>
<polyline clip-path="url(#clip612)" style="stroke:#000000; stroke-linecap:butt; stroke-linejoin:round; stroke-width:4; stroke-opacity:1; fill:none" points="
  517.926,1357.15 517.926,1263.66 
  "/>
<polyline clip-path="url(#clip612)" style="stroke:#000000; stroke-linecap:butt; stroke-linejoin:round; stroke-width:4; stroke-opacity:1; fill:none" points="
  622.356,1357.15 622.356,1263.66 
  "/>
<polyline clip-path="url(#clip612)" style="stroke:#000000; stroke-linecap:butt; stroke-linejoin:round; stroke-width:4; stroke-opacity:1; fill:none" points="
  726.786,1369.19 726.786,1238.34 
  "/>
<polyline clip-path="url(#clip612)" style="stroke:#000000; stroke-linecap:butt; stroke-linejoin:round; stroke-width:4; stroke-opacity:1; fill:none" points="
  831.215,1382.7 831.215,1191.6 
  "/>
<polyline clip-path="url(#clip612)" style="stroke:#000000; stroke-linecap:butt; stroke-linejoin:round; stroke-width:4; stroke-opacity:1; fill:none" points="
  935.645,1386.4 935.645,1154.69 
  "/>
<polyline clip-path="url(#clip612)" style="stroke:#000000; stroke-linecap:butt; stroke-linejoin:round; stroke-width:4; stroke-opacity:1; fill:none" points="
  1040.07,1384.16 1040.07,1117.06 
  "/>
<polyline clip-path="url(#clip612)" style="stroke:#000000; stroke-linecap:butt; stroke-linejoin:round; stroke-width:4; stroke-opacity:1; fill:none" points="
  1144.5,1377.13 1144.5,1084.22 
  "/>
<polyline clip-path="url(#clip612)" style="stroke:#000000; stroke-linecap:butt; stroke-linejoin:round; stroke-width:4; stroke-opacity:1; fill:none" points="
  1248.93,1345.06 1248.93,1016.63 
  "/>
<polyline clip-path="url(#clip612)" style="stroke:#000000; stroke-linecap:butt; stroke-linejoin:round; stroke-width:4; stroke-opacity:1; fill:none" points="
  1353.36,1342.31 1353.36,1012.73 
  "/>
<polyline clip-path="url(#clip612)" style="stroke:#000000; stroke-linecap:butt; stroke-linejoin:round; stroke-width:4; stroke-opacity:1; fill:none" points="
  1457.79,1287.97 1457.79,947.477 
  "/>
<polyline clip-path="url(#clip612)" style="stroke:#000000; stroke-linecap:butt; stroke-linejoin:round; stroke-width:4; stroke-opacity:1; fill:none" points="
  1562.22,1187.2 1562.22,908.727 
  "/>
<polyline clip-path="url(#clip612)" style="stroke:#000000; stroke-linecap:butt; stroke-linejoin:round; stroke-width:4; stroke-opacity:1; fill:none" points="
  1666.65,1057.2 1666.65,872.621 
  "/>
<polyline clip-path="url(#clip612)" style="stroke:#000000; stroke-linecap:butt; stroke-linejoin:round; stroke-width:4; stroke-opacity:1; fill:none" points="
  1771.08,1044.92 1771.08,752.013 
  "/>
<polyline clip-path="url(#clip612)" style="stroke:#000000; stroke-linecap:butt; stroke-linejoin:round; stroke-width:4; stroke-opacity:1; fill:none" points="
  1875.51,1032.21 1875.51,718.215 
  "/>
<polyline clip-path="url(#clip612)" style="stroke:#000000; stroke-linecap:butt; stroke-linejoin:round; stroke-width:4; stroke-opacity:1; fill:none" points="
  1979.94,846.734 1979.94,584.768 
  "/>
<polyline clip-path="url(#clip612)" style="stroke:#000000; stroke-linecap:butt; stroke-linejoin:round; stroke-width:4; stroke-opacity:1; fill:none" points="
  2084.37,721.107 2084.37,464.559 
  "/>
<polyline clip-path="url(#clip612)" style="stroke:#000000; stroke-linecap:butt; stroke-linejoin:round; stroke-width:4; stroke-opacity:1; fill:none" points="
  2188.8,627.496 2188.8,285.757 
  "/>
<polyline clip-path="url(#clip612)" style="stroke:#000000; stroke-linecap:butt; stroke-linejoin:round; stroke-width:4; stroke-opacity:1; fill:none" points="
  2293.23,440.719 2293.23,160.256 
  "/>
<line clip-path="url(#clip612)" x1="325.067" y1="1317.05" x2="293.067" y2="1317.05" style="stroke:#000000; stroke-width:3.2; stroke-opacity:1"/>
<line clip-path="url(#clip612)" x1="325.067" y1="1317.05" x2="293.067" y2="1317.05" style="stroke:#000000; stroke-width:3.2; stroke-opacity:1"/>
<line clip-path="url(#clip612)" x1="429.497" y1="1346.95" x2="397.497" y2="1346.95" style="stroke:#000000; stroke-width:3.2; stroke-opacity:1"/>
<line clip-path="url(#clip612)" x1="429.497" y1="1280.51" x2="397.497" y2="1280.51" style="stroke:#000000; stroke-width:3.2; stroke-opacity:1"/>
<line clip-path="url(#clip612)" x1="533.926" y1="1357.15" x2="501.926" y2="1357.15" style="stroke:#000000; stroke-width:3.2; stroke-opacity:1"/>
<line clip-path="url(#clip612)" x1="533.926" y1="1263.66" x2="501.926" y2="1263.66" style="stroke:#000000; stroke-width:3.2; stroke-opacity:1"/>
<line clip-path="url(#clip612)" x1="638.356" y1="1357.15" x2="606.356" y2="1357.15" style="stroke:#000000; stroke-width:3.2; stroke-opacity:1"/>
<line clip-path="url(#clip612)" x1="638.356" y1="1263.66" x2="606.356" y2="1263.66" style="stroke:#000000; stroke-width:3.2; stroke-opacity:1"/>
<line clip-path="url(#clip612)" x1="742.786" y1="1369.19" x2="710.786" y2="1369.19" style="stroke:#000000; stroke-width:3.2; stroke-opacity:1"/>
<line clip-path="url(#clip612)" x1="742.786" y1="1238.34" x2="710.786" y2="1238.34" style="stroke:#000000; stroke-width:3.2; stroke-opacity:1"/>
<line clip-path="url(#clip612)" x1="847.215" y1="1382.7" x2="815.215" y2="1382.7" style="stroke:#000000; stroke-width:3.2; stroke-opacity:1"/>
<line clip-path="url(#clip612)" x1="847.215" y1="1191.6" x2="815.215" y2="1191.6" style="stroke:#000000; stroke-width:3.2; stroke-opacity:1"/>
<line clip-path="url(#clip612)" x1="951.645" y1="1386.4" x2="919.645" y2="1386.4" style="stroke:#000000; stroke-width:3.2; stroke-opacity:1"/>
<line clip-path="url(#clip612)" x1="951.645" y1="1154.69" x2="919.645" y2="1154.69" style="stroke:#000000; stroke-width:3.2; stroke-opacity:1"/>
<line clip-path="url(#clip612)" x1="1056.07" y1="1384.16" x2="1024.07" y2="1384.16" style="stroke:#000000; stroke-width:3.2; stroke-opacity:1"/>
<line clip-path="url(#clip612)" x1="1056.07" y1="1117.06" x2="1024.07" y2="1117.06" style="stroke:#000000; stroke-width:3.2; stroke-opacity:1"/>
<line clip-path="url(#clip612)" x1="1160.5" y1="1377.13" x2="1128.5" y2="1377.13" style="stroke:#000000; stroke-width:3.2; stroke-opacity:1"/>
<line clip-path="url(#clip612)" x1="1160.5" y1="1084.22" x2="1128.5" y2="1084.22" style="stroke:#000000; stroke-width:3.2; stroke-opacity:1"/>
<line clip-path="url(#clip612)" x1="1264.93" y1="1345.06" x2="1232.93" y2="1345.06" style="stroke:#000000; stroke-width:3.2; stroke-opacity:1"/>
<line clip-path="url(#clip612)" x1="1264.93" y1="1016.63" x2="1232.93" y2="1016.63" style="stroke:#000000; stroke-width:3.2; stroke-opacity:1"/>
<line clip-path="url(#clip612)" x1="1369.36" y1="1342.31" x2="1337.36" y2="1342.31" style="stroke:#000000; stroke-width:3.2; stroke-opacity:1"/>
<line clip-path="url(#clip612)" x1="1369.36" y1="1012.73" x2="1337.36" y2="1012.73" style="stroke:#000000; stroke-width:3.2; stroke-opacity:1"/>
<line clip-path="url(#clip612)" x1="1473.79" y1="1287.97" x2="1441.79" y2="1287.97" style="stroke:#000000; stroke-width:3.2; stroke-opacity:1"/>
<line clip-path="url(#clip612)" x1="1473.79" y1="947.477" x2="1441.79" y2="947.477" style="stroke:#000000; stroke-width:3.2; stroke-opacity:1"/>
<line clip-path="url(#clip612)" x1="1578.22" y1="1187.2" x2="1546.22" y2="1187.2" style="stroke:#000000; stroke-width:3.2; stroke-opacity:1"/>
<line clip-path="url(#clip612)" x1="1578.22" y1="908.727" x2="1546.22" y2="908.727" style="stroke:#000000; stroke-width:3.2; stroke-opacity:1"/>
<line clip-path="url(#clip612)" x1="1682.65" y1="1057.2" x2="1650.65" y2="1057.2" style="stroke:#000000; stroke-width:3.2; stroke-opacity:1"/>
<line clip-path="url(#clip612)" x1="1682.65" y1="872.621" x2="1650.65" y2="872.621" style="stroke:#000000; stroke-width:3.2; stroke-opacity:1"/>
<line clip-path="url(#clip612)" x1="1787.08" y1="1044.92" x2="1755.08" y2="1044.92" style="stroke:#000000; stroke-width:3.2; stroke-opacity:1"/>
<line clip-path="url(#clip612)" x1="1787.08" y1="752.013" x2="1755.08" y2="752.013" style="stroke:#000000; stroke-width:3.2; stroke-opacity:1"/>
<line clip-path="url(#clip612)" x1="1891.51" y1="1032.21" x2="1859.51" y2="1032.21" style="stroke:#000000; stroke-width:3.2; stroke-opacity:1"/>
<line clip-path="url(#clip612)" x1="1891.51" y1="718.215" x2="1859.51" y2="718.215" style="stroke:#000000; stroke-width:3.2; stroke-opacity:1"/>
<line clip-path="url(#clip612)" x1="1995.94" y1="846.734" x2="1963.94" y2="846.734" style="stroke:#000000; stroke-width:3.2; stroke-opacity:1"/>
<line clip-path="url(#clip612)" x1="1995.94" y1="584.768" x2="1963.94" y2="584.768" style="stroke:#000000; stroke-width:3.2; stroke-opacity:1"/>
<line clip-path="url(#clip612)" x1="2100.37" y1="721.107" x2="2068.37" y2="721.107" style="stroke:#000000; stroke-width:3.2; stroke-opacity:1"/>
<line clip-path="url(#clip612)" x1="2100.37" y1="464.559" x2="2068.37" y2="464.559" style="stroke:#000000; stroke-width:3.2; stroke-opacity:1"/>
<line clip-path="url(#clip612)" x1="2204.8" y1="627.496" x2="2172.8" y2="627.496" style="stroke:#000000; stroke-width:3.2; stroke-opacity:1"/>
<line clip-path="url(#clip612)" x1="2204.8" y1="285.757" x2="2172.8" y2="285.757" style="stroke:#000000; stroke-width:3.2; stroke-opacity:1"/>
<line clip-path="url(#clip612)" x1="2309.23" y1="440.719" x2="2277.23" y2="440.719" style="stroke:#000000; stroke-width:3.2; stroke-opacity:1"/>
<line clip-path="url(#clip612)" x1="2309.23" y1="160.256" x2="2277.23" y2="160.256" style="stroke:#000000; stroke-width:3.2; stroke-opacity:1"/>
<circle clip-path="url(#clip612)" cx="309.067" cy="1317.05" r="14" fill="#e26f46" fill-rule="evenodd" fill-opacity="1" stroke="#000000" stroke-opacity="1" stroke-width="3.2"/>
<circle clip-path="url(#clip612)" cx="413.497" cy="1313.73" r="14" fill="#e26f46" fill-rule="evenodd" fill-opacity="1" stroke="#000000" stroke-opacity="1" stroke-width="3.2"/>
<circle clip-path="url(#clip612)" cx="517.926" cy="1310.41" r="14" fill="#e26f46" fill-rule="evenodd" fill-opacity="1" stroke="#000000" stroke-opacity="1" stroke-width="3.2"/>
<circle clip-path="url(#clip612)" cx="622.356" cy="1310.41" r="14" fill="#e26f46" fill-rule="evenodd" fill-opacity="1" stroke="#000000" stroke-opacity="1" stroke-width="3.2"/>
<circle clip-path="url(#clip612)" cx="726.786" cy="1303.76" r="14" fill="#e26f46" fill-rule="evenodd" fill-opacity="1" stroke="#000000" stroke-opacity="1" stroke-width="3.2"/>
<circle clip-path="url(#clip612)" cx="831.215" cy="1287.15" r="14" fill="#e26f46" fill-rule="evenodd" fill-opacity="1" stroke="#000000" stroke-opacity="1" stroke-width="3.2"/>
<circle clip-path="url(#clip612)" cx="935.645" cy="1270.54" r="14" fill="#e26f46" fill-rule="evenodd" fill-opacity="1" stroke="#000000" stroke-opacity="1" stroke-width="3.2"/>
<circle clip-path="url(#clip612)" cx="1040.07" cy="1250.61" r="14" fill="#e26f46" fill-rule="evenodd" fill-opacity="1" stroke="#000000" stroke-opacity="1" stroke-width="3.2"/>
<circle clip-path="url(#clip612)" cx="1144.5" cy="1230.68" r="14" fill="#e26f46" fill-rule="evenodd" fill-opacity="1" stroke="#000000" stroke-opacity="1" stroke-width="3.2"/>
<circle clip-path="url(#clip612)" cx="1248.93" cy="1180.85" r="14" fill="#e26f46" fill-rule="evenodd" fill-opacity="1" stroke="#000000" stroke-opacity="1" stroke-width="3.2"/>
<circle clip-path="url(#clip612)" cx="1353.36" cy="1177.52" r="14" fill="#e26f46" fill-rule="evenodd" fill-opacity="1" stroke="#000000" stroke-opacity="1" stroke-width="3.2"/>
<circle clip-path="url(#clip612)" cx="1457.79" cy="1117.73" r="14" fill="#e26f46" fill-rule="evenodd" fill-opacity="1" stroke="#000000" stroke-opacity="1" stroke-width="3.2"/>
<circle clip-path="url(#clip612)" cx="1562.22" cy="1047.96" r="14" fill="#e26f46" fill-rule="evenodd" fill-opacity="1" stroke="#000000" stroke-opacity="1" stroke-width="3.2"/>
<circle clip-path="url(#clip612)" cx="1666.65" cy="964.909" r="14" fill="#e26f46" fill-rule="evenodd" fill-opacity="1" stroke="#000000" stroke-opacity="1" stroke-width="3.2"/>
<circle clip-path="url(#clip612)" cx="1771.08" cy="898.466" r="14" fill="#e26f46" fill-rule="evenodd" fill-opacity="1" stroke="#000000" stroke-opacity="1" stroke-width="3.2"/>
<circle clip-path="url(#clip612)" cx="1875.51" cy="875.212" r="14" fill="#e26f46" fill-rule="evenodd" fill-opacity="1" stroke="#000000" stroke-opacity="1" stroke-width="3.2"/>
<circle clip-path="url(#clip612)" cx="1979.94" cy="715.751" r="14" fill="#e26f46" fill-rule="evenodd" fill-opacity="1" stroke="#000000" stroke-opacity="1" stroke-width="3.2"/>
<circle clip-path="url(#clip612)" cx="2084.37" cy="592.833" r="14" fill="#e26f46" fill-rule="evenodd" fill-opacity="1" stroke="#000000" stroke-opacity="1" stroke-width="3.2"/>
<circle clip-path="url(#clip612)" cx="2188.8" cy="456.627" r="14" fill="#e26f46" fill-rule="evenodd" fill-opacity="1" stroke="#000000" stroke-opacity="1" stroke-width="3.2"/>
<circle clip-path="url(#clip612)" cx="2293.23" cy="300.488" r="14" fill="#e26f46" fill-rule="evenodd" fill-opacity="1" stroke="#000000" stroke-opacity="1" stroke-width="3.2"/>
<polyline clip-path="url(#clip612)" style="stroke:#000000; stroke-linecap:butt; stroke-linejoin:round; stroke-width:4; stroke-opacity:1; fill:none" points="
  309.067,1317.05 309.067,1317.05 
  "/>
<polyline clip-path="url(#clip612)" style="stroke:#000000; stroke-linecap:butt; stroke-linejoin:round; stroke-width:4; stroke-opacity:1; fill:none" points="
  413.497,1317.05 413.497,1317.05 
  "/>
<polyline clip-path="url(#clip612)" style="stroke:#000000; stroke-linecap:butt; stroke-linejoin:round; stroke-width:4; stroke-opacity:1; fill:none" points="
  517.926,1317.05 517.926,1317.05 
  "/>
<polyline clip-path="url(#clip612)" style="stroke:#000000; stroke-linecap:butt; stroke-linejoin:round; stroke-width:4; stroke-opacity:1; fill:none" points="
  622.356,1346.95 622.356,1280.51 
  "/>
<polyline clip-path="url(#clip612)" style="stroke:#000000; stroke-linecap:butt; stroke-linejoin:round; stroke-width:4; stroke-opacity:1; fill:none" points="
  726.786,1346.95 726.786,1280.51 
  "/>
<polyline clip-path="url(#clip612)" style="stroke:#000000; stroke-linecap:butt; stroke-linejoin:round; stroke-width:4; stroke-opacity:1; fill:none" points="
  831.215,1346.95 831.215,1280.51 
  "/>
<polyline clip-path="url(#clip612)" style="stroke:#000000; stroke-linecap:butt; stroke-linejoin:round; stroke-width:4; stroke-opacity:1; fill:none" points="
  935.645,1346.95 935.645,1280.51 
  "/>
<polyline clip-path="url(#clip612)" style="stroke:#000000; stroke-linecap:butt; stroke-linejoin:round; stroke-width:4; stroke-opacity:1; fill:none" points="
  1040.07,1317.05 1040.07,1317.05 
  "/>
<polyline clip-path="url(#clip612)" style="stroke:#000000; stroke-linecap:butt; stroke-linejoin:round; stroke-width:4; stroke-opacity:1; fill:none" points="
  1144.5,1346.95 1144.5,1280.51 
  "/>
<polyline clip-path="url(#clip612)" style="stroke:#000000; stroke-linecap:butt; stroke-linejoin:round; stroke-width:4; stroke-opacity:1; fill:none" points="
  1248.93,1364.04 1248.93,1250.13 
  "/>
<polyline clip-path="url(#clip612)" style="stroke:#000000; stroke-linecap:butt; stroke-linejoin:round; stroke-width:4; stroke-opacity:1; fill:none" points="
  1353.36,1369.19 1353.36,1238.34 
  "/>
<polyline clip-path="url(#clip612)" style="stroke:#000000; stroke-linecap:butt; stroke-linejoin:round; stroke-width:4; stroke-opacity:1; fill:none" points="
  1457.79,1382.7 1457.79,1191.6 
  "/>
<polyline clip-path="url(#clip612)" style="stroke:#000000; stroke-linecap:butt; stroke-linejoin:round; stroke-width:4; stroke-opacity:1; fill:none" points="
  1562.22,1381.06 1562.22,1199.89 
  "/>
<polyline clip-path="url(#clip612)" style="stroke:#000000; stroke-linecap:butt; stroke-linejoin:round; stroke-width:4; stroke-opacity:1; fill:none" points="
  1666.65,1369.19 1666.65,1238.34 
  "/>
<polyline clip-path="url(#clip612)" style="stroke:#000000; stroke-linecap:butt; stroke-linejoin:round; stroke-width:4; stroke-opacity:1; fill:none" points="
  1771.08,1384.16 1771.08,1117.06 
  "/>
<polyline clip-path="url(#clip612)" style="stroke:#000000; stroke-linecap:butt; stroke-linejoin:round; stroke-width:4; stroke-opacity:1; fill:none" points="
  1875.51,1386.3 1875.51,1141.49 
  "/>
<polyline clip-path="url(#clip612)" style="stroke:#000000; stroke-linecap:butt; stroke-linejoin:round; stroke-width:4; stroke-opacity:1; fill:none" points="
  1979.94,1385.99 1979.94,1135.16 
  "/>
<polyline clip-path="url(#clip612)" style="stroke:#000000; stroke-linecap:butt; stroke-linejoin:round; stroke-width:4; stroke-opacity:1; fill:none" points="
  2084.37,1384.91 2084.37,1122.95 
  "/>
<polyline clip-path="url(#clip612)" style="stroke:#000000; stroke-linecap:butt; stroke-linejoin:round; stroke-width:4; stroke-opacity:1; fill:none" points="
  2188.8,1383.28 2188.8,1111.29 
  "/>
<polyline clip-path="url(#clip612)" style="stroke:#000000; stroke-linecap:butt; stroke-linejoin:round; stroke-width:4; stroke-opacity:1; fill:none" points="
  2293.23,1350.34 2293.23,1024.64 
  "/>
<line clip-path="url(#clip612)" x1="325.067" y1="1317.05" x2="293.067" y2="1317.05" style="stroke:#000000; stroke-width:3.2; stroke-opacity:1"/>
<line clip-path="url(#clip612)" x1="325.067" y1="1317.05" x2="293.067" y2="1317.05" style="stroke:#000000; stroke-width:3.2; stroke-opacity:1"/>
<line clip-path="url(#clip612)" x1="429.497" y1="1317.05" x2="397.497" y2="1317.05" style="stroke:#000000; stroke-width:3.2; stroke-opacity:1"/>
<line clip-path="url(#clip612)" x1="429.497" y1="1317.05" x2="397.497" y2="1317.05" style="stroke:#000000; stroke-width:3.2; stroke-opacity:1"/>
<line clip-path="url(#clip612)" x1="533.926" y1="1317.05" x2="501.926" y2="1317.05" style="stroke:#000000; stroke-width:3.2; stroke-opacity:1"/>
<line clip-path="url(#clip612)" x1="533.926" y1="1317.05" x2="501.926" y2="1317.05" style="stroke:#000000; stroke-width:3.2; stroke-opacity:1"/>
<line clip-path="url(#clip612)" x1="638.356" y1="1346.95" x2="606.356" y2="1346.95" style="stroke:#000000; stroke-width:3.2; stroke-opacity:1"/>
<line clip-path="url(#clip612)" x1="638.356" y1="1280.51" x2="606.356" y2="1280.51" style="stroke:#000000; stroke-width:3.2; stroke-opacity:1"/>
<line clip-path="url(#clip612)" x1="742.786" y1="1346.95" x2="710.786" y2="1346.95" style="stroke:#000000; stroke-width:3.2; stroke-opacity:1"/>
<line clip-path="url(#clip612)" x1="742.786" y1="1280.51" x2="710.786" y2="1280.51" style="stroke:#000000; stroke-width:3.2; stroke-opacity:1"/>
<line clip-path="url(#clip612)" x1="847.215" y1="1346.95" x2="815.215" y2="1346.95" style="stroke:#000000; stroke-width:3.2; stroke-opacity:1"/>
<line clip-path="url(#clip612)" x1="847.215" y1="1280.51" x2="815.215" y2="1280.51" style="stroke:#000000; stroke-width:3.2; stroke-opacity:1"/>
<line clip-path="url(#clip612)" x1="951.645" y1="1346.95" x2="919.645" y2="1346.95" style="stroke:#000000; stroke-width:3.2; stroke-opacity:1"/>
<line clip-path="url(#clip612)" x1="951.645" y1="1280.51" x2="919.645" y2="1280.51" style="stroke:#000000; stroke-width:3.2; stroke-opacity:1"/>
<line clip-path="url(#clip612)" x1="1056.07" y1="1317.05" x2="1024.07" y2="1317.05" style="stroke:#000000; stroke-width:3.2; stroke-opacity:1"/>
<line clip-path="url(#clip612)" x1="1056.07" y1="1317.05" x2="1024.07" y2="1317.05" style="stroke:#000000; stroke-width:3.2; stroke-opacity:1"/>
<line clip-path="url(#clip612)" x1="1160.5" y1="1346.95" x2="1128.5" y2="1346.95" style="stroke:#000000; stroke-width:3.2; stroke-opacity:1"/>
<line clip-path="url(#clip612)" x1="1160.5" y1="1280.51" x2="1128.5" y2="1280.51" style="stroke:#000000; stroke-width:3.2; stroke-opacity:1"/>
<line clip-path="url(#clip612)" x1="1264.93" y1="1364.04" x2="1232.93" y2="1364.04" style="stroke:#000000; stroke-width:3.2; stroke-opacity:1"/>
<line clip-path="url(#clip612)" x1="1264.93" y1="1250.13" x2="1232.93" y2="1250.13" style="stroke:#000000; stroke-width:3.2; stroke-opacity:1"/>
<line clip-path="url(#clip612)" x1="1369.36" y1="1369.19" x2="1337.36" y2="1369.19" style="stroke:#000000; stroke-width:3.2; stroke-opacity:1"/>
<line clip-path="url(#clip612)" x1="1369.36" y1="1238.34" x2="1337.36" y2="1238.34" style="stroke:#000000; stroke-width:3.2; stroke-opacity:1"/>
<line clip-path="url(#clip612)" x1="1473.79" y1="1382.7" x2="1441.79" y2="1382.7" style="stroke:#000000; stroke-width:3.2; stroke-opacity:1"/>
<line clip-path="url(#clip612)" x1="1473.79" y1="1191.6" x2="1441.79" y2="1191.6" style="stroke:#000000; stroke-width:3.2; stroke-opacity:1"/>
<line clip-path="url(#clip612)" x1="1578.22" y1="1381.06" x2="1546.22" y2="1381.06" style="stroke:#000000; stroke-width:3.2; stroke-opacity:1"/>
<line clip-path="url(#clip612)" x1="1578.22" y1="1199.89" x2="1546.22" y2="1199.89" style="stroke:#000000; stroke-width:3.2; stroke-opacity:1"/>
<line clip-path="url(#clip612)" x1="1682.65" y1="1369.19" x2="1650.65" y2="1369.19" style="stroke:#000000; stroke-width:3.2; stroke-opacity:1"/>
<line clip-path="url(#clip612)" x1="1682.65" y1="1238.34" x2="1650.65" y2="1238.34" style="stroke:#000000; stroke-width:3.2; stroke-opacity:1"/>
<line clip-path="url(#clip612)" x1="1787.08" y1="1384.16" x2="1755.08" y2="1384.16" style="stroke:#000000; stroke-width:3.2; stroke-opacity:1"/>
<line clip-path="url(#clip612)" x1="1787.08" y1="1117.06" x2="1755.08" y2="1117.06" style="stroke:#000000; stroke-width:3.2; stroke-opacity:1"/>
<line clip-path="url(#clip612)" x1="1891.51" y1="1386.3" x2="1859.51" y2="1386.3" style="stroke:#000000; stroke-width:3.2; stroke-opacity:1"/>
<line clip-path="url(#clip612)" x1="1891.51" y1="1141.49" x2="1859.51" y2="1141.49" style="stroke:#000000; stroke-width:3.2; stroke-opacity:1"/>
<line clip-path="url(#clip612)" x1="1995.94" y1="1385.99" x2="1963.94" y2="1385.99" style="stroke:#000000; stroke-width:3.2; stroke-opacity:1"/>
<line clip-path="url(#clip612)" x1="1995.94" y1="1135.16" x2="1963.94" y2="1135.16" style="stroke:#000000; stroke-width:3.2; stroke-opacity:1"/>
<line clip-path="url(#clip612)" x1="2100.37" y1="1384.91" x2="2068.37" y2="1384.91" style="stroke:#000000; stroke-width:3.2; stroke-opacity:1"/>
<line clip-path="url(#clip612)" x1="2100.37" y1="1122.95" x2="2068.37" y2="1122.95" style="stroke:#000000; stroke-width:3.2; stroke-opacity:1"/>
<line clip-path="url(#clip612)" x1="2204.8" y1="1383.28" x2="2172.8" y2="1383.28" style="stroke:#000000; stroke-width:3.2; stroke-opacity:1"/>
<line clip-path="url(#clip612)" x1="2204.8" y1="1111.29" x2="2172.8" y2="1111.29" style="stroke:#000000; stroke-width:3.2; stroke-opacity:1"/>
<line clip-path="url(#clip612)" x1="2309.23" y1="1350.34" x2="2277.23" y2="1350.34" style="stroke:#000000; stroke-width:3.2; stroke-opacity:1"/>
<line clip-path="url(#clip612)" x1="2309.23" y1="1024.64" x2="2277.23" y2="1024.64" style="stroke:#000000; stroke-width:3.2; stroke-opacity:1"/>
<circle clip-path="url(#clip612)" cx="309.067" cy="1317.05" r="14" fill="#3da44d" fill-rule="evenodd" fill-opacity="1" stroke="#000000" stroke-opacity="1" stroke-width="3.2"/>
<circle clip-path="url(#clip612)" cx="413.497" cy="1317.05" r="14" fill="#3da44d" fill-rule="evenodd" fill-opacity="1" stroke="#000000" stroke-opacity="1" stroke-width="3.2"/>
<circle clip-path="url(#clip612)" cx="517.926" cy="1317.05" r="14" fill="#3da44d" fill-rule="evenodd" fill-opacity="1" stroke="#000000" stroke-opacity="1" stroke-width="3.2"/>
<circle clip-path="url(#clip612)" cx="622.356" cy="1313.73" r="14" fill="#3da44d" fill-rule="evenodd" fill-opacity="1" stroke="#000000" stroke-opacity="1" stroke-width="3.2"/>
<circle clip-path="url(#clip612)" cx="726.786" cy="1313.73" r="14" fill="#3da44d" fill-rule="evenodd" fill-opacity="1" stroke="#000000" stroke-opacity="1" stroke-width="3.2"/>
<circle clip-path="url(#clip612)" cx="831.215" cy="1313.73" r="14" fill="#3da44d" fill-rule="evenodd" fill-opacity="1" stroke="#000000" stroke-opacity="1" stroke-width="3.2"/>
<circle clip-path="url(#clip612)" cx="935.645" cy="1313.73" r="14" fill="#3da44d" fill-rule="evenodd" fill-opacity="1" stroke="#000000" stroke-opacity="1" stroke-width="3.2"/>
<circle clip-path="url(#clip612)" cx="1040.07" cy="1317.05" r="14" fill="#3da44d" fill-rule="evenodd" fill-opacity="1" stroke="#000000" stroke-opacity="1" stroke-width="3.2"/>
<circle clip-path="url(#clip612)" cx="1144.5" cy="1313.73" r="14" fill="#3da44d" fill-rule="evenodd" fill-opacity="1" stroke="#000000" stroke-opacity="1" stroke-width="3.2"/>
<circle clip-path="url(#clip612)" cx="1248.93" cy="1307.09" r="14" fill="#3da44d" fill-rule="evenodd" fill-opacity="1" stroke="#000000" stroke-opacity="1" stroke-width="3.2"/>
<circle clip-path="url(#clip612)" cx="1353.36" cy="1303.76" r="14" fill="#3da44d" fill-rule="evenodd" fill-opacity="1" stroke="#000000" stroke-opacity="1" stroke-width="3.2"/>
<circle clip-path="url(#clip612)" cx="1457.79" cy="1287.15" r="14" fill="#3da44d" fill-rule="evenodd" fill-opacity="1" stroke="#000000" stroke-opacity="1" stroke-width="3.2"/>
<circle clip-path="url(#clip612)" cx="1562.22" cy="1290.47" r="14" fill="#3da44d" fill-rule="evenodd" fill-opacity="1" stroke="#000000" stroke-opacity="1" stroke-width="3.2"/>
<circle clip-path="url(#clip612)" cx="1666.65" cy="1303.76" r="14" fill="#3da44d" fill-rule="evenodd" fill-opacity="1" stroke="#000000" stroke-opacity="1" stroke-width="3.2"/>
<circle clip-path="url(#clip612)" cx="1771.08" cy="1250.61" r="14" fill="#3da44d" fill-rule="evenodd" fill-opacity="1" stroke="#000000" stroke-opacity="1" stroke-width="3.2"/>
<circle clip-path="url(#clip612)" cx="1875.51" cy="1263.9" r="14" fill="#3da44d" fill-rule="evenodd" fill-opacity="1" stroke="#000000" stroke-opacity="1" stroke-width="3.2"/>
<circle clip-path="url(#clip612)" cx="1979.94" cy="1260.58" r="14" fill="#3da44d" fill-rule="evenodd" fill-opacity="1" stroke="#000000" stroke-opacity="1" stroke-width="3.2"/>
<circle clip-path="url(#clip612)" cx="2084.37" cy="1253.93" r="14" fill="#3da44d" fill-rule="evenodd" fill-opacity="1" stroke="#000000" stroke-opacity="1" stroke-width="3.2"/>
<circle clip-path="url(#clip612)" cx="2188.8" cy="1247.29" r="14" fill="#3da44d" fill-rule="evenodd" fill-opacity="1" stroke="#000000" stroke-opacity="1" stroke-width="3.2"/>
<circle clip-path="url(#clip612)" cx="2293.23" cy="1187.49" r="14" fill="#3da44d" fill-rule="evenodd" fill-opacity="1" stroke="#000000" stroke-opacity="1" stroke-width="3.2"/>
<path clip-path="url(#clip610)" d="
M1599.35 374.156 L2282.65 374.156 L2282.65 166.796 L1599.35 166.796  Z
  " fill="#ffffff" fill-rule="evenodd" fill-opacity="1"/>
<polyline clip-path="url(#clip610)" style="stroke:#000000; stroke-linecap:butt; stroke-linejoin:round; stroke-width:4; stroke-opacity:1; fill:none" points="
  1599.35,374.156 2282.65,374.156 2282.65,166.796 1599.35,166.796 1599.35,374.156 
  "/>
<circle clip-path="url(#clip610)" cx="1692.83" cy="218.636" r="23" fill="#009af9" fill-rule="evenodd" fill-opacity="1" stroke="#000000" stroke-opacity="1" stroke-width="5.12"/>
<path clip-path="url(#clip610)" d="M1786.31 199.897 L1796.12 199.897 L1796.12 203.208 L1790.57 203.208 L1790.57 238.856 L1796.12 238.856 L1796.12 242.166 L1786.31 242.166 L1786.31 199.897 Z" fill="#000000" fill-rule="evenodd" fill-opacity="1" /><path clip-path="url(#clip610)" d="M1809.22 201.356 L1809.22 214.203 L1805.29 214.203 L1805.29 201.356 L1809.22 201.356 M1817.97 201.356 L1817.97 214.203 L1814.04 214.203 L1814.04 201.356 L1817.97 201.356 Z" fill="#000000" fill-rule="evenodd" fill-opacity="1" /><path clip-path="url(#clip610)" d="M1847.19 214.967 Q1848.78 212.096 1851.01 210.731 Q1853.23 209.365 1856.24 209.365 Q1860.29 209.365 1862.49 212.212 Q1864.69 215.036 1864.69 220.268 L1864.69 235.916 L1860.4 235.916 L1860.4 220.407 Q1860.4 216.68 1859.08 214.874 Q1857.76 213.069 1855.06 213.069 Q1851.75 213.069 1849.82 215.268 Q1847.9 217.467 1847.9 221.263 L1847.9 235.916 L1843.62 235.916 L1843.62 220.407 Q1843.62 216.657 1842.3 214.874 Q1840.98 213.069 1838.23 213.069 Q1834.96 213.069 1833.04 215.291 Q1831.12 217.49 1831.12 221.263 L1831.12 235.916 L1826.84 235.916 L1826.84 209.99 L1831.12 209.99 L1831.12 214.018 Q1832.58 211.633 1834.62 210.499 Q1836.65 209.365 1839.45 209.365 Q1842.28 209.365 1844.25 210.8 Q1846.24 212.235 1847.19 214.967 Z" fill="#000000" fill-rule="evenodd" fill-opacity="1" /><path clip-path="url(#clip610)" d="M1895.36 221.888 L1895.36 223.971 L1875.77 223.971 Q1876.05 228.369 1878.41 230.684 Q1880.8 232.976 1885.03 232.976 Q1887.49 232.976 1889.78 232.374 Q1892.09 231.772 1894.36 230.569 L1894.36 234.596 Q1892.07 235.568 1889.66 236.078 Q1887.26 236.587 1884.78 236.587 Q1878.57 236.587 1874.94 232.976 Q1871.33 229.365 1871.33 223.207 Q1871.33 216.842 1874.76 213.115 Q1878.2 209.365 1884.04 209.365 Q1889.27 209.365 1892.3 212.745 Q1895.36 216.101 1895.36 221.888 M1891.1 220.638 Q1891.05 217.143 1889.13 215.059 Q1887.23 212.976 1884.08 212.976 Q1880.52 212.976 1878.37 214.99 Q1876.24 217.004 1875.91 220.661 L1891.1 220.638 Z" fill="#000000" fill-rule="evenodd" fill-opacity="1" /><path clip-path="url(#clip610)" d="M1914.13 222.883 Q1908.97 222.883 1906.98 224.064 Q1904.99 225.244 1904.99 228.092 Q1904.99 230.36 1906.47 231.703 Q1907.97 233.022 1910.54 233.022 Q1914.08 233.022 1916.21 230.522 Q1918.37 227.999 1918.37 223.832 L1918.37 222.883 L1914.13 222.883 M1922.63 221.124 L1922.63 235.916 L1918.37 235.916 L1918.37 231.981 Q1916.91 234.342 1914.73 235.476 Q1912.56 236.587 1909.41 236.587 Q1905.43 236.587 1903.07 234.365 Q1900.73 232.119 1900.73 228.369 Q1900.73 223.994 1903.64 221.772 Q1906.58 219.55 1912.39 219.55 L1918.37 219.55 L1918.37 219.133 Q1918.37 216.194 1916.42 214.596 Q1914.5 212.976 1911.01 212.976 Q1908.78 212.976 1906.68 213.508 Q1904.57 214.041 1902.63 215.106 L1902.63 211.17 Q1904.96 210.268 1907.16 209.828 Q1909.36 209.365 1911.44 209.365 Q1917.07 209.365 1919.85 212.282 Q1922.63 215.198 1922.63 221.124 Z" fill="#000000" fill-rule="evenodd" fill-opacity="1" /><path clip-path="url(#clip610)" d="M1952.95 220.268 L1952.95 235.916 L1948.69 235.916 L1948.69 220.407 Q1948.69 216.726 1947.25 214.897 Q1945.82 213.069 1942.95 213.069 Q1939.5 213.069 1937.51 215.268 Q1935.52 217.467 1935.52 221.263 L1935.52 235.916 L1931.24 235.916 L1931.24 209.99 L1935.52 209.99 L1935.52 214.018 Q1937.05 211.68 1939.11 210.522 Q1941.19 209.365 1943.9 209.365 Q1948.37 209.365 1950.66 212.143 Q1952.95 214.897 1952.95 220.268 Z" fill="#000000" fill-rule="evenodd" fill-opacity="1" /><path clip-path="url(#clip610)" d="M1998.06 220.268 L1998.06 235.916 L1993.81 235.916 L1993.81 220.407 Q1993.81 216.726 1992.37 214.897 Q1990.94 213.069 1988.06 213.069 Q1984.62 213.069 1982.63 215.268 Q1980.63 217.467 1980.63 221.263 L1980.63 235.916 L1976.35 235.916 L1976.35 209.99 L1980.63 209.99 L1980.63 214.018 Q1982.16 211.68 1984.22 210.522 Q1986.31 209.365 1989.01 209.365 Q1993.48 209.365 1995.77 212.143 Q1998.06 214.897 1998.06 220.268 Z" fill="#000000" fill-rule="evenodd" fill-opacity="1" /><path clip-path="url(#clip610)" d="M2018.34 222.883 Q2013.18 222.883 2011.19 224.064 Q2009.2 225.244 2009.2 228.092 Q2009.2 230.36 2010.68 231.703 Q2012.19 233.022 2014.75 233.022 Q2018.3 233.022 2020.43 230.522 Q2022.58 227.999 2022.58 223.832 L2022.58 222.883 L2018.34 222.883 M2026.84 221.124 L2026.84 235.916 L2022.58 235.916 L2022.58 231.981 Q2021.12 234.342 2018.94 235.476 Q2016.77 236.587 2013.62 236.587 Q2009.64 236.587 2007.28 234.365 Q2004.94 232.119 2004.94 228.369 Q2004.94 223.994 2007.86 221.772 Q2010.8 219.55 2016.61 219.55 L2022.58 219.55 L2022.58 219.133 Q2022.58 216.194 2020.63 214.596 Q2018.71 212.976 2015.22 212.976 Q2013 212.976 2010.89 213.508 Q2008.78 214.041 2006.84 215.106 L2006.84 211.17 Q2009.18 210.268 2011.37 209.828 Q2013.57 209.365 2015.66 209.365 Q2021.28 209.365 2024.06 212.282 Q2026.84 215.198 2026.84 221.124 Z" fill="#000000" fill-rule="evenodd" fill-opacity="1" /><path clip-path="url(#clip610)" d="M2035.61 209.99 L2039.87 209.99 L2039.87 235.916 L2035.61 235.916 L2035.61 209.99 M2035.61 199.897 L2039.87 199.897 L2039.87 205.291 L2035.61 205.291 L2035.61 199.897 Z" fill="#000000" fill-rule="evenodd" fill-opacity="1" /><path clip-path="url(#clip610)" d="M2045.73 209.99 L2050.24 209.99 L2058.34 231.749 L2066.44 209.99 L2070.96 209.99 L2061.24 235.916 L2055.45 235.916 L2045.73 209.99 Z" fill="#000000" fill-rule="evenodd" fill-opacity="1" /><path clip-path="url(#clip610)" d="M2099.01 221.888 L2099.01 223.971 L2079.43 223.971 Q2079.71 228.369 2082.07 230.684 Q2084.45 232.976 2088.69 232.976 Q2091.14 232.976 2093.43 232.374 Q2095.75 231.772 2098.02 230.569 L2098.02 234.596 Q2095.73 235.568 2093.32 236.078 Q2090.91 236.587 2088.43 236.587 Q2082.23 236.587 2078.6 232.976 Q2074.99 229.365 2074.99 223.207 Q2074.99 216.842 2078.41 213.115 Q2081.86 209.365 2087.69 209.365 Q2092.93 209.365 2095.96 212.745 Q2099.01 216.101 2099.01 221.888 M2094.75 220.638 Q2094.71 217.143 2092.79 215.059 Q2090.89 212.976 2087.74 212.976 Q2084.18 212.976 2082.02 214.99 Q2079.89 217.004 2079.57 220.661 L2094.75 220.638 Z" fill="#000000" fill-rule="evenodd" fill-opacity="1" /><path clip-path="url(#clip610)" d="M2135.29 204.527 Q2130.19 204.527 2127.18 208.323 Q2124.2 212.12 2124.2 218.67 Q2124.2 225.198 2127.18 228.994 Q2130.19 232.791 2135.29 232.791 Q2140.38 232.791 2143.34 228.994 Q2146.33 225.198 2146.33 218.67 Q2146.33 212.12 2143.34 208.323 Q2140.38 204.527 2135.29 204.527 M2135.29 200.731 Q2142.55 200.731 2146.91 205.615 Q2151.26 210.476 2151.26 218.67 Q2151.26 226.842 2146.91 231.726 Q2142.55 236.587 2135.29 236.587 Q2127.99 236.587 2123.62 231.726 Q2119.27 226.865 2119.27 218.67 Q2119.27 210.476 2123.62 205.615 Q2127.99 200.731 2135.29 200.731 Z" fill="#000000" fill-rule="evenodd" fill-opacity="1" /><path clip-path="url(#clip610)" d="M2168.99 204.434 Q2165.38 204.434 2163.55 207.999 Q2161.74 211.541 2161.74 218.67 Q2161.74 225.777 2163.55 229.342 Q2165.38 232.883 2168.99 232.883 Q2172.62 232.883 2174.43 229.342 Q2176.26 225.777 2176.26 218.67 Q2176.26 211.541 2174.43 207.999 Q2172.62 204.434 2168.99 204.434 M2168.99 200.731 Q2174.8 200.731 2177.86 205.337 Q2180.93 209.92 2180.93 218.67 Q2180.93 227.397 2177.86 232.004 Q2174.8 236.587 2168.99 236.587 Q2163.18 236.587 2160.1 232.004 Q2157.05 227.397 2157.05 218.67 Q2157.05 209.92 2160.1 205.337 Q2163.18 200.731 2168.99 200.731 Z" fill="#000000" fill-rule="evenodd" fill-opacity="1" /><path clip-path="url(#clip610)" d="M2192.58 201.356 L2192.58 214.203 L2188.64 214.203 L2188.64 201.356 L2192.58 201.356 M2201.33 201.356 L2201.33 214.203 L2197.39 214.203 L2197.39 201.356 L2201.33 201.356 Z" fill="#000000" fill-rule="evenodd" fill-opacity="1" /><path clip-path="url(#clip610)" d="M2220.31 199.897 L2220.31 242.166 L2210.49 242.166 L2210.49 238.856 L2216.03 238.856 L2216.03 203.208 L2210.49 203.208 L2210.49 199.897 L2220.31 199.897 Z" fill="#000000" fill-rule="evenodd" fill-opacity="1" /><circle clip-path="url(#clip610)" cx="1692.83" cy="270.476" r="23" fill="#e26f46" fill-rule="evenodd" fill-opacity="1" stroke="#000000" stroke-opacity="1" stroke-width="5.12"/>
<path clip-path="url(#clip610)" d="M1786.31 251.737 L1796.12 251.737 L1796.12 255.048 L1790.57 255.048 L1790.57 290.696 L1796.12 290.696 L1796.12 294.006 L1786.31 294.006 L1786.31 251.737 Z" fill="#000000" fill-rule="evenodd" fill-opacity="1" /><path clip-path="url(#clip610)" d="M1809.22 253.196 L1809.22 266.043 L1805.29 266.043 L1805.29 253.196 L1809.22 253.196 M1817.97 253.196 L1817.97 266.043 L1814.04 266.043 L1814.04 253.196 L1817.97 253.196 Z" fill="#000000" fill-rule="evenodd" fill-opacity="1" /><path clip-path="url(#clip610)" d="M1847.19 266.807 Q1848.78 263.936 1851.01 262.571 Q1853.23 261.205 1856.24 261.205 Q1860.29 261.205 1862.49 264.052 Q1864.69 266.876 1864.69 272.108 L1864.69 287.756 L1860.4 287.756 L1860.4 272.247 Q1860.4 268.52 1859.08 266.714 Q1857.76 264.909 1855.06 264.909 Q1851.75 264.909 1849.82 267.108 Q1847.9 269.307 1847.9 273.103 L1847.9 287.756 L1843.62 287.756 L1843.62 272.247 Q1843.62 268.497 1842.3 266.714 Q1840.98 264.909 1838.23 264.909 Q1834.96 264.909 1833.04 267.131 Q1831.12 269.33 1831.12 273.103 L1831.12 287.756 L1826.84 287.756 L1826.84 261.83 L1831.12 261.83 L1831.12 265.858 Q1832.58 263.473 1834.62 262.339 Q1836.65 261.205 1839.45 261.205 Q1842.28 261.205 1844.25 262.64 Q1846.24 264.075 1847.19 266.807 Z" fill="#000000" fill-rule="evenodd" fill-opacity="1" /><path clip-path="url(#clip610)" d="M1895.36 273.728 L1895.36 275.811 L1875.77 275.811 Q1876.05 280.209 1878.41 282.524 Q1880.8 284.816 1885.03 284.816 Q1887.49 284.816 1889.78 284.214 Q1892.09 283.612 1894.36 282.409 L1894.36 286.436 Q1892.07 287.408 1889.66 287.918 Q1887.26 288.427 1884.78 288.427 Q1878.57 288.427 1874.94 284.816 Q1871.33 281.205 1871.33 275.047 Q1871.33 268.682 1874.76 264.955 Q1878.2 261.205 1884.04 261.205 Q1889.27 261.205 1892.3 264.585 Q1895.36 267.941 1895.36 273.728 M1891.1 272.478 Q1891.05 268.983 1889.13 266.899 Q1887.23 264.816 1884.08 264.816 Q1880.52 264.816 1878.37 266.83 Q1876.24 268.844 1875.91 272.501 L1891.1 272.478 Z" fill="#000000" fill-rule="evenodd" fill-opacity="1" /><path clip-path="url(#clip610)" d="M1914.13 274.723 Q1908.97 274.723 1906.98 275.904 Q1904.99 277.084 1904.99 279.932 Q1904.99 282.2 1906.47 283.543 Q1907.97 284.862 1910.54 284.862 Q1914.08 284.862 1916.21 282.362 Q1918.37 279.839 1918.37 275.672 L1918.37 274.723 L1914.13 274.723 M1922.63 272.964 L1922.63 287.756 L1918.37 287.756 L1918.37 283.821 Q1916.91 286.182 1914.73 287.316 Q1912.56 288.427 1909.41 288.427 Q1905.43 288.427 1903.07 286.205 Q1900.73 283.959 1900.73 280.209 Q1900.73 275.834 1903.64 273.612 Q1906.58 271.39 1912.39 271.39 L1918.37 271.39 L1918.37 270.973 Q1918.37 268.034 1916.42 266.436 Q1914.5 264.816 1911.01 264.816 Q1908.78 264.816 1906.68 265.348 Q1904.57 265.881 1902.63 266.946 L1902.63 263.01 Q1904.96 262.108 1907.16 261.668 Q1909.36 261.205 1911.44 261.205 Q1917.07 261.205 1919.85 264.122 Q1922.63 267.038 1922.63 272.964 Z" fill="#000000" fill-rule="evenodd" fill-opacity="1" /><path clip-path="url(#clip610)" d="M1952.95 272.108 L1952.95 287.756 L1948.69 287.756 L1948.69 272.247 Q1948.69 268.566 1947.25 266.737 Q1945.82 264.909 1942.95 264.909 Q1939.5 264.909 1937.51 267.108 Q1935.52 269.307 1935.52 273.103 L1935.52 287.756 L1931.24 287.756 L1931.24 261.83 L1935.52 261.83 L1935.52 265.858 Q1937.05 263.52 1939.11 262.362 Q1941.19 261.205 1943.9 261.205 Q1948.37 261.205 1950.66 263.983 Q1952.95 266.737 1952.95 272.108 Z" fill="#000000" fill-rule="evenodd" fill-opacity="1" /><path clip-path="url(#clip610)" d="M1995.12 274.816 Q1995.12 270.117 1993.18 267.455 Q1991.26 264.77 1987.88 264.77 Q1984.5 264.77 1982.56 267.455 Q1980.63 270.117 1980.63 274.816 Q1980.63 279.515 1982.56 282.2 Q1984.5 284.862 1987.88 284.862 Q1991.26 284.862 1993.18 282.2 Q1995.12 279.515 1995.12 274.816 M1980.63 265.765 Q1981.98 263.45 1984.01 262.339 Q1986.07 261.205 1988.92 261.205 Q1993.64 261.205 1996.58 264.955 Q1999.55 268.705 1999.55 274.816 Q1999.55 280.927 1996.58 284.677 Q1993.64 288.427 1988.92 288.427 Q1986.07 288.427 1984.01 287.316 Q1981.98 286.182 1980.63 283.867 L1980.63 287.756 L1976.35 287.756 L1976.35 251.737 L1980.63 251.737 L1980.63 265.765 Z" fill="#000000" fill-rule="evenodd" fill-opacity="1" /><path clip-path="url(#clip610)" d="M2028.78 273.728 L2028.78 275.811 L2009.2 275.811 Q2009.48 280.209 2011.84 282.524 Q2014.22 284.816 2018.46 284.816 Q2020.91 284.816 2023.2 284.214 Q2025.52 283.612 2027.79 282.409 L2027.79 286.436 Q2025.5 287.408 2023.09 287.918 Q2020.68 288.427 2018.2 288.427 Q2012 288.427 2008.37 284.816 Q2004.75 281.205 2004.75 275.047 Q2004.75 268.682 2008.18 264.955 Q2011.63 261.205 2017.46 261.205 Q2022.69 261.205 2025.73 264.585 Q2028.78 267.941 2028.78 273.728 M2024.52 272.478 Q2024.48 268.983 2022.56 266.899 Q2020.66 264.816 2017.51 264.816 Q2013.94 264.816 2011.79 266.83 Q2009.66 268.844 2009.34 272.501 L2024.52 272.478 Z" fill="#000000" fill-rule="evenodd" fill-opacity="1" /><path clip-path="url(#clip610)" d="M2039.99 254.469 L2039.99 261.83 L2048.76 261.83 L2048.76 265.14 L2039.99 265.14 L2039.99 279.214 Q2039.99 282.385 2040.84 283.288 Q2041.72 284.191 2044.38 284.191 L2048.76 284.191 L2048.76 287.756 L2044.38 287.756 Q2039.45 287.756 2037.58 285.927 Q2035.7 284.075 2035.7 279.214 L2035.7 265.14 L2032.58 265.14 L2032.58 261.83 L2035.7 261.83 L2035.7 254.469 L2039.99 254.469 Z" fill="#000000" fill-rule="evenodd" fill-opacity="1" /><path clip-path="url(#clip610)" d="M2058.57 254.469 L2058.57 261.83 L2067.35 261.83 L2067.35 265.14 L2058.57 265.14 L2058.57 279.214 Q2058.57 282.385 2059.43 283.288 Q2060.31 284.191 2062.97 284.191 L2067.35 284.191 L2067.35 287.756 L2062.97 287.756 Q2058.04 287.756 2056.17 285.927 Q2054.29 284.075 2054.29 279.214 L2054.29 265.14 L2051.17 265.14 L2051.17 261.83 L2054.29 261.83 L2054.29 254.469 L2058.57 254.469 Z" fill="#000000" fill-rule="evenodd" fill-opacity="1" /><path clip-path="url(#clip610)" d="M2095.12 273.728 L2095.12 275.811 L2075.54 275.811 Q2075.82 280.209 2078.18 282.524 Q2080.56 284.816 2084.8 284.816 Q2087.25 284.816 2089.55 284.214 Q2091.86 283.612 2094.13 282.409 L2094.13 286.436 Q2091.84 287.408 2089.43 287.918 Q2087.02 288.427 2084.55 288.427 Q2078.34 288.427 2074.71 284.816 Q2071.1 281.205 2071.1 275.047 Q2071.1 268.682 2074.52 264.955 Q2077.97 261.205 2083.81 261.205 Q2089.04 261.205 2092.07 264.585 Q2095.12 267.941 2095.12 273.728 M2090.87 272.478 Q2090.82 268.983 2088.9 266.899 Q2087 264.816 2083.85 264.816 Q2080.29 264.816 2078.13 266.83 Q2076 268.844 2075.68 272.501 L2090.87 272.478 Z" fill="#000000" fill-rule="evenodd" fill-opacity="1" /><path clip-path="url(#clip610)" d="M2117.14 265.811 Q2116.42 265.395 2115.56 265.21 Q2114.73 265.001 2113.71 265.001 Q2110.1 265.001 2108.16 267.362 Q2106.24 269.7 2106.24 274.098 L2106.24 287.756 L2101.95 287.756 L2101.95 261.83 L2106.24 261.83 L2106.24 265.858 Q2107.58 263.497 2109.73 262.362 Q2111.88 261.205 2114.96 261.205 Q2115.4 261.205 2115.93 261.274 Q2116.47 261.321 2117.12 261.436 L2117.14 265.811 Z" fill="#000000" fill-rule="evenodd" fill-opacity="1" /><path clip-path="url(#clip610)" d="M2150.89 256.367 Q2145.8 256.367 2142.79 260.163 Q2139.8 263.96 2139.8 270.51 Q2139.8 277.038 2142.79 280.834 Q2145.8 284.631 2150.89 284.631 Q2155.98 284.631 2158.94 280.834 Q2161.93 277.038 2161.93 270.51 Q2161.93 263.96 2158.94 260.163 Q2155.98 256.367 2150.89 256.367 M2150.89 252.571 Q2158.16 252.571 2162.51 257.455 Q2166.86 262.316 2166.86 270.51 Q2166.86 278.682 2162.51 283.566 Q2158.16 288.427 2150.89 288.427 Q2143.6 288.427 2139.22 283.566 Q2134.87 278.705 2134.87 270.51 Q2134.87 262.316 2139.22 257.455 Q2143.6 252.571 2150.89 252.571 Z" fill="#000000" fill-rule="evenodd" fill-opacity="1" /><path clip-path="url(#clip610)" d="M2184.59 256.274 Q2180.98 256.274 2179.15 259.839 Q2177.35 263.381 2177.35 270.51 Q2177.35 277.617 2179.15 281.182 Q2180.98 284.723 2184.59 284.723 Q2188.23 284.723 2190.03 281.182 Q2191.86 277.617 2191.86 270.51 Q2191.86 263.381 2190.03 259.839 Q2188.23 256.274 2184.59 256.274 M2184.59 252.571 Q2190.4 252.571 2193.46 257.177 Q2196.54 261.76 2196.54 270.51 Q2196.54 279.237 2193.46 283.844 Q2190.4 288.427 2184.59 288.427 Q2178.78 288.427 2175.7 283.844 Q2172.65 279.237 2172.65 270.51 Q2172.65 261.76 2175.7 257.177 Q2178.78 252.571 2184.59 252.571 Z" fill="#000000" fill-rule="evenodd" fill-opacity="1" /><path clip-path="url(#clip610)" d="M2208.18 253.196 L2208.18 266.043 L2204.24 266.043 L2204.24 253.196 L2208.18 253.196 M2216.93 253.196 L2216.93 266.043 L2212.99 266.043 L2212.99 253.196 L2216.93 253.196 Z" fill="#000000" fill-rule="evenodd" fill-opacity="1" /><path clip-path="url(#clip610)" d="M2235.91 251.737 L2235.91 294.006 L2226.1 294.006 L2226.1 290.696 L2231.63 290.696 L2231.63 255.048 L2226.1 255.048 L2226.1 251.737 L2235.91 251.737 Z" fill="#000000" fill-rule="evenodd" fill-opacity="1" /><circle clip-path="url(#clip610)" cx="1692.83" cy="322.316" r="23" fill="#3da44d" fill-rule="evenodd" fill-opacity="1" stroke="#000000" stroke-opacity="1" stroke-width="5.12"/>
<path clip-path="url(#clip610)" d="M1786.31 303.577 L1796.12 303.577 L1796.12 306.888 L1790.57 306.888 L1790.57 342.536 L1796.12 342.536 L1796.12 345.846 L1786.31 345.846 L1786.31 303.577 Z" fill="#000000" fill-rule="evenodd" fill-opacity="1" /><path clip-path="url(#clip610)" d="M1809.22 305.036 L1809.22 317.883 L1805.29 317.883 L1805.29 305.036 L1809.22 305.036 M1817.97 305.036 L1817.97 317.883 L1814.04 317.883 L1814.04 305.036 L1817.97 305.036 Z" fill="#000000" fill-rule="evenodd" fill-opacity="1" /><path clip-path="url(#clip610)" d="M1847.19 318.647 Q1848.78 315.776 1851.01 314.411 Q1853.23 313.045 1856.24 313.045 Q1860.29 313.045 1862.49 315.892 Q1864.69 318.716 1864.69 323.948 L1864.69 339.596 L1860.4 339.596 L1860.4 324.087 Q1860.4 320.36 1859.08 318.554 Q1857.76 316.749 1855.06 316.749 Q1851.75 316.749 1849.82 318.948 Q1847.9 321.147 1847.9 324.943 L1847.9 339.596 L1843.62 339.596 L1843.62 324.087 Q1843.62 320.337 1842.3 318.554 Q1840.98 316.749 1838.23 316.749 Q1834.96 316.749 1833.04 318.971 Q1831.12 321.17 1831.12 324.943 L1831.12 339.596 L1826.84 339.596 L1826.84 313.67 L1831.12 313.67 L1831.12 317.698 Q1832.58 315.313 1834.62 314.179 Q1836.65 313.045 1839.45 313.045 Q1842.28 313.045 1844.25 314.48 Q1846.24 315.915 1847.19 318.647 Z" fill="#000000" fill-rule="evenodd" fill-opacity="1" /><path clip-path="url(#clip610)" d="M1895.36 325.568 L1895.36 327.651 L1875.77 327.651 Q1876.05 332.049 1878.41 334.364 Q1880.8 336.656 1885.03 336.656 Q1887.49 336.656 1889.78 336.054 Q1892.09 335.452 1894.36 334.249 L1894.36 338.276 Q1892.07 339.248 1889.66 339.758 Q1887.26 340.267 1884.78 340.267 Q1878.57 340.267 1874.94 336.656 Q1871.33 333.045 1871.33 326.887 Q1871.33 320.522 1874.76 316.795 Q1878.2 313.045 1884.04 313.045 Q1889.27 313.045 1892.3 316.425 Q1895.36 319.781 1895.36 325.568 M1891.1 324.318 Q1891.05 320.823 1889.13 318.739 Q1887.23 316.656 1884.08 316.656 Q1880.52 316.656 1878.37 318.67 Q1876.24 320.684 1875.91 324.341 L1891.1 324.318 Z" fill="#000000" fill-rule="evenodd" fill-opacity="1" /><path clip-path="url(#clip610)" d="M1914.13 326.563 Q1908.97 326.563 1906.98 327.744 Q1904.99 328.924 1904.99 331.772 Q1904.99 334.04 1906.47 335.383 Q1907.97 336.702 1910.54 336.702 Q1914.08 336.702 1916.21 334.202 Q1918.37 331.679 1918.37 327.512 L1918.37 326.563 L1914.13 326.563 M1922.63 324.804 L1922.63 339.596 L1918.37 339.596 L1918.37 335.661 Q1916.91 338.022 1914.73 339.156 Q1912.56 340.267 1909.41 340.267 Q1905.43 340.267 1903.07 338.045 Q1900.73 335.799 1900.73 332.049 Q1900.73 327.674 1903.64 325.452 Q1906.58 323.23 1912.39 323.23 L1918.37 323.23 L1918.37 322.813 Q1918.37 319.874 1916.42 318.276 Q1914.5 316.656 1911.01 316.656 Q1908.78 316.656 1906.68 317.188 Q1904.57 317.721 1902.63 318.786 L1902.63 314.85 Q1904.96 313.948 1907.16 313.508 Q1909.36 313.045 1911.44 313.045 Q1917.07 313.045 1919.85 315.962 Q1922.63 318.878 1922.63 324.804 Z" fill="#000000" fill-rule="evenodd" fill-opacity="1" /><path clip-path="url(#clip610)" d="M1952.95 323.948 L1952.95 339.596 L1948.69 339.596 L1948.69 324.087 Q1948.69 320.406 1947.25 318.577 Q1945.82 316.749 1942.95 316.749 Q1939.5 316.749 1937.51 318.948 Q1935.52 321.147 1935.52 324.943 L1935.52 339.596 L1931.24 339.596 L1931.24 313.67 L1935.52 313.67 L1935.52 317.698 Q1937.05 315.36 1939.11 314.202 Q1941.19 313.045 1943.9 313.045 Q1948.37 313.045 1950.66 315.823 Q1952.95 318.577 1952.95 323.948 Z" fill="#000000" fill-rule="evenodd" fill-opacity="1" /><path clip-path="url(#clip610)" d="M1995.12 326.656 Q1995.12 321.957 1993.18 319.295 Q1991.26 316.61 1987.88 316.61 Q1984.5 316.61 1982.56 319.295 Q1980.63 321.957 1980.63 326.656 Q1980.63 331.355 1982.56 334.04 Q1984.5 336.702 1987.88 336.702 Q1991.26 336.702 1993.18 334.04 Q1995.12 331.355 1995.12 326.656 M1980.63 317.605 Q1981.98 315.29 1984.01 314.179 Q1986.07 313.045 1988.92 313.045 Q1993.64 313.045 1996.58 316.795 Q1999.55 320.545 1999.55 326.656 Q1999.55 332.767 1996.58 336.517 Q1993.64 340.267 1988.92 340.267 Q1986.07 340.267 1984.01 339.156 Q1981.98 338.022 1980.63 335.707 L1980.63 339.596 L1976.35 339.596 L1976.35 303.577 L1980.63 303.577 L1980.63 317.605 Z" fill="#000000" fill-rule="evenodd" fill-opacity="1" /><path clip-path="url(#clip610)" d="M2028.78 325.568 L2028.78 327.651 L2009.2 327.651 Q2009.48 332.049 2011.84 334.364 Q2014.22 336.656 2018.46 336.656 Q2020.91 336.656 2023.2 336.054 Q2025.52 335.452 2027.79 334.249 L2027.79 338.276 Q2025.5 339.248 2023.09 339.758 Q2020.68 340.267 2018.2 340.267 Q2012 340.267 2008.37 336.656 Q2004.75 333.045 2004.75 326.887 Q2004.75 320.522 2008.18 316.795 Q2011.63 313.045 2017.46 313.045 Q2022.69 313.045 2025.73 316.425 Q2028.78 319.781 2028.78 325.568 M2024.52 324.318 Q2024.48 320.823 2022.56 318.739 Q2020.66 316.656 2017.51 316.656 Q2013.94 316.656 2011.79 318.67 Q2009.66 320.684 2009.34 324.341 L2024.52 324.318 Z" fill="#000000" fill-rule="evenodd" fill-opacity="1" /><path clip-path="url(#clip610)" d="M2052.3 314.434 L2052.3 318.462 Q2050.5 317.536 2048.55 317.073 Q2046.61 316.61 2044.52 316.61 Q2041.35 316.61 2039.75 317.582 Q2038.18 318.554 2038.18 320.499 Q2038.18 321.98 2039.31 322.837 Q2040.45 323.67 2043.87 324.434 L2045.33 324.758 Q2049.87 325.73 2051.77 327.512 Q2053.69 329.272 2053.69 332.443 Q2053.69 336.054 2050.82 338.161 Q2047.97 340.267 2042.97 340.267 Q2040.89 340.267 2038.62 339.85 Q2036.37 339.457 2033.87 338.647 L2033.87 334.249 Q2036.24 335.475 2038.53 336.1 Q2040.82 336.702 2043.06 336.702 Q2046.07 336.702 2047.69 335.684 Q2049.31 334.642 2049.31 332.767 Q2049.31 331.031 2048.13 330.105 Q2046.98 329.179 2043.02 328.323 L2041.54 327.975 Q2037.58 327.142 2035.82 325.429 Q2034.06 323.693 2034.06 320.684 Q2034.06 317.026 2036.65 315.036 Q2039.25 313.045 2044.01 313.045 Q2046.37 313.045 2048.46 313.392 Q2050.54 313.739 2052.3 314.434 Z" fill="#000000" fill-rule="evenodd" fill-opacity="1" /><path clip-path="url(#clip610)" d="M2064.68 306.309 L2064.68 313.67 L2073.46 313.67 L2073.46 316.98 L2064.68 316.98 L2064.68 331.054 Q2064.68 334.225 2065.54 335.128 Q2066.42 336.031 2069.08 336.031 L2073.46 336.031 L2073.46 339.596 L2069.08 339.596 Q2064.15 339.596 2062.28 337.767 Q2060.4 335.915 2060.4 331.054 L2060.4 316.98 L2057.28 316.98 L2057.28 313.67 L2060.4 313.67 L2060.4 306.309 L2064.68 306.309 Z" fill="#000000" fill-rule="evenodd" fill-opacity="1" /><path clip-path="url(#clip610)" d="M2108.34 308.207 Q2103.25 308.207 2100.24 312.003 Q2097.25 315.8 2097.25 322.35 Q2097.25 328.878 2100.24 332.674 Q2103.25 336.471 2108.34 336.471 Q2113.43 336.471 2116.4 332.674 Q2119.38 328.878 2119.38 322.35 Q2119.38 315.8 2116.4 312.003 Q2113.43 308.207 2108.34 308.207 M2108.34 304.411 Q2115.61 304.411 2119.96 309.295 Q2124.31 314.156 2124.31 322.35 Q2124.31 330.522 2119.96 335.406 Q2115.61 340.267 2108.34 340.267 Q2101.05 340.267 2096.68 335.406 Q2092.32 330.545 2092.32 322.35 Q2092.32 314.156 2096.68 309.295 Q2101.05 304.411 2108.34 304.411 Z" fill="#000000" fill-rule="evenodd" fill-opacity="1" /><path clip-path="url(#clip610)" d="M2142.05 308.114 Q2138.43 308.114 2136.61 311.679 Q2134.8 315.221 2134.8 322.35 Q2134.8 329.457 2136.61 333.022 Q2138.43 336.563 2142.05 336.563 Q2145.68 336.563 2147.49 333.022 Q2149.31 329.457 2149.31 322.35 Q2149.31 315.221 2147.49 311.679 Q2145.68 308.114 2142.05 308.114 M2142.05 304.411 Q2147.86 304.411 2150.91 309.017 Q2153.99 313.6 2153.99 322.35 Q2153.99 331.077 2150.91 335.684 Q2147.86 340.267 2142.05 340.267 Q2136.24 340.267 2133.16 335.684 Q2130.1 331.077 2130.1 322.35 Q2130.1 313.6 2133.16 309.017 Q2136.24 304.411 2142.05 304.411 Z" fill="#000000" fill-rule="evenodd" fill-opacity="1" /><path clip-path="url(#clip610)" d="M2165.63 305.036 L2165.63 317.883 L2161.7 317.883 L2161.7 305.036 L2165.63 305.036 M2174.38 305.036 L2174.38 317.883 L2170.45 317.883 L2170.45 305.036 L2174.38 305.036 Z" fill="#000000" fill-rule="evenodd" fill-opacity="1" /><path clip-path="url(#clip610)" d="M2193.36 303.577 L2193.36 345.846 L2183.55 345.846 L2183.55 342.536 L2189.08 342.536 L2189.08 306.888 L2183.55 306.888 L2183.55 303.577 L2193.36 303.577 Z" fill="#000000" fill-rule="evenodd" fill-opacity="1" /></svg>
