<?xml version="1.0" encoding="utf-8"?>
<svg xmlns="http://www.w3.org/2000/svg" xmlns:xlink="http://www.w3.org/1999/xlink" width="600" height="400" viewBox="0 0 2400 1600">
<defs>
  <clipPath id="clip770">
    <rect x="0" y="0" width="2400" height="1600"/>
  </clipPath>
</defs>
<path clip-path="url(#clip770)" d="
M0 1600 L2400 1600 L2400 0 L0 0  Z
  " fill="#ffffff" fill-rule="evenodd" fill-opacity="1"/>
<defs>
  <clipPath id="clip771">
    <rect x="480" y="0" width="1681" height="1600"/>
  </clipPath>
</defs>
<path clip-path="url(#clip770)" d="
M279.704 1423.18 L2352.76 1423.18 L2352.76 123.472 L279.704 123.472  Z
  " fill="#ffffff" fill-rule="evenodd" fill-opacity="1"/>
<defs>
  <clipPath id="clip772">
    <rect x="279" y="123" width="2074" height="1301"/>
  </clipPath>
</defs>
<polyline clip-path="url(#clip772)" style="stroke:#000000; stroke-linecap:butt; stroke-linejoin:round; stroke-width:2; stroke-opacity:0.1; fill:none" points="
  750.103,1423.18 750.103,123.472 
  "/>
<polyline clip-path="url(#clip772)" style="stroke:#000000; stroke-linecap:butt; stroke-linejoin:round; stroke-width:2; stroke-opacity:0.1; fill:none" points="
  1264.76,1423.18 1264.76,123.472 
  "/>
<polyline clip-path="url(#clip772)" style="stroke:#000000; stroke-linecap:butt; stroke-linejoin:round; stroke-width:2; stroke-opacity:0.1; fill:none" points="
  1779.42,1423.18 1779.42,123.472 
  "/>
<polyline clip-path="url(#clip772)" style="stroke:#000000; stroke-linecap:butt; stroke-linejoin:round; stroke-width:2; stroke-opacity:0.1; fill:none" points="
  2294.08,1423.18 2294.08,123.472 
  "/>
<polyline clip-path="url(#clip770)" style="stroke:#000000; stroke-linecap:butt; stroke-linejoin:round; stroke-width:4; stroke-opacity:1; fill:none" points="
  279.704,1423.18 2352.76,1423.18 
  "/>
<polyline clip-path="url(#clip770)" style="stroke:#000000; stroke-linecap:butt; stroke-linejoin:round; stroke-width:4; stroke-opacity:1; fill:none" points="
  750.103,1423.18 750.103,1404.28 
  "/>
<polyline clip-path="url(#clip770)" style="stroke:#000000; stroke-linecap:butt; stroke-linejoin:round; stroke-width:4; stroke-opacity:1; fill:none" points="
  1264.76,1423.18 1264.76,1404.28 
  "/>
<polyline clip-path="url(#clip770)" style="stroke:#000000; stroke-linecap:butt; stroke-linejoin:round; stroke-width:4; stroke-opacity:1; fill:none" points="
  1779.42,1423.18 1779.42,1404.28 
  "/>
<polyline clip-path="url(#clip770)" style="stroke:#000000; stroke-linecap:butt; stroke-linejoin:round; stroke-width:4; stroke-opacity:1; fill:none" points="
  2294.08,1423.18 2294.08,1404.28 
  "/>
<path clip-path="url(#clip770)" d="M724.803 1451.02 L743.159 1451.02 L743.159 1454.96 L729.085 1454.96 L729.085 1463.43 Q730.104 1463.08 731.122 1462.92 Q732.141 1462.73 733.159 1462.73 Q738.946 1462.73 742.326 1465.9 Q745.705 1469.08 745.705 1474.49 Q745.705 1480.07 742.233 1483.17 Q738.761 1486.25 732.442 1486.25 Q730.266 1486.25 727.997 1485.88 Q725.752 1485.51 723.344 1484.77 L723.344 1480.07 Q725.428 1481.2 727.65 1481.76 Q729.872 1482.32 732.349 1482.32 Q736.354 1482.32 738.692 1480.21 Q741.029 1478.1 741.029 1474.49 Q741.029 1470.88 738.692 1468.77 Q736.354 1466.67 732.349 1466.67 Q730.474 1466.67 728.599 1467.08 Q726.747 1467.5 724.803 1468.38 L724.803 1451.02 Z" fill="#000000" fill-rule="evenodd" fill-opacity="1" /><path clip-path="url(#clip770)" d="M764.918 1454.1 Q761.307 1454.1 759.478 1457.66 Q757.673 1461.2 757.673 1468.33 Q757.673 1475.44 759.478 1479.01 Q761.307 1482.55 764.918 1482.55 Q768.552 1482.55 770.358 1479.01 Q772.187 1475.44 772.187 1468.33 Q772.187 1461.2 770.358 1457.66 Q768.552 1454.1 764.918 1454.1 M764.918 1450.39 Q770.728 1450.39 773.784 1455 Q776.863 1459.58 776.863 1468.33 Q776.863 1477.06 773.784 1481.67 Q770.728 1486.25 764.918 1486.25 Q759.108 1486.25 756.029 1481.67 Q752.974 1477.06 752.974 1468.33 Q752.974 1459.58 756.029 1455 Q759.108 1450.39 764.918 1450.39 Z" fill="#000000" fill-rule="evenodd" fill-opacity="1" /><path clip-path="url(#clip770)" d="M1224.37 1481.64 L1232.01 1481.64 L1232.01 1455.28 L1223.7 1456.95 L1223.7 1452.69 L1231.96 1451.02 L1236.64 1451.02 L1236.64 1481.64 L1244.28 1481.64 L1244.28 1485.58 L1224.37 1485.58 L1224.37 1481.64 Z" fill="#000000" fill-rule="evenodd" fill-opacity="1" /><path clip-path="url(#clip770)" d="M1263.72 1454.1 Q1260.11 1454.1 1258.28 1457.66 Q1256.48 1461.2 1256.48 1468.33 Q1256.48 1475.44 1258.28 1479.01 Q1260.11 1482.55 1263.72 1482.55 Q1267.36 1482.55 1269.16 1479.01 Q1270.99 1475.44 1270.99 1468.33 Q1270.99 1461.2 1269.16 1457.66 Q1267.36 1454.1 1263.72 1454.1 M1263.72 1450.39 Q1269.53 1450.39 1272.59 1455 Q1275.67 1459.58 1275.67 1468.33 Q1275.67 1477.06 1272.59 1481.67 Q1269.53 1486.25 1263.72 1486.25 Q1257.91 1486.25 1254.83 1481.67 Q1251.78 1477.06 1251.78 1468.33 Q1251.78 1459.58 1254.83 1455 Q1257.91 1450.39 1263.72 1450.39 Z" fill="#000000" fill-rule="evenodd" fill-opacity="1" /><path clip-path="url(#clip770)" d="M1293.88 1454.1 Q1290.27 1454.1 1288.44 1457.66 Q1286.64 1461.2 1286.64 1468.33 Q1286.64 1475.44 1288.44 1479.01 Q1290.27 1482.55 1293.88 1482.55 Q1297.52 1482.55 1299.32 1479.01 Q1301.15 1475.44 1301.15 1468.33 Q1301.15 1461.2 1299.32 1457.66 Q1297.52 1454.1 1293.88 1454.1 M1293.88 1450.39 Q1299.69 1450.39 1302.75 1455 Q1305.83 1459.58 1305.83 1468.33 Q1305.83 1477.06 1302.75 1481.67 Q1299.69 1486.25 1293.88 1486.25 Q1288.07 1486.25 1285 1481.67 Q1281.94 1477.06 1281.94 1468.33 Q1281.94 1459.58 1285 1455 Q1288.07 1450.39 1293.88 1450.39 Z" fill="#000000" fill-rule="evenodd" fill-opacity="1" /><path clip-path="url(#clip770)" d="M1739.03 1481.64 L1746.67 1481.64 L1746.67 1455.28 L1738.36 1456.95 L1738.36 1452.69 L1746.62 1451.02 L1751.3 1451.02 L1751.3 1481.64 L1758.94 1481.64 L1758.94 1485.58 L1739.03 1485.58 L1739.03 1481.64 Z" fill="#000000" fill-rule="evenodd" fill-opacity="1" /><path clip-path="url(#clip770)" d="M1768.43 1451.02 L1786.79 1451.02 L1786.79 1454.96 L1772.71 1454.96 L1772.71 1463.43 Q1773.73 1463.08 1774.75 1462.92 Q1775.77 1462.73 1776.79 1462.73 Q1782.57 1462.73 1785.95 1465.9 Q1789.33 1469.08 1789.33 1474.49 Q1789.33 1480.07 1785.86 1483.17 Q1782.39 1486.25 1776.07 1486.25 Q1773.89 1486.25 1771.62 1485.88 Q1769.38 1485.51 1766.97 1484.77 L1766.97 1480.07 Q1769.05 1481.2 1771.28 1481.76 Q1773.5 1482.32 1775.98 1482.32 Q1779.98 1482.32 1782.32 1480.21 Q1784.66 1478.1 1784.66 1474.49 Q1784.66 1470.88 1782.32 1468.77 Q1779.98 1466.67 1775.98 1466.67 Q1774.1 1466.67 1772.23 1467.08 Q1770.37 1467.5 1768.43 1468.38 L1768.43 1451.02 Z" fill="#000000" fill-rule="evenodd" fill-opacity="1" /><path clip-path="url(#clip770)" d="M1808.54 1454.1 Q1804.93 1454.1 1803.1 1457.66 Q1801.3 1461.2 1801.3 1468.33 Q1801.3 1475.44 1803.1 1479.01 Q1804.93 1482.55 1808.54 1482.55 Q1812.18 1482.55 1813.98 1479.01 Q1815.81 1475.44 1815.81 1468.33 Q1815.81 1461.2 1813.98 1457.66 Q1812.18 1454.1 1808.54 1454.1 M1808.54 1450.39 Q1814.35 1450.39 1817.41 1455 Q1820.49 1459.58 1820.49 1468.33 Q1820.49 1477.06 1817.41 1481.67 Q1814.35 1486.25 1808.54 1486.25 Q1802.73 1486.25 1799.66 1481.67 Q1796.6 1477.06 1796.6 1468.33 Q1796.6 1459.58 1799.66 1455 Q1802.73 1450.39 1808.54 1450.39 Z" fill="#000000" fill-rule="evenodd" fill-opacity="1" /><path clip-path="url(#clip770)" d="M2257.78 1481.64 L2274.1 1481.64 L2274.1 1485.58 L2252.15 1485.58 L2252.15 1481.64 Q2254.81 1478.89 2259.4 1474.26 Q2264 1469.61 2265.18 1468.27 Q2267.43 1465.74 2268.31 1464.01 Q2269.21 1462.25 2269.21 1460.56 Q2269.21 1457.8 2267.27 1456.07 Q2265.35 1454.33 2262.24 1454.33 Q2260.05 1454.33 2257.59 1455.09 Q2255.16 1455.86 2252.38 1457.41 L2252.38 1452.69 Q2255.21 1451.55 2257.66 1450.97 Q2260.11 1450.39 2262.15 1450.39 Q2267.52 1450.39 2270.72 1453.08 Q2273.91 1455.77 2273.91 1460.26 Q2273.91 1462.39 2273.1 1464.31 Q2272.31 1466.2 2270.21 1468.8 Q2269.63 1469.47 2266.53 1472.69 Q2263.43 1475.88 2257.78 1481.64 Z" fill="#000000" fill-rule="evenodd" fill-opacity="1" /><path clip-path="url(#clip770)" d="M2293.91 1454.1 Q2290.3 1454.1 2288.47 1457.66 Q2286.67 1461.2 2286.67 1468.33 Q2286.67 1475.44 2288.47 1479.01 Q2290.3 1482.55 2293.91 1482.55 Q2297.55 1482.55 2299.35 1479.01 Q2301.18 1475.44 2301.18 1468.33 Q2301.18 1461.2 2299.35 1457.66 Q2297.55 1454.1 2293.91 1454.1 M2293.91 1450.39 Q2299.72 1450.39 2302.78 1455 Q2305.86 1459.58 2305.86 1468.33 Q2305.86 1477.06 2302.78 1481.67 Q2299.72 1486.25 2293.91 1486.25 Q2288.1 1486.25 2285.02 1481.67 Q2281.97 1477.06 2281.97 1468.33 Q2281.97 1459.58 2285.02 1455 Q2288.1 1450.39 2293.91 1450.39 Z" fill="#000000" fill-rule="evenodd" fill-opacity="1" /><path clip-path="url(#clip770)" d="M2324.07 1454.1 Q2320.46 1454.1 2318.63 1457.66 Q2316.83 1461.2 2316.83 1468.33 Q2316.83 1475.44 2318.63 1479.01 Q2320.46 1482.55 2324.07 1482.55 Q2327.71 1482.55 2329.51 1479.01 Q2331.34 1475.44 2331.34 1468.33 Q2331.34 1461.2 2329.51 1457.66 Q2327.71 1454.1 2324.07 1454.1 M2324.07 1450.39 Q2329.88 1450.39 2332.94 1455 Q2336.02 1459.58 2336.02 1468.33 Q2336.02 1477.06 2332.94 1481.67 Q2329.88 1486.25 2324.07 1486.25 Q2318.26 1486.25 2315.18 1481.67 Q2312.13 1477.06 2312.13 1468.33 Q2312.13 1459.58 2315.18 1455 Q2318.26 1450.39 2324.07 1450.39 Z" fill="#000000" fill-rule="evenodd" fill-opacity="1" /><path clip-path="url(#clip770)" d="M1281.87 1533.45 L1281.87 1538.98 Q1279.39 1537.71 1276.71 1537.07 Q1274.04 1536.44 1271.18 1536.44 Q1266.82 1536.44 1264.62 1537.77 Q1262.46 1539.11 1262.46 1541.79 Q1262.46 1543.82 1264.02 1545 Q1265.57 1546.15 1270.29 1547.2 L1272.29 1547.64 Q1278.53 1548.98 1281.14 1551.43 Q1283.78 1553.85 1283.78 1558.21 Q1283.78 1563.17 1279.83 1566.07 Q1275.92 1568.97 1269.04 1568.97 Q1266.18 1568.97 1263.06 1568.39 Q1259.97 1567.85 1256.54 1566.74 L1256.54 1560.69 Q1259.78 1562.38 1262.93 1563.24 Q1266.08 1564.07 1269.17 1564.07 Q1273.31 1564.07 1275.54 1562.66 Q1277.77 1561.23 1277.77 1558.65 Q1277.77 1556.27 1276.14 1554.99 Q1274.55 1553.72 1269.11 1552.54 L1267.07 1552.07 Q1261.63 1550.92 1259.21 1548.56 Q1256.79 1546.18 1256.79 1542.04 Q1256.79 1537.01 1260.35 1534.27 Q1263.92 1531.54 1270.48 1531.54 Q1273.72 1531.54 1276.59 1532.01 Q1279.45 1532.49 1281.87 1533.45 Z" fill="#000000" fill-rule="evenodd" fill-opacity="1" /><path clip-path="url(#clip770)" d="M1293.11 1532.4 L1298.96 1532.4 L1298.96 1568.04 L1293.11 1568.04 L1293.11 1532.4 M1293.11 1518.52 L1298.96 1518.52 L1298.96 1525.93 L1293.11 1525.93 L1293.11 1518.52 Z" fill="#000000" fill-rule="evenodd" fill-opacity="1" /><path clip-path="url(#clip770)" d="M1308.67 1532.4 L1336.49 1532.4 L1336.49 1537.74 L1314.46 1563.37 L1336.49 1563.37 L1336.49 1568.04 L1307.87 1568.04 L1307.87 1562.7 L1329.9 1537.07 L1308.67 1537.07 L1308.67 1532.4 Z" fill="#000000" fill-rule="evenodd" fill-opacity="1" /><path clip-path="url(#clip770)" d="M1375.92 1548.76 L1375.92 1551.62 L1349 1551.62 Q1349.38 1557.67 1352.63 1560.85 Q1355.9 1564 1361.73 1564 Q1365.1 1564 1368.25 1563.17 Q1371.44 1562.35 1374.56 1560.69 L1374.56 1566.23 Q1371.4 1567.57 1368.09 1568.27 Q1364.78 1568.97 1361.38 1568.97 Q1352.85 1568.97 1347.85 1564 Q1342.89 1559.04 1342.89 1550.57 Q1342.89 1541.82 1347.6 1536.69 Q1352.34 1531.54 1360.36 1531.54 Q1367.55 1531.54 1371.72 1536.18 Q1375.92 1540.8 1375.92 1548.76 M1370.07 1547.04 Q1370 1542.23 1367.36 1539.37 Q1364.75 1536.5 1360.42 1536.5 Q1355.52 1536.5 1352.56 1539.27 Q1349.63 1542.04 1349.19 1547.07 L1370.07 1547.04 Z" fill="#000000" fill-rule="evenodd" fill-opacity="1" /><polyline clip-path="url(#clip772)" style="stroke:#000000; stroke-linecap:butt; stroke-linejoin:round; stroke-width:2; stroke-opacity:0.1; fill:none" points="
  279.704,1385.53 2352.76,1385.53 
  "/>
<polyline clip-path="url(#clip772)" style="stroke:#000000; stroke-linecap:butt; stroke-linejoin:round; stroke-width:2; stroke-opacity:0.1; fill:none" points="
  279.704,1092.36 2352.76,1092.36 
  "/>
<polyline clip-path="url(#clip772)" style="stroke:#000000; stroke-linecap:butt; stroke-linejoin:round; stroke-width:2; stroke-opacity:0.1; fill:none" points="
  279.704,799.184 2352.76,799.184 
  "/>
<polyline clip-path="url(#clip772)" style="stroke:#000000; stroke-linecap:butt; stroke-linejoin:round; stroke-width:2; stroke-opacity:0.1; fill:none" points="
  279.704,506.009 2352.76,506.009 
  "/>
<polyline clip-path="url(#clip772)" style="stroke:#000000; stroke-linecap:butt; stroke-linejoin:round; stroke-width:2; stroke-opacity:0.1; fill:none" points="
  279.704,212.834 2352.76,212.834 
  "/>
<polyline clip-path="url(#clip770)" style="stroke:#000000; stroke-linecap:butt; stroke-linejoin:round; stroke-width:4; stroke-opacity:1; fill:none" points="
  279.704,1423.18 279.704,123.472 
  "/>
<polyline clip-path="url(#clip770)" style="stroke:#000000; stroke-linecap:butt; stroke-linejoin:round; stroke-width:4; stroke-opacity:1; fill:none" points="
  279.704,1385.53 298.602,1385.53 
  "/>
<polyline clip-path="url(#clip770)" style="stroke:#000000; stroke-linecap:butt; stroke-linejoin:round; stroke-width:4; stroke-opacity:1; fill:none" points="
  279.704,1092.36 298.602,1092.36 
  "/>
<polyline clip-path="url(#clip770)" style="stroke:#000000; stroke-linecap:butt; stroke-linejoin:round; stroke-width:4; stroke-opacity:1; fill:none" points="
  279.704,799.184 298.602,799.184 
  "/>
<polyline clip-path="url(#clip770)" style="stroke:#000000; stroke-linecap:butt; stroke-linejoin:round; stroke-width:4; stroke-opacity:1; fill:none" points="
  279.704,506.009 298.602,506.009 
  "/>
<polyline clip-path="url(#clip770)" style="stroke:#000000; stroke-linecap:butt; stroke-linejoin:round; stroke-width:4; stroke-opacity:1; fill:none" points="
  279.704,212.834 298.602,212.834 
  "/>
<path clip-path="url(#clip770)" d="M126.205 1371.33 Q122.593 1371.33 120.765 1374.9 Q118.959 1378.44 118.959 1385.57 Q118.959 1392.68 120.765 1396.24 Q122.593 1399.78 126.205 1399.78 Q129.839 1399.78 131.644 1396.24 Q133.473 1392.68 133.473 1385.57 Q133.473 1378.44 131.644 1374.9 Q129.839 1371.33 126.205 1371.33 M126.205 1367.63 Q132.015 1367.63 135.07 1372.24 Q138.149 1376.82 138.149 1385.57 Q138.149 1394.3 135.07 1398.9 Q132.015 1403.49 126.205 1403.49 Q120.394 1403.49 117.316 1398.9 Q114.26 1394.3 114.26 1385.57 Q114.26 1376.82 117.316 1372.24 Q120.394 1367.63 126.205 1367.63 Z" fill="#000000" fill-rule="evenodd" fill-opacity="1" /><path clip-path="url(#clip770)" d="M146.366 1396.94 L151.251 1396.94 L151.251 1402.81 L146.366 1402.81 L146.366 1396.94 Z" fill="#000000" fill-rule="evenodd" fill-opacity="1" /><path clip-path="url(#clip770)" d="M171.436 1371.33 Q167.825 1371.33 165.996 1374.9 Q164.19 1378.44 164.19 1385.57 Q164.19 1392.68 165.996 1396.24 Q167.825 1399.78 171.436 1399.78 Q175.07 1399.78 176.876 1396.24 Q178.704 1392.68 178.704 1385.57 Q178.704 1378.44 176.876 1374.9 Q175.07 1371.33 171.436 1371.33 M171.436 1367.63 Q177.246 1367.63 180.301 1372.24 Q183.38 1376.82 183.38 1385.57 Q183.38 1394.3 180.301 1398.9 Q177.246 1403.49 171.436 1403.49 Q165.626 1403.49 162.547 1398.9 Q159.491 1394.3 159.491 1385.57 Q159.491 1376.82 162.547 1372.24 Q165.626 1367.63 171.436 1367.63 Z" fill="#000000" fill-rule="evenodd" fill-opacity="1" /><path clip-path="url(#clip770)" d="M201.598 1371.33 Q197.987 1371.33 196.158 1374.9 Q194.352 1378.44 194.352 1385.57 Q194.352 1392.68 196.158 1396.24 Q197.987 1399.78 201.598 1399.78 Q205.232 1399.78 207.037 1396.24 Q208.866 1392.68 208.866 1385.57 Q208.866 1378.44 207.037 1374.9 Q205.232 1371.33 201.598 1371.33 M201.598 1367.63 Q207.408 1367.63 210.463 1372.24 Q213.542 1376.82 213.542 1385.57 Q213.542 1394.3 210.463 1398.9 Q207.408 1403.49 201.598 1403.49 Q195.787 1403.49 192.709 1398.9 Q189.653 1394.3 189.653 1385.57 Q189.653 1376.82 192.709 1372.24 Q195.787 1367.63 201.598 1367.63 Z" fill="#000000" fill-rule="evenodd" fill-opacity="1" /><path clip-path="url(#clip770)" d="M231.76 1371.33 Q228.148 1371.33 226.32 1374.9 Q224.514 1378.44 224.514 1385.57 Q224.514 1392.68 226.32 1396.24 Q228.148 1399.78 231.76 1399.78 Q235.394 1399.78 237.199 1396.24 Q239.028 1392.68 239.028 1385.57 Q239.028 1378.44 237.199 1374.9 Q235.394 1371.33 231.76 1371.33 M231.76 1367.63 Q237.57 1367.63 240.625 1372.24 Q243.704 1376.82 243.704 1385.57 Q243.704 1394.3 240.625 1398.9 Q237.57 1403.49 231.76 1403.49 Q225.949 1403.49 222.871 1398.9 Q219.815 1394.3 219.815 1385.57 Q219.815 1376.82 222.871 1372.24 Q225.949 1367.63 231.76 1367.63 Z" fill="#000000" fill-rule="evenodd" fill-opacity="1" /><path clip-path="url(#clip770)" d="M127.2 1078.16 Q123.589 1078.16 121.76 1081.72 Q119.955 1085.26 119.955 1092.39 Q119.955 1099.5 121.76 1103.07 Q123.589 1106.61 127.2 1106.61 Q130.834 1106.61 132.64 1103.07 Q134.468 1099.5 134.468 1092.39 Q134.468 1085.26 132.64 1081.72 Q130.834 1078.16 127.2 1078.16 M127.2 1074.45 Q133.01 1074.45 136.066 1079.06 Q139.144 1083.64 139.144 1092.39 Q139.144 1101.12 136.066 1105.73 Q133.01 1110.31 127.2 1110.31 Q121.39 1110.31 118.311 1105.73 Q115.256 1101.12 115.256 1092.39 Q115.256 1083.64 118.311 1079.06 Q121.39 1074.45 127.2 1074.45 Z" fill="#000000" fill-rule="evenodd" fill-opacity="1" /><path clip-path="url(#clip770)" d="M147.362 1103.76 L152.246 1103.76 L152.246 1109.64 L147.362 1109.64 L147.362 1103.76 Z" fill="#000000" fill-rule="evenodd" fill-opacity="1" /><path clip-path="url(#clip770)" d="M172.431 1078.16 Q168.82 1078.16 166.991 1081.72 Q165.186 1085.26 165.186 1092.39 Q165.186 1099.5 166.991 1103.07 Q168.82 1106.61 172.431 1106.61 Q176.065 1106.61 177.871 1103.07 Q179.7 1099.5 179.7 1092.39 Q179.7 1085.26 177.871 1081.72 Q176.065 1078.16 172.431 1078.16 M172.431 1074.45 Q178.241 1074.45 181.297 1079.06 Q184.376 1083.64 184.376 1092.39 Q184.376 1101.12 181.297 1105.73 Q178.241 1110.31 172.431 1110.31 Q166.621 1110.31 163.542 1105.73 Q160.487 1101.12 160.487 1092.39 Q160.487 1083.64 163.542 1079.06 Q166.621 1074.45 172.431 1074.45 Z" fill="#000000" fill-rule="evenodd" fill-opacity="1" /><path clip-path="url(#clip770)" d="M202.593 1078.16 Q198.982 1078.16 197.153 1081.72 Q195.348 1085.26 195.348 1092.39 Q195.348 1099.5 197.153 1103.07 Q198.982 1106.61 202.593 1106.61 Q206.227 1106.61 208.033 1103.07 Q209.861 1099.5 209.861 1092.39 Q209.861 1085.26 208.033 1081.72 Q206.227 1078.16 202.593 1078.16 M202.593 1074.45 Q208.403 1074.45 211.459 1079.06 Q214.537 1083.64 214.537 1092.39 Q214.537 1101.12 211.459 1105.73 Q208.403 1110.31 202.593 1110.31 Q196.783 1110.31 193.704 1105.73 Q190.649 1101.12 190.649 1092.39 Q190.649 1083.64 193.704 1079.06 Q196.783 1074.45 202.593 1074.45 Z" fill="#000000" fill-rule="evenodd" fill-opacity="1" /><path clip-path="url(#clip770)" d="M222.801 1075.08 L241.158 1075.08 L241.158 1079.01 L227.084 1079.01 L227.084 1087.49 Q228.102 1087.14 229.121 1086.98 Q230.139 1086.79 231.158 1086.79 Q236.945 1086.79 240.324 1089.96 Q243.704 1093.14 243.704 1098.55 Q243.704 1104.13 240.232 1107.23 Q236.76 1110.31 230.44 1110.31 Q228.264 1110.31 225.996 1109.94 Q223.75 1109.57 221.343 1108.83 L221.343 1104.13 Q223.426 1105.26 225.648 1105.82 Q227.871 1106.38 230.347 1106.38 Q234.352 1106.38 236.69 1104.27 Q239.028 1102.16 239.028 1098.55 Q239.028 1094.94 236.69 1092.83 Q234.352 1090.73 230.347 1090.73 Q228.473 1090.73 226.598 1091.14 Q224.746 1091.56 222.801 1092.44 L222.801 1075.08 Z" fill="#000000" fill-rule="evenodd" fill-opacity="1" /><path clip-path="url(#clip770)" d="M126.205 784.983 Q122.593 784.983 120.765 788.548 Q118.959 792.09 118.959 799.219 Q118.959 806.326 120.765 809.89 Q122.593 813.432 126.205 813.432 Q129.839 813.432 131.644 809.89 Q133.473 806.326 133.473 799.219 Q133.473 792.09 131.644 788.548 Q129.839 784.983 126.205 784.983 M126.205 781.279 Q132.015 781.279 135.07 785.886 Q138.149 790.469 138.149 799.219 Q138.149 807.946 135.07 812.552 Q132.015 817.136 126.205 817.136 Q120.394 817.136 117.316 812.552 Q114.26 807.946 114.26 799.219 Q114.26 790.469 117.316 785.886 Q120.394 781.279 126.205 781.279 Z" fill="#000000" fill-rule="evenodd" fill-opacity="1" /><path clip-path="url(#clip770)" d="M146.366 810.585 L151.251 810.585 L151.251 816.464 L146.366 816.464 L146.366 810.585 Z" fill="#000000" fill-rule="evenodd" fill-opacity="1" /><path clip-path="url(#clip770)" d="M171.436 784.983 Q167.825 784.983 165.996 788.548 Q164.19 792.09 164.19 799.219 Q164.19 806.326 165.996 809.89 Q167.825 813.432 171.436 813.432 Q175.07 813.432 176.876 809.89 Q178.704 806.326 178.704 799.219 Q178.704 792.09 176.876 788.548 Q175.07 784.983 171.436 784.983 M171.436 781.279 Q177.246 781.279 180.301 785.886 Q183.38 790.469 183.38 799.219 Q183.38 807.946 180.301 812.552 Q177.246 817.136 171.436 817.136 Q165.626 817.136 162.547 812.552 Q159.491 807.946 159.491 799.219 Q159.491 790.469 162.547 785.886 Q165.626 781.279 171.436 781.279 Z" fill="#000000" fill-rule="evenodd" fill-opacity="1" /><path clip-path="url(#clip770)" d="M192.408 812.529 L200.047 812.529 L200.047 786.164 L191.737 787.83 L191.737 783.571 L200 781.904 L204.676 781.904 L204.676 812.529 L212.315 812.529 L212.315 816.464 L192.408 816.464 L192.408 812.529 Z" fill="#000000" fill-rule="evenodd" fill-opacity="1" /><path clip-path="url(#clip770)" d="M231.76 784.983 Q228.148 784.983 226.32 788.548 Q224.514 792.09 224.514 799.219 Q224.514 806.326 226.32 809.89 Q228.148 813.432 231.76 813.432 Q235.394 813.432 237.199 809.89 Q239.028 806.326 239.028 799.219 Q239.028 792.09 237.199 788.548 Q235.394 784.983 231.76 784.983 M231.76 781.279 Q237.57 781.279 240.625 785.886 Q243.704 790.469 243.704 799.219 Q243.704 807.946 240.625 812.552 Q237.57 817.136 231.76 817.136 Q225.949 817.136 222.871 812.552 Q219.815 807.946 219.815 799.219 Q219.815 790.469 222.871 785.886 Q225.949 781.279 231.76 781.279 Z" fill="#000000" fill-rule="evenodd" fill-opacity="1" /><path clip-path="url(#clip770)" d="M127.2 491.808 Q123.589 491.808 121.76 495.373 Q119.955 498.914 119.955 506.044 Q119.955 513.15 121.76 516.715 Q123.589 520.257 127.2 520.257 Q130.834 520.257 132.64 516.715 Q134.468 513.15 134.468 506.044 Q134.468 498.914 132.64 495.373 Q130.834 491.808 127.2 491.808 M127.2 488.104 Q133.01 488.104 136.066 492.711 Q139.144 497.294 139.144 506.044 Q139.144 514.771 136.066 519.377 Q133.01 523.96 127.2 523.96 Q121.39 523.96 118.311 519.377 Q115.256 514.771 115.256 506.044 Q115.256 497.294 118.311 492.711 Q121.39 488.104 127.2 488.104 Z" fill="#000000" fill-rule="evenodd" fill-opacity="1" /><path clip-path="url(#clip770)" d="M147.362 517.41 L152.246 517.41 L152.246 523.289 L147.362 523.289 L147.362 517.41 Z" fill="#000000" fill-rule="evenodd" fill-opacity="1" /><path clip-path="url(#clip770)" d="M172.431 491.808 Q168.82 491.808 166.991 495.373 Q165.186 498.914 165.186 506.044 Q165.186 513.15 166.991 516.715 Q168.82 520.257 172.431 520.257 Q176.065 520.257 177.871 516.715 Q179.7 513.15 179.7 506.044 Q179.7 498.914 177.871 495.373 Q176.065 491.808 172.431 491.808 M172.431 488.104 Q178.241 488.104 181.297 492.711 Q184.376 497.294 184.376 506.044 Q184.376 514.771 181.297 519.377 Q178.241 523.96 172.431 523.96 Q166.621 523.96 163.542 519.377 Q160.487 514.771 160.487 506.044 Q160.487 497.294 163.542 492.711 Q166.621 488.104 172.431 488.104 Z" fill="#000000" fill-rule="evenodd" fill-opacity="1" /><path clip-path="url(#clip770)" d="M193.403 519.354 L201.042 519.354 L201.042 492.988 L192.732 494.655 L192.732 490.396 L200.996 488.729 L205.672 488.729 L205.672 519.354 L213.311 519.354 L213.311 523.289 L193.403 523.289 L193.403 519.354 Z" fill="#000000" fill-rule="evenodd" fill-opacity="1" /><path clip-path="url(#clip770)" d="M222.801 488.729 L241.158 488.729 L241.158 492.664 L227.084 492.664 L227.084 501.136 Q228.102 500.789 229.121 500.627 Q230.139 500.442 231.158 500.442 Q236.945 500.442 240.324 503.613 Q243.704 506.785 243.704 512.201 Q243.704 517.78 240.232 520.882 Q236.76 523.96 230.44 523.96 Q228.264 523.96 225.996 523.59 Q223.75 523.22 221.343 522.479 L221.343 517.78 Q223.426 518.914 225.648 519.47 Q227.871 520.025 230.347 520.025 Q234.352 520.025 236.69 517.919 Q239.028 515.812 239.028 512.201 Q239.028 508.59 236.69 506.484 Q234.352 504.377 230.347 504.377 Q228.473 504.377 226.598 504.794 Q224.746 505.211 222.801 506.09 L222.801 488.729 Z" fill="#000000" fill-rule="evenodd" fill-opacity="1" /><path clip-path="url(#clip770)" d="M126.205 198.633 Q122.593 198.633 120.765 202.197 Q118.959 205.739 118.959 212.869 Q118.959 219.975 120.765 223.54 Q122.593 227.081 126.205 227.081 Q129.839 227.081 131.644 223.54 Q133.473 219.975 133.473 212.869 Q133.473 205.739 131.644 202.197 Q129.839 198.633 126.205 198.633 M126.205 194.929 Q132.015 194.929 135.07 199.535 Q138.149 204.119 138.149 212.869 Q138.149 221.595 135.07 226.202 Q132.015 230.785 126.205 230.785 Q120.394 230.785 117.316 226.202 Q114.26 221.595 114.26 212.869 Q114.26 204.119 117.316 199.535 Q120.394 194.929 126.205 194.929 Z" fill="#000000" fill-rule="evenodd" fill-opacity="1" /><path clip-path="url(#clip770)" d="M146.366 224.234 L151.251 224.234 L151.251 230.114 L146.366 230.114 L146.366 224.234 Z" fill="#000000" fill-rule="evenodd" fill-opacity="1" /><path clip-path="url(#clip770)" d="M171.436 198.633 Q167.825 198.633 165.996 202.197 Q164.19 205.739 164.19 212.869 Q164.19 219.975 165.996 223.54 Q167.825 227.081 171.436 227.081 Q175.07 227.081 176.876 223.54 Q178.704 219.975 178.704 212.869 Q178.704 205.739 176.876 202.197 Q175.07 198.633 171.436 198.633 M171.436 194.929 Q177.246 194.929 180.301 199.535 Q183.38 204.119 183.38 212.869 Q183.38 221.595 180.301 226.202 Q177.246 230.785 171.436 230.785 Q165.626 230.785 162.547 226.202 Q159.491 221.595 159.491 212.869 Q159.491 204.119 162.547 199.535 Q165.626 194.929 171.436 194.929 Z" fill="#000000" fill-rule="evenodd" fill-opacity="1" /><path clip-path="url(#clip770)" d="M195.625 226.179 L211.945 226.179 L211.945 230.114 L190 230.114 L190 226.179 Q192.663 223.424 197.246 218.794 Q201.852 214.142 203.033 212.799 Q205.278 210.276 206.158 208.54 Q207.061 206.781 207.061 205.091 Q207.061 202.336 205.116 200.6 Q203.195 198.864 200.093 198.864 Q197.894 198.864 195.44 199.628 Q193.01 200.392 190.232 201.943 L190.232 197.22 Q193.056 196.086 195.51 195.508 Q197.963 194.929 200 194.929 Q205.371 194.929 208.565 197.614 Q211.76 200.299 211.76 204.79 Q211.76 206.92 210.949 208.841 Q210.162 210.739 208.056 213.332 Q207.477 214.003 204.375 217.22 Q201.274 220.415 195.625 226.179 Z" fill="#000000" fill-rule="evenodd" fill-opacity="1" /><path clip-path="url(#clip770)" d="M231.76 198.633 Q228.148 198.633 226.32 202.197 Q224.514 205.739 224.514 212.869 Q224.514 219.975 226.32 223.54 Q228.148 227.081 231.76 227.081 Q235.394 227.081 237.199 223.54 Q239.028 219.975 239.028 212.869 Q239.028 205.739 237.199 202.197 Q235.394 198.633 231.76 198.633 M231.76 194.929 Q237.57 194.929 240.625 199.535 Q243.704 204.119 243.704 212.869 Q243.704 221.595 240.625 226.202 Q237.57 230.785 231.76 230.785 Q225.949 230.785 222.871 226.202 Q219.815 221.595 219.815 212.869 Q219.815 204.119 222.871 199.535 Q225.949 194.929 231.76 194.929 Z" fill="#000000" fill-rule="evenodd" fill-opacity="1" /><path clip-path="url(#clip770)" d="M18.2347 885.872 L28.3562 885.872 L28.3562 873.809 L32.9077 873.809 L32.9077 885.872 L52.2594 885.872 Q56.6199 885.872 57.8613 884.694 Q59.1026 883.485 59.1026 879.824 L59.1026 873.809 L64.0042 873.809 L64.0042 879.824 Q64.0042 886.604 61.4897 889.182 Q58.9434 891.76 52.2594 891.76 L32.9077 891.76 L32.9077 896.057 L28.3562 896.057 L28.3562 891.76 L18.2347 891.76 L18.2347 885.872 Z" fill="#000000" fill-rule="evenodd" fill-opacity="1" /><path clip-path="url(#clip770)" d="M28.3562 866.106 L28.3562 860.25 L64.0042 860.25 L64.0042 866.106 L28.3562 866.106 M14.479 866.106 L14.479 860.25 L21.895 860.25 L21.895 866.106 L14.479 866.106 Z" fill="#000000" fill-rule="evenodd" fill-opacity="1" /><path clip-path="url(#clip770)" d="M35.1993 820.241 Q31.2526 818.045 29.3747 814.99 Q27.4968 811.934 27.4968 807.796 Q27.4968 802.226 31.4117 799.203 Q35.2948 796.179 42.4881 796.179 L64.0042 796.179 L64.0042 802.067 L42.679 802.067 Q37.5546 802.067 35.072 803.881 Q32.5894 805.696 32.5894 809.42 Q32.5894 813.971 35.6131 816.613 Q38.6368 819.255 43.8567 819.255 L64.0042 819.255 L64.0042 825.143 L42.679 825.143 Q37.5228 825.143 35.072 826.957 Q32.5894 828.771 32.5894 832.559 Q32.5894 837.047 35.6449 839.688 Q38.6686 842.33 43.8567 842.33 L64.0042 842.33 L64.0042 848.219 L28.3562 848.219 L28.3562 842.33 L33.8944 842.33 Q30.616 840.325 29.0564 837.524 Q27.4968 834.723 27.4968 830.872 Q27.4968 826.989 29.4702 824.283 Q31.4436 821.546 35.1993 820.241 Z" fill="#000000" fill-rule="evenodd" fill-opacity="1" /><path clip-path="url(#clip770)" d="M44.7161 754.006 L47.5806 754.006 L47.5806 780.933 Q53.6281 780.551 56.8109 777.305 Q59.9619 774.026 59.9619 768.202 Q59.9619 764.828 59.1344 761.677 Q58.3069 758.494 56.6518 755.375 L62.1899 755.375 Q63.5267 758.526 64.227 761.836 Q64.9272 765.146 64.9272 768.552 Q64.9272 777.082 59.9619 782.079 Q54.9967 787.044 46.5303 787.044 Q37.7774 787.044 32.6531 782.333 Q27.4968 777.591 27.4968 769.57 Q27.4968 762.377 32.1438 758.207 Q36.7589 754.006 44.7161 754.006 M42.9973 759.863 Q38.1912 759.926 35.3266 762.568 Q32.4621 765.178 32.4621 769.507 Q32.4621 774.408 35.2312 777.368 Q38.0002 780.296 43.0292 780.742 L42.9973 759.863 Z" fill="#000000" fill-rule="evenodd" fill-opacity="1" /><path clip-path="url(#clip770)" d="M14.479 724.215 L14.479 710.719 L19.0304 710.719 L19.0304 718.358 L68.0464 718.358 L68.0464 710.719 L72.5979 710.719 L72.5979 724.215 L14.479 724.215 Z" fill="#000000" fill-rule="evenodd" fill-opacity="1" /><path clip-path="url(#clip770)" d="M29.4065 675.517 L34.9447 675.517 Q33.6716 678 33.035 680.673 Q32.3984 683.347 32.3984 686.211 Q32.3984 690.572 33.7352 692.768 Q35.072 694.932 37.7456 694.932 Q39.7826 694.932 40.9603 693.373 Q42.1061 691.813 43.1565 687.102 L43.6021 685.097 Q44.9389 678.859 47.3897 676.249 Q49.8086 673.607 54.1691 673.607 Q59.1344 673.607 62.0308 677.554 Q64.9272 681.469 64.9272 688.344 Q64.9272 691.208 64.3543 694.328 Q63.8132 697.415 62.6992 700.852 L56.6518 700.852 Q58.3387 697.606 59.198 694.455 Q60.0256 691.304 60.0256 688.216 Q60.0256 684.079 58.6251 681.851 Q57.1929 679.623 54.6147 679.623 Q52.2276 679.623 50.9545 681.246 Q49.6813 682.837 48.5037 688.28 L48.0262 690.317 Q46.8804 695.76 44.5251 698.179 Q42.138 700.598 38.0002 700.598 Q32.9713 700.598 30.2341 697.033 Q27.4968 693.468 27.4968 686.912 Q27.4968 683.665 27.9743 680.8 Q28.4517 677.936 29.4065 675.517 Z" fill="#000000" fill-rule="evenodd" fill-opacity="1" /><path clip-path="url(#clip770)" d="M14.479 650.595 L72.5979 650.595 L72.5979 664.09 L68.0464 664.09 L68.0464 656.483 L19.0304 656.483 L19.0304 664.09 L14.479 664.09 L14.479 650.595 Z" fill="#000000" fill-rule="evenodd" fill-opacity="1" /><path clip-path="url(#clip770)" d="M1237.62 43.6931 L1237.62 65.8515 L1250.75 65.8515 Q1257.35 65.8515 1260.51 63.1374 Q1263.71 60.3828 1263.71 54.752 Q1263.71 49.0808 1260.51 46.4072 Q1257.35 43.6931 1250.75 43.6931 L1237.62 43.6931 M1237.62 18.8205 L1237.62 37.0496 L1249.73 37.0496 Q1255.73 37.0496 1258.65 34.8216 Q1261.6 32.5531 1261.6 27.935 Q1261.6 23.3575 1258.65 21.089 Q1255.73 18.8205 1249.73 18.8205 L1237.62 18.8205 M1229.44 12.096 L1250.34 12.096 Q1259.7 12.096 1264.76 15.9849 Q1269.83 19.8737 1269.83 27.0438 Q1269.83 32.5936 1267.23 35.8748 Q1264.64 39.156 1259.62 39.9662 Q1265.65 41.2625 1268.98 45.3944 Q1272.34 49.4858 1272.34 55.6432 Q1272.34 63.745 1266.83 68.1605 Q1261.32 72.576 1251.15 72.576 L1229.44 72.576 L1229.44 12.096 Z" fill="#000000" fill-rule="evenodd" fill-opacity="1" /><path clip-path="url(#clip770)" d="M1324.84 48.0275 L1324.84 51.6733 L1290.57 51.6733 Q1291.05 59.3701 1295.19 63.421 Q1299.36 67.4314 1306.77 67.4314 Q1311.07 67.4314 1315.08 66.3781 Q1319.13 65.3249 1323.1 63.2184 L1323.1 70.267 Q1319.09 71.9684 1314.87 72.8596 Q1310.66 73.7508 1306.33 73.7508 Q1295.47 73.7508 1289.11 67.4314 Q1282.79 61.1119 1282.79 50.3365 Q1282.79 39.1965 1288.79 32.6746 Q1294.82 26.1121 1305.03 26.1121 Q1314.18 26.1121 1319.49 32.0264 Q1324.84 37.9003 1324.84 48.0275 M1317.38 45.84 Q1317.3 39.7232 1313.94 36.0774 Q1310.62 32.4315 1305.11 32.4315 Q1298.87 32.4315 1295.1 35.9558 Q1291.38 39.4801 1290.81 45.8805 L1317.38 45.84 Z" fill="#000000" fill-rule="evenodd" fill-opacity="1" /><path clip-path="url(#clip770)" d="M1366 28.5427 L1366 35.5912 Q1362.84 33.9709 1359.43 33.1607 Q1356.03 32.3505 1352.38 32.3505 Q1346.83 32.3505 1344.04 34.0519 Q1341.28 35.7533 1341.28 39.156 Q1341.28 41.7486 1343.27 43.2475 Q1345.25 44.7058 1351.25 46.0426 L1353.8 46.6097 Q1361.74 48.3111 1365.06 51.4303 Q1368.43 54.509 1368.43 60.0587 Q1368.43 66.3781 1363.4 70.0644 Q1358.42 73.7508 1349.67 73.7508 Q1346.02 73.7508 1342.05 73.0216 Q1338.13 72.3329 1333.75 70.9151 L1333.75 63.2184 Q1337.88 65.3654 1341.89 66.4591 Q1345.9 67.5124 1349.83 67.5124 Q1355.1 67.5124 1357.93 65.73 Q1360.77 63.9071 1360.77 60.6258 Q1360.77 57.5877 1358.7 55.9673 Q1356.68 54.3469 1349.75 52.8481 L1347.16 52.2405 Q1340.23 50.7821 1337.15 47.7845 Q1334.07 44.7463 1334.07 39.4801 Q1334.07 33.0797 1338.61 29.5959 Q1343.15 26.1121 1351.49 26.1121 Q1355.62 26.1121 1359.27 26.7198 Q1362.92 27.3274 1366 28.5427 Z" fill="#000000" fill-rule="evenodd" fill-opacity="1" /><path clip-path="url(#clip770)" d="M1387.67 14.324 L1387.67 27.2059 L1403.02 27.2059 L1403.02 32.9987 L1387.67 32.9987 L1387.67 57.6282 Q1387.67 63.1779 1389.17 64.7578 Q1390.71 66.3376 1395.36 66.3376 L1403.02 66.3376 L1403.02 72.576 L1395.36 72.576 Q1386.74 72.576 1383.45 69.3758 Q1380.17 66.1351 1380.17 57.6282 L1380.17 32.9987 L1374.7 32.9987 L1374.7 27.2059 L1380.17 27.2059 L1380.17 14.324 L1387.67 14.324 Z" fill="#000000" fill-rule="evenodd" fill-opacity="1" /><circle clip-path="url(#clip772)" cx="338.375" cy="1385.45" r="14" fill="#009af9" fill-rule="evenodd" fill-opacity="1" stroke="#000000" stroke-opacity="1" stroke-width="3.2"/>
<circle clip-path="url(#clip772)" cx="441.307" cy="1384.8" r="14" fill="#009af9" fill-rule="evenodd" fill-opacity="1" stroke="#000000" stroke-opacity="1" stroke-width="3.2"/>
<circle clip-path="url(#clip772)" cx="544.239" cy="1382.53" r="14" fill="#009af9" fill-rule="evenodd" fill-opacity="1" stroke="#000000" stroke-opacity="1" stroke-width="3.2"/>
<circle clip-path="url(#clip772)" cx="647.171" cy="1378.48" r="14" fill="#009af9" fill-rule="evenodd" fill-opacity="1" stroke="#000000" stroke-opacity="1" stroke-width="3.2"/>
<circle clip-path="url(#clip772)" cx="750.103" cy="1371.7" r="14" fill="#009af9" fill-rule="evenodd" fill-opacity="1" stroke="#000000" stroke-opacity="1" stroke-width="3.2"/>
<circle clip-path="url(#clip772)" cx="853.036" cy="1359.97" r="14" fill="#009af9" fill-rule="evenodd" fill-opacity="1" stroke="#000000" stroke-opacity="1" stroke-width="3.2"/>
<circle clip-path="url(#clip772)" cx="955.968" cy="1341.56" r="14" fill="#009af9" fill-rule="evenodd" fill-opacity="1" stroke="#000000" stroke-opacity="1" stroke-width="3.2"/>
<circle clip-path="url(#clip772)" cx="1058.9" cy="1311.29" r="14" fill="#009af9" fill-rule="evenodd" fill-opacity="1" stroke="#000000" stroke-opacity="1" stroke-width="3.2"/>
<circle clip-path="url(#clip772)" cx="1161.83" cy="1285.14" r="14" fill="#009af9" fill-rule="evenodd" fill-opacity="1" stroke="#000000" stroke-opacity="1" stroke-width="3.2"/>
<circle clip-path="url(#clip772)" cx="1264.76" cy="1239.85" r="14" fill="#009af9" fill-rule="evenodd" fill-opacity="1" stroke="#000000" stroke-opacity="1" stroke-width="3.2"/>
<circle clip-path="url(#clip772)" cx="1367.7" cy="1202.86" r="14" fill="#009af9" fill-rule="evenodd" fill-opacity="1" stroke="#000000" stroke-opacity="1" stroke-width="3.2"/>
<circle clip-path="url(#clip772)" cx="1470.63" cy="1134.63" r="14" fill="#009af9" fill-rule="evenodd" fill-opacity="1" stroke="#000000" stroke-opacity="1" stroke-width="3.2"/>
<circle clip-path="url(#clip772)" cx="1573.56" cy="1072.88" r="14" fill="#009af9" fill-rule="evenodd" fill-opacity="1" stroke="#000000" stroke-opacity="1" stroke-width="3.2"/>
<circle clip-path="url(#clip772)" cx="1676.49" cy="984.831" r="14" fill="#009af9" fill-rule="evenodd" fill-opacity="1" stroke="#000000" stroke-opacity="1" stroke-width="3.2"/>
<circle clip-path="url(#clip772)" cx="1779.42" cy="892.121" r="14" fill="#009af9" fill-rule="evenodd" fill-opacity="1" stroke="#000000" stroke-opacity="1" stroke-width="3.2"/>
<circle clip-path="url(#clip772)" cx="1882.36" cy="781.2" r="14" fill="#009af9" fill-rule="evenodd" fill-opacity="1" stroke="#000000" stroke-opacity="1" stroke-width="3.2"/>
<circle clip-path="url(#clip772)" cx="1985.29" cy="645.419" r="14" fill="#009af9" fill-rule="evenodd" fill-opacity="1" stroke="#000000" stroke-opacity="1" stroke-width="3.2"/>
<circle clip-path="url(#clip772)" cx="2088.22" cy="480.702" r="14" fill="#009af9" fill-rule="evenodd" fill-opacity="1" stroke="#000000" stroke-opacity="1" stroke-width="3.2"/>
<circle clip-path="url(#clip772)" cx="2191.15" cy="316.83" r="14" fill="#009af9" fill-rule="evenodd" fill-opacity="1" stroke="#000000" stroke-opacity="1" stroke-width="3.2"/>
<circle clip-path="url(#clip772)" cx="2294.08" cy="185.441" r="14" fill="#009af9" fill-rule="evenodd" fill-opacity="1" stroke="#000000" stroke-opacity="1" stroke-width="3.2"/>
<circle clip-path="url(#clip772)" cx="338.375" cy="1385.45" r="14" fill="#e26f46" fill-rule="evenodd" fill-opacity="1" stroke="#000000" stroke-opacity="1" stroke-width="3.2"/>
<circle clip-path="url(#clip772)" cx="441.307" cy="1384.79" r="14" fill="#e26f46" fill-rule="evenodd" fill-opacity="1" stroke="#000000" stroke-opacity="1" stroke-width="3.2"/>
<circle clip-path="url(#clip772)" cx="544.239" cy="1383.23" r="14" fill="#e26f46" fill-rule="evenodd" fill-opacity="1" stroke="#000000" stroke-opacity="1" stroke-width="3.2"/>
<circle clip-path="url(#clip772)" cx="647.171" cy="1380.34" r="14" fill="#e26f46" fill-rule="evenodd" fill-opacity="1" stroke="#000000" stroke-opacity="1" stroke-width="3.2"/>
<circle clip-path="url(#clip772)" cx="750.103" cy="1375.2" r="14" fill="#e26f46" fill-rule="evenodd" fill-opacity="1" stroke="#000000" stroke-opacity="1" stroke-width="3.2"/>
<circle clip-path="url(#clip772)" cx="853.036" cy="1368.46" r="14" fill="#e26f46" fill-rule="evenodd" fill-opacity="1" stroke="#000000" stroke-opacity="1" stroke-width="3.2"/>
<circle clip-path="url(#clip772)" cx="955.968" cy="1351.36" r="14" fill="#e26f46" fill-rule="evenodd" fill-opacity="1" stroke="#000000" stroke-opacity="1" stroke-width="3.2"/>
<circle clip-path="url(#clip772)" cx="1058.9" cy="1337.89" r="14" fill="#e26f46" fill-rule="evenodd" fill-opacity="1" stroke="#000000" stroke-opacity="1" stroke-width="3.2"/>
<circle clip-path="url(#clip772)" cx="1161.83" cy="1325.51" r="14" fill="#e26f46" fill-rule="evenodd" fill-opacity="1" stroke="#000000" stroke-opacity="1" stroke-width="3.2"/>
<circle clip-path="url(#clip772)" cx="1264.76" cy="1308.93" r="14" fill="#e26f46" fill-rule="evenodd" fill-opacity="1" stroke="#000000" stroke-opacity="1" stroke-width="3.2"/>
<circle clip-path="url(#clip772)" cx="1367.7" cy="1288.15" r="14" fill="#e26f46" fill-rule="evenodd" fill-opacity="1" stroke="#000000" stroke-opacity="1" stroke-width="3.2"/>
<circle clip-path="url(#clip772)" cx="1470.63" cy="1253.62" r="14" fill="#e26f46" fill-rule="evenodd" fill-opacity="1" stroke="#000000" stroke-opacity="1" stroke-width="3.2"/>
<circle clip-path="url(#clip772)" cx="1573.56" cy="1217.18" r="14" fill="#e26f46" fill-rule="evenodd" fill-opacity="1" stroke="#000000" stroke-opacity="1" stroke-width="3.2"/>
<circle clip-path="url(#clip772)" cx="1676.49" cy="1177.35" r="14" fill="#e26f46" fill-rule="evenodd" fill-opacity="1" stroke="#000000" stroke-opacity="1" stroke-width="3.2"/>
<circle clip-path="url(#clip772)" cx="1779.42" cy="1143.52" r="14" fill="#e26f46" fill-rule="evenodd" fill-opacity="1" stroke="#000000" stroke-opacity="1" stroke-width="3.2"/>
<circle clip-path="url(#clip772)" cx="1882.36" cy="1095.19" r="14" fill="#e26f46" fill-rule="evenodd" fill-opacity="1" stroke="#000000" stroke-opacity="1" stroke-width="3.2"/>
<circle clip-path="url(#clip772)" cx="1985.29" cy="1028.2" r="14" fill="#e26f46" fill-rule="evenodd" fill-opacity="1" stroke="#000000" stroke-opacity="1" stroke-width="3.2"/>
<circle clip-path="url(#clip772)" cx="2088.22" cy="902.723" r="14" fill="#e26f46" fill-rule="evenodd" fill-opacity="1" stroke="#000000" stroke-opacity="1" stroke-width="3.2"/>
<circle clip-path="url(#clip772)" cx="2191.15" cy="838.972" r="14" fill="#e26f46" fill-rule="evenodd" fill-opacity="1" stroke="#000000" stroke-opacity="1" stroke-width="3.2"/>
<circle clip-path="url(#clip772)" cx="2294.08" cy="809.419" r="14" fill="#e26f46" fill-rule="evenodd" fill-opacity="1" stroke="#000000" stroke-opacity="1" stroke-width="3.2"/>
<circle clip-path="url(#clip772)" cx="338.375" cy="1385.45" r="14" fill="#3da44d" fill-rule="evenodd" fill-opacity="1" stroke="#000000" stroke-opacity="1" stroke-width="3.2"/>
<circle clip-path="url(#clip772)" cx="441.307" cy="1385.23" r="14" fill="#3da44d" fill-rule="evenodd" fill-opacity="1" stroke="#000000" stroke-opacity="1" stroke-width="3.2"/>
<circle clip-path="url(#clip772)" cx="544.239" cy="1384.84" r="14" fill="#3da44d" fill-rule="evenodd" fill-opacity="1" stroke="#000000" stroke-opacity="1" stroke-width="3.2"/>
<circle clip-path="url(#clip772)" cx="647.171" cy="1383.65" r="14" fill="#3da44d" fill-rule="evenodd" fill-opacity="1" stroke="#000000" stroke-opacity="1" stroke-width="3.2"/>
<circle clip-path="url(#clip772)" cx="750.103" cy="1381.12" r="14" fill="#3da44d" fill-rule="evenodd" fill-opacity="1" stroke="#000000" stroke-opacity="1" stroke-width="3.2"/>
<circle clip-path="url(#clip772)" cx="853.036" cy="1380.96" r="14" fill="#3da44d" fill-rule="evenodd" fill-opacity="1" stroke="#000000" stroke-opacity="1" stroke-width="3.2"/>
<circle clip-path="url(#clip772)" cx="955.968" cy="1380.26" r="14" fill="#3da44d" fill-rule="evenodd" fill-opacity="1" stroke="#000000" stroke-opacity="1" stroke-width="3.2"/>
<circle clip-path="url(#clip772)" cx="1058.9" cy="1374.5" r="14" fill="#3da44d" fill-rule="evenodd" fill-opacity="1" stroke="#000000" stroke-opacity="1" stroke-width="3.2"/>
<circle clip-path="url(#clip772)" cx="1161.83" cy="1370.54" r="14" fill="#3da44d" fill-rule="evenodd" fill-opacity="1" stroke="#000000" stroke-opacity="1" stroke-width="3.2"/>
<circle clip-path="url(#clip772)" cx="1264.76" cy="1365.05" r="14" fill="#3da44d" fill-rule="evenodd" fill-opacity="1" stroke="#000000" stroke-opacity="1" stroke-width="3.2"/>
<circle clip-path="url(#clip772)" cx="1367.7" cy="1359.31" r="14" fill="#3da44d" fill-rule="evenodd" fill-opacity="1" stroke="#000000" stroke-opacity="1" stroke-width="3.2"/>
<circle clip-path="url(#clip772)" cx="1470.63" cy="1348.66" r="14" fill="#3da44d" fill-rule="evenodd" fill-opacity="1" stroke="#000000" stroke-opacity="1" stroke-width="3.2"/>
<circle clip-path="url(#clip772)" cx="1573.56" cy="1343.64" r="14" fill="#3da44d" fill-rule="evenodd" fill-opacity="1" stroke="#000000" stroke-opacity="1" stroke-width="3.2"/>
<circle clip-path="url(#clip772)" cx="1676.49" cy="1341.36" r="14" fill="#3da44d" fill-rule="evenodd" fill-opacity="1" stroke="#000000" stroke-opacity="1" stroke-width="3.2"/>
<circle clip-path="url(#clip772)" cx="1779.42" cy="1320.83" r="14" fill="#3da44d" fill-rule="evenodd" fill-opacity="1" stroke="#000000" stroke-opacity="1" stroke-width="3.2"/>
<circle clip-path="url(#clip772)" cx="1882.36" cy="1314.68" r="14" fill="#3da44d" fill-rule="evenodd" fill-opacity="1" stroke="#000000" stroke-opacity="1" stroke-width="3.2"/>
<circle clip-path="url(#clip772)" cx="1985.29" cy="1292.51" r="14" fill="#3da44d" fill-rule="evenodd" fill-opacity="1" stroke="#000000" stroke-opacity="1" stroke-width="3.2"/>
<circle clip-path="url(#clip772)" cx="2088.22" cy="1285.91" r="14" fill="#3da44d" fill-rule="evenodd" fill-opacity="1" stroke="#000000" stroke-opacity="1" stroke-width="3.2"/>
<circle clip-path="url(#clip772)" cx="2191.15" cy="1257.09" r="14" fill="#3da44d" fill-rule="evenodd" fill-opacity="1" stroke="#000000" stroke-opacity="1" stroke-width="3.2"/>
<circle clip-path="url(#clip772)" cx="2294.08" cy="1252.82" r="14" fill="#3da44d" fill-rule="evenodd" fill-opacity="1" stroke="#000000" stroke-opacity="1" stroke-width="3.2"/>
<polyline clip-path="url(#clip772)" style="stroke:#c271d2; stroke-linecap:butt; stroke-linejoin:round; stroke-width:4; stroke-opacity:1; fill:none" points="
  338.375,1384.61 357.932,1384.64 377.489,1384.64 397.046,1384.61 416.604,1384.55 436.161,1384.44 455.718,1384.28 475.275,1384.07 494.832,1383.79 514.389,1383.44 
  533.946,1383.01 553.503,1382.49 573.06,1381.89 592.617,1381.18 612.175,1380.37 631.732,1379.45 651.289,1378.41 670.846,1377.24 690.403,1375.94 709.96,1374.5 
  729.517,1372.91 749.074,1371.17 768.631,1369.26 788.188,1367.19 807.745,1364.95 827.303,1362.52 846.86,1359.91 866.417,1357.1 885.974,1354.09 905.531,1350.87 
  925.088,1347.43 944.645,1343.78 964.202,1339.89 983.759,1335.76 1003.32,1331.4 1022.87,1326.78 1042.43,1321.9 1061.99,1316.77 1081.54,1311.36 1101.1,1305.67 
  1120.66,1299.7 1140.22,1293.43 1159.77,1286.87 1179.33,1280.01 1198.89,1272.83 1218.44,1265.33 1238,1257.51 1257.56,1249.35 1277.12,1240.85 1296.67,1232.01 
  1316.23,1222.81 1335.79,1213.26 1355.34,1203.33 1374.9,1193.04 1394.46,1182.36 1414.02,1171.29 1433.57,1159.83 1453.13,1147.97 1472.69,1135.7 1492.24,1123.01 
  1511.8,1109.9 1531.36,1096.36 1550.92,1082.39 1570.47,1067.97 1590.03,1053.1 1609.59,1037.78 1629.14,1021.99 1648.7,1005.74 1668.26,989.002 1687.81,971.783 
  1707.37,954.072 1726.93,935.864 1746.49,917.151 1766.04,897.926 1785.6,878.183 1805.16,857.914 1824.71,837.113 1844.27,815.772 1863.83,793.885 1883.39,771.445 
  1902.94,748.445 1922.5,724.878 1942.06,700.738 1961.61,676.017 1981.17,650.708 2000.73,624.805 2020.29,598.301 2039.84,571.189 2059.4,543.462 2078.96,515.112 
  2098.51,486.134 2118.07,456.521 2137.63,426.265 2157.18,395.359 2176.74,363.797 2196.3,331.572 2215.86,298.676 2235.41,265.104 2254.97,230.848 2274.53,195.901 
  2294.08,160.256 
  "/>
<polyline clip-path="url(#clip772)" style="stroke:#ac8d18; stroke-linecap:butt; stroke-linejoin:round; stroke-width:4; stroke-opacity:1; fill:none" points="
  338.375,1386.4 357.932,1386.03 377.489,1385.66 397.046,1385.28 416.604,1384.89 436.161,1384.49 455.718,1384.07 475.275,1383.63 494.832,1383.17 514.389,1382.68 
  533.946,1382.16 553.503,1381.61 573.06,1381.01 592.617,1380.38 612.175,1379.71 631.732,1378.98 651.289,1378.21 670.846,1377.38 690.403,1376.49 709.96,1375.54 
  729.517,1374.52 749.074,1373.44 768.631,1372.28 788.188,1371.05 807.745,1369.74 827.303,1368.35 846.86,1366.88 866.417,1365.31 885.974,1363.65 905.531,1361.9 
  925.088,1360.04 944.645,1358.09 964.202,1356.02 983.759,1353.85 1003.32,1351.56 1022.87,1349.16 1042.43,1346.64 1061.99,1343.99 1081.54,1341.22 1101.1,1338.32 
  1120.66,1335.28 1140.22,1332.11 1159.77,1328.79 1179.33,1325.33 1198.89,1321.73 1218.44,1317.97 1238,1314.06 1257.56,1309.99 1277.12,1305.76 1296.67,1301.36 
  1316.23,1296.8 1335.79,1292.06 1355.34,1287.15 1374.9,1282.07 1394.46,1276.8 1414.02,1271.34 1433.57,1265.69 1453.13,1259.86 1472.69,1253.82 1492.24,1247.59 
  1511.8,1241.16 1531.36,1234.52 1550.92,1227.67 1570.47,1220.61 1590.03,1213.33 1609.59,1205.83 1629.14,1198.11 1648.7,1190.16 1668.26,1181.98 1687.81,1173.57 
  1707.37,1164.92 1726.93,1156.03 1746.49,1146.9 1766.04,1137.52 1785.6,1127.88 1805.16,1118 1824.71,1107.86 1844.27,1097.45 1863.83,1086.78 1883.39,1075.85 
  1902.94,1064.64 1922.5,1053.16 1942.06,1041.4 1961.61,1029.35 1981.17,1017.03 2000.73,1004.41 2020.29,991.504 2039.84,978.3 2059.4,964.798 2078.96,950.994 
  2098.51,936.884 2118.07,922.464 2137.63,907.733 2157.18,892.685 2176.74,877.317 2196.3,861.627 2215.86,845.61 2235.41,829.263 2254.97,812.584 2274.53,795.567 
  2294.08,778.21 
  "/>
<polyline clip-path="url(#clip772)" style="stroke:#00a9ad; stroke-linecap:butt; stroke-linejoin:round; stroke-width:4; stroke-opacity:1; fill:none" points="
  338.375,1385.01 357.932,1385.05 377.489,1385.09 397.046,1385.11 416.604,1385.12 436.161,1385.12 455.718,1385.1 475.275,1385.07 494.832,1385.02 514.389,1384.96 
  533.946,1384.88 553.503,1384.78 573.06,1384.67 592.617,1384.54 612.175,1384.39 631.732,1384.22 651.289,1384.03 670.846,1383.82 690.403,1383.59 709.96,1383.34 
  729.517,1383.07 749.074,1382.78 768.631,1382.46 788.188,1382.12 807.745,1381.76 827.303,1381.37 846.86,1380.96 866.417,1380.53 885.974,1380.07 905.531,1379.58 
  925.088,1379.07 944.645,1378.53 964.202,1377.96 983.759,1377.37 1003.32,1376.74 1022.87,1376.09 1042.43,1375.41 1061.99,1374.7 1081.54,1373.95 1101.1,1373.18 
  1120.66,1372.38 1140.22,1371.54 1159.77,1370.67 1179.33,1369.77 1198.89,1368.83 1218.44,1367.86 1238,1366.86 1257.56,1365.82 1277.12,1364.74 1296.67,1363.63 
  1316.23,1362.48 1335.79,1361.3 1355.34,1360.07 1374.9,1358.81 1394.46,1357.52 1414.02,1356.18 1433.57,1354.8 1453.13,1353.38 1472.69,1351.92 1492.24,1350.42 
  1511.8,1348.88 1531.36,1347.3 1550.92,1345.67 1570.47,1344.01 1590.03,1342.29 1609.59,1340.54 1629.14,1338.74 1648.7,1336.89 1668.26,1335 1687.81,1333.06 
  1707.37,1331.07 1726.93,1329.04 1746.49,1326.96 1766.04,1324.84 1785.6,1322.66 1805.16,1320.43 1824.71,1318.16 1844.27,1315.83 1863.83,1313.46 1883.39,1311.03 
  1902.94,1308.55 1922.5,1306.02 1942.06,1303.44 1961.61,1300.8 1981.17,1298.11 2000.73,1295.36 2020.29,1292.56 2039.84,1289.71 2059.4,1286.8 2078.96,1283.83 
  2098.51,1280.81 2118.07,1277.73 2137.63,1274.59 2157.18,1271.39 2176.74,1268.13 2196.3,1264.82 2215.86,1261.44 2235.41,1258.01 2254.97,1254.51 2274.53,1250.96 
  2294.08,1247.34 
  "/>
<path clip-path="url(#clip770)" d="
M1683.83 529.676 L2283.65 529.676 L2283.65 166.796 L1683.83 166.796  Z
  " fill="#ffffff" fill-rule="evenodd" fill-opacity="1"/>
<polyline clip-path="url(#clip770)" style="stroke:#000000; stroke-linecap:butt; stroke-linejoin:round; stroke-width:4; stroke-opacity:1; fill:none" points="
  1683.83,529.676 2283.65,529.676 2283.65,166.796 1683.83,166.796 1683.83,529.676 
  "/>
<circle clip-path="url(#clip770)" cx="1775.96" cy="218.636" r="23" fill="#009af9" fill-rule="evenodd" fill-opacity="1" stroke="#000000" stroke-opacity="1" stroke-width="5.12"/>
<path clip-path="url(#clip770)" d="M1868.1 199.897 L1877.91 199.897 L1877.91 203.208 L1872.36 203.208 L1872.36 238.856 L1877.91 238.856 L1877.91 242.166 L1868.1 242.166 L1868.1 199.897 Z" fill="#000000" fill-rule="evenodd" fill-opacity="1" /><path clip-path="url(#clip770)" d="M1891.01 201.356 L1891.01 214.203 L1887.08 214.203 L1887.08 201.356 L1891.01 201.356 M1899.76 201.356 L1899.76 214.203 L1895.83 214.203 L1895.83 201.356 L1899.76 201.356 Z" fill="#000000" fill-rule="evenodd" fill-opacity="1" /><path clip-path="url(#clip770)" d="M1928.98 214.967 Q1930.57 212.096 1932.8 210.731 Q1935.02 209.365 1938.03 209.365 Q1942.08 209.365 1944.28 212.212 Q1946.48 215.036 1946.48 220.268 L1946.48 235.916 L1942.19 235.916 L1942.19 220.407 Q1942.19 216.68 1940.87 214.874 Q1939.56 213.069 1936.85 213.069 Q1933.54 213.069 1931.62 215.268 Q1929.69 217.467 1929.69 221.263 L1929.69 235.916 L1925.41 235.916 L1925.41 220.407 Q1925.41 216.657 1924.09 214.874 Q1922.77 213.069 1920.02 213.069 Q1916.75 213.069 1914.83 215.291 Q1912.91 217.49 1912.91 221.263 L1912.91 235.916 L1908.63 235.916 L1908.63 209.99 L1912.91 209.99 L1912.91 214.018 Q1914.37 211.633 1916.41 210.499 Q1918.44 209.365 1921.25 209.365 Q1924.07 209.365 1926.04 210.8 Q1928.03 212.235 1928.98 214.967 Z" fill="#000000" fill-rule="evenodd" fill-opacity="1" /><path clip-path="url(#clip770)" d="M1977.15 221.888 L1977.15 223.971 L1957.56 223.971 Q1957.84 228.369 1960.2 230.684 Q1962.59 232.976 1966.82 232.976 Q1969.28 232.976 1971.57 232.374 Q1973.88 231.772 1976.15 230.569 L1976.15 234.596 Q1973.86 235.568 1971.45 236.078 Q1969.05 236.587 1966.57 236.587 Q1960.37 236.587 1956.73 232.976 Q1953.12 229.365 1953.12 223.207 Q1953.12 216.842 1956.55 213.115 Q1960 209.365 1965.83 209.365 Q1971.06 209.365 1974.09 212.745 Q1977.15 216.101 1977.15 221.888 M1972.89 220.638 Q1972.84 217.143 1970.92 215.059 Q1969.02 212.976 1965.87 212.976 Q1962.31 212.976 1960.16 214.99 Q1958.03 217.004 1957.7 220.661 L1972.89 220.638 Z" fill="#000000" fill-rule="evenodd" fill-opacity="1" /><path clip-path="url(#clip770)" d="M1995.92 222.883 Q1990.76 222.883 1988.77 224.064 Q1986.78 225.244 1986.78 228.092 Q1986.78 230.36 1988.26 231.703 Q1989.76 233.022 1992.33 233.022 Q1995.87 233.022 1998 230.522 Q2000.16 227.999 2000.16 223.832 L2000.16 222.883 L1995.92 222.883 M2004.42 221.124 L2004.42 235.916 L2000.16 235.916 L2000.16 231.981 Q1998.7 234.342 1996.52 235.476 Q1994.35 236.587 1991.2 236.587 Q1987.22 236.587 1984.86 234.365 Q1982.52 232.119 1982.52 228.369 Q1982.52 223.994 1985.43 221.772 Q1988.37 219.55 1994.18 219.55 L2000.16 219.55 L2000.16 219.133 Q2000.16 216.194 1998.21 214.596 Q1996.29 212.976 1992.8 212.976 Q1990.57 212.976 1988.47 213.508 Q1986.36 214.041 1984.42 215.106 L1984.42 211.17 Q1986.75 210.268 1988.95 209.828 Q1991.15 209.365 1993.24 209.365 Q1998.86 209.365 2001.64 212.282 Q2004.42 215.198 2004.42 221.124 Z" fill="#000000" fill-rule="evenodd" fill-opacity="1" /><path clip-path="url(#clip770)" d="M2034.74 220.268 L2034.74 235.916 L2030.48 235.916 L2030.48 220.407 Q2030.48 216.726 2029.05 214.897 Q2027.61 213.069 2024.74 213.069 Q2021.29 213.069 2019.3 215.268 Q2017.31 217.467 2017.31 221.263 L2017.31 235.916 L2013.03 235.916 L2013.03 209.99 L2017.31 209.99 L2017.31 214.018 Q2018.84 211.68 2020.9 210.522 Q2022.98 209.365 2025.69 209.365 Q2030.16 209.365 2032.45 212.143 Q2034.74 214.897 2034.74 220.268 Z" fill="#000000" fill-rule="evenodd" fill-opacity="1" /><path clip-path="url(#clip770)" d="M2058.49 201.356 L2064.79 201.356 L2080.11 230.268 L2080.11 201.356 L2084.65 201.356 L2084.65 235.916 L2078.35 235.916 L2063.03 207.004 L2063.03 235.916 L2058.49 235.916 L2058.49 201.356 Z" fill="#000000" fill-rule="evenodd" fill-opacity="1" /><path clip-path="url(#clip770)" d="M2105.55 222.883 Q2100.39 222.883 2098.4 224.064 Q2096.41 225.244 2096.41 228.092 Q2096.41 230.36 2097.89 231.703 Q2099.39 233.022 2101.96 233.022 Q2105.5 233.022 2107.63 230.522 Q2109.79 227.999 2109.79 223.832 L2109.79 222.883 L2105.55 222.883 M2114.05 221.124 L2114.05 235.916 L2109.79 235.916 L2109.79 231.981 Q2108.33 234.342 2106.15 235.476 Q2103.98 236.587 2100.83 236.587 Q2096.85 236.587 2094.49 234.365 Q2092.15 232.119 2092.15 228.369 Q2092.15 223.994 2095.06 221.772 Q2098 219.55 2103.81 219.55 L2109.79 219.55 L2109.79 219.133 Q2109.79 216.194 2107.84 214.596 Q2105.92 212.976 2102.43 212.976 Q2100.2 212.976 2098.1 213.508 Q2095.99 214.041 2094.05 215.106 L2094.05 211.17 Q2096.38 210.268 2098.58 209.828 Q2100.78 209.365 2102.86 209.365 Q2108.49 209.365 2111.27 212.282 Q2114.05 215.198 2114.05 221.124 Z" fill="#000000" fill-rule="evenodd" fill-opacity="1" /><path clip-path="url(#clip770)" d="M2122.82 209.99 L2127.08 209.99 L2127.08 235.916 L2122.82 235.916 L2122.82 209.99 M2122.82 199.897 L2127.08 199.897 L2127.08 205.291 L2122.82 205.291 L2122.82 199.897 Z" fill="#000000" fill-rule="evenodd" fill-opacity="1" /><path clip-path="url(#clip770)" d="M2132.93 209.99 L2137.45 209.99 L2145.55 231.749 L2153.65 209.99 L2158.17 209.99 L2148.44 235.916 L2142.66 235.916 L2132.93 209.99 Z" fill="#000000" fill-rule="evenodd" fill-opacity="1" /><path clip-path="url(#clip770)" d="M2186.22 221.888 L2186.22 223.971 L2166.64 223.971 Q2166.92 228.369 2169.28 230.684 Q2171.66 232.976 2175.9 232.976 Q2178.35 232.976 2180.64 232.374 Q2182.96 231.772 2185.23 230.569 L2185.23 234.596 Q2182.93 235.568 2180.53 236.078 Q2178.12 236.587 2175.64 236.587 Q2169.44 236.587 2165.8 232.976 Q2162.19 229.365 2162.19 223.207 Q2162.19 216.842 2165.62 213.115 Q2169.07 209.365 2174.9 209.365 Q2180.13 209.365 2183.17 212.745 Q2186.22 216.101 2186.22 221.888 M2181.96 220.638 Q2181.92 217.143 2179.99 215.059 Q2178.1 212.976 2174.95 212.976 Q2171.38 212.976 2169.23 214.99 Q2167.1 217.004 2166.78 220.661 L2181.96 220.638 Z" fill="#000000" fill-rule="evenodd" fill-opacity="1" /><path clip-path="url(#clip770)" d="M2197.24 201.356 L2197.24 214.203 L2193.3 214.203 L2193.3 201.356 L2197.24 201.356 M2205.99 201.356 L2205.99 214.203 L2202.05 214.203 L2202.05 201.356 L2205.99 201.356 Z" fill="#000000" fill-rule="evenodd" fill-opacity="1" /><path clip-path="url(#clip770)" d="M2224.97 199.897 L2224.97 242.166 L2215.16 242.166 L2215.16 238.856 L2220.69 238.856 L2220.69 203.208 L2215.16 203.208 L2215.16 199.897 L2224.97 199.897 Z" fill="#000000" fill-rule="evenodd" fill-opacity="1" /><circle clip-path="url(#clip770)" cx="1775.96" cy="270.476" r="23" fill="#e26f46" fill-rule="evenodd" fill-opacity="1" stroke="#000000" stroke-opacity="1" stroke-width="5.12"/>
<path clip-path="url(#clip770)" d="M1868.1 251.737 L1877.91 251.737 L1877.91 255.048 L1872.36 255.048 L1872.36 290.696 L1877.91 290.696 L1877.91 294.006 L1868.1 294.006 L1868.1 251.737 Z" fill="#000000" fill-rule="evenodd" fill-opacity="1" /><path clip-path="url(#clip770)" d="M1891.01 253.196 L1891.01 266.043 L1887.08 266.043 L1887.08 253.196 L1891.01 253.196 M1899.76 253.196 L1899.76 266.043 L1895.83 266.043 L1895.83 253.196 L1899.76 253.196 Z" fill="#000000" fill-rule="evenodd" fill-opacity="1" /><path clip-path="url(#clip770)" d="M1928.98 266.807 Q1930.57 263.936 1932.8 262.571 Q1935.02 261.205 1938.03 261.205 Q1942.08 261.205 1944.28 264.052 Q1946.48 266.876 1946.48 272.108 L1946.48 287.756 L1942.19 287.756 L1942.19 272.247 Q1942.19 268.52 1940.87 266.714 Q1939.56 264.909 1936.85 264.909 Q1933.54 264.909 1931.62 267.108 Q1929.69 269.307 1929.69 273.103 L1929.69 287.756 L1925.41 287.756 L1925.41 272.247 Q1925.41 268.497 1924.09 266.714 Q1922.77 264.909 1920.02 264.909 Q1916.75 264.909 1914.83 267.131 Q1912.91 269.33 1912.91 273.103 L1912.91 287.756 L1908.63 287.756 L1908.63 261.83 L1912.91 261.83 L1912.91 265.858 Q1914.37 263.473 1916.41 262.339 Q1918.44 261.205 1921.25 261.205 Q1924.07 261.205 1926.04 262.64 Q1928.03 264.075 1928.98 266.807 Z" fill="#000000" fill-rule="evenodd" fill-opacity="1" /><path clip-path="url(#clip770)" d="M1977.15 273.728 L1977.15 275.811 L1957.56 275.811 Q1957.84 280.209 1960.2 282.524 Q1962.59 284.816 1966.82 284.816 Q1969.28 284.816 1971.57 284.214 Q1973.88 283.612 1976.15 282.409 L1976.15 286.436 Q1973.86 287.408 1971.45 287.918 Q1969.05 288.427 1966.57 288.427 Q1960.37 288.427 1956.73 284.816 Q1953.12 281.205 1953.12 275.047 Q1953.12 268.682 1956.55 264.955 Q1960 261.205 1965.83 261.205 Q1971.06 261.205 1974.09 264.585 Q1977.15 267.941 1977.15 273.728 M1972.89 272.478 Q1972.84 268.983 1970.92 266.899 Q1969.02 264.816 1965.87 264.816 Q1962.31 264.816 1960.16 266.83 Q1958.03 268.844 1957.7 272.501 L1972.89 272.478 Z" fill="#000000" fill-rule="evenodd" fill-opacity="1" /><path clip-path="url(#clip770)" d="M1995.92 274.723 Q1990.76 274.723 1988.77 275.904 Q1986.78 277.084 1986.78 279.932 Q1986.78 282.2 1988.26 283.543 Q1989.76 284.862 1992.33 284.862 Q1995.87 284.862 1998 282.362 Q2000.16 279.839 2000.16 275.672 L2000.16 274.723 L1995.92 274.723 M2004.42 272.964 L2004.42 287.756 L2000.16 287.756 L2000.16 283.821 Q1998.7 286.182 1996.52 287.316 Q1994.35 288.427 1991.2 288.427 Q1987.22 288.427 1984.86 286.205 Q1982.52 283.959 1982.52 280.209 Q1982.52 275.834 1985.43 273.612 Q1988.37 271.39 1994.18 271.39 L2000.16 271.39 L2000.16 270.973 Q2000.16 268.034 1998.21 266.436 Q1996.29 264.816 1992.8 264.816 Q1990.57 264.816 1988.47 265.348 Q1986.36 265.881 1984.42 266.946 L1984.42 263.01 Q1986.75 262.108 1988.95 261.668 Q1991.15 261.205 1993.24 261.205 Q1998.86 261.205 2001.64 264.122 Q2004.42 267.038 2004.42 272.964 Z" fill="#000000" fill-rule="evenodd" fill-opacity="1" /><path clip-path="url(#clip770)" d="M2034.74 272.108 L2034.74 287.756 L2030.48 287.756 L2030.48 272.247 Q2030.48 268.566 2029.05 266.737 Q2027.61 264.909 2024.74 264.909 Q2021.29 264.909 2019.3 267.108 Q2017.31 269.307 2017.31 273.103 L2017.31 287.756 L2013.03 287.756 L2013.03 261.83 L2017.31 261.83 L2017.31 265.858 Q2018.84 263.52 2020.9 262.362 Q2022.98 261.205 2025.69 261.205 Q2030.16 261.205 2032.45 263.983 Q2034.74 266.737 2034.74 272.108 Z" fill="#000000" fill-rule="evenodd" fill-opacity="1" /><path clip-path="url(#clip770)" d="M2063.17 271.251 L2063.17 283.913 L2070.67 283.913 Q2074.44 283.913 2076.24 282.362 Q2078.07 280.788 2078.07 277.571 Q2078.07 274.33 2076.24 272.802 Q2074.44 271.251 2070.67 271.251 L2063.17 271.251 M2063.17 257.038 L2063.17 267.455 L2070.09 267.455 Q2073.51 267.455 2075.18 266.182 Q2076.87 264.885 2076.87 262.247 Q2076.87 259.631 2075.18 258.335 Q2073.51 257.038 2070.09 257.038 L2063.17 257.038 M2058.49 253.196 L2070.43 253.196 Q2075.78 253.196 2078.68 255.418 Q2081.57 257.64 2081.57 261.737 Q2081.57 264.909 2080.09 266.784 Q2078.61 268.659 2075.74 269.122 Q2079.18 269.862 2081.08 272.223 Q2083 274.561 2083 278.08 Q2083 282.709 2079.86 285.233 Q2076.71 287.756 2070.9 287.756 L2058.49 287.756 L2058.49 253.196 Z" fill="#000000" fill-rule="evenodd" fill-opacity="1" /><path clip-path="url(#clip770)" d="M2113 273.728 L2113 275.811 L2093.42 275.811 Q2093.7 280.209 2096.06 282.524 Q2098.44 284.816 2102.68 284.816 Q2105.13 284.816 2107.43 284.214 Q2109.74 283.612 2112.01 282.409 L2112.01 286.436 Q2109.72 287.408 2107.31 287.918 Q2104.9 288.427 2102.43 288.427 Q2096.22 288.427 2092.59 284.816 Q2088.98 281.205 2088.98 275.047 Q2088.98 268.682 2092.4 264.955 Q2095.85 261.205 2101.68 261.205 Q2106.92 261.205 2109.95 264.585 Q2113 267.941 2113 273.728 M2108.74 272.478 Q2108.7 268.983 2106.78 266.899 Q2104.88 264.816 2101.73 264.816 Q2098.17 264.816 2096.01 266.83 Q2093.88 268.844 2093.56 272.501 L2108.74 272.478 Z" fill="#000000" fill-rule="evenodd" fill-opacity="1" /><path clip-path="url(#clip770)" d="M2124.21 254.469 L2124.21 261.83 L2132.98 261.83 L2132.98 265.14 L2124.21 265.14 L2124.21 279.214 Q2124.21 282.385 2125.06 283.288 Q2125.94 284.191 2128.61 284.191 L2132.98 284.191 L2132.98 287.756 L2128.61 287.756 Q2123.67 287.756 2121.8 285.927 Q2119.92 284.075 2119.92 279.214 L2119.92 265.14 L2116.8 265.14 L2116.8 261.83 L2119.92 261.83 L2119.92 254.469 L2124.21 254.469 Z" fill="#000000" fill-rule="evenodd" fill-opacity="1" /><path clip-path="url(#clip770)" d="M2142.8 254.469 L2142.8 261.83 L2151.57 261.83 L2151.57 265.14 L2142.8 265.14 L2142.8 279.214 Q2142.8 282.385 2143.65 283.288 Q2144.53 284.191 2147.19 284.191 L2151.57 284.191 L2151.57 287.756 L2147.19 287.756 Q2142.26 287.756 2140.39 285.927 Q2138.51 284.075 2138.51 279.214 L2138.51 265.14 L2135.39 265.14 L2135.39 261.83 L2138.51 261.83 L2138.51 254.469 L2142.8 254.469 Z" fill="#000000" fill-rule="evenodd" fill-opacity="1" /><path clip-path="url(#clip770)" d="M2179.35 273.728 L2179.35 275.811 L2159.76 275.811 Q2160.04 280.209 2162.4 282.524 Q2164.79 284.816 2169.02 284.816 Q2171.48 284.816 2173.77 284.214 Q2176.08 283.612 2178.35 282.409 L2178.35 286.436 Q2176.06 287.408 2173.65 287.918 Q2171.24 288.427 2168.77 288.427 Q2162.56 288.427 2158.93 284.816 Q2155.32 281.205 2155.32 275.047 Q2155.32 268.682 2158.74 264.955 Q2162.19 261.205 2168.03 261.205 Q2173.26 261.205 2176.29 264.585 Q2179.35 267.941 2179.35 273.728 M2175.09 272.478 Q2175.04 268.983 2173.12 266.899 Q2171.22 264.816 2168.07 264.816 Q2164.51 264.816 2162.36 266.83 Q2160.23 268.844 2159.9 272.501 L2175.09 272.478 Z" fill="#000000" fill-rule="evenodd" fill-opacity="1" /><path clip-path="url(#clip770)" d="M2201.36 265.811 Q2200.64 265.395 2199.79 265.21 Q2198.95 265.001 2197.93 265.001 Q2194.32 265.001 2192.38 267.362 Q2190.46 269.7 2190.46 274.098 L2190.46 287.756 L2186.17 287.756 L2186.17 261.83 L2190.46 261.83 L2190.46 265.858 Q2191.8 263.497 2193.95 262.362 Q2196.11 261.205 2199.18 261.205 Q2199.62 261.205 2200.16 261.274 Q2200.69 261.321 2201.34 261.436 L2201.36 265.811 Z" fill="#000000" fill-rule="evenodd" fill-opacity="1" /><path clip-path="url(#clip770)" d="M2209.86 253.196 L2209.86 266.043 L2205.92 266.043 L2205.92 253.196 L2209.86 253.196 M2218.6 253.196 L2218.6 266.043 L2214.67 266.043 L2214.67 253.196 L2218.6 253.196 Z" fill="#000000" fill-rule="evenodd" fill-opacity="1" /><path clip-path="url(#clip770)" d="M2237.59 251.737 L2237.59 294.006 L2227.77 294.006 L2227.77 290.696 L2233.3 290.696 L2233.3 255.048 L2227.77 255.048 L2227.77 251.737 L2237.59 251.737 Z" fill="#000000" fill-rule="evenodd" fill-opacity="1" /><circle clip-path="url(#clip770)" cx="1775.96" cy="322.316" r="23" fill="#3da44d" fill-rule="evenodd" fill-opacity="1" stroke="#000000" stroke-opacity="1" stroke-width="5.12"/>
<path clip-path="url(#clip770)" d="M1868.1 303.577 L1877.91 303.577 L1877.91 306.888 L1872.36 306.888 L1872.36 342.536 L1877.91 342.536 L1877.91 345.846 L1868.1 345.846 L1868.1 303.577 Z" fill="#000000" fill-rule="evenodd" fill-opacity="1" /><path clip-path="url(#clip770)" d="M1891.01 305.036 L1891.01 317.883 L1887.08 317.883 L1887.08 305.036 L1891.01 305.036 M1899.76 305.036 L1899.76 317.883 L1895.83 317.883 L1895.83 305.036 L1899.76 305.036 Z" fill="#000000" fill-rule="evenodd" fill-opacity="1" /><path clip-path="url(#clip770)" d="M1928.98 318.647 Q1930.57 315.776 1932.8 314.411 Q1935.02 313.045 1938.03 313.045 Q1942.08 313.045 1944.28 315.892 Q1946.48 318.716 1946.48 323.948 L1946.48 339.596 L1942.19 339.596 L1942.19 324.087 Q1942.19 320.36 1940.87 318.554 Q1939.56 316.749 1936.85 316.749 Q1933.54 316.749 1931.62 318.948 Q1929.69 321.147 1929.69 324.943 L1929.69 339.596 L1925.41 339.596 L1925.41 324.087 Q1925.41 320.337 1924.09 318.554 Q1922.77 316.749 1920.02 316.749 Q1916.75 316.749 1914.83 318.971 Q1912.91 321.17 1912.91 324.943 L1912.91 339.596 L1908.63 339.596 L1908.63 313.67 L1912.91 313.67 L1912.91 317.698 Q1914.37 315.313 1916.41 314.179 Q1918.44 313.045 1921.25 313.045 Q1924.07 313.045 1926.04 314.48 Q1928.03 315.915 1928.98 318.647 Z" fill="#000000" fill-rule="evenodd" fill-opacity="1" /><path clip-path="url(#clip770)" d="M1977.15 325.568 L1977.15 327.651 L1957.56 327.651 Q1957.84 332.049 1960.2 334.364 Q1962.59 336.656 1966.82 336.656 Q1969.28 336.656 1971.57 336.054 Q1973.88 335.452 1976.15 334.249 L1976.15 338.276 Q1973.86 339.248 1971.45 339.758 Q1969.05 340.267 1966.57 340.267 Q1960.37 340.267 1956.73 336.656 Q1953.12 333.045 1953.12 326.887 Q1953.12 320.522 1956.55 316.795 Q1960 313.045 1965.83 313.045 Q1971.06 313.045 1974.09 316.425 Q1977.15 319.781 1977.15 325.568 M1972.89 324.318 Q1972.84 320.823 1970.92 318.739 Q1969.02 316.656 1965.87 316.656 Q1962.31 316.656 1960.16 318.67 Q1958.03 320.684 1957.7 324.341 L1972.89 324.318 Z" fill="#000000" fill-rule="evenodd" fill-opacity="1" /><path clip-path="url(#clip770)" d="M1995.92 326.563 Q1990.76 326.563 1988.77 327.744 Q1986.78 328.924 1986.78 331.772 Q1986.78 334.04 1988.26 335.383 Q1989.76 336.702 1992.33 336.702 Q1995.87 336.702 1998 334.202 Q2000.16 331.679 2000.16 327.512 L2000.16 326.563 L1995.92 326.563 M2004.42 324.804 L2004.42 339.596 L2000.16 339.596 L2000.16 335.661 Q1998.7 338.022 1996.52 339.156 Q1994.35 340.267 1991.2 340.267 Q1987.22 340.267 1984.86 338.045 Q1982.52 335.799 1982.52 332.049 Q1982.52 327.674 1985.43 325.452 Q1988.37 323.23 1994.18 323.23 L2000.16 323.23 L2000.16 322.813 Q2000.16 319.874 1998.21 318.276 Q1996.29 316.656 1992.8 316.656 Q1990.57 316.656 1988.47 317.188 Q1986.36 317.721 1984.42 318.786 L1984.42 314.85 Q1986.75 313.948 1988.95 313.508 Q1991.15 313.045 1993.24 313.045 Q1998.86 313.045 2001.64 315.962 Q2004.42 318.878 2004.42 324.804 Z" fill="#000000" fill-rule="evenodd" fill-opacity="1" /><path clip-path="url(#clip770)" d="M2034.74 323.948 L2034.74 339.596 L2030.48 339.596 L2030.48 324.087 Q2030.48 320.406 2029.05 318.577 Q2027.61 316.749 2024.74 316.749 Q2021.29 316.749 2019.3 318.948 Q2017.31 321.147 2017.31 324.943 L2017.31 339.596 L2013.03 339.596 L2013.03 313.67 L2017.31 313.67 L2017.31 317.698 Q2018.84 315.36 2020.9 314.202 Q2022.98 313.045 2025.69 313.045 Q2030.16 313.045 2032.45 315.823 Q2034.74 318.577 2034.74 323.948 Z" fill="#000000" fill-rule="evenodd" fill-opacity="1" /><path clip-path="url(#clip770)" d="M2063.17 323.091 L2063.17 335.753 L2070.67 335.753 Q2074.44 335.753 2076.24 334.202 Q2078.07 332.628 2078.07 329.411 Q2078.07 326.17 2076.24 324.642 Q2074.44 323.091 2070.67 323.091 L2063.17 323.091 M2063.17 308.878 L2063.17 319.295 L2070.09 319.295 Q2073.51 319.295 2075.18 318.022 Q2076.87 316.725 2076.87 314.087 Q2076.87 311.471 2075.18 310.175 Q2073.51 308.878 2070.09 308.878 L2063.17 308.878 M2058.49 305.036 L2070.43 305.036 Q2075.78 305.036 2078.68 307.258 Q2081.57 309.48 2081.57 313.577 Q2081.57 316.749 2080.09 318.624 Q2078.61 320.499 2075.74 320.962 Q2079.18 321.702 2081.08 324.063 Q2083 326.401 2083 329.92 Q2083 334.549 2079.86 337.073 Q2076.71 339.596 2070.9 339.596 L2058.49 339.596 L2058.49 305.036 Z" fill="#000000" fill-rule="evenodd" fill-opacity="1" /><path clip-path="url(#clip770)" d="M2113 325.568 L2113 327.651 L2093.42 327.651 Q2093.7 332.049 2096.06 334.364 Q2098.44 336.656 2102.68 336.656 Q2105.13 336.656 2107.43 336.054 Q2109.74 335.452 2112.01 334.249 L2112.01 338.276 Q2109.72 339.248 2107.31 339.758 Q2104.9 340.267 2102.43 340.267 Q2096.22 340.267 2092.59 336.656 Q2088.98 333.045 2088.98 326.887 Q2088.98 320.522 2092.4 316.795 Q2095.85 313.045 2101.68 313.045 Q2106.92 313.045 2109.95 316.425 Q2113 319.781 2113 325.568 M2108.74 324.318 Q2108.7 320.823 2106.78 318.739 Q2104.88 316.656 2101.73 316.656 Q2098.17 316.656 2096.01 318.67 Q2093.88 320.684 2093.56 324.341 L2108.74 324.318 Z" fill="#000000" fill-rule="evenodd" fill-opacity="1" /><path clip-path="url(#clip770)" d="M2136.52 314.434 L2136.52 318.462 Q2134.72 317.536 2132.77 317.073 Q2130.83 316.61 2128.74 316.61 Q2125.57 316.61 2123.98 317.582 Q2122.4 318.554 2122.4 320.499 Q2122.4 321.98 2123.54 322.837 Q2124.67 323.67 2128.1 324.434 L2129.55 324.758 Q2134.09 325.73 2135.99 327.512 Q2137.91 329.272 2137.91 332.443 Q2137.91 336.054 2135.04 338.161 Q2132.19 340.267 2127.19 340.267 Q2125.11 340.267 2122.84 339.85 Q2120.6 339.457 2118.1 338.647 L2118.1 334.249 Q2120.46 335.475 2122.75 336.1 Q2125.04 336.702 2127.29 336.702 Q2130.3 336.702 2131.92 335.684 Q2133.54 334.642 2133.54 332.767 Q2133.54 331.031 2132.36 330.105 Q2131.2 329.179 2127.24 328.323 L2125.76 327.975 Q2121.8 327.142 2120.04 325.429 Q2118.28 323.693 2118.28 320.684 Q2118.28 317.026 2120.87 315.036 Q2123.47 313.045 2128.24 313.045 Q2130.6 313.045 2132.68 313.392 Q2134.76 313.739 2136.52 314.434 Z" fill="#000000" fill-rule="evenodd" fill-opacity="1" /><path clip-path="url(#clip770)" d="M2148.91 306.309 L2148.91 313.67 L2157.68 313.67 L2157.68 316.98 L2148.91 316.98 L2148.91 331.054 Q2148.91 334.225 2149.76 335.128 Q2150.64 336.031 2153.3 336.031 L2157.68 336.031 L2157.68 339.596 L2153.3 339.596 Q2148.37 339.596 2146.5 337.767 Q2144.62 335.915 2144.62 331.054 L2144.62 316.98 L2141.5 316.98 L2141.5 313.67 L2144.62 313.67 L2144.62 306.309 L2148.91 306.309 Z" fill="#000000" fill-rule="evenodd" fill-opacity="1" /><path clip-path="url(#clip770)" d="M2167.31 305.036 L2167.31 317.883 L2163.37 317.883 L2163.37 305.036 L2167.31 305.036 M2176.06 305.036 L2176.06 317.883 L2172.12 317.883 L2172.12 305.036 L2176.06 305.036 Z" fill="#000000" fill-rule="evenodd" fill-opacity="1" /><path clip-path="url(#clip770)" d="M2195.04 303.577 L2195.04 345.846 L2185.23 345.846 L2185.23 342.536 L2190.76 342.536 L2190.76 306.888 L2185.23 306.888 L2185.23 303.577 L2195.04 303.577 Z" fill="#000000" fill-rule="evenodd" fill-opacity="1" /><polyline clip-path="url(#clip770)" style="stroke:#c271d2; stroke-linecap:butt; stroke-linejoin:round; stroke-width:4; stroke-opacity:1; fill:none" points="
  1706.86,374.156 1845.06,374.156 
  "/>
<path clip-path="url(#clip770)" d="M1884.6 355.417 L1884.6 358.959 L1880.53 358.959 Q1878.24 358.959 1877.33 359.885 Q1876.45 360.811 1876.45 363.218 L1876.45 365.51 L1883.47 365.51 L1883.47 368.82 L1876.45 368.82 L1876.45 391.436 L1872.17 391.436 L1872.17 368.82 L1868.1 368.82 L1868.1 365.51 L1872.17 365.51 L1872.17 363.704 Q1872.17 359.376 1874.19 357.408 Q1876.2 355.417 1880.57 355.417 L1884.6 355.417 Z" fill="#000000" fill-rule="evenodd" fill-opacity="1" /><path clip-path="url(#clip770)" d="M1888.17 365.51 L1892.43 365.51 L1892.43 391.436 L1888.17 391.436 L1888.17 365.51 M1888.17 355.417 L1892.43 355.417 L1892.43 360.811 L1888.17 360.811 L1888.17 355.417 Z" fill="#000000" fill-rule="evenodd" fill-opacity="1" /><path clip-path="url(#clip770)" d="M1905.55 358.149 L1905.55 365.51 L1914.32 365.51 L1914.32 368.82 L1905.55 368.82 L1905.55 382.894 Q1905.55 386.065 1906.41 386.968 Q1907.29 387.871 1909.95 387.871 L1914.32 387.871 L1914.32 391.436 L1909.95 391.436 Q1905.02 391.436 1903.14 389.607 Q1901.27 387.755 1901.27 382.894 L1901.27 368.82 L1898.14 368.82 L1898.14 365.51 L1901.27 365.51 L1901.27 358.149 L1905.55 358.149 Z" fill="#000000" fill-rule="evenodd" fill-opacity="1" /><path clip-path="url(#clip770)" d="M1935.18 356.876 L1941.48 356.876 L1956.8 385.788 L1956.8 356.876 L1961.34 356.876 L1961.34 391.436 L1955.04 391.436 L1939.72 362.524 L1939.72 391.436 L1935.18 391.436 L1935.18 356.876 Z" fill="#000000" fill-rule="evenodd" fill-opacity="1" /><path clip-path="url(#clip770)" d="M1982.24 378.403 Q1977.08 378.403 1975.09 379.584 Q1973.1 380.764 1973.1 383.612 Q1973.1 385.88 1974.58 387.223 Q1976.08 388.542 1978.65 388.542 Q1982.19 388.542 1984.32 386.042 Q1986.48 383.519 1986.48 379.352 L1986.48 378.403 L1982.24 378.403 M1990.74 376.644 L1990.74 391.436 L1986.48 391.436 L1986.48 387.501 Q1985.02 389.862 1982.84 390.996 Q1980.67 392.107 1977.52 392.107 Q1973.54 392.107 1971.18 389.885 Q1968.84 387.639 1968.84 383.889 Q1968.84 379.514 1971.75 377.292 Q1974.69 375.07 1980.5 375.07 L1986.48 375.07 L1986.48 374.653 Q1986.48 371.714 1984.53 370.116 Q1982.61 368.496 1979.12 368.496 Q1976.89 368.496 1974.79 369.028 Q1972.68 369.561 1970.74 370.626 L1970.74 366.69 Q1973.07 365.788 1975.27 365.348 Q1977.47 364.885 1979.56 364.885 Q1985.18 364.885 1987.96 367.802 Q1990.74 370.718 1990.74 376.644 Z" fill="#000000" fill-rule="evenodd" fill-opacity="1" /><path clip-path="url(#clip770)" d="M1999.51 365.51 L2003.77 365.51 L2003.77 391.436 L1999.51 391.436 L1999.51 365.51 M1999.51 355.417 L2003.77 355.417 L2003.77 360.811 L1999.51 360.811 L1999.51 355.417 Z" fill="#000000" fill-rule="evenodd" fill-opacity="1" /><path clip-path="url(#clip770)" d="M2009.62 365.51 L2014.14 365.51 L2022.24 387.269 L2030.34 365.51 L2034.86 365.51 L2025.13 391.436 L2019.35 391.436 L2009.62 365.51 Z" fill="#000000" fill-rule="evenodd" fill-opacity="1" /><path clip-path="url(#clip770)" d="M2062.91 377.408 L2062.91 379.491 L2043.33 379.491 Q2043.61 383.889 2045.97 386.204 Q2048.35 388.496 2052.59 388.496 Q2055.04 388.496 2057.33 387.894 Q2059.65 387.292 2061.92 386.089 L2061.92 390.116 Q2059.62 391.088 2057.22 391.598 Q2054.81 392.107 2052.33 392.107 Q2046.13 392.107 2042.49 388.496 Q2038.88 384.885 2038.88 378.727 Q2038.88 372.362 2042.31 368.635 Q2045.76 364.885 2051.59 364.885 Q2056.82 364.885 2059.86 368.265 Q2062.91 371.621 2062.91 377.408 M2058.65 376.158 Q2058.61 372.663 2056.68 370.579 Q2054.79 368.496 2051.64 368.496 Q2048.07 368.496 2045.92 370.51 Q2043.79 372.524 2043.47 376.181 L2058.65 376.158 Z" fill="#000000" fill-rule="evenodd" fill-opacity="1" /><polyline clip-path="url(#clip770)" style="stroke:#ac8d18; stroke-linecap:butt; stroke-linejoin:round; stroke-width:4; stroke-opacity:1; fill:none" points="
  1706.86,425.996 1845.06,425.996 
  "/>
<path clip-path="url(#clip770)" d="M1884.6 407.257 L1884.6 410.799 L1880.53 410.799 Q1878.24 410.799 1877.33 411.725 Q1876.45 412.651 1876.45 415.058 L1876.45 417.35 L1883.47 417.35 L1883.47 420.66 L1876.45 420.66 L1876.45 443.276 L1872.17 443.276 L1872.17 420.66 L1868.1 420.66 L1868.1 417.35 L1872.17 417.35 L1872.17 415.544 Q1872.17 411.216 1874.19 409.248 Q1876.2 407.257 1880.57 407.257 L1884.6 407.257 Z" fill="#000000" fill-rule="evenodd" fill-opacity="1" /><path clip-path="url(#clip770)" d="M1888.17 417.35 L1892.43 417.35 L1892.43 443.276 L1888.17 443.276 L1888.17 417.35 M1888.17 407.257 L1892.43 407.257 L1892.43 412.651 L1888.17 412.651 L1888.17 407.257 Z" fill="#000000" fill-rule="evenodd" fill-opacity="1" /><path clip-path="url(#clip770)" d="M1905.55 409.989 L1905.55 417.35 L1914.32 417.35 L1914.32 420.66 L1905.55 420.66 L1905.55 434.734 Q1905.55 437.905 1906.41 438.808 Q1907.29 439.711 1909.95 439.711 L1914.32 439.711 L1914.32 443.276 L1909.95 443.276 Q1905.02 443.276 1903.14 441.447 Q1901.27 439.595 1901.27 434.734 L1901.27 420.66 L1898.14 420.66 L1898.14 417.35 L1901.27 417.35 L1901.27 409.989 L1905.55 409.989 Z" fill="#000000" fill-rule="evenodd" fill-opacity="1" /><path clip-path="url(#clip770)" d="M1939.86 426.771 L1939.86 439.433 L1947.36 439.433 Q1951.13 439.433 1952.94 437.882 Q1954.76 436.308 1954.76 433.091 Q1954.76 429.85 1952.94 428.322 Q1951.13 426.771 1947.36 426.771 L1939.86 426.771 M1939.86 412.558 L1939.86 422.975 L1946.78 422.975 Q1950.2 422.975 1951.87 421.702 Q1953.56 420.405 1953.56 417.767 Q1953.56 415.151 1951.87 413.855 Q1950.2 412.558 1946.78 412.558 L1939.86 412.558 M1935.18 408.716 L1947.12 408.716 Q1952.47 408.716 1955.37 410.938 Q1958.26 413.16 1958.26 417.257 Q1958.26 420.429 1956.78 422.304 Q1955.3 424.179 1952.43 424.642 Q1955.87 425.382 1957.77 427.743 Q1959.69 430.081 1959.69 433.6 Q1959.69 438.229 1956.55 440.753 Q1953.4 443.276 1947.59 443.276 L1935.18 443.276 L1935.18 408.716 Z" fill="#000000" fill-rule="evenodd" fill-opacity="1" /><path clip-path="url(#clip770)" d="M1989.69 429.248 L1989.69 431.331 L1970.11 431.331 Q1970.39 435.729 1972.75 438.044 Q1975.13 440.336 1979.37 440.336 Q1981.82 440.336 1984.12 439.734 Q1986.43 439.132 1988.7 437.929 L1988.7 441.956 Q1986.41 442.928 1984 443.438 Q1981.59 443.947 1979.12 443.947 Q1972.91 443.947 1969.28 440.336 Q1965.67 436.725 1965.67 430.567 Q1965.67 424.202 1969.09 420.475 Q1972.54 416.725 1978.37 416.725 Q1983.61 416.725 1986.64 420.105 Q1989.69 423.461 1989.69 429.248 M1985.43 427.998 Q1985.39 424.503 1983.47 422.419 Q1981.57 420.336 1978.42 420.336 Q1974.86 420.336 1972.7 422.35 Q1970.57 424.364 1970.25 428.021 L1985.43 427.998 Z" fill="#000000" fill-rule="evenodd" fill-opacity="1" /><path clip-path="url(#clip770)" d="M2000.9 409.989 L2000.9 417.35 L2009.67 417.35 L2009.67 420.66 L2000.9 420.66 L2000.9 434.734 Q2000.9 437.905 2001.75 438.808 Q2002.63 439.711 2005.3 439.711 L2009.67 439.711 L2009.67 443.276 L2005.3 443.276 Q2000.37 443.276 1998.49 441.447 Q1996.62 439.595 1996.62 434.734 L1996.62 420.66 L1993.49 420.66 L1993.49 417.35 L1996.62 417.35 L1996.62 409.989 L2000.9 409.989 Z" fill="#000000" fill-rule="evenodd" fill-opacity="1" /><path clip-path="url(#clip770)" d="M2019.49 409.989 L2019.49 417.35 L2028.26 417.35 L2028.26 420.66 L2019.49 420.66 L2019.49 434.734 Q2019.49 437.905 2020.34 438.808 Q2021.22 439.711 2023.88 439.711 L2028.26 439.711 L2028.26 443.276 L2023.88 443.276 Q2018.95 443.276 2017.08 441.447 Q2015.2 439.595 2015.2 434.734 L2015.2 420.66 L2012.08 420.66 L2012.08 417.35 L2015.2 417.35 L2015.2 409.989 L2019.49 409.989 Z" fill="#000000" fill-rule="evenodd" fill-opacity="1" /><path clip-path="url(#clip770)" d="M2056.04 429.248 L2056.04 431.331 L2036.45 431.331 Q2036.73 435.729 2039.09 438.044 Q2041.48 440.336 2045.71 440.336 Q2048.17 440.336 2050.46 439.734 Q2052.77 439.132 2055.04 437.929 L2055.04 441.956 Q2052.75 442.928 2050.34 443.438 Q2047.93 443.947 2045.46 443.947 Q2039.25 443.947 2035.62 440.336 Q2032.01 436.725 2032.01 430.567 Q2032.01 424.202 2035.43 420.475 Q2038.88 416.725 2044.72 416.725 Q2049.95 416.725 2052.98 420.105 Q2056.04 423.461 2056.04 429.248 M2051.78 427.998 Q2051.73 424.503 2049.81 422.419 Q2047.91 420.336 2044.76 420.336 Q2041.2 420.336 2039.05 422.35 Q2036.92 424.364 2036.59 428.021 L2051.78 427.998 Z" fill="#000000" fill-rule="evenodd" fill-opacity="1" /><path clip-path="url(#clip770)" d="M2078.05 421.331 Q2077.33 420.915 2076.48 420.73 Q2075.64 420.521 2074.62 420.521 Q2071.01 420.521 2069.07 422.882 Q2067.15 425.22 2067.15 429.618 L2067.15 443.276 L2062.87 443.276 L2062.87 417.35 L2067.15 417.35 L2067.15 421.378 Q2068.49 419.017 2070.64 417.882 Q2072.8 416.725 2075.87 416.725 Q2076.31 416.725 2076.85 416.794 Q2077.38 416.841 2078.03 416.956 L2078.05 421.331 Z" fill="#000000" fill-rule="evenodd" fill-opacity="1" /><polyline clip-path="url(#clip770)" style="stroke:#00a9ad; stroke-linecap:butt; stroke-linejoin:round; stroke-width:4; stroke-opacity:1; fill:none" points="
  1706.86,477.836 1845.06,477.836 
  "/>
<path clip-path="url(#clip770)" d="M1884.6 459.097 L1884.6 462.639 L1880.53 462.639 Q1878.24 462.639 1877.33 463.565 Q1876.45 464.491 1876.45 466.898 L1876.45 469.19 L1883.47 469.19 L1883.47 472.5 L1876.45 472.5 L1876.45 495.116 L1872.17 495.116 L1872.17 472.5 L1868.1 472.5 L1868.1 469.19 L1872.17 469.19 L1872.17 467.384 Q1872.17 463.056 1874.19 461.088 Q1876.2 459.097 1880.57 459.097 L1884.6 459.097 Z" fill="#000000" fill-rule="evenodd" fill-opacity="1" /><path clip-path="url(#clip770)" d="M1888.17 469.19 L1892.43 469.19 L1892.43 495.116 L1888.17 495.116 L1888.17 469.19 M1888.17 459.097 L1892.43 459.097 L1892.43 464.491 L1888.17 464.491 L1888.17 459.097 Z" fill="#000000" fill-rule="evenodd" fill-opacity="1" /><path clip-path="url(#clip770)" d="M1905.55 461.829 L1905.55 469.19 L1914.32 469.19 L1914.32 472.5 L1905.55 472.5 L1905.55 486.574 Q1905.55 489.745 1906.41 490.648 Q1907.29 491.551 1909.95 491.551 L1914.32 491.551 L1914.32 495.116 L1909.95 495.116 Q1905.02 495.116 1903.14 493.287 Q1901.27 491.435 1901.27 486.574 L1901.27 472.5 L1898.14 472.5 L1898.14 469.19 L1901.27 469.19 L1901.27 461.829 L1905.55 461.829 Z" fill="#000000" fill-rule="evenodd" fill-opacity="1" /><path clip-path="url(#clip770)" d="M1939.86 478.611 L1939.86 491.273 L1947.36 491.273 Q1951.13 491.273 1952.94 489.722 Q1954.76 488.148 1954.76 484.931 Q1954.76 481.69 1952.94 480.162 Q1951.13 478.611 1947.36 478.611 L1939.86 478.611 M1939.86 464.398 L1939.86 474.815 L1946.78 474.815 Q1950.2 474.815 1951.87 473.542 Q1953.56 472.245 1953.56 469.607 Q1953.56 466.991 1951.87 465.695 Q1950.2 464.398 1946.78 464.398 L1939.86 464.398 M1935.18 460.556 L1947.12 460.556 Q1952.47 460.556 1955.37 462.778 Q1958.26 465 1958.26 469.097 Q1958.26 472.269 1956.78 474.144 Q1955.3 476.019 1952.43 476.482 Q1955.87 477.222 1957.77 479.583 Q1959.69 481.921 1959.69 485.44 Q1959.69 490.069 1956.55 492.593 Q1953.4 495.116 1947.59 495.116 L1935.18 495.116 L1935.18 460.556 Z" fill="#000000" fill-rule="evenodd" fill-opacity="1" /><path clip-path="url(#clip770)" d="M1989.69 481.088 L1989.69 483.171 L1970.11 483.171 Q1970.39 487.569 1972.75 489.884 Q1975.13 492.176 1979.37 492.176 Q1981.82 492.176 1984.12 491.574 Q1986.43 490.972 1988.7 489.769 L1988.7 493.796 Q1986.41 494.768 1984 495.278 Q1981.59 495.787 1979.12 495.787 Q1972.91 495.787 1969.28 492.176 Q1965.67 488.565 1965.67 482.407 Q1965.67 476.042 1969.09 472.315 Q1972.54 468.565 1978.37 468.565 Q1983.61 468.565 1986.64 471.945 Q1989.69 475.301 1989.69 481.088 M1985.43 479.838 Q1985.39 476.343 1983.47 474.259 Q1981.57 472.176 1978.42 472.176 Q1974.86 472.176 1972.7 474.19 Q1970.57 476.204 1970.25 479.861 L1985.43 479.838 Z" fill="#000000" fill-rule="evenodd" fill-opacity="1" /><path clip-path="url(#clip770)" d="M2013.21 469.954 L2013.21 473.982 Q2011.41 473.056 2009.46 472.593 Q2007.52 472.13 2005.43 472.13 Q2002.26 472.13 2000.67 473.102 Q1999.09 474.074 1999.09 476.019 Q1999.09 477.5 2000.23 478.357 Q2001.36 479.19 2004.79 479.954 L2006.24 480.278 Q2010.78 481.25 2012.68 483.032 Q2014.6 484.792 2014.6 487.963 Q2014.6 491.574 2011.73 493.681 Q2008.88 495.787 2003.88 495.787 Q2001.8 495.787 1999.53 495.37 Q1997.29 494.977 1994.79 494.167 L1994.79 489.769 Q1997.15 490.995 1999.44 491.62 Q2001.73 492.222 2003.98 492.222 Q2006.99 492.222 2008.61 491.204 Q2010.23 490.162 2010.23 488.287 Q2010.23 486.551 2009.05 485.625 Q2007.89 484.699 2003.93 483.843 L2002.45 483.495 Q1998.49 482.662 1996.73 480.949 Q1994.97 479.213 1994.97 476.204 Q1994.97 472.546 1997.56 470.556 Q2000.16 468.565 2004.93 468.565 Q2007.29 468.565 2009.37 468.912 Q2011.45 469.259 2013.21 469.954 Z" fill="#000000" fill-rule="evenodd" fill-opacity="1" /><path clip-path="url(#clip770)" d="M2025.6 461.829 L2025.6 469.19 L2034.37 469.19 L2034.37 472.5 L2025.6 472.5 L2025.6 486.574 Q2025.6 489.745 2026.45 490.648 Q2027.33 491.551 2029.99 491.551 L2034.37 491.551 L2034.37 495.116 L2029.99 495.116 Q2025.06 495.116 2023.19 493.287 Q2021.31 491.435 2021.31 486.574 L2021.31 472.5 L2018.19 472.5 L2018.19 469.19 L2021.31 469.19 L2021.31 461.829 L2025.6 461.829 Z" fill="#000000" fill-rule="evenodd" fill-opacity="1" /></svg>
