<?xml version="1.0" encoding="utf-8"?>
<svg xmlns="http://www.w3.org/2000/svg" xmlns:xlink="http://www.w3.org/1999/xlink" width="600" height="400" viewBox="0 0 2400 1600">
<defs>
  <clipPath id="clip850">
    <rect x="0" y="0" width="2400" height="1600"/>
  </clipPath>
</defs>
<path clip-path="url(#clip850)" d="
M0 1600 L2400 1600 L2400 0 L0 0  Z
  " fill="#ffffff" fill-rule="evenodd" fill-opacity="1"/>
<defs>
  <clipPath id="clip851">
    <rect x="480" y="0" width="1681" height="1600"/>
  </clipPath>
</defs>
<path clip-path="url(#clip850)" d="
M156.112 1486.45 L2352.76 1486.45 L2352.76 47.2441 L156.112 47.2441  Z
  " fill="#ffffff" fill-rule="evenodd" fill-opacity="1"/>
<defs>
  <clipPath id="clip852">
    <rect x="156" y="47" width="2198" height="1440"/>
  </clipPath>
</defs>
<polyline clip-path="url(#clip852)" style="stroke:#000000; stroke-linecap:butt; stroke-linejoin:round; stroke-width:2; stroke-opacity:0.1; fill:none" points="
  218.281,1486.45 218.281,47.2441 
  "/>
<polyline clip-path="url(#clip852)" style="stroke:#000000; stroke-linecap:butt; stroke-linejoin:round; stroke-width:2; stroke-opacity:0.1; fill:none" points="
  736.358,1486.45 736.358,47.2441 
  "/>
<polyline clip-path="url(#clip852)" style="stroke:#000000; stroke-linecap:butt; stroke-linejoin:round; stroke-width:2; stroke-opacity:0.1; fill:none" points="
  1254.43,1486.45 1254.43,47.2441 
  "/>
<polyline clip-path="url(#clip852)" style="stroke:#000000; stroke-linecap:butt; stroke-linejoin:round; stroke-width:2; stroke-opacity:0.1; fill:none" points="
  1772.51,1486.45 1772.51,47.2441 
  "/>
<polyline clip-path="url(#clip852)" style="stroke:#000000; stroke-linecap:butt; stroke-linejoin:round; stroke-width:2; stroke-opacity:0.1; fill:none" points="
  2290.59,1486.45 2290.59,47.2441 
  "/>
<polyline clip-path="url(#clip850)" style="stroke:#000000; stroke-linecap:butt; stroke-linejoin:round; stroke-width:4; stroke-opacity:1; fill:none" points="
  156.112,1486.45 2352.76,1486.45 
  "/>
<polyline clip-path="url(#clip850)" style="stroke:#000000; stroke-linecap:butt; stroke-linejoin:round; stroke-width:4; stroke-opacity:1; fill:none" points="
  218.281,1486.45 218.281,1467.55 
  "/>
<polyline clip-path="url(#clip850)" style="stroke:#000000; stroke-linecap:butt; stroke-linejoin:round; stroke-width:4; stroke-opacity:1; fill:none" points="
  736.358,1486.45 736.358,1467.55 
  "/>
<polyline clip-path="url(#clip850)" style="stroke:#000000; stroke-linecap:butt; stroke-linejoin:round; stroke-width:4; stroke-opacity:1; fill:none" points="
  1254.43,1486.45 1254.43,1467.55 
  "/>
<polyline clip-path="url(#clip850)" style="stroke:#000000; stroke-linecap:butt; stroke-linejoin:round; stroke-width:4; stroke-opacity:1; fill:none" points="
  1772.51,1486.45 1772.51,1467.55 
  "/>
<polyline clip-path="url(#clip850)" style="stroke:#000000; stroke-linecap:butt; stroke-linejoin:round; stroke-width:4; stroke-opacity:1; fill:none" points="
  2290.59,1486.45 2290.59,1467.55 
  "/>
<path clip-path="url(#clip850)" d="M164.809 1532.02 L194.485 1532.02 L194.485 1535.95 L164.809 1535.95 L164.809 1532.02 Z" fill="#000000" fill-rule="evenodd" fill-opacity="1" /><path clip-path="url(#clip850)" d="M205.388 1544.91 L213.027 1544.91 L213.027 1518.55 L204.717 1520.21 L204.717 1515.95 L212.98 1514.29 L217.656 1514.29 L217.656 1544.91 L225.295 1544.91 L225.295 1548.85 L205.388 1548.85 L205.388 1544.91 Z" fill="#000000" fill-rule="evenodd" fill-opacity="1" /><path clip-path="url(#clip850)" d="M234.74 1542.97 L239.624 1542.97 L239.624 1548.85 L234.74 1548.85 L234.74 1542.97 Z" fill="#000000" fill-rule="evenodd" fill-opacity="1" /><path clip-path="url(#clip850)" d="M259.809 1517.37 Q256.198 1517.37 254.369 1520.93 Q252.564 1524.47 252.564 1531.6 Q252.564 1538.71 254.369 1542.27 Q256.198 1545.82 259.809 1545.82 Q263.443 1545.82 265.249 1542.27 Q267.077 1538.71 267.077 1531.6 Q267.077 1524.47 265.249 1520.93 Q263.443 1517.37 259.809 1517.37 M259.809 1513.66 Q265.619 1513.66 268.675 1518.27 Q271.753 1522.85 271.753 1531.6 Q271.753 1540.33 268.675 1544.94 Q265.619 1549.52 259.809 1549.52 Q253.999 1549.52 250.92 1544.94 Q247.864 1540.33 247.864 1531.6 Q247.864 1522.85 250.92 1518.27 Q253.999 1513.66 259.809 1513.66 Z" fill="#000000" fill-rule="evenodd" fill-opacity="1" /><path clip-path="url(#clip850)" d="M683.383 1532.02 L713.059 1532.02 L713.059 1535.95 L683.383 1535.95 L683.383 1532.02 Z" fill="#000000" fill-rule="evenodd" fill-opacity="1" /><path clip-path="url(#clip850)" d="M733.152 1517.37 Q729.541 1517.37 727.712 1520.93 Q725.906 1524.47 725.906 1531.6 Q725.906 1538.71 727.712 1542.27 Q729.541 1545.82 733.152 1545.82 Q736.786 1545.82 738.591 1542.27 Q740.42 1538.71 740.42 1531.6 Q740.42 1524.47 738.591 1520.93 Q736.786 1517.37 733.152 1517.37 M733.152 1513.66 Q738.962 1513.66 742.017 1518.27 Q745.096 1522.85 745.096 1531.6 Q745.096 1540.33 742.017 1544.94 Q738.962 1549.52 733.152 1549.52 Q727.341 1549.52 724.263 1544.94 Q721.207 1540.33 721.207 1531.6 Q721.207 1522.85 724.263 1518.27 Q727.341 1513.66 733.152 1513.66 Z" fill="#000000" fill-rule="evenodd" fill-opacity="1" /><path clip-path="url(#clip850)" d="M753.314 1542.97 L758.198 1542.97 L758.198 1548.85 L753.314 1548.85 L753.314 1542.97 Z" fill="#000000" fill-rule="evenodd" fill-opacity="1" /><path clip-path="url(#clip850)" d="M768.429 1514.29 L786.786 1514.29 L786.786 1518.22 L772.712 1518.22 L772.712 1526.7 Q773.73 1526.35 774.749 1526.19 Q775.767 1526 776.786 1526 Q782.573 1526 785.952 1529.17 Q789.332 1532.34 789.332 1537.76 Q789.332 1543.34 785.86 1546.44 Q782.387 1549.52 776.068 1549.52 Q773.892 1549.52 771.624 1549.15 Q769.378 1548.78 766.971 1548.04 L766.971 1543.34 Q769.054 1544.47 771.276 1545.03 Q773.499 1545.58 775.975 1545.58 Q779.98 1545.58 782.318 1543.48 Q784.656 1541.37 784.656 1537.76 Q784.656 1534.15 782.318 1532.04 Q779.98 1529.94 775.975 1529.94 Q774.101 1529.94 772.226 1530.35 Q770.374 1530.77 768.429 1531.65 L768.429 1514.29 Z" fill="#000000" fill-rule="evenodd" fill-opacity="1" /><path clip-path="url(#clip850)" d="M1231.82 1517.37 Q1228.21 1517.37 1226.38 1520.93 Q1224.57 1524.47 1224.57 1531.6 Q1224.57 1538.71 1226.38 1542.27 Q1228.21 1545.82 1231.82 1545.82 Q1235.45 1545.82 1237.26 1542.27 Q1239.09 1538.71 1239.09 1531.6 Q1239.09 1524.47 1237.26 1520.93 Q1235.45 1517.37 1231.82 1517.37 M1231.82 1513.66 Q1237.63 1513.66 1240.68 1518.27 Q1243.76 1522.85 1243.76 1531.6 Q1243.76 1540.33 1240.68 1544.94 Q1237.63 1549.52 1231.82 1549.52 Q1226.01 1549.52 1222.93 1544.94 Q1219.87 1540.33 1219.87 1531.6 Q1219.87 1522.85 1222.93 1518.27 Q1226.01 1513.66 1231.82 1513.66 Z" fill="#000000" fill-rule="evenodd" fill-opacity="1" /><path clip-path="url(#clip850)" d="M1251.98 1542.97 L1256.86 1542.97 L1256.86 1548.85 L1251.98 1548.85 L1251.98 1542.97 Z" fill="#000000" fill-rule="evenodd" fill-opacity="1" /><path clip-path="url(#clip850)" d="M1277.05 1517.37 Q1273.44 1517.37 1271.61 1520.93 Q1269.8 1524.47 1269.8 1531.6 Q1269.8 1538.71 1271.61 1542.27 Q1273.44 1545.82 1277.05 1545.82 Q1280.68 1545.82 1282.49 1542.27 Q1284.32 1538.71 1284.32 1531.6 Q1284.32 1524.47 1282.49 1520.93 Q1280.68 1517.37 1277.05 1517.37 M1277.05 1513.66 Q1282.86 1513.66 1285.92 1518.27 Q1288.99 1522.85 1288.99 1531.6 Q1288.99 1540.33 1285.92 1544.94 Q1282.86 1549.52 1277.05 1549.52 Q1271.24 1549.52 1268.16 1544.94 Q1265.11 1540.33 1265.11 1531.6 Q1265.11 1522.85 1268.16 1518.27 Q1271.24 1513.66 1277.05 1513.66 Z" fill="#000000" fill-rule="evenodd" fill-opacity="1" /><path clip-path="url(#clip850)" d="M1750.39 1517.37 Q1746.78 1517.37 1744.95 1520.93 Q1743.15 1524.47 1743.15 1531.6 Q1743.15 1538.71 1744.95 1542.27 Q1746.78 1545.82 1750.39 1545.82 Q1754.03 1545.82 1755.83 1542.27 Q1757.66 1538.71 1757.66 1531.6 Q1757.66 1524.47 1755.83 1520.93 Q1754.03 1517.37 1750.39 1517.37 M1750.39 1513.66 Q1756.2 1513.66 1759.26 1518.27 Q1762.34 1522.85 1762.34 1531.6 Q1762.34 1540.33 1759.26 1544.94 Q1756.2 1549.52 1750.39 1549.52 Q1744.58 1549.52 1741.5 1544.94 Q1738.45 1540.33 1738.45 1531.6 Q1738.45 1522.85 1741.5 1518.27 Q1744.58 1513.66 1750.39 1513.66 Z" fill="#000000" fill-rule="evenodd" fill-opacity="1" /><path clip-path="url(#clip850)" d="M1770.55 1542.97 L1775.44 1542.97 L1775.44 1548.85 L1770.55 1548.85 L1770.55 1542.97 Z" fill="#000000" fill-rule="evenodd" fill-opacity="1" /><path clip-path="url(#clip850)" d="M1785.67 1514.29 L1804.03 1514.29 L1804.03 1518.22 L1789.95 1518.22 L1789.95 1526.7 Q1790.97 1526.35 1791.99 1526.19 Q1793.01 1526 1794.03 1526 Q1799.81 1526 1803.19 1529.17 Q1806.57 1532.34 1806.57 1537.76 Q1806.57 1543.34 1803.1 1546.44 Q1799.63 1549.52 1793.31 1549.52 Q1791.13 1549.52 1788.86 1549.15 Q1786.62 1548.78 1784.21 1548.04 L1784.21 1543.34 Q1786.3 1544.47 1788.52 1545.03 Q1790.74 1545.58 1793.22 1545.58 Q1797.22 1545.58 1799.56 1543.48 Q1801.9 1541.37 1801.9 1537.76 Q1801.9 1534.15 1799.56 1532.04 Q1797.22 1529.94 1793.22 1529.94 Q1791.34 1529.94 1789.47 1530.35 Q1787.61 1530.77 1785.67 1531.65 L1785.67 1514.29 Z" fill="#000000" fill-rule="evenodd" fill-opacity="1" /><path clip-path="url(#clip850)" d="M2257.74 1544.91 L2265.38 1544.91 L2265.38 1518.55 L2257.07 1520.21 L2257.07 1515.95 L2265.33 1514.29 L2270.01 1514.29 L2270.01 1544.91 L2277.65 1544.91 L2277.65 1548.85 L2257.74 1548.85 L2257.74 1544.91 Z" fill="#000000" fill-rule="evenodd" fill-opacity="1" /><path clip-path="url(#clip850)" d="M2287.09 1542.97 L2291.98 1542.97 L2291.98 1548.85 L2287.09 1548.85 L2287.09 1542.97 Z" fill="#000000" fill-rule="evenodd" fill-opacity="1" /><path clip-path="url(#clip850)" d="M2312.16 1517.37 Q2308.55 1517.37 2306.72 1520.93 Q2304.92 1524.47 2304.92 1531.6 Q2304.92 1538.71 2306.72 1542.27 Q2308.55 1545.82 2312.16 1545.82 Q2315.79 1545.82 2317.6 1542.27 Q2319.43 1538.71 2319.43 1531.6 Q2319.43 1524.47 2317.6 1520.93 Q2315.79 1517.37 2312.16 1517.37 M2312.16 1513.66 Q2317.97 1513.66 2321.03 1518.27 Q2324.11 1522.85 2324.11 1531.6 Q2324.11 1540.33 2321.03 1544.94 Q2317.97 1549.52 2312.16 1549.52 Q2306.35 1549.52 2303.27 1544.94 Q2300.22 1540.33 2300.22 1531.6 Q2300.22 1522.85 2303.27 1518.27 Q2306.35 1513.66 2312.16 1513.66 Z" fill="#000000" fill-rule="evenodd" fill-opacity="1" /><polyline clip-path="url(#clip852)" style="stroke:#000000; stroke-linecap:butt; stroke-linejoin:round; stroke-width:2; stroke-opacity:0.1; fill:none" points="
  156.112,1289.55 2352.76,1289.55 
  "/>
<polyline clip-path="url(#clip852)" style="stroke:#000000; stroke-linecap:butt; stroke-linejoin:round; stroke-width:2; stroke-opacity:0.1; fill:none" points="
  156.112,982.861 2352.76,982.861 
  "/>
<polyline clip-path="url(#clip852)" style="stroke:#000000; stroke-linecap:butt; stroke-linejoin:round; stroke-width:2; stroke-opacity:0.1; fill:none" points="
  156.112,676.174 2352.76,676.174 
  "/>
<polyline clip-path="url(#clip852)" style="stroke:#000000; stroke-linecap:butt; stroke-linejoin:round; stroke-width:2; stroke-opacity:0.1; fill:none" points="
  156.112,369.486 2352.76,369.486 
  "/>
<polyline clip-path="url(#clip852)" style="stroke:#000000; stroke-linecap:butt; stroke-linejoin:round; stroke-width:2; stroke-opacity:0.1; fill:none" points="
  156.112,62.7984 2352.76,62.7984 
  "/>
<polyline clip-path="url(#clip850)" style="stroke:#000000; stroke-linecap:butt; stroke-linejoin:round; stroke-width:4; stroke-opacity:1; fill:none" points="
  156.112,1486.45 156.112,47.2441 
  "/>
<polyline clip-path="url(#clip850)" style="stroke:#000000; stroke-linecap:butt; stroke-linejoin:round; stroke-width:4; stroke-opacity:1; fill:none" points="
  156.112,1289.55 175.01,1289.55 
  "/>
<polyline clip-path="url(#clip850)" style="stroke:#000000; stroke-linecap:butt; stroke-linejoin:round; stroke-width:4; stroke-opacity:1; fill:none" points="
  156.112,982.861 175.01,982.861 
  "/>
<polyline clip-path="url(#clip850)" style="stroke:#000000; stroke-linecap:butt; stroke-linejoin:round; stroke-width:4; stroke-opacity:1; fill:none" points="
  156.112,676.174 175.01,676.174 
  "/>
<polyline clip-path="url(#clip850)" style="stroke:#000000; stroke-linecap:butt; stroke-linejoin:round; stroke-width:4; stroke-opacity:1; fill:none" points="
  156.112,369.486 175.01,369.486 
  "/>
<polyline clip-path="url(#clip850)" style="stroke:#000000; stroke-linecap:butt; stroke-linejoin:round; stroke-width:4; stroke-opacity:1; fill:none" points="
  156.112,62.7984 175.01,62.7984 
  "/>
<path clip-path="url(#clip850)" d="M62.9365 1275.35 Q59.3254 1275.35 57.4967 1278.91 Q55.6912 1282.45 55.6912 1289.58 Q55.6912 1296.69 57.4967 1300.25 Q59.3254 1303.8 62.9365 1303.8 Q66.5707 1303.8 68.3763 1300.25 Q70.205 1296.69 70.205 1289.58 Q70.205 1282.45 68.3763 1278.91 Q66.5707 1275.35 62.9365 1275.35 M62.9365 1271.64 Q68.7467 1271.64 71.8022 1276.25 Q74.8809 1280.83 74.8809 1289.58 Q74.8809 1298.31 71.8022 1302.92 Q68.7467 1307.5 62.9365 1307.5 Q57.1264 1307.5 54.0477 1302.92 Q50.9921 1298.31 50.9921 1289.58 Q50.9921 1280.83 54.0477 1276.25 Q57.1264 1271.64 62.9365 1271.64 Z" fill="#000000" fill-rule="evenodd" fill-opacity="1" /><path clip-path="url(#clip850)" d="M83.0984 1300.95 L87.9827 1300.95 L87.9827 1306.83 L83.0984 1306.83 L83.0984 1300.95 Z" fill="#000000" fill-rule="evenodd" fill-opacity="1" /><path clip-path="url(#clip850)" d="M108.168 1275.35 Q104.557 1275.35 102.728 1278.91 Q100.922 1282.45 100.922 1289.58 Q100.922 1296.69 102.728 1300.25 Q104.557 1303.8 108.168 1303.8 Q111.802 1303.8 113.608 1300.25 Q115.436 1296.69 115.436 1289.58 Q115.436 1282.45 113.608 1278.91 Q111.802 1275.35 108.168 1275.35 M108.168 1271.64 Q113.978 1271.64 117.033 1276.25 Q120.112 1280.83 120.112 1289.58 Q120.112 1298.31 117.033 1302.92 Q113.978 1307.5 108.168 1307.5 Q102.358 1307.5 99.2789 1302.92 Q96.2234 1298.31 96.2234 1289.58 Q96.2234 1280.83 99.2789 1276.25 Q102.358 1271.64 108.168 1271.64 Z" fill="#000000" fill-rule="evenodd" fill-opacity="1" /><path clip-path="url(#clip850)" d="M63.9319 968.66 Q60.3208 968.66 58.4921 972.225 Q56.6865 975.766 56.6865 982.896 Q56.6865 990.002 58.4921 993.567 Q60.3208 997.109 63.9319 997.109 Q67.5661 997.109 69.3717 993.567 Q71.2004 990.002 71.2004 982.896 Q71.2004 975.766 69.3717 972.225 Q67.5661 968.66 63.9319 968.66 M63.9319 964.956 Q69.742 964.956 72.7976 969.563 Q75.8763 974.146 75.8763 982.896 Q75.8763 991.623 72.7976 996.229 Q69.742 1000.81 63.9319 1000.81 Q58.1217 1000.81 55.043 996.229 Q51.9875 991.623 51.9875 982.896 Q51.9875 974.146 55.043 969.563 Q58.1217 964.956 63.9319 964.956 Z" fill="#000000" fill-rule="evenodd" fill-opacity="1" /><path clip-path="url(#clip850)" d="M84.0938 994.262 L88.978 994.262 L88.978 1000.14 L84.0938 1000.14 L84.0938 994.262 Z" fill="#000000" fill-rule="evenodd" fill-opacity="1" /><path clip-path="url(#clip850)" d="M99.2095 965.581 L117.566 965.581 L117.566 969.516 L103.492 969.516 L103.492 977.988 Q104.51 977.641 105.529 977.479 Q106.547 977.294 107.566 977.294 Q113.353 977.294 116.733 980.465 Q120.112 983.637 120.112 989.053 Q120.112 994.632 116.64 997.734 Q113.168 1000.81 106.848 1000.81 Q104.672 1000.81 102.404 1000.44 Q100.159 1000.07 97.7511 999.331 L97.7511 994.632 Q99.8345 995.766 102.057 996.322 Q104.279 996.877 106.756 996.877 Q110.76 996.877 113.098 994.771 Q115.436 992.664 115.436 989.053 Q115.436 985.442 113.098 983.336 Q110.76 981.229 106.756 981.229 Q104.881 981.229 103.006 981.646 Q101.154 982.063 99.2095 982.942 L99.2095 965.581 Z" fill="#000000" fill-rule="evenodd" fill-opacity="1" /><path clip-path="url(#clip850)" d="M53.7467 689.518 L61.3856 689.518 L61.3856 663.153 L53.0754 664.819 L53.0754 660.56 L61.3393 658.894 L66.0152 658.894 L66.0152 689.518 L73.654 689.518 L73.654 693.454 L53.7467 693.454 L53.7467 689.518 Z" fill="#000000" fill-rule="evenodd" fill-opacity="1" /><path clip-path="url(#clip850)" d="M83.0984 687.574 L87.9827 687.574 L87.9827 693.454 L83.0984 693.454 L83.0984 687.574 Z" fill="#000000" fill-rule="evenodd" fill-opacity="1" /><path clip-path="url(#clip850)" d="M108.168 661.972 Q104.557 661.972 102.728 665.537 Q100.922 669.079 100.922 676.208 Q100.922 683.315 102.728 686.88 Q104.557 690.421 108.168 690.421 Q111.802 690.421 113.608 686.88 Q115.436 683.315 115.436 676.208 Q115.436 669.079 113.608 665.537 Q111.802 661.972 108.168 661.972 M108.168 658.269 Q113.978 658.269 117.033 662.875 Q120.112 667.458 120.112 676.208 Q120.112 684.935 117.033 689.542 Q113.978 694.125 108.168 694.125 Q102.358 694.125 99.2789 689.542 Q96.2234 684.935 96.2234 676.208 Q96.2234 667.458 99.2789 662.875 Q102.358 658.269 108.168 658.269 Z" fill="#000000" fill-rule="evenodd" fill-opacity="1" /><path clip-path="url(#clip850)" d="M54.7421 382.831 L62.381 382.831 L62.381 356.465 L54.0708 358.132 L54.0708 353.873 L62.3347 352.206 L67.0106 352.206 L67.0106 382.831 L74.6494 382.831 L74.6494 386.766 L54.7421 386.766 L54.7421 382.831 Z" fill="#000000" fill-rule="evenodd" fill-opacity="1" /><path clip-path="url(#clip850)" d="M84.0938 380.886 L88.978 380.886 L88.978 386.766 L84.0938 386.766 L84.0938 380.886 Z" fill="#000000" fill-rule="evenodd" fill-opacity="1" /><path clip-path="url(#clip850)" d="M99.2095 352.206 L117.566 352.206 L117.566 356.141 L103.492 356.141 L103.492 364.613 Q104.51 364.266 105.529 364.104 Q106.547 363.919 107.566 363.919 Q113.353 363.919 116.733 367.09 Q120.112 370.261 120.112 375.678 Q120.112 381.257 116.64 384.359 Q113.168 387.437 106.848 387.437 Q104.672 387.437 102.404 387.067 Q100.159 386.697 97.7511 385.956 L97.7511 381.257 Q99.8345 382.391 102.057 382.947 Q104.279 383.502 106.756 383.502 Q110.76 383.502 113.098 381.396 Q115.436 379.289 115.436 375.678 Q115.436 372.067 113.098 369.96 Q110.76 367.854 106.756 367.854 Q104.881 367.854 103.006 368.271 Q101.154 368.687 99.2095 369.567 L99.2095 352.206 Z" fill="#000000" fill-rule="evenodd" fill-opacity="1" /><path clip-path="url(#clip850)" d="M56.9643 76.1432 L73.2837 76.1432 L73.2837 80.0784 L51.3393 80.0784 L51.3393 76.1432 Q54.0014 73.3886 58.5847 68.759 Q63.1911 64.1062 64.3717 62.7636 Q66.617 60.2405 67.4967 58.5044 Q68.3994 56.7451 68.3994 55.0553 Q68.3994 52.3007 66.455 50.5646 Q64.5337 48.8285 61.4319 48.8285 Q59.2328 48.8285 56.7791 49.5924 Q54.3486 50.3563 51.5708 51.9072 L51.5708 47.185 Q54.3949 46.0508 56.8486 45.4721 Q59.3023 44.8934 61.3393 44.8934 Q66.7096 44.8934 69.9041 47.5785 Q73.0985 50.2637 73.0985 54.7544 Q73.0985 56.884 72.2883 58.8053 Q71.5013 60.7035 69.3948 63.296 Q68.8161 63.9673 65.7143 67.1849 Q62.6124 70.3793 56.9643 76.1432 Z" fill="#000000" fill-rule="evenodd" fill-opacity="1" /><path clip-path="url(#clip850)" d="M83.0984 74.1988 L87.9827 74.1988 L87.9827 80.0784 L83.0984 80.0784 L83.0984 74.1988 Z" fill="#000000" fill-rule="evenodd" fill-opacity="1" /><path clip-path="url(#clip850)" d="M108.168 48.597 Q104.557 48.597 102.728 52.1618 Q100.922 55.7035 100.922 62.8331 Q100.922 69.9395 102.728 73.5043 Q104.557 77.046 108.168 77.046 Q111.802 77.046 113.608 73.5043 Q115.436 69.9395 115.436 62.8331 Q115.436 55.7035 113.608 52.1618 Q111.802 48.597 108.168 48.597 M108.168 44.8934 Q113.978 44.8934 117.033 49.4998 Q120.112 54.0831 120.112 62.8331 Q120.112 71.5599 117.033 76.1663 Q113.978 80.7496 108.168 80.7496 Q102.358 80.7496 99.2789 76.1663 Q96.2234 71.5599 96.2234 62.8331 Q96.2234 54.0831 99.2789 49.4998 Q102.358 44.8934 108.168 44.8934 Z" fill="#000000" fill-rule="evenodd" fill-opacity="1" /><polyline clip-path="url(#clip852)" style="stroke:#009af9; stroke-linecap:butt; stroke-linejoin:round; stroke-width:4; stroke-opacity:1; fill:none" points="
  218.281,1265.96 219.317,1265.91 220.354,1265.87 221.39,1265.82 222.426,1265.77 223.462,1265.73 224.498,1265.68 225.534,1265.64 226.571,1265.59 227.607,1265.54 
  228.643,1265.5 229.679,1265.45 230.715,1265.4 231.751,1265.36 232.787,1265.31 233.824,1265.26 234.86,1265.21 235.896,1265.17 236.932,1265.12 237.968,1265.07 
  239.004,1265.02 240.04,1264.98 241.077,1264.93 242.113,1264.88 243.149,1264.83 244.185,1264.78 245.221,1264.73 246.257,1264.68 247.294,1264.63 248.33,1264.59 
  249.366,1264.54 250.402,1264.49 251.438,1264.44 252.474,1264.39 253.51,1264.34 254.547,1264.29 255.583,1264.24 256.619,1264.19 257.655,1264.14 258.691,1264.08 
  259.727,1264.03 260.764,1263.98 261.8,1263.93 262.836,1263.88 263.872,1263.83 264.908,1263.78 265.944,1263.73 266.98,1263.67 268.017,1263.62 269.053,1263.57 
  270.089,1263.52 271.125,1263.46 272.161,1263.41 273.197,1263.36 274.234,1263.31 275.27,1263.25 276.306,1263.2 277.342,1263.15 278.378,1263.09 279.414,1263.04 
  280.45,1262.98 281.487,1262.93 282.523,1262.88 283.559,1262.82 284.595,1262.77 285.631,1262.71 286.667,1262.66 287.704,1262.6 288.74,1262.55 289.776,1262.49 
  290.812,1262.44 291.848,1262.38 292.884,1262.32 293.92,1262.27 294.957,1262.21 295.993,1262.15 297.029,1262.1 298.065,1262.04 299.101,1261.98 300.137,1261.93 
  301.174,1261.87 302.21,1261.81 303.246,1261.75 304.282,1261.7 305.318,1261.64 306.354,1261.58 307.39,1261.52 308.427,1261.46 309.463,1261.4 310.499,1261.35 
  311.535,1261.29 312.571,1261.23 313.607,1261.17 314.643,1261.11 315.68,1261.05 316.716,1260.99 317.752,1260.93 318.788,1260.87 319.824,1260.81 320.86,1260.75 
  321.897,1260.68 322.933,1260.62 323.969,1260.56 325.005,1260.5 326.041,1260.44 327.077,1260.38 328.113,1260.31 329.15,1260.25 330.186,1260.19 331.222,1260.13 
  332.258,1260.06 333.294,1260 334.33,1259.94 335.367,1259.87 336.403,1259.81 337.439,1259.75 338.475,1259.68 339.511,1259.62 340.547,1259.55 341.583,1259.49 
  342.62,1259.42 343.656,1259.36 344.692,1259.29 345.728,1259.23 346.764,1259.16 347.8,1259.09 348.837,1259.03 349.873,1258.96 350.909,1258.89 351.945,1258.83 
  352.981,1258.76 354.017,1258.69 355.053,1258.63 356.09,1258.56 357.126,1258.49 358.162,1258.42 359.198,1258.35 360.234,1258.28 361.27,1258.22 362.307,1258.15 
  363.343,1258.08 364.379,1258.01 365.415,1257.94 366.451,1257.87 367.487,1257.8 368.523,1257.73 369.56,1257.66 370.596,1257.59 371.632,1257.51 372.668,1257.44 
  373.704,1257.37 374.74,1257.3 375.777,1257.23 376.813,1257.16 377.849,1257.08 378.885,1257.01 379.921,1256.94 380.957,1256.86 381.993,1256.79 383.03,1256.72 
  384.066,1256.64 385.102,1256.57 386.138,1256.49 387.174,1256.42 388.21,1256.34 389.246,1256.27 390.283,1256.19 391.319,1256.12 392.355,1256.04 393.391,1255.96 
  394.427,1255.89 395.463,1255.81 396.5,1255.73 397.536,1255.66 398.572,1255.58 399.608,1255.5 400.644,1255.42 401.68,1255.35 402.716,1255.27 403.753,1255.19 
  404.789,1255.11 405.825,1255.03 406.861,1254.95 407.897,1254.87 408.933,1254.79 409.97,1254.71 411.006,1254.63 412.042,1254.55 413.078,1254.47 414.114,1254.38 
  415.15,1254.3 416.186,1254.22 417.223,1254.14 418.259,1254.05 419.295,1253.97 420.331,1253.89 421.367,1253.81 422.403,1253.72 423.44,1253.64 424.476,1253.55 
  425.512,1253.47 426.548,1253.38 427.584,1253.3 428.62,1253.21 429.656,1253.13 430.693,1253.04 431.729,1252.95 432.765,1252.87 433.801,1252.78 434.837,1252.69 
  435.873,1252.6 436.91,1252.52 437.946,1252.43 438.982,1252.34 440.018,1252.25 441.054,1252.16 442.09,1252.07 443.126,1251.98 444.163,1251.89 445.199,1251.8 
  446.235,1251.71 447.271,1251.62 448.307,1251.53 449.343,1251.43 450.38,1251.34 451.416,1251.25 452.452,1251.16 453.488,1251.06 454.524,1250.97 455.56,1250.88 
  456.596,1250.78 457.633,1250.69 458.669,1250.59 459.705,1250.5 460.741,1250.4 461.777,1250.31 462.813,1250.21 463.849,1250.11 464.886,1250.02 465.922,1249.92 
  466.958,1249.82 467.994,1249.72 469.03,1249.63 470.066,1249.53 471.103,1249.43 472.139,1249.33 473.175,1249.23 474.211,1249.13 475.247,1249.03 476.283,1248.93 
  477.319,1248.83 478.356,1248.73 479.392,1248.62 480.428,1248.52 481.464,1248.42 482.5,1248.32 483.536,1248.21 484.573,1248.11 485.609,1248 486.645,1247.9 
  487.681,1247.79 488.717,1247.69 489.753,1247.58 490.789,1247.48 491.826,1247.37 492.862,1247.26 493.898,1247.16 494.934,1247.05 495.97,1246.94 497.006,1246.83 
  498.043,1246.72 499.079,1246.61 500.115,1246.5 501.151,1246.39 502.187,1246.28 503.223,1246.17 504.259,1246.06 505.296,1245.95 506.332,1245.84 507.368,1245.72 
  508.404,1245.61 509.44,1245.5 510.476,1245.38 511.513,1245.27 512.549,1245.15 513.585,1245.04 514.621,1244.92 515.657,1244.81 516.693,1244.69 517.729,1244.57 
  518.766,1244.46 519.802,1244.34 520.838,1244.22 521.874,1244.1 522.91,1243.98 523.946,1243.86 524.982,1243.74 526.019,1243.62 527.055,1243.5 528.091,1243.38 
  529.127,1243.26 530.163,1243.13 531.199,1243.01 532.236,1242.89 533.272,1242.76 534.308,1242.64 535.344,1242.51 536.38,1242.39 537.416,1242.26 538.452,1242.14 
  539.489,1242.01 540.525,1241.88 541.561,1241.75 542.597,1241.63 543.633,1241.5 544.669,1241.37 545.706,1241.24 546.742,1241.11 547.778,1240.98 548.814,1240.85 
  549.85,1240.71 550.886,1240.58 551.922,1240.45 552.959,1240.31 553.995,1240.18 555.031,1240.05 556.067,1239.91 557.103,1239.77 558.139,1239.64 559.176,1239.5 
  560.212,1239.36 561.248,1239.23 562.284,1239.09 563.32,1238.95 564.356,1238.81 565.392,1238.67 566.429,1238.53 567.465,1238.39 568.501,1238.25 569.537,1238.1 
  570.573,1237.96 571.609,1237.82 572.646,1237.67 573.682,1237.53 574.718,1237.38 575.754,1237.24 576.79,1237.09 577.826,1236.94 578.862,1236.8 579.899,1236.65 
  580.935,1236.5 581.971,1236.35 583.007,1236.2 584.043,1236.05 585.079,1235.9 586.116,1235.75 587.152,1235.59 588.188,1235.44 589.224,1235.29 590.26,1235.13 
  591.296,1234.98 592.332,1234.82 593.369,1234.67 594.405,1234.51 595.441,1234.35 596.477,1234.19 597.513,1234.03 598.549,1233.87 599.585,1233.71 600.622,1233.55 
  601.658,1233.39 602.694,1233.23 603.73,1233.07 604.766,1232.9 605.802,1232.74 606.839,1232.57 607.875,1232.41 608.911,1232.24 609.947,1232.07 610.983,1231.91 
  612.019,1231.74 613.055,1231.57 614.092,1231.4 615.128,1231.23 616.164,1231.06 617.2,1230.88 618.236,1230.71 619.272,1230.54 620.309,1230.36 621.345,1230.19 
  622.381,1230.01 623.417,1229.84 624.453,1229.66 625.489,1229.48 626.525,1229.3 627.562,1229.12 628.598,1228.94 629.634,1228.76 630.67,1228.58 631.706,1228.39 
  632.742,1228.21 633.779,1228.03 634.815,1227.84 635.851,1227.66 636.887,1227.47 637.923,1227.28 638.959,1227.09 639.995,1226.9 641.032,1226.71 642.068,1226.52 
  643.104,1226.33 644.14,1226.14 645.176,1225.94 646.212,1225.75 647.249,1225.55 648.285,1225.36 649.321,1225.16 650.357,1224.96 651.393,1224.77 652.429,1224.57 
  653.465,1224.37 654.502,1224.16 655.538,1223.96 656.574,1223.76 657.61,1223.55 658.646,1223.35 659.682,1223.14 660.719,1222.94 661.755,1222.73 662.791,1222.52 
  663.827,1222.31 664.863,1222.1 665.899,1221.89 666.935,1221.68 667.972,1221.46 669.008,1221.25 670.044,1221.03 671.08,1220.82 672.116,1220.6 673.152,1220.38 
  674.188,1220.16 675.225,1219.94 676.261,1219.72 677.297,1219.5 678.333,1219.28 679.369,1219.05 680.405,1218.83 681.442,1218.6 682.478,1218.37 683.514,1218.14 
  684.55,1217.91 685.586,1217.68 686.622,1217.45 687.658,1217.22 688.695,1216.98 689.731,1216.75 690.767,1216.51 691.803,1216.28 692.839,1216.04 693.875,1215.8 
  694.912,1215.56 695.948,1215.32 696.984,1215.07 698.02,1214.83 699.056,1214.59 700.092,1214.34 701.128,1214.09 702.165,1213.84 703.201,1213.59 704.237,1213.34 
  705.273,1213.09 706.309,1212.84 707.345,1212.58 708.382,1212.33 709.418,1212.07 710.454,1211.81 711.49,1211.55 712.526,1211.29 713.562,1211.03 714.598,1210.77 
  715.635,1210.51 716.671,1210.24 717.707,1209.97 718.743,1209.71 719.779,1209.44 720.815,1209.17 721.852,1208.89 722.888,1208.62 723.924,1208.35 724.96,1208.07 
  725.996,1207.79 727.032,1207.51 728.068,1207.23 729.105,1206.95 730.141,1206.67 731.177,1206.39 732.213,1206.1 733.249,1205.81 734.285,1205.53 735.321,1205.24 
  736.358,1204.95 737.394,1204.65 738.43,1204.36 739.466,1204.06 740.502,1203.77 741.538,1203.47 742.575,1203.17 743.611,1202.87 744.647,1202.56 745.683,1202.26 
  746.719,1201.95 747.755,1201.65 748.791,1201.34 749.828,1201.03 750.864,1200.72 751.9,1200.4 752.936,1200.09 753.972,1199.77 755.008,1199.45 756.045,1199.13 
  757.081,1198.81 758.117,1198.49 759.153,1198.17 760.189,1197.84 761.225,1197.51 762.261,1197.18 763.298,1196.85 764.334,1196.52 765.37,1196.18 766.406,1195.85 
  767.442,1195.51 768.478,1195.17 769.515,1194.83 770.551,1194.48 771.587,1194.14 772.623,1193.79 773.659,1193.44 774.695,1193.09 775.731,1192.74 776.768,1192.39 
  777.804,1192.03 778.84,1191.68 779.876,1191.32 780.912,1190.95 781.948,1190.59 782.985,1190.23 784.021,1189.86 785.057,1189.49 786.093,1189.12 787.129,1188.75 
  788.165,1188.37 789.201,1188 790.238,1187.62 791.274,1187.24 792.31,1186.86 793.346,1186.47 794.382,1186.08 795.418,1185.7 796.455,1185.31 797.491,1184.91 
  798.527,1184.52 799.563,1184.12 800.599,1183.72 801.635,1183.32 802.671,1182.92 803.708,1182.51 804.744,1182.11 805.78,1181.7 806.816,1181.29 807.852,1180.87 
  808.888,1180.46 809.924,1180.04 810.961,1179.62 811.997,1179.19 813.033,1178.77 814.069,1178.34 815.105,1177.91 816.141,1177.48 817.178,1177.05 818.214,1176.61 
  819.25,1176.17 820.286,1175.73 821.322,1175.29 822.358,1174.84 823.394,1174.39 824.431,1173.94 825.467,1173.49 826.503,1173.03 827.539,1172.57 828.575,1172.11 
  829.611,1171.65 830.648,1171.18 831.684,1170.71 832.72,1170.24 833.756,1169.77 834.792,1169.29 835.828,1168.82 836.864,1168.33 837.901,1167.85 838.937,1167.36 
  839.973,1166.87 841.009,1166.38 842.045,1165.89 843.081,1165.39 844.118,1164.89 845.154,1164.39 846.19,1163.88 847.226,1163.37 848.262,1162.86 849.298,1162.35 
  850.334,1161.83 851.371,1161.31 852.407,1160.79 853.443,1160.26 854.479,1159.73 855.515,1159.2 856.551,1158.66 857.588,1158.13 858.624,1157.59 859.66,1157.04 
  860.696,1156.5 861.732,1155.95 862.768,1155.39 863.804,1154.84 864.841,1154.28 865.877,1153.71 866.913,1153.15 867.949,1152.58 868.985,1152.01 870.021,1151.43 
  871.058,1150.85 872.094,1150.27 873.13,1149.69 874.166,1149.1 875.202,1148.51 876.238,1147.91 877.274,1147.31 878.311,1146.71 879.347,1146.11 880.383,1145.5 
  881.419,1144.88 882.455,1144.27 883.491,1143.65 884.527,1143.03 885.564,1142.4 886.6,1141.77 887.636,1141.14 888.672,1140.5 889.708,1139.86 890.744,1139.21 
  891.781,1138.56 892.817,1137.91 893.853,1137.26 894.889,1136.6 895.925,1135.93 896.961,1135.26 897.997,1134.59 899.034,1133.92 900.07,1133.24 901.106,1132.56 
  902.142,1131.87 903.178,1131.18 904.214,1130.48 905.251,1129.78 906.287,1129.08 907.323,1128.37 908.359,1127.66 909.395,1126.95 910.431,1126.23 911.467,1125.5 
  912.504,1124.77 913.54,1124.04 914.576,1123.3 915.612,1122.56 916.648,1121.82 917.684,1121.07 918.721,1120.31 919.757,1119.56 920.793,1118.79 921.829,1118.02 
  922.865,1117.25 923.901,1116.48 924.937,1115.69 925.974,1114.91 927.01,1114.12 928.046,1113.32 929.082,1112.52 930.118,1111.72 931.154,1110.91 932.191,1110.1 
  933.227,1109.28 934.263,1108.45 935.299,1107.62 936.335,1106.79 937.371,1105.95 938.407,1105.11 939.444,1104.26 940.48,1103.41 941.516,1102.55 942.552,1101.69 
  943.588,1100.82 944.624,1099.94 945.661,1099.07 946.697,1098.18 947.733,1097.29 948.769,1096.4 949.805,1095.5 950.841,1094.59 951.877,1093.68 952.914,1092.77 
  953.95,1091.85 954.986,1090.92 956.022,1089.99 957.058,1089.05 958.094,1088.11 959.13,1087.16 960.167,1086.2 961.203,1085.24 962.239,1084.28 963.275,1083.3 
  964.311,1082.33 965.347,1081.34 966.384,1080.36 967.42,1079.36 968.456,1078.36 969.492,1077.35 970.528,1076.34 971.564,1075.32 972.6,1074.3 973.637,1073.27 
  974.673,1072.23 975.709,1071.19 976.745,1070.14 977.781,1069.09 978.817,1068.03 979.854,1066.96 980.89,1065.89 981.926,1064.81 982.962,1063.72 983.998,1062.63 
  985.034,1061.53 986.07,1060.42 987.107,1059.31 988.143,1058.19 989.179,1057.07 990.215,1055.94 991.251,1054.8 992.287,1053.66 993.324,1052.5 994.36,1051.35 
  995.396,1050.18 996.432,1049.01 997.468,1047.83 998.504,1046.65 999.54,1045.46 1000.58,1044.26 1001.61,1043.05 1002.65,1041.84 1003.69,1040.62 1004.72,1039.4 
  1005.76,1038.17 1006.79,1036.93 1007.83,1035.68 1008.87,1034.42 1009.9,1033.16 1010.94,1031.9 1011.97,1030.62 1013.01,1029.34 1014.05,1028.05 1015.08,1026.75 
  1016.12,1025.45 1017.16,1024.14 1018.19,1022.82 1019.23,1021.49 1020.26,1020.16 1021.3,1018.82 1022.34,1017.47 1023.37,1016.11 1024.41,1014.75 1025.44,1013.38 
  1026.48,1012 1027.52,1010.62 1028.55,1009.23 1029.59,1007.83 1030.63,1006.42 1031.66,1005 1032.7,1003.58 1033.73,1002.15 1034.77,1000.71 1035.81,999.266 
  1036.84,997.813 1037.88,996.352 1038.91,994.883 1039.95,993.407 1040.99,991.924 1042.02,990.433 1043.06,988.934 1044.1,987.427 1045.13,985.913 1046.17,984.391 
  1047.2,982.861 1048.24,981.324 1049.28,979.779 1050.31,978.226 1051.35,976.666 1052.38,975.098 1053.42,973.523 1054.46,971.939 1055.49,970.348 1056.53,968.75 
  1057.56,967.144 1058.6,965.53 1059.64,963.909 1060.67,962.28 1061.71,960.644 1062.75,959 1063.78,957.348 1064.82,955.689 1065.85,954.023 1066.89,952.349 
  1067.93,950.667 1068.96,948.979 1070,947.283 1071.03,945.579 1072.07,943.868 1073.11,942.15 1074.14,940.425 1075.18,938.693 1076.22,936.953 1077.25,935.207 
  1078.29,933.453 1079.32,931.692 1080.36,929.924 1081.4,928.15 1082.43,926.368 1083.47,924.58 1084.5,922.785 1085.54,920.984 1086.58,919.175 1087.61,917.361 
  1088.65,915.539 1089.69,913.712 1090.72,911.878 1091.76,910.038 1092.79,908.191 1093.83,906.339 1094.87,904.48 1095.9,902.616 1096.94,900.746 1097.97,898.87 
  1099.01,896.989 1100.05,895.102 1101.08,893.209 1102.12,891.311 1103.16,889.408 1104.19,887.5 1105.23,885.587 1106.26,883.669 1107.3,881.747 1108.34,879.819 
  1109.37,877.888 1110.41,875.951 1111.44,874.011 1112.48,872.067 1113.52,870.118 1114.55,868.166 1115.59,866.21 1116.63,864.251 1117.66,862.288 1118.7,860.322 
  1119.73,858.354 1120.77,856.382 1121.81,854.407 1122.84,852.431 1123.88,850.451 1124.91,848.47 1125.95,846.487 1126.99,844.502 1128.02,842.515 1129.06,840.527 
  1130.1,838.538 1131.13,836.547 1132.17,834.556 1133.2,832.565 1134.24,830.573 1135.28,828.581 1136.31,826.589 1137.35,824.598 1138.38,822.607 1139.42,820.616 
  1140.46,818.627 1141.49,816.639 1142.53,814.653 1143.57,812.669 1144.6,810.686 1145.64,808.706 1146.67,806.728 1147.71,804.753 1148.75,802.782 1149.78,800.813 
  1150.82,798.849 1151.85,796.888 1152.89,794.931 1153.93,792.979 1154.96,791.032 1156,789.09 1157.04,787.153 1158.07,785.222 1159.11,783.297 1160.14,781.378 
  1161.18,779.465 1162.22,777.56 1163.25,775.662 1164.29,773.771 1165.32,771.889 1166.36,770.014 1167.4,768.149 1168.43,766.292 1169.47,764.444 1170.51,762.605 
  1171.54,760.777 1172.58,758.959 1173.61,757.151 1174.65,755.354 1175.69,753.569 1176.72,751.795 1177.76,750.033 1178.79,748.284 1179.83,746.547 1180.87,744.823 
  1181.9,743.112 1182.94,741.415 1183.98,739.732 1185.01,738.064 1186.05,736.41 1187.08,734.772 1188.12,733.149 1189.16,731.542 1190.19,729.951 1191.23,728.377 
  1192.26,726.819 1193.3,725.279 1194.34,723.757 1195.37,722.252 1196.41,720.766 1197.45,719.299 1198.48,717.85 1199.52,716.421 1200.55,715.012 1201.59,713.623 
  1202.63,712.254 1203.66,710.907 1204.7,709.58 1205.73,708.274 1206.77,706.991 1207.81,705.729 1208.84,704.49 1209.88,703.274 1210.92,702.081 1211.95,700.911 
  1212.99,699.765 1214.02,698.643 1215.06,697.545 1216.1,696.472 1217.13,695.423 1218.17,694.4 1219.2,693.402 1220.24,692.43 1221.28,691.484 1222.31,690.564 
  1223.35,689.671 1224.39,688.804 1225.42,687.965 1226.46,687.152 1227.49,686.367 1228.53,685.61 1229.57,684.881 1230.6,684.18 1231.64,683.507 1232.67,682.862 
  1233.71,682.247 1234.75,681.66 1235.78,681.102 1236.82,680.573 1237.86,680.074 1238.89,679.604 1239.93,679.164 1240.96,678.754 1242,678.374 1243.04,678.023 
  1244.07,677.703 1245.11,677.413 1246.14,677.153 1247.18,676.924 1248.22,676.725 1249.25,676.557 1250.29,676.419 1251.33,676.312 1252.36,676.235 1253.4,676.189 
  1254.43,676.174 1255.47,676.189 1256.51,676.235 1257.54,676.312 1258.58,676.419 1259.61,676.557 1260.65,676.725 1261.69,676.924 1262.72,677.153 1263.76,677.413 
  1264.8,677.703 1265.83,678.023 1266.87,678.374 1267.9,678.754 1268.94,679.164 1269.98,679.604 1271.01,680.074 1272.05,680.573 1273.08,681.102 1274.12,681.66 
  1275.16,682.247 1276.19,682.862 1277.23,683.507 1278.27,684.18 1279.3,684.881 1280.34,685.61 1281.37,686.367 1282.41,687.152 1283.45,687.965 1284.48,688.804 
  1285.52,689.671 1286.55,690.564 1287.59,691.484 1288.63,692.43 1289.66,693.402 1290.7,694.4 1291.74,695.423 1292.77,696.472 1293.81,697.545 1294.84,698.643 
  1295.88,699.765 1296.92,700.911 1297.95,702.081 1298.99,703.274 1300.02,704.49 1301.06,705.729 1302.1,706.991 1303.13,708.274 1304.17,709.58 1305.21,710.907 
  1306.24,712.254 1307.28,713.623 1308.31,715.012 1309.35,716.421 1310.39,717.85 1311.42,719.299 1312.46,720.766 1313.49,722.252 1314.53,723.757 1315.57,725.279 
  1316.6,726.819 1317.64,728.377 1318.68,729.951 1319.71,731.542 1320.75,733.149 1321.78,734.772 1322.82,736.41 1323.86,738.064 1324.89,739.732 1325.93,741.415 
  1326.96,743.112 1328,744.823 1329.04,746.547 1330.07,748.284 1331.11,750.033 1332.15,751.795 1333.18,753.569 1334.22,755.354 1335.25,757.151 1336.29,758.959 
  1337.33,760.777 1338.36,762.605 1339.4,764.444 1340.43,766.292 1341.47,768.149 1342.51,770.014 1343.54,771.889 1344.58,773.771 1345.62,775.662 1346.65,777.56 
  1347.69,779.465 1348.72,781.378 1349.76,783.297 1350.8,785.222 1351.83,787.153 1352.87,789.09 1353.9,791.032 1354.94,792.979 1355.98,794.931 1357.01,796.888 
  1358.05,798.849 1359.09,800.813 1360.12,802.782 1361.16,804.753 1362.19,806.728 1363.23,808.706 1364.27,810.686 1365.3,812.669 1366.34,814.653 1367.37,816.639 
  1368.41,818.627 1369.45,820.616 1370.48,822.607 1371.52,824.598 1372.56,826.589 1373.59,828.581 1374.63,830.573 1375.66,832.565 1376.7,834.556 1377.74,836.547 
  1378.77,838.538 1379.81,840.527 1380.84,842.515 1381.88,844.502 1382.92,846.487 1383.95,848.47 1384.99,850.451 1386.03,852.431 1387.06,854.407 1388.1,856.382 
  1389.13,858.354 1390.17,860.322 1391.21,862.288 1392.24,864.251 1393.28,866.21 1394.31,868.166 1395.35,870.118 1396.39,872.067 1397.42,874.011 1398.46,875.951 
  1399.5,877.888 1400.53,879.819 1401.57,881.747 1402.6,883.669 1403.64,885.587 1404.68,887.5 1405.71,889.408 1406.75,891.311 1407.78,893.209 1408.82,895.102 
  1409.86,896.989 1410.89,898.87 1411.93,900.746 1412.97,902.616 1414,904.48 1415.04,906.339 1416.07,908.191 1417.11,910.038 1418.15,911.878 1419.18,913.712 
  1420.22,915.539 1421.25,917.361 1422.29,919.175 1423.33,920.984 1424.36,922.785 1425.4,924.58 1426.44,926.368 1427.47,928.15 1428.51,929.924 1429.54,931.692 
  1430.58,933.453 1431.62,935.207 1432.65,936.953 1433.69,938.693 1434.72,940.425 1435.76,942.15 1436.8,943.868 1437.83,945.579 1438.87,947.283 1439.91,948.979 
  1440.94,950.667 1441.98,952.349 1443.01,954.023 1444.05,955.689 1445.09,957.348 1446.12,959 1447.16,960.644 1448.19,962.28 1449.23,963.909 1450.27,965.53 
  1451.3,967.144 1452.34,968.75 1453.38,970.348 1454.41,971.939 1455.45,973.523 1456.48,975.098 1457.52,976.666 1458.56,978.226 1459.59,979.779 1460.63,981.324 
  1461.66,982.861 1462.7,984.391 1463.74,985.913 1464.77,987.427 1465.81,988.934 1466.85,990.433 1467.88,991.924 1468.92,993.407 1469.95,994.883 1470.99,996.352 
  1472.03,997.813 1473.06,999.266 1474.1,1000.71 1475.13,1002.15 1476.17,1003.58 1477.21,1005 1478.24,1006.42 1479.28,1007.83 1480.32,1009.23 1481.35,1010.62 
  1482.39,1012 1483.42,1013.38 1484.46,1014.75 1485.5,1016.11 1486.53,1017.47 1487.57,1018.82 1488.6,1020.16 1489.64,1021.49 1490.68,1022.82 1491.71,1024.14 
  1492.75,1025.45 1493.79,1026.75 1494.82,1028.05 1495.86,1029.34 1496.89,1030.62 1497.93,1031.9 1498.97,1033.16 1500,1034.42 1501.04,1035.68 1502.07,1036.93 
  1503.11,1038.17 1504.15,1039.4 1505.18,1040.62 1506.22,1041.84 1507.26,1043.05 1508.29,1044.26 1509.33,1045.46 1510.36,1046.65 1511.4,1047.83 1512.44,1049.01 
  1513.47,1050.18 1514.51,1051.35 1515.54,1052.5 1516.58,1053.66 1517.62,1054.8 1518.65,1055.94 1519.69,1057.07 1520.73,1058.19 1521.76,1059.31 1522.8,1060.42 
  1523.83,1061.53 1524.87,1062.63 1525.91,1063.72 1526.94,1064.81 1527.98,1065.89 1529.01,1066.96 1530.05,1068.03 1531.09,1069.09 1532.12,1070.14 1533.16,1071.19 
  1534.2,1072.23 1535.23,1073.27 1536.27,1074.3 1537.3,1075.32 1538.34,1076.34 1539.38,1077.35 1540.41,1078.36 1541.45,1079.36 1542.48,1080.36 1543.52,1081.34 
  1544.56,1082.33 1545.59,1083.3 1546.63,1084.28 1547.67,1085.24 1548.7,1086.2 1549.74,1087.16 1550.77,1088.11 1551.81,1089.05 1552.85,1089.99 1553.88,1090.92 
  1554.92,1091.85 1555.95,1092.77 1556.99,1093.68 1558.03,1094.59 1559.06,1095.5 1560.1,1096.4 1561.14,1097.29 1562.17,1098.18 1563.21,1099.07 1564.24,1099.94 
  1565.28,1100.82 1566.32,1101.69 1567.35,1102.55 1568.39,1103.41 1569.42,1104.26 1570.46,1105.11 1571.5,1105.95 1572.53,1106.79 1573.57,1107.62 1574.61,1108.45 
  1575.64,1109.28 1576.68,1110.1 1577.71,1110.91 1578.75,1111.72 1579.79,1112.52 1580.82,1113.32 1581.86,1114.12 1582.89,1114.91 1583.93,1115.69 1584.97,1116.48 
  1586,1117.25 1587.04,1118.02 1588.08,1118.79 1589.11,1119.56 1590.15,1120.31 1591.18,1121.07 1592.22,1121.82 1593.26,1122.56 1594.29,1123.3 1595.33,1124.04 
  1596.36,1124.77 1597.4,1125.5 1598.44,1126.23 1599.47,1126.95 1600.51,1127.66 1601.55,1128.37 1602.58,1129.08 1603.62,1129.78 1604.65,1130.48 1605.69,1131.18 
  1606.73,1131.87 1607.76,1132.56 1608.8,1133.24 1609.83,1133.92 1610.87,1134.59 1611.91,1135.26 1612.94,1135.93 1613.98,1136.6 1615.02,1137.26 1616.05,1137.91 
  1617.09,1138.56 1618.12,1139.21 1619.16,1139.86 1620.2,1140.5 1621.23,1141.14 1622.27,1141.77 1623.3,1142.4 1624.34,1143.03 1625.38,1143.65 1626.41,1144.27 
  1627.45,1144.88 1628.49,1145.5 1629.52,1146.11 1630.56,1146.71 1631.59,1147.31 1632.63,1147.91 1633.67,1148.51 1634.7,1149.1 1635.74,1149.69 1636.77,1150.27 
  1637.81,1150.85 1638.85,1151.43 1639.88,1152.01 1640.92,1152.58 1641.96,1153.15 1642.99,1153.71 1644.03,1154.28 1645.06,1154.84 1646.1,1155.39 1647.14,1155.95 
  1648.17,1156.5 1649.21,1157.04 1650.24,1157.59 1651.28,1158.13 1652.32,1158.66 1653.35,1159.2 1654.39,1159.73 1655.43,1160.26 1656.46,1160.79 1657.5,1161.31 
  1658.53,1161.83 1659.57,1162.35 1660.61,1162.86 1661.64,1163.37 1662.68,1163.88 1663.71,1164.39 1664.75,1164.89 1665.79,1165.39 1666.82,1165.89 1667.86,1166.38 
  1668.9,1166.87 1669.93,1167.36 1670.97,1167.85 1672,1168.33 1673.04,1168.82 1674.08,1169.29 1675.11,1169.77 1676.15,1170.24 1677.18,1170.71 1678.22,1171.18 
  1679.26,1171.65 1680.29,1172.11 1681.33,1172.57 1682.37,1173.03 1683.4,1173.49 1684.44,1173.94 1685.47,1174.39 1686.51,1174.84 1687.55,1175.29 1688.58,1175.73 
  1689.62,1176.17 1690.65,1176.61 1691.69,1177.05 1692.73,1177.48 1693.76,1177.91 1694.8,1178.34 1695.84,1178.77 1696.87,1179.19 1697.91,1179.62 1698.94,1180.04 
  1699.98,1180.46 1701.02,1180.87 1702.05,1181.29 1703.09,1181.7 1704.12,1182.11 1705.16,1182.51 1706.2,1182.92 1707.23,1183.32 1708.27,1183.72 1709.31,1184.12 
  1710.34,1184.52 1711.38,1184.91 1712.41,1185.31 1713.45,1185.7 1714.49,1186.08 1715.52,1186.47 1716.56,1186.86 1717.59,1187.24 1718.63,1187.62 1719.67,1188 
  1720.7,1188.37 1721.74,1188.75 1722.78,1189.12 1723.81,1189.49 1724.85,1189.86 1725.88,1190.23 1726.92,1190.59 1727.96,1190.95 1728.99,1191.32 1730.03,1191.68 
  1731.06,1192.03 1732.1,1192.39 1733.14,1192.74 1734.17,1193.09 1735.21,1193.44 1736.25,1193.79 1737.28,1194.14 1738.32,1194.48 1739.35,1194.83 1740.39,1195.17 
  1741.43,1195.51 1742.46,1195.85 1743.5,1196.18 1744.53,1196.52 1745.57,1196.85 1746.61,1197.18 1747.64,1197.51 1748.68,1197.84 1749.72,1198.17 1750.75,1198.49 
  1751.79,1198.81 1752.82,1199.13 1753.86,1199.45 1754.9,1199.77 1755.93,1200.09 1756.97,1200.4 1758,1200.72 1759.04,1201.03 1760.08,1201.34 1761.11,1201.65 
  1762.15,1201.95 1763.19,1202.26 1764.22,1202.56 1765.26,1202.87 1766.29,1203.17 1767.33,1203.47 1768.37,1203.77 1769.4,1204.06 1770.44,1204.36 1771.47,1204.65 
  1772.51,1204.95 1773.55,1205.24 1774.58,1205.53 1775.62,1205.81 1776.65,1206.1 1777.69,1206.39 1778.73,1206.67 1779.76,1206.95 1780.8,1207.23 1781.84,1207.51 
  1782.87,1207.79 1783.91,1208.07 1784.94,1208.35 1785.98,1208.62 1787.02,1208.89 1788.05,1209.17 1789.09,1209.44 1790.12,1209.71 1791.16,1209.97 1792.2,1210.24 
  1793.23,1210.51 1794.27,1210.77 1795.31,1211.03 1796.34,1211.29 1797.38,1211.55 1798.41,1211.81 1799.45,1212.07 1800.49,1212.33 1801.52,1212.58 1802.56,1212.84 
  1803.59,1213.09 1804.63,1213.34 1805.67,1213.59 1806.7,1213.84 1807.74,1214.09 1808.78,1214.34 1809.81,1214.59 1810.85,1214.83 1811.88,1215.07 1812.92,1215.32 
  1813.96,1215.56 1814.99,1215.8 1816.03,1216.04 1817.06,1216.28 1818.1,1216.51 1819.14,1216.75 1820.17,1216.98 1821.21,1217.22 1822.25,1217.45 1823.28,1217.68 
  1824.32,1217.91 1825.35,1218.14 1826.39,1218.37 1827.43,1218.6 1828.46,1218.83 1829.5,1219.05 1830.53,1219.28 1831.57,1219.5 1832.61,1219.72 1833.64,1219.94 
  1834.68,1220.16 1835.72,1220.38 1836.75,1220.6 1837.79,1220.82 1838.82,1221.03 1839.86,1221.25 1840.9,1221.46 1841.93,1221.68 1842.97,1221.89 1844,1222.1 
  1845.04,1222.31 1846.08,1222.52 1847.11,1222.73 1848.15,1222.94 1849.19,1223.14 1850.22,1223.35 1851.26,1223.55 1852.29,1223.76 1853.33,1223.96 1854.37,1224.16 
  1855.4,1224.37 1856.44,1224.57 1857.47,1224.77 1858.51,1224.96 1859.55,1225.16 1860.58,1225.36 1861.62,1225.55 1862.66,1225.75 1863.69,1225.94 1864.73,1226.14 
  1865.76,1226.33 1866.8,1226.52 1867.84,1226.71 1868.87,1226.9 1869.91,1227.09 1870.94,1227.28 1871.98,1227.47 1873.02,1227.66 1874.05,1227.84 1875.09,1228.03 
  1876.13,1228.21 1877.16,1228.39 1878.2,1228.58 1879.23,1228.76 1880.27,1228.94 1881.31,1229.12 1882.34,1229.3 1883.38,1229.48 1884.41,1229.66 1885.45,1229.84 
  1886.49,1230.01 1887.52,1230.19 1888.56,1230.36 1889.6,1230.54 1890.63,1230.71 1891.67,1230.88 1892.7,1231.06 1893.74,1231.23 1894.78,1231.4 1895.81,1231.57 
  1896.85,1231.74 1897.88,1231.91 1898.92,1232.07 1899.96,1232.24 1900.99,1232.41 1902.03,1232.57 1903.07,1232.74 1904.1,1232.9 1905.14,1233.07 1906.17,1233.23 
  1907.21,1233.39 1908.25,1233.55 1909.28,1233.71 1910.32,1233.87 1911.35,1234.03 1912.39,1234.19 1913.43,1234.35 1914.46,1234.51 1915.5,1234.67 1916.54,1234.82 
  1917.57,1234.98 1918.61,1235.13 1919.64,1235.29 1920.68,1235.44 1921.72,1235.59 1922.75,1235.75 1923.79,1235.9 1924.82,1236.05 1925.86,1236.2 1926.9,1236.35 
  1927.93,1236.5 1928.97,1236.65 1930.01,1236.8 1931.04,1236.94 1932.08,1237.09 1933.11,1237.24 1934.15,1237.38 1935.19,1237.53 1936.22,1237.67 1937.26,1237.82 
  1938.29,1237.96 1939.33,1238.1 1940.37,1238.25 1941.4,1238.39 1942.44,1238.53 1943.48,1238.67 1944.51,1238.81 1945.55,1238.95 1946.58,1239.09 1947.62,1239.23 
  1948.66,1239.36 1949.69,1239.5 1950.73,1239.64 1951.76,1239.77 1952.8,1239.91 1953.84,1240.05 1954.87,1240.18 1955.91,1240.31 1956.95,1240.45 1957.98,1240.58 
  1959.02,1240.71 1960.05,1240.85 1961.09,1240.98 1962.13,1241.11 1963.16,1241.24 1964.2,1241.37 1965.23,1241.5 1966.27,1241.63 1967.31,1241.75 1968.34,1241.88 
  1969.38,1242.01 1970.42,1242.14 1971.45,1242.26 1972.49,1242.39 1973.52,1242.51 1974.56,1242.64 1975.6,1242.76 1976.63,1242.89 1977.67,1243.01 1978.7,1243.13 
  1979.74,1243.26 1980.78,1243.38 1981.81,1243.5 1982.85,1243.62 1983.89,1243.74 1984.92,1243.86 1985.96,1243.98 1986.99,1244.1 1988.03,1244.22 1989.07,1244.34 
  1990.1,1244.46 1991.14,1244.57 1992.17,1244.69 1993.21,1244.81 1994.25,1244.92 1995.28,1245.04 1996.32,1245.15 1997.36,1245.27 1998.39,1245.38 1999.43,1245.5 
  2000.46,1245.61 2001.5,1245.72 2002.54,1245.84 2003.57,1245.95 2004.61,1246.06 2005.64,1246.17 2006.68,1246.28 2007.72,1246.39 2008.75,1246.5 2009.79,1246.61 
  2010.83,1246.72 2011.86,1246.83 2012.9,1246.94 2013.93,1247.05 2014.97,1247.16 2016.01,1247.26 2017.04,1247.37 2018.08,1247.48 2019.11,1247.58 2020.15,1247.69 
  2021.19,1247.79 2022.22,1247.9 2023.26,1248 2024.3,1248.11 2025.33,1248.21 2026.37,1248.32 2027.4,1248.42 2028.44,1248.52 2029.48,1248.62 2030.51,1248.73 
  2031.55,1248.83 2032.58,1248.93 2033.62,1249.03 2034.66,1249.13 2035.69,1249.23 2036.73,1249.33 2037.77,1249.43 2038.8,1249.53 2039.84,1249.63 2040.87,1249.72 
  2041.91,1249.82 2042.95,1249.92 2043.98,1250.02 2045.02,1250.11 2046.05,1250.21 2047.09,1250.31 2048.13,1250.4 2049.16,1250.5 2050.2,1250.59 2051.24,1250.69 
  2052.27,1250.78 2053.31,1250.88 2054.34,1250.97 2055.38,1251.06 2056.42,1251.16 2057.45,1251.25 2058.49,1251.34 2059.52,1251.43 2060.56,1251.53 2061.6,1251.62 
  2062.63,1251.71 2063.67,1251.8 2064.71,1251.89 2065.74,1251.98 2066.78,1252.07 2067.81,1252.16 2068.85,1252.25 2069.89,1252.34 2070.92,1252.43 2071.96,1252.52 
  2072.99,1252.6 2074.03,1252.69 2075.07,1252.78 2076.1,1252.87 2077.14,1252.95 2078.18,1253.04 2079.21,1253.13 2080.25,1253.21 2081.28,1253.3 2082.32,1253.38 
  2083.36,1253.47 2084.39,1253.55 2085.43,1253.64 2086.46,1253.72 2087.5,1253.81 2088.54,1253.89 2089.57,1253.97 2090.61,1254.05 2091.65,1254.14 2092.68,1254.22 
  2093.72,1254.3 2094.75,1254.38 2095.79,1254.47 2096.83,1254.55 2097.86,1254.63 2098.9,1254.71 2099.93,1254.79 2100.97,1254.87 2102.01,1254.95 2103.04,1255.03 
  2104.08,1255.11 2105.12,1255.19 2106.15,1255.27 2107.19,1255.35 2108.22,1255.42 2109.26,1255.5 2110.3,1255.58 2111.33,1255.66 2112.37,1255.73 2113.4,1255.81 
  2114.44,1255.89 2115.48,1255.96 2116.51,1256.04 2117.55,1256.12 2118.59,1256.19 2119.62,1256.27 2120.66,1256.34 2121.69,1256.42 2122.73,1256.49 2123.77,1256.57 
  2124.8,1256.64 2125.84,1256.72 2126.87,1256.79 2127.91,1256.86 2128.95,1256.94 2129.98,1257.01 2131.02,1257.08 2132.06,1257.16 2133.09,1257.23 2134.13,1257.3 
  2135.16,1257.37 2136.2,1257.44 2137.24,1257.51 2138.27,1257.59 2139.31,1257.66 2140.34,1257.73 2141.38,1257.8 2142.42,1257.87 2143.45,1257.94 2144.49,1258.01 
  2145.53,1258.08 2146.56,1258.15 2147.6,1258.22 2148.63,1258.28 2149.67,1258.35 2150.71,1258.42 2151.74,1258.49 2152.78,1258.56 2153.81,1258.63 2154.85,1258.69 
  2155.89,1258.76 2156.92,1258.83 2157.96,1258.89 2159,1258.96 2160.03,1259.03 2161.07,1259.09 2162.1,1259.16 2163.14,1259.23 2164.18,1259.29 2165.21,1259.36 
  2166.25,1259.42 2167.28,1259.49 2168.32,1259.55 2169.36,1259.62 2170.39,1259.68 2171.43,1259.75 2172.47,1259.81 2173.5,1259.87 2174.54,1259.94 2175.57,1260 
  2176.61,1260.06 2177.65,1260.13 2178.68,1260.19 2179.72,1260.25 2180.75,1260.31 2181.79,1260.38 2182.83,1260.44 2183.86,1260.5 2184.9,1260.56 2185.94,1260.62 
  2186.97,1260.68 2188.01,1260.75 2189.04,1260.81 2190.08,1260.87 2191.12,1260.93 2192.15,1260.99 2193.19,1261.05 2194.22,1261.11 2195.26,1261.17 2196.3,1261.23 
  2197.33,1261.29 2198.37,1261.35 2199.41,1261.4 2200.44,1261.46 2201.48,1261.52 2202.51,1261.58 2203.55,1261.64 2204.59,1261.7 2205.62,1261.75 2206.66,1261.81 
  2207.69,1261.87 2208.73,1261.93 2209.77,1261.98 2210.8,1262.04 2211.84,1262.1 2212.88,1262.15 2213.91,1262.21 2214.95,1262.27 2215.98,1262.32 2217.02,1262.38 
  2218.06,1262.44 2219.09,1262.49 2220.13,1262.55 2221.16,1262.6 2222.2,1262.66 2223.24,1262.71 2224.27,1262.77 2225.31,1262.82 2226.35,1262.88 2227.38,1262.93 
  2228.42,1262.98 2229.45,1263.04 2230.49,1263.09 2231.53,1263.15 2232.56,1263.2 2233.6,1263.25 2234.63,1263.31 2235.67,1263.36 2236.71,1263.41 2237.74,1263.46 
  2238.78,1263.52 2239.82,1263.57 2240.85,1263.62 2241.89,1263.67 2242.92,1263.73 2243.96,1263.78 2245,1263.83 2246.03,1263.88 2247.07,1263.93 2248.1,1263.98 
  2249.14,1264.03 2250.18,1264.08 2251.21,1264.14 2252.25,1264.19 2253.29,1264.24 2254.32,1264.29 2255.36,1264.34 2256.39,1264.39 2257.43,1264.44 2258.47,1264.49 
  2259.5,1264.54 2260.54,1264.59 2261.57,1264.63 2262.61,1264.68 2263.65,1264.73 2264.68,1264.78 2265.72,1264.83 2266.76,1264.88 2267.79,1264.93 2268.83,1264.98 
  2269.86,1265.02 2270.9,1265.07 2271.94,1265.12 2272.97,1265.17 2274.01,1265.21 2275.04,1265.26 2276.08,1265.31 2277.12,1265.36 2278.15,1265.4 2279.19,1265.45 
  2280.23,1265.5 2281.26,1265.54 2282.3,1265.59 2283.33,1265.64 2284.37,1265.68 2285.41,1265.73 2286.44,1265.77 2287.48,1265.82 2288.51,1265.87 2289.55,1265.91 
  2290.59,1265.96 
  "/>
<circle clip-path="url(#clip852)" cx="218.281" cy="1265.96" r="14" fill="#e26f46" fill-rule="evenodd" fill-opacity="1" stroke="#000000" stroke-opacity="1" stroke-width="3.2"/>
<circle clip-path="url(#clip852)" cx="425.512" cy="1253.47" r="14" fill="#e26f46" fill-rule="evenodd" fill-opacity="1" stroke="#000000" stroke-opacity="1" stroke-width="3.2"/>
<circle clip-path="url(#clip852)" cx="632.742" cy="1228.21" r="14" fill="#e26f46" fill-rule="evenodd" fill-opacity="1" stroke="#000000" stroke-opacity="1" stroke-width="3.2"/>
<circle clip-path="url(#clip852)" cx="839.973" cy="1166.87" r="14" fill="#e26f46" fill-rule="evenodd" fill-opacity="1" stroke="#000000" stroke-opacity="1" stroke-width="3.2"/>
<circle clip-path="url(#clip852)" cx="1047.2" cy="982.861" r="14" fill="#e26f46" fill-rule="evenodd" fill-opacity="1" stroke="#000000" stroke-opacity="1" stroke-width="3.2"/>
<circle clip-path="url(#clip852)" cx="1254.43" cy="676.174" r="14" fill="#e26f46" fill-rule="evenodd" fill-opacity="1" stroke="#000000" stroke-opacity="1" stroke-width="3.2"/>
<circle clip-path="url(#clip852)" cx="1461.66" cy="982.861" r="14" fill="#e26f46" fill-rule="evenodd" fill-opacity="1" stroke="#000000" stroke-opacity="1" stroke-width="3.2"/>
<circle clip-path="url(#clip852)" cx="1668.9" cy="1166.87" r="14" fill="#e26f46" fill-rule="evenodd" fill-opacity="1" stroke="#000000" stroke-opacity="1" stroke-width="3.2"/>
<circle clip-path="url(#clip852)" cx="1876.13" cy="1228.21" r="14" fill="#e26f46" fill-rule="evenodd" fill-opacity="1" stroke="#000000" stroke-opacity="1" stroke-width="3.2"/>
<circle clip-path="url(#clip852)" cx="2083.36" cy="1253.47" r="14" fill="#e26f46" fill-rule="evenodd" fill-opacity="1" stroke="#000000" stroke-opacity="1" stroke-width="3.2"/>
<circle clip-path="url(#clip852)" cx="2290.59" cy="1265.96" r="14" fill="#e26f46" fill-rule="evenodd" fill-opacity="1" stroke="#000000" stroke-opacity="1" stroke-width="3.2"/>
<polyline clip-path="url(#clip852)" style="stroke:#3da44d; stroke-linecap:butt; stroke-linejoin:round; stroke-width:4; stroke-opacity:1; fill:none" points="
  218.281,1265.96 239.004,534.903 259.727,182.783 280.45,87.9763 301.174,157.353 321.897,321.2 342.62,528.833 363.343,744.822 384.066,945.786 404.789,1117.67 
  425.512,1253.47 446.235,1351.33 466.958,1413.02 487.681,1442.65 508.404,1445.72 529.127,1428.29 549.85,1396.48 570.573,1355.99 591.296,1311.82 612.019,1268.16 
  632.742,1228.21 653.465,1194.26 674.188,1167.66 694.912,1148.95 715.635,1137.95 736.358,1133.9 757.081,1135.58 777.804,1141.45 798.527,1149.8 819.25,1158.85 
  839.973,1166.87 860.696,1172.3 881.419,1173.76 902.142,1170.17 922.865,1160.79 943.588,1145.19 964.311,1123.31 985.034,1095.41 1005.76,1062.09 1026.48,1024.21 
  1047.2,982.861 1067.93,939.34 1088.65,895.049 1109.37,851.459 1130.1,810.044 1150.82,772.224 1171.54,739.302 1192.26,712.423 1212.99,692.522 1233.71,680.297 
  1254.43,676.174 1275.16,680.297 1295.88,692.522 1316.6,712.423 1337.33,739.302 1358.05,772.224 1378.77,810.044 1399.5,851.459 1420.22,895.049 1440.94,939.34 
  1461.66,982.861 1482.39,1024.21 1503.11,1062.09 1523.83,1095.41 1544.56,1123.31 1565.28,1145.19 1586,1160.79 1606.73,1170.17 1627.45,1173.76 1648.17,1172.3 
  1668.9,1166.87 1689.62,1158.85 1710.34,1149.8 1731.06,1141.45 1751.79,1135.58 1772.51,1133.9 1793.23,1137.95 1813.96,1148.95 1834.68,1167.66 1855.4,1194.26 
  1876.13,1228.21 1896.85,1268.16 1917.57,1311.82 1938.29,1355.99 1959.02,1396.48 1979.74,1428.29 2000.46,1445.72 2021.19,1442.65 2041.91,1413.02 2062.63,1351.33 
  2083.36,1253.47 2104.08,1117.67 2124.8,945.786 2145.53,744.822 2166.25,528.833 2186.97,321.2 2207.69,157.353 2228.42,87.9763 2249.14,182.783 2269.86,534.903 
  2290.59,1265.96 
  "/>
<path clip-path="url(#clip850)" d="
M1879.33 302.578 L2279.53 302.578 L2279.53 95.2176 L1879.33 95.2176  Z
  " fill="#ffffff" fill-rule="evenodd" fill-opacity="1"/>
<polyline clip-path="url(#clip850)" style="stroke:#000000; stroke-linecap:butt; stroke-linejoin:round; stroke-width:4; stroke-opacity:1; fill:none" points="
  1879.33,302.578 2279.53,302.578 2279.53,95.2176 1879.33,95.2176 1879.33,302.578 
  "/>
<polyline clip-path="url(#clip850)" style="stroke:#009af9; stroke-linecap:butt; stroke-linejoin:round; stroke-width:4; stroke-opacity:1; fill:none" points="
  1903.74,147.058 2050.18,147.058 
  "/>
<path clip-path="url(#clip850)" d="M2086.48 141.398 Q2083.06 141.398 2081.07 144.083 Q2079.08 146.745 2079.08 151.398 Q2079.08 156.051 2081.05 158.736 Q2083.04 161.398 2086.48 161.398 Q2089.89 161.398 2091.88 158.713 Q2093.87 156.027 2093.87 151.398 Q2093.87 146.791 2091.88 144.106 Q2089.89 141.398 2086.48 141.398 M2086.48 137.787 Q2092.04 137.787 2095.21 141.398 Q2098.38 145.009 2098.38 151.398 Q2098.38 157.764 2095.21 161.398 Q2092.04 165.009 2086.48 165.009 Q2080.91 165.009 2077.73 161.398 Q2074.59 157.764 2074.59 151.398 Q2074.59 145.009 2077.73 141.398 Q2080.91 137.787 2086.48 137.787 Z" fill="#000000" fill-rule="evenodd" fill-opacity="1" /><path clip-path="url(#clip850)" d="M2120.47 142.393 Q2119.75 141.977 2118.89 141.791 Q2118.06 141.583 2117.04 141.583 Q2113.43 141.583 2111.48 143.944 Q2109.56 146.282 2109.56 150.68 L2109.56 164.338 L2105.28 164.338 L2105.28 138.412 L2109.56 138.412 L2109.56 142.44 Q2110.91 140.078 2113.06 138.944 Q2115.21 137.787 2118.29 137.787 Q2118.73 137.787 2119.26 137.856 Q2119.79 137.903 2120.44 138.018 L2120.47 142.393 Z" fill="#000000" fill-rule="evenodd" fill-opacity="1" /><path clip-path="url(#clip850)" d="M2141.16 151.074 Q2141.16 146.444 2139.24 143.898 Q2137.34 141.352 2133.89 141.352 Q2130.47 141.352 2128.54 143.898 Q2126.65 146.444 2126.65 151.074 Q2126.65 155.68 2128.54 158.226 Q2130.47 160.773 2133.89 160.773 Q2137.34 160.773 2139.24 158.226 Q2141.16 155.68 2141.16 151.074 M2145.42 161.12 Q2145.42 167.74 2142.48 170.958 Q2139.54 174.199 2133.48 174.199 Q2131.23 174.199 2129.24 173.851 Q2127.25 173.527 2125.37 172.833 L2125.37 168.689 Q2127.25 169.708 2129.08 170.194 Q2130.91 170.68 2132.8 170.68 Q2136.99 170.68 2139.08 168.481 Q2141.16 166.305 2141.16 161.884 L2141.16 159.777 Q2139.84 162.069 2137.78 163.203 Q2135.72 164.338 2132.85 164.338 Q2128.08 164.338 2125.17 160.703 Q2122.25 157.069 2122.25 151.074 Q2122.25 145.055 2125.17 141.421 Q2128.08 137.787 2132.85 137.787 Q2135.72 137.787 2137.78 138.921 Q2139.84 140.055 2141.16 142.347 L2141.16 138.412 L2145.42 138.412 L2145.42 161.12 Z" fill="#000000" fill-rule="evenodd" fill-opacity="1" /><path clip-path="url(#clip850)" d="M2154.19 138.412 L2158.45 138.412 L2158.45 164.338 L2154.19 164.338 L2154.19 138.412 M2154.19 128.319 L2158.45 128.319 L2158.45 133.713 L2154.19 133.713 L2154.19 128.319 Z" fill="#000000" fill-rule="evenodd" fill-opacity="1" /><path clip-path="url(#clip850)" d="M2188.91 148.689 L2188.91 164.338 L2184.66 164.338 L2184.66 148.828 Q2184.66 145.148 2183.22 143.319 Q2181.79 141.49 2178.91 141.49 Q2175.47 141.49 2173.48 143.69 Q2171.48 145.889 2171.48 149.685 L2171.48 164.338 L2167.2 164.338 L2167.2 138.412 L2171.48 138.412 L2171.48 142.44 Q2173.01 140.102 2175.07 138.944 Q2177.16 137.787 2179.86 137.787 Q2184.33 137.787 2186.62 140.565 Q2188.91 143.319 2188.91 148.689 Z" fill="#000000" fill-rule="evenodd" fill-opacity="1" /><path clip-path="url(#clip850)" d="M2209.19 151.305 Q2204.03 151.305 2202.04 152.486 Q2200.05 153.666 2200.05 156.514 Q2200.05 158.782 2201.53 160.125 Q2203.04 161.444 2205.6 161.444 Q2209.15 161.444 2211.28 158.944 Q2213.43 156.421 2213.43 152.254 L2213.43 151.305 L2209.19 151.305 M2217.69 149.546 L2217.69 164.338 L2213.43 164.338 L2213.43 160.402 Q2211.97 162.763 2209.79 163.898 Q2207.62 165.009 2204.47 165.009 Q2200.49 165.009 2198.13 162.787 Q2195.79 160.541 2195.79 156.791 Q2195.79 152.416 2198.71 150.194 Q2201.65 147.972 2207.46 147.972 L2213.43 147.972 L2213.43 147.555 Q2213.43 144.615 2211.48 143.018 Q2209.56 141.398 2206.07 141.398 Q2203.85 141.398 2201.74 141.93 Q2199.63 142.463 2197.69 143.527 L2197.69 139.592 Q2200.03 138.69 2202.22 138.25 Q2204.42 137.787 2206.51 137.787 Q2212.13 137.787 2214.91 140.703 Q2217.69 143.62 2217.69 149.546 Z" fill="#000000" fill-rule="evenodd" fill-opacity="1" /><path clip-path="url(#clip850)" d="M2226.46 128.319 L2230.72 128.319 L2230.72 164.338 L2226.46 164.338 L2226.46 128.319 Z" fill="#000000" fill-rule="evenodd" fill-opacity="1" /><circle clip-path="url(#clip850)" cx="1976.96" cy="198.898" r="23" fill="#e26f46" fill-rule="evenodd" fill-opacity="1" stroke="#000000" stroke-opacity="1" stroke-width="5.12"/>
<path clip-path="url(#clip850)" d="M2078.87 212.289 L2078.87 226.039 L2074.59 226.039 L2074.59 190.252 L2078.87 190.252 L2078.87 194.187 Q2080.21 191.872 2082.25 190.761 Q2084.31 189.627 2087.16 189.627 Q2091.88 189.627 2094.82 193.377 Q2097.78 197.127 2097.78 203.238 Q2097.78 209.349 2094.82 213.099 Q2091.88 216.849 2087.16 216.849 Q2084.31 216.849 2082.25 215.738 Q2080.21 214.603 2078.87 212.289 M2093.36 203.238 Q2093.36 198.539 2091.42 195.877 Q2089.49 193.192 2086.11 193.192 Q2082.73 193.192 2080.79 195.877 Q2078.87 198.539 2078.87 203.238 Q2078.87 207.937 2080.79 210.622 Q2082.73 213.284 2086.11 213.284 Q2089.49 213.284 2091.42 210.622 Q2093.36 207.937 2093.36 203.238 Z" fill="#000000" fill-rule="evenodd" fill-opacity="1" /><path clip-path="url(#clip850)" d="M2114.89 193.238 Q2111.46 193.238 2109.47 195.923 Q2107.48 198.585 2107.48 203.238 Q2107.48 207.891 2109.45 210.576 Q2111.44 213.238 2114.89 213.238 Q2118.29 213.238 2120.28 210.553 Q2122.27 207.867 2122.27 203.238 Q2122.27 198.631 2120.28 195.946 Q2118.29 193.238 2114.89 193.238 M2114.89 189.627 Q2120.44 189.627 2123.61 193.238 Q2126.79 196.849 2126.79 203.238 Q2126.79 209.604 2123.61 213.238 Q2120.44 216.849 2114.89 216.849 Q2109.31 216.849 2106.14 213.238 Q2102.99 209.604 2102.99 203.238 Q2102.99 196.849 2106.14 193.238 Q2109.31 189.627 2114.89 189.627 Z" fill="#000000" fill-rule="evenodd" fill-opacity="1" /><path clip-path="url(#clip850)" d="M2133.85 190.252 L2138.1 190.252 L2138.1 216.178 L2133.85 216.178 L2133.85 190.252 M2133.85 180.159 L2138.1 180.159 L2138.1 185.553 L2133.85 185.553 L2133.85 180.159 Z" fill="#000000" fill-rule="evenodd" fill-opacity="1" /><path clip-path="url(#clip850)" d="M2168.57 200.529 L2168.57 216.178 L2164.31 216.178 L2164.31 200.668 Q2164.31 196.988 2162.87 195.159 Q2161.44 193.33 2158.57 193.33 Q2155.12 193.33 2153.13 195.53 Q2151.14 197.729 2151.14 201.525 L2151.14 216.178 L2146.85 216.178 L2146.85 190.252 L2151.14 190.252 L2151.14 194.28 Q2152.67 191.942 2154.73 190.784 Q2156.81 189.627 2159.52 189.627 Q2163.98 189.627 2166.28 192.405 Q2168.57 195.159 2168.57 200.529 Z" fill="#000000" fill-rule="evenodd" fill-opacity="1" /><path clip-path="url(#clip850)" d="M2181.28 182.891 L2181.28 190.252 L2190.05 190.252 L2190.05 193.562 L2181.28 193.562 L2181.28 207.636 Q2181.28 210.807 2182.13 211.71 Q2183.01 212.613 2185.67 212.613 L2190.05 212.613 L2190.05 216.178 L2185.67 216.178 Q2180.74 216.178 2178.87 214.349 Q2176.99 212.497 2176.99 207.636 L2176.99 193.562 L2173.87 193.562 L2173.87 190.252 L2176.99 190.252 L2176.99 182.891 L2181.28 182.891 Z" fill="#000000" fill-rule="evenodd" fill-opacity="1" /><path clip-path="url(#clip850)" d="M2212.18 191.016 L2212.18 195.043 Q2210.37 194.117 2208.43 193.655 Q2206.48 193.192 2204.4 193.192 Q2201.23 193.192 2199.63 194.164 Q2198.06 195.136 2198.06 197.08 Q2198.06 198.562 2199.19 199.418 Q2200.33 200.252 2203.75 201.016 L2205.21 201.34 Q2209.75 202.312 2211.65 204.094 Q2213.57 205.854 2213.57 209.025 Q2213.57 212.636 2210.7 214.742 Q2207.85 216.849 2202.85 216.849 Q2200.77 216.849 2198.5 216.432 Q2196.25 216.039 2193.75 215.228 L2193.75 210.83 Q2196.11 212.057 2198.41 212.682 Q2200.7 213.284 2202.94 213.284 Q2205.95 213.284 2207.57 212.266 Q2209.19 211.224 2209.19 209.349 Q2209.19 207.613 2208.01 206.687 Q2206.85 205.761 2202.9 204.904 L2201.41 204.557 Q2197.46 203.724 2195.7 202.011 Q2193.94 200.275 2193.94 197.266 Q2193.94 193.608 2196.53 191.618 Q2199.12 189.627 2203.89 189.627 Q2206.25 189.627 2208.34 189.974 Q2210.42 190.321 2212.18 191.016 Z" fill="#000000" fill-rule="evenodd" fill-opacity="1" /><polyline clip-path="url(#clip850)" style="stroke:#3da44d; stroke-linecap:butt; stroke-linejoin:round; stroke-width:4; stroke-opacity:1; fill:none" points="
  1903.74,250.738 2050.18,250.738 
  "/>
<path clip-path="url(#clip850)" d="M2091.09 231.999 L2091.09 235.541 L2087.02 235.541 Q2084.73 235.541 2083.82 236.467 Q2082.94 237.393 2082.94 239.8 L2082.94 242.092 L2089.96 242.092 L2089.96 245.402 L2082.94 245.402 L2082.94 268.018 L2078.66 268.018 L2078.66 245.402 L2074.59 245.402 L2074.59 242.092 L2078.66 242.092 L2078.66 240.286 Q2078.66 235.958 2080.67 233.99 Q2082.69 231.999 2087.06 231.999 L2091.09 231.999 Z" fill="#000000" fill-rule="evenodd" fill-opacity="1" /><path clip-path="url(#clip850)" d="M2094.66 242.092 L2098.92 242.092 L2098.92 268.018 L2094.66 268.018 L2094.66 242.092 M2094.66 231.999 L2098.92 231.999 L2098.92 237.393 L2094.66 237.393 L2094.66 231.999 Z" fill="#000000" fill-rule="evenodd" fill-opacity="1" /><path clip-path="url(#clip850)" d="M2112.04 234.731 L2112.04 242.092 L2120.81 242.092 L2120.81 245.402 L2112.04 245.402 L2112.04 259.476 Q2112.04 262.647 2112.9 263.55 Q2113.78 264.453 2116.44 264.453 L2120.81 264.453 L2120.81 268.018 L2116.44 268.018 Q2111.51 268.018 2109.63 266.189 Q2107.76 264.337 2107.76 259.476 L2107.76 245.402 L2104.63 245.402 L2104.63 242.092 L2107.76 242.092 L2107.76 234.731 L2112.04 234.731 Z" fill="#000000" fill-rule="evenodd" fill-opacity="1" /></svg>
